<?xml version="1.0" encoding="UTF-8" standalone="no"?>
<!DOCTYPE svg PUBLIC "-//W3C//DTD SVG 1.1//EN"
 "http://www.w3.org/Graphics/SVG/1.1/DTD/svg11.dtd">
<!-- Generated by graphviz version 5.0.0 (20220707.1540)
 -->
<!-- Title: UmlClassDiagram Pages: 1 -->
<svg width="1983pt" height="449pt"
 viewBox="0.00 0.00 1983.38 449.00" xmlns="http://www.w3.org/2000/svg" xmlns:xlink="http://www.w3.org/1999/xlink">
<g id="graph0" class="graph" transform="scale(1 1) rotate(0) translate(4 445)">
<title>UmlClassDiagram</title>
<polygon fill="white" stroke="transparent" points="-4,4 -4,-445 1979.38,-445 1979.38,4 -4,4"/>
<!-- 7 -->
<g id="node1" class="node">
<title>7</title>
<polygon fill="#f2f2f2" stroke="black" points="0,-95.9 0,-154.3 250.44,-154.3 250.44,-95.9 0,-95.9"/>
<text text-anchor="middle" x="125.22" y="-137.7" font-family="Times,serif" font-size="14.00">&lt;&lt;Interface&gt;&gt;</text>
<text text-anchor="middle" x="125.22" y="-120.9" font-family="Times,serif" font-size="14.00">IERC4626Vault</text>
<text text-anchor="middle" x="125.22" y="-104.1" font-family="Times,serif" font-size="14.00">../contracts/interfaces/IERC4626Vault.sol</text>
</g>
<!-- 342 -->
<g id="node11" class="node">
<title>342</title>
<polygon fill="#f2f2f2" stroke="black" points="717.16,-382.1 717.16,-440.5 1121.27,-440.5 1121.27,-382.1 717.16,-382.1"/>
<text text-anchor="middle" x="919.22" y="-423.9" font-family="Times,serif" font-size="14.00">&lt;&lt;Interface&gt;&gt;</text>
<text text-anchor="middle" x="919.22" y="-407.1" font-family="Times,serif" font-size="14.00">IERC20</text>
<text text-anchor="middle" x="919.22" y="-390.3" font-family="Times,serif" font-size="14.00">../node_modules/@openzeppelin/contracts/token/ERC20/IERC20.sol</text>
</g>
<!-- 7&#45;&gt;342 -->
<g id="edge1" class="edge">
<title>7&#45;&gt;342</title>
<path fill="none" stroke="black" stroke-dasharray="5,2" d="M71.15,-154.33C57.98,-164.01 45.57,-176.17 38.22,-190.8 7.33,-252.27 -8.61,-295.2 38.22,-345.6 81.64,-392.33 440.73,-405.65 686.84,-409.24"/>
<polygon fill="none" stroke="black" points="686.88,-419.75 717.01,-409.65 687.16,-398.75 686.88,-419.75"/>
</g>
<!-- 9 -->
<g id="node2" class="node">
<title>9</title>
<polygon fill="#f2f2f2" stroke="black" points="47.28,-286.7 47.28,-345.1 247.16,-345.1 247.16,-286.7 47.28,-286.7"/>
<text text-anchor="middle" x="147.22" y="-328.5" font-family="Times,serif" font-size="14.00">&lt;&lt;Interface&gt;&gt;</text>
<text text-anchor="middle" x="147.22" y="-311.7" font-family="Times,serif" font-size="14.00">INexus</text>
<text text-anchor="middle" x="147.22" y="-294.9" font-family="Times,serif" font-size="14.00">../contracts/interfaces/INexus.sol</text>
</g>
<!-- 13 -->
<g id="node3" class="node">
<title>13</title>
<polygon fill="#f2f2f2" stroke="black" points="47.33,-191.3 47.33,-249.7 293.11,-249.7 293.11,-191.3 47.33,-191.3"/>
<text text-anchor="middle" x="170.22" y="-233.1" font-family="Times,serif" font-size="14.00">&lt;&lt;Abstract&gt;&gt;</text>
<text text-anchor="middle" x="170.22" y="-216.3" font-family="Times,serif" font-size="14.00">ImmutableModule</text>
<text text-anchor="middle" x="170.22" y="-199.5" font-family="Times,serif" font-size="14.00">../contracts/shared/ImmutableModule.sol</text>
</g>
<!-- 13&#45;&gt;9 -->
<g id="edge3" class="edge">
<title>13&#45;&gt;9</title>
<path fill="none" stroke="black" d="M163.26,-249.78C161.18,-258.2 158.87,-267.58 156.67,-276.54"/>
<polygon fill="black" stroke="black" points="153.23,-275.85 154.24,-286.4 160.03,-277.52 153.23,-275.85"/>
</g>
<!-- 15 -->
<g id="node4" class="node">
<title>15</title>
<polygon fill="#f2f2f2" stroke="black" points="265.27,-295.1 265.27,-336.7 479.17,-336.7 479.17,-295.1 265.27,-295.1"/>
<text text-anchor="middle" x="372.22" y="-320.1" font-family="Times,serif" font-size="14.00">ModuleKeys</text>
<text text-anchor="middle" x="372.22" y="-303.3" font-family="Times,serif" font-size="14.00">../contracts/shared/ModuleKeys.sol</text>
</g>
<!-- 13&#45;&gt;15 -->
<g id="edge2" class="edge">
<title>13&#45;&gt;15</title>
<path fill="none" stroke="black" d="M231.37,-249.78C253.58,-260.05 278.85,-271.73 301.8,-282.34"/>
<polygon fill="none" stroke="black" points="297.57,-291.95 329.21,-295.01 306.39,-272.89 297.57,-291.95"/>
</g>
<!-- 20 -->
<g id="node5" class="node">
<title>20</title>
<polygon fill="#f2f2f2" stroke="black" points="374.78,-95.9 374.78,-154.3 623.66,-154.3 623.66,-95.9 374.78,-95.9"/>
<text text-anchor="middle" x="499.22" y="-137.7" font-family="Times,serif" font-size="14.00">&lt;&lt;Abstract&gt;&gt;</text>
<text text-anchor="middle" x="499.22" y="-120.9" font-family="Times,serif" font-size="14.00">VaultManagerRole</text>
<text text-anchor="middle" x="499.22" y="-104.1" font-family="Times,serif" font-size="14.00">../contracts/shared/VaultManagerRole.sol</text>
</g>
<!-- 20&#45;&gt;13 -->
<g id="edge5" class="edge">
<title>20&#45;&gt;13</title>
<path fill="none" stroke="black" d="M399.62,-154.38C367.88,-163.39 332.31,-173.48 298.82,-182.99"/>
<polygon fill="none" stroke="black" points="295.76,-172.95 269.77,-191.24 301.5,-193.15 295.76,-172.95"/>
</g>
<!-- 156 -->
<g id="node9" class="node">
<title>156</title>
<polygon fill="#f2f2f2" stroke="black" points="311.18,-191.3 311.18,-249.7 687.26,-249.7 687.26,-191.3 311.18,-191.3"/>
<text text-anchor="middle" x="499.22" y="-233.1" font-family="Times,serif" font-size="14.00">&lt;&lt;Abstract&gt;&gt;</text>
<text text-anchor="middle" x="499.22" y="-216.3" font-family="Times,serif" font-size="14.00">Pausable</text>
<text text-anchor="middle" x="499.22" y="-199.5" font-family="Times,serif" font-size="14.00">../node_modules/@openzeppelin/contracts/security/Pausable.sol</text>
</g>
<!-- 20&#45;&gt;156 -->
<g id="edge4" class="edge">
<title>20&#45;&gt;156</title>
<path fill="none" stroke="black" d="M499.22,-154.38C499.22,-156.46 499.22,-158.6 499.22,-160.78"/>
<polygon fill="none" stroke="black" points="488.72,-161 499.22,-191 509.72,-161 488.72,-161"/>
</g>
<!-- 22 -->
<g id="node6" class="node">
<title>22</title>
<polygon fill="#f2f2f2" stroke="black" points="725.11,-95.9 725.11,-154.3 969.32,-154.3 969.32,-95.9 725.11,-95.9"/>
<text text-anchor="middle" x="847.22" y="-137.7" font-family="Times,serif" font-size="14.00">&lt;&lt;Abstract&gt;&gt;</text>
<text text-anchor="middle" x="847.22" y="-120.9" font-family="Times,serif" font-size="14.00">InitializableToken</text>
<text text-anchor="middle" x="847.22" y="-104.1" font-family="Times,serif" font-size="14.00">../contracts/tokens/InitializableToken.sol</text>
</g>
<!-- 23 -->
<g id="node7" class="node">
<title>23</title>
<polygon fill="#f2f2f2" stroke="black" points="705.29,-191.3 705.29,-249.7 989.15,-249.7 989.15,-191.3 705.29,-191.3"/>
<text text-anchor="middle" x="847.22" y="-233.1" font-family="Times,serif" font-size="14.00">&lt;&lt;Abstract&gt;&gt;</text>
<text text-anchor="middle" x="847.22" y="-216.3" font-family="Times,serif" font-size="14.00">InitializableTokenDetails</text>
<text text-anchor="middle" x="847.22" y="-199.5" font-family="Times,serif" font-size="14.00">../contracts/tokens/InitializableTokenDetails.sol</text>
</g>
<!-- 22&#45;&gt;23 -->
<g id="edge7" class="edge">
<title>22&#45;&gt;23</title>
<path fill="none" stroke="black" d="M847.22,-154.38C847.22,-156.46 847.22,-158.6 847.22,-160.78"/>
<polygon fill="none" stroke="black" points="836.72,-161 847.22,-191 857.72,-161 836.72,-161"/>
</g>
<!-- 341 -->
<g id="node10" class="node">
<title>341</title>
<polygon fill="#f2f2f2" stroke="black" points="1007.5,-199.7 1007.5,-241.3 1406.94,-241.3 1406.94,-199.7 1007.5,-199.7"/>
<text text-anchor="middle" x="1207.22" y="-224.7" font-family="Times,serif" font-size="14.00">ERC20</text>
<text text-anchor="middle" x="1207.22" y="-207.9" font-family="Times,serif" font-size="14.00">../node_modules/@openzeppelin/contracts/token/ERC20/ERC20.sol</text>
</g>
<!-- 22&#45;&gt;341 -->
<g id="edge6" class="edge">
<title>22&#45;&gt;341</title>
<path fill="none" stroke="black" d="M956.21,-154.38C1002.36,-166.35 1055.92,-180.25 1101.69,-192.12"/>
<polygon fill="none" stroke="black" points="1099.17,-202.32 1130.85,-199.69 1104.45,-181.99 1099.17,-202.32"/>
</g>
<!-- 30 -->
<g id="node8" class="node">
<title>30</title>
<polygon fill="#f2f2f2" stroke="black" points="393.44,-0.5 393.44,-58.9 605,-58.9 605,-0.5 393.44,-0.5"/>
<text text-anchor="middle" x="499.22" y="-42.3" font-family="Times,serif" font-size="14.00">&lt;&lt;Abstract&gt;&gt;</text>
<text text-anchor="middle" x="499.22" y="-25.5" font-family="Times,serif" font-size="14.00">AbstractVault</text>
<text text-anchor="middle" x="499.22" y="-8.7" font-family="Times,serif" font-size="14.00">../contracts/vault/AbstractVault.sol</text>
</g>
<!-- 30&#45;&gt;7 -->
<g id="edge8" class="edge">
<title>30&#45;&gt;7</title>
<path fill="none" stroke="black" stroke-dasharray="5,2" d="M393.05,-57.21C354.03,-66.96 309.19,-78.16 267.5,-88.57"/>
<polygon fill="none" stroke="black" points="264.75,-78.43 238.19,-95.89 269.84,-98.81 264.75,-78.43"/>
</g>
<!-- 30&#45;&gt;20 -->
<g id="edge10" class="edge">
<title>30&#45;&gt;20</title>
<path fill="none" stroke="black" d="M499.22,-58.98C499.22,-61.06 499.22,-63.2 499.22,-65.38"/>
<polygon fill="none" stroke="black" points="488.72,-65.6 499.22,-95.6 509.72,-65.6 488.72,-65.6"/>
</g>
<!-- 30&#45;&gt;22 -->
<g id="edge9" class="edge">
<title>30&#45;&gt;22</title>
<path fill="none" stroke="black" d="M604.58,-58.98C638.65,-68.12 676.91,-78.39 712.8,-88.02"/>
<polygon fill="none" stroke="black" points="710.23,-98.2 741.92,-95.84 715.67,-77.92 710.23,-98.2"/>
</g>
<!-- 30&#45;&gt;342 -->
<g id="edge12" class="edge">
<title>30&#45;&gt;342</title>
<path fill="none" stroke="black" d="M605.36,-37.97C817.92,-54.31 1286.58,-99.82 1416.22,-190.8 1457.22,-219.57 1462.34,-238.07 1476.22,-286.2 1483.53,-311.57 1493.78,-325.88 1476.22,-345.6 1452.86,-371.83 1278.84,-389.05 1131.44,-399.08"/>
<polygon fill="black" stroke="black" points="1131.07,-395.59 1121.32,-399.76 1131.54,-402.58 1131.07,-395.59"/>
</g>
<!-- 609 -->
<g id="node13" class="node">
<title>609</title>
<polygon fill="#f2f2f2" stroke="black" points="1523.05,-95.9 1523.05,-154.3 1975.38,-154.3 1975.38,-95.9 1523.05,-95.9"/>
<text text-anchor="middle" x="1749.22" y="-137.7" font-family="Times,serif" font-size="14.00">&lt;&lt;Library&gt;&gt;</text>
<text text-anchor="middle" x="1749.22" y="-120.9" font-family="Times,serif" font-size="14.00">SafeERC20</text>
<text text-anchor="middle" x="1749.22" y="-104.1" font-family="Times,serif" font-size="14.00">../node_modules/@openzeppelin/contracts/token/ERC20/utils/SafeERC20.sol</text>
</g>
<!-- 30&#45;&gt;609 -->
<g id="edge11" class="edge">
<title>30&#45;&gt;609</title>
<path fill="none" stroke="black" stroke-dasharray="5,2" d="M605.15,-35.56C789.25,-44.45 1180.05,-65.2 1509.22,-95.4 1510.34,-95.5 1511.47,-95.61 1512.6,-95.71"/>
<polygon fill="black" stroke="black" points="1512.54,-99.22 1522.82,-96.68 1513.2,-92.25 1512.54,-99.22"/>
</g>
<!-- 165 -->
<g id="node15" class="node">
<title>165</title>
<polygon fill="#f2f2f2" stroke="black" points="519,-286.7 519,-345.1 869.44,-345.1 869.44,-286.7 519,-286.7"/>
<text text-anchor="middle" x="694.22" y="-328.5" font-family="Times,serif" font-size="14.00">&lt;&lt;Abstract&gt;&gt;</text>
<text text-anchor="middle" x="694.22" y="-311.7" font-family="Times,serif" font-size="14.00">Context</text>
<text text-anchor="middle" x="694.22" y="-294.9" font-family="Times,serif" font-size="14.00">../node_modules/@openzeppelin/contracts/utils/Context.sol</text>
</g>
<!-- 156&#45;&gt;165 -->
<g id="edge13" class="edge">
<title>156&#45;&gt;165</title>
<path fill="none" stroke="black" d="M558.25,-249.78C573.84,-257.24 590.98,-265.45 607.69,-273.46"/>
<polygon fill="none" stroke="black" points="603.46,-283.07 635.05,-286.56 612.53,-264.13 603.46,-283.07"/>
</g>
<!-- 341&#45;&gt;342 -->
<g id="edge15" class="edge">
<title>341&#45;&gt;342</title>
<path fill="none" stroke="black" stroke-dasharray="5,2" d="M1063.45,-241.37C1009.23,-251.8 956.26,-266.57 938.22,-286.2 922.18,-303.65 916.34,-328.67 914.92,-351.68"/>
<polygon fill="none" stroke="black" points="904.43,-351.99 915.27,-381.87 925.43,-351.75 904.43,-351.99"/>
</g>
<!-- 604 -->
<g id="node12" class="node">
<title>604</title>
<polygon fill="#f2f2f2" stroke="black" points="947.63,-286.7 947.63,-345.1 1466.81,-345.1 1466.81,-286.7 947.63,-286.7"/>
<text text-anchor="middle" x="1207.22" y="-328.5" font-family="Times,serif" font-size="14.00">&lt;&lt;Interface&gt;&gt;</text>
<text text-anchor="middle" x="1207.22" y="-311.7" font-family="Times,serif" font-size="14.00">IERC20Metadata</text>
<text text-anchor="middle" x="1207.22" y="-294.9" font-family="Times,serif" font-size="14.00">../node_modules/@openzeppelin/contracts/token/ERC20/extensions/IERC20Metadata.sol</text>
</g>
<!-- 341&#45;&gt;604 -->
<g id="edge16" class="edge">
<title>341&#45;&gt;604</title>
<path fill="none" stroke="black" stroke-dasharray="5,2" d="M1207.22,-241.31C1207.22,-245.94 1207.22,-251.11 1207.22,-256.49"/>
<polygon fill="none" stroke="black" points="1196.72,-256.62 1207.22,-286.62 1217.72,-256.62 1196.72,-256.62"/>
</g>
<!-- 341&#45;&gt;165 -->
<g id="edge14" class="edge">
<title>341&#45;&gt;165</title>
<path fill="none" stroke="black" d="M1098.43,-241.31C1034.83,-252.89 952.87,-267.81 879.39,-281.19"/>
<polygon fill="none" stroke="black" points="877.21,-270.91 849.57,-286.62 880.97,-291.57 877.21,-270.91"/>
</g>
<!-- 604&#45;&gt;342 -->
<g id="edge17" class="edge">
<title>604&#45;&gt;342</title>
<path fill="none" stroke="black" stroke-dasharray="5,2" d="M1120.03,-345.18C1093.36,-353.82 1063.61,-363.47 1035.34,-372.64"/>
<polygon fill="none" stroke="black" points="1031.91,-362.72 1006.61,-381.96 1038.39,-382.69 1031.91,-362.72"/>
</g>
<!-- 609&#45;&gt;342 -->
<g id="edge19" class="edge">
<title>609&#45;&gt;342</title>
<path fill="none" stroke="black" stroke-dasharray="5,2" d="M1620.12,-154.35C1599.54,-163.35 1579.9,-175.2 1564.22,-190.8 1512.46,-242.3 1566.48,-300.3 1509.22,-345.6 1479.44,-369.16 1288.38,-387.04 1131.62,-397.97"/>
<polygon fill="black" stroke="black" points="1131.09,-394.49 1121.35,-398.68 1131.57,-401.48 1131.09,-394.49"/>
</g>
<!-- 159 -->
<g id="node14" class="node">
<title>159</title>
<polygon fill="#f2f2f2" stroke="black" points="1573.22,-191.3 1573.22,-249.7 1925.22,-249.7 1925.22,-191.3 1573.22,-191.3"/>
<text text-anchor="middle" x="1749.22" y="-233.1" font-family="Times,serif" font-size="14.00">&lt;&lt;Library&gt;&gt;</text>
<text text-anchor="middle" x="1749.22" y="-216.3" font-family="Times,serif" font-size="14.00">Address</text>
<text text-anchor="middle" x="1749.22" y="-199.5" font-family="Times,serif" font-size="14.00">../node_modules/@openzeppelin/contracts/utils/Address.sol</text>
</g>
<!-- 609&#45;&gt;159 -->
<g id="edge18" class="edge">
<title>609&#45;&gt;159</title>
<path fill="none" stroke="black" stroke-dasharray="5,2" d="M1749.22,-154.38C1749.22,-162.71 1749.22,-171.98 1749.22,-180.85"/>
<polygon fill="black" stroke="black" points="1745.72,-181 1749.22,-191 1752.72,-181 1745.72,-181"/>
</g>
</g>
</svg>
