<?xml version="1.0" encoding="UTF-8" standalone="no"?>
<!DOCTYPE svg PUBLIC "-//W3C//DTD SVG 1.1//EN"
 "http://www.w3.org/Graphics/SVG/1.1/DTD/svg11.dtd">
<!-- Generated by graphviz version 5.0.0 (20220707.1540)
 -->
<!-- Title: UmlClassDiagram Pages: 1 -->
<svg width="2284pt" height="516pt"
 viewBox="0.00 0.00 2283.66 516.20" xmlns="http://www.w3.org/2000/svg" xmlns:xlink="http://www.w3.org/1999/xlink">
<g id="graph0" class="graph" transform="scale(1 1) rotate(0) translate(4 512.2)">
<title>UmlClassDiagram</title>
<polygon fill="white" stroke="transparent" points="-4,4 -4,-512.2 2279.66,-512.2 2279.66,4 -4,4"/>
<!-- 6 -->
<g id="node1" class="node">
<title>6</title>
<polygon fill="#f2f2f2" stroke="black" points="0,-104.3 0,-162.7 238.77,-162.7 238.77,-104.3 0,-104.3"/>
<text text-anchor="middle" x="119.38" y="-146.1" font-family="Times,serif" font-size="14.00">&lt;&lt;Interface&gt;&gt;</text>
<text text-anchor="middle" x="119.38" y="-129.3" font-family="Times,serif" font-size="14.00">IERC4626Vault</text>
<text text-anchor="middle" x="119.38" y="-112.5" font-family="Times,serif" font-size="14.00">..contractsinterfacesIERC4626Vault.sol</text>
</g>
<!-- 249 -->
<g id="node11" class="node">
<title>249</title>
<polygon fill="#f2f2f2" stroke="black" points="682.27,-432.5 682.27,-507.7 1040.5,-507.7 1040.5,-432.5 682.27,-432.5"/>
<text text-anchor="middle" x="861.38" y="-491.1" font-family="Times,serif" font-size="14.00">&lt;&lt;Interface&gt;&gt;</text>
<text text-anchor="middle" x="861.38" y="-474.3" font-family="Times,serif" font-size="14.00">IERC20</text>
<text text-anchor="middle" x="861.38" y="-457.5" font-family="Times,serif" font-size="14.00">..</text>
<text text-anchor="middle" x="861.38" y="-440.7" font-family="Times,serif" font-size="14.00">ode_modules@openzeppelincontractstokenRC20IERC20.sol</text>
</g>
<!-- 6&#45;&gt;249 -->
<g id="edge1" class="edge">
<title>6&#45;&gt;249</title>
<path fill="none" stroke="black" stroke-dasharray="5,2" d="M76.72,-162.72C62.39,-174.69 48.09,-189.96 40.38,-207.6 6.85,-284.32 -16.14,-334.22 40.38,-396 80.97,-440.36 422.17,-457.98 651.75,-464.85"/>
<polygon fill="none" stroke="black" points="651.67,-475.36 681.96,-465.72 652.27,-454.36 651.67,-475.36"/>
</g>
<!-- 9 -->
<g id="node2" class="node">
<title>9</title>
<polygon fill="#f2f2f2" stroke="black" points="49.28,-328.7 49.28,-387.1 237.49,-387.1 237.49,-328.7 49.28,-328.7"/>
<text text-anchor="middle" x="143.38" y="-370.5" font-family="Times,serif" font-size="14.00">&lt;&lt;Interface&gt;&gt;</text>
<text text-anchor="middle" x="143.38" y="-353.7" font-family="Times,serif" font-size="14.00">INexus</text>
<text text-anchor="middle" x="143.38" y="-336.9" font-family="Times,serif" font-size="14.00">..contractsinterfacesINexus.sol</text>
</g>
<!-- 13 -->
<g id="node3" class="node">
<title>13</title>
<polygon fill="#f2f2f2" stroke="black" points="49.33,-216.5 49.33,-274.9 283.44,-274.9 283.44,-216.5 49.33,-216.5"/>
<text text-anchor="middle" x="166.38" y="-258.3" font-family="Times,serif" font-size="14.00">&lt;&lt;Abstract&gt;&gt;</text>
<text text-anchor="middle" x="166.38" y="-241.5" font-family="Times,serif" font-size="14.00">ImmutableModule</text>
<text text-anchor="middle" x="166.38" y="-224.7" font-family="Times,serif" font-size="14.00">..contractssharedImmutableModule.sol</text>
</g>
<!-- 13&#45;&gt;9 -->
<g id="edge3" class="edge">
<title>13&#45;&gt;9</title>
<path fill="none" stroke="black" d="M160.46,-275.08C157.7,-288.32 154.37,-304.27 151.39,-318.57"/>
<polygon fill="black" stroke="black" points="147.9,-318.11 149.29,-328.62 154.76,-319.54 147.9,-318.11"/>
</g>
<!-- 15 -->
<g id="node4" class="node">
<title>15</title>
<polygon fill="#f2f2f2" stroke="black" points="255.27,-337.1 255.27,-378.7 457.5,-378.7 457.5,-337.1 255.27,-337.1"/>
<text text-anchor="middle" x="356.38" y="-362.1" font-family="Times,serif" font-size="14.00">ModuleKeys</text>
<text text-anchor="middle" x="356.38" y="-345.3" font-family="Times,serif" font-size="14.00">..contractssharedModuleKeys.sol</text>
</g>
<!-- 13&#45;&gt;15 -->
<g id="edge2" class="edge">
<title>13&#45;&gt;15</title>
<path fill="none" stroke="black" d="M215.31,-275.08C239.86,-289.32 269.82,-306.69 295.81,-321.77"/>
<polygon fill="none" stroke="black" points="290.79,-330.99 322,-336.96 301.32,-312.83 290.79,-330.99"/>
</g>
<!-- 17 -->
<g id="node5" class="node">
<title>17</title>
<polygon fill="#f2f2f2" stroke="black" points="353.78,-104.3 353.78,-162.7 590.99,-162.7 590.99,-104.3 353.78,-104.3"/>
<text text-anchor="middle" x="472.38" y="-146.1" font-family="Times,serif" font-size="14.00">&lt;&lt;Abstract&gt;&gt;</text>
<text text-anchor="middle" x="472.38" y="-129.3" font-family="Times,serif" font-size="14.00">VaultManagerRole</text>
<text text-anchor="middle" x="472.38" y="-112.5" font-family="Times,serif" font-size="14.00">..contractssharedVaultManagerRole.sol</text>
</g>
<!-- 17&#45;&gt;13 -->
<g id="edge5" class="edge">
<title>17&#45;&gt;13</title>
<path fill="none" stroke="black" d="M393.98,-162.74C357.23,-175.97 312.89,-191.94 273.14,-206.25"/>
<polygon fill="none" stroke="black" points="269.52,-196.4 244.85,-216.44 276.63,-216.16 269.52,-196.4"/>
</g>
<!-- 157 -->
<g id="node9" class="node">
<title>157</title>
<polygon fill="#f2f2f2" stroke="black" points="301.07,-208.1 301.07,-283.3 643.7,-283.3 643.7,-208.1 301.07,-208.1"/>
<text text-anchor="middle" x="472.38" y="-266.7" font-family="Times,serif" font-size="14.00">&lt;&lt;Abstract&gt;&gt;</text>
<text text-anchor="middle" x="472.38" y="-249.9" font-family="Times,serif" font-size="14.00">Pausable</text>
<text text-anchor="middle" x="472.38" y="-233.1" font-family="Times,serif" font-size="14.00">..</text>
<text text-anchor="middle" x="472.38" y="-216.3" font-family="Times,serif" font-size="14.00">ode_modules@openzeppelincontractssecurityPausable.sol</text>
</g>
<!-- 17&#45;&gt;157 -->
<g id="edge4" class="edge">
<title>17&#45;&gt;157</title>
<path fill="none" stroke="black" d="M472.38,-162.88C472.38,-167.61 472.38,-172.7 472.38,-177.93"/>
<polygon fill="none" stroke="black" points="461.88,-178.09 472.38,-208.09 482.88,-178.09 461.88,-178.09"/>
</g>
<!-- 19 -->
<g id="node6" class="node">
<title>19</title>
<polygon fill="#f2f2f2" stroke="black" points="681.11,-104.3 681.11,-162.7 913.66,-162.7 913.66,-104.3 681.11,-104.3"/>
<text text-anchor="middle" x="797.38" y="-146.1" font-family="Times,serif" font-size="14.00">&lt;&lt;Abstract&gt;&gt;</text>
<text text-anchor="middle" x="797.38" y="-129.3" font-family="Times,serif" font-size="14.00">InitializableToken</text>
<text text-anchor="middle" x="797.38" y="-112.5" font-family="Times,serif" font-size="14.00">..contractstokensInitializableToken.sol</text>
</g>
<!-- 20 -->
<g id="node7" class="node">
<title>20</title>
<polygon fill="#f2f2f2" stroke="black" points="661.29,-216.5 661.29,-274.9 933.48,-274.9 933.48,-216.5 661.29,-216.5"/>
<text text-anchor="middle" x="797.38" y="-258.3" font-family="Times,serif" font-size="14.00">&lt;&lt;Abstract&gt;&gt;</text>
<text text-anchor="middle" x="797.38" y="-241.5" font-family="Times,serif" font-size="14.00">InitializableTokenDetails</text>
<text text-anchor="middle" x="797.38" y="-224.7" font-family="Times,serif" font-size="14.00">..contractstokensInitializableTokenDetails.sol</text>
</g>
<!-- 19&#45;&gt;20 -->
<g id="edge7" class="edge">
<title>19&#45;&gt;20</title>
<path fill="none" stroke="black" d="M797.38,-162.88C797.38,-170.08 797.38,-178.08 797.38,-186.18"/>
<polygon fill="none" stroke="black" points="786.88,-186.42 797.38,-216.42 807.88,-186.42 786.88,-186.42"/>
</g>
<!-- 248 -->
<g id="node10" class="node">
<title>248</title>
<polygon fill="#f2f2f2" stroke="black" points="951.88,-216.5 951.88,-274.9 1296.89,-274.9 1296.89,-216.5 951.88,-216.5"/>
<text text-anchor="middle" x="1124.38" y="-258.3" font-family="Times,serif" font-size="14.00">ERC20</text>
<text text-anchor="middle" x="1124.38" y="-241.5" font-family="Times,serif" font-size="14.00">..</text>
<text text-anchor="middle" x="1124.38" y="-224.7" font-family="Times,serif" font-size="14.00">ode_modules@openzeppelincontractstokenRC20RC20.sol</text>
</g>
<!-- 19&#45;&gt;248 -->
<g id="edge6" class="edge">
<title>19&#45;&gt;248</title>
<path fill="none" stroke="black" d="M881.17,-162.74C920.91,-176.13 968.98,-192.33 1011.85,-206.78"/>
<polygon fill="none" stroke="black" points="1008.75,-216.81 1040.53,-216.44 1015.46,-196.91 1008.75,-216.81"/>
</g>
<!-- 27 -->
<g id="node8" class="node">
<title>27</title>
<polygon fill="#f2f2f2" stroke="black" points="372.44,-0.5 372.44,-58.9 572.33,-58.9 572.33,-0.5 372.44,-0.5"/>
<text text-anchor="middle" x="472.38" y="-42.3" font-family="Times,serif" font-size="14.00">&lt;&lt;Abstract&gt;&gt;</text>
<text text-anchor="middle" x="472.38" y="-25.5" font-family="Times,serif" font-size="14.00">AbstractVault</text>
<text text-anchor="middle" x="472.38" y="-8.7" font-family="Times,serif" font-size="14.00">..contractsvaultAbstractVault.sol</text>
</g>
<!-- 27&#45;&gt;6 -->
<g id="edge8" class="edge">
<title>27&#45;&gt;6</title>
<path fill="none" stroke="black" stroke-dasharray="5,2" d="M374.52,-58.92C334.93,-70.34 288.69,-83.67 246.54,-95.83"/>
<polygon fill="none" stroke="black" points="243.35,-85.82 217.44,-104.22 249.17,-106 243.35,-85.82"/>
</g>
<!-- 27&#45;&gt;17 -->
<g id="edge10" class="edge">
<title>27&#45;&gt;17</title>
<path fill="none" stroke="black" d="M472.38,-59.06C472.38,-63.8 472.38,-68.87 472.38,-74.05"/>
<polygon fill="none" stroke="black" points="461.88,-74.3 472.38,-104.3 482.88,-74.3 461.88,-74.3"/>
</g>
<!-- 27&#45;&gt;19 -->
<g id="edge9" class="edge">
<title>27&#45;&gt;19</title>
<path fill="none" stroke="black" d="M562.48,-58.92C598.32,-70.15 640.07,-83.22 678.34,-95.21"/>
<polygon fill="none" stroke="black" points="675.34,-105.28 707.11,-104.22 681.62,-85.24 675.34,-105.28"/>
</g>
<!-- 27&#45;&gt;249 -->
<g id="edge12" class="edge">
<title>27&#45;&gt;249</title>
<path fill="none" stroke="black" d="M572.69,-40.68C768.8,-61.98 1193.73,-117.41 1306.38,-207.6 1350.86,-243.21 1354.16,-264.63 1368.38,-319.8 1376.84,-352.59 1390.56,-370.4 1368.38,-396 1327.25,-443.49 1177.07,-460.83 1050.75,-466.83"/>
<polygon fill="black" stroke="black" points="1050.37,-463.34 1040.54,-467.29 1050.69,-470.33 1050.37,-463.34"/>
</g>
<!-- 369 -->
<g id="node14" class="node">
<title>369</title>
<polygon fill="#f2f2f2" stroke="black" points="1455.11,-95.9 1455.11,-171.1 1857.66,-171.1 1857.66,-95.9 1455.11,-95.9"/>
<text text-anchor="middle" x="1656.38" y="-154.5" font-family="Times,serif" font-size="14.00">&lt;&lt;Library&gt;&gt;</text>
<text text-anchor="middle" x="1656.38" y="-137.7" font-family="Times,serif" font-size="14.00">SafeERC20</text>
<text text-anchor="middle" x="1656.38" y="-120.9" font-family="Times,serif" font-size="14.00">..</text>
<text text-anchor="middle" x="1656.38" y="-104.1" font-family="Times,serif" font-size="14.00">ode_modules@openzeppelincontractstokenRC20utilsSafeERC20.sol</text>
</g>
<!-- 27&#45;&gt;369 -->
<g id="edge11" class="edge">
<title>27&#45;&gt;369</title>
<path fill="none" stroke="black" stroke-dasharray="5,2" d="M572.62,-35.21C743.16,-43.44 1100.58,-63.09 1401.38,-95.4 1415.57,-96.92 1430.18,-98.64 1444.88,-100.49"/>
<polygon fill="black" stroke="black" points="1444.72,-103.99 1455.08,-101.78 1445.6,-97.05 1444.72,-103.99"/>
</g>
<!-- 166 -->
<g id="node16" class="node">
<title>166</title>
<polygon fill="#f2f2f2" stroke="black" points="495.88,-320.3 495.88,-395.5 812.88,-395.5 812.88,-320.3 495.88,-320.3"/>
<text text-anchor="middle" x="654.38" y="-378.9" font-family="Times,serif" font-size="14.00">&lt;&lt;Abstract&gt;&gt;</text>
<text text-anchor="middle" x="654.38" y="-362.1" font-family="Times,serif" font-size="14.00">Context</text>
<text text-anchor="middle" x="654.38" y="-345.3" font-family="Times,serif" font-size="14.00">..</text>
<text text-anchor="middle" x="654.38" y="-328.5" font-family="Times,serif" font-size="14.00">ode_modules@openzeppelincontractsutilsContext.sol</text>
</g>
<!-- 157&#45;&gt;166 -->
<g id="edge13" class="edge">
<title>157&#45;&gt;166</title>
<path fill="none" stroke="black" d="M532.99,-283.4C544.13,-290.14 555.97,-297.31 567.7,-304.42"/>
<polygon fill="none" stroke="black" points="562.64,-313.62 593.74,-320.18 573.51,-295.66 562.64,-313.62"/>
</g>
<!-- 248&#45;&gt;249 -->
<g id="edge15" class="edge">
<title>248&#45;&gt;249</title>
<path fill="none" stroke="black" stroke-dasharray="5,2" d="M983.87,-274.94C938.1,-286.98 895.22,-302.3 880.38,-319.8 861.3,-342.32 855.36,-374.04 854.68,-402.46"/>
<polygon fill="none" stroke="black" points="844.18,-402.85 855.72,-432.47 865.17,-402.12 844.18,-402.85"/>
</g>
<!-- 366 -->
<g id="node12" class="node">
<title>366</title>
<polygon fill="#f2f2f2" stroke="black" points="889.68,-320.3 889.68,-395.5 1359.09,-395.5 1359.09,-320.3 889.68,-320.3"/>
<text text-anchor="middle" x="1124.38" y="-378.9" font-family="Times,serif" font-size="14.00">&lt;&lt;Interface&gt;&gt;</text>
<text text-anchor="middle" x="1124.38" y="-362.1" font-family="Times,serif" font-size="14.00">IERC20Metadata</text>
<text text-anchor="middle" x="1124.38" y="-345.3" font-family="Times,serif" font-size="14.00">..</text>
<text text-anchor="middle" x="1124.38" y="-328.5" font-family="Times,serif" font-size="14.00">ode_modules@openzeppelincontractstokenRC20extensionsIERC20Metadata.sol</text>
</g>
<!-- 248&#45;&gt;366 -->
<g id="edge16" class="edge">
<title>248&#45;&gt;366</title>
<path fill="none" stroke="black" stroke-dasharray="5,2" d="M1124.38,-275.08C1124.38,-279.81 1124.38,-284.9 1124.38,-290.13"/>
<polygon fill="none" stroke="black" points="1113.88,-290.29 1124.38,-320.29 1134.88,-290.29 1113.88,-290.29"/>
</g>
<!-- 248&#45;&gt;166 -->
<g id="edge14" class="edge">
<title>248&#45;&gt;166</title>
<path fill="none" stroke="black" d="M1003.96,-274.94C954.16,-286.61 895.27,-300.42 840.17,-313.34"/>
<polygon fill="none" stroke="black" points="837.71,-303.13 810.9,-320.2 842.5,-323.58 837.71,-303.13"/>
</g>
<!-- 366&#45;&gt;249 -->
<g id="edge17" class="edge">
<title>366&#45;&gt;249</title>
<path fill="none" stroke="black" stroke-dasharray="5,2" d="M1036.81,-395.6C1017.61,-403.64 997.01,-412.27 976.91,-420.69"/>
<polygon fill="none" stroke="black" points="972.64,-411.1 949.03,-432.38 980.75,-430.47 972.64,-411.1"/>
</g>
<!-- 354 -->
<g id="node13" class="node">
<title>354</title>
<polygon fill="#f2f2f2" stroke="black" points="1453.51,-208.1 1453.51,-283.3 1939.26,-283.3 1939.26,-208.1 1453.51,-208.1"/>
<text text-anchor="middle" x="1696.38" y="-266.7" font-family="Times,serif" font-size="14.00">&lt;&lt;Interface&gt;&gt;</text>
<text text-anchor="middle" x="1696.38" y="-249.9" font-family="Times,serif" font-size="14.00">IERC20Permit</text>
<text text-anchor="middle" x="1696.38" y="-233.1" font-family="Times,serif" font-size="14.00">..</text>
<text text-anchor="middle" x="1696.38" y="-216.3" font-family="Times,serif" font-size="14.00">ode_modules@openzeppelincontractstokenRC20extensionsdraft&#45;IERC20Permit.sol</text>
</g>
<!-- 369&#45;&gt;249 -->
<g id="edge19" class="edge">
<title>369&#45;&gt;249</title>
<path fill="none" stroke="black" stroke-dasharray="5,2" d="M1492.57,-171.22C1474.52,-180.69 1457.84,-192.61 1444.38,-207.6 1387.01,-271.51 1464.78,-338.06 1401.38,-396 1350.93,-442.12 1185.37,-459.46 1050.73,-465.82"/>
<polygon fill="black" stroke="black" points="1050.51,-462.33 1040.68,-466.28 1050.83,-469.32 1050.51,-462.33"/>
</g>
<!-- 369&#45;&gt;354 -->
<g id="edge20" class="edge">
<title>369&#45;&gt;354</title>
<path fill="none" stroke="black" stroke-dasharray="5,2" d="M1669.7,-171.2C1672.84,-179.84 1676.23,-189.17 1679.5,-198.18"/>
<polygon fill="black" stroke="black" points="1676.29,-199.58 1682.99,-207.79 1682.87,-197.2 1676.29,-199.58"/>
</g>
<!-- 160 -->
<g id="node15" class="node">
<title>160</title>
<polygon fill="#f2f2f2" stroke="black" points="1957.11,-208.1 1957.11,-283.3 2275.66,-283.3 2275.66,-208.1 1957.11,-208.1"/>
<text text-anchor="middle" x="2116.38" y="-266.7" font-family="Times,serif" font-size="14.00">&lt;&lt;Library&gt;&gt;</text>
<text text-anchor="middle" x="2116.38" y="-249.9" font-family="Times,serif" font-size="14.00">Address</text>
<text text-anchor="middle" x="2116.38" y="-233.1" font-family="Times,serif" font-size="14.00">..</text>
<text text-anchor="middle" x="2116.38" y="-216.3" font-family="Times,serif" font-size="14.00">ode_modules@openzeppelincontractsutilsAddress.sol</text>
</g>
<!-- 369&#45;&gt;160 -->
<g id="edge18" class="edge">
<title>369&#45;&gt;160</title>
<path fill="none" stroke="black" stroke-dasharray="5,2" d="M1809.24,-171.12C1855.49,-182.2 1906.45,-194.41 1953.35,-205.64"/>
<polygon fill="black" stroke="black" points="1952.75,-209.1 1963.29,-208.02 1954.38,-202.29 1952.75,-209.1"/>
</g>
</g>
</svg>
