<?xml version="1.0" encoding="UTF-8" standalone="no"?>
<!DOCTYPE svg PUBLIC "-//W3C//DTD SVG 1.1//EN"
 "http://www.w3.org/Graphics/SVG/1.1/DTD/svg11.dtd">
<!-- Generated by graphviz version 5.0.0 (20220707.1540)
 -->
<!-- Title: UmlClassDiagram Pages: 1 -->
<svg width="924pt" height="869pt"
 viewBox="0.00 0.00 924.01 869.40" xmlns="http://www.w3.org/2000/svg" xmlns:xlink="http://www.w3.org/1999/xlink">
<g id="graph0" class="graph" transform="scale(1 1) rotate(0) translate(4 865.4)">
<title>UmlClassDiagram</title>
<polygon fill="white" stroke="transparent" points="-4,4 -4,-865.4 920.01,-865.4 920.01,4 -4,4"/>
<!-- 3 -->
<g id="node1" class="node">
<title>3</title>
<polygon fill="#f2f2f2" stroke="black" points="136.4,-668.5 136.4,-818.9 343.27,-818.9 343.27,-668.5 136.4,-668.5"/>
<text text-anchor="middle" x="239.84" y="-802.3" font-family="Times,serif" font-size="14.00">&lt;&lt;Struct&gt;&gt;</text>
<text text-anchor="middle" x="239.84" y="-785.5" font-family="Times,serif" font-size="14.00">DexSwapData</text>
<text text-anchor="middle" x="239.84" y="-768.7" font-family="Times,serif" font-size="14.00">..contractsinterfacesIDexSwap.sol</text>
<polyline fill="none" stroke="black" points="136.4,-760.5 343.27,-760.5 "/>
<text text-anchor="start" x="144.4" y="-743.9" font-family="Times,serif" font-size="14.00">fromAsset: address</text>
<text text-anchor="start" x="144.4" y="-727.1" font-family="Times,serif" font-size="14.00">fromAssetAmount: uint256</text>
<text text-anchor="start" x="144.4" y="-710.3" font-family="Times,serif" font-size="14.00">toAsset: address</text>
<text text-anchor="start" x="144.4" y="-693.5" font-family="Times,serif" font-size="14.00">minToAssetAmount: uint256</text>
<text text-anchor="start" x="144.4" y="-676.7" font-family="Times,serif" font-size="14.00">data: bytes</text>
</g>
<!-- 4 -->
<g id="node2" class="node">
<title>4</title>
<polygon fill="#f2f2f2" stroke="black" points="291.64,-401.5 291.64,-501.5 642.03,-501.5 642.03,-401.5 291.64,-401.5"/>
<text text-anchor="middle" x="466.84" y="-484.9" font-family="Times,serif" font-size="14.00">&lt;&lt;Interface&gt;&gt;</text>
<text text-anchor="middle" x="466.84" y="-468.1" font-family="Times,serif" font-size="14.00">IDexSwap</text>
<text text-anchor="middle" x="466.84" y="-451.3" font-family="Times,serif" font-size="14.00">..contractsinterfacesIDexSwap.sol</text>
<polyline fill="none" stroke="black" points="291.64,-443.1 642.03,-443.1 "/>
<text text-anchor="start" x="299.64" y="-426.5" font-family="Times,serif" font-size="14.00">External:</text>
<text text-anchor="start" x="299.64" y="-409.7" font-family="Times,serif" font-size="14.00"> &#160;&#160;&#160;&#160;swap(_swap: DexSwapData): (toAssetAmount: uint256)</text>
</g>
<!-- 4&#45;&gt;3 -->
<g id="edge1" class="edge">
<title>4&#45;&gt;3</title>
<path fill="none" stroke="black" stroke-dasharray="5,2" d="M428.33,-501.73C394.41,-545.09 344.32,-609.13 304.29,-660.3"/>
<polygon fill="black" stroke="black" points="301.37,-658.36 297.96,-668.39 306.88,-662.67 301.37,-658.36"/>
</g>
<!-- 9 -->
<g id="node3" class="node">
<title>9</title>
<polygon fill="#f2f2f2" stroke="black" points="361.28,-626.5 361.28,-860.9 658.39,-860.9 658.39,-626.5 361.28,-626.5"/>
<text text-anchor="middle" x="509.84" y="-844.3" font-family="Times,serif" font-size="14.00">&lt;&lt;Interface&gt;&gt;</text>
<text text-anchor="middle" x="509.84" y="-827.5" font-family="Times,serif" font-size="14.00">INexus</text>
<text text-anchor="middle" x="509.84" y="-810.7" font-family="Times,serif" font-size="14.00">..contractsinterfacesINexus.sol</text>
<polyline fill="none" stroke="black" points="361.28,-802.5 658.39,-802.5 "/>
<text text-anchor="start" x="369.28" y="-785.9" font-family="Times,serif" font-size="14.00">External:</text>
<text text-anchor="start" x="369.28" y="-769.1" font-family="Times,serif" font-size="14.00"> &#160;&#160;&#160;&#160;governor(): address</text>
<text text-anchor="start" x="369.28" y="-752.3" font-family="Times,serif" font-size="14.00"> &#160;&#160;&#160;&#160;getModule(key: bytes32): address</text>
<text text-anchor="start" x="369.28" y="-735.5" font-family="Times,serif" font-size="14.00"> &#160;&#160;&#160;&#160;proposeModule(_key: bytes32, _addr: address)</text>
<text text-anchor="start" x="369.28" y="-718.7" font-family="Times,serif" font-size="14.00"> &#160;&#160;&#160;&#160;cancelProposedModule(_key: bytes32)</text>
<text text-anchor="start" x="369.28" y="-701.9" font-family="Times,serif" font-size="14.00"> &#160;&#160;&#160;&#160;acceptProposedModule(_key: bytes32)</text>
<text text-anchor="start" x="369.28" y="-685.1" font-family="Times,serif" font-size="14.00"> &#160;&#160;&#160;&#160;acceptProposedModules(_keys: bytes32[])</text>
<text text-anchor="start" x="369.28" y="-668.3" font-family="Times,serif" font-size="14.00"> &#160;&#160;&#160;&#160;requestLockModule(_key: bytes32)</text>
<text text-anchor="start" x="369.28" y="-651.5" font-family="Times,serif" font-size="14.00"> &#160;&#160;&#160;&#160;cancelLockModule(_key: bytes32)</text>
<text text-anchor="start" x="369.28" y="-634.7" font-family="Times,serif" font-size="14.00"> &#160;&#160;&#160;&#160;lockModule(_key: bytes32)</text>
</g>
<!-- 13 -->
<g id="node4" class="node">
<title>13</title>
<polygon fill="#f2f2f2" stroke="black" points="659.67,-313.5 659.67,-589.5 916.01,-589.5 916.01,-313.5 659.67,-313.5"/>
<text text-anchor="middle" x="787.84" y="-572.9" font-family="Times,serif" font-size="14.00">&lt;&lt;Abstract&gt;&gt;</text>
<text text-anchor="middle" x="787.84" y="-556.1" font-family="Times,serif" font-size="14.00">ImmutableModule</text>
<text text-anchor="middle" x="787.84" y="-539.3" font-family="Times,serif" font-size="14.00">..contractssharedImmutableModule.sol</text>
<polyline fill="none" stroke="black" points="659.67,-531.1 916.01,-531.1 "/>
<text text-anchor="start" x="667.67" y="-514.5" font-family="Times,serif" font-size="14.00">Public:</text>
<text text-anchor="start" x="667.67" y="-497.7" font-family="Times,serif" font-size="14.00"> &#160;&#160;nexus: INexus</text>
<polyline fill="none" stroke="black" points="659.67,-489.5 916.01,-489.5 "/>
<text text-anchor="start" x="667.67" y="-472.9" font-family="Times,serif" font-size="14.00">Internal:</text>
<text text-anchor="start" x="667.67" y="-456.1" font-family="Times,serif" font-size="14.00"> &#160;&#160;&#160;_onlyGovernor()</text>
<text text-anchor="start" x="667.67" y="-439.3" font-family="Times,serif" font-size="14.00"> &#160;&#160;&#160;_keeperOrGovernor()</text>
<text text-anchor="start" x="667.67" y="-422.5" font-family="Times,serif" font-size="14.00"> &#160;&#160;&#160;_governor(): address</text>
<text text-anchor="start" x="667.67" y="-405.7" font-family="Times,serif" font-size="14.00"> &#160;&#160;&#160;_keeper(): address</text>
<text text-anchor="start" x="667.67" y="-388.9" font-family="Times,serif" font-size="14.00"> &#160;&#160;&#160;_liquidatorV2(): address</text>
<text text-anchor="start" x="667.67" y="-372.1" font-family="Times,serif" font-size="14.00">Public:</text>
<text text-anchor="start" x="667.67" y="-355.3" font-family="Times,serif" font-size="14.00"> &#160;&#160;&#160;&lt;&lt;modifier&gt;&gt; onlyGovernor()</text>
<text text-anchor="start" x="667.67" y="-338.5" font-family="Times,serif" font-size="14.00"> &#160;&#160;&#160;&lt;&lt;modifier&gt;&gt; onlyKeeperOrGovernor()</text>
<text text-anchor="start" x="667.67" y="-321.7" font-family="Times,serif" font-size="14.00"> &#160;&#160;&#160;constructor(_nexus: address)</text>
</g>
<!-- 13&#45;&gt;9 -->
<g id="edge3" class="edge">
<title>13&#45;&gt;9</title>
<path fill="none" stroke="black" d="M659.42,-586.56C649.13,-597.3 638.76,-608.12 628.55,-618.78"/>
<polygon fill="black" stroke="black" points="625.89,-616.49 621.5,-626.14 630.95,-621.34 625.89,-616.49"/>
</g>
<!-- 15 -->
<g id="node5" class="node">
<title>15</title>
<polygon fill="#f2f2f2" stroke="black" points="676.02,-634.9 676.02,-852.5 899.66,-852.5 899.66,-634.9 676.02,-634.9"/>
<text text-anchor="middle" x="787.84" y="-835.9" font-family="Times,serif" font-size="14.00">ModuleKeys</text>
<text text-anchor="middle" x="787.84" y="-819.1" font-family="Times,serif" font-size="14.00">..contractssharedModuleKeys.sol</text>
<polyline fill="none" stroke="black" points="676.02,-810.9 899.66,-810.9 "/>
<text text-anchor="start" x="684.02" y="-794.3" font-family="Times,serif" font-size="14.00">Internal:</text>
<text text-anchor="start" x="684.02" y="-777.5" font-family="Times,serif" font-size="14.00"> &#160;&#160;KEY_GOVERNANCE: bytes32</text>
<text text-anchor="start" x="684.02" y="-760.7" font-family="Times,serif" font-size="14.00"> &#160;&#160;KEY_STAKING: bytes32</text>
<text text-anchor="start" x="684.02" y="-743.9" font-family="Times,serif" font-size="14.00"> &#160;&#160;KEY_PROXY_ADMIN: bytes32</text>
<text text-anchor="start" x="684.02" y="-727.1" font-family="Times,serif" font-size="14.00"> &#160;&#160;KEY_ORACLE_HUB: bytes32</text>
<text text-anchor="start" x="684.02" y="-710.3" font-family="Times,serif" font-size="14.00"> &#160;&#160;KEY_MANAGER: bytes32</text>
<text text-anchor="start" x="684.02" y="-693.5" font-family="Times,serif" font-size="14.00"> &#160;&#160;KEY_META_TOKEN: bytes32</text>
<text text-anchor="start" x="684.02" y="-676.7" font-family="Times,serif" font-size="14.00"> &#160;&#160;KEY_LIQUIDATOR: bytes32</text>
<text text-anchor="start" x="684.02" y="-659.9" font-family="Times,serif" font-size="14.00"> &#160;&#160;KEY_LIQUIDATOR_V2: bytes32</text>
<text text-anchor="start" x="684.02" y="-643.1" font-family="Times,serif" font-size="14.00"> &#160;&#160;KEY_KEEPER: bytes32</text>
</g>
<!-- 13&#45;&gt;15 -->
<g id="edge2" class="edge">
<title>13&#45;&gt;15</title>
<path fill="none" stroke="black" d="M787.84,-589.53C787.84,-594.49 787.84,-599.46 787.84,-604.42"/>
<polygon fill="none" stroke="black" points="777.34,-604.57 787.84,-634.57 798.34,-604.57 777.34,-604.57"/>
</g>
<!-- 74 -->
<g id="node6" class="node">
<title>74</title>
<polygon fill="#f2f2f2" stroke="black" points="0,-393.1 0,-509.9 235.67,-509.9 235.67,-393.1 0,-393.1"/>
<text text-anchor="middle" x="117.84" y="-493.3" font-family="Times,serif" font-size="14.00">&lt;&lt;Struct&gt;&gt;</text>
<text text-anchor="middle" x="117.84" y="-476.5" font-family="Times,serif" font-size="14.00">Exchange</text>
<text text-anchor="middle" x="117.84" y="-459.7" font-family="Times,serif" font-size="14.00">..contractsvaultswapBasicDexSwap.sol</text>
<polyline fill="none" stroke="black" points="0,-451.5 235.67,-451.5 "/>
<text text-anchor="start" x="8" y="-434.9" font-family="Times,serif" font-size="14.00">from: address</text>
<text text-anchor="start" x="8" y="-418.1" font-family="Times,serif" font-size="14.00">to: address</text>
<text text-anchor="start" x="8" y="-401.3" font-family="Times,serif" font-size="14.00">rate: uint256</text>
</g>
<!-- 73 -->
<g id="node7" class="node">
<title>73</title>
<polygon fill="#f2f2f2" stroke="black" points="163.66,-0.5 163.66,-276.5 770.01,-276.5 770.01,-0.5 163.66,-0.5"/>
<text text-anchor="middle" x="466.84" y="-259.9" font-family="Times,serif" font-size="14.00">BasicDexSwap</text>
<text text-anchor="middle" x="466.84" y="-243.1" font-family="Times,serif" font-size="14.00">..contractsvaultswapBasicDexSwap.sol</text>
<polyline fill="none" stroke="black" points="163.66,-234.9 770.01,-234.9 "/>
<text text-anchor="start" x="171.66" y="-218.3" font-family="Times,serif" font-size="14.00">Public:</text>
<text text-anchor="start" x="171.66" y="-201.5" font-family="Times,serif" font-size="14.00"> &#160;&#160;RATE_SCALE: uint256</text>
<text text-anchor="start" x="171.66" y="-184.7" font-family="Times,serif" font-size="14.00"> &#160;&#160;rates: mapping(address=&gt;mapping(address=&gt;uint256))</text>
<polyline fill="none" stroke="black" points="163.66,-176.5 770.01,-176.5 "/>
<text text-anchor="start" x="171.66" y="-159.9" font-family="Times,serif" font-size="14.00">Internal:</text>
<text text-anchor="start" x="171.66" y="-143.1" font-family="Times,serif" font-size="14.00"> &#160;&#160;&#160;_setRate(exchange: Exchange)</text>
<text text-anchor="start" x="171.66" y="-126.3" font-family="Times,serif" font-size="14.00">External:</text>
<text text-anchor="start" x="171.66" y="-109.5" font-family="Times,serif" font-size="14.00"> &#160;&#160;&#160;initialize(exchanges: Exchange[]) &lt;&lt;initializer&gt;&gt;</text>
<text text-anchor="start" x="171.66" y="-92.7" font-family="Times,serif" font-size="14.00"> &#160;&#160;&#160;swap(_swap: DexSwapData): (toAssetAmount: uint256)</text>
<text text-anchor="start" x="171.66" y="-75.9" font-family="Times,serif" font-size="14.00"> &#160;&#160;&#160;setRate(exchange: Exchange) &lt;&lt;onlyKeeperOrGovernor&gt;&gt;</text>
<text text-anchor="start" x="171.66" y="-59.1" font-family="Times,serif" font-size="14.00">Public:</text>
<text text-anchor="start" x="171.66" y="-42.3" font-family="Times,serif" font-size="14.00"> &#160;&#160;&#160;&lt;&lt;event&gt;&gt; Swapped(from: address, to: address, fromAssetAmount: uint256, toAssetAmount: uint256)</text>
<text text-anchor="start" x="171.66" y="-25.5" font-family="Times,serif" font-size="14.00"> &#160;&#160;&#160;&lt;&lt;event&gt;&gt; RateSet(from: address, to: address, rate: uint256)</text>
<text text-anchor="start" x="171.66" y="-8.7" font-family="Times,serif" font-size="14.00"> &#160;&#160;&#160;constructor(_nexus: address)</text>
</g>
<!-- 74&#45;&gt;73 -->
<g id="edge4" class="edge">
<title>74&#45;&gt;73</title>
<path fill="none" stroke="black" d="M178.09,-392.99C202.53,-367.7 231.35,-338.11 258.84,-313 269.2,-303.53 280.01,-293.98 291.02,-284.47"/>
<polygon fill="black" stroke="black" points="291.21,-284.32 293.16,-277.38 300.32,-276.51 298.36,-283.45 291.21,-284.32"/>
</g>
<!-- 73&#45;&gt;3 -->
<g id="edge8" class="edge">
<title>73&#45;&gt;3</title>
<path fill="none" stroke="black" stroke-dasharray="5,2" d="M304.99,-276.59C296.57,-288.23 289.04,-300.39 282.84,-313 268.02,-343.12 252.89,-541.4 245.13,-657.82"/>
<polygon fill="black" stroke="black" points="241.62,-657.92 244.45,-668.13 248.6,-658.38 241.62,-657.92"/>
</g>
<!-- 73&#45;&gt;4 -->
<g id="edge5" class="edge">
<title>73&#45;&gt;4</title>
<path fill="none" stroke="black" stroke-dasharray="5,2" d="M466.84,-276.81C466.84,-309.09 466.84,-342.43 466.84,-371.16"/>
<polygon fill="none" stroke="black" points="456.34,-371.33 466.84,-401.33 477.34,-371.33 456.34,-371.33"/>
</g>
<!-- 73&#45;&gt;13 -->
<g id="edge6" class="edge">
<title>73&#45;&gt;13</title>
<path fill="none" stroke="black" d="M613.37,-276.88C621.02,-284.2 628.64,-291.52 638.04,-300.62"/>
<polygon fill="none" stroke="black" points="630.77,-308.19 659.61,-321.56 645.4,-293.13 630.77,-308.19"/>
</g>
<!-- 73&#45;&gt;74 -->
<g id="edge7" class="edge">
<title>73&#45;&gt;74</title>
<path fill="none" stroke="black" stroke-dasharray="5,2" d="M282.37,-276.51C268.1,-288.62 254.1,-300.88 240.84,-313 216.03,-335.65 190.14,-361.96 168.49,-385.46"/>
<polygon fill="black" stroke="black" points="165.78,-383.25 161.62,-392.99 170.95,-387.97 165.78,-383.25"/>
</g>
</g>
</svg>
