<?xml version="1.0" encoding="UTF-8" standalone="no"?>
<!DOCTYPE svg PUBLIC "-//W3C//DTD SVG 1.1//EN"
 "http://www.w3.org/Graphics/SVG/1.1/DTD/svg11.dtd">
<!-- Generated by graphviz version 5.0.0 (20220707.1540)
 -->
<!-- Title: UmlClassDiagram Pages: 1 -->
<svg width="2897pt" height="718pt"
 viewBox="0.00 0.00 2897.48 718.40" xmlns="http://www.w3.org/2000/svg" xmlns:xlink="http://www.w3.org/1999/xlink">
<g id="graph0" class="graph" transform="scale(1 1) rotate(0) translate(4 714.4)">
<title>UmlClassDiagram</title>
<polygon fill="white" stroke="transparent" points="-4,4 -4,-714.4 2893.48,-714.4 2893.48,4 -4,4"/>
<!-- 7 -->
<g id="node1" class="node">
<title>7</title>
<polygon fill="#f2f2f2" stroke="black" points="1176.5,-556.1 1176.5,-614.5 1426.94,-614.5 1426.94,-556.1 1176.5,-556.1"/>
<text text-anchor="middle" x="1301.72" y="-597.9" font-family="Times,serif" font-size="14.00">&lt;&lt;Interface&gt;&gt;</text>
<text text-anchor="middle" x="1301.72" y="-581.1" font-family="Times,serif" font-size="14.00">IERC4626Vault</text>
<text text-anchor="middle" x="1301.72" y="-564.3" font-family="Times,serif" font-size="14.00">../contracts/interfaces/IERC4626Vault.sol</text>
</g>
<!-- 430 -->
<g id="node24" class="node">
<title>430</title>
<polygon fill="#f2f2f2" stroke="black" points="1099.66,-651.5 1099.66,-709.9 1503.77,-709.9 1503.77,-651.5 1099.66,-651.5"/>
<text text-anchor="middle" x="1301.72" y="-693.3" font-family="Times,serif" font-size="14.00">&lt;&lt;Interface&gt;&gt;</text>
<text text-anchor="middle" x="1301.72" y="-676.5" font-family="Times,serif" font-size="14.00">IERC20</text>
<text text-anchor="middle" x="1301.72" y="-659.7" font-family="Times,serif" font-size="14.00">../node_modules/@openzeppelin/contracts/token/ERC20/IERC20.sol</text>
</g>
<!-- 7&#45;&gt;430 -->
<g id="edge1" class="edge">
<title>7&#45;&gt;430</title>
<path fill="none" stroke="black" stroke-dasharray="5,2" d="M1301.72,-614.58C1301.72,-616.66 1301.72,-618.8 1301.72,-620.98"/>
<polygon fill="none" stroke="black" points="1291.22,-621.2 1301.72,-651.2 1312.22,-621.2 1291.22,-621.2"/>
</g>
<!-- 8 -->
<g id="node2" class="node">
<title>8</title>
<polygon fill="#f2f2f2" stroke="black" points="2579.57,-365.3 2579.57,-423.7 2833.87,-423.7 2833.87,-365.3 2579.57,-365.3"/>
<text text-anchor="middle" x="2706.72" y="-407.1" font-family="Times,serif" font-size="14.00">&lt;&lt;Interface&gt;&gt;</text>
<text text-anchor="middle" x="2706.72" y="-390.3" font-family="Times,serif" font-size="14.00">ILiquidatorVault</text>
<text text-anchor="middle" x="2706.72" y="-373.5" font-family="Times,serif" font-size="14.00">../contracts/interfaces/ILiquidatorVault.sol</text>
</g>
<!-- 10 -->
<g id="node3" class="node">
<title>10</title>
<polygon fill="#f2f2f2" stroke="black" points="2116.78,-556.1 2116.78,-614.5 2316.66,-614.5 2316.66,-556.1 2116.78,-556.1"/>
<text text-anchor="middle" x="2216.72" y="-597.9" font-family="Times,serif" font-size="14.00">&lt;&lt;Interface&gt;&gt;</text>
<text text-anchor="middle" x="2216.72" y="-581.1" font-family="Times,serif" font-size="14.00">INexus</text>
<text text-anchor="middle" x="2216.72" y="-564.3" font-family="Times,serif" font-size="14.00">../contracts/interfaces/INexus.sol</text>
</g>
<!-- 78 -->
<g id="node4" class="node">
<title>78</title>
<polygon fill="#f2f2f2" stroke="black" points="1062.22,-269.9 1062.22,-328.3 1363.21,-328.3 1363.21,-269.9 1062.22,-269.9"/>
<text text-anchor="middle" x="1212.72" y="-311.7" font-family="Times,serif" font-size="14.00">&lt;&lt;Interface&gt;&gt;</text>
<text text-anchor="middle" x="1212.72" y="-294.9" font-family="Times,serif" font-size="14.00">IConvexBooster</text>
<text text-anchor="middle" x="1212.72" y="-278.1" font-family="Times,serif" font-size="14.00">../contracts/peripheral/Convex/IConvexBooster.sol</text>
</g>
<!-- 79 -->
<g id="node5" class="node">
<title>79</title>
<polygon fill="#f2f2f2" stroke="black" points="711.67,-269.9 711.67,-328.3 1043.77,-328.3 1043.77,-269.9 711.67,-269.9"/>
<text text-anchor="middle" x="877.72" y="-311.7" font-family="Times,serif" font-size="14.00">&lt;&lt;Interface&gt;&gt;</text>
<text text-anchor="middle" x="877.72" y="-294.9" font-family="Times,serif" font-size="14.00">IConvexRewardsPool</text>
<text text-anchor="middle" x="877.72" y="-278.1" font-family="Times,serif" font-size="14.00">../contracts/peripheral/Convex/IConvexRewardsPool.sol</text>
</g>
<!-- 87 -->
<g id="node6" class="node">
<title>87</title>
<polygon fill="#f2f2f2" stroke="black" points="163.7,-269.9 163.7,-328.3 579.74,-328.3 579.74,-269.9 163.7,-269.9"/>
<text text-anchor="middle" x="371.72" y="-311.7" font-family="Times,serif" font-size="14.00">&lt;&lt;Library&gt;&gt;</text>
<text text-anchor="middle" x="371.72" y="-294.9" font-family="Times,serif" font-size="14.00">Curve3CrvMetapoolCalculatorLibrary</text>
<text text-anchor="middle" x="371.72" y="-278.1" font-family="Times,serif" font-size="14.00">../contracts/peripheral/Curve/Curve3CrvMetapoolCalculatorLibrary.sol</text>
</g>
<!-- 94 -->
<g id="node7" class="node">
<title>94</title>
<polygon fill="#f2f2f2" stroke="black" points="0,-365.3 0,-423.7 271.44,-423.7 271.44,-365.3 0,-365.3"/>
<text text-anchor="middle" x="135.72" y="-407.1" font-family="Times,serif" font-size="14.00">&lt;&lt;Interface&gt;&gt;</text>
<text text-anchor="middle" x="135.72" y="-390.3" font-family="Times,serif" font-size="14.00">ICurve3Pool</text>
<text text-anchor="middle" x="135.72" y="-373.5" font-family="Times,serif" font-size="14.00">../contracts/peripheral/Curve/ICurve3Pool.sol</text>
</g>
<!-- 87&#45;&gt;94 -->
<g id="edge2" class="edge">
<title>87&#45;&gt;94</title>
<path fill="none" stroke="black" d="M300.27,-328.38C273.94,-338.8 243.92,-350.68 216.79,-361.41"/>
<polygon fill="black" stroke="black" points="215.34,-358.22 207.33,-365.16 217.92,-364.73 215.34,-358.22"/>
</g>
<!-- 98 -->
<g id="node8" class="node">
<title>98</title>
<polygon fill="#f2f2f2" stroke="black" points="381.51,-365.3 381.51,-423.7 673.93,-423.7 673.93,-365.3 381.51,-365.3"/>
<text text-anchor="middle" x="527.72" y="-407.1" font-family="Times,serif" font-size="14.00">&lt;&lt;Interface&gt;&gt;</text>
<text text-anchor="middle" x="527.72" y="-390.3" font-family="Times,serif" font-size="14.00">ICurveMetapool</text>
<text text-anchor="middle" x="527.72" y="-373.5" font-family="Times,serif" font-size="14.00">../contracts/peripheral/Curve/ICurveMetapool.sol</text>
</g>
<!-- 87&#45;&gt;98 -->
<g id="edge4" class="edge">
<title>87&#45;&gt;98</title>
<path fill="none" stroke="black" stroke-dasharray="5,2" d="M418.95,-328.38C435.52,-338.3 454.3,-349.54 471.53,-359.86"/>
<polygon fill="black" stroke="black" points="470,-363.02 480.38,-365.16 473.6,-357.02 470,-363.02"/>
</g>
<!-- 87&#45;&gt;430 -->
<g id="edge3" class="edge">
<title>87&#45;&gt;430</title>
<path fill="none" stroke="black" stroke-dasharray="5,2" d="M365.09,-328.4C360.45,-354.71 357.49,-394.23 372.72,-424.2 437.16,-551.03 496.95,-563.91 629.72,-615 711.02,-646.28 924.45,-663.05 1089.17,-671.61"/>
<polygon fill="black" stroke="black" points="1089.29,-675.12 1099.45,-672.14 1089.65,-668.13 1089.29,-675.12"/>
</g>
<!-- 17 -->
<g id="node9" class="node">
<title>17</title>
<polygon fill="#f2f2f2" stroke="black" points="2217.83,-460.7 2217.83,-519.1 2463.61,-519.1 2463.61,-460.7 2217.83,-460.7"/>
<text text-anchor="middle" x="2340.72" y="-502.5" font-family="Times,serif" font-size="14.00">&lt;&lt;Abstract&gt;&gt;</text>
<text text-anchor="middle" x="2340.72" y="-485.7" font-family="Times,serif" font-size="14.00">ImmutableModule</text>
<text text-anchor="middle" x="2340.72" y="-468.9" font-family="Times,serif" font-size="14.00">../contracts/shared/ImmutableModule.sol</text>
</g>
<!-- 17&#45;&gt;10 -->
<g id="edge6" class="edge">
<title>17&#45;&gt;10</title>
<path fill="none" stroke="black" d="M2303.18,-519.18C2290.43,-528.78 2276.03,-539.62 2262.7,-549.67"/>
<polygon fill="black" stroke="black" points="2260.44,-546.99 2254.56,-555.8 2264.65,-552.58 2260.44,-546.99"/>
</g>
<!-- 19 -->
<g id="node10" class="node">
<title>19</title>
<polygon fill="#f2f2f2" stroke="black" points="2334.77,-564.5 2334.77,-606.1 2548.67,-606.1 2548.67,-564.5 2334.77,-564.5"/>
<text text-anchor="middle" x="2441.72" y="-589.5" font-family="Times,serif" font-size="14.00">ModuleKeys</text>
<text text-anchor="middle" x="2441.72" y="-572.7" font-family="Times,serif" font-size="14.00">../contracts/shared/ModuleKeys.sol</text>
</g>
<!-- 17&#45;&gt;19 -->
<g id="edge5" class="edge">
<title>17&#45;&gt;19</title>
<path fill="none" stroke="black" d="M2371.3,-519.18C2379.69,-526.93 2388.95,-535.5 2397.93,-543.8"/>
<polygon fill="none" stroke="black" points="2391.06,-551.75 2420.21,-564.41 2405.32,-536.34 2391.06,-551.75"/>
</g>
<!-- 23 -->
<g id="node11" class="node">
<title>23</title>
<polygon fill="#f2f2f2" stroke="black" points="1842.28,-365.3 1842.28,-423.7 2091.16,-423.7 2091.16,-365.3 1842.28,-365.3"/>
<text text-anchor="middle" x="1966.72" y="-407.1" font-family="Times,serif" font-size="14.00">&lt;&lt;Abstract&gt;&gt;</text>
<text text-anchor="middle" x="1966.72" y="-390.3" font-family="Times,serif" font-size="14.00">VaultManagerRole</text>
<text text-anchor="middle" x="1966.72" y="-373.5" font-family="Times,serif" font-size="14.00">../contracts/shared/VaultManagerRole.sol</text>
</g>
<!-- 23&#45;&gt;17 -->
<g id="edge8" class="edge">
<title>23&#45;&gt;17</title>
<path fill="none" stroke="black" d="M2079.69,-423.71C2117.05,-433.04 2159.11,-443.55 2198.37,-453.35"/>
<polygon fill="none" stroke="black" points="2196.08,-463.6 2227.73,-460.68 2201.17,-443.23 2196.08,-463.6"/>
</g>
<!-- 281 -->
<g id="node22" class="node">
<title>281</title>
<polygon fill="#f2f2f2" stroke="black" points="1785.68,-460.7 1785.68,-519.1 2161.76,-519.1 2161.76,-460.7 1785.68,-460.7"/>
<text text-anchor="middle" x="1973.72" y="-502.5" font-family="Times,serif" font-size="14.00">&lt;&lt;Abstract&gt;&gt;</text>
<text text-anchor="middle" x="1973.72" y="-485.7" font-family="Times,serif" font-size="14.00">Pausable</text>
<text text-anchor="middle" x="1973.72" y="-468.9" font-family="Times,serif" font-size="14.00">../node_modules/@openzeppelin/contracts/security/Pausable.sol</text>
</g>
<!-- 23&#45;&gt;281 -->
<g id="edge7" class="edge">
<title>23&#45;&gt;281</title>
<path fill="none" stroke="black" d="M1968.84,-423.78C1969,-425.95 1969.17,-428.19 1969.34,-430.47"/>
<polygon fill="none" stroke="black" points="1958.87,-431.27 1971.58,-460.4 1979.81,-429.7 1958.87,-431.27"/>
</g>
<!-- 25 -->
<g id="node12" class="node">
<title>25</title>
<polygon fill="#f2f2f2" stroke="black" points="1029.61,-365.3 1029.61,-423.7 1273.82,-423.7 1273.82,-365.3 1029.61,-365.3"/>
<text text-anchor="middle" x="1151.72" y="-407.1" font-family="Times,serif" font-size="14.00">&lt;&lt;Abstract&gt;&gt;</text>
<text text-anchor="middle" x="1151.72" y="-390.3" font-family="Times,serif" font-size="14.00">InitializableToken</text>
<text text-anchor="middle" x="1151.72" y="-373.5" font-family="Times,serif" font-size="14.00">../contracts/tokens/InitializableToken.sol</text>
</g>
<!-- 26 -->
<g id="node13" class="node">
<title>26</title>
<polygon fill="#f2f2f2" stroke="black" points="989.79,-460.7 989.79,-519.1 1273.65,-519.1 1273.65,-460.7 989.79,-460.7"/>
<text text-anchor="middle" x="1131.72" y="-502.5" font-family="Times,serif" font-size="14.00">&lt;&lt;Abstract&gt;&gt;</text>
<text text-anchor="middle" x="1131.72" y="-485.7" font-family="Times,serif" font-size="14.00">InitializableTokenDetails</text>
<text text-anchor="middle" x="1131.72" y="-468.9" font-family="Times,serif" font-size="14.00">../contracts/tokens/InitializableTokenDetails.sol</text>
</g>
<!-- 25&#45;&gt;26 -->
<g id="edge10" class="edge">
<title>25&#45;&gt;26</title>
<path fill="none" stroke="black" d="M1145.66,-423.78C1145.16,-426.13 1144.64,-428.56 1144.11,-431.04"/>
<polygon fill="none" stroke="black" points="1133.84,-428.86 1137.82,-460.4 1154.37,-433.26 1133.84,-428.86"/>
</g>
<!-- 429 -->
<g id="node23" class="node">
<title>429</title>
<polygon fill="#f2f2f2" stroke="black" points="1330,-469.1 1330,-510.7 1729.44,-510.7 1729.44,-469.1 1330,-469.1"/>
<text text-anchor="middle" x="1529.72" y="-494.1" font-family="Times,serif" font-size="14.00">ERC20</text>
<text text-anchor="middle" x="1529.72" y="-477.3" font-family="Times,serif" font-size="14.00">../node_modules/@openzeppelin/contracts/token/ERC20/ERC20.sol</text>
</g>
<!-- 25&#45;&gt;429 -->
<g id="edge9" class="edge">
<title>25&#45;&gt;429</title>
<path fill="none" stroke="black" d="M1265.9,-423.71C1314.83,-435.8 1371.74,-449.86 1420.15,-461.83"/>
<polygon fill="none" stroke="black" points="1417.78,-472.06 1449.42,-469.06 1422.82,-451.67 1417.78,-472.06"/>
</g>
<!-- 39 -->
<g id="node14" class="node">
<title>39</title>
<polygon fill="#f2f2f2" stroke="black" points="1418.94,-269.9 1418.94,-328.3 1630.5,-328.3 1630.5,-269.9 1418.94,-269.9"/>
<text text-anchor="middle" x="1524.72" y="-311.7" font-family="Times,serif" font-size="14.00">&lt;&lt;Abstract&gt;&gt;</text>
<text text-anchor="middle" x="1524.72" y="-294.9" font-family="Times,serif" font-size="14.00">AbstractVault</text>
<text text-anchor="middle" x="1524.72" y="-278.1" font-family="Times,serif" font-size="14.00">../contracts/vault/AbstractVault.sol</text>
</g>
<!-- 39&#45;&gt;7 -->
<g id="edge11" class="edge">
<title>39&#45;&gt;7</title>
<path fill="none" stroke="black" stroke-dasharray="5,2" d="M1468.63,-328.38C1421.11,-355.45 1355.35,-400.92 1320.72,-460.2 1309.29,-479.76 1304.01,-503.89 1301.77,-525.66"/>
<polygon fill="none" stroke="black" points="1291.27,-525.51 1300.3,-555.98 1312.24,-526.52 1291.27,-525.51"/>
</g>
<!-- 39&#45;&gt;23 -->
<g id="edge13" class="edge">
<title>39&#45;&gt;23</title>
<path fill="none" stroke="black" d="M1630.57,-326.73C1633.65,-327.43 1636.71,-328.13 1639.72,-328.8 1695.95,-341.37 1757.9,-353.95 1812.62,-364.63"/>
<polygon fill="none" stroke="black" points="1810.75,-374.96 1842.2,-370.36 1814.74,-354.34 1810.75,-374.96"/>
</g>
<!-- 39&#45;&gt;25 -->
<g id="edge12" class="edge">
<title>39&#45;&gt;25</title>
<path fill="none" stroke="black" d="M1418.83,-326.61C1379.91,-336.36 1335.2,-347.56 1293.62,-357.97"/>
<polygon fill="none" stroke="black" points="1290.94,-347.81 1264.39,-365.29 1296.04,-368.19 1290.94,-347.81"/>
</g>
<!-- 39&#45;&gt;430 -->
<g id="edge15" class="edge">
<title>39&#45;&gt;430</title>
<path fill="none" stroke="black" d="M1571.98,-328.36C1618.11,-357.49 1688.5,-406.16 1738.72,-460.2 1760.05,-483.16 1753.87,-498.15 1776.72,-519.6 1800.8,-542.2 1824.95,-527.15 1841.72,-555.6 1855.12,-578.34 1859.24,-595.25 1841.72,-615 1819.46,-640.09 1655.55,-657.26 1514.1,-667.57"/>
<polygon fill="black" stroke="black" points="1513.67,-664.09 1503.95,-668.3 1514.18,-671.07 1513.67,-664.09"/>
</g>
<!-- 696 -->
<g id="node26" class="node">
<title>696</title>
<polygon fill="#f2f2f2" stroke="black" points="2109.55,-365.3 2109.55,-423.7 2561.88,-423.7 2561.88,-365.3 2109.55,-365.3"/>
<text text-anchor="middle" x="2335.72" y="-407.1" font-family="Times,serif" font-size="14.00">&lt;&lt;Library&gt;&gt;</text>
<text text-anchor="middle" x="2335.72" y="-390.3" font-family="Times,serif" font-size="14.00">SafeERC20</text>
<text text-anchor="middle" x="2335.72" y="-373.5" font-family="Times,serif" font-size="14.00">../node_modules/@openzeppelin/contracts/token/ERC20/utils/SafeERC20.sol</text>
</g>
<!-- 39&#45;&gt;696 -->
<g id="edge14" class="edge">
<title>39&#45;&gt;696</title>
<path fill="none" stroke="black" stroke-dasharray="5,2" d="M1630.79,-327.25C1633.79,-327.8 1636.77,-328.32 1639.72,-328.8 1838.86,-361.21 1893.9,-344.96 2099.13,-364.77"/>
<polygon fill="black" stroke="black" points="2099.04,-368.28 2109.33,-365.77 2099.72,-361.31 2099.04,-368.28"/>
</g>
<!-- 161 -->
<g id="node15" class="node">
<title>161</title>
<polygon fill="#f2f2f2" stroke="black" points="2542.23,-269.9 2542.23,-328.3 2871.21,-328.3 2871.21,-269.9 2542.23,-269.9"/>
<text text-anchor="middle" x="2706.72" y="-311.7" font-family="Times,serif" font-size="14.00">&lt;&lt;Abstract&gt;&gt;</text>
<text text-anchor="middle" x="2706.72" y="-294.9" font-family="Times,serif" font-size="14.00">LiquidatorAbstractVault</text>
<text text-anchor="middle" x="2706.72" y="-278.1" font-family="Times,serif" font-size="14.00">../contracts/vault/liquidator/LiquidatorAbstractVault.sol</text>
</g>
<!-- 161&#45;&gt;8 -->
<g id="edge16" class="edge">
<title>161&#45;&gt;8</title>
<path fill="none" stroke="black" stroke-dasharray="5,2" d="M2706.72,-328.38C2706.72,-330.46 2706.72,-332.6 2706.72,-334.78"/>
<polygon fill="none" stroke="black" points="2696.22,-335 2706.72,-365 2717.22,-335 2696.22,-335"/>
</g>
<!-- 161&#45;&gt;23 -->
<g id="edge17" class="edge">
<title>161&#45;&gt;23</title>
<path fill="none" stroke="black" d="M2541.94,-327.75C2539.18,-328.11 2536.44,-328.46 2533.72,-328.8 2352,-351.39 2297.34,-338.08 2121.38,-361.98"/>
<polygon fill="none" stroke="black" points="2119.67,-351.62 2091.45,-366.24 2122.63,-372.41 2119.67,-351.62"/>
</g>
<!-- 161&#45;&gt;430 -->
<g id="edge19" class="edge">
<title>161&#45;&gt;430</title>
<path fill="none" stroke="black" stroke-dasharray="5,2" d="M2802.3,-328.43C2818.35,-337.48 2832.94,-349.33 2842.72,-364.8 2879.46,-422.97 2882.91,-463.76 2842.72,-519.6 2764.69,-628.01 2688.96,-590.14 2557.72,-615 2364.03,-651.7 1818.67,-668.82 1514.12,-675.72"/>
<polygon fill="black" stroke="black" points="1513.76,-672.22 1503.84,-675.95 1513.92,-679.22 1513.76,-672.22"/>
</g>
<!-- 161&#45;&gt;696 -->
<g id="edge18" class="edge">
<title>161&#45;&gt;696</title>
<path fill="none" stroke="black" stroke-dasharray="5,2" d="M2594.65,-328.31C2551.42,-339.2 2501.84,-351.68 2457.71,-362.79"/>
<polygon fill="black" stroke="black" points="2456.64,-359.45 2447.8,-365.28 2458.35,-366.24 2456.64,-359.45"/>
</g>
<!-- 164 -->
<g id="node16" class="node">
<title>164</title>
<polygon fill="#f2f2f2" stroke="black" points="1997.4,-174.5 1997.4,-232.9 2366.04,-232.9 2366.04,-174.5 1997.4,-174.5"/>
<text text-anchor="middle" x="2181.72" y="-216.3" font-family="Times,serif" font-size="14.00">&lt;&lt;Abstract&gt;&gt;</text>
<text text-anchor="middle" x="2181.72" y="-199.5" font-family="Times,serif" font-size="14.00">LiquidatorStreamAbstractVault</text>
<text text-anchor="middle" x="2181.72" y="-182.7" font-family="Times,serif" font-size="14.00">../contracts/vault/liquidator/LiquidatorStreamAbstractVault.sol</text>
</g>
<!-- 164&#45;&gt;39 -->
<g id="edge20" class="edge">
<title>164&#45;&gt;39</title>
<path fill="none" stroke="black" d="M1997.09,-220.93C1899.99,-230.8 1778.36,-245.25 1660.09,-265.87"/>
<polygon fill="none" stroke="black" points="1658.19,-255.54 1630.51,-271.17 1661.89,-276.21 1658.19,-255.54"/>
</g>
<!-- 164&#45;&gt;161 -->
<g id="edge21" class="edge">
<title>164&#45;&gt;161</title>
<path fill="none" stroke="black" d="M2340.3,-232.91C2396.34,-242.88 2459.91,-254.19 2518.19,-264.56"/>
<polygon fill="none" stroke="black" points="2516.74,-274.97 2548.11,-269.88 2520.42,-254.29 2516.74,-274.97"/>
</g>
<!-- 164&#45;&gt;429 -->
<g id="edge24" class="edge">
<title>164&#45;&gt;429</title>
<path fill="none" stroke="black" stroke-dasharray="5,2" d="M2131.28,-232.93C2082.6,-259.55 2006.39,-299.61 1937.72,-328.8 1892.7,-347.93 1879.49,-347.55 1833.72,-364.8 1746.25,-397.77 1646.11,-439.42 1585.41,-465.1"/>
<polygon fill="black" stroke="black" points="1583.86,-461.96 1576.02,-469.08 1586.59,-468.4 1583.86,-461.96"/>
</g>
<!-- 164&#45;&gt;696 -->
<g id="edge22" class="edge">
<title>164&#45;&gt;696</title>
<path fill="none" stroke="black" stroke-dasharray="5,2" d="M2150.7,-233.13C2141.48,-243.54 2132.56,-256.06 2127.72,-269.4 2118.72,-294.22 2112.07,-307.54 2127.72,-328.8 2137.01,-341.42 2148.74,-351.64 2161.87,-359.92"/>
<polygon fill="black" stroke="black" points="2160.3,-363.06 2170.7,-365.09 2163.83,-357.02 2160.3,-363.06"/>
</g>
<!-- 457 -->
<g id="node29" class="node">
<title>457</title>
<polygon fill="#f2f2f2" stroke="black" points="2136.84,-269.9 2136.84,-328.3 2524.6,-328.3 2524.6,-269.9 2136.84,-269.9"/>
<text text-anchor="middle" x="2330.72" y="-311.7" font-family="Times,serif" font-size="14.00">&lt;&lt;Library&gt;&gt;</text>
<text text-anchor="middle" x="2330.72" y="-294.9" font-family="Times,serif" font-size="14.00">SafeCast</text>
<text text-anchor="middle" x="2330.72" y="-278.1" font-family="Times,serif" font-size="14.00">../node_modules/@openzeppelin/contracts/utils/math/SafeCast.sol</text>
</g>
<!-- 164&#45;&gt;457 -->
<g id="edge23" class="edge">
<title>164&#45;&gt;457</title>
<path fill="none" stroke="black" stroke-dasharray="5,2" d="M2226.83,-232.98C2242.51,-242.81 2260.26,-253.93 2276.6,-264.17"/>
<polygon fill="black" stroke="black" points="2275.17,-267.41 2285.51,-269.76 2278.89,-261.48 2275.17,-267.41"/>
</g>
<!-- 166 -->
<g id="node17" class="node">
<title>166</title>
<polygon fill="#f2f2f2" stroke="black" points="2035.29,-79.1 2035.29,-137.5 2424.15,-137.5 2424.15,-79.1 2035.29,-79.1"/>
<text text-anchor="middle" x="2229.72" y="-120.9" font-family="Times,serif" font-size="14.00">&lt;&lt;Abstract&gt;&gt;</text>
<text text-anchor="middle" x="2229.72" y="-104.1" font-family="Times,serif" font-size="14.00">LiquidatorStreamFeeAbstractVault</text>
<text text-anchor="middle" x="2229.72" y="-87.3" font-family="Times,serif" font-size="14.00">../contracts/vault/liquidator/LiquidatorStreamFeeAbstractVault.sol</text>
</g>
<!-- 166&#45;&gt;164 -->
<g id="edge25" class="edge">
<title>166&#45;&gt;164</title>
<path fill="none" stroke="black" d="M2215.19,-137.58C2213.56,-140.75 2211.86,-144.05 2210.13,-147.42"/>
<polygon fill="none" stroke="black" points="2200.74,-142.72 2196.37,-174.2 2219.42,-152.31 2200.74,-142.72"/>
</g>
<!-- 166&#45;&gt;457 -->
<g id="edge26" class="edge">
<title>166&#45;&gt;457</title>
<path fill="none" stroke="black" stroke-dasharray="5,2" d="M2333.68,-137.69C2349.94,-146.69 2364.67,-158.51 2374.72,-174 2392.16,-200.88 2377.31,-235.52 2360.31,-261.37"/>
<polygon fill="black" stroke="black" points="2357.3,-259.56 2354.5,-269.78 2363.06,-263.54 2357.3,-259.56"/>
</g>
<!-- 168 -->
<g id="node18" class="node">
<title>168</title>
<polygon fill="#f2f2f2" stroke="black" points="1648.32,-269.9 1648.32,-328.3 1929.11,-328.3 1929.11,-269.9 1648.32,-269.9"/>
<text text-anchor="middle" x="1788.72" y="-311.7" font-family="Times,serif" font-size="14.00">&lt;&lt;Abstract&gt;&gt;</text>
<text text-anchor="middle" x="1788.72" y="-294.9" font-family="Times,serif" font-size="14.00">AbstractSlippage</text>
<text text-anchor="middle" x="1788.72" y="-278.1" font-family="Times,serif" font-size="14.00">../contracts/vault/liquidity/AbstractSlippage.sol</text>
</g>
<!-- 168&#45;&gt;23 -->
<g id="edge27" class="edge">
<title>168&#45;&gt;23</title>
<path fill="none" stroke="black" d="M1842.61,-328.38C1856.31,-335.57 1871.34,-343.45 1886.06,-351.18"/>
<polygon fill="none" stroke="black" points="1881.26,-360.52 1912.71,-365.16 1891.02,-341.92 1881.26,-360.52"/>
</g>
<!-- 240 -->
<g id="node19" class="node">
<title>240</title>
<polygon fill="#f2f2f2" stroke="black" points="1335.33,-174.5 1335.33,-232.9 1714.1,-232.9 1714.1,-174.5 1335.33,-174.5"/>
<text text-anchor="middle" x="1524.72" y="-216.3" font-family="Times,serif" font-size="14.00">&lt;&lt;Abstract&gt;&gt;</text>
<text text-anchor="middle" x="1524.72" y="-199.5" font-family="Times,serif" font-size="14.00">Convex3CrvAbstractVault</text>
<text text-anchor="middle" x="1524.72" y="-182.7" font-family="Times,serif" font-size="14.00">../contracts/vault/liquidity/convex/Convex3CrvAbstractVault.sol</text>
</g>
<!-- 240&#45;&gt;78 -->
<g id="edge32" class="edge">
<title>240&#45;&gt;78</title>
<path fill="none" stroke="black" d="M1430.26,-232.98C1394.45,-243.7 1353.49,-255.96 1316.84,-266.93"/>
<polygon fill="black" stroke="black" points="1315.7,-263.62 1307.12,-269.84 1317.71,-270.32 1315.7,-263.62"/>
</g>
<!-- 240&#45;&gt;79 -->
<g id="edge33" class="edge">
<title>240&#45;&gt;79</title>
<path fill="none" stroke="black" d="M1335.2,-229.63C1252.07,-240.84 1153.08,-254.56 1054.18,-269.35"/>
<polygon fill="black" stroke="black" points="1053.36,-265.93 1043.99,-270.87 1054.39,-272.85 1053.36,-265.93"/>
</g>
<!-- 240&#45;&gt;87 -->
<g id="edge35" class="edge">
<title>240&#45;&gt;87</title>
<path fill="none" stroke="black" stroke-dasharray="5,2" d="M1335.1,-216.36C1154.22,-227.98 874.17,-247.24 631.72,-269.4 618.16,-270.64 604.22,-271.98 590.16,-273.39"/>
<polygon fill="black" stroke="black" points="589.5,-269.93 579.91,-274.42 590.21,-276.9 589.5,-269.93"/>
</g>
<!-- 240&#45;&gt;94 -->
<g id="edge31" class="edge">
<title>240&#45;&gt;94</title>
<path fill="none" stroke="black" d="M1335.07,-207.37C969.18,-213.37 197.82,-230.59 154.72,-269.4 131.45,-290.35 128.31,-326.86 130.04,-354.88"/>
<polygon fill="black" stroke="black" points="126.58,-355.48 130.91,-365.15 133.55,-354.89 126.58,-355.48"/>
</g>
<!-- 240&#45;&gt;98 -->
<g id="edge36" class="edge">
<title>240&#45;&gt;98</title>
<path fill="none" stroke="black" stroke-dasharray="5,2" d="M1335.14,-211.11C1101.17,-220.24 727.04,-239.32 669.72,-269.4 639.67,-285.17 646.62,-305.74 621.72,-328.8 610.03,-339.62 596.42,-350.03 583.24,-359.21"/>
<polygon fill="black" stroke="black" points="580.95,-356.53 574.66,-365.06 584.89,-362.32 580.95,-356.53"/>
</g>
<!-- 240&#45;&gt;39 -->
<g id="edge29" class="edge">
<title>240&#45;&gt;39</title>
<path fill="none" stroke="black" d="M1524.72,-232.98C1524.72,-235.06 1524.72,-237.2 1524.72,-239.38"/>
<polygon fill="none" stroke="black" points="1514.22,-239.6 1524.72,-269.6 1535.22,-239.6 1514.22,-239.6"/>
</g>
<!-- 240&#45;&gt;168 -->
<g id="edge28" class="edge">
<title>240&#45;&gt;168</title>
<path fill="none" stroke="black" d="M1604.64,-232.98C1628.44,-241.4 1654.93,-250.77 1680.23,-259.72"/>
<polygon fill="none" stroke="black" points="1676.83,-269.65 1708.61,-269.76 1683.83,-249.85 1676.83,-269.65"/>
</g>
<!-- 691 -->
<g id="node25" class="node">
<title>691</title>
<polygon fill="#f2f2f2" stroke="black" points="639.13,-556.1 639.13,-614.5 1158.31,-614.5 1158.31,-556.1 639.13,-556.1"/>
<text text-anchor="middle" x="898.72" y="-597.9" font-family="Times,serif" font-size="14.00">&lt;&lt;Interface&gt;&gt;</text>
<text text-anchor="middle" x="898.72" y="-581.1" font-family="Times,serif" font-size="14.00">IERC20Metadata</text>
<text text-anchor="middle" x="898.72" y="-564.3" font-family="Times,serif" font-size="14.00">../node_modules/@openzeppelin/contracts/token/ERC20/extensions/IERC20Metadata.sol</text>
</g>
<!-- 240&#45;&gt;691 -->
<g id="edge34" class="edge">
<title>240&#45;&gt;691</title>
<path fill="none" stroke="black" stroke-dasharray="5,2" d="M1335.28,-206.35C1105.88,-210.35 744.78,-223.9 702.72,-269.4 619.78,-359.12 767.45,-488.82 849.45,-549.96"/>
<polygon fill="black" stroke="black" points="847.53,-552.89 857.65,-556.01 851.68,-547.26 847.53,-552.89"/>
</g>
<!-- 240&#45;&gt;696 -->
<g id="edge30" class="edge">
<title>240&#45;&gt;696</title>
<path fill="none" stroke="black" stroke-dasharray="5,2" d="M1714.12,-221.96C1785.35,-231.67 1866.34,-246.6 1937.72,-269.4 1994.03,-287.39 2001.1,-308.79 2056.72,-328.8 2094.24,-342.3 2135.64,-353.7 2174.8,-362.97"/>
<polygon fill="black" stroke="black" points="2174.17,-366.42 2184.7,-365.29 2175.76,-359.61 2174.17,-366.42"/>
</g>
<!-- 243 -->
<g id="node20" class="node">
<title>243</title>
<polygon fill="#f2f2f2" stroke="black" points="1755.5,-0.5 1755.5,-42.1 2145.94,-42.1 2145.94,-0.5 1755.5,-0.5"/>
<text text-anchor="middle" x="1950.72" y="-25.5" font-family="Times,serif" font-size="14.00">Convex3CrvLiquidatorVault</text>
<text text-anchor="middle" x="1950.72" y="-8.7" font-family="Times,serif" font-size="14.00">../contracts/vault/liquidity/convex/Convex3CrvLiquidatorVault.sol</text>
</g>
<!-- 243&#45;&gt;87 -->
<g id="edge47" class="edge">
<title>243&#45;&gt;87</title>
<path fill="none" stroke="black" stroke-dasharray="5,2" d="M1755.41,-22.64C1405.22,-24.39 697.22,-33.54 593.72,-78.6 504.7,-117.36 431.56,-209.35 395.66,-261.1"/>
<polygon fill="black" stroke="black" points="392.57,-259.43 389.81,-269.66 398.35,-263.38 392.57,-259.43"/>
</g>
<!-- 243&#45;&gt;94 -->
<g id="edge46" class="edge">
<title>243&#45;&gt;94</title>
<path fill="none" stroke="black" stroke-dasharray="5,2" d="M1755.5,-25.26C1388.4,-31.52 621.48,-48.07 503.72,-78.6 321.94,-125.73 225.06,-109.41 126.72,-269.4 111.04,-294.91 114.98,-329.17 121.89,-355.23"/>
<polygon fill="black" stroke="black" points="118.61,-356.51 124.75,-365.14 125.33,-354.56 118.61,-356.51"/>
</g>
<!-- 243&#45;&gt;98 -->
<g id="edge48" class="edge">
<title>243&#45;&gt;98</title>
<path fill="none" stroke="black" stroke-dasharray="5,2" d="M1828.11,-42.12C1764.4,-52.61 1685.3,-65.91 1614.72,-78.6 1172.41,-158.14 985.71,-5.81 621.72,-269.4 597.26,-287.11 606.55,-304.42 588.72,-328.8 581.46,-338.73 572.8,-348.75 564.33,-357.83"/>
<polygon fill="black" stroke="black" points="561.65,-355.57 557.29,-365.23 566.72,-360.4 561.65,-355.57"/>
</g>
<!-- 243&#45;&gt;23 -->
<g id="edge42" class="edge">
<title>243&#45;&gt;23</title>
<path fill="none" stroke="black" stroke-dasharray="5,2" d="M1950.89,-42.1C1951.28,-79.5 1952.47,-163.09 1955.72,-233.4 1957.64,-274.91 1961.05,-322.39 1963.57,-354.8"/>
<polygon fill="black" stroke="black" points="1960.11,-355.49 1964.39,-365.18 1967.09,-354.94 1960.11,-355.49"/>
</g>
<!-- 243&#45;&gt;25 -->
<g id="edge41" class="edge">
<title>243&#45;&gt;25</title>
<path fill="none" stroke="black" stroke-dasharray="5,2" d="M1923.78,-42.16C1909.99,-52.63 1893.12,-65.9 1878.72,-78.6 1805.45,-143.2 1810.75,-191.09 1722.72,-233.4 1596.51,-294.06 1528.5,-195.25 1409.72,-269.4 1383.13,-286 1396.78,-309.99 1371.72,-328.8 1346.08,-348.05 1314.79,-361.59 1283.96,-371.11"/>
<polygon fill="black" stroke="black" points="1282.57,-367.87 1273.97,-374.06 1284.55,-374.58 1282.57,-367.87"/>
</g>
<!-- 243&#45;&gt;161 -->
<g id="edge44" class="edge">
<title>243&#45;&gt;161</title>
<path fill="none" stroke="black" stroke-dasharray="5,2" d="M2145.98,-28.3C2257.94,-34.96 2385.4,-49 2432.72,-78.6 2459.29,-95.22 2448.86,-115.54 2470.72,-138 2521.87,-190.55 2592.82,-235.88 2643.55,-264.76"/>
<polygon fill="black" stroke="black" points="2642.03,-267.92 2652.46,-269.78 2645.47,-261.82 2642.03,-267.92"/>
</g>
<!-- 243&#45;&gt;164 -->
<g id="edge45" class="edge">
<title>243&#45;&gt;164</title>
<path fill="none" stroke="black" stroke-dasharray="5,2" d="M1962.88,-42.17C1982.09,-73.33 2018.14,-130.88 2026.72,-138 2042.34,-150.96 2060.93,-161.66 2079.71,-170.36"/>
<polygon fill="black" stroke="black" points="2078.38,-173.6 2088.94,-174.47 2081.23,-167.2 2078.38,-173.6"/>
</g>
<!-- 243&#45;&gt;166 -->
<g id="edge38" class="edge">
<title>243&#45;&gt;166</title>
<path fill="none" stroke="black" d="M2015.78,-42.12C2043.25,-50.49 2076.18,-60.52 2107.86,-70.18"/>
<polygon fill="none" stroke="black" points="2105.28,-80.36 2137.03,-79.06 2111.4,-60.28 2105.28,-80.36"/>
</g>
<!-- 243&#45;&gt;168 -->
<g id="edge43" class="edge">
<title>243&#45;&gt;168</title>
<path fill="none" stroke="black" stroke-dasharray="5,2" d="M1939.07,-42.13C1912.16,-87.95 1845.32,-201.74 1810.53,-260.96"/>
<polygon fill="black" stroke="black" points="1807.49,-259.24 1805.44,-269.63 1813.52,-262.78 1807.49,-259.24"/>
</g>
<!-- 243&#45;&gt;240 -->
<g id="edge37" class="edge">
<title>243&#45;&gt;240</title>
<path fill="none" stroke="black" d="M1845.07,-42.1C1807.24,-50.97 1764.8,-63.01 1727.72,-78.6 1678.34,-99.36 1626.89,-130.94 1588.15,-157.04"/>
<polygon fill="none" stroke="black" points="1581.96,-148.55 1563.25,-174.24 1593.9,-165.83 1581.96,-148.55"/>
</g>
<!-- 424 -->
<g id="node21" class="node">
<title>424</title>
<polygon fill="#f2f2f2" stroke="black" points="2479.96,-79.1 2479.96,-137.5 2889.48,-137.5 2889.48,-79.1 2479.96,-79.1"/>
<text text-anchor="middle" x="2684.72" y="-120.9" font-family="Times,serif" font-size="14.00">&lt;&lt;Abstract&gt;&gt;</text>
<text text-anchor="middle" x="2684.72" y="-104.1" font-family="Times,serif" font-size="14.00">Initializable</text>
<text text-anchor="middle" x="2684.72" y="-87.3" font-family="Times,serif" font-size="14.00">../node_modules/@openzeppelin/contracts/proxy/utils/Initializable.sol</text>
</g>
<!-- 243&#45;&gt;424 -->
<g id="edge39" class="edge">
<title>243&#45;&gt;424</title>
<path fill="none" stroke="black" d="M2140.99,-42.12C2230.23,-51.64 2338.78,-63.55 2449.99,-76.75"/>
<polygon fill="none" stroke="black" points="2448.83,-87.18 2479.86,-80.32 2451.32,-66.33 2448.83,-87.18"/>
</g>
<!-- 243&#45;&gt;696 -->
<g id="edge40" class="edge">
<title>243&#45;&gt;696</title>
<path fill="none" stroke="black" stroke-dasharray="5,2" d="M1952.46,-42.23C1956.79,-88.43 1969.11,-201.31 1988.72,-233.4 2029.44,-300.04 2106.08,-339.25 2177,-362.16"/>
<polygon fill="black" stroke="black" points="2176.37,-365.63 2186.96,-365.28 2178.47,-358.95 2176.37,-365.63"/>
</g>
<!-- 284 -->
<g id="node27" class="node">
<title>284</title>
<polygon fill="#f2f2f2" stroke="black" points="2481.72,-460.7 2481.72,-519.1 2833.72,-519.1 2833.72,-460.7 2481.72,-460.7"/>
<text text-anchor="middle" x="2657.72" y="-502.5" font-family="Times,serif" font-size="14.00">&lt;&lt;Library&gt;&gt;</text>
<text text-anchor="middle" x="2657.72" y="-485.7" font-family="Times,serif" font-size="14.00">Address</text>
<text text-anchor="middle" x="2657.72" y="-468.9" font-family="Times,serif" font-size="14.00">../node_modules/@openzeppelin/contracts/utils/Address.sol</text>
</g>
<!-- 424&#45;&gt;284 -->
<g id="edge49" class="edge">
<title>424&#45;&gt;284</title>
<path fill="none" stroke="black" stroke-dasharray="5,2" d="M2741.49,-137.56C2788.27,-164.35 2851.35,-209.41 2879.72,-269.4 2891,-293.27 2884.58,-302.85 2879.72,-328.8 2871.35,-373.5 2875.41,-392.59 2842.72,-424.2 2828.97,-437.49 2812.34,-448.07 2794.76,-456.48"/>
<polygon fill="black" stroke="black" points="2793.15,-453.36 2785.49,-460.68 2796.05,-459.74 2793.15,-453.36"/>
</g>
<!-- 290 -->
<g id="node28" class="node">
<title>290</title>
<polygon fill="#f2f2f2" stroke="black" points="1482.5,-556.1 1482.5,-614.5 1832.94,-614.5 1832.94,-556.1 1482.5,-556.1"/>
<text text-anchor="middle" x="1657.72" y="-597.9" font-family="Times,serif" font-size="14.00">&lt;&lt;Abstract&gt;&gt;</text>
<text text-anchor="middle" x="1657.72" y="-581.1" font-family="Times,serif" font-size="14.00">Context</text>
<text text-anchor="middle" x="1657.72" y="-564.3" font-family="Times,serif" font-size="14.00">../node_modules/@openzeppelin/contracts/utils/Context.sol</text>
</g>
<!-- 281&#45;&gt;290 -->
<g id="edge50" class="edge">
<title>281&#45;&gt;290</title>
<path fill="none" stroke="black" d="M1878.05,-519.18C1847.96,-528.07 1814.27,-538.03 1782.46,-547.43"/>
<polygon fill="none" stroke="black" points="1779.13,-537.47 1753.33,-556.04 1785.08,-557.6 1779.13,-537.47"/>
</g>
<!-- 429&#45;&gt;430 -->
<g id="edge52" class="edge">
<title>429&#45;&gt;430</title>
<path fill="none" stroke="black" stroke-dasharray="5,2" d="M1511.03,-510.96C1499.75,-523.43 1485.36,-540.01 1473.72,-555.6 1454.97,-580.71 1459.16,-594.2 1435.72,-615 1426.55,-623.13 1416.19,-630.47 1405.38,-637.03"/>
<polygon fill="none" stroke="black" points="1400.29,-627.85 1378.88,-651.34 1410.26,-646.33 1400.29,-627.85"/>
</g>
<!-- 429&#45;&gt;691 -->
<g id="edge53" class="edge">
<title>429&#45;&gt;691</title>
<path fill="none" stroke="black" stroke-dasharray="5,2" d="M1395.9,-510.71C1315.6,-522.59 1211.49,-538 1119.29,-551.65"/>
<polygon fill="none" stroke="black" points="1117.64,-541.28 1089.5,-556.06 1120.72,-562.05 1117.64,-541.28"/>
</g>
<!-- 429&#45;&gt;290 -->
<g id="edge51" class="edge">
<title>429&#45;&gt;290</title>
<path fill="none" stroke="black" d="M1556.86,-510.71C1567.94,-518.79 1581.24,-528.49 1594.5,-538.17"/>
<polygon fill="none" stroke="black" points="1588.53,-546.81 1618.96,-556.02 1600.91,-529.85 1588.53,-546.81"/>
</g>
<!-- 691&#45;&gt;430 -->
<g id="edge54" class="edge">
<title>691&#45;&gt;430</title>
<path fill="none" stroke="black" stroke-dasharray="5,2" d="M1020.45,-614.51C1061.4,-624 1107.58,-634.71 1150.51,-644.66"/>
<polygon fill="none" stroke="black" points="1148.37,-654.94 1179.97,-651.48 1153.12,-634.48 1148.37,-654.94"/>
</g>
<!-- 696&#45;&gt;430 -->
<g id="edge56" class="edge">
<title>696&#45;&gt;430</title>
<path fill="none" stroke="black" stroke-dasharray="5,2" d="M2263.94,-423.79C2244.67,-433.5 2224.76,-445.66 2208.72,-460.2 2185.5,-481.25 2195.54,-500.47 2170.72,-519.6 2115.98,-561.79 1942.28,-600.45 1874.72,-615 1756.68,-640.42 1622.68,-656.25 1513.96,-665.88"/>
<polygon fill="black" stroke="black" points="1513.51,-662.41 1503.85,-666.77 1514.12,-669.38 1513.51,-662.41"/>
</g>
<!-- 696&#45;&gt;284 -->
<g id="edge55" class="edge">
<title>696&#45;&gt;284</title>
<path fill="none" stroke="black" stroke-dasharray="5,2" d="M2433.2,-423.78C2470.16,-434.5 2512.44,-446.76 2550.26,-457.73"/>
<polygon fill="black" stroke="black" points="2549.71,-461.21 2560.29,-460.64 2551.66,-454.49 2549.71,-461.21"/>
</g>
</g>
</svg>
