<?xml version="1.0" encoding="UTF-8" standalone="no"?>
<!DOCTYPE svg PUBLIC "-//W3C//DTD SVG 1.1//EN"
 "http://www.w3.org/Graphics/SVG/1.1/DTD/svg11.dtd">
<!-- Generated by graphviz version 5.0.0 (20220707.1540)
 -->
<!-- Title: StorageDiagram Pages: 1 -->
<svg width="2623pt" height="494pt"
 viewBox="0.00 0.00 2622.79 493.80" xmlns="http://www.w3.org/2000/svg" xmlns:xlink="http://www.w3.org/1999/xlink">
<g id="graph0" class="graph" transform="scale(1 1) rotate(0) translate(4 489.8)">
<title>StorageDiagram</title>
<polygon fill="white" stroke="transparent" points="-4,4 -4,-489.8 2618.79,-489.8 2618.79,4 -4,4"/>
<!-- 3 -->
<g id="node1" class="node">
<title>3</title>
<polygon fill="#f2f2f2" stroke="black" points="0,-14.1 0,-485.3 1835.08,-485.3 1835.08,-14.1 0,-14.1"/>
<text text-anchor="middle" x="917.54" y="-468.7" font-family="Courier New" font-size="14.00">Convex3CrvLiquidatorVault &lt;&lt;Contract&gt;&gt;</text>
<polyline fill="none" stroke="black" points="0,-460.5 1835.08,-460.5 "/>
<text text-anchor="middle" x="24.8" y="-443.9" font-family="Courier New" font-size="14.00">slot</text>
<polyline fill="none" stroke="black" points="0,-435.7 49.61,-435.7 "/>
<text text-anchor="middle" x="24.8" y="-419.1" font-family="Courier New" font-size="14.00">0</text>
<polyline fill="none" stroke="black" points="0,-410.9 49.61,-410.9 "/>
<text text-anchor="middle" x="24.8" y="-394.3" font-family="Courier New" font-size="14.00">1</text>
<polyline fill="none" stroke="black" points="0,-386.1 49.61,-386.1 "/>
<text text-anchor="middle" x="24.8" y="-369.5" font-family="Courier New" font-size="14.00">2</text>
<polyline fill="none" stroke="black" points="0,-361.3 49.61,-361.3 "/>
<text text-anchor="middle" x="24.8" y="-344.7" font-family="Courier New" font-size="14.00">3</text>
<polyline fill="none" stroke="black" points="0,-336.5 49.61,-336.5 "/>
<text text-anchor="middle" x="24.8" y="-319.9" font-family="Courier New" font-size="14.00">4</text>
<polyline fill="none" stroke="black" points="0,-311.7 49.61,-311.7 "/>
<text text-anchor="middle" x="24.8" y="-295.1" font-family="Courier New" font-size="14.00">5</text>
<polyline fill="none" stroke="black" points="0,-286.9 49.61,-286.9 "/>
<text text-anchor="middle" x="24.8" y="-270.3" font-family="Courier New" font-size="14.00">6</text>
<polyline fill="none" stroke="black" points="0,-262.1 49.61,-262.1 "/>
<text text-anchor="middle" x="24.8" y="-245.5" font-family="Courier New" font-size="14.00">7</text>
<polyline fill="none" stroke="black" points="0,-237.3 49.61,-237.3 "/>
<text text-anchor="middle" x="24.8" y="-220.7" font-family="Courier New" font-size="14.00">8</text>
<polyline fill="none" stroke="black" points="0,-212.5 49.61,-212.5 "/>
<text text-anchor="middle" x="24.8" y="-195.9" font-family="Courier New" font-size="14.00">9</text>
<polyline fill="none" stroke="black" points="0,-187.7 49.61,-187.7 "/>
<text text-anchor="middle" x="24.8" y="-171.1" font-family="Courier New" font-size="14.00">10</text>
<polyline fill="none" stroke="black" points="0,-162.9 49.61,-162.9 "/>
<text text-anchor="middle" x="24.8" y="-146.3" font-family="Courier New" font-size="14.00">11</text>
<polyline fill="none" stroke="black" points="0,-138.1 49.61,-138.1 "/>
<text text-anchor="middle" x="24.8" y="-121.5" font-family="Courier New" font-size="14.00">12</text>
<polyline fill="none" stroke="black" points="0,-113.3 49.61,-113.3 "/>
<text text-anchor="middle" x="24.8" y="-96.7" font-family="Courier New" font-size="14.00">13</text>
<polyline fill="none" stroke="black" points="0,-88.5 49.61,-88.5 "/>
<text text-anchor="middle" x="24.8" y="-71.9" font-family="Courier New" font-size="14.00">14</text>
<polyline fill="none" stroke="black" points="0,-63.7 49.61,-63.7 "/>
<text text-anchor="middle" x="24.8" y="-47.1" font-family="Courier New" font-size="14.00">15</text>
<polyline fill="none" stroke="black" points="0,-38.9 49.61,-38.9 "/>
<text text-anchor="middle" x="24.8" y="-22.3" font-family="Courier New" font-size="14.00">16</text>
<polyline fill="none" stroke="black" points="49.61,-14.1 49.61,-460.5 "/>
<text text-anchor="middle" x="942.34" y="-443.9" font-family="Courier New" font-size="14.00">type: &lt;inherited contract&gt;.variable (bytes)</text>
<polyline fill="none" stroke="black" points="49.61,-435.7 1835.08,-435.7 "/>
<text text-anchor="middle" x="295.32" y="-419.1" font-family="Courier New" font-size="14.00">unallocated (11)</text>
<polyline fill="none" stroke="black" points="541.03,-410.9 541.03,-435.7 "/>
<text text-anchor="middle" x="900.16" y="-419.1" font-family="Courier New" font-size="14.00">address: VaultManagerRole.vaultManager (20)</text>
<polyline fill="none" stroke="black" points="1259.29,-410.9 1259.29,-435.7 "/>
<text text-anchor="middle" x="1547" y="-419.1" font-family="Courier New" font-size="14.00">bool: Pausable._paused (1)</text>
<polyline fill="none" stroke="black" points="49.61,-410.9 1835.08,-410.9 "/>
<text text-anchor="middle" x="942.14" y="-394.3" font-family="Courier New" font-size="14.00">uint256: AbstractSlippage.redeemSlippage (32)</text>
<polyline fill="none" stroke="black" points="49.61,-386.1 1835.08,-386.1 "/>
<text text-anchor="middle" x="942.34" y="-369.5" font-family="Courier New" font-size="14.00">uint256: AbstractSlippage.depositSlippage (32)</text>
<polyline fill="none" stroke="black" points="49.61,-361.3 1835.08,-361.3 "/>
<text text-anchor="middle" x="942.04" y="-344.7" font-family="Courier New" font-size="14.00">uint256: AbstractSlippage.withdrawSlippage (32)</text>
<polyline fill="none" stroke="black" points="49.61,-336.5 1835.08,-336.5 "/>
<text text-anchor="middle" x="942.23" y="-319.9" font-family="Courier New" font-size="14.00">uint256: AbstractSlippage.mintSlippage (32)</text>
<polyline fill="none" stroke="black" points="49.61,-311.7 1835.08,-311.7 "/>
<text text-anchor="middle" x="942.04" y="-295.1" font-family="Courier New" font-size="14.00">mapping(address=&gt;uint256): ERC20._balances (32)</text>
<polyline fill="none" stroke="black" points="49.61,-286.9 1835.08,-286.9 "/>
<text text-anchor="middle" x="942.05" y="-270.3" font-family="Courier New" font-size="14.00">mapping(address=&gt;mapping(address=&gt;uint256)): ERC20._allowances (32)</text>
<polyline fill="none" stroke="black" points="49.61,-262.1 1835.08,-262.1 "/>
<text text-anchor="middle" x="942.03" y="-245.5" font-family="Courier New" font-size="14.00">uint256: ERC20._totalSupply (32)</text>
<polyline fill="none" stroke="black" points="49.61,-237.3 1835.08,-237.3 "/>
<text text-anchor="middle" x="941.92" y="-220.7" font-family="Courier New" font-size="14.00">string: ERC20._name (32)</text>
<polyline fill="none" stroke="black" points="49.61,-212.5 1835.08,-212.5 "/>
<text text-anchor="middle" x="942.32" y="-195.9" font-family="Courier New" font-size="14.00">string: ERC20._symbol (32)</text>
<polyline fill="none" stroke="black" points="49.61,-187.7 1835.08,-187.7 "/>
<text text-anchor="middle" x="941.94" y="-171.1" font-family="Courier New" font-size="14.00">string: InitializableTokenDetails._name (32)</text>
<polyline fill="none" stroke="black" points="49.61,-162.9 1835.08,-162.9 "/>
<text text-anchor="middle" x="942.34" y="-146.3" font-family="Courier New" font-size="14.00">string: InitializableTokenDetails._symbol (32)</text>
<polyline fill="none" stroke="black" points="49.61,-138.1 1835.08,-138.1 "/>
<text text-anchor="middle" x="432.82" y="-121.5" font-family="Courier New" font-size="14.00">unallocated (31)</text>
<polyline fill="none" stroke="black" points="816.03,-113.3 816.03,-138.1 "/>
<text text-anchor="middle" x="1325.26" y="-121.5" font-family="Courier New" font-size="14.00">uint8: InitializableTokenDetails._decimals (1)</text>
<polyline fill="none" stroke="black" points="49.61,-113.3 1835.08,-113.3 "/>
<text text-anchor="middle" x="942.34" y="-96.7" font-family="Courier New" font-size="14.00">address[]: LiquidatorAbstractVault.rewardToken (32)</text>
<polyline fill="none" stroke="black" points="49.61,-88.5 1835.08,-88.5 "/>
<text text-anchor="middle" x="942.25" y="-71.9" font-family="Courier New" font-size="14.00">StreamData: LiquidatorStreamAbstractVault.shareStream (32)</text>
<polyline fill="none" stroke="black" points="49.61,-63.7 1835.08,-63.7 "/>
<text text-anchor="middle" x="120.62" y="-47.1" font-family="Courier New" font-size="14.00">unallocated (6)</text>
<polyline fill="none" stroke="black" points="191.63,-38.9 191.63,-63.7 "/>
<text text-anchor="middle" x="355.05" y="-47.1" font-family="Courier New" font-size="14.00">bool: Initializable._initializing (1)</text>
<polyline fill="none" stroke="black" points="518.48,-38.9 518.48,-63.7 "/>
<text text-anchor="middle" x="681.9" y="-47.1" font-family="Courier New" font-size="14.00">uint8: Initializable._initialized (1)</text>
<polyline fill="none" stroke="black" points="845.33,-38.9 845.33,-63.7 "/>
<text text-anchor="middle" x="1088.57" y="-47.1" font-family="Courier New" font-size="14.00">uint32: LiquidatorStreamFeeAbstractVault.donationFee (4)</text>
<polyline fill="none" stroke="black" points="1331.8,-38.9 1331.8,-63.7 "/>
<text text-anchor="middle" x="1583.44" y="-47.1" font-family="Courier New" font-size="14.00">address: LiquidatorStreamFeeAbstractVault.feeReceiver (20)</text>
<polyline fill="none" stroke="black" points="49.61,-38.9 1835.08,-38.9 "/>
<text text-anchor="middle" x="474.82" y="-22.3" font-family="Courier New" font-size="14.00">unallocated (12)</text>
<polyline fill="none" stroke="black" points="900.03,-14.1 900.03,-38.9 "/>
<text text-anchor="middle" x="1367.25" y="-22.3" font-family="Courier New" font-size="14.00">address: donateToken_ (20)</text>
</g>
<!-- 1 -->
<g id="node2" class="node">
<title>1</title>
<polygon fill="#f2f2f2" stroke="black" points="1957.69,-94.1 1957.69,-185.3 2528.18,-185.3 2528.18,-94.1 1957.69,-94.1"/>
<text text-anchor="middle" x="2242.94" y="-168.7" font-family="Courier New" font-size="14.00">address[]: rewardToken &lt;&lt;Array&gt;&gt;</text>
<text text-anchor="middle" x="2242.94" y="-151.9" font-family="Courier New" font-size="14.00">0x9326a2118c748e1a226d6b0c5088219246573a9ac3a2650f5667ad71d158bbdd</text>
<polyline fill="none" stroke="black" points="1957.69,-143.7 2528.18,-143.7 "/>
<text text-anchor="middle" x="2045.49" y="-127.1" font-family="Courier New" font-size="14.00">slot</text>
<polyline fill="none" stroke="black" points="1957.69,-118.9 2133.3,-118.9 "/>
<text text-anchor="middle" x="2045.49" y="-102.3" font-family="Courier New" font-size="14.00">0</text>
<polyline fill="none" stroke="black" points="2133.3,-94.1 2133.3,-143.7 "/>
<text text-anchor="middle" x="2330.42" y="-127.1" font-family="Courier New" font-size="14.00">type: variable (bytes)</text>
<polyline fill="none" stroke="black" points="2133.3,-118.9 2527.54,-118.9 "/>
<text text-anchor="middle" x="2240.01" y="-102.3" font-family="Courier New" font-size="14.00">unallocated (12)</text>
<polyline fill="none" stroke="black" points="2346.72,-94.1 2346.72,-118.9 "/>
<text text-anchor="middle" x="2437.13" y="-102.3" font-family="Courier New" font-size="14.00">address (20)</text>
</g>
<!-- 3&#45;&gt;1 -->
<g id="edge1" class="edge">
<title>3:16&#45;&gt;1</title>
<path fill="none" stroke="black" d="M1835.08,-100.7C1871.48,-100.7 1909.62,-102.27 1947.35,-104.77"/>
<polygon fill="black" stroke="black" points="1947.24,-108.27 1957.46,-105.46 1947.72,-101.29 1947.24,-108.27"/>
</g>
<!-- 2 -->
<g id="node3" class="node">
<title>2</title>
<polygon fill="#f2f2f2" stroke="black" points="1871.08,-0.5 1871.08,-74.9 2614.79,-74.9 2614.79,-0.5 1871.08,-0.5"/>
<text text-anchor="middle" x="2242.94" y="-58.3" font-family="Courier New" font-size="14.00">StreamData &lt;&lt;Struct&gt;&gt;</text>
<polyline fill="none" stroke="black" points="1871.08,-50.1 2614.79,-50.1 "/>
<text text-anchor="middle" x="1895.89" y="-33.5" font-family="Courier New" font-size="14.00">slot</text>
<polyline fill="none" stroke="black" points="1871.08,-25.3 1920.69,-25.3 "/>
<text text-anchor="middle" x="1895.89" y="-8.7" font-family="Courier New" font-size="14.00">14</text>
<polyline fill="none" stroke="black" points="1920.69,-0.5 1920.69,-50.1 "/>
<text text-anchor="middle" x="2267.74" y="-33.5" font-family="Courier New" font-size="14.00">type: variable (bytes)</text>
<polyline fill="none" stroke="black" points="1920.69,-25.3 2614.79,-25.3 "/>
<text text-anchor="middle" x="1991.7" y="-8.7" font-family="Courier New" font-size="14.00">unallocated (8)</text>
<polyline fill="none" stroke="black" points="2062.71,-0.5 2062.71,-25.3 "/>
<text text-anchor="middle" x="2192.53" y="-8.7" font-family="Courier New" font-size="14.00">uint128: sharesPerSecond (16)</text>
<polyline fill="none" stroke="black" points="2322.35,-0.5 2322.35,-25.3 "/>
<text text-anchor="middle" x="2393.36" y="-8.7" font-family="Courier New" font-size="14.00">uint32: end (4)</text>
<polyline fill="none" stroke="black" points="2464.37,-0.5 2464.37,-25.3 "/>
<text text-anchor="middle" x="2539.58" y="-8.7" font-family="Courier New" font-size="14.00">uint32: last (4)</text>
</g>
<!-- 3&#45;&gt;2 -->
<g id="edge2" class="edge">
<title>3:20&#45;&gt;2</title>
<path fill="none" stroke="black" d="M1835.08,-75.7C1847.4,-75.7 1859.91,-75.53 1872.55,-75.2"/>
<polygon fill="black" stroke="black" points="1872.81,-78.69 1882.7,-74.91 1872.6,-71.7 1872.81,-78.69"/>
</g>
</g>
</svg>
