<?xml version="1.0" encoding="UTF-8" standalone="no"?>
<!DOCTYPE svg PUBLIC "-//W3C//DTD SVG 1.1//EN"
 "http://www.w3.org/Graphics/SVG/1.1/DTD/svg11.dtd">
<!-- Generated by graphviz version 5.0.0 (20220707.1540)
 -->
<!-- Title: UmlClassDiagram Pages: 1 -->
<svg width="2021pt" height="892pt"
 viewBox="0.00 0.00 2021.40 891.80" xmlns="http://www.w3.org/2000/svg" xmlns:xlink="http://www.w3.org/1999/xlink">
<g id="graph0" class="graph" transform="scale(1 1) rotate(0) translate(4 887.8)">
<title>UmlClassDiagram</title>
<polygon fill="white" stroke="transparent" points="-4,4 -4,-887.8 2017.4,-887.8 2017.4,4 -4,4"/>
<!-- 45 -->
<g id="node1" class="node">
<title>45</title>
<polygon fill="#f2f2f2" stroke="black" points="1543.85,-454.7 1543.85,-513.1 1958.34,-513.1 1958.34,-454.7 1543.85,-454.7"/>
<text text-anchor="middle" x="1751.09" y="-496.5" font-family="Times,serif" font-size="14.00">&lt;&lt;Library&gt;&gt;</text>
<text text-anchor="middle" x="1751.09" y="-479.7" font-family="Times,serif" font-size="14.00">CurveFraxBpMetapoolCalculatorLibrary</text>
<text text-anchor="middle" x="1751.09" y="-462.9" font-family="Times,serif" font-size="14.00">..contractsperipheralCurveCurveFraxBpMetapoolCalculatorLibrary.sol</text>
</g>
<!-- 12 -->
<g id="node2" class="node">
<title>12</title>
<polygon fill="#f2f2f2" stroke="black" points="1338.04,-704.3 1338.04,-762.7 1572.15,-762.7 1572.15,-704.3 1338.04,-704.3"/>
<text text-anchor="middle" x="1455.09" y="-746.1" font-family="Times,serif" font-size="14.00">&lt;&lt;Abstract&gt;&gt;</text>
<text text-anchor="middle" x="1455.09" y="-729.3" font-family="Times,serif" font-size="14.00">ImmutableModule</text>
<text text-anchor="middle" x="1455.09" y="-712.5" font-family="Times,serif" font-size="14.00">..contractssharedImmutableModule.sol</text>
</g>
<!-- 14 -->
<g id="node3" class="node">
<title>14</title>
<polygon fill="#f2f2f2" stroke="black" points="1353.98,-824.9 1353.98,-866.5 1556.21,-866.5 1556.21,-824.9 1353.98,-824.9"/>
<text text-anchor="middle" x="1455.09" y="-849.9" font-family="Times,serif" font-size="14.00">ModuleKeys</text>
<text text-anchor="middle" x="1455.09" y="-833.1" font-family="Times,serif" font-size="14.00">..contractssharedModuleKeys.sol</text>
</g>
<!-- 12&#45;&gt;14 -->
<g id="edge1" class="edge">
<title>12&#45;&gt;14</title>
<path fill="none" stroke="black" d="M1455.09,-762.88C1455.09,-772.57 1455.09,-783.72 1455.09,-794.61"/>
<polygon fill="none" stroke="black" points="1444.59,-794.76 1455.09,-824.76 1465.59,-794.76 1444.59,-794.76"/>
</g>
<!-- 16 -->
<g id="node4" class="node">
<title>16</title>
<polygon fill="#f2f2f2" stroke="black" points="1113.49,-592.1 1113.49,-650.5 1350.7,-650.5 1350.7,-592.1 1113.49,-592.1"/>
<text text-anchor="middle" x="1232.09" y="-633.9" font-family="Times,serif" font-size="14.00">&lt;&lt;Abstract&gt;&gt;</text>
<text text-anchor="middle" x="1232.09" y="-617.1" font-family="Times,serif" font-size="14.00">VaultManagerRole</text>
<text text-anchor="middle" x="1232.09" y="-600.3" font-family="Times,serif" font-size="14.00">..contractssharedVaultManagerRole.sol</text>
</g>
<!-- 16&#45;&gt;12 -->
<g id="edge3" class="edge">
<title>16&#45;&gt;12</title>
<path fill="none" stroke="black" d="M1289.23,-650.54C1313.94,-662.75 1343.37,-677.29 1370.53,-690.71"/>
<polygon fill="none" stroke="black" points="1366.17,-700.27 1397.72,-704.15 1375.47,-681.44 1366.17,-700.27"/>
</g>
<!-- 156 -->
<g id="node15" class="node">
<title>156</title>
<polygon fill="#f2f2f2" stroke="black" points="977.78,-695.9 977.78,-771.1 1320.41,-771.1 1320.41,-695.9 977.78,-695.9"/>
<text text-anchor="middle" x="1149.09" y="-754.5" font-family="Times,serif" font-size="14.00">&lt;&lt;Abstract&gt;&gt;</text>
<text text-anchor="middle" x="1149.09" y="-737.7" font-family="Times,serif" font-size="14.00">Pausable</text>
<text text-anchor="middle" x="1149.09" y="-720.9" font-family="Times,serif" font-size="14.00">..</text>
<text text-anchor="middle" x="1149.09" y="-704.1" font-family="Times,serif" font-size="14.00">ode_modules@openzeppelincontractssecurityPausable.sol</text>
</g>
<!-- 16&#45;&gt;156 -->
<g id="edge2" class="edge">
<title>16&#45;&gt;156</title>
<path fill="none" stroke="black" d="M1210.72,-650.68C1205.77,-657.24 1200.33,-664.48 1194.78,-671.84"/>
<polygon fill="none" stroke="black" points="1186.33,-665.61 1176.67,-695.89 1203.1,-678.24 1186.33,-665.61"/>
</g>
<!-- 18 -->
<g id="node5" class="node">
<title>18</title>
<polygon fill="#f2f2f2" stroke="black" points="1368.82,-592.1 1368.82,-650.5 1601.36,-650.5 1601.36,-592.1 1368.82,-592.1"/>
<text text-anchor="middle" x="1485.09" y="-633.9" font-family="Times,serif" font-size="14.00">&lt;&lt;Abstract&gt;&gt;</text>
<text text-anchor="middle" x="1485.09" y="-617.1" font-family="Times,serif" font-size="14.00">InitializableToken</text>
<text text-anchor="middle" x="1485.09" y="-600.3" font-family="Times,serif" font-size="14.00">..contractstokensInitializableToken.sol</text>
</g>
<!-- 19 -->
<g id="node6" class="node">
<title>19</title>
<polygon fill="#f2f2f2" stroke="black" points="1589.99,-704.3 1589.99,-762.7 1862.19,-762.7 1862.19,-704.3 1589.99,-704.3"/>
<text text-anchor="middle" x="1726.09" y="-746.1" font-family="Times,serif" font-size="14.00">&lt;&lt;Abstract&gt;&gt;</text>
<text text-anchor="middle" x="1726.09" y="-729.3" font-family="Times,serif" font-size="14.00">InitializableTokenDetails</text>
<text text-anchor="middle" x="1726.09" y="-712.5" font-family="Times,serif" font-size="14.00">..contractstokensInitializableTokenDetails.sol</text>
</g>
<!-- 18&#45;&gt;19 -->
<g id="edge5" class="edge">
<title>18&#45;&gt;19</title>
<path fill="none" stroke="black" d="M1546.84,-650.54C1574.11,-663 1606.69,-677.9 1636.55,-691.56"/>
<polygon fill="none" stroke="black" points="1632.44,-701.22 1664.08,-704.15 1641.17,-682.12 1632.44,-701.22"/>
</g>
<!-- 247 -->
<g id="node16" class="node">
<title>247</title>
<polygon fill="#f2f2f2" stroke="black" points="614.59,-704.3 614.59,-762.7 959.6,-762.7 959.6,-704.3 614.59,-704.3"/>
<text text-anchor="middle" x="787.09" y="-746.1" font-family="Times,serif" font-size="14.00">ERC20</text>
<text text-anchor="middle" x="787.09" y="-729.3" font-family="Times,serif" font-size="14.00">..</text>
<text text-anchor="middle" x="787.09" y="-712.5" font-family="Times,serif" font-size="14.00">ode_modules@openzeppelincontractstokenRC20RC20.sol</text>
</g>
<!-- 18&#45;&gt;247 -->
<g id="edge4" class="edge">
<title>18&#45;&gt;247</title>
<path fill="none" stroke="black" d="M1397.87,-650.55C1385.29,-653.94 1372.43,-657.03 1360.09,-659.4 1188.73,-692.39 1141.74,-669.93 969.09,-695.4 961.83,-696.47 954.42,-697.65 946.94,-698.9"/>
<polygon fill="none" stroke="black" points="944.72,-688.63 917.03,-704.22 948.4,-709.3 944.72,-688.63"/>
</g>
<!-- 26 -->
<g id="node7" class="node">
<title>26</title>
<polygon fill="#f2f2f2" stroke="black" points="1132.15,-454.7 1132.15,-513.1 1332.04,-513.1 1332.04,-454.7 1132.15,-454.7"/>
<text text-anchor="middle" x="1232.09" y="-496.5" font-family="Times,serif" font-size="14.00">&lt;&lt;Abstract&gt;&gt;</text>
<text text-anchor="middle" x="1232.09" y="-479.7" font-family="Times,serif" font-size="14.00">AbstractVault</text>
<text text-anchor="middle" x="1232.09" y="-462.9" font-family="Times,serif" font-size="14.00">..contractsvaultAbstractVault.sol</text>
</g>
<!-- 26&#45;&gt;16 -->
<g id="edge7" class="edge">
<title>26&#45;&gt;16</title>
<path fill="none" stroke="black" d="M1232.09,-513.28C1232.09,-527.37 1232.09,-544.92 1232.09,-561.71"/>
<polygon fill="none" stroke="black" points="1221.59,-561.95 1232.09,-591.95 1242.59,-561.95 1221.59,-561.95"/>
</g>
<!-- 26&#45;&gt;18 -->
<g id="edge6" class="edge">
<title>26&#45;&gt;18</title>
<path fill="none" stroke="black" d="M1280.37,-513.17C1299.2,-524.02 1321.04,-536.39 1341.09,-547.2 1360.3,-557.56 1381.14,-568.37 1400.84,-578.41"/>
<polygon fill="none" stroke="black" points="1396.13,-587.8 1427.64,-591.95 1405.6,-569.05 1396.13,-587.8"/>
</g>
<!-- 368 -->
<g id="node17" class="node">
<title>368</title>
<polygon fill="#f2f2f2" stroke="black" points="671.82,-583.7 671.82,-658.9 1074.37,-658.9 1074.37,-583.7 671.82,-583.7"/>
<text text-anchor="middle" x="873.09" y="-642.3" font-family="Times,serif" font-size="14.00">&lt;&lt;Library&gt;&gt;</text>
<text text-anchor="middle" x="873.09" y="-625.5" font-family="Times,serif" font-size="14.00">SafeERC20</text>
<text text-anchor="middle" x="873.09" y="-608.7" font-family="Times,serif" font-size="14.00">..</text>
<text text-anchor="middle" x="873.09" y="-591.9" font-family="Times,serif" font-size="14.00">ode_modules@openzeppelincontractstokenRC20utilsSafeERC20.sol</text>
</g>
<!-- 26&#45;&gt;368 -->
<g id="edge8" class="edge">
<title>26&#45;&gt;368</title>
<path fill="none" stroke="black" stroke-dasharray="5,2" d="M1185.77,-513.1C1165.48,-524.69 1141.1,-537.61 1118.09,-547.2 1088.3,-559.62 1055.66,-570.89 1024.2,-580.65"/>
<polygon fill="black" stroke="black" points="1023.01,-577.35 1014.47,-583.63 1025.06,-584.05 1023.01,-577.35"/>
</g>
<!-- 67 -->
<g id="node8" class="node">
<title>67</title>
<polygon fill="#f2f2f2" stroke="black" points="696.27,-421.1 696.27,-546.7 1075.92,-546.7 1075.92,-421.1 696.27,-421.1"/>
<text text-anchor="middle" x="886.09" y="-530.1" font-family="Times,serif" font-size="14.00">&lt;&lt;Abstract&gt;&gt;</text>
<text text-anchor="middle" x="886.09" y="-513.3" font-family="Times,serif" font-size="14.00">LiquidatorAbstractVault</text>
<text text-anchor="start" x="704.27" y="-496.5" font-family="Times,serif" font-size="14.00">..contractsvault</text>
<text text-anchor="middle" x="886.09" y="-479.7" font-family="Times,serif" font-size="14.00">iquidator{&lt;&lt;Abstract&gt;&gt;</text>
<text text-anchor="middle" x="886.09" y="-462.9" font-family="Times,serif" font-size="14.00">LiquidatorAbstractVault</text>
<text text-anchor="start" x="704.27" y="-446.1" font-family="Times,serif" font-size="14.00">..contractsvault</text>
<text text-anchor="middle" x="886.09" y="-429.3" font-family="Times,serif" font-size="14.00">iquidatorLiquidatorAbstractVault.sol}iquidatorAbstractVault.sol</text>
</g>
<!-- 67&#45;&gt;16 -->
<g id="edge9" class="edge">
<title>67&#45;&gt;16</title>
<path fill="none" stroke="black" d="M1044.16,-546.76C1073.85,-558.37 1104.12,-570.22 1131.46,-580.92"/>
<polygon fill="none" stroke="black" points="1128.04,-590.86 1159.8,-592.01 1135.69,-571.3 1128.04,-590.86"/>
</g>
<!-- 67&#45;&gt;368 -->
<g id="edge10" class="edge">
<title>67&#45;&gt;368</title>
<path fill="none" stroke="black" stroke-dasharray="5,2" d="M880.13,-547.05C879.27,-555.95 878.41,-564.97 877.59,-573.51"/>
<polygon fill="black" stroke="black" points="874.09,-573.34 876.61,-583.63 881.05,-574.01 874.09,-573.34"/>
</g>
<!-- 70 -->
<g id="node9" class="node">
<title>70</title>
<polygon fill="#f2f2f2" stroke="black" points="611.62,-258.5 611.62,-384.1 1070.57,-384.1 1070.57,-258.5 611.62,-258.5"/>
<text text-anchor="middle" x="841.09" y="-367.5" font-family="Times,serif" font-size="14.00">&lt;&lt;Abstract&gt;&gt;</text>
<text text-anchor="middle" x="841.09" y="-350.7" font-family="Times,serif" font-size="14.00">LiquidatorStreamAbstractVault</text>
<text text-anchor="start" x="619.62" y="-333.9" font-family="Times,serif" font-size="14.00">..contractsvault</text>
<text text-anchor="middle" x="841.09" y="-317.1" font-family="Times,serif" font-size="14.00">iquidator{&lt;&lt;Abstract&gt;&gt;</text>
<text text-anchor="middle" x="841.09" y="-300.3" font-family="Times,serif" font-size="14.00">LiquidatorStreamAbstractVault</text>
<text text-anchor="start" x="619.62" y="-283.5" font-family="Times,serif" font-size="14.00">..contractsvault</text>
<text text-anchor="middle" x="841.09" y="-266.7" font-family="Times,serif" font-size="14.00">iquidatorLiquidatorStreamAbstractVault.sol}iquidatorStreamAbstractVault.sol</text>
</g>
<!-- 70&#45;&gt;26 -->
<g id="edge11" class="edge">
<title>70&#45;&gt;26</title>
<path fill="none" stroke="black" d="M995.83,-384.15C1025.5,-396.15 1056.29,-408.69 1085.09,-420.6 1102.29,-427.71 1120.57,-435.37 1138.18,-442.81"/>
<polygon fill="none" stroke="black" points="1134.25,-452.54 1165.97,-454.58 1142.45,-433.21 1134.25,-452.54"/>
</g>
<!-- 70&#45;&gt;67 -->
<g id="edge12" class="edge">
<title>70&#45;&gt;67</title>
<path fill="none" stroke="black" d="M858.49,-384.39C859.2,-386.92 859.92,-389.48 860.64,-392.05"/>
<polygon fill="none" stroke="black" points="850.54,-394.92 868.74,-420.97 870.76,-389.25 850.54,-394.92"/>
</g>
<!-- 70&#45;&gt;247 -->
<g id="edge15" class="edge">
<title>70&#45;&gt;247</title>
<path fill="none" stroke="black" stroke-dasharray="5,2" d="M692.9,-384.13C680.37,-394.58 669.36,-406.67 661.09,-420.6 606.94,-511.88 609.62,-567.72 663.09,-659.4 672.55,-675.61 687.12,-688.6 703.01,-698.87"/>
<polygon fill="black" stroke="black" points="701.57,-702.09 711.94,-704.29 705.21,-696.11 701.57,-702.09"/>
</g>
<!-- 70&#45;&gt;368 -->
<g id="edge13" class="edge">
<title>70&#45;&gt;368</title>
<path fill="none" stroke="black" stroke-dasharray="5,2" d="M716.87,-384.12C705.02,-394.71 694.64,-406.83 687.09,-420.6 660.05,-469.94 655.41,-500.7 687.09,-547.2 695.43,-559.43 706.15,-569.61 718.23,-578.09"/>
<polygon fill="black" stroke="black" points="716.51,-581.15 726.8,-583.7 720.34,-575.3 716.51,-581.15"/>
</g>
<!-- 274 -->
<g id="node20" class="node">
<title>274</title>
<polygon fill="#f2f2f2" stroke="black" points="251.88,-446.3 251.88,-521.5 602.31,-521.5 602.31,-446.3 251.88,-446.3"/>
<text text-anchor="middle" x="427.09" y="-504.9" font-family="Times,serif" font-size="14.00">&lt;&lt;Library&gt;&gt;</text>
<text text-anchor="middle" x="427.09" y="-488.1" font-family="Times,serif" font-size="14.00">SafeCast</text>
<text text-anchor="middle" x="427.09" y="-471.3" font-family="Times,serif" font-size="14.00">..</text>
<text text-anchor="middle" x="427.09" y="-454.5" font-family="Times,serif" font-size="14.00">ode_modules@openzeppelincontractsutilsmathSafeCast.sol</text>
</g>
<!-- 70&#45;&gt;274 -->
<g id="edge14" class="edge">
<title>70&#45;&gt;274</title>
<path fill="none" stroke="black" stroke-dasharray="5,2" d="M681.62,-384.16C631.12,-403.75 576.62,-424.9 531.06,-442.57"/>
<polygon fill="black" stroke="black" points="529.54,-439.41 521.48,-446.29 532.07,-445.93 529.54,-439.41"/>
</g>
<!-- 72 -->
<g id="node10" class="node">
<title>72</title>
<polygon fill="#f2f2f2" stroke="black" points="561.4,-95.9 561.4,-221.5 1060.78,-221.5 1060.78,-95.9 561.4,-95.9"/>
<text text-anchor="middle" x="811.09" y="-204.9" font-family="Times,serif" font-size="14.00">&lt;&lt;Abstract&gt;&gt;</text>
<text text-anchor="middle" x="811.09" y="-188.1" font-family="Times,serif" font-size="14.00">LiquidatorStreamFeeAbstractVault</text>
<text text-anchor="start" x="569.4" y="-171.3" font-family="Times,serif" font-size="14.00">..contractsvault</text>
<text text-anchor="middle" x="811.09" y="-154.5" font-family="Times,serif" font-size="14.00">iquidator{&lt;&lt;Abstract&gt;&gt;</text>
<text text-anchor="middle" x="811.09" y="-137.7" font-family="Times,serif" font-size="14.00">LiquidatorStreamFeeAbstractVault</text>
<text text-anchor="start" x="569.4" y="-120.9" font-family="Times,serif" font-size="14.00">..contractsvault</text>
<text text-anchor="middle" x="811.09" y="-104.1" font-family="Times,serif" font-size="14.00">iquidatorLiquidatorStreamFeeAbstractVault.sol}iquidatorStreamFeeAbstractVault.sol</text>
</g>
<!-- 72&#45;&gt;70 -->
<g id="edge16" class="edge">
<title>72&#45;&gt;70</title>
<path fill="none" stroke="black" d="M822.69,-221.79C823.13,-224.14 823.57,-226.5 824.02,-228.88"/>
<polygon fill="none" stroke="black" points="813.7,-230.81 829.53,-258.37 834.34,-226.95 813.7,-230.81"/>
</g>
<!-- 72&#45;&gt;274 -->
<g id="edge17" class="edge">
<title>72&#45;&gt;274</title>
<path fill="none" stroke="black" stroke-dasharray="5,2" d="M658.43,-221.58C638.94,-232.38 619.94,-244.54 603.09,-258 538.96,-309.24 484.17,-388.27 453.46,-437.71"/>
<polygon fill="black" stroke="black" points="450.45,-435.93 448.19,-446.28 456.41,-439.6 450.45,-435.93"/>
</g>
<!-- 74 -->
<g id="node11" class="node">
<title>74</title>
<polygon fill="#f2f2f2" stroke="black" points="1350.18,-446.3 1350.18,-521.5 1526,-521.5 1526,-446.3 1350.18,-446.3"/>
<text text-anchor="middle" x="1438.09" y="-504.9" font-family="Times,serif" font-size="14.00">&lt;&lt;Abstract&gt;&gt;</text>
<text text-anchor="middle" x="1438.09" y="-488.1" font-family="Times,serif" font-size="14.00">AbstractSlippage</text>
<text text-anchor="start" x="1358.18" y="-471.3" font-family="Times,serif" font-size="14.00">..contractsvault</text>
<text text-anchor="middle" x="1438.09" y="-454.5" font-family="Times,serif" font-size="14.00">iquidityAbstractSlippage.sol</text>
</g>
<!-- 74&#45;&gt;16 -->
<g id="edge18" class="edge">
<title>74&#45;&gt;16</title>
<path fill="none" stroke="black" d="M1382.35,-521.54C1357.06,-538.16 1326.91,-557.98 1300.29,-575.48"/>
<polygon fill="none" stroke="black" points="1294.44,-566.75 1275.14,-592.01 1305.98,-584.3 1294.44,-566.75"/>
</g>
<!-- 103 -->
<g id="node12" class="node">
<title>103</title>
<polygon fill="#f2f2f2" stroke="black" points="1126.14,-283.7 1126.14,-358.9 1410.05,-358.9 1410.05,-283.7 1126.14,-283.7"/>
<text text-anchor="middle" x="1268.09" y="-342.3" font-family="Times,serif" font-size="14.00">&lt;&lt;Abstract&gt;&gt;</text>
<text text-anchor="middle" x="1268.09" y="-325.5" font-family="Times,serif" font-size="14.00">ConvexFraxBpAbstractVault</text>
<text text-anchor="start" x="1134.14" y="-308.7" font-family="Times,serif" font-size="14.00">..contractsvault</text>
<text text-anchor="middle" x="1268.09" y="-291.9" font-family="Times,serif" font-size="14.00">iquidityconvexConvexFraxBpAbstractVault.sol</text>
</g>
<!-- 103&#45;&gt;45 -->
<g id="edge22" class="edge">
<title>103&#45;&gt;45</title>
<path fill="none" stroke="black" stroke-dasharray="5,2" d="M1378.3,-358.94C1462.31,-386.88 1576.77,-424.94 1656.62,-451.49"/>
<polygon fill="black" stroke="black" points="1655.59,-454.83 1666.18,-454.67 1657.8,-448.19 1655.59,-454.83"/>
</g>
<!-- 103&#45;&gt;26 -->
<g id="edge20" class="edge">
<title>103&#45;&gt;26</title>
<path fill="none" stroke="black" d="M1259.83,-359.14C1255.47,-378.62 1250.01,-402.97 1245.09,-424.92"/>
<polygon fill="none" stroke="black" points="1234.78,-422.91 1238.46,-454.48 1255.27,-427.51 1234.78,-422.91"/>
</g>
<!-- 103&#45;&gt;74 -->
<g id="edge19" class="edge">
<title>103&#45;&gt;74</title>
<path fill="none" stroke="black" d="M1307.09,-359.14C1327.83,-378.73 1353.78,-403.25 1377.11,-425.29"/>
<polygon fill="none" stroke="black" points="1370.26,-433.26 1399.27,-446.23 1384.68,-417.99 1370.26,-433.26"/>
</g>
<!-- 103&#45;&gt;368 -->
<g id="edge21" class="edge">
<title>103&#45;&gt;368</title>
<path fill="none" stroke="black" stroke-dasharray="5,2" d="M1193.74,-359.07C1168.2,-374.91 1141.45,-395.59 1123.09,-420.6 1088.33,-467.95 1125.78,-504.83 1085.09,-547.2 1073.03,-559.76 1058.72,-570.16 1043.3,-578.77"/>
<polygon fill="black" stroke="black" points="1041.3,-575.87 1034.1,-583.64 1044.58,-582.06 1041.3,-575.87"/>
</g>
<!-- 106 -->
<g id="node13" class="node">
<title>106</title>
<polygon fill="#f2f2f2" stroke="black" points="960.31,-0.5 960.31,-58.9 1255.88,-58.9 1255.88,-0.5 960.31,-0.5"/>
<text text-anchor="middle" x="1108.09" y="-42.3" font-family="Times,serif" font-size="14.00">ConvexFraxBpLiquidatorVault</text>
<text text-anchor="start" x="968.31" y="-25.5" font-family="Times,serif" font-size="14.00">..contractsvault</text>
<text text-anchor="middle" x="1108.09" y="-8.7" font-family="Times,serif" font-size="14.00">iquidityconvexConvexFraxBpLiquidatorVault.sol</text>
</g>
<!-- 106&#45;&gt;45 -->
<g id="edge32" class="edge">
<title>106&#45;&gt;45</title>
<path fill="none" stroke="black" stroke-dasharray="5,2" d="M1247.65,-58.97C1277.91,-68.16 1308.95,-80.08 1336.09,-95.4 1505.68,-191.11 1660.66,-369.86 1722.59,-446.49"/>
<polygon fill="black" stroke="black" points="1720,-448.85 1728.99,-454.45 1725.45,-444.47 1720,-448.85"/>
</g>
<!-- 106&#45;&gt;16 -->
<g id="edge27" class="edge">
<title>106&#45;&gt;16</title>
<path fill="none" stroke="black" stroke-dasharray="5,2" d="M1256,-45.97C1461.37,-76.28 1823.81,-165.08 1967.09,-420.6 1994.61,-469.68 2005.68,-506.25 1967.09,-547.2 1920.75,-596.37 1426.67,-571.72 1360.09,-583.2 1350.16,-584.91 1339.9,-587.12 1329.71,-589.6"/>
<polygon fill="black" stroke="black" points="1328.82,-586.21 1319.97,-592.05 1330.53,-593 1328.82,-586.21"/>
</g>
<!-- 106&#45;&gt;18 -->
<g id="edge30" class="edge">
<title>106&#45;&gt;18</title>
<path fill="none" stroke="black" stroke-dasharray="5,2" d="M1255.98,-41.46C1387.99,-52.39 1570.72,-71.14 1639.09,-95.4 1840.44,-166.83 1937.27,-214.38 1993.09,-420.6 2007.8,-474.91 2029.94,-504.67 1993.09,-547.2 1944.72,-603.03 1745.91,-617.2 1611.82,-620.26"/>
<polygon fill="black" stroke="black" points="1611.4,-616.77 1601.48,-620.48 1611.55,-623.77 1611.4,-616.77"/>
</g>
<!-- 106&#45;&gt;67 -->
<g id="edge29" class="edge">
<title>106&#45;&gt;67</title>
<path fill="none" stroke="black" stroke-dasharray="5,2" d="M1109.41,-58.94C1112.31,-133.38 1116.33,-332.79 1079.09,-384.6 1071.06,-395.78 1061.37,-405.77 1050.68,-414.69"/>
<polygon fill="black" stroke="black" points="1048.38,-412.04 1042.72,-420.99 1052.73,-417.53 1048.38,-412.04"/>
</g>
<!-- 106&#45;&gt;70 -->
<g id="edge31" class="edge">
<title>106&#45;&gt;70</title>
<path fill="none" stroke="black" stroke-dasharray="5,2" d="M1110.19,-59.08C1111.64,-99.72 1108.34,-174.77 1070.09,-222 1060.86,-233.41 1050.05,-243.51 1038.24,-252.47"/>
<polygon fill="black" stroke="black" points="1035.97,-249.79 1029.92,-258.49 1040.08,-255.46 1035.97,-249.79"/>
</g>
<!-- 106&#45;&gt;72 -->
<g id="edge24" class="edge">
<title>106&#45;&gt;72</title>
<path fill="none" stroke="black" d="M1041.81,-59.04C1024.14,-66.6 1004.2,-75.13 983.63,-83.92"/>
<polygon fill="none" stroke="black" points="979.3,-74.35 955.85,-95.8 987.56,-93.66 979.3,-74.35"/>
</g>
<!-- 106&#45;&gt;74 -->
<g id="edge28" class="edge">
<title>106&#45;&gt;74</title>
<path fill="none" stroke="black" stroke-dasharray="5,2" d="M1175.55,-59.03C1249.4,-93.98 1364.54,-160.93 1419.09,-258 1450.03,-313.06 1449.55,-387.93 1444.94,-435.85"/>
<polygon fill="black" stroke="black" points="1441.44,-435.63 1443.87,-445.94 1448.4,-436.37 1441.44,-435.63"/>
</g>
<!-- 106&#45;&gt;103 -->
<g id="edge23" class="edge">
<title>106&#45;&gt;103</title>
<path fill="none" stroke="black" d="M1123.73,-59C1148.9,-104.56 1199.03,-195.3 1233.07,-256.91"/>
<polygon fill="none" stroke="black" points="1223.95,-262.12 1247.65,-283.3 1242.34,-251.97 1223.95,-262.12"/>
</g>
<!-- 240 -->
<g id="node14" class="node">
<title>240</title>
<polygon fill="#f2f2f2" stroke="black" points="0,-121.1 0,-196.3 372.19,-196.3 372.19,-121.1 0,-121.1"/>
<text text-anchor="middle" x="186.09" y="-179.7" font-family="Times,serif" font-size="14.00">&lt;&lt;Abstract&gt;&gt;</text>
<text text-anchor="middle" x="186.09" y="-162.9" font-family="Times,serif" font-size="14.00">Initializable</text>
<text text-anchor="middle" x="186.09" y="-146.1" font-family="Times,serif" font-size="14.00">..</text>
<text text-anchor="middle" x="186.09" y="-129.3" font-family="Times,serif" font-size="14.00">ode_modules@openzeppelincontractsproxyutilsInitializable.sol</text>
</g>
<!-- 106&#45;&gt;240 -->
<g id="edge25" class="edge">
<title>106&#45;&gt;240</title>
<path fill="none" stroke="black" d="M960.21,-34.77C813.36,-40.96 582.38,-56.49 386.09,-95.4 363.83,-99.81 340.54,-105.78 318.04,-112.27"/>
<polygon fill="none" stroke="black" points="314.75,-102.3 289.07,-121.03 320.83,-122.4 314.75,-102.3"/>
</g>
<!-- 106&#45;&gt;368 -->
<g id="edge26" class="edge">
<title>106&#45;&gt;368</title>
<path fill="none" stroke="black" stroke-dasharray="5,2" d="M960.2,-36.58C820.19,-44.17 621.42,-60.76 552.09,-95.4 462.92,-139.96 280.06,-328.02 243.09,-420.6 222.23,-472.85 205.67,-505.18 243.09,-547.2 271.03,-578.57 489.48,-598.51 661.41,-609.51"/>
<polygon fill="black" stroke="black" points="661.42,-613.01 671.63,-610.15 661.87,-606.03 661.42,-613.01"/>
</g>
<!-- 159 -->
<g id="node18" class="node">
<title>159</title>
<polygon fill="#f2f2f2" stroke="black" points="110.82,-695.9 110.82,-771.1 429.37,-771.1 429.37,-695.9 110.82,-695.9"/>
<text text-anchor="middle" x="270.09" y="-754.5" font-family="Times,serif" font-size="14.00">&lt;&lt;Library&gt;&gt;</text>
<text text-anchor="middle" x="270.09" y="-737.7" font-family="Times,serif" font-size="14.00">Address</text>
<text text-anchor="middle" x="270.09" y="-720.9" font-family="Times,serif" font-size="14.00">..</text>
<text text-anchor="middle" x="270.09" y="-704.1" font-family="Times,serif" font-size="14.00">ode_modules@openzeppelincontractsutilsAddress.sol</text>
</g>
<!-- 240&#45;&gt;159 -->
<g id="edge33" class="edge">
<title>240&#45;&gt;159</title>
<path fill="none" stroke="black" stroke-dasharray="5,2" d="M185.32,-196.41C184.53,-265.66 185.97,-420.05 210.09,-547.2 219.29,-595.69 237.51,-649.12 251.46,-686.1"/>
<polygon fill="black" stroke="black" points="248.26,-687.51 255.1,-695.6 254.8,-685.01 248.26,-687.51"/>
</g>
<!-- 165 -->
<g id="node19" class="node">
<title>165</title>
<polygon fill="#f2f2f2" stroke="black" points="809.59,-808.1 809.59,-883.3 1126.59,-883.3 1126.59,-808.1 809.59,-808.1"/>
<text text-anchor="middle" x="968.09" y="-866.7" font-family="Times,serif" font-size="14.00">&lt;&lt;Abstract&gt;&gt;</text>
<text text-anchor="middle" x="968.09" y="-849.9" font-family="Times,serif" font-size="14.00">Context</text>
<text text-anchor="middle" x="968.09" y="-833.1" font-family="Times,serif" font-size="14.00">..</text>
<text text-anchor="middle" x="968.09" y="-816.3" font-family="Times,serif" font-size="14.00">ode_modules@openzeppelincontractsutilsContext.sol</text>
</g>
<!-- 156&#45;&gt;165 -->
<g id="edge34" class="edge">
<title>156&#45;&gt;165</title>
<path fill="none" stroke="black" d="M1088.82,-771.2C1077.74,-777.94 1065.97,-785.11 1054.3,-792.22"/>
<polygon fill="none" stroke="black" points="1048.57,-783.41 1028.41,-807.98 1059.49,-801.34 1048.57,-783.41"/>
</g>
<!-- 247&#45;&gt;165 -->
<g id="edge35" class="edge">
<title>247&#45;&gt;165</title>
<path fill="none" stroke="black" d="M833.71,-762.88C848.55,-771.92 865.48,-782.22 882.2,-792.4"/>
<polygon fill="none" stroke="black" points="876.88,-801.46 907.96,-808.09 887.8,-783.52 876.88,-801.46"/>
</g>
<!-- 368&#45;&gt;159 -->
<g id="edge36" class="edge">
<title>368&#45;&gt;159</title>
<path fill="none" stroke="black" stroke-dasharray="5,2" d="M672.72,-658.92C597.27,-672.71 512.27,-688.24 439.88,-701.47"/>
<polygon fill="black" stroke="black" points="438.96,-698.08 429.75,-703.32 440.22,-704.97 438.96,-698.08"/>
</g>
</g>
</svg>
