<?xml version="1.0" encoding="UTF-8" standalone="no"?>
<!DOCTYPE svg PUBLIC "-//W3C//DTD SVG 1.1//EN"
 "http://www.w3.org/Graphics/SVG/1.1/DTD/svg11.dtd">
<!-- Generated by graphviz version 5.0.0 (20220707.1540)
 -->
<!-- Title: UmlClassDiagram Pages: 1 -->
<svg width="2022pt" height="892pt"
 viewBox="0.00 0.00 2021.52 891.80" xmlns="http://www.w3.org/2000/svg" xmlns:xlink="http://www.w3.org/1999/xlink">
<g id="graph0" class="graph" transform="scale(1 1) rotate(0) translate(4 887.8)">
<title>UmlClassDiagram</title>
<polygon fill="white" stroke="transparent" points="-4,4 -4,-887.8 2017.52,-887.8 2017.52,4 -4,4"/>
<!-- 41 -->
<g id="node1" class="node">
<title>41</title>
<polygon fill="#f2f2f2" stroke="black" points="1349.85,-454.7 1349.85,-513.1 1764.34,-513.1 1764.34,-454.7 1349.85,-454.7"/>
<text text-anchor="middle" x="1557.09" y="-496.5" font-family="Times,serif" font-size="14.00">&lt;&lt;Library&gt;&gt;</text>
<text text-anchor="middle" x="1557.09" y="-479.7" font-family="Times,serif" font-size="14.00">CurveFraxBpMetapoolCalculatorLibrary</text>
<text text-anchor="middle" x="1557.09" y="-462.9" font-family="Times,serif" font-size="14.00">..contractsperipheralCurveCurveFraxBpMetapoolCalculatorLibrary.sol</text>
</g>
<!-- 13 -->
<g id="node2" class="node">
<title>13</title>
<polygon fill="#f2f2f2" stroke="black" points="1338.04,-704.3 1338.04,-762.7 1572.15,-762.7 1572.15,-704.3 1338.04,-704.3"/>
<text text-anchor="middle" x="1455.09" y="-746.1" font-family="Times,serif" font-size="14.00">&lt;&lt;Abstract&gt;&gt;</text>
<text text-anchor="middle" x="1455.09" y="-729.3" font-family="Times,serif" font-size="14.00">ImmutableModule</text>
<text text-anchor="middle" x="1455.09" y="-712.5" font-family="Times,serif" font-size="14.00">..contractssharedImmutableModule.sol</text>
</g>
<!-- 15 -->
<g id="node3" class="node">
<title>15</title>
<polygon fill="#f2f2f2" stroke="black" points="1353.98,-824.9 1353.98,-866.5 1556.21,-866.5 1556.21,-824.9 1353.98,-824.9"/>
<text text-anchor="middle" x="1455.09" y="-849.9" font-family="Times,serif" font-size="14.00">ModuleKeys</text>
<text text-anchor="middle" x="1455.09" y="-833.1" font-family="Times,serif" font-size="14.00">..contractssharedModuleKeys.sol</text>
</g>
<!-- 13&#45;&gt;15 -->
<g id="edge1" class="edge">
<title>13&#45;&gt;15</title>
<path fill="none" stroke="black" d="M1455.09,-762.88C1455.09,-772.57 1455.09,-783.72 1455.09,-794.61"/>
<polygon fill="none" stroke="black" points="1444.59,-794.76 1455.09,-824.76 1465.59,-794.76 1444.59,-794.76"/>
</g>
<!-- 17 -->
<g id="node4" class="node">
<title>17</title>
<polygon fill="#f2f2f2" stroke="black" points="1113.49,-592.1 1113.49,-650.5 1350.7,-650.5 1350.7,-592.1 1113.49,-592.1"/>
<text text-anchor="middle" x="1232.09" y="-633.9" font-family="Times,serif" font-size="14.00">&lt;&lt;Abstract&gt;&gt;</text>
<text text-anchor="middle" x="1232.09" y="-617.1" font-family="Times,serif" font-size="14.00">VaultManagerRole</text>
<text text-anchor="middle" x="1232.09" y="-600.3" font-family="Times,serif" font-size="14.00">..contractssharedVaultManagerRole.sol</text>
</g>
<!-- 17&#45;&gt;13 -->
<g id="edge3" class="edge">
<title>17&#45;&gt;13</title>
<path fill="none" stroke="black" d="M1289.23,-650.54C1313.94,-662.75 1343.37,-677.29 1370.53,-690.71"/>
<polygon fill="none" stroke="black" points="1366.17,-700.27 1397.72,-704.15 1375.47,-681.44 1366.17,-700.27"/>
</g>
<!-- 157 -->
<g id="node15" class="node">
<title>157</title>
<polygon fill="#f2f2f2" stroke="black" points="977.78,-695.9 977.78,-771.1 1320.41,-771.1 1320.41,-695.9 977.78,-695.9"/>
<text text-anchor="middle" x="1149.09" y="-754.5" font-family="Times,serif" font-size="14.00">&lt;&lt;Abstract&gt;&gt;</text>
<text text-anchor="middle" x="1149.09" y="-737.7" font-family="Times,serif" font-size="14.00">Pausable</text>
<text text-anchor="middle" x="1149.09" y="-720.9" font-family="Times,serif" font-size="14.00">..</text>
<text text-anchor="middle" x="1149.09" y="-704.1" font-family="Times,serif" font-size="14.00">ode_modules@openzeppelincontractssecurityPausable.sol</text>
</g>
<!-- 17&#45;&gt;157 -->
<g id="edge2" class="edge">
<title>17&#45;&gt;157</title>
<path fill="none" stroke="black" d="M1210.72,-650.68C1205.77,-657.24 1200.33,-664.48 1194.78,-671.84"/>
<polygon fill="none" stroke="black" points="1186.33,-665.61 1176.67,-695.89 1203.1,-678.24 1186.33,-665.61"/>
</g>
<!-- 19 -->
<g id="node5" class="node">
<title>19</title>
<polygon fill="#f2f2f2" stroke="black" points="1368.82,-592.1 1368.82,-650.5 1601.36,-650.5 1601.36,-592.1 1368.82,-592.1"/>
<text text-anchor="middle" x="1485.09" y="-633.9" font-family="Times,serif" font-size="14.00">&lt;&lt;Abstract&gt;&gt;</text>
<text text-anchor="middle" x="1485.09" y="-617.1" font-family="Times,serif" font-size="14.00">InitializableToken</text>
<text text-anchor="middle" x="1485.09" y="-600.3" font-family="Times,serif" font-size="14.00">..contractstokensInitializableToken.sol</text>
</g>
<!-- 20 -->
<g id="node6" class="node">
<title>20</title>
<polygon fill="#f2f2f2" stroke="black" points="1589.99,-704.3 1589.99,-762.7 1862.19,-762.7 1862.19,-704.3 1589.99,-704.3"/>
<text text-anchor="middle" x="1726.09" y="-746.1" font-family="Times,serif" font-size="14.00">&lt;&lt;Abstract&gt;&gt;</text>
<text text-anchor="middle" x="1726.09" y="-729.3" font-family="Times,serif" font-size="14.00">InitializableTokenDetails</text>
<text text-anchor="middle" x="1726.09" y="-712.5" font-family="Times,serif" font-size="14.00">..contractstokensInitializableTokenDetails.sol</text>
</g>
<!-- 19&#45;&gt;20 -->
<g id="edge5" class="edge">
<title>19&#45;&gt;20</title>
<path fill="none" stroke="black" d="M1546.84,-650.54C1574.11,-663 1606.69,-677.9 1636.55,-691.56"/>
<polygon fill="none" stroke="black" points="1632.44,-701.22 1664.08,-704.15 1641.17,-682.12 1632.44,-701.22"/>
</g>
<!-- 248 -->
<g id="node16" class="node">
<title>248</title>
<polygon fill="#f2f2f2" stroke="black" points="614.59,-704.3 614.59,-762.7 959.6,-762.7 959.6,-704.3 614.59,-704.3"/>
<text text-anchor="middle" x="787.09" y="-746.1" font-family="Times,serif" font-size="14.00">ERC20</text>
<text text-anchor="middle" x="787.09" y="-729.3" font-family="Times,serif" font-size="14.00">..</text>
<text text-anchor="middle" x="787.09" y="-712.5" font-family="Times,serif" font-size="14.00">ode_modules@openzeppelincontractstokenRC20RC20.sol</text>
</g>
<!-- 19&#45;&gt;248 -->
<g id="edge4" class="edge">
<title>19&#45;&gt;248</title>
<path fill="none" stroke="black" d="M1397.87,-650.55C1385.29,-653.94 1372.43,-657.03 1360.09,-659.4 1188.73,-692.39 1141.74,-669.93 969.09,-695.4 961.83,-696.47 954.42,-697.65 946.94,-698.9"/>
<polygon fill="none" stroke="black" points="944.72,-688.63 917.03,-704.22 948.4,-709.3 944.72,-688.63"/>
</g>
<!-- 27 -->
<g id="node7" class="node">
<title>27</title>
<polygon fill="#f2f2f2" stroke="black" points="1132.15,-454.7 1132.15,-513.1 1332.04,-513.1 1332.04,-454.7 1132.15,-454.7"/>
<text text-anchor="middle" x="1232.09" y="-496.5" font-family="Times,serif" font-size="14.00">&lt;&lt;Abstract&gt;&gt;</text>
<text text-anchor="middle" x="1232.09" y="-479.7" font-family="Times,serif" font-size="14.00">AbstractVault</text>
<text text-anchor="middle" x="1232.09" y="-462.9" font-family="Times,serif" font-size="14.00">..contractsvaultAbstractVault.sol</text>
</g>
<!-- 27&#45;&gt;17 -->
<g id="edge7" class="edge">
<title>27&#45;&gt;17</title>
<path fill="none" stroke="black" d="M1232.09,-513.28C1232.09,-527.37 1232.09,-544.92 1232.09,-561.71"/>
<polygon fill="none" stroke="black" points="1221.59,-561.95 1232.09,-591.95 1242.59,-561.95 1221.59,-561.95"/>
</g>
<!-- 27&#45;&gt;19 -->
<g id="edge6" class="edge">
<title>27&#45;&gt;19</title>
<path fill="none" stroke="black" d="M1280.37,-513.17C1299.2,-524.02 1321.04,-536.39 1341.09,-547.2 1360.3,-557.56 1381.14,-568.37 1400.84,-578.41"/>
<polygon fill="none" stroke="black" points="1396.13,-587.8 1427.64,-591.95 1405.6,-569.05 1396.13,-587.8"/>
</g>
<!-- 369 -->
<g id="node17" class="node">
<title>369</title>
<polygon fill="#f2f2f2" stroke="black" points="671.82,-583.7 671.82,-658.9 1074.37,-658.9 1074.37,-583.7 671.82,-583.7"/>
<text text-anchor="middle" x="873.09" y="-642.3" font-family="Times,serif" font-size="14.00">&lt;&lt;Library&gt;&gt;</text>
<text text-anchor="middle" x="873.09" y="-625.5" font-family="Times,serif" font-size="14.00">SafeERC20</text>
<text text-anchor="middle" x="873.09" y="-608.7" font-family="Times,serif" font-size="14.00">..</text>
<text text-anchor="middle" x="873.09" y="-591.9" font-family="Times,serif" font-size="14.00">ode_modules@openzeppelincontractstokenRC20utilsSafeERC20.sol</text>
</g>
<!-- 27&#45;&gt;369 -->
<g id="edge8" class="edge">
<title>27&#45;&gt;369</title>
<path fill="none" stroke="black" stroke-dasharray="5,2" d="M1185.77,-513.1C1165.48,-524.69 1141.1,-537.61 1118.09,-547.2 1088.3,-559.62 1055.66,-570.89 1024.2,-580.65"/>
<polygon fill="black" stroke="black" points="1023.01,-577.35 1014.47,-583.63 1025.06,-584.05 1023.01,-577.35"/>
</g>
<!-- 63 -->
<g id="node8" class="node">
<title>63</title>
<polygon fill="#f2f2f2" stroke="black" points="696.27,-421.1 696.27,-546.7 1075.92,-546.7 1075.92,-421.1 696.27,-421.1"/>
<text text-anchor="middle" x="886.09" y="-530.1" font-family="Times,serif" font-size="14.00">&lt;&lt;Abstract&gt;&gt;</text>
<text text-anchor="middle" x="886.09" y="-513.3" font-family="Times,serif" font-size="14.00">LiquidatorAbstractVault</text>
<text text-anchor="start" x="704.27" y="-496.5" font-family="Times,serif" font-size="14.00">..contractsvault</text>
<text text-anchor="middle" x="886.09" y="-479.7" font-family="Times,serif" font-size="14.00">iquidator{&lt;&lt;Abstract&gt;&gt;</text>
<text text-anchor="middle" x="886.09" y="-462.9" font-family="Times,serif" font-size="14.00">LiquidatorAbstractVault</text>
<text text-anchor="start" x="704.27" y="-446.1" font-family="Times,serif" font-size="14.00">..contractsvault</text>
<text text-anchor="middle" x="886.09" y="-429.3" font-family="Times,serif" font-size="14.00">iquidatorLiquidatorAbstractVault.sol}iquidatorAbstractVault.sol</text>
</g>
<!-- 63&#45;&gt;17 -->
<g id="edge9" class="edge">
<title>63&#45;&gt;17</title>
<path fill="none" stroke="black" d="M1044.16,-546.76C1073.85,-558.37 1104.12,-570.22 1131.46,-580.92"/>
<polygon fill="none" stroke="black" points="1128.04,-590.86 1159.8,-592.01 1135.69,-571.3 1128.04,-590.86"/>
</g>
<!-- 63&#45;&gt;369 -->
<g id="edge10" class="edge">
<title>63&#45;&gt;369</title>
<path fill="none" stroke="black" stroke-dasharray="5,2" d="M880.13,-547.05C879.27,-555.95 878.41,-564.97 877.59,-573.51"/>
<polygon fill="black" stroke="black" points="874.09,-573.34 876.61,-583.63 881.05,-574.01 874.09,-573.34"/>
</g>
<!-- 66 -->
<g id="node9" class="node">
<title>66</title>
<polygon fill="#f2f2f2" stroke="black" points="615.62,-258.5 615.62,-384.1 1074.57,-384.1 1074.57,-258.5 615.62,-258.5"/>
<text text-anchor="middle" x="845.09" y="-367.5" font-family="Times,serif" font-size="14.00">&lt;&lt;Abstract&gt;&gt;</text>
<text text-anchor="middle" x="845.09" y="-350.7" font-family="Times,serif" font-size="14.00">LiquidatorStreamAbstractVault</text>
<text text-anchor="start" x="623.62" y="-333.9" font-family="Times,serif" font-size="14.00">..contractsvault</text>
<text text-anchor="middle" x="845.09" y="-317.1" font-family="Times,serif" font-size="14.00">iquidator{&lt;&lt;Abstract&gt;&gt;</text>
<text text-anchor="middle" x="845.09" y="-300.3" font-family="Times,serif" font-size="14.00">LiquidatorStreamAbstractVault</text>
<text text-anchor="start" x="623.62" y="-283.5" font-family="Times,serif" font-size="14.00">..contractsvault</text>
<text text-anchor="middle" x="845.09" y="-266.7" font-family="Times,serif" font-size="14.00">iquidatorLiquidatorStreamAbstractVault.sol}iquidatorStreamAbstractVault.sol</text>
</g>
<!-- 66&#45;&gt;27 -->
<g id="edge11" class="edge">
<title>66&#45;&gt;27</title>
<path fill="none" stroke="black" d="M996.92,-384.16C1026.21,-396.18 1056.62,-408.74 1085.09,-420.6 1102.26,-427.76 1120.54,-435.44 1138.15,-442.89"/>
<polygon fill="none" stroke="black" points="1134.22,-452.62 1165.94,-454.66 1142.42,-433.29 1134.22,-452.62"/>
</g>
<!-- 66&#45;&gt;63 -->
<g id="edge12" class="edge">
<title>66&#45;&gt;63</title>
<path fill="none" stroke="black" d="M860.94,-384.39C861.57,-386.83 862.2,-389.29 862.83,-391.77"/>
<polygon fill="none" stroke="black" points="852.69,-394.5 870.28,-420.97 873.04,-389.31 852.69,-394.5"/>
</g>
<!-- 66&#45;&gt;248 -->
<g id="edge15" class="edge">
<title>66&#45;&gt;248</title>
<path fill="none" stroke="black" stroke-dasharray="5,2" d="M692.81,-384.42C680.35,-394.79 669.38,-406.78 661.09,-420.6 606.52,-511.63 609.62,-567.72 663.09,-659.4 672.55,-675.61 687.12,-688.6 703.01,-698.87"/>
<polygon fill="black" stroke="black" points="701.57,-702.09 711.94,-704.29 705.21,-696.11 701.57,-702.09"/>
</g>
<!-- 66&#45;&gt;369 -->
<g id="edge13" class="edge">
<title>66&#45;&gt;369</title>
<path fill="none" stroke="black" stroke-dasharray="5,2" d="M716.96,-384.36C705.1,-394.87 694.7,-406.9 687.09,-420.6 659.77,-469.79 655.41,-500.7 687.09,-547.2 695.43,-559.43 706.15,-569.61 718.23,-578.09"/>
<polygon fill="black" stroke="black" points="716.51,-581.15 726.8,-583.7 720.34,-575.3 716.51,-581.15"/>
</g>
<!-- 275 -->
<g id="node20" class="node">
<title>275</title>
<polygon fill="#f2f2f2" stroke="black" points="251.88,-446.3 251.88,-521.5 602.31,-521.5 602.31,-446.3 251.88,-446.3"/>
<text text-anchor="middle" x="427.09" y="-504.9" font-family="Times,serif" font-size="14.00">&lt;&lt;Library&gt;&gt;</text>
<text text-anchor="middle" x="427.09" y="-488.1" font-family="Times,serif" font-size="14.00">SafeCast</text>
<text text-anchor="middle" x="427.09" y="-471.3" font-family="Times,serif" font-size="14.00">..</text>
<text text-anchor="middle" x="427.09" y="-454.5" font-family="Times,serif" font-size="14.00">ode_modules@openzeppelincontractsutilsmathSafeCast.sol</text>
</g>
<!-- 66&#45;&gt;275 -->
<g id="edge14" class="edge">
<title>66&#45;&gt;275</title>
<path fill="none" stroke="black" stroke-dasharray="5,2" d="M684.08,-384.16C632.98,-403.8 577.83,-424.98 531.78,-442.68"/>
<polygon fill="black" stroke="black" points="530.47,-439.43 522.39,-446.29 532.98,-445.97 530.47,-439.43"/>
</g>
<!-- 68 -->
<g id="node10" class="node">
<title>68</title>
<polygon fill="#f2f2f2" stroke="black" points="536.4,-95.9 536.4,-221.5 1035.78,-221.5 1035.78,-95.9 536.4,-95.9"/>
<text text-anchor="middle" x="786.09" y="-204.9" font-family="Times,serif" font-size="14.00">&lt;&lt;Abstract&gt;&gt;</text>
<text text-anchor="middle" x="786.09" y="-188.1" font-family="Times,serif" font-size="14.00">LiquidatorStreamFeeAbstractVault</text>
<text text-anchor="start" x="544.4" y="-171.3" font-family="Times,serif" font-size="14.00">..contractsvault</text>
<text text-anchor="middle" x="786.09" y="-154.5" font-family="Times,serif" font-size="14.00">iquidator{&lt;&lt;Abstract&gt;&gt;</text>
<text text-anchor="middle" x="786.09" y="-137.7" font-family="Times,serif" font-size="14.00">LiquidatorStreamFeeAbstractVault</text>
<text text-anchor="start" x="544.4" y="-120.9" font-family="Times,serif" font-size="14.00">..contractsvault</text>
<text text-anchor="middle" x="786.09" y="-104.1" font-family="Times,serif" font-size="14.00">iquidatorLiquidatorStreamFeeAbstractVault.sol}iquidatorStreamFeeAbstractVault.sol</text>
</g>
<!-- 68&#45;&gt;66 -->
<g id="edge16" class="edge">
<title>68&#45;&gt;66</title>
<path fill="none" stroke="black" d="M808.9,-221.79C809.9,-224.51 810.91,-227.26 811.93,-230.03"/>
<polygon fill="none" stroke="black" points="802.14,-233.83 822.34,-258.37 821.85,-226.59 802.14,-233.83"/>
</g>
<!-- 68&#45;&gt;275 -->
<g id="edge17" class="edge">
<title>68&#45;&gt;275</title>
<path fill="none" stroke="black" stroke-dasharray="5,2" d="M658.27,-221.69C640.32,-232.7 622.7,-244.88 607.09,-258 544.07,-310.97 487.67,-388.81 455.44,-437.64"/>
<polygon fill="black" stroke="black" points="452.44,-435.82 449.9,-446.11 458.3,-439.65 452.44,-435.82"/>
</g>
<!-- 70 -->
<g id="node11" class="node">
<title>70</title>
<polygon fill="#f2f2f2" stroke="black" points="1782.18,-446.3 1782.18,-521.5 1958,-521.5 1958,-446.3 1782.18,-446.3"/>
<text text-anchor="middle" x="1870.09" y="-504.9" font-family="Times,serif" font-size="14.00">&lt;&lt;Abstract&gt;&gt;</text>
<text text-anchor="middle" x="1870.09" y="-488.1" font-family="Times,serif" font-size="14.00">AbstractSlippage</text>
<text text-anchor="start" x="1790.18" y="-471.3" font-family="Times,serif" font-size="14.00">..contractsvault</text>
<text text-anchor="middle" x="1870.09" y="-454.5" font-family="Times,serif" font-size="14.00">iquidityAbstractSlippage.sol</text>
</g>
<!-- 70&#45;&gt;17 -->
<g id="edge18" class="edge">
<title>70&#45;&gt;17</title>
<path fill="none" stroke="black" d="M1823.13,-521.52C1807.95,-531.53 1790.52,-541.25 1773.09,-547.2 1598.72,-606.72 1541.22,-549.39 1360.09,-583.2 1357.04,-583.77 1353.95,-584.38 1350.84,-585.03"/>
<polygon fill="none" stroke="black" points="1348.19,-574.87 1321.42,-592.01 1353.04,-595.3 1348.19,-574.87"/>
</g>
<!-- 102 -->
<g id="node12" class="node">
<title>102</title>
<polygon fill="#f2f2f2" stroke="black" points="1130.14,-283.7 1130.14,-358.9 1414.05,-358.9 1414.05,-283.7 1130.14,-283.7"/>
<text text-anchor="middle" x="1272.09" y="-342.3" font-family="Times,serif" font-size="14.00">&lt;&lt;Abstract&gt;&gt;</text>
<text text-anchor="middle" x="1272.09" y="-325.5" font-family="Times,serif" font-size="14.00">ConvexFraxBpAbstractVault</text>
<text text-anchor="start" x="1138.14" y="-308.7" font-family="Times,serif" font-size="14.00">..contractsvault</text>
<text text-anchor="middle" x="1272.09" y="-291.9" font-family="Times,serif" font-size="14.00">iquidityconvexConvexFraxBpAbstractVault.sol</text>
</g>
<!-- 102&#45;&gt;41 -->
<g id="edge22" class="edge">
<title>102&#45;&gt;41</title>
<path fill="none" stroke="black" stroke-dasharray="5,2" d="M1337.12,-358.94C1385.58,-386.25 1451.22,-423.24 1498.16,-449.69"/>
<polygon fill="black" stroke="black" points="1496.56,-452.81 1506.99,-454.67 1500,-446.71 1496.56,-452.81"/>
</g>
<!-- 102&#45;&gt;27 -->
<g id="edge20" class="edge">
<title>102&#45;&gt;27</title>
<path fill="none" stroke="black" d="M1262.92,-359.14C1258.04,-378.73 1251.93,-403.26 1246.44,-425.3"/>
<polygon fill="none" stroke="black" points="1236.23,-422.84 1239.17,-454.48 1256.61,-427.91 1236.23,-422.84"/>
</g>
<!-- 102&#45;&gt;70 -->
<g id="edge19" class="edge">
<title>102&#45;&gt;70</title>
<path fill="none" stroke="black" d="M1414.15,-344.06C1538.59,-364.24 1709.26,-394.93 1773.09,-420.6 1780.37,-423.53 1787.69,-427.02 1794.87,-430.83"/>
<polygon fill="none" stroke="black" points="1789.55,-439.88 1820.71,-446.11 1800.24,-421.8 1789.55,-439.88"/>
</g>
<!-- 102&#45;&gt;369 -->
<g id="edge21" class="edge">
<title>102&#45;&gt;369</title>
<path fill="none" stroke="black" stroke-dasharray="5,2" d="M1195.3,-358.92C1169.18,-374.68 1141.87,-395.36 1123.09,-420.6 1088.03,-467.73 1125.78,-504.83 1085.09,-547.2 1073.03,-559.76 1058.72,-570.16 1043.3,-578.77"/>
<polygon fill="black" stroke="black" points="1041.3,-575.87 1034.1,-583.64 1044.58,-582.06 1041.3,-575.87"/>
</g>
<!-- 105 -->
<g id="node13" class="node">
<title>105</title>
<polygon fill="#f2f2f2" stroke="black" points="916.31,-0.5 916.31,-58.9 1211.88,-58.9 1211.88,-0.5 916.31,-0.5"/>
<text text-anchor="middle" x="1064.09" y="-42.3" font-family="Times,serif" font-size="14.00">ConvexFraxBpLiquidatorVault</text>
<text text-anchor="start" x="924.31" y="-25.5" font-family="Times,serif" font-size="14.00">..contractsvault</text>
<text text-anchor="middle" x="1064.09" y="-8.7" font-family="Times,serif" font-size="14.00">iquidityconvexConvexFraxBpLiquidatorVault.sol</text>
</g>
<!-- 105&#45;&gt;17 -->
<g id="edge27" class="edge">
<title>105&#45;&gt;17</title>
<path fill="none" stroke="black" stroke-dasharray="5,2" d="M1212.04,-44.11C1423.77,-72.28 1805.47,-158.65 1967.09,-420.6 1996.64,-468.49 2005.68,-506.25 1967.09,-547.2 1920.75,-596.37 1426.67,-571.72 1360.09,-583.2 1350.16,-584.91 1339.9,-587.12 1329.71,-589.6"/>
<polygon fill="black" stroke="black" points="1328.82,-586.21 1319.97,-592.05 1330.53,-593 1328.82,-586.21"/>
</g>
<!-- 105&#45;&gt;19 -->
<g id="edge30" class="edge">
<title>105&#45;&gt;19</title>
<path fill="none" stroke="black" stroke-dasharray="5,2" d="M1212.07,-40.45C1352.79,-51.02 1553.69,-69.86 1628.09,-95.4 1833.6,-165.93 1934.89,-211.27 1993.09,-420.6 2008.17,-474.81 2029.94,-504.67 1993.09,-547.2 1944.72,-603.03 1745.91,-617.2 1611.82,-620.26"/>
<polygon fill="black" stroke="black" points="1611.4,-616.77 1601.48,-620.48 1611.55,-623.77 1611.4,-616.77"/>
</g>
<!-- 105&#45;&gt;63 -->
<g id="edge29" class="edge">
<title>105&#45;&gt;63</title>
<path fill="none" stroke="black" stroke-dasharray="5,2" d="M1075.72,-59.07C1099.82,-122.81 1147.83,-279.95 1083.09,-384.6 1076.2,-395.74 1067.63,-405.66 1057.94,-414.48"/>
<polygon fill="black" stroke="black" points="1055.64,-411.85 1050.33,-421.02 1060.2,-417.16 1055.64,-411.85"/>
</g>
<!-- 105&#45;&gt;66 -->
<g id="edge31" class="edge">
<title>105&#45;&gt;66</title>
<path fill="none" stroke="black" stroke-dasharray="5,2" d="M1069.26,-59.22C1074.89,-99.36 1079.05,-173.05 1045.09,-222 1037.29,-233.26 1027.81,-243.28 1017.28,-252.19"/>
<polygon fill="black" stroke="black" points="1015.04,-249.5 1009.44,-258.49 1019.43,-254.96 1015.04,-249.5"/>
</g>
<!-- 105&#45;&gt;68 -->
<g id="edge24" class="edge">
<title>105&#45;&gt;68</title>
<path fill="none" stroke="black" d="M1002.05,-59.04C985.88,-66.43 967.69,-74.74 948.89,-83.33"/>
<polygon fill="none" stroke="black" points="944.51,-73.78 921.59,-95.8 953.24,-92.89 944.51,-73.78"/>
</g>
<!-- 105&#45;&gt;70 -->
<g id="edge28" class="edge">
<title>105&#45;&gt;70</title>
<path fill="none" stroke="black" stroke-dasharray="5,2" d="M1118.61,-59.05C1238.44,-121.72 1533.18,-277.81 1773.09,-420.6 1783.75,-426.94 1794.92,-433.86 1805.75,-440.71"/>
<polygon fill="black" stroke="black" points="1804.02,-443.76 1814.33,-446.17 1807.78,-437.85 1804.02,-443.76"/>
</g>
<!-- 105&#45;&gt;102 -->
<g id="edge23" class="edge">
<title>105&#45;&gt;102</title>
<path fill="none" stroke="black" d="M1087.57,-59.02C1096.66,-70.22 1107.04,-83.28 1116.09,-95.4 1156.54,-149.53 1200.18,-212.91 1230.99,-258.57"/>
<polygon fill="none" stroke="black" points="1222.3,-264.46 1247.74,-283.52 1239.74,-252.76 1222.3,-264.46"/>
</g>
<!-- 241 -->
<g id="node14" class="node">
<title>241</title>
<polygon fill="#f2f2f2" stroke="black" points="0,-121.1 0,-196.3 372.19,-196.3 372.19,-121.1 0,-121.1"/>
<text text-anchor="middle" x="186.09" y="-179.7" font-family="Times,serif" font-size="14.00">&lt;&lt;Abstract&gt;&gt;</text>
<text text-anchor="middle" x="186.09" y="-162.9" font-family="Times,serif" font-size="14.00">Initializable</text>
<text text-anchor="middle" x="186.09" y="-146.1" font-family="Times,serif" font-size="14.00">..</text>
<text text-anchor="middle" x="186.09" y="-129.3" font-family="Times,serif" font-size="14.00">ode_modules@openzeppelincontractsproxyutilsInitializable.sol</text>
</g>
<!-- 105&#45;&gt;241 -->
<g id="edge25" class="edge">
<title>105&#45;&gt;241</title>
<path fill="none" stroke="black" d="M916,-36.02C777.78,-43.05 566.35,-59.13 386.09,-95.4 363.91,-99.86 340.69,-105.84 318.25,-112.33"/>
<polygon fill="none" stroke="black" points="315.03,-102.33 289.36,-121.07 321.11,-122.43 315.03,-102.33"/>
</g>
<!-- 105&#45;&gt;369 -->
<g id="edge26" class="edge">
<title>105&#45;&gt;369</title>
<path fill="none" stroke="black" stroke-dasharray="5,2" d="M916.13,-36.69C780.96,-44.28 592.52,-60.8 527.09,-95.4 442.28,-140.25 276.8,-330.77 243.09,-420.6 223.33,-473.28 205.67,-505.18 243.09,-547.2 271.03,-578.57 489.48,-598.51 661.41,-609.51"/>
<polygon fill="black" stroke="black" points="661.42,-613.01 671.63,-610.15 661.87,-606.03 661.42,-613.01"/>
</g>
<!-- 160 -->
<g id="node18" class="node">
<title>160</title>
<polygon fill="#f2f2f2" stroke="black" points="110.82,-695.9 110.82,-771.1 429.37,-771.1 429.37,-695.9 110.82,-695.9"/>
<text text-anchor="middle" x="270.09" y="-754.5" font-family="Times,serif" font-size="14.00">&lt;&lt;Library&gt;&gt;</text>
<text text-anchor="middle" x="270.09" y="-737.7" font-family="Times,serif" font-size="14.00">Address</text>
<text text-anchor="middle" x="270.09" y="-720.9" font-family="Times,serif" font-size="14.00">..</text>
<text text-anchor="middle" x="270.09" y="-704.1" font-family="Times,serif" font-size="14.00">ode_modules@openzeppelincontractsutilsAddress.sol</text>
</g>
<!-- 241&#45;&gt;160 -->
<g id="edge32" class="edge">
<title>241&#45;&gt;160</title>
<path fill="none" stroke="black" stroke-dasharray="5,2" d="M185.32,-196.41C184.53,-265.66 185.97,-420.05 210.09,-547.2 219.29,-595.69 237.51,-649.12 251.46,-686.1"/>
<polygon fill="black" stroke="black" points="248.26,-687.51 255.1,-695.6 254.8,-685.01 248.26,-687.51"/>
</g>
<!-- 166 -->
<g id="node19" class="node">
<title>166</title>
<polygon fill="#f2f2f2" stroke="black" points="809.59,-808.1 809.59,-883.3 1126.59,-883.3 1126.59,-808.1 809.59,-808.1"/>
<text text-anchor="middle" x="968.09" y="-866.7" font-family="Times,serif" font-size="14.00">&lt;&lt;Abstract&gt;&gt;</text>
<text text-anchor="middle" x="968.09" y="-849.9" font-family="Times,serif" font-size="14.00">Context</text>
<text text-anchor="middle" x="968.09" y="-833.1" font-family="Times,serif" font-size="14.00">..</text>
<text text-anchor="middle" x="968.09" y="-816.3" font-family="Times,serif" font-size="14.00">ode_modules@openzeppelincontractsutilsContext.sol</text>
</g>
<!-- 157&#45;&gt;166 -->
<g id="edge33" class="edge">
<title>157&#45;&gt;166</title>
<path fill="none" stroke="black" d="M1088.82,-771.2C1077.74,-777.94 1065.97,-785.11 1054.3,-792.22"/>
<polygon fill="none" stroke="black" points="1048.57,-783.41 1028.41,-807.98 1059.49,-801.34 1048.57,-783.41"/>
</g>
<!-- 248&#45;&gt;166 -->
<g id="edge34" class="edge">
<title>248&#45;&gt;166</title>
<path fill="none" stroke="black" d="M833.71,-762.88C848.55,-771.92 865.48,-782.22 882.2,-792.4"/>
<polygon fill="none" stroke="black" points="876.88,-801.46 907.96,-808.09 887.8,-783.52 876.88,-801.46"/>
</g>
<!-- 369&#45;&gt;160 -->
<g id="edge35" class="edge">
<title>369&#45;&gt;160</title>
<path fill="none" stroke="black" stroke-dasharray="5,2" d="M672.72,-658.92C597.27,-672.71 512.27,-688.24 439.88,-701.47"/>
<polygon fill="black" stroke="black" points="438.96,-698.08 429.75,-703.32 440.22,-704.97 438.96,-698.08"/>
</g>
</g>
</svg>
