<?xml version="1.0" encoding="UTF-8" standalone="no"?>
<!DOCTYPE svg PUBLIC "-//W3C//DTD SVG 1.1//EN"
 "http://www.w3.org/Graphics/SVG/1.1/DTD/svg11.dtd">
<!-- Generated by graphviz version 5.0.0 (20220707.1540)
 -->
<!-- Title: UmlClassDiagram Pages: 1 -->
<svg width="3014pt" height="1004pt"
 viewBox="0.00 0.00 3014.41 1004.00" xmlns="http://www.w3.org/2000/svg" xmlns:xlink="http://www.w3.org/1999/xlink">
<g id="graph0" class="graph" transform="scale(1 1) rotate(0) translate(4 1000)">
<title>UmlClassDiagram</title>
<polygon fill="white" stroke="transparent" points="-4,4 -4,-1000 3010.41,-1000 3010.41,4 -4,4"/>
<!-- 6 -->
<g id="node1" class="node">
<title>6</title>
<polygon fill="#f2f2f2" stroke="black" points="968.93,-816.5 968.93,-874.9 1207.7,-874.9 1207.7,-816.5 968.93,-816.5"/>
<text text-anchor="middle" x="1088.32" y="-858.3" font-family="Times,serif" font-size="14.00">&lt;&lt;Interface&gt;&gt;</text>
<text text-anchor="middle" x="1088.32" y="-841.5" font-family="Times,serif" font-size="14.00">IERC4626Vault</text>
<text text-anchor="middle" x="1088.32" y="-824.7" font-family="Times,serif" font-size="14.00">..contractsinterfacesIERC4626Vault.sol</text>
</g>
<!-- 249 -->
<g id="node24" class="node">
<title>249</title>
<polygon fill="#f2f2f2" stroke="black" points="909.21,-920.3 909.21,-995.5 1267.43,-995.5 1267.43,-920.3 909.21,-920.3"/>
<text text-anchor="middle" x="1088.32" y="-978.9" font-family="Times,serif" font-size="14.00">&lt;&lt;Interface&gt;&gt;</text>
<text text-anchor="middle" x="1088.32" y="-962.1" font-family="Times,serif" font-size="14.00">IERC20</text>
<text text-anchor="middle" x="1088.32" y="-945.3" font-family="Times,serif" font-size="14.00">..</text>
<text text-anchor="middle" x="1088.32" y="-928.5" font-family="Times,serif" font-size="14.00">ode_modules@openzeppelincontractstokenRC20IERC20.sol</text>
</g>
<!-- 6&#45;&gt;249 -->
<g id="edge1" class="edge">
<title>6&#45;&gt;249</title>
<path fill="none" stroke="black" stroke-dasharray="5,2" d="M1088.32,-875.08C1088.32,-879.81 1088.32,-884.9 1088.32,-890.13"/>
<polygon fill="none" stroke="black" points="1077.82,-890.29 1088.32,-920.29 1098.82,-890.29 1077.82,-890.29"/>
</g>
<!-- 8 -->
<g id="node2" class="node">
<title>8</title>
<polygon fill="#f2f2f2" stroke="black" points="0,-592.1 0,-650.5 242.64,-650.5 242.64,-592.1 0,-592.1"/>
<text text-anchor="middle" x="121.32" y="-633.9" font-family="Times,serif" font-size="14.00">&lt;&lt;Interface&gt;&gt;</text>
<text text-anchor="middle" x="121.32" y="-617.1" font-family="Times,serif" font-size="14.00">ILiquidatorVault</text>
<text text-anchor="middle" x="121.32" y="-600.3" font-family="Times,serif" font-size="14.00">..contractsinterfacesILiquidatorVault.sol</text>
</g>
<!-- 9 -->
<g id="node3" class="node">
<title>9</title>
<polygon fill="#f2f2f2" stroke="black" points="156.21,-816.5 156.21,-874.9 344.42,-874.9 344.42,-816.5 156.21,-816.5"/>
<text text-anchor="middle" x="250.32" y="-858.3" font-family="Times,serif" font-size="14.00">&lt;&lt;Interface&gt;&gt;</text>
<text text-anchor="middle" x="250.32" y="-841.5" font-family="Times,serif" font-size="14.00">INexus</text>
<text text-anchor="middle" x="250.32" y="-824.7" font-family="Times,serif" font-size="14.00">..contractsinterfacesINexus.sol</text>
</g>
<!-- 32 -->
<g id="node4" class="node">
<title>32</title>
<polygon fill="#f2f2f2" stroke="black" points="2468.6,-454.7 2468.6,-513.1 2754.04,-513.1 2754.04,-454.7 2468.6,-454.7"/>
<text text-anchor="middle" x="2611.32" y="-496.5" font-family="Times,serif" font-size="14.00">&lt;&lt;Interface&gt;&gt;</text>
<text text-anchor="middle" x="2611.32" y="-479.7" font-family="Times,serif" font-size="14.00">IConvexBooster</text>
<text text-anchor="middle" x="2611.32" y="-462.9" font-family="Times,serif" font-size="14.00">..contractsperipheralConvexIConvexBooster.sol</text>
</g>
<!-- 33 -->
<g id="node5" class="node">
<title>33</title>
<polygon fill="#f2f2f2" stroke="black" points="1602.05,-454.7 1602.05,-513.1 1918.59,-513.1 1918.59,-454.7 1602.05,-454.7"/>
<text text-anchor="middle" x="1760.32" y="-496.5" font-family="Times,serif" font-size="14.00">&lt;&lt;Interface&gt;&gt;</text>
<text text-anchor="middle" x="1760.32" y="-479.7" font-family="Times,serif" font-size="14.00">IConvexRewardsPool</text>
<text text-anchor="middle" x="1760.32" y="-462.9" font-family="Times,serif" font-size="14.00">..contractsperipheralConvexIConvexRewardsPool.sol</text>
</g>
<!-- 38 -->
<g id="node6" class="node">
<title>38</title>
<polygon fill="#f2f2f2" stroke="black" points="2012.08,-454.7 2012.08,-513.1 2412.56,-513.1 2412.56,-454.7 2012.08,-454.7"/>
<text text-anchor="middle" x="2212.32" y="-496.5" font-family="Times,serif" font-size="14.00">&lt;&lt;Library&gt;&gt;</text>
<text text-anchor="middle" x="2212.32" y="-479.7" font-family="Times,serif" font-size="14.00">Curve3CrvMetapoolCalculatorLibrary</text>
<text text-anchor="middle" x="2212.32" y="-462.9" font-family="Times,serif" font-size="14.00">..contractsperipheralCurveCurve3CrvMetapoolCalculatorLibrary.sol</text>
</g>
<!-- 42 -->
<g id="node7" class="node">
<title>42</title>
<polygon fill="#f2f2f2" stroke="black" points="2452.38,-592.1 2452.38,-650.5 2708.26,-650.5 2708.26,-592.1 2452.38,-592.1"/>
<text text-anchor="middle" x="2580.32" y="-633.9" font-family="Times,serif" font-size="14.00">&lt;&lt;Interface&gt;&gt;</text>
<text text-anchor="middle" x="2580.32" y="-617.1" font-family="Times,serif" font-size="14.00">ICurve3Pool</text>
<text text-anchor="middle" x="2580.32" y="-600.3" font-family="Times,serif" font-size="14.00">..contractsperipheralCurveICurve3Pool.sol</text>
</g>
<!-- 38&#45;&gt;42 -->
<g id="edge4" class="edge">
<title>38&#45;&gt;42</title>
<path fill="none" stroke="black" stroke-dasharray="5,2" d="M2289.02,-513.12C2348.82,-535.12 2431.88,-565.68 2494.01,-588.54"/>
<polygon fill="black" stroke="black" points="2492.81,-591.83 2503.41,-592 2495.23,-585.26 2492.81,-591.83"/>
</g>
<!-- 45 -->
<g id="node8" class="node">
<title>45</title>
<polygon fill="#f2f2f2" stroke="black" points="2027.89,-592.1 2027.89,-650.5 2304.75,-650.5 2304.75,-592.1 2027.89,-592.1"/>
<text text-anchor="middle" x="2166.32" y="-633.9" font-family="Times,serif" font-size="14.00">&lt;&lt;Interface&gt;&gt;</text>
<text text-anchor="middle" x="2166.32" y="-617.1" font-family="Times,serif" font-size="14.00">ICurveMetapool</text>
<text text-anchor="middle" x="2166.32" y="-600.3" font-family="Times,serif" font-size="14.00">..contractsperipheralCurveICurveMetapool.sol</text>
</g>
<!-- 38&#45;&gt;45 -->
<g id="edge3" class="edge">
<title>38&#45;&gt;45</title>
<path fill="none" stroke="black" stroke-dasharray="5,2" d="M2202.68,-513.28C2195.87,-533.32 2186.67,-560.4 2179.23,-582.3"/>
<polygon fill="black" stroke="black" points="2175.85,-581.36 2175.95,-591.95 2182.48,-583.61 2175.85,-581.36"/>
</g>
<!-- 38&#45;&gt;249 -->
<g id="edge2" class="edge">
<title>38&#45;&gt;249</title>
<path fill="none" stroke="black" stroke-dasharray="5,2" d="M2256.37,-513.16C2333.8,-566.22 2479.41,-683.39 2405.32,-771.6 2333.84,-856.7 1624.9,-918.61 1277.81,-944.07"/>
<polygon fill="black" stroke="black" points="1277.37,-940.6 1267.65,-944.82 1277.88,-947.58 1277.37,-940.6"/>
</g>
<!-- 13 -->
<g id="node9" class="node">
<title>13</title>
<polygon fill="#f2f2f2" stroke="black" points="156.27,-704.3 156.27,-762.7 390.37,-762.7 390.37,-704.3 156.27,-704.3"/>
<text text-anchor="middle" x="273.32" y="-746.1" font-family="Times,serif" font-size="14.00">&lt;&lt;Abstract&gt;&gt;</text>
<text text-anchor="middle" x="273.32" y="-729.3" font-family="Times,serif" font-size="14.00">ImmutableModule</text>
<text text-anchor="middle" x="273.32" y="-712.5" font-family="Times,serif" font-size="14.00">..contractssharedImmutableModule.sol</text>
</g>
<!-- 13&#45;&gt;9 -->
<g id="edge6" class="edge">
<title>13&#45;&gt;9</title>
<path fill="none" stroke="black" d="M267.4,-762.88C264.63,-776.12 261.3,-792.07 258.32,-806.37"/>
<polygon fill="black" stroke="black" points="254.84,-805.91 256.22,-816.42 261.69,-807.34 254.84,-805.91"/>
</g>
<!-- 15 -->
<g id="node10" class="node">
<title>15</title>
<polygon fill="#f2f2f2" stroke="black" points="362.2,-824.9 362.2,-866.5 564.44,-866.5 564.44,-824.9 362.2,-824.9"/>
<text text-anchor="middle" x="463.32" y="-849.9" font-family="Times,serif" font-size="14.00">ModuleKeys</text>
<text text-anchor="middle" x="463.32" y="-833.1" font-family="Times,serif" font-size="14.00">..contractssharedModuleKeys.sol</text>
</g>
<!-- 13&#45;&gt;15 -->
<g id="edge5" class="edge">
<title>13&#45;&gt;15</title>
<path fill="none" stroke="black" d="M322.25,-762.88C346.8,-777.12 376.76,-794.49 402.74,-809.57"/>
<polygon fill="none" stroke="black" points="397.72,-818.79 428.94,-824.76 408.26,-800.63 397.72,-818.79"/>
</g>
<!-- 17 -->
<g id="node11" class="node">
<title>17</title>
<polygon fill="#f2f2f2" stroke="black" points="460.72,-592.1 460.72,-650.5 697.92,-650.5 697.92,-592.1 460.72,-592.1"/>
<text text-anchor="middle" x="579.32" y="-633.9" font-family="Times,serif" font-size="14.00">&lt;&lt;Abstract&gt;&gt;</text>
<text text-anchor="middle" x="579.32" y="-617.1" font-family="Times,serif" font-size="14.00">VaultManagerRole</text>
<text text-anchor="middle" x="579.32" y="-600.3" font-family="Times,serif" font-size="14.00">..contractssharedVaultManagerRole.sol</text>
</g>
<!-- 17&#45;&gt;13 -->
<g id="edge8" class="edge">
<title>17&#45;&gt;13</title>
<path fill="none" stroke="black" d="M500.91,-650.54C464.17,-663.77 419.82,-679.74 380.08,-694.05"/>
<polygon fill="none" stroke="black" points="376.45,-684.2 351.79,-704.24 383.57,-703.96 376.45,-684.2"/>
</g>
<!-- 157 -->
<g id="node22" class="node">
<title>157</title>
<polygon fill="#f2f2f2" stroke="black" points="408,-695.9 408,-771.1 750.64,-771.1 750.64,-695.9 408,-695.9"/>
<text text-anchor="middle" x="579.32" y="-754.5" font-family="Times,serif" font-size="14.00">&lt;&lt;Abstract&gt;&gt;</text>
<text text-anchor="middle" x="579.32" y="-737.7" font-family="Times,serif" font-size="14.00">Pausable</text>
<text text-anchor="middle" x="579.32" y="-720.9" font-family="Times,serif" font-size="14.00">..</text>
<text text-anchor="middle" x="579.32" y="-704.1" font-family="Times,serif" font-size="14.00">ode_modules@openzeppelincontractssecurityPausable.sol</text>
</g>
<!-- 17&#45;&gt;157 -->
<g id="edge7" class="edge">
<title>17&#45;&gt;157</title>
<path fill="none" stroke="black" d="M579.32,-650.68C579.32,-655.41 579.32,-660.5 579.32,-665.73"/>
<polygon fill="none" stroke="black" points="568.82,-665.89 579.32,-695.89 589.82,-665.89 568.82,-665.89"/>
</g>
<!-- 19 -->
<g id="node12" class="node">
<title>19</title>
<polygon fill="#f2f2f2" stroke="black" points="1152.05,-592.1 1152.05,-650.5 1384.59,-650.5 1384.59,-592.1 1152.05,-592.1"/>
<text text-anchor="middle" x="1268.32" y="-633.9" font-family="Times,serif" font-size="14.00">&lt;&lt;Abstract&gt;&gt;</text>
<text text-anchor="middle" x="1268.32" y="-617.1" font-family="Times,serif" font-size="14.00">InitializableToken</text>
<text text-anchor="middle" x="1268.32" y="-600.3" font-family="Times,serif" font-size="14.00">..contractstokensInitializableToken.sol</text>
</g>
<!-- 20 -->
<g id="node13" class="node">
<title>20</title>
<polygon fill="#f2f2f2" stroke="black" points="1132.22,-704.3 1132.22,-762.7 1404.42,-762.7 1404.42,-704.3 1132.22,-704.3"/>
<text text-anchor="middle" x="1268.32" y="-746.1" font-family="Times,serif" font-size="14.00">&lt;&lt;Abstract&gt;&gt;</text>
<text text-anchor="middle" x="1268.32" y="-729.3" font-family="Times,serif" font-size="14.00">InitializableTokenDetails</text>
<text text-anchor="middle" x="1268.32" y="-712.5" font-family="Times,serif" font-size="14.00">..contractstokensInitializableTokenDetails.sol</text>
</g>
<!-- 19&#45;&gt;20 -->
<g id="edge10" class="edge">
<title>19&#45;&gt;20</title>
<path fill="none" stroke="black" d="M1268.32,-650.68C1268.32,-657.88 1268.32,-665.88 1268.32,-673.98"/>
<polygon fill="none" stroke="black" points="1257.82,-674.22 1268.32,-704.22 1278.82,-674.22 1257.82,-674.22"/>
</g>
<!-- 248 -->
<g id="node23" class="node">
<title>248</title>
<polygon fill="#f2f2f2" stroke="black" points="768.82,-704.3 768.82,-762.7 1113.82,-762.7 1113.82,-704.3 768.82,-704.3"/>
<text text-anchor="middle" x="941.32" y="-746.1" font-family="Times,serif" font-size="14.00">ERC20</text>
<text text-anchor="middle" x="941.32" y="-729.3" font-family="Times,serif" font-size="14.00">..</text>
<text text-anchor="middle" x="941.32" y="-712.5" font-family="Times,serif" font-size="14.00">ode_modules@openzeppelincontractstokenRC20RC20.sol</text>
</g>
<!-- 19&#45;&gt;248 -->
<g id="edge9" class="edge">
<title>19&#45;&gt;248</title>
<path fill="none" stroke="black" d="M1184.53,-650.54C1144.79,-663.93 1096.72,-680.13 1053.85,-694.58"/>
<polygon fill="none" stroke="black" points="1050.25,-684.71 1025.17,-704.24 1056.95,-704.61 1050.25,-684.71"/>
</g>
<!-- 27 -->
<g id="node14" class="node">
<title>27</title>
<polygon fill="#f2f2f2" stroke="black" points="1270.37,-454.7 1270.37,-513.1 1470.27,-513.1 1470.27,-454.7 1270.37,-454.7"/>
<text text-anchor="middle" x="1370.32" y="-496.5" font-family="Times,serif" font-size="14.00">&lt;&lt;Abstract&gt;&gt;</text>
<text text-anchor="middle" x="1370.32" y="-479.7" font-family="Times,serif" font-size="14.00">AbstractVault</text>
<text text-anchor="middle" x="1370.32" y="-462.9" font-family="Times,serif" font-size="14.00">..contractsvaultAbstractVault.sol</text>
</g>
<!-- 27&#45;&gt;6 -->
<g id="edge11" class="edge">
<title>27&#45;&gt;6</title>
<path fill="none" stroke="black" stroke-dasharray="5,2" d="M1387.16,-513.11C1418.24,-569.26 1476,-696.08 1413.32,-771.6 1385.6,-805 1263.6,-797.76 1221.32,-807.6 1219.24,-808.08 1217.15,-808.58 1215.04,-809.08"/>
<polygon fill="none" stroke="black" points="1212.28,-798.95 1185.77,-816.48 1217.42,-819.31 1212.28,-798.95"/>
</g>
<!-- 27&#45;&gt;17 -->
<g id="edge13" class="edge">
<title>27&#45;&gt;17</title>
<path fill="none" stroke="black" d="M1297.93,-513.11C1264.17,-525.27 1223.17,-538.64 1185.32,-547.2 1031.55,-581.98 851.85,-601.02 728.29,-610.87"/>
<polygon fill="none" stroke="black" points="727.24,-600.42 698.13,-613.18 728.85,-621.36 727.24,-600.42"/>
</g>
<!-- 27&#45;&gt;19 -->
<g id="edge12" class="edge">
<title>27&#45;&gt;19</title>
<path fill="none" stroke="black" d="M1348.94,-513.28C1337.04,-529.08 1321.84,-549.25 1307.86,-567.81"/>
<polygon fill="none" stroke="black" points="1299.34,-561.67 1289.67,-591.95 1316.11,-574.31 1299.34,-561.67"/>
</g>
<!-- 27&#45;&gt;249 -->
<g id="edge15" class="edge">
<title>27&#45;&gt;249</title>
<path fill="none" stroke="black" d="M1399.67,-513.34C1416.28,-531.54 1435.45,-556.66 1444.32,-583.2 1451.72,-605.34 1447.32,-764.53 1441.32,-771.6 1386.56,-836.13 1321.74,-756.43 1254.32,-807.6 1224.17,-830.48 1242.32,-856.3 1216.32,-883.8 1205.26,-895.5 1191.9,-905.87 1178.04,-914.85"/>
<polygon fill="black" stroke="black" points="1175.99,-912 1169.36,-920.27 1179.7,-917.94 1175.99,-912"/>
</g>
<!-- 369 -->
<g id="node27" class="node">
<title>369</title>
<polygon fill="#f2f2f2" stroke="black" points="1498.04,-583.7 1498.04,-658.9 1900.6,-658.9 1900.6,-583.7 1498.04,-583.7"/>
<text text-anchor="middle" x="1699.32" y="-642.3" font-family="Times,serif" font-size="14.00">&lt;&lt;Library&gt;&gt;</text>
<text text-anchor="middle" x="1699.32" y="-625.5" font-family="Times,serif" font-size="14.00">SafeERC20</text>
<text text-anchor="middle" x="1699.32" y="-608.7" font-family="Times,serif" font-size="14.00">..</text>
<text text-anchor="middle" x="1699.32" y="-591.9" font-family="Times,serif" font-size="14.00">ode_modules@openzeppelincontractstokenRC20utilsSafeERC20.sol</text>
</g>
<!-- 27&#45;&gt;369 -->
<g id="edge14" class="edge">
<title>27&#45;&gt;369</title>
<path fill="none" stroke="black" stroke-dasharray="5,2" d="M1417.65,-513.15C1437.8,-524.55 1461.81,-537.31 1484.32,-547.2 1511.56,-559.17 1541.42,-570.43 1570,-580.37"/>
<polygon fill="black" stroke="black" points="1569.04,-583.74 1579.63,-583.69 1571.32,-577.12 1569.04,-583.74"/>
</g>
<!-- 63 -->
<g id="node15" class="node">
<title>63</title>
<polygon fill="#f2f2f2" stroke="black" points="196.5,-421.1 196.5,-546.7 576.14,-546.7 576.14,-421.1 196.5,-421.1"/>
<text text-anchor="middle" x="386.32" y="-530.1" font-family="Times,serif" font-size="14.00">&lt;&lt;Abstract&gt;&gt;</text>
<text text-anchor="middle" x="386.32" y="-513.3" font-family="Times,serif" font-size="14.00">LiquidatorAbstractVault</text>
<text text-anchor="start" x="204.5" y="-496.5" font-family="Times,serif" font-size="14.00">..contractsvault</text>
<text text-anchor="middle" x="386.32" y="-479.7" font-family="Times,serif" font-size="14.00">iquidator{&lt;&lt;Abstract&gt;&gt;</text>
<text text-anchor="middle" x="386.32" y="-462.9" font-family="Times,serif" font-size="14.00">LiquidatorAbstractVault</text>
<text text-anchor="start" x="204.5" y="-446.1" font-family="Times,serif" font-size="14.00">..contractsvault</text>
<text text-anchor="middle" x="386.32" y="-429.3" font-family="Times,serif" font-size="14.00">iquidatorLiquidatorAbstractVault.sol}iquidatorAbstractVault.sol</text>
</g>
<!-- 63&#45;&gt;8 -->
<g id="edge16" class="edge">
<title>63&#45;&gt;8</title>
<path fill="none" stroke="black" stroke-dasharray="5,2" d="M265.06,-546.85C244.16,-557.54 222.88,-568.41 203.32,-578.4"/>
<polygon fill="none" stroke="black" points="198.53,-569.06 176.6,-592.06 208.09,-587.76 198.53,-569.06"/>
</g>
<!-- 63&#45;&gt;17 -->
<g id="edge17" class="edge">
<title>63&#45;&gt;17</title>
<path fill="none" stroke="black" d="M474.63,-546.85C487.95,-556.2 501.48,-565.69 514.19,-574.61"/>
<polygon fill="none" stroke="black" points="508.22,-583.25 538.81,-591.88 520.28,-566.06 508.22,-583.25"/>
</g>
<!-- 63&#45;&gt;249 -->
<g id="edge19" class="edge">
<title>63&#45;&gt;249</title>
<path fill="none" stroke="black" stroke-dasharray="5,2" d="M351.16,-546.88C327.26,-584.09 292.54,-629.8 251.32,-659.4 211.59,-687.93 175.69,-655.56 147.32,-695.4 98.75,-763.61 90.45,-822.34 147.32,-883.8 197.19,-937.69 638.47,-951.95 898.66,-955.66"/>
<polygon fill="black" stroke="black" points="898.94,-959.16 908.99,-955.8 899.04,-952.16 898.94,-959.16"/>
</g>
<!-- 63&#45;&gt;369 -->
<g id="edge18" class="edge">
<title>63&#45;&gt;369</title>
<path fill="none" stroke="black" stroke-dasharray="5,2" d="M576.39,-538.58C592.18,-541.9 607.97,-544.85 623.32,-547.2 961.97,-599.04 1051.92,-554.56 1393.32,-583.2 1423.87,-585.76 1456.08,-589.04 1487.67,-592.58"/>
<polygon fill="black" stroke="black" points="1487.57,-596.09 1497.9,-593.73 1488.36,-589.13 1487.57,-596.09"/>
</g>
<!-- 66 -->
<g id="node16" class="node">
<title>66</title>
<polygon fill="#f2f2f2" stroke="black" points="974.84,-258.5 974.84,-384.1 1433.8,-384.1 1433.8,-258.5 974.84,-258.5"/>
<text text-anchor="middle" x="1204.32" y="-367.5" font-family="Times,serif" font-size="14.00">&lt;&lt;Abstract&gt;&gt;</text>
<text text-anchor="middle" x="1204.32" y="-350.7" font-family="Times,serif" font-size="14.00">LiquidatorStreamAbstractVault</text>
<text text-anchor="start" x="982.84" y="-333.9" font-family="Times,serif" font-size="14.00">..contractsvault</text>
<text text-anchor="middle" x="1204.32" y="-317.1" font-family="Times,serif" font-size="14.00">iquidator{&lt;&lt;Abstract&gt;&gt;</text>
<text text-anchor="middle" x="1204.32" y="-300.3" font-family="Times,serif" font-size="14.00">LiquidatorStreamAbstractVault</text>
<text text-anchor="start" x="982.84" y="-283.5" font-family="Times,serif" font-size="14.00">..contractsvault</text>
<text text-anchor="middle" x="1204.32" y="-266.7" font-family="Times,serif" font-size="14.00">iquidatorLiquidatorStreamAbstractVault.sol}iquidatorStreamAbstractVault.sol</text>
</g>
<!-- 66&#45;&gt;27 -->
<g id="edge20" class="edge">
<title>66&#45;&gt;27</title>
<path fill="none" stroke="black" d="M1268.5,-384.39C1285.3,-400.64 1303.18,-417.94 1319.19,-433.43"/>
<polygon fill="none" stroke="black" points="1312.11,-441.2 1340.97,-454.51 1326.71,-426.1 1312.11,-441.2"/>
</g>
<!-- 66&#45;&gt;63 -->
<g id="edge21" class="edge">
<title>66&#45;&gt;63</title>
<path fill="none" stroke="black" d="M974.73,-356.29C867.53,-373.4 738.45,-395.78 623.32,-420.6 617.59,-421.84 611.79,-423.12 605.94,-424.44"/>
<polygon fill="none" stroke="black" points="603.26,-414.28 576.44,-431.33 608.04,-434.73 603.26,-414.28"/>
</g>
<!-- 66&#45;&gt;248 -->
<g id="edge24" class="edge">
<title>66&#45;&gt;248</title>
<path fill="none" stroke="black" stroke-dasharray="5,2" d="M1212.14,-384.4C1215.16,-431.87 1212.7,-497.41 1185.32,-547.2 1179.47,-557.84 1057.85,-647.55 988.57,-698.14"/>
<polygon fill="black" stroke="black" points="986.41,-695.39 980.4,-704.11 990.54,-701.04 986.41,-695.39"/>
</g>
<!-- 66&#45;&gt;369 -->
<g id="edge22" class="edge">
<title>66&#45;&gt;369</title>
<path fill="none" stroke="black" stroke-dasharray="5,2" d="M1432.55,-384.27C1449.63,-394.58 1465.54,-406.6 1479.32,-420.6 1521,-462.95 1481.67,-503.85 1522.32,-547.2 1534.01,-559.67 1548.15,-570.08 1563.27,-578.75"/>
<polygon fill="black" stroke="black" points="1561.82,-581.95 1572.28,-583.66 1565.17,-575.8 1561.82,-581.95"/>
</g>
<!-- 275 -->
<g id="node30" class="node">
<title>275</title>
<polygon fill="#f2f2f2" stroke="black" points="826.11,-446.3 826.11,-521.5 1176.53,-521.5 1176.53,-446.3 826.11,-446.3"/>
<text text-anchor="middle" x="1001.32" y="-504.9" font-family="Times,serif" font-size="14.00">&lt;&lt;Library&gt;&gt;</text>
<text text-anchor="middle" x="1001.32" y="-488.1" font-family="Times,serif" font-size="14.00">SafeCast</text>
<text text-anchor="middle" x="1001.32" y="-471.3" font-family="Times,serif" font-size="14.00">..</text>
<text text-anchor="middle" x="1001.32" y="-454.5" font-family="Times,serif" font-size="14.00">ode_modules@openzeppelincontractsutilsmathSafeCast.sol</text>
</g>
<!-- 66&#45;&gt;275 -->
<g id="edge23" class="edge">
<title>66&#45;&gt;275</title>
<path fill="none" stroke="black" stroke-dasharray="5,2" d="M1126.12,-384.16C1102.65,-402.73 1077.42,-422.69 1055.83,-439.77"/>
<polygon fill="black" stroke="black" points="1053.42,-437.22 1047.75,-446.17 1057.76,-442.71 1053.42,-437.22"/>
</g>
<!-- 68 -->
<g id="node17" class="node">
<title>68</title>
<polygon fill="#f2f2f2" stroke="black" points="932.63,-95.9 932.63,-221.5 1432.01,-221.5 1432.01,-95.9 932.63,-95.9"/>
<text text-anchor="middle" x="1182.32" y="-204.9" font-family="Times,serif" font-size="14.00">&lt;&lt;Abstract&gt;&gt;</text>
<text text-anchor="middle" x="1182.32" y="-188.1" font-family="Times,serif" font-size="14.00">LiquidatorStreamFeeAbstractVault</text>
<text text-anchor="start" x="940.63" y="-171.3" font-family="Times,serif" font-size="14.00">..contractsvault</text>
<text text-anchor="middle" x="1182.32" y="-154.5" font-family="Times,serif" font-size="14.00">iquidator{&lt;&lt;Abstract&gt;&gt;</text>
<text text-anchor="middle" x="1182.32" y="-137.7" font-family="Times,serif" font-size="14.00">LiquidatorStreamFeeAbstractVault</text>
<text text-anchor="start" x="940.63" y="-120.9" font-family="Times,serif" font-size="14.00">..contractsvault</text>
<text text-anchor="middle" x="1182.32" y="-104.1" font-family="Times,serif" font-size="14.00">iquidatorLiquidatorStreamFeeAbstractVault.sol}iquidatorStreamFeeAbstractVault.sol</text>
</g>
<!-- 68&#45;&gt;66 -->
<g id="edge25" class="edge">
<title>68&#45;&gt;66</title>
<path fill="none" stroke="black" d="M1190.83,-221.79C1191.13,-224.04 1191.44,-226.31 1191.76,-228.6"/>
<polygon fill="none" stroke="black" points="1181.36,-230.08 1195.84,-258.37 1202.17,-227.23 1181.36,-230.08"/>
</g>
<!-- 68&#45;&gt;275 -->
<g id="edge26" class="edge">
<title>68&#45;&gt;275</title>
<path fill="none" stroke="black" stroke-dasharray="5,2" d="M1000.02,-221.57C986.93,-231.92 975.35,-243.97 966.32,-258 931.43,-312.2 955.22,-388.65 977.07,-436.98"/>
<polygon fill="black" stroke="black" points="973.99,-438.67 981.39,-446.25 980.34,-435.71 973.99,-438.67"/>
</g>
<!-- 70 -->
<g id="node18" class="node">
<title>70</title>
<polygon fill="#f2f2f2" stroke="black" points="632.41,-446.3 632.41,-521.5 808.23,-521.5 808.23,-446.3 632.41,-446.3"/>
<text text-anchor="middle" x="720.32" y="-504.9" font-family="Times,serif" font-size="14.00">&lt;&lt;Abstract&gt;&gt;</text>
<text text-anchor="middle" x="720.32" y="-488.1" font-family="Times,serif" font-size="14.00">AbstractSlippage</text>
<text text-anchor="start" x="640.41" y="-471.3" font-family="Times,serif" font-size="14.00">..contractsvault</text>
<text text-anchor="middle" x="720.32" y="-454.5" font-family="Times,serif" font-size="14.00">iquidityAbstractSlippage.sol</text>
</g>
<!-- 70&#45;&gt;17 -->
<g id="edge27" class="edge">
<title>70&#45;&gt;17</title>
<path fill="none" stroke="black" d="M682.16,-521.54C666.35,-536.73 647.77,-554.57 630.78,-570.88"/>
<polygon fill="none" stroke="black" points="623.38,-563.44 609.01,-591.79 637.92,-578.58 623.38,-563.44"/>
</g>
<!-- 98 -->
<g id="node19" class="node">
<title>98</title>
<polygon fill="#f2f2f2" stroke="black" points="1564.37,-283.7 1564.37,-358.9 1834.27,-358.9 1834.27,-283.7 1564.37,-283.7"/>
<text text-anchor="middle" x="1699.32" y="-342.3" font-family="Times,serif" font-size="14.00">&lt;&lt;Abstract&gt;&gt;</text>
<text text-anchor="middle" x="1699.32" y="-325.5" font-family="Times,serif" font-size="14.00">Convex3CrvAbstractVault</text>
<text text-anchor="start" x="1572.37" y="-308.7" font-family="Times,serif" font-size="14.00">..contractsvault</text>
<text text-anchor="middle" x="1699.32" y="-291.9" font-family="Times,serif" font-size="14.00">iquidityconvexConvex3CrvAbstractVault.sol</text>
</g>
<!-- 98&#45;&gt;32 -->
<g id="edge31" class="edge">
<title>98&#45;&gt;32</title>
<path fill="none" stroke="black" d="M1834.55,-329.77C1987.13,-340.52 2241.76,-365.5 2454.32,-420.6 2483.39,-428.14 2514.34,-439.61 2541,-450.67"/>
<polygon fill="black" stroke="black" points="2539.66,-453.91 2550.24,-454.56 2542.38,-447.46 2539.66,-453.91"/>
</g>
<!-- 98&#45;&gt;33 -->
<g id="edge32" class="edge">
<title>98&#45;&gt;33</title>
<path fill="none" stroke="black" d="M1713.31,-359.14C1723.08,-384.85 1736.07,-419.05 1745.92,-444.98"/>
<polygon fill="black" stroke="black" points="1742.7,-446.38 1749.53,-454.48 1749.25,-443.89 1742.7,-446.38"/>
</g>
<!-- 98&#45;&gt;38 -->
<g id="edge34" class="edge">
<title>98&#45;&gt;38</title>
<path fill="none" stroke="black" stroke-dasharray="5,2" d="M1816.37,-358.94C1905.78,-386.93 2027.67,-425.09 2112.49,-451.65"/>
<polygon fill="black" stroke="black" points="2111.54,-455.02 2122.13,-454.67 2113.64,-448.34 2111.54,-455.02"/>
</g>
<!-- 98&#45;&gt;42 -->
<g id="edge36" class="edge">
<title>98&#45;&gt;42</title>
<path fill="none" stroke="black" stroke-dasharray="5,2" d="M1834.56,-323.71C2018.78,-328.42 2335.56,-347.29 2421.32,-420.6 2465.98,-458.77 2423.33,-500.77 2459.32,-547.2 2471.55,-562.97 2488.22,-576.1 2505.27,-586.68"/>
<polygon fill="black" stroke="black" points="2503.82,-589.88 2514.21,-591.97 2507.39,-583.86 2503.82,-589.88"/>
</g>
<!-- 98&#45;&gt;45 -->
<g id="edge35" class="edge">
<title>98&#45;&gt;45</title>
<path fill="none" stroke="black" stroke-dasharray="5,2" d="M1834.45,-348.56C1879.46,-363.2 1926.65,-385.81 1960.32,-420.6 2001.64,-463.3 1963.32,-503.25 2003.32,-547.2 2018.68,-564.08 2038.69,-577.3 2059.4,-587.57"/>
<polygon fill="black" stroke="black" points="2058.08,-590.82 2068.62,-591.93 2061.08,-584.49 2058.08,-590.82"/>
</g>
<!-- 98&#45;&gt;27 -->
<g id="edge29" class="edge">
<title>98&#45;&gt;27</title>
<path fill="none" stroke="black" d="M1624.25,-358.94C1573.89,-383.53 1507.46,-415.95 1455.18,-441.48"/>
<polygon fill="none" stroke="black" points="1450.51,-432.07 1428.16,-454.67 1459.72,-450.94 1450.51,-432.07"/>
</g>
<!-- 98&#45;&gt;70 -->
<g id="edge28" class="edge">
<title>98&#45;&gt;70</title>
<path fill="none" stroke="black" d="M1568.15,-358.92C1528.06,-368.8 1483.64,-378.45 1442.32,-384.6 1304.71,-405.07 949.63,-377.6 817.32,-420.6 809.02,-423.3 800.74,-426.88 792.7,-430.97"/>
<polygon fill="none" stroke="black" points="787.21,-422.02 766.69,-446.29 797.87,-440.12 787.21,-422.02"/>
</g>
<!-- 366 -->
<g id="node25" class="node">
<title>366</title>
<polygon fill="#f2f2f2" stroke="black" points="1263.62,-808.1 1263.62,-883.3 1733.02,-883.3 1733.02,-808.1 1263.62,-808.1"/>
<text text-anchor="middle" x="1498.32" y="-866.7" font-family="Times,serif" font-size="14.00">&lt;&lt;Interface&gt;&gt;</text>
<text text-anchor="middle" x="1498.32" y="-849.9" font-family="Times,serif" font-size="14.00">IERC20Metadata</text>
<text text-anchor="middle" x="1498.32" y="-833.1" font-family="Times,serif" font-size="14.00">..</text>
<text text-anchor="middle" x="1498.32" y="-816.3" font-family="Times,serif" font-size="14.00">ode_modules@openzeppelincontractstokenRC20extensionsIERC20Metadata.sol</text>
</g>
<!-- 98&#45;&gt;366 -->
<g id="edge33" class="edge">
<title>98&#45;&gt;366</title>
<path fill="none" stroke="black" stroke-dasharray="5,2" d="M1834.28,-357.05C1868.74,-371.68 1902.89,-392.14 1927.32,-420.6 1965.19,-464.72 1940.33,-492.6 1960.32,-547.2 1972.87,-581.49 2023.23,-659.79 2031.32,-695.4 2038.82,-728.43 2053.58,-746.08 2031.32,-771.6 2011.33,-794.52 1873.74,-813.04 1743.38,-825.7"/>
<polygon fill="black" stroke="black" points="1742.82,-822.24 1733.2,-826.68 1743.49,-829.2 1742.82,-822.24"/>
</g>
<!-- 98&#45;&gt;369 -->
<g id="edge30" class="edge">
<title>98&#45;&gt;369</title>
<path fill="none" stroke="black" stroke-dasharray="5,2" d="M1643.47,-359.11C1623.78,-375.37 1603.91,-396.33 1593.32,-420.6 1570.81,-472.17 1567.16,-497.38 1593.32,-547.2 1599.32,-558.63 1608.02,-568.63 1617.88,-577.26"/>
<polygon fill="black" stroke="black" points="1615.67,-579.97 1625.62,-583.59 1620.09,-574.55 1615.67,-579.97"/>
</g>
<!-- 101 -->
<g id="node20" class="node">
<title>101</title>
<polygon fill="#f2f2f2" stroke="black" points="1376.53,-0.5 1376.53,-58.9 1658.11,-58.9 1658.11,-0.5 1376.53,-0.5"/>
<text text-anchor="middle" x="1517.32" y="-42.3" font-family="Times,serif" font-size="14.00">Convex3CrvLiquidatorVault</text>
<text text-anchor="start" x="1384.53" y="-25.5" font-family="Times,serif" font-size="14.00">..contractsvault</text>
<text text-anchor="middle" x="1517.32" y="-8.7" font-family="Times,serif" font-size="14.00">iquidityconvexConvex3CrvLiquidatorVault.sol</text>
</g>
<!-- 101&#45;&gt;42 -->
<g id="edge46" class="edge">
<title>101&#45;&gt;42</title>
<path fill="none" stroke="black" stroke-dasharray="5,2" d="M1658.34,-53.58C1955.62,-105 2630.23,-239.49 2763.32,-420.6 2796.64,-465.94 2794.88,-500.61 2763.32,-547.2 2753.48,-561.73 2722.13,-576.36 2688.09,-588.67"/>
<polygon fill="black" stroke="black" points="2686.7,-585.45 2678.44,-592.08 2689.03,-592.05 2686.7,-585.45"/>
</g>
<!-- 101&#45;&gt;17 -->
<g id="edge41" class="edge">
<title>101&#45;&gt;17</title>
<path fill="none" stroke="black" stroke-dasharray="5,2" d="M1376.31,-36.63C1183.42,-45.8 855.79,-65.54 809.32,-95.4 636.33,-206.57 592.75,-480.38 582.38,-581.75"/>
<polygon fill="black" stroke="black" points="578.88,-581.55 581.4,-591.85 585.85,-582.23 578.88,-581.55"/>
</g>
<!-- 101&#45;&gt;19 -->
<g id="edge44" class="edge">
<title>101&#45;&gt;19</title>
<path fill="none" stroke="black" stroke-dasharray="5,2" d="M1515.26,-59.07C1509.19,-134.77 1488.75,-338.89 1442.32,-384.6 1383.87,-442.14 1313.35,-357.2 1261.32,-420.6 1224.18,-465.85 1239.04,-538.21 1253.49,-582.28"/>
<polygon fill="black" stroke="black" points="1250.19,-583.44 1256.74,-591.77 1256.81,-581.18 1250.19,-583.44"/>
</g>
<!-- 101&#45;&gt;63 -->
<g id="edge43" class="edge">
<title>101&#45;&gt;63</title>
<path fill="none" stroke="black" stroke-dasharray="5,2" d="M1376.08,-33.06C1132.78,-38.21 654.42,-53.59 590.32,-95.4 479.68,-167.56 425.26,-320.25 401.7,-410.93"/>
<polygon fill="black" stroke="black" points="398.25,-410.31 399.18,-420.86 405.04,-412.03 398.25,-410.31"/>
</g>
<!-- 101&#45;&gt;66 -->
<g id="edge45" class="edge">
<title>101&#45;&gt;66</title>
<path fill="none" stroke="black" stroke-dasharray="5,2" d="M1501.8,-58.94C1495.95,-70.13 1489.47,-83.2 1484.32,-95.4 1461.2,-150.14 1481.93,-178.62 1441.32,-222 1430.48,-233.58 1418.07,-243.84 1404.73,-252.92"/>
<polygon fill="black" stroke="black" points="1402.77,-250.02 1396.32,-258.43 1406.6,-255.88 1402.77,-250.02"/>
</g>
<!-- 101&#45;&gt;68 -->
<g id="edge38" class="edge">
<title>101&#45;&gt;68</title>
<path fill="none" stroke="black" d="M1442.56,-59.04C1421.72,-66.94 1398.09,-75.9 1373.78,-85.12"/>
<polygon fill="none" stroke="black" points="1369.93,-75.35 1345.6,-95.8 1377.37,-94.98 1369.93,-75.35"/>
</g>
<!-- 101&#45;&gt;70 -->
<g id="edge42" class="edge">
<title>101&#45;&gt;70</title>
<path fill="none" stroke="black" stroke-dasharray="5,2" d="M1376.44,-31.06C1224.48,-34.02 994.67,-46.75 923.32,-95.4 803.47,-177.1 749.46,-352.57 729.76,-436.43"/>
<polygon fill="black" stroke="black" points="726.34,-435.66 727.52,-446.19 733.17,-437.22 726.34,-435.66"/>
</g>
<!-- 101&#45;&gt;98 -->
<g id="edge37" class="edge">
<title>101&#45;&gt;98</title>
<path fill="none" stroke="black" d="M1535.1,-59C1563.87,-104.76 1621.28,-196.12 1660.01,-257.75"/>
<polygon fill="none" stroke="black" points="1651.21,-263.49 1676.07,-283.3 1669,-252.31 1651.21,-263.49"/>
</g>
<!-- 241 -->
<g id="node21" class="node">
<title>241</title>
<polygon fill="#f2f2f2" stroke="black" points="2634.23,-121.1 2634.23,-196.3 3006.41,-196.3 3006.41,-121.1 2634.23,-121.1"/>
<text text-anchor="middle" x="2820.32" y="-179.7" font-family="Times,serif" font-size="14.00">&lt;&lt;Abstract&gt;&gt;</text>
<text text-anchor="middle" x="2820.32" y="-162.9" font-family="Times,serif" font-size="14.00">Initializable</text>
<text text-anchor="middle" x="2820.32" y="-146.1" font-family="Times,serif" font-size="14.00">..</text>
<text text-anchor="middle" x="2820.32" y="-129.3" font-family="Times,serif" font-size="14.00">ode_modules@openzeppelincontractsproxyutilsInitializable.sol</text>
</g>
<!-- 101&#45;&gt;241 -->
<g id="edge39" class="edge">
<title>101&#45;&gt;241</title>
<path fill="none" stroke="black" d="M1658.18,-34.7C1912.75,-42.63 2439.74,-62.49 2620.32,-95.4 2643.4,-99.61 2667.55,-105.65 2690.76,-112.34"/>
<polygon fill="none" stroke="black" points="2687.76,-122.4 2719.51,-121.06 2693.86,-102.3 2687.76,-122.4"/>
</g>
<!-- 101&#45;&gt;369 -->
<g id="edge40" class="edge">
<title>101&#45;&gt;369</title>
<path fill="none" stroke="black" stroke-dasharray="5,2" d="M1516.96,-58.95C1516.25,-154.73 1518.18,-465.74 1571.32,-547.2 1578.97,-558.93 1589.2,-568.98 1600.55,-577.54"/>
<polygon fill="black" stroke="black" points="1598.81,-580.6 1609,-583.51 1602.85,-574.88 1598.81,-580.6"/>
</g>
<!-- 160 -->
<g id="node28" class="node">
<title>160</title>
<polygon fill="#f2f2f2" stroke="black" points="2078.04,-695.9 2078.04,-771.1 2396.6,-771.1 2396.6,-695.9 2078.04,-695.9"/>
<text text-anchor="middle" x="2237.32" y="-754.5" font-family="Times,serif" font-size="14.00">&lt;&lt;Library&gt;&gt;</text>
<text text-anchor="middle" x="2237.32" y="-737.7" font-family="Times,serif" font-size="14.00">Address</text>
<text text-anchor="middle" x="2237.32" y="-720.9" font-family="Times,serif" font-size="14.00">..</text>
<text text-anchor="middle" x="2237.32" y="-704.1" font-family="Times,serif" font-size="14.00">ode_modules@openzeppelincontractsutilsAddress.sol</text>
</g>
<!-- 241&#45;&gt;160 -->
<g id="edge47" class="edge">
<title>241&#45;&gt;160</title>
<path fill="none" stroke="black" stroke-dasharray="5,2" d="M2827.52,-196.65C2844.28,-295.1 2873.42,-562.79 2717.32,-659.4 2666.3,-690.98 2523.61,-710.04 2406.96,-720.74"/>
<polygon fill="black" stroke="black" points="2406.48,-717.27 2396.83,-721.65 2407.11,-724.24 2406.48,-717.27"/>
</g>
<!-- 166 -->
<g id="node29" class="node">
<title>166</title>
<polygon fill="#f2f2f2" stroke="black" points="589.82,-808.1 589.82,-883.3 906.82,-883.3 906.82,-808.1 589.82,-808.1"/>
<text text-anchor="middle" x="748.32" y="-866.7" font-family="Times,serif" font-size="14.00">&lt;&lt;Abstract&gt;&gt;</text>
<text text-anchor="middle" x="748.32" y="-849.9" font-family="Times,serif" font-size="14.00">Context</text>
<text text-anchor="middle" x="748.32" y="-833.1" font-family="Times,serif" font-size="14.00">..</text>
<text text-anchor="middle" x="748.32" y="-816.3" font-family="Times,serif" font-size="14.00">ode_modules@openzeppelincontractsutilsContext.sol</text>
</g>
<!-- 157&#45;&gt;166 -->
<g id="edge48" class="edge">
<title>157&#45;&gt;166</title>
<path fill="none" stroke="black" d="M635.59,-771.2C645.52,-777.67 656.03,-784.52 666.49,-791.34"/>
<polygon fill="none" stroke="black" points="661.14,-800.39 692,-807.98 672.61,-782.8 661.14,-800.39"/>
</g>
<!-- 248&#45;&gt;249 -->
<g id="edge50" class="edge">
<title>248&#45;&gt;249</title>
<path fill="none" stroke="black" stroke-dasharray="5,2" d="M937.82,-762.93C935.37,-795.04 936.07,-847.52 960.32,-883.8 964.51,-890.06 969.42,-895.85 974.84,-901.19"/>
<polygon fill="none" stroke="black" points="968.59,-909.64 998.59,-920.15 981.7,-893.23 968.59,-909.64"/>
</g>
<!-- 248&#45;&gt;366 -->
<g id="edge51" class="edge">
<title>248&#45;&gt;366</title>
<path fill="none" stroke="black" stroke-dasharray="5,2" d="M1079.42,-762.78C1094.24,-765.78 1109.09,-768.76 1123.32,-771.6 1173.62,-781.63 1227.74,-792.27 1278.8,-802.23"/>
<polygon fill="none" stroke="black" points="1276.99,-812.58 1308.45,-808.02 1281.01,-791.97 1276.99,-812.58"/>
</g>
<!-- 248&#45;&gt;166 -->
<g id="edge49" class="edge">
<title>248&#45;&gt;166</title>
<path fill="none" stroke="black" d="M891.87,-762.74C875.66,-771.99 857.11,-782.58 838.84,-793.01"/>
<polygon fill="none" stroke="black" points="833.44,-784.01 812.59,-808 843.85,-802.25 833.44,-784.01"/>
</g>
<!-- 366&#45;&gt;249 -->
<g id="edge52" class="edge">
<title>366&#45;&gt;249</title>
<path fill="none" stroke="black" stroke-dasharray="5,2" d="M1362.08,-883.32C1327.41,-892.64 1289.77,-902.75 1253.82,-912.42"/>
<polygon fill="none" stroke="black" points="1251.02,-902.3 1224.78,-920.22 1256.47,-922.58 1251.02,-902.3"/>
</g>
<!-- 354 -->
<g id="node26" class="node">
<title>354</title>
<polygon fill="#f2f2f2" stroke="black" points="1536.45,-695.9 1536.45,-771.1 2022.19,-771.1 2022.19,-695.9 1536.45,-695.9"/>
<text text-anchor="middle" x="1779.32" y="-754.5" font-family="Times,serif" font-size="14.00">&lt;&lt;Interface&gt;&gt;</text>
<text text-anchor="middle" x="1779.32" y="-737.7" font-family="Times,serif" font-size="14.00">IERC20Permit</text>
<text text-anchor="middle" x="1779.32" y="-720.9" font-family="Times,serif" font-size="14.00">..</text>
<text text-anchor="middle" x="1779.32" y="-704.1" font-family="Times,serif" font-size="14.00">ode_modules@openzeppelincontractstokenRC20extensionsdraft&#45;IERC20Permit.sol</text>
</g>
<!-- 369&#45;&gt;249 -->
<g id="edge54" class="edge">
<title>369&#45;&gt;249</title>
<path fill="none" stroke="black" stroke-dasharray="5,2" d="M1566.35,-658.95C1550.97,-668.44 1537.26,-680.38 1527.32,-695.4 1508.63,-723.65 1505.44,-745.75 1527.32,-771.6 1589.92,-845.55 1679.72,-733.65 1742.32,-807.6 1764.2,-833.45 1764.9,-858.56 1742.32,-883.8 1711.6,-918.14 1459.88,-938.23 1277.9,-948.39"/>
<polygon fill="black" stroke="black" points="1277.44,-944.91 1267.65,-948.96 1277.83,-951.9 1277.44,-944.91"/>
</g>
<!-- 369&#45;&gt;354 -->
<g id="edge55" class="edge">
<title>369&#45;&gt;354</title>
<path fill="none" stroke="black" stroke-dasharray="5,2" d="M1725.96,-659C1732.57,-668.1 1739.73,-677.96 1746.59,-687.42"/>
<polygon fill="black" stroke="black" points="1743.82,-689.55 1752.52,-695.59 1749.48,-685.44 1743.82,-689.55"/>
</g>
<!-- 369&#45;&gt;160 -->
<g id="edge53" class="edge">
<title>369&#45;&gt;160</title>
<path fill="none" stroke="black" stroke-dasharray="5,2" d="M1878.09,-658.92C1939.21,-671.44 2007.35,-685.4 2067.72,-697.76"/>
<polygon fill="black" stroke="black" points="2067.23,-701.23 2077.73,-699.81 2068.64,-694.38 2067.23,-701.23"/>
</g>
</g>
</svg>
