<?xml version="1.0" encoding="UTF-8" standalone="no"?>
<!DOCTYPE svg PUBLIC "-//W3C//DTD SVG 1.1//EN"
 "http://www.w3.org/Graphics/SVG/1.1/DTD/svg11.dtd">
<!-- Generated by graphviz version 5.0.0 (20220707.1540)
 -->
<!-- Title: UmlClassDiagram Pages: 1 -->
<svg width="2917pt" height="718pt"
 viewBox="0.00 0.00 2916.54 718.40" xmlns="http://www.w3.org/2000/svg" xmlns:xlink="http://www.w3.org/1999/xlink">
<g id="graph0" class="graph" transform="scale(1 1) rotate(0) translate(4 714.4)">
<title>UmlClassDiagram</title>
<polygon fill="white" stroke="transparent" points="-4,4 -4,-714.4 2912.54,-714.4 2912.54,4 -4,4"/>
<!-- 7 -->
<g id="node1" class="node">
<title>7</title>
<polygon fill="#f2f2f2" stroke="black" points="1195.56,-556.1 1195.56,-614.5 1445.99,-614.5 1445.99,-556.1 1195.56,-556.1"/>
<text text-anchor="middle" x="1320.77" y="-597.9" font-family="Times,serif" font-size="14.00">&lt;&lt;Interface&gt;&gt;</text>
<text text-anchor="middle" x="1320.77" y="-581.1" font-family="Times,serif" font-size="14.00">IERC4626Vault</text>
<text text-anchor="middle" x="1320.77" y="-564.3" font-family="Times,serif" font-size="14.00">../contracts/interfaces/IERC4626Vault.sol</text>
</g>
<!-- 430 -->
<g id="node24" class="node">
<title>430</title>
<polygon fill="#f2f2f2" stroke="black" points="1118.72,-651.5 1118.72,-709.9 1522.83,-709.9 1522.83,-651.5 1118.72,-651.5"/>
<text text-anchor="middle" x="1320.77" y="-693.3" font-family="Times,serif" font-size="14.00">&lt;&lt;Interface&gt;&gt;</text>
<text text-anchor="middle" x="1320.77" y="-676.5" font-family="Times,serif" font-size="14.00">IERC20</text>
<text text-anchor="middle" x="1320.77" y="-659.7" font-family="Times,serif" font-size="14.00">../node_modules/@openzeppelin/contracts/token/ERC20/IERC20.sol</text>
</g>
<!-- 7&#45;&gt;430 -->
<g id="edge1" class="edge">
<title>7&#45;&gt;430</title>
<path fill="none" stroke="black" stroke-dasharray="5,2" d="M1320.77,-614.58C1320.77,-616.66 1320.77,-618.8 1320.77,-620.98"/>
<polygon fill="none" stroke="black" points="1310.27,-621.2 1320.77,-651.2 1331.27,-621.2 1310.27,-621.2"/>
</g>
<!-- 8 -->
<g id="node2" class="node">
<title>8</title>
<polygon fill="#f2f2f2" stroke="black" points="2598.62,-365.3 2598.62,-423.7 2852.93,-423.7 2852.93,-365.3 2598.62,-365.3"/>
<text text-anchor="middle" x="2725.77" y="-407.1" font-family="Times,serif" font-size="14.00">&lt;&lt;Interface&gt;&gt;</text>
<text text-anchor="middle" x="2725.77" y="-390.3" font-family="Times,serif" font-size="14.00">ILiquidatorVault</text>
<text text-anchor="middle" x="2725.77" y="-373.5" font-family="Times,serif" font-size="14.00">../contracts/interfaces/ILiquidatorVault.sol</text>
</g>
<!-- 10 -->
<g id="node3" class="node">
<title>10</title>
<polygon fill="#f2f2f2" stroke="black" points="2135.83,-556.1 2135.83,-614.5 2335.71,-614.5 2335.71,-556.1 2135.83,-556.1"/>
<text text-anchor="middle" x="2235.77" y="-597.9" font-family="Times,serif" font-size="14.00">&lt;&lt;Interface&gt;&gt;</text>
<text text-anchor="middle" x="2235.77" y="-581.1" font-family="Times,serif" font-size="14.00">INexus</text>
<text text-anchor="middle" x="2235.77" y="-564.3" font-family="Times,serif" font-size="14.00">../contracts/interfaces/INexus.sol</text>
</g>
<!-- 78 -->
<g id="node4" class="node">
<title>78</title>
<polygon fill="#f2f2f2" stroke="black" points="1081.28,-269.9 1081.28,-328.3 1382.27,-328.3 1382.27,-269.9 1081.28,-269.9"/>
<text text-anchor="middle" x="1231.77" y="-311.7" font-family="Times,serif" font-size="14.00">&lt;&lt;Interface&gt;&gt;</text>
<text text-anchor="middle" x="1231.77" y="-294.9" font-family="Times,serif" font-size="14.00">IConvexBooster</text>
<text text-anchor="middle" x="1231.77" y="-278.1" font-family="Times,serif" font-size="14.00">../contracts/peripheral/Convex/IConvexBooster.sol</text>
</g>
<!-- 79 -->
<g id="node5" class="node">
<title>79</title>
<polygon fill="#f2f2f2" stroke="black" points="730.72,-269.9 730.72,-328.3 1062.82,-328.3 1062.82,-269.9 730.72,-269.9"/>
<text text-anchor="middle" x="896.77" y="-311.7" font-family="Times,serif" font-size="14.00">&lt;&lt;Interface&gt;&gt;</text>
<text text-anchor="middle" x="896.77" y="-294.9" font-family="Times,serif" font-size="14.00">IConvexRewardsPool</text>
<text text-anchor="middle" x="896.77" y="-278.1" font-family="Times,serif" font-size="14.00">../contracts/peripheral/Convex/IConvexRewardsPool.sol</text>
</g>
<!-- 93 -->
<g id="node6" class="node">
<title>93</title>
<polygon fill="#f2f2f2" stroke="black" points="168.75,-269.9 168.75,-328.3 598.8,-328.3 598.8,-269.9 168.75,-269.9"/>
<text text-anchor="middle" x="383.77" y="-311.7" font-family="Times,serif" font-size="14.00">&lt;&lt;Library&gt;&gt;</text>
<text text-anchor="middle" x="383.77" y="-294.9" font-family="Times,serif" font-size="14.00">CurveFraxBpMetapoolCalculatorLibrary</text>
<text text-anchor="middle" x="383.77" y="-278.1" font-family="Times,serif" font-size="14.00">../contracts/peripheral/Curve/CurveFraxBpMetapoolCalculatorLibrary.sol</text>
</g>
<!-- 96 -->
<g id="node7" class="node">
<title>96</title>
<polygon fill="#f2f2f2" stroke="black" points="0,-365.3 0,-423.7 281.55,-423.7 281.55,-365.3 0,-365.3"/>
<text text-anchor="middle" x="140.77" y="-407.1" font-family="Times,serif" font-size="14.00">&lt;&lt;Interface&gt;&gt;</text>
<text text-anchor="middle" x="140.77" y="-390.3" font-family="Times,serif" font-size="14.00">ICurveFraxBP</text>
<text text-anchor="middle" x="140.77" y="-373.5" font-family="Times,serif" font-size="14.00">../contracts/peripheral/Curve/ICurveFraxBP.sol</text>
</g>
<!-- 93&#45;&gt;96 -->
<g id="edge2" class="edge">
<title>93&#45;&gt;96</title>
<path fill="none" stroke="black" d="M310.21,-328.38C282.97,-338.84 251.91,-350.78 223.89,-361.55"/>
<polygon fill="black" stroke="black" points="222.59,-358.3 214.51,-365.16 225.1,-364.84 222.59,-358.3"/>
</g>
<!-- 98 -->
<g id="node8" class="node">
<title>98</title>
<polygon fill="#f2f2f2" stroke="black" points="397.57,-365.3 397.57,-423.7 689.98,-423.7 689.98,-365.3 397.57,-365.3"/>
<text text-anchor="middle" x="543.77" y="-407.1" font-family="Times,serif" font-size="14.00">&lt;&lt;Interface&gt;&gt;</text>
<text text-anchor="middle" x="543.77" y="-390.3" font-family="Times,serif" font-size="14.00">ICurveMetapool</text>
<text text-anchor="middle" x="543.77" y="-373.5" font-family="Times,serif" font-size="14.00">../contracts/peripheral/Curve/ICurveMetapool.sol</text>
</g>
<!-- 93&#45;&gt;98 -->
<g id="edge4" class="edge">
<title>93&#45;&gt;98</title>
<path fill="none" stroke="black" stroke-dasharray="5,2" d="M432.21,-328.38C449.21,-338.3 468.47,-349.54 486.15,-359.86"/>
<polygon fill="black" stroke="black" points="484.82,-363.14 495.22,-365.16 488.35,-357.09 484.82,-363.14"/>
</g>
<!-- 93&#45;&gt;430 -->
<g id="edge3" class="edge">
<title>93&#45;&gt;430</title>
<path fill="none" stroke="black" stroke-dasharray="5,2" d="M378.23,-328.52C374.57,-354.92 372.97,-394.5 388.77,-424.2 456.1,-550.73 514.86,-563.9 648.77,-615 730.16,-646.05 943.58,-662.86 1108.27,-671.49"/>
<polygon fill="black" stroke="black" points="1108.39,-675 1118.55,-672.02 1108.75,-668.01 1108.39,-675"/>
</g>
<!-- 17 -->
<g id="node9" class="node">
<title>17</title>
<polygon fill="#f2f2f2" stroke="black" points="2236.89,-460.7 2236.89,-519.1 2482.66,-519.1 2482.66,-460.7 2236.89,-460.7"/>
<text text-anchor="middle" x="2359.77" y="-502.5" font-family="Times,serif" font-size="14.00">&lt;&lt;Abstract&gt;&gt;</text>
<text text-anchor="middle" x="2359.77" y="-485.7" font-family="Times,serif" font-size="14.00">ImmutableModule</text>
<text text-anchor="middle" x="2359.77" y="-468.9" font-family="Times,serif" font-size="14.00">../contracts/shared/ImmutableModule.sol</text>
</g>
<!-- 17&#45;&gt;10 -->
<g id="edge6" class="edge">
<title>17&#45;&gt;10</title>
<path fill="none" stroke="black" d="M2322.23,-519.18C2309.48,-528.78 2295.09,-539.62 2281.76,-549.67"/>
<polygon fill="black" stroke="black" points="2279.5,-546.99 2273.62,-555.8 2283.71,-552.58 2279.5,-546.99"/>
</g>
<!-- 19 -->
<g id="node10" class="node">
<title>19</title>
<polygon fill="#f2f2f2" stroke="black" points="2353.82,-564.5 2353.82,-606.1 2567.72,-606.1 2567.72,-564.5 2353.82,-564.5"/>
<text text-anchor="middle" x="2460.77" y="-589.5" font-family="Times,serif" font-size="14.00">ModuleKeys</text>
<text text-anchor="middle" x="2460.77" y="-572.7" font-family="Times,serif" font-size="14.00">../contracts/shared/ModuleKeys.sol</text>
</g>
<!-- 17&#45;&gt;19 -->
<g id="edge5" class="edge">
<title>17&#45;&gt;19</title>
<path fill="none" stroke="black" d="M2390.35,-519.18C2398.74,-526.93 2408,-535.5 2416.98,-543.8"/>
<polygon fill="none" stroke="black" points="2410.12,-551.75 2439.27,-564.41 2424.37,-536.34 2410.12,-551.75"/>
</g>
<!-- 23 -->
<g id="node11" class="node">
<title>23</title>
<polygon fill="#f2f2f2" stroke="black" points="1861.34,-365.3 1861.34,-423.7 2110.21,-423.7 2110.21,-365.3 1861.34,-365.3"/>
<text text-anchor="middle" x="1985.77" y="-407.1" font-family="Times,serif" font-size="14.00">&lt;&lt;Abstract&gt;&gt;</text>
<text text-anchor="middle" x="1985.77" y="-390.3" font-family="Times,serif" font-size="14.00">VaultManagerRole</text>
<text text-anchor="middle" x="1985.77" y="-373.5" font-family="Times,serif" font-size="14.00">../contracts/shared/VaultManagerRole.sol</text>
</g>
<!-- 23&#45;&gt;17 -->
<g id="edge8" class="edge">
<title>23&#45;&gt;17</title>
<path fill="none" stroke="black" d="M2098.75,-423.71C2136.1,-433.04 2178.16,-443.55 2217.43,-453.35"/>
<polygon fill="none" stroke="black" points="2215.14,-463.6 2246.79,-460.68 2220.22,-443.23 2215.14,-463.6"/>
</g>
<!-- 281 -->
<g id="node22" class="node">
<title>281</title>
<polygon fill="#f2f2f2" stroke="black" points="1804.73,-460.7 1804.73,-519.1 2180.82,-519.1 2180.82,-460.7 1804.73,-460.7"/>
<text text-anchor="middle" x="1992.77" y="-502.5" font-family="Times,serif" font-size="14.00">&lt;&lt;Abstract&gt;&gt;</text>
<text text-anchor="middle" x="1992.77" y="-485.7" font-family="Times,serif" font-size="14.00">Pausable</text>
<text text-anchor="middle" x="1992.77" y="-468.9" font-family="Times,serif" font-size="14.00">../node_modules/@openzeppelin/contracts/security/Pausable.sol</text>
</g>
<!-- 23&#45;&gt;281 -->
<g id="edge7" class="edge">
<title>23&#45;&gt;281</title>
<path fill="none" stroke="black" d="M1987.89,-423.78C1988.06,-425.95 1988.22,-428.19 1988.4,-430.47"/>
<polygon fill="none" stroke="black" points="1977.93,-431.27 1990.64,-460.4 1998.87,-429.7 1977.93,-431.27"/>
</g>
<!-- 25 -->
<g id="node12" class="node">
<title>25</title>
<polygon fill="#f2f2f2" stroke="black" points="1048.67,-365.3 1048.67,-423.7 1292.88,-423.7 1292.88,-365.3 1048.67,-365.3"/>
<text text-anchor="middle" x="1170.77" y="-407.1" font-family="Times,serif" font-size="14.00">&lt;&lt;Abstract&gt;&gt;</text>
<text text-anchor="middle" x="1170.77" y="-390.3" font-family="Times,serif" font-size="14.00">InitializableToken</text>
<text text-anchor="middle" x="1170.77" y="-373.5" font-family="Times,serif" font-size="14.00">../contracts/tokens/InitializableToken.sol</text>
</g>
<!-- 26 -->
<g id="node13" class="node">
<title>26</title>
<polygon fill="#f2f2f2" stroke="black" points="1008.84,-460.7 1008.84,-519.1 1292.71,-519.1 1292.71,-460.7 1008.84,-460.7"/>
<text text-anchor="middle" x="1150.77" y="-502.5" font-family="Times,serif" font-size="14.00">&lt;&lt;Abstract&gt;&gt;</text>
<text text-anchor="middle" x="1150.77" y="-485.7" font-family="Times,serif" font-size="14.00">InitializableTokenDetails</text>
<text text-anchor="middle" x="1150.77" y="-468.9" font-family="Times,serif" font-size="14.00">../contracts/tokens/InitializableTokenDetails.sol</text>
</g>
<!-- 25&#45;&gt;26 -->
<g id="edge10" class="edge">
<title>25&#45;&gt;26</title>
<path fill="none" stroke="black" d="M1164.72,-423.78C1164.22,-426.13 1163.69,-428.56 1163.16,-431.04"/>
<polygon fill="none" stroke="black" points="1152.89,-428.86 1156.88,-460.4 1173.43,-433.26 1152.89,-428.86"/>
</g>
<!-- 429 -->
<g id="node23" class="node">
<title>429</title>
<polygon fill="#f2f2f2" stroke="black" points="1349.05,-469.1 1349.05,-510.7 1748.5,-510.7 1748.5,-469.1 1349.05,-469.1"/>
<text text-anchor="middle" x="1548.77" y="-494.1" font-family="Times,serif" font-size="14.00">ERC20</text>
<text text-anchor="middle" x="1548.77" y="-477.3" font-family="Times,serif" font-size="14.00">../node_modules/@openzeppelin/contracts/token/ERC20/ERC20.sol</text>
</g>
<!-- 25&#45;&gt;429 -->
<g id="edge9" class="edge">
<title>25&#45;&gt;429</title>
<path fill="none" stroke="black" d="M1284.96,-423.71C1333.89,-435.8 1390.79,-449.86 1439.2,-461.83"/>
<polygon fill="none" stroke="black" points="1436.83,-472.06 1468.48,-469.06 1441.87,-451.67 1436.83,-472.06"/>
</g>
<!-- 39 -->
<g id="node14" class="node">
<title>39</title>
<polygon fill="#f2f2f2" stroke="black" points="1437.99,-269.9 1437.99,-328.3 1649.56,-328.3 1649.56,-269.9 1437.99,-269.9"/>
<text text-anchor="middle" x="1543.77" y="-311.7" font-family="Times,serif" font-size="14.00">&lt;&lt;Abstract&gt;&gt;</text>
<text text-anchor="middle" x="1543.77" y="-294.9" font-family="Times,serif" font-size="14.00">AbstractVault</text>
<text text-anchor="middle" x="1543.77" y="-278.1" font-family="Times,serif" font-size="14.00">../contracts/vault/AbstractVault.sol</text>
</g>
<!-- 39&#45;&gt;7 -->
<g id="edge11" class="edge">
<title>39&#45;&gt;7</title>
<path fill="none" stroke="black" stroke-dasharray="5,2" d="M1487.68,-328.38C1440.17,-355.45 1374.4,-400.92 1339.77,-460.2 1328.35,-479.76 1323.07,-503.89 1320.83,-525.66"/>
<polygon fill="none" stroke="black" points="1310.32,-525.51 1319.36,-555.98 1331.3,-526.52 1310.32,-525.51"/>
</g>
<!-- 39&#45;&gt;23 -->
<g id="edge13" class="edge">
<title>39&#45;&gt;23</title>
<path fill="none" stroke="black" d="M1649.63,-326.73C1652.71,-327.43 1655.76,-328.13 1658.77,-328.8 1715,-341.37 1776.96,-353.95 1831.68,-364.63"/>
<polygon fill="none" stroke="black" points="1829.8,-374.96 1861.25,-370.36 1833.79,-354.34 1829.8,-374.96"/>
</g>
<!-- 39&#45;&gt;25 -->
<g id="edge12" class="edge">
<title>39&#45;&gt;25</title>
<path fill="none" stroke="black" d="M1437.89,-326.61C1398.97,-336.36 1354.25,-347.56 1312.68,-357.97"/>
<polygon fill="none" stroke="black" points="1310,-347.81 1283.45,-365.29 1315.1,-368.19 1310,-347.81"/>
</g>
<!-- 39&#45;&gt;430 -->
<g id="edge15" class="edge">
<title>39&#45;&gt;430</title>
<path fill="none" stroke="black" d="M1591.03,-328.36C1637.16,-357.49 1707.55,-406.16 1757.77,-460.2 1779.11,-483.16 1772.92,-498.15 1795.77,-519.6 1819.85,-542.2 1844.01,-527.15 1860.77,-555.6 1874.18,-578.34 1878.3,-595.25 1860.77,-615 1838.51,-640.09 1674.61,-657.26 1533.15,-667.57"/>
<polygon fill="black" stroke="black" points="1532.73,-664.09 1523.01,-668.3 1533.23,-671.07 1532.73,-664.09"/>
</g>
<!-- 696 -->
<g id="node26" class="node">
<title>696</title>
<polygon fill="#f2f2f2" stroke="black" points="2128.61,-365.3 2128.61,-423.7 2580.94,-423.7 2580.94,-365.3 2128.61,-365.3"/>
<text text-anchor="middle" x="2354.77" y="-407.1" font-family="Times,serif" font-size="14.00">&lt;&lt;Library&gt;&gt;</text>
<text text-anchor="middle" x="2354.77" y="-390.3" font-family="Times,serif" font-size="14.00">SafeERC20</text>
<text text-anchor="middle" x="2354.77" y="-373.5" font-family="Times,serif" font-size="14.00">../node_modules/@openzeppelin/contracts/token/ERC20/utils/SafeERC20.sol</text>
</g>
<!-- 39&#45;&gt;696 -->
<g id="edge14" class="edge">
<title>39&#45;&gt;696</title>
<path fill="none" stroke="black" stroke-dasharray="5,2" d="M1649.85,-327.25C1652.85,-327.8 1655.83,-328.32 1658.77,-328.8 1857.92,-361.21 1912.96,-344.96 2118.18,-364.77"/>
<polygon fill="black" stroke="black" points="2118.1,-368.28 2128.39,-365.77 2118.78,-361.31 2118.1,-368.28"/>
</g>
<!-- 161 -->
<g id="node15" class="node">
<title>161</title>
<polygon fill="#f2f2f2" stroke="black" points="2561.28,-269.9 2561.28,-328.3 2890.27,-328.3 2890.27,-269.9 2561.28,-269.9"/>
<text text-anchor="middle" x="2725.77" y="-311.7" font-family="Times,serif" font-size="14.00">&lt;&lt;Abstract&gt;&gt;</text>
<text text-anchor="middle" x="2725.77" y="-294.9" font-family="Times,serif" font-size="14.00">LiquidatorAbstractVault</text>
<text text-anchor="middle" x="2725.77" y="-278.1" font-family="Times,serif" font-size="14.00">../contracts/vault/liquidator/LiquidatorAbstractVault.sol</text>
</g>
<!-- 161&#45;&gt;8 -->
<g id="edge16" class="edge">
<title>161&#45;&gt;8</title>
<path fill="none" stroke="black" stroke-dasharray="5,2" d="M2725.77,-328.38C2725.77,-330.46 2725.77,-332.6 2725.77,-334.78"/>
<polygon fill="none" stroke="black" points="2715.27,-335 2725.77,-365 2736.27,-335 2715.27,-335"/>
</g>
<!-- 161&#45;&gt;23 -->
<g id="edge17" class="edge">
<title>161&#45;&gt;23</title>
<path fill="none" stroke="black" d="M2560.99,-327.75C2558.24,-328.11 2555.49,-328.46 2552.77,-328.8 2371.06,-351.39 2316.39,-338.08 2140.44,-361.98"/>
<polygon fill="none" stroke="black" points="2138.73,-351.62 2110.5,-366.24 2141.68,-372.41 2138.73,-351.62"/>
</g>
<!-- 161&#45;&gt;430 -->
<g id="edge19" class="edge">
<title>161&#45;&gt;430</title>
<path fill="none" stroke="black" stroke-dasharray="5,2" d="M2821.35,-328.43C2837.4,-337.48 2852,-349.33 2861.77,-364.8 2898.52,-422.97 2901.97,-463.76 2861.77,-519.6 2783.74,-628.01 2708.01,-590.14 2576.77,-615 2383.08,-651.7 1837.72,-668.82 1533.18,-675.72"/>
<polygon fill="black" stroke="black" points="1532.81,-672.22 1522.89,-675.95 1532.97,-679.22 1532.81,-672.22"/>
</g>
<!-- 161&#45;&gt;696 -->
<g id="edge18" class="edge">
<title>161&#45;&gt;696</title>
<path fill="none" stroke="black" stroke-dasharray="5,2" d="M2613.71,-328.31C2570.47,-339.2 2520.9,-351.68 2476.77,-362.79"/>
<polygon fill="black" stroke="black" points="2475.7,-359.45 2466.86,-365.28 2477.41,-366.24 2475.7,-359.45"/>
</g>
<!-- 164 -->
<g id="node16" class="node">
<title>164</title>
<polygon fill="#f2f2f2" stroke="black" points="2016.46,-174.5 2016.46,-232.9 2385.09,-232.9 2385.09,-174.5 2016.46,-174.5"/>
<text text-anchor="middle" x="2200.77" y="-216.3" font-family="Times,serif" font-size="14.00">&lt;&lt;Abstract&gt;&gt;</text>
<text text-anchor="middle" x="2200.77" y="-199.5" font-family="Times,serif" font-size="14.00">LiquidatorStreamAbstractVault</text>
<text text-anchor="middle" x="2200.77" y="-182.7" font-family="Times,serif" font-size="14.00">../contracts/vault/liquidator/LiquidatorStreamAbstractVault.sol</text>
</g>
<!-- 164&#45;&gt;39 -->
<g id="edge20" class="edge">
<title>164&#45;&gt;39</title>
<path fill="none" stroke="black" d="M2016.15,-220.93C1919.05,-230.8 1797.42,-245.25 1679.14,-265.87"/>
<polygon fill="none" stroke="black" points="1677.24,-255.54 1649.56,-271.17 1680.95,-276.21 1677.24,-255.54"/>
</g>
<!-- 164&#45;&gt;161 -->
<g id="edge21" class="edge">
<title>164&#45;&gt;161</title>
<path fill="none" stroke="black" d="M2359.36,-232.91C2415.4,-242.88 2478.97,-254.19 2537.24,-264.56"/>
<polygon fill="none" stroke="black" points="2535.79,-274.97 2567.17,-269.88 2539.47,-254.29 2535.79,-274.97"/>
</g>
<!-- 164&#45;&gt;429 -->
<g id="edge24" class="edge">
<title>164&#45;&gt;429</title>
<path fill="none" stroke="black" stroke-dasharray="5,2" d="M2150.34,-232.93C2101.66,-259.55 2025.44,-299.61 1956.77,-328.8 1911.76,-347.93 1898.54,-347.55 1852.77,-364.8 1765.3,-397.77 1665.16,-439.42 1604.47,-465.1"/>
<polygon fill="black" stroke="black" points="1602.92,-461.96 1595.08,-469.08 1605.65,-468.4 1602.92,-461.96"/>
</g>
<!-- 164&#45;&gt;696 -->
<g id="edge22" class="edge">
<title>164&#45;&gt;696</title>
<path fill="none" stroke="black" stroke-dasharray="5,2" d="M2169.75,-233.13C2160.53,-243.54 2151.61,-256.06 2146.77,-269.4 2137.78,-294.22 2131.12,-307.54 2146.77,-328.8 2156.06,-341.42 2167.79,-351.64 2180.93,-359.92"/>
<polygon fill="black" stroke="black" points="2179.35,-363.06 2189.75,-365.09 2182.89,-357.02 2179.35,-363.06"/>
</g>
<!-- 457 -->
<g id="node29" class="node">
<title>457</title>
<polygon fill="#f2f2f2" stroke="black" points="2155.89,-269.9 2155.89,-328.3 2543.66,-328.3 2543.66,-269.9 2155.89,-269.9"/>
<text text-anchor="middle" x="2349.77" y="-311.7" font-family="Times,serif" font-size="14.00">&lt;&lt;Library&gt;&gt;</text>
<text text-anchor="middle" x="2349.77" y="-294.9" font-family="Times,serif" font-size="14.00">SafeCast</text>
<text text-anchor="middle" x="2349.77" y="-278.1" font-family="Times,serif" font-size="14.00">../node_modules/@openzeppelin/contracts/utils/math/SafeCast.sol</text>
</g>
<!-- 164&#45;&gt;457 -->
<g id="edge23" class="edge">
<title>164&#45;&gt;457</title>
<path fill="none" stroke="black" stroke-dasharray="5,2" d="M2245.88,-232.98C2261.57,-242.81 2279.32,-253.93 2295.65,-264.17"/>
<polygon fill="black" stroke="black" points="2294.23,-267.41 2304.56,-269.76 2297.95,-261.48 2294.23,-267.41"/>
</g>
<!-- 166 -->
<g id="node17" class="node">
<title>166</title>
<polygon fill="#f2f2f2" stroke="black" points="2054.35,-79.1 2054.35,-137.5 2443.2,-137.5 2443.2,-79.1 2054.35,-79.1"/>
<text text-anchor="middle" x="2248.77" y="-120.9" font-family="Times,serif" font-size="14.00">&lt;&lt;Abstract&gt;&gt;</text>
<text text-anchor="middle" x="2248.77" y="-104.1" font-family="Times,serif" font-size="14.00">LiquidatorStreamFeeAbstractVault</text>
<text text-anchor="middle" x="2248.77" y="-87.3" font-family="Times,serif" font-size="14.00">../contracts/vault/liquidator/LiquidatorStreamFeeAbstractVault.sol</text>
</g>
<!-- 166&#45;&gt;164 -->
<g id="edge25" class="edge">
<title>166&#45;&gt;164</title>
<path fill="none" stroke="black" d="M2234.24,-137.58C2232.61,-140.75 2230.91,-144.05 2229.18,-147.42"/>
<polygon fill="none" stroke="black" points="2219.8,-142.72 2215.42,-174.2 2238.47,-152.31 2219.8,-142.72"/>
</g>
<!-- 166&#45;&gt;457 -->
<g id="edge26" class="edge">
<title>166&#45;&gt;457</title>
<path fill="none" stroke="black" stroke-dasharray="5,2" d="M2352.74,-137.69C2369,-146.69 2383.72,-158.51 2393.77,-174 2411.21,-200.88 2396.37,-235.52 2379.36,-261.37"/>
<polygon fill="black" stroke="black" points="2376.36,-259.56 2373.56,-269.78 2382.12,-263.54 2376.36,-259.56"/>
</g>
<!-- 168 -->
<g id="node18" class="node">
<title>168</title>
<polygon fill="#f2f2f2" stroke="black" points="1667.38,-269.9 1667.38,-328.3 1948.17,-328.3 1948.17,-269.9 1667.38,-269.9"/>
<text text-anchor="middle" x="1807.77" y="-311.7" font-family="Times,serif" font-size="14.00">&lt;&lt;Abstract&gt;&gt;</text>
<text text-anchor="middle" x="1807.77" y="-294.9" font-family="Times,serif" font-size="14.00">AbstractSlippage</text>
<text text-anchor="middle" x="1807.77" y="-278.1" font-family="Times,serif" font-size="14.00">../contracts/vault/liquidity/AbstractSlippage.sol</text>
</g>
<!-- 168&#45;&gt;23 -->
<g id="edge27" class="edge">
<title>168&#45;&gt;23</title>
<path fill="none" stroke="black" d="M1861.66,-328.38C1875.37,-335.57 1890.39,-343.45 1905.11,-351.18"/>
<polygon fill="none" stroke="black" points="1900.32,-360.52 1931.76,-365.16 1910.08,-341.92 1900.32,-360.52"/>
</g>
<!-- 246 -->
<g id="node19" class="node">
<title>246</title>
<polygon fill="#f2f2f2" stroke="black" points="1347.39,-174.5 1347.39,-232.9 1740.16,-232.9 1740.16,-174.5 1347.39,-174.5"/>
<text text-anchor="middle" x="1543.77" y="-216.3" font-family="Times,serif" font-size="14.00">&lt;&lt;Abstract&gt;&gt;</text>
<text text-anchor="middle" x="1543.77" y="-199.5" font-family="Times,serif" font-size="14.00">ConvexFraxBpAbstractVault</text>
<text text-anchor="middle" x="1543.77" y="-182.7" font-family="Times,serif" font-size="14.00">../contracts/vault/liquidity/convex/ConvexFraxBpAbstractVault.sol</text>
</g>
<!-- 246&#45;&gt;78 -->
<g id="edge32" class="edge">
<title>246&#45;&gt;78</title>
<path fill="none" stroke="black" d="M1449.32,-232.98C1413.51,-243.7 1372.55,-255.96 1335.89,-266.93"/>
<polygon fill="black" stroke="black" points="1334.76,-263.62 1326.18,-269.84 1336.76,-270.32 1334.76,-263.62"/>
</g>
<!-- 246&#45;&gt;79 -->
<g id="edge33" class="edge">
<title>246&#45;&gt;79</title>
<path fill="none" stroke="black" d="M1347.11,-230.59C1265.41,-241.63 1169.38,-254.97 1072.97,-269.38"/>
<polygon fill="black" stroke="black" points="1072.41,-265.93 1063.04,-270.87 1073.45,-272.85 1072.41,-265.93"/>
</g>
<!-- 246&#45;&gt;93 -->
<g id="edge35" class="edge">
<title>246&#45;&gt;93</title>
<path fill="none" stroke="black" stroke-dasharray="5,2" d="M1347.19,-216.97C1166.15,-228.74 890.16,-247.87 650.77,-269.4 637.23,-270.62 623.31,-271.93 609.26,-273.3"/>
<polygon fill="black" stroke="black" points="608.63,-269.85 599.02,-274.31 609.32,-276.81 608.63,-269.85"/>
</g>
<!-- 246&#45;&gt;96 -->
<g id="edge31" class="edge">
<title>246&#45;&gt;96</title>
<path fill="none" stroke="black" d="M1347.19,-207.38C975.58,-213.34 203.13,-230.38 159.77,-269.4 136.5,-290.34 133.36,-326.86 135.09,-354.87"/>
<polygon fill="black" stroke="black" points="131.63,-355.48 135.96,-365.15 138.61,-354.89 131.63,-355.48"/>
</g>
<!-- 246&#45;&gt;98 -->
<g id="edge36" class="edge">
<title>246&#45;&gt;98</title>
<path fill="none" stroke="black" stroke-dasharray="5,2" d="M1347.35,-211.38C1113,-220.62 745.53,-239.61 688.77,-269.4 658.72,-285.17 665.85,-305.92 640.77,-328.8 628.64,-339.87 614.45,-350.43 600.73,-359.68"/>
<polygon fill="black" stroke="black" points="598.68,-356.84 592.27,-365.27 602.54,-362.68 598.68,-356.84"/>
</g>
<!-- 246&#45;&gt;39 -->
<g id="edge29" class="edge">
<title>246&#45;&gt;39</title>
<path fill="none" stroke="black" d="M1543.77,-232.98C1543.77,-235.06 1543.77,-237.2 1543.77,-239.38"/>
<polygon fill="none" stroke="black" points="1533.27,-239.6 1543.77,-269.6 1554.27,-239.6 1533.27,-239.6"/>
</g>
<!-- 246&#45;&gt;168 -->
<g id="edge28" class="edge">
<title>246&#45;&gt;168</title>
<path fill="none" stroke="black" d="M1623.7,-232.98C1647.5,-241.4 1673.99,-250.77 1699.28,-259.72"/>
<polygon fill="none" stroke="black" points="1695.88,-269.65 1727.67,-269.76 1702.89,-249.85 1695.88,-269.65"/>
</g>
<!-- 691 -->
<g id="node25" class="node">
<title>691</title>
<polygon fill="#f2f2f2" stroke="black" points="658.18,-556.1 658.18,-614.5 1177.37,-614.5 1177.37,-556.1 658.18,-556.1"/>
<text text-anchor="middle" x="917.77" y="-597.9" font-family="Times,serif" font-size="14.00">&lt;&lt;Interface&gt;&gt;</text>
<text text-anchor="middle" x="917.77" y="-581.1" font-family="Times,serif" font-size="14.00">IERC20Metadata</text>
<text text-anchor="middle" x="917.77" y="-564.3" font-family="Times,serif" font-size="14.00">../node_modules/@openzeppelin/contracts/token/ERC20/extensions/IERC20Metadata.sol</text>
</g>
<!-- 246&#45;&gt;691 -->
<g id="edge34" class="edge">
<title>246&#45;&gt;691</title>
<path fill="none" stroke="black" stroke-dasharray="5,2" d="M1347.34,-206.47C1117.67,-210.63 763.41,-224.36 721.77,-269.4 638.84,-359.12 786.5,-488.82 868.5,-549.96"/>
<polygon fill="black" stroke="black" points="866.58,-552.89 876.71,-556.01 870.74,-547.26 866.58,-552.89"/>
</g>
<!-- 246&#45;&gt;696 -->
<g id="edge30" class="edge">
<title>246&#45;&gt;696</title>
<path fill="none" stroke="black" stroke-dasharray="5,2" d="M1740.2,-222.93C1809.69,-232.65 1887.73,-247.34 1956.77,-269.4 2013.08,-287.39 2020.15,-308.79 2075.77,-328.8 2113.3,-342.3 2154.69,-353.7 2193.85,-362.97"/>
<polygon fill="black" stroke="black" points="2193.22,-366.42 2203.76,-365.29 2194.82,-359.61 2193.22,-366.42"/>
</g>
<!-- 249 -->
<g id="node20" class="node">
<title>249</title>
<polygon fill="#f2f2f2" stroke="black" points="1767.56,-0.5 1767.56,-42.1 2171.99,-42.1 2171.99,-0.5 1767.56,-0.5"/>
<text text-anchor="middle" x="1969.77" y="-25.5" font-family="Times,serif" font-size="14.00">ConvexFraxBpLiquidatorVault</text>
<text text-anchor="middle" x="1969.77" y="-8.7" font-family="Times,serif" font-size="14.00">../contracts/vault/liquidity/convex/ConvexFraxBpLiquidatorVault.sol</text>
</g>
<!-- 249&#45;&gt;93 -->
<g id="edge47" class="edge">
<title>249&#45;&gt;93</title>
<path fill="none" stroke="black" stroke-dasharray="5,2" d="M1767.28,-22.84C1414.77,-24.93 715.91,-34.65 612.77,-78.6 521.83,-117.36 445.83,-209.68 408.53,-261.4"/>
<polygon fill="black" stroke="black" points="405.61,-259.47 402.67,-269.64 411.32,-263.52 405.61,-259.47"/>
</g>
<!-- 249&#45;&gt;96 -->
<g id="edge46" class="edge">
<title>249&#45;&gt;96</title>
<path fill="none" stroke="black" stroke-dasharray="5,2" d="M1767.5,-25.51C1397.37,-32.07 638.16,-48.95 520.77,-78.6 334.07,-125.76 233.64,-105.98 131.77,-269.4 115.94,-294.81 119.89,-329.08 126.84,-355.17"/>
<polygon fill="black" stroke="black" points="123.57,-356.47 129.73,-365.09 130.29,-354.51 123.57,-356.47"/>
</g>
<!-- 249&#45;&gt;98 -->
<g id="edge48" class="edge">
<title>249&#45;&gt;98</title>
<path fill="none" stroke="black" stroke-dasharray="5,2" d="M1849.03,-42.15C1786.01,-52.66 1707.68,-65.99 1637.77,-78.6 1193.79,-158.72 1006.27,-4.92 640.77,-269.4 616.31,-287.1 625.9,-304.64 607.77,-328.8 600.29,-338.77 591.34,-348.75 582.54,-357.77"/>
<polygon fill="black" stroke="black" points="579.81,-355.56 575.22,-365.11 584.76,-360.5 579.81,-355.56"/>
</g>
<!-- 249&#45;&gt;23 -->
<g id="edge42" class="edge">
<title>249&#45;&gt;23</title>
<path fill="none" stroke="black" stroke-dasharray="5,2" d="M1969.95,-42.1C1970.34,-79.5 1971.53,-163.09 1974.77,-233.4 1976.69,-274.91 1980.11,-322.39 1982.63,-354.8"/>
<polygon fill="black" stroke="black" points="1979.17,-355.49 1983.44,-365.18 1986.15,-354.94 1979.17,-355.49"/>
</g>
<!-- 249&#45;&gt;25 -->
<g id="edge41" class="edge">
<title>249&#45;&gt;25</title>
<path fill="none" stroke="black" stroke-dasharray="5,2" d="M1942.37,-42.29C1928.62,-52.68 1911.91,-65.84 1897.77,-78.6 1826.88,-142.57 1834.41,-191.16 1748.77,-233.4 1620.42,-296.71 1550.27,-193.76 1428.77,-269.4 1402.17,-285.96 1415.84,-309.99 1390.77,-328.8 1365.13,-348.05 1333.85,-361.59 1303.02,-371.11"/>
<polygon fill="black" stroke="black" points="1301.63,-367.87 1293.03,-374.06 1303.61,-374.58 1301.63,-367.87"/>
</g>
<!-- 249&#45;&gt;161 -->
<g id="edge44" class="edge">
<title>249&#45;&gt;161</title>
<path fill="none" stroke="black" stroke-dasharray="5,2" d="M2172.02,-28.72C2282.25,-35.55 2405.44,-49.61 2451.77,-78.6 2478.34,-95.22 2467.91,-115.54 2489.77,-138 2540.92,-190.55 2611.88,-235.88 2662.61,-264.76"/>
<polygon fill="black" stroke="black" points="2661.09,-267.92 2671.52,-269.78 2664.52,-261.82 2661.09,-267.92"/>
</g>
<!-- 249&#45;&gt;164 -->
<g id="edge45" class="edge">
<title>249&#45;&gt;164</title>
<path fill="none" stroke="black" stroke-dasharray="5,2" d="M1981.94,-42.17C2001.15,-73.33 2037.2,-130.88 2045.77,-138 2061.4,-150.96 2079.98,-161.66 2098.77,-170.36"/>
<polygon fill="black" stroke="black" points="2097.43,-173.6 2107.99,-174.47 2100.28,-167.2 2097.43,-173.6"/>
</g>
<!-- 249&#45;&gt;166 -->
<g id="edge38" class="edge">
<title>249&#45;&gt;166</title>
<path fill="none" stroke="black" d="M2034.84,-42.12C2062.31,-50.49 2095.23,-60.52 2126.92,-70.18"/>
<polygon fill="none" stroke="black" points="2124.33,-80.36 2156.09,-79.06 2130.45,-60.28 2124.33,-80.36"/>
</g>
<!-- 249&#45;&gt;168 -->
<g id="edge43" class="edge">
<title>249&#45;&gt;168</title>
<path fill="none" stroke="black" stroke-dasharray="5,2" d="M1958.12,-42.13C1931.21,-87.95 1864.37,-201.74 1829.59,-260.96"/>
<polygon fill="black" stroke="black" points="1826.54,-259.24 1824.5,-269.63 1832.58,-262.78 1826.54,-259.24"/>
</g>
<!-- 249&#45;&gt;246 -->
<g id="edge37" class="edge">
<title>249&#45;&gt;246</title>
<path fill="none" stroke="black" d="M1870.03,-42.16C1832.79,-51.15 1790.63,-63.26 1753.77,-78.6 1702.82,-99.8 1649.33,-131.58 1609.09,-157.66"/>
<polygon fill="none" stroke="black" points="1603.03,-149.08 1583.83,-174.42 1614.63,-166.58 1603.03,-149.08"/>
</g>
<!-- 424 -->
<g id="node21" class="node">
<title>424</title>
<polygon fill="#f2f2f2" stroke="black" points="2499.01,-79.1 2499.01,-137.5 2908.54,-137.5 2908.54,-79.1 2499.01,-79.1"/>
<text text-anchor="middle" x="2703.77" y="-120.9" font-family="Times,serif" font-size="14.00">&lt;&lt;Abstract&gt;&gt;</text>
<text text-anchor="middle" x="2703.77" y="-104.1" font-family="Times,serif" font-size="14.00">Initializable</text>
<text text-anchor="middle" x="2703.77" y="-87.3" font-family="Times,serif" font-size="14.00">../node_modules/@openzeppelin/contracts/proxy/utils/Initializable.sol</text>
</g>
<!-- 249&#45;&gt;424 -->
<g id="edge39" class="edge">
<title>249&#45;&gt;424</title>
<path fill="none" stroke="black" d="M2160.05,-42.12C2249.28,-51.64 2357.84,-63.55 2469.05,-76.75"/>
<polygon fill="none" stroke="black" points="2467.88,-87.18 2498.92,-80.32 2470.37,-66.33 2467.88,-87.18"/>
</g>
<!-- 249&#45;&gt;696 -->
<g id="edge40" class="edge">
<title>249&#45;&gt;696</title>
<path fill="none" stroke="black" stroke-dasharray="5,2" d="M1971.52,-42.23C1975.84,-88.43 1988.16,-201.31 2007.77,-233.4 2048.5,-300.04 2125.14,-339.25 2196.05,-362.16"/>
<polygon fill="black" stroke="black" points="2195.43,-365.63 2206.02,-365.28 2197.52,-358.95 2195.43,-365.63"/>
</g>
<!-- 284 -->
<g id="node27" class="node">
<title>284</title>
<polygon fill="#f2f2f2" stroke="black" points="2500.77,-460.7 2500.77,-519.1 2852.77,-519.1 2852.77,-460.7 2500.77,-460.7"/>
<text text-anchor="middle" x="2676.77" y="-502.5" font-family="Times,serif" font-size="14.00">&lt;&lt;Library&gt;&gt;</text>
<text text-anchor="middle" x="2676.77" y="-485.7" font-family="Times,serif" font-size="14.00">Address</text>
<text text-anchor="middle" x="2676.77" y="-468.9" font-family="Times,serif" font-size="14.00">../node_modules/@openzeppelin/contracts/utils/Address.sol</text>
</g>
<!-- 424&#45;&gt;284 -->
<g id="edge49" class="edge">
<title>424&#45;&gt;284</title>
<path fill="none" stroke="black" stroke-dasharray="5,2" d="M2760.55,-137.56C2807.32,-164.35 2870.41,-209.41 2898.77,-269.4 2910.06,-293.27 2903.63,-302.85 2898.77,-328.8 2890.41,-373.5 2894.47,-392.59 2861.77,-424.2 2848.03,-437.49 2831.4,-448.07 2813.82,-456.48"/>
<polygon fill="black" stroke="black" points="2812.21,-453.36 2804.55,-460.68 2815.1,-459.74 2812.21,-453.36"/>
</g>
<!-- 290 -->
<g id="node28" class="node">
<title>290</title>
<polygon fill="#f2f2f2" stroke="black" points="1501.55,-556.1 1501.55,-614.5 1852,-614.5 1852,-556.1 1501.55,-556.1"/>
<text text-anchor="middle" x="1676.77" y="-597.9" font-family="Times,serif" font-size="14.00">&lt;&lt;Abstract&gt;&gt;</text>
<text text-anchor="middle" x="1676.77" y="-581.1" font-family="Times,serif" font-size="14.00">Context</text>
<text text-anchor="middle" x="1676.77" y="-564.3" font-family="Times,serif" font-size="14.00">../node_modules/@openzeppelin/contracts/utils/Context.sol</text>
</g>
<!-- 281&#45;&gt;290 -->
<g id="edge50" class="edge">
<title>281&#45;&gt;290</title>
<path fill="none" stroke="black" d="M1897.11,-519.18C1867.01,-528.07 1833.32,-538.03 1801.52,-547.43"/>
<polygon fill="none" stroke="black" points="1798.18,-537.47 1772.39,-556.04 1804.14,-557.6 1798.18,-537.47"/>
</g>
<!-- 429&#45;&gt;430 -->
<g id="edge52" class="edge">
<title>429&#45;&gt;430</title>
<path fill="none" stroke="black" stroke-dasharray="5,2" d="M1530.09,-510.96C1518.81,-523.43 1504.42,-540.01 1492.77,-555.6 1474.03,-580.71 1478.22,-594.2 1454.77,-615 1445.61,-623.13 1435.24,-630.47 1424.43,-637.03"/>
<polygon fill="none" stroke="black" points="1419.34,-627.85 1397.93,-651.34 1429.32,-646.33 1419.34,-627.85"/>
</g>
<!-- 429&#45;&gt;691 -->
<g id="edge53" class="edge">
<title>429&#45;&gt;691</title>
<path fill="none" stroke="black" stroke-dasharray="5,2" d="M1414.96,-510.71C1334.66,-522.59 1230.54,-538 1138.35,-551.65"/>
<polygon fill="none" stroke="black" points="1136.7,-541.28 1108.56,-556.06 1139.77,-562.05 1136.7,-541.28"/>
</g>
<!-- 429&#45;&gt;290 -->
<g id="edge51" class="edge">
<title>429&#45;&gt;290</title>
<path fill="none" stroke="black" d="M1575.92,-510.71C1586.99,-518.79 1600.29,-528.49 1613.55,-538.17"/>
<polygon fill="none" stroke="black" points="1607.59,-546.81 1638.01,-556.02 1619.97,-529.85 1607.59,-546.81"/>
</g>
<!-- 691&#45;&gt;430 -->
<g id="edge54" class="edge">
<title>691&#45;&gt;430</title>
<path fill="none" stroke="black" stroke-dasharray="5,2" d="M1039.51,-614.51C1080.45,-624 1126.63,-634.71 1169.56,-644.66"/>
<polygon fill="none" stroke="black" points="1167.43,-654.94 1199.03,-651.48 1172.17,-634.48 1167.43,-654.94"/>
</g>
<!-- 696&#45;&gt;430 -->
<g id="edge56" class="edge">
<title>696&#45;&gt;430</title>
<path fill="none" stroke="black" stroke-dasharray="5,2" d="M2282.99,-423.79C2263.73,-433.5 2243.82,-445.66 2227.77,-460.2 2204.56,-481.25 2214.6,-500.47 2189.77,-519.6 2135.04,-561.79 1961.34,-600.45 1893.77,-615 1775.74,-640.42 1641.74,-656.25 1533.01,-665.88"/>
<polygon fill="black" stroke="black" points="1532.56,-662.41 1522.91,-666.77 1533.17,-669.38 1532.56,-662.41"/>
</g>
<!-- 696&#45;&gt;284 -->
<g id="edge55" class="edge">
<title>696&#45;&gt;284</title>
<path fill="none" stroke="black" stroke-dasharray="5,2" d="M2452.26,-423.78C2489.22,-434.5 2531.49,-446.76 2569.32,-457.73"/>
<polygon fill="black" stroke="black" points="2568.76,-461.21 2579.34,-460.64 2570.71,-454.49 2568.76,-461.21"/>
</g>
</g>
</svg>
