<?xml version="1.0" encoding="UTF-8" standalone="no"?>
<!DOCTYPE svg PUBLIC "-//W3C//DTD SVG 1.1//EN"
 "http://www.w3.org/Graphics/SVG/1.1/DTD/svg11.dtd">
<!-- Generated by graphviz version 5.0.0 (20220707.1540)
 -->
<!-- Title: UmlClassDiagram Pages: 1 -->
<svg width="582pt" height="225pt"
 viewBox="0.00 0.00 582.44 224.60" xmlns="http://www.w3.org/2000/svg" xmlns:xlink="http://www.w3.org/1999/xlink">
<g id="graph0" class="graph" transform="scale(1 1) rotate(0) translate(4 220.6)">
<title>UmlClassDiagram</title>
<polygon fill="white" stroke="transparent" points="-4,4 -4,-220.6 578.44,-220.6 578.44,4 -4,4"/>
<!-- 82 -->
<g id="node1" class="node">
<title>82</title>
<polygon fill="#f2f2f2" stroke="black" points="0,-79.1 0,-137.5 311.11,-137.5 311.11,-79.1 0,-79.1"/>
<text text-anchor="middle" x="155.55" y="-120.9" font-family="Times,serif" font-size="14.00">&lt;&lt;Abstract&gt;&gt;</text>
<text text-anchor="middle" x="155.55" y="-104.1" font-family="Times,serif" font-size="14.00">CowSwapSeller</text>
<text text-anchor="middle" x="155.55" y="-87.3" font-family="Times,serif" font-size="14.00">../contracts/peripheral/Cowswap/CowSwapSeller.sol</text>
</g>
<!-- 18 -->
<g id="node3" class="node">
<title>18</title>
<polygon fill="#f2f2f2" stroke="black" points="1.97,-174.5 1.97,-216.1 309.14,-216.1 309.14,-174.5 1.97,-174.5"/>
<text text-anchor="middle" x="155.55" y="-199.5" font-family="Times,serif" font-size="14.00">InitializableReentrancyGuard</text>
<text text-anchor="middle" x="155.55" y="-182.7" font-family="Times,serif" font-size="14.00">../contracts/shared/InitializableReentrancyGuard.sol</text>
</g>
<!-- 82&#45;&gt;18 -->
<g id="edge1" class="edge">
<title>82&#45;&gt;18</title>
<path fill="none" stroke="black" d="M155.55,-137.6C155.55,-139.77 155.55,-142 155.55,-144.25"/>
<polygon fill="none" stroke="black" points="145.05,-144.44 155.55,-174.44 166.05,-144.44 145.05,-144.44"/>
</g>
<!-- 17 -->
<g id="node2" class="node">
<title>17</title>
<polygon fill="#f2f2f2" stroke="black" points="328.67,-79.1 328.67,-137.5 574.44,-137.5 574.44,-79.1 328.67,-79.1"/>
<text text-anchor="middle" x="451.55" y="-120.9" font-family="Times,serif" font-size="14.00">&lt;&lt;Abstract&gt;&gt;</text>
<text text-anchor="middle" x="451.55" y="-104.1" font-family="Times,serif" font-size="14.00">ImmutableModule</text>
<text text-anchor="middle" x="451.55" y="-87.3" font-family="Times,serif" font-size="14.00">../contracts/shared/ImmutableModule.sol</text>
</g>
<!-- 19 -->
<g id="node4" class="node">
<title>19</title>
<polygon fill="#f2f2f2" stroke="black" points="344.6,-174.5 344.6,-216.1 558.5,-216.1 558.5,-174.5 344.6,-174.5"/>
<text text-anchor="middle" x="451.55" y="-199.5" font-family="Times,serif" font-size="14.00">ModuleKeys</text>
<text text-anchor="middle" x="451.55" y="-182.7" font-family="Times,serif" font-size="14.00">../contracts/shared/ModuleKeys.sol</text>
</g>
<!-- 17&#45;&gt;19 -->
<g id="edge2" class="edge">
<title>17&#45;&gt;19</title>
<path fill="none" stroke="black" d="M451.55,-137.6C451.55,-139.77 451.55,-142 451.55,-144.25"/>
<polygon fill="none" stroke="black" points="441.05,-144.44 451.55,-174.44 462.05,-144.44 441.05,-144.44"/>
</g>
<!-- 182 -->
<g id="node5" class="node">
<title>182</title>
<polygon fill="#f2f2f2" stroke="black" points="180.27,-0.5 180.27,-42.1 426.84,-42.1 426.84,-0.5 180.27,-0.5"/>
<text text-anchor="middle" x="303.55" y="-25.5" font-family="Times,serif" font-size="14.00">CowSwapDex</text>
<text text-anchor="middle" x="303.55" y="-8.7" font-family="Times,serif" font-size="14.00">../contracts/vault/swap/CowSwapDex.sol</text>
</g>
<!-- 182&#45;&gt;82 -->
<g id="edge3" class="edge">
<title>182&#45;&gt;82</title>
<path fill="none" stroke="black" d="M268.85,-42.23C257.47,-48.77 244.33,-56.31 231.13,-63.9"/>
<polygon fill="none" stroke="black" points="225.67,-54.92 204.89,-78.97 236.13,-73.13 225.67,-54.92"/>
</g>
<!-- 182&#45;&gt;17 -->
<g id="edge4" class="edge">
<title>182&#45;&gt;17</title>
<path fill="none" stroke="black" d="M338.25,-42.23C349.64,-48.77 362.78,-56.31 375.98,-63.9"/>
<polygon fill="none" stroke="black" points="370.98,-73.13 402.22,-78.97 381.44,-54.92 370.98,-73.13"/>
</g>
</g>
</svg>
