<?xml version="1.0" encoding="UTF-8" standalone="no"?>
<!DOCTYPE svg PUBLIC "-//W3C//DTD SVG 1.1//EN"
 "http://www.w3.org/Graphics/SVG/1.1/DTD/svg11.dtd">
<!-- Generated by graphviz version 5.0.0 (20220707.1540)
 -->
<!-- Title: UmlClassDiagram Pages: 1 -->
<svg width="255pt" height="225pt"
 viewBox="0.00 0.00 254.58 224.60" xmlns="http://www.w3.org/2000/svg" xmlns:xlink="http://www.w3.org/1999/xlink">
<g id="graph0" class="graph" transform="scale(1 1) rotate(0) translate(4 220.6)">
<title>UmlClassDiagram</title>
<polygon fill="white" stroke="transparent" points="-4,4 -4,-220.6 250.58,-220.6 250.58,4 -4,4"/>
<!-- 12 -->
<g id="node1" class="node">
<title>12</title>
<polygon fill="#f2f2f2" stroke="black" points="0.4,-79.1 0.4,-137.5 246.18,-137.5 246.18,-79.1 0.4,-79.1"/>
<text text-anchor="middle" x="123.29" y="-120.9" font-family="Times,serif" font-size="14.00">&lt;&lt;Abstract&gt;&gt;</text>
<text text-anchor="middle" x="123.29" y="-104.1" font-family="Times,serif" font-size="14.00">ImmutableModule</text>
<text text-anchor="middle" x="123.29" y="-87.3" font-family="Times,serif" font-size="14.00">../contracts/shared/ImmutableModule.sol</text>
</g>
<!-- 14 -->
<g id="node2" class="node">
<title>14</title>
<polygon fill="#f2f2f2" stroke="black" points="16.34,-174.5 16.34,-216.1 230.24,-216.1 230.24,-174.5 16.34,-174.5"/>
<text text-anchor="middle" x="123.29" y="-199.5" font-family="Times,serif" font-size="14.00">ModuleKeys</text>
<text text-anchor="middle" x="123.29" y="-182.7" font-family="Times,serif" font-size="14.00">../contracts/shared/ModuleKeys.sol</text>
</g>
<!-- 12&#45;&gt;14 -->
<g id="edge1" class="edge">
<title>12&#45;&gt;14</title>
<path fill="none" stroke="black" d="M123.29,-137.6C123.29,-139.77 123.29,-142 123.29,-144.25"/>
<polygon fill="none" stroke="black" points="112.79,-144.44 123.29,-174.44 133.79,-144.44 112.79,-144.44"/>
</g>
<!-- 76 -->
<g id="node3" class="node">
<title>76</title>
<polygon fill="#f2f2f2" stroke="black" points="0,-0.5 0,-42.1 246.58,-42.1 246.58,-0.5 0,-0.5"/>
<text text-anchor="middle" x="123.29" y="-25.5" font-family="Times,serif" font-size="14.00">CowSwapDex</text>
<text text-anchor="middle" x="123.29" y="-8.7" font-family="Times,serif" font-size="14.00">../contracts/vault/swap/CowSwapDex.sol</text>
</g>
<!-- 76&#45;&gt;12 -->
<g id="edge2" class="edge">
<title>76&#45;&gt;12</title>
<path fill="none" stroke="black" d="M123.29,-42.44C123.29,-44.49 123.29,-46.63 123.29,-48.83"/>
<polygon fill="none" stroke="black" points="112.79,-48.94 123.29,-78.94 133.79,-48.94 112.79,-48.94"/>
</g>
</g>
</svg>
