<?xml version="1.0" encoding="UTF-8" standalone="no"?>
<!DOCTYPE svg PUBLIC "-//W3C//DTD SVG 1.1//EN"
 "http://www.w3.org/Graphics/SVG/1.1/DTD/svg11.dtd">
<!-- Generated by graphviz version 5.0.0 (20220707.1540)
 -->
<!-- Title: UmlClassDiagram Pages: 1 -->
<svg width="242pt" height="225pt"
 viewBox="0.00 0.00 242.11 224.60" xmlns="http://www.w3.org/2000/svg" xmlns:xlink="http://www.w3.org/1999/xlink">
<g id="graph0" class="graph" transform="scale(1 1) rotate(0) translate(4 220.6)">
<title>UmlClassDiagram</title>
<polygon fill="white" stroke="transparent" points="-4,4 -4,-220.6 238.11,-220.6 238.11,4 -4,4"/>
<!-- 13 -->
<g id="node1" class="node">
<title>13</title>
<polygon fill="#f2f2f2" stroke="black" points="0,-79.1 0,-137.5 234.11,-137.5 234.11,-79.1 0,-79.1"/>
<text text-anchor="middle" x="117.05" y="-120.9" font-family="Times,serif" font-size="14.00">&lt;&lt;Abstract&gt;&gt;</text>
<text text-anchor="middle" x="117.05" y="-104.1" font-family="Times,serif" font-size="14.00">ImmutableModule</text>
<text text-anchor="middle" x="117.05" y="-87.3" font-family="Times,serif" font-size="14.00">..contractssharedImmutableModule.sol</text>
</g>
<!-- 15 -->
<g id="node2" class="node">
<title>15</title>
<polygon fill="#f2f2f2" stroke="black" points="15.94,-174.5 15.94,-216.1 218.17,-216.1 218.17,-174.5 15.94,-174.5"/>
<text text-anchor="middle" x="117.05" y="-199.5" font-family="Times,serif" font-size="14.00">ModuleKeys</text>
<text text-anchor="middle" x="117.05" y="-182.7" font-family="Times,serif" font-size="14.00">..contractssharedModuleKeys.sol</text>
</g>
<!-- 13&#45;&gt;15 -->
<g id="edge1" class="edge">
<title>13&#45;&gt;15</title>
<path fill="none" stroke="black" d="M117.05,-137.6C117.05,-139.77 117.05,-142 117.05,-144.25"/>
<polygon fill="none" stroke="black" points="106.55,-144.44 117.05,-174.44 127.55,-144.44 106.55,-144.44"/>
</g>
<!-- 76 -->
<g id="node3" class="node">
<title>76</title>
<polygon fill="#f2f2f2" stroke="black" points="1.54,-0.5 1.54,-42.1 232.56,-42.1 232.56,-0.5 1.54,-0.5"/>
<text text-anchor="middle" x="117.05" y="-25.5" font-family="Times,serif" font-size="14.00">CowSwapDex</text>
<text text-anchor="middle" x="117.05" y="-8.7" font-family="Times,serif" font-size="14.00">..contractsvaultswapCowSwapDex.sol</text>
</g>
<!-- 76&#45;&gt;13 -->
<g id="edge2" class="edge">
<title>76&#45;&gt;13</title>
<path fill="none" stroke="black" d="M117.05,-42.44C117.05,-44.49 117.05,-46.63 117.05,-48.83"/>
<polygon fill="none" stroke="black" points="106.55,-48.94 117.05,-78.94 127.55,-48.94 106.55,-48.94"/>
</g>
</g>
</svg>
