<?xml version="1.0" encoding="UTF-8" standalone="no"?>
<!DOCTYPE svg PUBLIC "-//W3C//DTD SVG 1.1//EN"
 "http://www.w3.org/Graphics/SVG/1.1/DTD/svg11.dtd">
<!-- Generated by graphviz version 5.0.0 (20220707.1540)
 -->
<!-- Title: UmlClassDiagram Pages: 1 -->
<svg width="1802pt" height="1049pt"
 viewBox="0.00 0.00 1801.62 1048.80" xmlns="http://www.w3.org/2000/svg" xmlns:xlink="http://www.w3.org/1999/xlink">
<g id="graph0" class="graph" transform="scale(1 1) rotate(0) translate(4 1044.8)">
<title>UmlClassDiagram</title>
<polygon fill="white" stroke="transparent" points="-4,4 -4,-1044.8 1797.62,-1044.8 1797.62,4 -4,4"/>
<!-- 38 -->
<g id="node1" class="node">
<title>38</title>
<polygon fill="#f2f2f2" stroke="black" points="657,-0.5 657,-150.9 968.11,-150.9 968.11,-0.5 657,-0.5"/>
<text text-anchor="middle" x="812.55" y="-134.3" font-family="Times,serif" font-size="14.00">&lt;&lt;Struct&gt;&gt;</text>
<text text-anchor="middle" x="812.55" y="-117.5" font-family="Times,serif" font-size="14.00">CowSwapData</text>
<text text-anchor="middle" x="812.55" y="-100.7" font-family="Times,serif" font-size="14.00">../contracts/peripheral/Cowswap/CowSwapSeller.sol</text>
<polyline fill="none" stroke="black" points="657,-92.5 968.11,-92.5 "/>
<text text-anchor="start" x="665" y="-75.9" font-family="Times,serif" font-size="14.00">fromAsset: address</text>
<text text-anchor="start" x="665" y="-59.1" font-family="Times,serif" font-size="14.00">toAsset: address</text>
<text text-anchor="start" x="665" y="-42.3" font-family="Times,serif" font-size="14.00">receiver: address</text>
<text text-anchor="start" x="665" y="-25.5" font-family="Times,serif" font-size="14.00">fromAssetAmount: uint256</text>
<text text-anchor="start" x="665" y="-8.7" font-family="Times,serif" font-size="14.00">fromAssetFeeAmount: uint256</text>
</g>
<!-- 37 -->
<g id="node3" class="node">
<title>37</title>
<polygon fill="#f2f2f2" stroke="black" points="448.73,-187.9 448.73,-497.5 1176.37,-497.5 1176.37,-187.9 448.73,-187.9"/>
<text text-anchor="middle" x="812.55" y="-480.9" font-family="Times,serif" font-size="14.00">&lt;&lt;Abstract&gt;&gt;</text>
<text text-anchor="middle" x="812.55" y="-464.1" font-family="Times,serif" font-size="14.00">CowSwapSeller</text>
<text text-anchor="middle" x="812.55" y="-447.3" font-family="Times,serif" font-size="14.00">../contracts/peripheral/Cowswap/CowSwapSeller.sol</text>
<polyline fill="none" stroke="black" points="448.73,-439.1 1176.37,-439.1 "/>
<text text-anchor="start" x="456.73" y="-422.5" font-family="Times,serif" font-size="14.00">Public:</text>
<text text-anchor="start" x="456.73" y="-405.7" font-family="Times,serif" font-size="14.00"> &#160;&#160;RELAYER: address</text>
<text text-anchor="start" x="456.73" y="-388.9" font-family="Times,serif" font-size="14.00"> &#160;&#160;SETTLEMENT: ICowSettlement</text>
<polyline fill="none" stroke="black" points="448.73,-380.7 1176.37,-380.7 "/>
<text text-anchor="start" x="456.73" y="-364.1" font-family="Times,serif" font-size="14.00">Internal:</text>
<text text-anchor="start" x="456.73" y="-347.3" font-family="Times,serif" font-size="14.00"> &#160;&#160;&#160;_initiateCowswapOrder(orderUid: bytes, orderData: CowSwapData)</text>
<text text-anchor="start" x="456.73" y="-330.5" font-family="Times,serif" font-size="14.00"> &#160;&#160;&#160;_initiateCowswapOrder(orderUids: bytes[], ordersData: CowSwapData[])</text>
<text text-anchor="start" x="456.73" y="-313.7" font-family="Times,serif" font-size="14.00"> &#160;&#160;&#160;_cancelCowSwapOrder(orderUid: bytes)</text>
<text text-anchor="start" x="456.73" y="-296.9" font-family="Times,serif" font-size="14.00"> &#160;&#160;&#160;_cancelCowSwapOrder(orderUids: bytes[])</text>
<text text-anchor="start" x="456.73" y="-280.1" font-family="Times,serif" font-size="14.00"> &#160;&#160;&#160;_settleCowSwapOrder(orderUid: bytes, tradeData: CowSwapTrade)</text>
<text text-anchor="start" x="456.73" y="-263.3" font-family="Times,serif" font-size="14.00">Public:</text>
<text text-anchor="start" x="456.73" y="-246.5" font-family="Times,serif" font-size="14.00"> &#160;&#160;&#160;&lt;&lt;event&gt;&gt; SwapInitiated(orderUid: bytes, fromAsset: address, fromAssetAmount: uint256, fromAssetFeeAmount: uint256)</text>
<text text-anchor="start" x="456.73" y="-229.7" font-family="Times,serif" font-size="14.00"> &#160;&#160;&#160;&lt;&lt;event&gt;&gt; SwapCancelled(orderUid: bytes)</text>
<text text-anchor="start" x="456.73" y="-212.9" font-family="Times,serif" font-size="14.00"> &#160;&#160;&#160;&lt;&lt;event&gt;&gt; SwapSettled(orderUid: bytes, toAsset: address, toAssetAmount: uint256)</text>
<text text-anchor="start" x="456.73" y="-196.1" font-family="Times,serif" font-size="14.00"> &#160;&#160;&#160;constructor(_relayer: address, _settlement: address)</text>
</g>
<!-- 38&#45;&gt;37 -->
<g id="edge1" class="edge">
<title>38&#45;&gt;37</title>
<path fill="none" stroke="black" d="M806.41,-151.22C806.24,-159.13 806.1,-167.38 806,-175.83"/>
<polygon fill="black" stroke="black" points="806,-175.88 809.94,-181.92 805.88,-187.88 801.94,-181.84 806,-175.88"/>
</g>
<!-- 39 -->
<g id="node2" class="node">
<title>39</title>
<polygon fill="#f2f2f2" stroke="black" points="0,-568.1 0,-701.7 311.11,-701.7 311.11,-568.1 0,-568.1"/>
<text text-anchor="middle" x="155.55" y="-685.1" font-family="Times,serif" font-size="14.00">&lt;&lt;Struct&gt;&gt;</text>
<text text-anchor="middle" x="155.55" y="-668.3" font-family="Times,serif" font-size="14.00">CowSwapTrade</text>
<text text-anchor="middle" x="155.55" y="-651.5" font-family="Times,serif" font-size="14.00">../contracts/peripheral/Cowswap/CowSwapSeller.sol</text>
<polyline fill="none" stroke="black" points="0,-643.3 311.11,-643.3 "/>
<text text-anchor="start" x="8" y="-626.7" font-family="Times,serif" font-size="14.00">owner: address</text>
<text text-anchor="start" x="8" y="-609.9" font-family="Times,serif" font-size="14.00">receiver: address</text>
<text text-anchor="start" x="8" y="-593.1" font-family="Times,serif" font-size="14.00">toAsset: address</text>
<text text-anchor="start" x="8" y="-576.3" font-family="Times,serif" font-size="14.00">toAssetAmount: uint256</text>
</g>
<!-- 39&#45;&gt;37 -->
<g id="edge2" class="edge">
<title>39&#45;&gt;37</title>
<path fill="none" stroke="black" d="M266.47,-567.87C286.8,-555.94 308.07,-544.09 328.55,-534 363.33,-516.87 400.05,-500.21 437.1,-484.33"/>
<polygon fill="black" stroke="black" points="437.57,-484.13 441.52,-478.1 448.61,-479.43 444.65,-485.46 437.57,-484.13"/>
</g>
<!-- 37&#45;&gt;38 -->
<g id="edge6" class="edge">
<title>37&#45;&gt;38</title>
<path fill="none" stroke="black" stroke-dasharray="5,2" d="M819.23,-187.88C819.16,-178.89 819.05,-170.04 818.9,-161.49"/>
<polygon fill="black" stroke="black" points="822.39,-161.15 818.69,-151.22 815.39,-161.29 822.39,-161.15"/>
</g>
<!-- 37&#45;&gt;39 -->
<g id="edge8" class="edge">
<title>37&#45;&gt;39</title>
<path fill="none" stroke="black" stroke-dasharray="5,2" d="M448.55,-471.96C401.52,-491.47 354.48,-512.36 310.55,-534 293.11,-542.59 275.1,-552.46 257.79,-562.57"/>
<polygon fill="black" stroke="black" points="255.65,-559.77 248.82,-567.87 259.21,-565.8 255.65,-559.77"/>
</g>
<!-- 40 -->
<g id="node4" class="node">
<title>40</title>
<polygon fill="#f2f2f2" stroke="black" points="328.61,-584.9 328.61,-684.9 640.49,-684.9 640.49,-584.9 328.61,-584.9"/>
<text text-anchor="middle" x="484.55" y="-668.3" font-family="Times,serif" font-size="14.00">&lt;&lt;Interface&gt;&gt;</text>
<text text-anchor="middle" x="484.55" y="-651.5" font-family="Times,serif" font-size="14.00">ICowSettlement</text>
<text text-anchor="middle" x="484.55" y="-634.7" font-family="Times,serif" font-size="14.00">../contracts/peripheral/Cowswap/ICowSettlement.sol</text>
<polyline fill="none" stroke="black" points="328.61,-626.5 640.49,-626.5 "/>
<text text-anchor="start" x="336.61" y="-609.9" font-family="Times,serif" font-size="14.00">External:</text>
<text text-anchor="start" x="336.61" y="-593.1" font-family="Times,serif" font-size="14.00"> &#160;&#160;&#160;&#160;setPreSignature(orderUid: bytes, signed: bool)</text>
</g>
<!-- 37&#45;&gt;40 -->
<g id="edge5" class="edge">
<title>37&#45;&gt;40</title>
<path fill="none" stroke="black" d="M638.47,-497.72C605.95,-526.49 573.97,-554.79 547.65,-578.07"/>
<polygon fill="black" stroke="black" points="545.2,-575.57 540.03,-584.82 549.84,-580.81 545.2,-575.57"/>
</g>
<!-- 14 -->
<g id="node5" class="node">
<title>14</title>
<polygon fill="#f2f2f2" stroke="black" points="658.97,-555.7 658.97,-714.1 966.14,-714.1 966.14,-555.7 658.97,-555.7"/>
<text text-anchor="middle" x="812.55" y="-697.5" font-family="Times,serif" font-size="14.00">InitializableReentrancyGuard</text>
<text text-anchor="middle" x="812.55" y="-680.7" font-family="Times,serif" font-size="14.00">../contracts/shared/InitializableReentrancyGuard.sol</text>
<polyline fill="none" stroke="black" points="658.97,-672.5 966.14,-672.5 "/>
<text text-anchor="start" x="666.97" y="-655.9" font-family="Times,serif" font-size="14.00">Private:</text>
<text text-anchor="start" x="666.97" y="-639.1" font-family="Times,serif" font-size="14.00"> &#160;&#160;_notEntered: bool</text>
<polyline fill="none" stroke="black" points="658.97,-630.9 966.14,-630.9 "/>
<text text-anchor="start" x="666.97" y="-614.3" font-family="Times,serif" font-size="14.00">Internal:</text>
<text text-anchor="start" x="666.97" y="-597.5" font-family="Times,serif" font-size="14.00"> &#160;&#160;&#160;_initializeReentrancyGuard()</text>
<text text-anchor="start" x="666.97" y="-580.7" font-family="Times,serif" font-size="14.00">Public:</text>
<text text-anchor="start" x="666.97" y="-563.9" font-family="Times,serif" font-size="14.00"> &#160;&#160;&#160;&lt;&lt;modifier&gt;&gt; nonReentrant()</text>
</g>
<!-- 37&#45;&gt;14 -->
<g id="edge3" class="edge">
<title>37&#45;&gt;14</title>
<path fill="none" stroke="black" d="M812.55,-497.72C812.55,-506.91 812.55,-516.06 812.55,-525.01"/>
<polygon fill="none" stroke="black" points="802.05,-525.36 812.55,-555.36 823.05,-525.36 802.05,-525.36"/>
</g>
<!-- 306 -->
<g id="node6" class="node">
<title>306</title>
<polygon fill="#f2f2f2" stroke="black" points="779.87,-789.1 779.87,-1023.5 1209.23,-1023.5 1209.23,-789.1 779.87,-789.1"/>
<text text-anchor="middle" x="994.55" y="-1006.9" font-family="Times,serif" font-size="14.00">&lt;&lt;Interface&gt;&gt;</text>
<text text-anchor="middle" x="994.55" y="-990.1" font-family="Times,serif" font-size="14.00">IERC20</text>
<text text-anchor="middle" x="994.55" y="-973.3" font-family="Times,serif" font-size="14.00">../node_modules/@openzeppelin/contracts/token/ERC20/IERC20.sol</text>
<polyline fill="none" stroke="black" points="779.87,-965.1 1209.23,-965.1 "/>
<text text-anchor="start" x="787.87" y="-948.5" font-family="Times,serif" font-size="14.00">External:</text>
<text text-anchor="start" x="787.87" y="-931.7" font-family="Times,serif" font-size="14.00"> &#160;&#160;&#160;&#160;totalSupply(): uint256</text>
<text text-anchor="start" x="787.87" y="-914.9" font-family="Times,serif" font-size="14.00"> &#160;&#160;&#160;&#160;balanceOf(account: address): uint256</text>
<text text-anchor="start" x="787.87" y="-898.1" font-family="Times,serif" font-size="14.00"> &#160;&#160;&#160;&#160;transfer(to: address, amount: uint256): bool</text>
<text text-anchor="start" x="787.87" y="-881.3" font-family="Times,serif" font-size="14.00"> &#160;&#160;&#160;&#160;allowance(owner: address, spender: address): uint256</text>
<text text-anchor="start" x="787.87" y="-864.5" font-family="Times,serif" font-size="14.00"> &#160;&#160;&#160;&#160;approve(spender: address, amount: uint256): bool</text>
<text text-anchor="start" x="787.87" y="-847.7" font-family="Times,serif" font-size="14.00"> &#160;&#160;&#160;&#160;transferFrom(from: address, to: address, amount: uint256): bool</text>
<text text-anchor="start" x="787.87" y="-830.9" font-family="Times,serif" font-size="14.00">Public:</text>
<text text-anchor="start" x="787.87" y="-814.1" font-family="Times,serif" font-size="14.00"> &#160;&#160;&#160;&lt;&lt;event&gt;&gt; Transfer(from: address, to: address, value: uint256)</text>
<text text-anchor="start" x="787.87" y="-797.3" font-family="Times,serif" font-size="14.00"> &#160;&#160;&#160;&lt;&lt;event&gt;&gt; Approval(owner: address, spender: address, value: uint256)</text>
</g>
<!-- 37&#45;&gt;306 -->
<g id="edge7" class="edge">
<title>37&#45;&gt;306</title>
<path fill="none" stroke="black" stroke-dasharray="5,2" d="M957.55,-497.57C964.48,-509.39 970.6,-521.58 975.55,-534 1006.34,-611.15 1010.98,-704.57 1007.97,-778.4"/>
<polygon fill="black" stroke="black" points="1004.46,-778.54 1007.5,-788.69 1011.46,-778.86 1004.46,-778.54"/>
</g>
<!-- 572 -->
<g id="node7" class="node">
<title>572</title>
<polygon fill="#f2f2f2" stroke="black" points="1022.38,-534.5 1022.38,-735.3 1484.72,-735.3 1484.72,-534.5 1022.38,-534.5"/>
<text text-anchor="middle" x="1253.55" y="-718.7" font-family="Times,serif" font-size="14.00">&lt;&lt;Library&gt;&gt;</text>
<text text-anchor="middle" x="1253.55" y="-701.9" font-family="Times,serif" font-size="14.00">SafeERC20</text>
<text text-anchor="middle" x="1253.55" y="-685.1" font-family="Times,serif" font-size="14.00">../node_modules/@openzeppelin/contracts/token/ERC20/utils/SafeERC20.sol</text>
<polyline fill="none" stroke="black" points="1022.38,-676.9 1484.72,-676.9 "/>
<text text-anchor="start" x="1030.38" y="-660.3" font-family="Times,serif" font-size="14.00">Private:</text>
<text text-anchor="start" x="1030.38" y="-643.5" font-family="Times,serif" font-size="14.00"> &#160;&#160;&#160;_callOptionalReturn(token: IERC20, data: bytes)</text>
<text text-anchor="start" x="1030.38" y="-626.7" font-family="Times,serif" font-size="14.00">Internal:</text>
<text text-anchor="start" x="1030.38" y="-609.9" font-family="Times,serif" font-size="14.00"> &#160;&#160;&#160;safeTransfer(token: IERC20, to: address, value: uint256)</text>
<text text-anchor="start" x="1030.38" y="-593.1" font-family="Times,serif" font-size="14.00"> &#160;&#160;&#160;safeTransferFrom(token: IERC20, from: address, to: address, value: uint256)</text>
<text text-anchor="start" x="1030.38" y="-576.3" font-family="Times,serif" font-size="14.00"> &#160;&#160;&#160;safeApprove(token: IERC20, spender: address, value: uint256)</text>
<text text-anchor="start" x="1030.38" y="-559.5" font-family="Times,serif" font-size="14.00"> &#160;&#160;&#160;safeIncreaseAllowance(token: IERC20, spender: address, value: uint256)</text>
<text text-anchor="start" x="1030.38" y="-542.7" font-family="Times,serif" font-size="14.00"> &#160;&#160;&#160;safeDecreaseAllowance(token: IERC20, spender: address, value: uint256)</text>
</g>
<!-- 37&#45;&gt;572 -->
<g id="edge4" class="edge">
<title>37&#45;&gt;572</title>
<path fill="none" stroke="black" stroke-dasharray="5,2" d="M1046.29,-497.51C1062.31,-508.05 1078.24,-518.53 1093.73,-528.73"/>
<polygon fill="black" stroke="black" points="1092.01,-531.79 1102.29,-534.36 1095.86,-525.94 1092.01,-531.79"/>
</g>
<!-- 572&#45;&gt;306 -->
<g id="edge10" class="edge">
<title>572&#45;&gt;306</title>
<path fill="none" stroke="black" stroke-dasharray="5,2" d="M1157.85,-735.45C1143.48,-750.39 1128.52,-765.95 1113.74,-781.33"/>
<polygon fill="black" stroke="black" points="1110.91,-779.22 1106.5,-788.86 1115.96,-784.07 1110.91,-779.22"/>
</g>
<!-- 160 -->
<g id="node8" class="node">
<title>160</title>
<polygon fill="#f2f2f2" stroke="black" points="1227.49,-772.3 1227.49,-1040.3 1793.62,-1040.3 1793.62,-772.3 1227.49,-772.3"/>
<text text-anchor="middle" x="1510.55" y="-1023.7" font-family="Times,serif" font-size="14.00">&lt;&lt;Library&gt;&gt;</text>
<text text-anchor="middle" x="1510.55" y="-1006.9" font-family="Times,serif" font-size="14.00">Address</text>
<text text-anchor="middle" x="1510.55" y="-990.1" font-family="Times,serif" font-size="14.00">../node_modules/@openzeppelin/contracts/utils/Address.sol</text>
<polyline fill="none" stroke="black" points="1227.49,-981.9 1793.62,-981.9 "/>
<text text-anchor="start" x="1235.49" y="-965.3" font-family="Times,serif" font-size="14.00">Internal:</text>
<text text-anchor="start" x="1235.49" y="-948.5" font-family="Times,serif" font-size="14.00"> &#160;&#160;&#160;isContract(account: address): bool</text>
<text text-anchor="start" x="1235.49" y="-931.7" font-family="Times,serif" font-size="14.00"> &#160;&#160;&#160;sendValue(recipient: address, amount: uint256)</text>
<text text-anchor="start" x="1235.49" y="-914.9" font-family="Times,serif" font-size="14.00"> &#160;&#160;&#160;functionCall(target: address, data: bytes): bytes</text>
<text text-anchor="start" x="1235.49" y="-898.1" font-family="Times,serif" font-size="14.00"> &#160;&#160;&#160;functionCall(target: address, data: bytes, errorMessage: string): bytes</text>
<text text-anchor="start" x="1235.49" y="-881.3" font-family="Times,serif" font-size="14.00"> &#160;&#160;&#160;functionCallWithValue(target: address, data: bytes, value: uint256): bytes</text>
<text text-anchor="start" x="1235.49" y="-864.5" font-family="Times,serif" font-size="14.00"> &#160;&#160;&#160;functionCallWithValue(target: address, data: bytes, value: uint256, errorMessage: string): bytes</text>
<text text-anchor="start" x="1235.49" y="-847.7" font-family="Times,serif" font-size="14.00"> &#160;&#160;&#160;functionStaticCall(target: address, data: bytes): bytes</text>
<text text-anchor="start" x="1235.49" y="-830.9" font-family="Times,serif" font-size="14.00"> &#160;&#160;&#160;functionStaticCall(target: address, data: bytes, errorMessage: string): bytes</text>
<text text-anchor="start" x="1235.49" y="-814.1" font-family="Times,serif" font-size="14.00"> &#160;&#160;&#160;functionDelegateCall(target: address, data: bytes): bytes</text>
<text text-anchor="start" x="1235.49" y="-797.3" font-family="Times,serif" font-size="14.00"> &#160;&#160;&#160;functionDelegateCall(target: address, data: bytes, errorMessage: string): bytes</text>
<text text-anchor="start" x="1235.49" y="-780.5" font-family="Times,serif" font-size="14.00"> &#160;&#160;&#160;verifyCallResult(success: bool, returndata: bytes, errorMessage: string): bytes</text>
</g>
<!-- 572&#45;&gt;160 -->
<g id="edge9" class="edge">
<title>572&#45;&gt;160</title>
<path fill="none" stroke="black" stroke-dasharray="5,2" d="M1348.52,-735.45C1357.73,-745.1 1367.18,-755.01 1376.67,-764.95"/>
<polygon fill="black" stroke="black" points="1374.15,-767.38 1383.58,-772.2 1379.21,-762.55 1374.15,-767.38"/>
</g>
</g>
</svg>
