<?xml version="1.0" encoding="UTF-8" standalone="no"?>
<!DOCTYPE svg PUBLIC "-//W3C//DTD SVG 1.1//EN"
 "http://www.w3.org/Graphics/SVG/1.1/DTD/svg11.dtd">
<!-- Generated by graphviz version 5.0.0 (20220707.1540)
 -->
<!-- Title: UmlClassDiagram Pages: 1 -->
<svg width="2420pt" height="623pt"
 viewBox="0.00 0.00 2419.89 623.00" xmlns="http://www.w3.org/2000/svg" xmlns:xlink="http://www.w3.org/1999/xlink">
<g id="graph0" class="graph" transform="scale(1 1) rotate(0) translate(4 619)">
<title>UmlClassDiagram</title>
<polygon fill="white" stroke="transparent" points="-4,4 -4,-619 2415.89,-619 2415.89,4 -4,4"/>
<!-- 7 -->
<g id="node1" class="node">
<title>7</title>
<polygon fill="#f2f2f2" stroke="black" points="1367.67,-269.9 1367.67,-328.3 1618.11,-328.3 1618.11,-269.9 1367.67,-269.9"/>
<text text-anchor="middle" x="1492.89" y="-311.7" font-family="Times,serif" font-size="14.00">&lt;&lt;Interface&gt;&gt;</text>
<text text-anchor="middle" x="1492.89" y="-294.9" font-family="Times,serif" font-size="14.00">IERC4626Vault</text>
<text text-anchor="middle" x="1492.89" y="-278.1" font-family="Times,serif" font-size="14.00">../contracts/interfaces/IERC4626Vault.sol</text>
</g>
<!-- 430 -->
<g id="node17" class="node">
<title>430</title>
<polygon fill="#f2f2f2" stroke="black" points="1108.83,-556.1 1108.83,-614.5 1512.94,-614.5 1512.94,-556.1 1108.83,-556.1"/>
<text text-anchor="middle" x="1310.89" y="-597.9" font-family="Times,serif" font-size="14.00">&lt;&lt;Interface&gt;&gt;</text>
<text text-anchor="middle" x="1310.89" y="-581.1" font-family="Times,serif" font-size="14.00">IERC20</text>
<text text-anchor="middle" x="1310.89" y="-564.3" font-family="Times,serif" font-size="14.00">../node_modules/@openzeppelin/contracts/token/ERC20/IERC20.sol</text>
</g>
<!-- 7&#45;&gt;430 -->
<g id="edge1" class="edge">
<title>7&#45;&gt;430</title>
<path fill="none" stroke="black" stroke-dasharray="5,2" d="M1498.22,-328.31C1505.09,-373.55 1511.55,-462.95 1468.89,-519.6 1463.23,-527.11 1456.55,-533.76 1449.18,-539.63"/>
<polygon fill="none" stroke="black" points="1443.36,-530.89 1423.75,-555.9 1454.68,-548.58 1443.36,-530.89"/>
</g>
<!-- 10 -->
<g id="node2" class="node">
<title>10</title>
<polygon fill="#f2f2f2" stroke="black" points="247.95,-460.7 247.95,-519.1 447.83,-519.1 447.83,-460.7 247.95,-460.7"/>
<text text-anchor="middle" x="347.89" y="-502.5" font-family="Times,serif" font-size="14.00">&lt;&lt;Interface&gt;&gt;</text>
<text text-anchor="middle" x="347.89" y="-485.7" font-family="Times,serif" font-size="14.00">INexus</text>
<text text-anchor="middle" x="347.89" y="-468.9" font-family="Times,serif" font-size="14.00">../contracts/interfaces/INexus.sol</text>
</g>
<!-- 89 -->
<g id="node3" class="node">
<title>89</title>
<polygon fill="#f2f2f2" stroke="black" points="1406.35,-174.5 1406.35,-232.9 1773.42,-232.9 1773.42,-174.5 1406.35,-174.5"/>
<text text-anchor="middle" x="1589.89" y="-216.3" font-family="Times,serif" font-size="14.00">&lt;&lt;Library&gt;&gt;</text>
<text text-anchor="middle" x="1589.89" y="-199.5" font-family="Times,serif" font-size="14.00">Curve3PoolCalculatorLibrary</text>
<text text-anchor="middle" x="1589.89" y="-182.7" font-family="Times,serif" font-size="14.00">../contracts/peripheral/Curve/Curve3PoolCalculatorLibrary.sol</text>
</g>
<!-- 94 -->
<g id="node4" class="node">
<title>94</title>
<polygon fill="#f2f2f2" stroke="black" points="1636.17,-269.9 1636.17,-328.3 1907.61,-328.3 1907.61,-269.9 1636.17,-269.9"/>
<text text-anchor="middle" x="1771.89" y="-311.7" font-family="Times,serif" font-size="14.00">&lt;&lt;Interface&gt;&gt;</text>
<text text-anchor="middle" x="1771.89" y="-294.9" font-family="Times,serif" font-size="14.00">ICurve3Pool</text>
<text text-anchor="middle" x="1771.89" y="-278.1" font-family="Times,serif" font-size="14.00">../contracts/peripheral/Curve/ICurve3Pool.sol</text>
</g>
<!-- 89&#45;&gt;94 -->
<g id="edge2" class="edge">
<title>89&#45;&gt;94</title>
<path fill="none" stroke="black" d="M1644.99,-232.98C1664.76,-243.13 1687.24,-254.66 1707.72,-265.17"/>
<polygon fill="black" stroke="black" points="1706.17,-268.31 1716.66,-269.76 1709.36,-262.08 1706.17,-268.31"/>
</g>
<!-- 89&#45;&gt;430 -->
<g id="edge3" class="edge">
<title>89&#45;&gt;430</title>
<path fill="none" stroke="black" d="M1756.04,-232.95C1833.99,-247.01 1911.18,-262.45 1916.89,-269.4 1933.65,-289.8 1931.18,-306.61 1916.89,-328.8 1831.38,-461.56 1661.39,-525.45 1523.16,-556.13"/>
<polygon fill="black" stroke="black" points="1522.29,-552.73 1513.26,-558.28 1523.77,-559.57 1522.29,-552.73"/>
</g>
<!-- 17 -->
<g id="node5" class="node">
<title>17</title>
<polygon fill="#f2f2f2" stroke="black" points="0,-365.3 0,-423.7 245.78,-423.7 245.78,-365.3 0,-365.3"/>
<text text-anchor="middle" x="122.89" y="-407.1" font-family="Times,serif" font-size="14.00">&lt;&lt;Abstract&gt;&gt;</text>
<text text-anchor="middle" x="122.89" y="-390.3" font-family="Times,serif" font-size="14.00">ImmutableModule</text>
<text text-anchor="middle" x="122.89" y="-373.5" font-family="Times,serif" font-size="14.00">../contracts/shared/ImmutableModule.sol</text>
</g>
<!-- 17&#45;&gt;10 -->
<g id="edge5" class="edge">
<title>17&#45;&gt;10</title>
<path fill="none" stroke="black" d="M191.01,-423.78C216,-434.15 244.48,-445.98 270.25,-456.67"/>
<polygon fill="black" stroke="black" points="269.04,-459.96 279.61,-460.56 271.72,-453.49 269.04,-459.96"/>
</g>
<!-- 19 -->
<g id="node6" class="node">
<title>19</title>
<polygon fill="#f2f2f2" stroke="black" points="15.94,-469.1 15.94,-510.7 229.84,-510.7 229.84,-469.1 15.94,-469.1"/>
<text text-anchor="middle" x="122.89" y="-494.1" font-family="Times,serif" font-size="14.00">ModuleKeys</text>
<text text-anchor="middle" x="122.89" y="-477.3" font-family="Times,serif" font-size="14.00">../contracts/shared/ModuleKeys.sol</text>
</g>
<!-- 17&#45;&gt;19 -->
<g id="edge4" class="edge">
<title>17&#45;&gt;19</title>
<path fill="none" stroke="black" d="M122.89,-423.78C122.89,-428.57 122.89,-433.67 122.89,-438.82"/>
<polygon fill="none" stroke="black" points="112.39,-439.01 122.89,-469.01 133.39,-439.01 112.39,-439.01"/>
</g>
<!-- 23 -->
<g id="node7" class="node">
<title>23</title>
<polygon fill="#f2f2f2" stroke="black" points="544.45,-269.9 544.45,-328.3 793.32,-328.3 793.32,-269.9 544.45,-269.9"/>
<text text-anchor="middle" x="668.89" y="-311.7" font-family="Times,serif" font-size="14.00">&lt;&lt;Abstract&gt;&gt;</text>
<text text-anchor="middle" x="668.89" y="-294.9" font-family="Times,serif" font-size="14.00">VaultManagerRole</text>
<text text-anchor="middle" x="668.89" y="-278.1" font-family="Times,serif" font-size="14.00">../contracts/shared/VaultManagerRole.sol</text>
</g>
<!-- 23&#45;&gt;17 -->
<g id="edge7" class="edge">
<title>23&#45;&gt;17</title>
<path fill="none" stroke="black" d="M544.01,-317.65C469.32,-328.59 371.79,-343.63 275.33,-361.09"/>
<polygon fill="none" stroke="black" points="273.41,-350.77 245.8,-366.53 277.21,-371.43 273.41,-350.77"/>
</g>
<!-- 281 -->
<g id="node15" class="node">
<title>281</title>
<polygon fill="#f2f2f2" stroke="black" points="263.85,-365.3 263.85,-423.7 639.93,-423.7 639.93,-365.3 263.85,-365.3"/>
<text text-anchor="middle" x="451.89" y="-407.1" font-family="Times,serif" font-size="14.00">&lt;&lt;Abstract&gt;&gt;</text>
<text text-anchor="middle" x="451.89" y="-390.3" font-family="Times,serif" font-size="14.00">Pausable</text>
<text text-anchor="middle" x="451.89" y="-373.5" font-family="Times,serif" font-size="14.00">../node_modules/@openzeppelin/contracts/security/Pausable.sol</text>
</g>
<!-- 23&#45;&gt;281 -->
<g id="edge6" class="edge">
<title>23&#45;&gt;281</title>
<path fill="none" stroke="black" d="M603.19,-328.38C585,-336.2 564.91,-344.86 545.46,-353.23"/>
<polygon fill="none" stroke="black" points="541.14,-343.65 517.74,-365.16 549.44,-362.94 541.14,-343.65"/>
</g>
<!-- 25 -->
<g id="node8" class="node">
<title>25</title>
<polygon fill="#f2f2f2" stroke="black" points="1029.78,-269.9 1029.78,-328.3 1273.99,-328.3 1273.99,-269.9 1029.78,-269.9"/>
<text text-anchor="middle" x="1151.89" y="-311.7" font-family="Times,serif" font-size="14.00">&lt;&lt;Abstract&gt;&gt;</text>
<text text-anchor="middle" x="1151.89" y="-294.9" font-family="Times,serif" font-size="14.00">InitializableToken</text>
<text text-anchor="middle" x="1151.89" y="-278.1" font-family="Times,serif" font-size="14.00">../contracts/tokens/InitializableToken.sol</text>
</g>
<!-- 26 -->
<g id="node9" class="node">
<title>26</title>
<polygon fill="#f2f2f2" stroke="black" points="657.96,-365.3 657.96,-423.7 941.82,-423.7 941.82,-365.3 657.96,-365.3"/>
<text text-anchor="middle" x="799.89" y="-407.1" font-family="Times,serif" font-size="14.00">&lt;&lt;Abstract&gt;&gt;</text>
<text text-anchor="middle" x="799.89" y="-390.3" font-family="Times,serif" font-size="14.00">InitializableTokenDetails</text>
<text text-anchor="middle" x="799.89" y="-373.5" font-family="Times,serif" font-size="14.00">../contracts/tokens/InitializableTokenDetails.sol</text>
</g>
<!-- 25&#45;&gt;26 -->
<g id="edge9" class="edge">
<title>25&#45;&gt;26</title>
<path fill="none" stroke="black" d="M1045.32,-328.38C1010.77,-337.55 971.96,-347.84 935.58,-357.5"/>
<polygon fill="none" stroke="black" points="932.7,-347.4 906.4,-365.24 938.09,-367.69 932.7,-347.4"/>
</g>
<!-- 429 -->
<g id="node16" class="node">
<title>429</title>
<polygon fill="#f2f2f2" stroke="black" points="960.16,-373.7 960.16,-415.3 1359.61,-415.3 1359.61,-373.7 960.16,-373.7"/>
<text text-anchor="middle" x="1159.89" y="-398.7" font-family="Times,serif" font-size="14.00">ERC20</text>
<text text-anchor="middle" x="1159.89" y="-381.9" font-family="Times,serif" font-size="14.00">../node_modules/@openzeppelin/contracts/token/ERC20/ERC20.sol</text>
</g>
<!-- 25&#45;&gt;429 -->
<g id="edge8" class="edge">
<title>25&#45;&gt;429</title>
<path fill="none" stroke="black" d="M1154.31,-328.38C1154.72,-333.17 1155.16,-338.27 1155.6,-343.42"/>
<polygon fill="none" stroke="black" points="1145.16,-344.62 1158.18,-373.61 1166.09,-342.83 1145.16,-344.62"/>
</g>
<!-- 42 -->
<g id="node10" class="node">
<title>42</title>
<polygon fill="#f2f2f2" stroke="black" points="1069.94,-174.5 1069.94,-232.9 1311.83,-232.9 1311.83,-174.5 1069.94,-174.5"/>
<text text-anchor="middle" x="1190.89" y="-216.3" font-family="Times,serif" font-size="14.00">&lt;&lt;Abstract&gt;&gt;</text>
<text text-anchor="middle" x="1190.89" y="-199.5" font-family="Times,serif" font-size="14.00">LightAbstractVault</text>
<text text-anchor="middle" x="1190.89" y="-182.7" font-family="Times,serif" font-size="14.00">../contracts/vault/LightAbstractVault.sol</text>
</g>
<!-- 42&#45;&gt;7 -->
<g id="edge10" class="edge">
<title>42&#45;&gt;7</title>
<path fill="none" stroke="black" stroke-dasharray="5,2" d="M1282.32,-232.98C1310.78,-241.78 1342.62,-251.63 1372.74,-260.94"/>
<polygon fill="none" stroke="black" points="1369.75,-271.01 1401.51,-269.84 1375.95,-250.94 1369.75,-271.01"/>
</g>
<!-- 42&#45;&gt;23 -->
<g id="edge12" class="edge">
<title>42&#45;&gt;23</title>
<path fill="none" stroke="black" d="M1069.82,-226.36C996.32,-239.51 901.81,-256.42 823.01,-270.52"/>
<polygon fill="none" stroke="black" points="821.06,-260.2 793.38,-275.82 824.76,-280.88 821.06,-260.2"/>
</g>
<!-- 42&#45;&gt;25 -->
<g id="edge11" class="edge">
<title>42&#45;&gt;25</title>
<path fill="none" stroke="black" d="M1179.08,-232.98C1177.91,-235.79 1176.69,-238.7 1175.45,-241.67"/>
<polygon fill="none" stroke="black" points="1165.66,-237.87 1163.79,-269.6 1185.04,-245.96 1165.66,-237.87"/>
</g>
<!-- 42&#45;&gt;430 -->
<g id="edge13" class="edge">
<title>42&#45;&gt;430</title>
<path fill="none" stroke="black" d="M1237.12,-233.05C1298.53,-274.05 1403.11,-356.48 1435.89,-460.2 1443.84,-485.37 1449.61,-497.05 1435.89,-519.6 1428.3,-532.07 1417.45,-542.24 1405.28,-550.51"/>
<polygon fill="black" stroke="black" points="1403.26,-547.64 1396.66,-555.93 1406.99,-553.57 1403.26,-547.64"/>
</g>
<!-- 168 -->
<g id="node11" class="node">
<title>168</title>
<polygon fill="#f2f2f2" stroke="black" points="696.49,-174.5 696.49,-232.9 977.28,-232.9 977.28,-174.5 696.49,-174.5"/>
<text text-anchor="middle" x="836.89" y="-216.3" font-family="Times,serif" font-size="14.00">&lt;&lt;Abstract&gt;&gt;</text>
<text text-anchor="middle" x="836.89" y="-199.5" font-family="Times,serif" font-size="14.00">AbstractSlippage</text>
<text text-anchor="middle" x="836.89" y="-182.7" font-family="Times,serif" font-size="14.00">../contracts/vault/liquidity/AbstractSlippage.sol</text>
</g>
<!-- 168&#45;&gt;23 -->
<g id="edge14" class="edge">
<title>168&#45;&gt;23</title>
<path fill="none" stroke="black" d="M786.03,-232.98C773.5,-239.94 759.81,-247.55 746.34,-255.04"/>
<polygon fill="none" stroke="black" points="740.98,-246 719.87,-269.76 751.19,-264.36 740.98,-246"/>
</g>
<!-- 250 -->
<g id="node12" class="node">
<title>250</title>
<polygon fill="#f2f2f2" stroke="black" points="1032.46,-79.1 1032.46,-137.5 1421.32,-137.5 1421.32,-79.1 1032.46,-79.1"/>
<text text-anchor="middle" x="1226.89" y="-120.9" font-family="Times,serif" font-size="14.00">&lt;&lt;Abstract&gt;&gt;</text>
<text text-anchor="middle" x="1226.89" y="-104.1" font-family="Times,serif" font-size="14.00">Curve3CrvAbstractMetaVault</text>
<text text-anchor="middle" x="1226.89" y="-87.3" font-family="Times,serif" font-size="14.00">../contracts/vault/liquidity/curve/Curve3CrvAbstractMetaVault.sol</text>
</g>
<!-- 250&#45;&gt;7 -->
<g id="edge18" class="edge">
<title>250&#45;&gt;7</title>
<path fill="none" stroke="black" d="M1296.82,-137.53C1316.48,-147.36 1337.06,-159.6 1353.89,-174 1378.65,-195.19 1373.46,-210.74 1396.89,-233.4 1408.27,-244.4 1421.73,-254.76 1434.92,-263.82"/>
<polygon fill="black" stroke="black" points="1433.26,-266.93 1443.52,-269.59 1437.16,-261.11 1433.26,-266.93"/>
</g>
<!-- 250&#45;&gt;89 -->
<g id="edge20" class="edge">
<title>250&#45;&gt;89</title>
<path fill="none" stroke="black" stroke-dasharray="5,2" d="M1336.79,-137.58C1378.89,-148.41 1427.12,-160.82 1470.11,-171.88"/>
<polygon fill="black" stroke="black" points="1469.5,-175.34 1480.05,-174.44 1471.24,-168.56 1469.5,-175.34"/>
</g>
<!-- 250&#45;&gt;42 -->
<g id="edge16" class="edge">
<title>250&#45;&gt;42</title>
<path fill="none" stroke="black" d="M1215.99,-137.58C1214.94,-140.29 1213.86,-143.11 1212.75,-145.98"/>
<polygon fill="none" stroke="black" points="1202.87,-142.43 1201.87,-174.2 1222.46,-149.98 1202.87,-142.43"/>
</g>
<!-- 250&#45;&gt;168 -->
<g id="edge15" class="edge">
<title>250&#45;&gt;168</title>
<path fill="none" stroke="black" d="M1109.08,-137.51C1069.75,-146.93 1025.41,-157.55 984.12,-167.44"/>
<polygon fill="none" stroke="black" points="981.44,-157.28 954.71,-174.48 986.33,-177.71 981.44,-157.28"/>
</g>
<!-- 691 -->
<g id="node18" class="node">
<title>691</title>
<polygon fill="#f2f2f2" stroke="black" points="907.29,-460.7 907.29,-519.1 1426.48,-519.1 1426.48,-460.7 907.29,-460.7"/>
<text text-anchor="middle" x="1166.89" y="-502.5" font-family="Times,serif" font-size="14.00">&lt;&lt;Interface&gt;&gt;</text>
<text text-anchor="middle" x="1166.89" y="-485.7" font-family="Times,serif" font-size="14.00">IERC20Metadata</text>
<text text-anchor="middle" x="1166.89" y="-468.9" font-family="Times,serif" font-size="14.00">../node_modules/@openzeppelin/contracts/token/ERC20/extensions/IERC20Metadata.sol</text>
</g>
<!-- 250&#45;&gt;691 -->
<g id="edge19" class="edge">
<title>250&#45;&gt;691</title>
<path fill="none" stroke="black" stroke-dasharray="5,2" d="M1282.4,-137.79C1296.78,-147.53 1310.98,-159.65 1320.89,-174 1361.14,-232.29 1340.96,-260.26 1358.89,-328.8 1363.09,-344.87 1366.65,-348.35 1368.89,-364.8 1372.45,-390.96 1384.45,-402.87 1368.89,-424.2 1359.63,-436.89 1347.85,-447.15 1334.64,-455.43"/>
<polygon fill="black" stroke="black" points="1332.65,-452.54 1325.77,-460.59 1336.17,-458.59 1332.65,-452.54"/>
</g>
<!-- 696 -->
<g id="node19" class="node">
<title>696</title>
<polygon fill="#f2f2f2" stroke="black" points="1791.72,-174.5 1791.72,-232.9 2244.05,-232.9 2244.05,-174.5 1791.72,-174.5"/>
<text text-anchor="middle" x="2017.89" y="-216.3" font-family="Times,serif" font-size="14.00">&lt;&lt;Library&gt;&gt;</text>
<text text-anchor="middle" x="2017.89" y="-199.5" font-family="Times,serif" font-size="14.00">SafeERC20</text>
<text text-anchor="middle" x="2017.89" y="-182.7" font-family="Times,serif" font-size="14.00">../node_modules/@openzeppelin/contracts/token/ERC20/utils/SafeERC20.sol</text>
</g>
<!-- 250&#45;&gt;696 -->
<g id="edge17" class="edge">
<title>250&#45;&gt;696</title>
<path fill="none" stroke="black" stroke-dasharray="5,2" d="M1421.35,-136.95C1424.21,-137.31 1427.06,-137.66 1429.89,-138 1583.23,-156.65 1624.49,-156.46 1781.5,-173.86"/>
<polygon fill="black" stroke="black" points="1781.19,-177.34 1791.52,-174.97 1781.97,-170.39 1781.19,-177.34"/>
</g>
<!-- 251 -->
<g id="node13" class="node">
<title>251</title>
<polygon fill="#f2f2f2" stroke="black" points="1040.62,-0.5 1040.62,-42.1 1413.16,-42.1 1413.16,-0.5 1040.62,-0.5"/>
<text text-anchor="middle" x="1226.89" y="-25.5" font-family="Times,serif" font-size="14.00">Curve3CrvBasicMetaVault</text>
<text text-anchor="middle" x="1226.89" y="-8.7" font-family="Times,serif" font-size="14.00">../contracts/vault/liquidity/curve/Curve3CrvBasicMetaVault.sol</text>
</g>
<!-- 251&#45;&gt;23 -->
<g id="edge24" class="edge">
<title>251&#45;&gt;23</title>
<path fill="none" stroke="black" stroke-dasharray="5,2" d="M1066.86,-42.12C1014.01,-50.77 955.33,-62.67 902.89,-78.6 802.86,-108.98 751.37,-90.94 687.89,-174 669.37,-198.23 665.42,-233.05 665.64,-259.64"/>
<polygon fill="black" stroke="black" points="662.15,-259.86 665.93,-269.75 669.14,-259.66 662.15,-259.86"/>
</g>
<!-- 251&#45;&gt;25 -->
<g id="edge23" class="edge">
<title>251&#45;&gt;25</title>
<path fill="none" stroke="black" stroke-dasharray="5,2" d="M1109.9,-42.13C1071.4,-51.21 1035.45,-63.39 1023.89,-78.6 981.07,-134.91 1017.44,-177.58 1060.89,-233.4 1069.79,-244.83 1081.25,-255.11 1093.02,-263.92"/>
<polygon fill="black" stroke="black" points="1091.02,-266.8 1101.18,-269.79 1095.1,-261.11 1091.02,-266.8"/>
</g>
<!-- 251&#45;&gt;168 -->
<g id="edge25" class="edge">
<title>251&#45;&gt;168</title>
<path fill="none" stroke="black" stroke-dasharray="5,2" d="M1098.37,-42.12C1062.45,-50.51 1024.16,-62.27 990.89,-78.6 945.19,-101.03 900.77,-139.1 871.48,-167.17"/>
<polygon fill="black" stroke="black" points="868.73,-164.96 864,-174.44 873.61,-169.98 868.73,-164.96"/>
</g>
<!-- 251&#45;&gt;250 -->
<g id="edge21" class="edge">
<title>251&#45;&gt;250</title>
<path fill="none" stroke="black" d="M1226.89,-42.44C1226.89,-44.49 1226.89,-46.63 1226.89,-48.83"/>
<polygon fill="none" stroke="black" points="1216.39,-48.94 1226.89,-78.94 1237.39,-48.94 1216.39,-48.94"/>
</g>
<!-- 424 -->
<g id="node14" class="node">
<title>424</title>
<polygon fill="#f2f2f2" stroke="black" points="1439.13,-79.1 1439.13,-137.5 1848.65,-137.5 1848.65,-79.1 1439.13,-79.1"/>
<text text-anchor="middle" x="1643.89" y="-120.9" font-family="Times,serif" font-size="14.00">&lt;&lt;Abstract&gt;&gt;</text>
<text text-anchor="middle" x="1643.89" y="-104.1" font-family="Times,serif" font-size="14.00">Initializable</text>
<text text-anchor="middle" x="1643.89" y="-87.3" font-family="Times,serif" font-size="14.00">../node_modules/@openzeppelin/contracts/proxy/utils/Initializable.sol</text>
</g>
<!-- 251&#45;&gt;424 -->
<g id="edge22" class="edge">
<title>251&#45;&gt;424</title>
<path fill="none" stroke="black" d="M1324.13,-42.12C1369.3,-51.33 1424.32,-62.54 1475.9,-73.06"/>
<polygon fill="none" stroke="black" points="1473.87,-83.36 1505.36,-79.06 1478.06,-62.78 1473.87,-83.36"/>
</g>
<!-- 284 -->
<g id="node20" class="node">
<title>284</title>
<polygon fill="#f2f2f2" stroke="black" points="2059.89,-269.9 2059.89,-328.3 2411.89,-328.3 2411.89,-269.9 2059.89,-269.9"/>
<text text-anchor="middle" x="2235.89" y="-311.7" font-family="Times,serif" font-size="14.00">&lt;&lt;Library&gt;&gt;</text>
<text text-anchor="middle" x="2235.89" y="-294.9" font-family="Times,serif" font-size="14.00">Address</text>
<text text-anchor="middle" x="2235.89" y="-278.1" font-family="Times,serif" font-size="14.00">../node_modules/@openzeppelin/contracts/utils/Address.sol</text>
</g>
<!-- 424&#45;&gt;284 -->
<g id="edge26" class="edge">
<title>424&#45;&gt;284</title>
<path fill="none" stroke="black" stroke-dasharray="5,2" d="M1848.74,-117.7C2014.86,-126.67 2225.78,-143.86 2252.89,-174 2273.7,-197.14 2265.93,-233.2 2255.03,-260.49"/>
<polygon fill="black" stroke="black" points="2251.78,-259.18 2251.08,-269.75 2258.22,-261.92 2251.78,-259.18"/>
</g>
<!-- 290 -->
<g id="node21" class="node">
<title>290</title>
<polygon fill="#f2f2f2" stroke="black" points="486.66,-460.7 486.66,-519.1 837.11,-519.1 837.11,-460.7 486.66,-460.7"/>
<text text-anchor="middle" x="661.89" y="-502.5" font-family="Times,serif" font-size="14.00">&lt;&lt;Abstract&gt;&gt;</text>
<text text-anchor="middle" x="661.89" y="-485.7" font-family="Times,serif" font-size="14.00">Context</text>
<text text-anchor="middle" x="661.89" y="-468.9" font-family="Times,serif" font-size="14.00">../node_modules/@openzeppelin/contracts/utils/Context.sol</text>
</g>
<!-- 281&#45;&gt;290 -->
<g id="edge27" class="edge">
<title>281&#45;&gt;290</title>
<path fill="none" stroke="black" d="M515.46,-423.78C532.86,-431.51 552.06,-440.05 570.68,-448.33"/>
<polygon fill="none" stroke="black" points="566.49,-457.96 598.17,-460.56 575.02,-438.77 566.49,-457.96"/>
</g>
<!-- 429&#45;&gt;430 -->
<g id="edge29" class="edge">
<title>429&#45;&gt;430</title>
<path fill="none" stroke="black" stroke-dasharray="5,2" d="M1014.43,-415.33C962.78,-425.59 913.52,-440.23 897.89,-460.2 881.61,-480.99 880.73,-499.54 897.89,-519.6 923.05,-549.01 998.92,-565.14 1078.88,-573.96"/>
<polygon fill="none" stroke="black" points="1077.85,-584.41 1108.74,-576.91 1079.92,-563.51 1077.85,-584.41"/>
</g>
<!-- 429&#45;&gt;691 -->
<g id="edge30" class="edge">
<title>429&#45;&gt;691</title>
<path fill="none" stroke="black" stroke-dasharray="5,2" d="M1161.37,-415.31C1161.72,-419.94 1162.11,-425.11 1162.51,-430.49"/>
<polygon fill="none" stroke="black" points="1152.06,-431.48 1164.77,-460.62 1173,-429.91 1152.06,-431.48"/>
</g>
<!-- 429&#45;&gt;290 -->
<g id="edge28" class="edge">
<title>429&#45;&gt;290</title>
<path fill="none" stroke="black" d="M1054.28,-415.31C992.82,-426.83 913.68,-441.68 842.6,-455.01"/>
<polygon fill="none" stroke="black" points="840.25,-444.77 812.7,-460.62 844.12,-465.41 840.25,-444.77"/>
</g>
<!-- 691&#45;&gt;430 -->
<g id="edge31" class="edge">
<title>691&#45;&gt;430</title>
<path fill="none" stroke="black" stroke-dasharray="5,2" d="M1210.48,-519.18C1220.26,-525.52 1230.87,-532.4 1241.41,-539.24"/>
<polygon fill="none" stroke="black" points="1236.06,-548.28 1266.94,-555.8 1247.49,-530.66 1236.06,-548.28"/>
</g>
<!-- 696&#45;&gt;430 -->
<g id="edge33" class="edge">
<title>696&#45;&gt;430</title>
<path fill="none" stroke="black" stroke-dasharray="5,2" d="M2004.27,-233.03C1981.82,-277.64 1933.51,-365.23 1873.89,-424.2 1817.98,-479.49 1798.42,-491.73 1724.89,-519.6 1661.48,-543.63 1589.36,-558.74 1523.27,-568.24"/>
<polygon fill="black" stroke="black" points="1522.56,-564.8 1513.15,-569.66 1523.54,-571.74 1522.56,-564.8"/>
</g>
<!-- 696&#45;&gt;284 -->
<g id="edge32" class="edge">
<title>696&#45;&gt;284</title>
<path fill="none" stroke="black" stroke-dasharray="5,2" d="M2083.89,-232.98C2108,-243.31 2135.46,-255.07 2160.34,-265.73"/>
<polygon fill="black" stroke="black" points="2159.17,-269.04 2169.74,-269.76 2161.92,-262.6 2159.17,-269.04"/>
</g>
</g>
</svg>
