<?xml version="1.0" encoding="UTF-8" standalone="no"?>
<!DOCTYPE svg PUBLIC "-//W3C//DTD SVG 1.1//EN"
 "http://www.w3.org/Graphics/SVG/1.1/DTD/svg11.dtd">
<!-- Generated by graphviz version 5.0.0 (20220707.1540)
 -->
<!-- Title: UmlClassDiagram Pages: 1 -->
<svg width="2897pt" height="757pt"
 viewBox="0.00 0.00 2897.38 757.40" xmlns="http://www.w3.org/2000/svg" xmlns:xlink="http://www.w3.org/1999/xlink">
<g id="graph0" class="graph" transform="scale(1 1) rotate(0) translate(4 753.4)">
<title>UmlClassDiagram</title>
<polygon fill="white" stroke="transparent" points="-4,4 -4,-753.4 2893.38,-753.4 2893.38,4 -4,4"/>
<!-- 6 -->
<g id="node1" class="node">
<title>6</title>
<polygon fill="#f2f2f2" stroke="black" points="1460.72,-345.5 1460.72,-403.9 1699.49,-403.9 1699.49,-345.5 1460.72,-345.5"/>
<text text-anchor="middle" x="1580.11" y="-387.3" font-family="Times,serif" font-size="14.00">&lt;&lt;Interface&gt;&gt;</text>
<text text-anchor="middle" x="1580.11" y="-370.5" font-family="Times,serif" font-size="14.00">IERC4626Vault</text>
<text text-anchor="middle" x="1580.11" y="-353.7" font-family="Times,serif" font-size="14.00">..contractsinterfacesIERC4626Vault.sol</text>
</g>
<!-- 249 -->
<g id="node17" class="node">
<title>249</title>
<polygon fill="#f2f2f2" stroke="black" points="1231,-673.7 1231,-748.9 1589.22,-748.9 1589.22,-673.7 1231,-673.7"/>
<text text-anchor="middle" x="1410.11" y="-732.3" font-family="Times,serif" font-size="14.00">&lt;&lt;Interface&gt;&gt;</text>
<text text-anchor="middle" x="1410.11" y="-715.5" font-family="Times,serif" font-size="14.00">IERC20</text>
<text text-anchor="middle" x="1410.11" y="-698.7" font-family="Times,serif" font-size="14.00">..</text>
<text text-anchor="middle" x="1410.11" y="-681.9" font-family="Times,serif" font-size="14.00">ode_modules@openzeppelincontractstokenRC20IERC20.sol</text>
</g>
<!-- 6&#45;&gt;249 -->
<g id="edge1" class="edge">
<title>6&#45;&gt;249</title>
<path fill="none" stroke="black" stroke-dasharray="5,2" d="M1585.81,-404.21C1594.45,-455.69 1605.08,-565.47 1556.11,-637.2 1551.59,-643.82 1546.28,-649.87 1540.43,-655.39"/>
<polygon fill="none" stroke="black" points="1533.91,-647.16 1516.4,-673.68 1546.63,-663.87 1533.91,-647.16"/>
</g>
<!-- 9 -->
<g id="node2" class="node">
<title>9</title>
<polygon fill="#f2f2f2" stroke="black" points="0,-569.9 0,-628.3 188.21,-628.3 188.21,-569.9 0,-569.9"/>
<text text-anchor="middle" x="94.11" y="-611.7" font-family="Times,serif" font-size="14.00">&lt;&lt;Interface&gt;&gt;</text>
<text text-anchor="middle" x="94.11" y="-594.9" font-family="Times,serif" font-size="14.00">INexus</text>
<text text-anchor="middle" x="94.11" y="-578.1" font-family="Times,serif" font-size="14.00">..contractsinterfacesINexus.sol</text>
</g>
<!-- 39 -->
<g id="node3" class="node">
<title>39</title>
<polygon fill="#f2f2f2" stroke="black" points="1638.35,-224.9 1638.35,-283.3 1989.86,-283.3 1989.86,-224.9 1638.35,-224.9"/>
<text text-anchor="middle" x="1814.11" y="-266.7" font-family="Times,serif" font-size="14.00">&lt;&lt;Library&gt;&gt;</text>
<text text-anchor="middle" x="1814.11" y="-249.9" font-family="Times,serif" font-size="14.00">Curve3PoolCalculatorLibrary</text>
<text text-anchor="middle" x="1814.11" y="-233.1" font-family="Times,serif" font-size="14.00">..contractsperipheralCurveCurve3PoolCalculatorLibrary.sol</text>
</g>
<!-- 42 -->
<g id="node4" class="node">
<title>42</title>
<polygon fill="#f2f2f2" stroke="black" points="1755.17,-345.5 1755.17,-403.9 2011.05,-403.9 2011.05,-345.5 1755.17,-345.5"/>
<text text-anchor="middle" x="1883.11" y="-387.3" font-family="Times,serif" font-size="14.00">&lt;&lt;Interface&gt;&gt;</text>
<text text-anchor="middle" x="1883.11" y="-370.5" font-family="Times,serif" font-size="14.00">ICurve3Pool</text>
<text text-anchor="middle" x="1883.11" y="-353.7" font-family="Times,serif" font-size="14.00">..contractsperipheralCurveICurve3Pool.sol</text>
</g>
<!-- 39&#45;&gt;42 -->
<g id="edge3" class="edge">
<title>39&#45;&gt;42</title>
<path fill="none" stroke="black" stroke-dasharray="5,2" d="M1830.63,-283.51C1839.87,-299.38 1851.49,-319.35 1861.44,-336.46"/>
<polygon fill="black" stroke="black" points="1858.42,-338.23 1866.47,-345.11 1864.47,-334.71 1858.42,-338.23"/>
</g>
<!-- 39&#45;&gt;249 -->
<g id="edge2" class="edge">
<title>39&#45;&gt;249</title>
<path fill="none" stroke="black" stroke-dasharray="5,2" d="M1787.5,-283.62C1774.16,-298.71 1758.31,-317.94 1746.11,-336.6 1725.4,-368.28 1725.59,-379.24 1708.11,-412.8 1655.66,-513.48 1670.45,-561.22 1586.11,-637.2 1572.18,-649.74 1555.81,-660.31 1538.75,-669.17"/>
<polygon fill="black" stroke="black" points="1537.16,-666.05 1529.77,-673.64 1540.28,-672.31 1537.16,-666.05"/>
</g>
<!-- 13 -->
<g id="node5" class="node">
<title>13</title>
<polygon fill="#f2f2f2" stroke="black" points="190.05,-457.7 190.05,-516.1 424.16,-516.1 424.16,-457.7 190.05,-457.7"/>
<text text-anchor="middle" x="307.11" y="-499.5" font-family="Times,serif" font-size="14.00">&lt;&lt;Abstract&gt;&gt;</text>
<text text-anchor="middle" x="307.11" y="-482.7" font-family="Times,serif" font-size="14.00">ImmutableModule</text>
<text text-anchor="middle" x="307.11" y="-465.9" font-family="Times,serif" font-size="14.00">..contractssharedImmutableModule.sol</text>
</g>
<!-- 13&#45;&gt;9 -->
<g id="edge5" class="edge">
<title>13&#45;&gt;9</title>
<path fill="none" stroke="black" d="M252.53,-516.14C223.71,-531.05 188.17,-549.43 158.07,-565.01"/>
<polygon fill="black" stroke="black" points="156.18,-562.04 148.91,-569.75 159.4,-568.26 156.18,-562.04"/>
</g>
<!-- 15 -->
<g id="node6" class="node">
<title>15</title>
<polygon fill="#f2f2f2" stroke="black" points="205.99,-578.3 205.99,-619.9 408.22,-619.9 408.22,-578.3 205.99,-578.3"/>
<text text-anchor="middle" x="307.11" y="-603.3" font-family="Times,serif" font-size="14.00">ModuleKeys</text>
<text text-anchor="middle" x="307.11" y="-586.5" font-family="Times,serif" font-size="14.00">..contractssharedModuleKeys.sol</text>
</g>
<!-- 13&#45;&gt;15 -->
<g id="edge4" class="edge">
<title>13&#45;&gt;15</title>
<path fill="none" stroke="black" d="M307.11,-516.28C307.11,-525.97 307.11,-537.12 307.11,-548.01"/>
<polygon fill="none" stroke="black" points="296.61,-548.16 307.11,-578.16 317.61,-548.16 296.61,-548.16"/>
</g>
<!-- 17 -->
<g id="node7" class="node">
<title>17</title>
<polygon fill="#f2f2f2" stroke="black" points="807.5,-345.5 807.5,-403.9 1044.71,-403.9 1044.71,-345.5 807.5,-345.5"/>
<text text-anchor="middle" x="926.11" y="-387.3" font-family="Times,serif" font-size="14.00">&lt;&lt;Abstract&gt;&gt;</text>
<text text-anchor="middle" x="926.11" y="-370.5" font-family="Times,serif" font-size="14.00">VaultManagerRole</text>
<text text-anchor="middle" x="926.11" y="-353.7" font-family="Times,serif" font-size="14.00">..contractssharedVaultManagerRole.sol</text>
</g>
<!-- 17&#45;&gt;13 -->
<g id="edge7" class="edge">
<title>17&#45;&gt;13</title>
<path fill="none" stroke="black" d="M807.47,-388.59C707.08,-400.62 559.75,-420.91 433.11,-448.8 431.02,-449.26 428.93,-449.73 426.82,-450.22"/>
<polygon fill="none" stroke="black" points="424.07,-440.09 397.56,-457.63 429.22,-460.44 424.07,-440.09"/>
</g>
<!-- 157 -->
<g id="node15" class="node">
<title>157</title>
<polygon fill="#f2f2f2" stroke="black" points="441.79,-449.3 441.79,-524.5 784.42,-524.5 784.42,-449.3 441.79,-449.3"/>
<text text-anchor="middle" x="613.11" y="-507.9" font-family="Times,serif" font-size="14.00">&lt;&lt;Abstract&gt;&gt;</text>
<text text-anchor="middle" x="613.11" y="-491.1" font-family="Times,serif" font-size="14.00">Pausable</text>
<text text-anchor="middle" x="613.11" y="-474.3" font-family="Times,serif" font-size="14.00">..</text>
<text text-anchor="middle" x="613.11" y="-457.5" font-family="Times,serif" font-size="14.00">ode_modules@openzeppelincontractssecurityPausable.sol</text>
</g>
<!-- 17&#45;&gt;157 -->
<g id="edge6" class="edge">
<title>17&#45;&gt;157</title>
<path fill="none" stroke="black" d="M845.91,-403.94C815.42,-414.67 779.81,-427.21 745.75,-439.2"/>
<polygon fill="none" stroke="black" points="742.15,-429.34 717.34,-449.2 749.12,-449.14 742.15,-429.34"/>
</g>
<!-- 19 -->
<g id="node8" class="node">
<title>19</title>
<polygon fill="#f2f2f2" stroke="black" points="1134.83,-345.5 1134.83,-403.9 1367.38,-403.9 1367.38,-345.5 1134.83,-345.5"/>
<text text-anchor="middle" x="1251.11" y="-387.3" font-family="Times,serif" font-size="14.00">&lt;&lt;Abstract&gt;&gt;</text>
<text text-anchor="middle" x="1251.11" y="-370.5" font-family="Times,serif" font-size="14.00">InitializableToken</text>
<text text-anchor="middle" x="1251.11" y="-353.7" font-family="Times,serif" font-size="14.00">..contractstokensInitializableToken.sol</text>
</g>
<!-- 20 -->
<g id="node9" class="node">
<title>20</title>
<polygon fill="#f2f2f2" stroke="black" points="802.01,-457.7 802.01,-516.1 1074.2,-516.1 1074.2,-457.7 802.01,-457.7"/>
<text text-anchor="middle" x="938.11" y="-499.5" font-family="Times,serif" font-size="14.00">&lt;&lt;Abstract&gt;&gt;</text>
<text text-anchor="middle" x="938.11" y="-482.7" font-family="Times,serif" font-size="14.00">InitializableTokenDetails</text>
<text text-anchor="middle" x="938.11" y="-465.9" font-family="Times,serif" font-size="14.00">..contractstokensInitializableTokenDetails.sol</text>
</g>
<!-- 19&#45;&gt;20 -->
<g id="edge9" class="edge">
<title>19&#45;&gt;20</title>
<path fill="none" stroke="black" d="M1170.91,-403.94C1133.14,-417.23 1087.52,-433.29 1046.71,-447.66"/>
<polygon fill="none" stroke="black" points="1043.18,-437.77 1018.37,-457.64 1050.15,-457.58 1043.18,-437.77"/>
</g>
<!-- 248 -->
<g id="node16" class="node">
<title>248</title>
<polygon fill="#f2f2f2" stroke="black" points="1092.6,-457.7 1092.6,-516.1 1437.61,-516.1 1437.61,-457.7 1092.6,-457.7"/>
<text text-anchor="middle" x="1265.11" y="-499.5" font-family="Times,serif" font-size="14.00">ERC20</text>
<text text-anchor="middle" x="1265.11" y="-482.7" font-family="Times,serif" font-size="14.00">..</text>
<text text-anchor="middle" x="1265.11" y="-465.9" font-family="Times,serif" font-size="14.00">ode_modules@openzeppelincontractstokenRC20RC20.sol</text>
</g>
<!-- 19&#45;&gt;248 -->
<g id="edge8" class="edge">
<title>19&#45;&gt;248</title>
<path fill="none" stroke="black" d="M1254.71,-404.08C1255.64,-411.41 1256.68,-419.56 1257.73,-427.81"/>
<polygon fill="none" stroke="black" points="1247.32,-429.18 1261.51,-457.62 1268.15,-426.53 1247.32,-429.18"/>
</g>
<!-- 29 -->
<g id="node10" class="node">
<title>29</title>
<polygon fill="#f2f2f2" stroke="black" points="1224.56,-208.1 1224.56,-300.1 1581.65,-300.1 1581.65,-208.1 1224.56,-208.1"/>
<text text-anchor="middle" x="1403.11" y="-283.5" font-family="Times,serif" font-size="14.00">&lt;&lt;Abstract&gt;&gt;</text>
<text text-anchor="middle" x="1403.11" y="-266.7" font-family="Times,serif" font-size="14.00">LightAbstractVault</text>
<text text-anchor="middle" x="1403.11" y="-249.9" font-family="Times,serif" font-size="14.00">..contractsvault{&lt;&lt;Abstract&gt;&gt;</text>
<text text-anchor="middle" x="1403.11" y="-233.1" font-family="Times,serif" font-size="14.00">LightAbstractVault</text>
<text text-anchor="middle" x="1403.11" y="-216.3" font-family="Times,serif" font-size="14.00">..contractsvaultLightAbstractVault.sol}ightAbstractVault.sol</text>
</g>
<!-- 29&#45;&gt;6 -->
<g id="edge10" class="edge">
<title>29&#45;&gt;6</title>
<path fill="none" stroke="black" stroke-dasharray="5,2" d="M1470.27,-300.11C1484.19,-309.43 1498.85,-319.26 1512.77,-328.58"/>
<polygon fill="none" stroke="black" points="1507.08,-337.41 1537.85,-345.38 1518.77,-319.96 1507.08,-337.41"/>
</g>
<!-- 29&#45;&gt;17 -->
<g id="edge12" class="edge">
<title>29&#45;&gt;17</title>
<path fill="none" stroke="black" d="M1224.47,-299.52C1173.1,-312.29 1117.76,-326.05 1068.86,-338.21"/>
<polygon fill="none" stroke="black" points="1066.31,-328.02 1039.73,-345.45 1071.38,-348.4 1066.31,-328.02"/>
</g>
<!-- 29&#45;&gt;19 -->
<g id="edge11" class="edge">
<title>29&#45;&gt;19</title>
<path fill="none" stroke="black" d="M1345.21,-300.28C1334.11,-308.94 1322.46,-318.03 1311.29,-326.74"/>
<polygon fill="none" stroke="black" points="1304.48,-318.73 1287.29,-345.47 1317.4,-335.29 1304.48,-318.73"/>
</g>
<!-- 29&#45;&gt;249 -->
<g id="edge13" class="edge">
<title>29&#45;&gt;249</title>
<path fill="none" stroke="black" d="M1412.56,-300.29C1420.43,-332.77 1433.4,-376.97 1452.11,-412.8 1461.49,-430.77 1470.15,-431.14 1480.11,-448.8 1506.34,-495.32 1513.39,-508.49 1523.11,-561 1529.27,-594.3 1539.29,-607.45 1523.11,-637.2 1516.83,-648.73 1507.87,-658.72 1497.7,-667.29"/>
<polygon fill="black" stroke="black" points="1495.41,-664.64 1489.71,-673.57 1499.74,-670.14 1495.41,-664.64"/>
</g>
<!-- 70 -->
<g id="node11" class="node">
<title>70</title>
<polygon fill="#f2f2f2" stroke="black" points="954.2,-216.5 954.2,-291.7 1130.01,-291.7 1130.01,-216.5 954.2,-216.5"/>
<text text-anchor="middle" x="1042.11" y="-275.1" font-family="Times,serif" font-size="14.00">&lt;&lt;Abstract&gt;&gt;</text>
<text text-anchor="middle" x="1042.11" y="-258.3" font-family="Times,serif" font-size="14.00">AbstractSlippage</text>
<text text-anchor="start" x="962.2" y="-241.5" font-family="Times,serif" font-size="14.00">..contractsvault</text>
<text text-anchor="middle" x="1042.11" y="-224.7" font-family="Times,serif" font-size="14.00">iquidityAbstractSlippage.sol</text>
</g>
<!-- 70&#45;&gt;17 -->
<g id="edge14" class="edge">
<title>70&#45;&gt;17</title>
<path fill="none" stroke="black" d="M1006.04,-291.98C996.35,-301.88 985.7,-312.77 975.43,-323.27"/>
<polygon fill="none" stroke="black" points="967.51,-316.35 954.04,-345.14 982.53,-331.03 967.51,-316.35"/>
</g>
<!-- 106 -->
<g id="node12" class="node">
<title>106</title>
<polygon fill="#f2f2f2" stroke="black" points="1263.11,-95.9 1263.11,-171.1 1543.1,-171.1 1543.1,-95.9 1263.11,-95.9"/>
<text text-anchor="middle" x="1403.11" y="-154.5" font-family="Times,serif" font-size="14.00">&lt;&lt;Abstract&gt;&gt;</text>
<text text-anchor="middle" x="1403.11" y="-137.7" font-family="Times,serif" font-size="14.00">Curve3CrvAbstractMetaVault</text>
<text text-anchor="start" x="1271.11" y="-120.9" font-family="Times,serif" font-size="14.00">..contractsvault</text>
<text text-anchor="middle" x="1403.11" y="-104.1" font-family="Times,serif" font-size="14.00">iquiditycurveCurve3CrvAbstractMetaVault.sol</text>
</g>
<!-- 106&#45;&gt;6 -->
<g id="edge18" class="edge">
<title>106&#45;&gt;6</title>
<path fill="none" stroke="black" d="M1528.49,-171.19C1557.47,-182.27 1582.41,-194.88 1591.11,-207.6 1616.83,-245.21 1606.7,-299.5 1595.11,-335.66"/>
<polygon fill="black" stroke="black" points="1591.73,-334.75 1591.84,-345.35 1598.36,-337 1591.73,-334.75"/>
</g>
<!-- 106&#45;&gt;39 -->
<g id="edge21" class="edge">
<title>106&#45;&gt;39</title>
<path fill="none" stroke="black" stroke-dasharray="5,2" d="M1530.05,-171.13C1586.67,-187.47 1652.64,-206.51 1706.76,-222.12"/>
<polygon fill="black" stroke="black" points="1705.79,-225.49 1716.37,-224.9 1707.73,-218.76 1705.79,-225.49"/>
</g>
<!-- 106&#45;&gt;42 -->
<g id="edge20" class="edge">
<title>106&#45;&gt;42</title>
<path fill="none" stroke="black" stroke-dasharray="5,2" d="M1543.35,-170.1C1546.29,-170.63 1549.21,-171.13 1552.11,-171.6 1601.28,-179.65 1965.32,-170.98 1999.11,-207.6 2027.13,-237.98 2019.08,-264.41 1999.11,-300.6 1990.27,-316.6 1976.31,-329.58 1961.08,-339.91"/>
<polygon fill="black" stroke="black" points="1959.06,-337.05 1952.51,-345.38 1962.82,-342.95 1959.06,-337.05"/>
</g>
<!-- 106&#45;&gt;29 -->
<g id="edge16" class="edge">
<title>106&#45;&gt;29</title>
<path fill="none" stroke="black" d="M1403.11,-171.38C1403.11,-173.45 1403.11,-175.57 1403.11,-177.72"/>
<polygon fill="none" stroke="black" points="1392.61,-177.89 1403.11,-207.9 1413.61,-177.9 1392.61,-177.89"/>
</g>
<!-- 106&#45;&gt;70 -->
<g id="edge15" class="edge">
<title>106&#45;&gt;70</title>
<path fill="none" stroke="black" d="M1291.36,-171.21C1249.31,-185.03 1201.41,-200.76 1158.92,-214.72"/>
<polygon fill="none" stroke="black" points="1155.38,-204.83 1130.15,-224.17 1161.93,-224.79 1155.38,-204.83"/>
</g>
<!-- 366 -->
<g id="node18" class="node">
<title>366</title>
<polygon fill="#f2f2f2" stroke="black" points="1044.4,-561.5 1044.4,-636.7 1513.81,-636.7 1513.81,-561.5 1044.4,-561.5"/>
<text text-anchor="middle" x="1279.11" y="-620.1" font-family="Times,serif" font-size="14.00">&lt;&lt;Interface&gt;&gt;</text>
<text text-anchor="middle" x="1279.11" y="-603.3" font-family="Times,serif" font-size="14.00">IERC20Metadata</text>
<text text-anchor="middle" x="1279.11" y="-586.5" font-family="Times,serif" font-size="14.00">..</text>
<text text-anchor="middle" x="1279.11" y="-569.7" font-family="Times,serif" font-size="14.00">ode_modules@openzeppelincontractstokenRC20extensionsIERC20Metadata.sol</text>
</g>
<!-- 106&#45;&gt;366 -->
<g id="edge19" class="edge">
<title>106&#45;&gt;366</title>
<path fill="none" stroke="black" stroke-dasharray="5,2" d="M1263.04,-166.44C1244.15,-176.59 1227.17,-189.97 1215.11,-207.6 1191.77,-241.71 1189.26,-268.34 1215.11,-300.6 1260.95,-357.82 1317.23,-292.9 1376.11,-336.6 1407.33,-359.78 1397.55,-380.43 1419.11,-412.8 1430.34,-429.67 1440.53,-429.63 1447.11,-448.8 1458.1,-480.83 1465.67,-496.68 1447.11,-525 1439.1,-537.21 1428.56,-547.4 1416.66,-555.88"/>
<polygon fill="black" stroke="black" points="1414.61,-553.05 1408.22,-561.49 1418.48,-558.88 1414.61,-553.05"/>
</g>
<!-- 369 -->
<g id="node20" class="node">
<title>369</title>
<polygon fill="#f2f2f2" stroke="black" points="2157.83,-216.5 2157.83,-291.7 2560.38,-291.7 2560.38,-216.5 2157.83,-216.5"/>
<text text-anchor="middle" x="2359.11" y="-275.1" font-family="Times,serif" font-size="14.00">&lt;&lt;Library&gt;&gt;</text>
<text text-anchor="middle" x="2359.11" y="-258.3" font-family="Times,serif" font-size="14.00">SafeERC20</text>
<text text-anchor="middle" x="2359.11" y="-241.5" font-family="Times,serif" font-size="14.00">..</text>
<text text-anchor="middle" x="2359.11" y="-224.7" font-family="Times,serif" font-size="14.00">ode_modules@openzeppelincontractstokenRC20utilsSafeERC20.sol</text>
</g>
<!-- 106&#45;&gt;369 -->
<g id="edge17" class="edge">
<title>106&#45;&gt;369</title>
<path fill="none" stroke="black" stroke-dasharray="5,2" d="M1543.35,-170.12C1546.29,-170.64 1549.21,-171.13 1552.11,-171.6 1763.32,-205.57 1819.39,-184.85 2032.11,-207.6 2069.38,-211.59 2108.96,-216.51 2147.22,-221.62"/>
<polygon fill="black" stroke="black" points="2147.07,-225.13 2157.44,-223 2148,-218.2 2147.07,-225.13"/>
</g>
<!-- 107 -->
<g id="node13" class="node">
<title>107</title>
<polygon fill="#f2f2f2" stroke="black" points="1271.27,-0.5 1271.27,-58.9 1534.94,-58.9 1534.94,-0.5 1271.27,-0.5"/>
<text text-anchor="middle" x="1403.11" y="-42.3" font-family="Times,serif" font-size="14.00">Curve3CrvBasicMetaVault</text>
<text text-anchor="start" x="1279.27" y="-25.5" font-family="Times,serif" font-size="14.00">..contractsvault</text>
<text text-anchor="middle" x="1403.11" y="-8.7" font-family="Times,serif" font-size="14.00">iquiditycurveCurve3CrvBasicMetaVault.sol</text>
</g>
<!-- 107&#45;&gt;17 -->
<g id="edge25" class="edge">
<title>107&#45;&gt;17</title>
<path fill="none" stroke="black" stroke-dasharray="5,2" d="M1270.98,-41.73C1209.98,-50.59 1137.98,-66.58 1078.11,-95.4 1008.42,-128.94 981.64,-139.44 945.11,-207.6 923.86,-247.25 921.37,-299.76 922.72,-335.03"/>
<polygon fill="black" stroke="black" points="919.24,-335.58 923.24,-345.39 926.23,-335.23 919.24,-335.58"/>
</g>
<!-- 107&#45;&gt;19 -->
<g id="edge24" class="edge">
<title>107&#45;&gt;19</title>
<path fill="none" stroke="black" stroke-dasharray="5,2" d="M1314.58,-58.97C1293.34,-68.39 1271.72,-80.41 1254.11,-95.4 1208.98,-133.8 1198.78,-150.74 1182.11,-207.6 1170.47,-247.26 1166.84,-262.19 1182.11,-300.6 1187.6,-314.44 1197.1,-327.17 1207.32,-338"/>
<polygon fill="black" stroke="black" points="1204.93,-340.56 1214.47,-345.18 1209.9,-335.62 1204.93,-340.56"/>
</g>
<!-- 107&#45;&gt;70 -->
<g id="edge26" class="edge">
<title>107&#45;&gt;70</title>
<path fill="none" stroke="black" stroke-dasharray="5,2" d="M1271.13,-44.03C1227.67,-53.31 1181.05,-68.98 1144.11,-95.4 1105.03,-123.34 1077.14,-171.36 1060.51,-207.08"/>
<polygon fill="black" stroke="black" points="1057.26,-205.79 1056.33,-216.34 1063.64,-208.67 1057.26,-205.79"/>
</g>
<!-- 107&#45;&gt;106 -->
<g id="edge22" class="edge">
<title>107&#45;&gt;106</title>
<path fill="none" stroke="black" d="M1403.11,-59.06C1403.11,-61.09 1403.11,-63.18 1403.11,-65.31"/>
<polygon fill="none" stroke="black" points="1392.61,-65.53 1403.11,-95.53 1413.61,-65.53 1392.61,-65.53"/>
</g>
<!-- 241 -->
<g id="node14" class="node">
<title>241</title>
<polygon fill="#f2f2f2" stroke="black" points="1561.01,-95.9 1561.01,-171.1 1933.2,-171.1 1933.2,-95.9 1561.01,-95.9"/>
<text text-anchor="middle" x="1747.11" y="-154.5" font-family="Times,serif" font-size="14.00">&lt;&lt;Abstract&gt;&gt;</text>
<text text-anchor="middle" x="1747.11" y="-137.7" font-family="Times,serif" font-size="14.00">Initializable</text>
<text text-anchor="middle" x="1747.11" y="-120.9" font-family="Times,serif" font-size="14.00">..</text>
<text text-anchor="middle" x="1747.11" y="-104.1" font-family="Times,serif" font-size="14.00">ode_modules@openzeppelincontractsproxyutilsInitializable.sol</text>
</g>
<!-- 107&#45;&gt;241 -->
<g id="edge23" class="edge">
<title>107&#45;&gt;241</title>
<path fill="none" stroke="black" d="M1498.47,-58.92C1528.16,-67.71 1561.67,-77.62 1594.25,-87.27"/>
<polygon fill="none" stroke="black" points="1591.4,-97.37 1623.15,-95.82 1597.36,-77.24 1591.4,-97.37"/>
</g>
<!-- 160 -->
<g id="node21" class="node">
<title>160</title>
<polygon fill="#f2f2f2" stroke="black" points="2570.83,-337.1 2570.83,-412.3 2889.38,-412.3 2889.38,-337.1 2570.83,-337.1"/>
<text text-anchor="middle" x="2730.11" y="-395.7" font-family="Times,serif" font-size="14.00">&lt;&lt;Library&gt;&gt;</text>
<text text-anchor="middle" x="2730.11" y="-378.9" font-family="Times,serif" font-size="14.00">Address</text>
<text text-anchor="middle" x="2730.11" y="-362.1" font-family="Times,serif" font-size="14.00">..</text>
<text text-anchor="middle" x="2730.11" y="-345.3" font-family="Times,serif" font-size="14.00">ode_modules@openzeppelincontractsutilsAddress.sol</text>
</g>
<!-- 241&#45;&gt;160 -->
<g id="edge27" class="edge">
<title>241&#45;&gt;160</title>
<path fill="none" stroke="black" stroke-dasharray="5,2" d="M1933.21,-136.12C2140.41,-140.51 2460.47,-155.81 2569.11,-207.6 2625.12,-234.3 2672.17,-289.28 2700.67,-328.67"/>
<polygon fill="black" stroke="black" points="2697.82,-330.7 2706.46,-336.83 2703.52,-326.65 2697.82,-330.7"/>
</g>
<!-- 166 -->
<g id="node22" class="node">
<title>166</title>
<polygon fill="#f2f2f2" stroke="black" points="569.61,-561.5 569.61,-636.7 886.61,-636.7 886.61,-561.5 569.61,-561.5"/>
<text text-anchor="middle" x="728.11" y="-620.1" font-family="Times,serif" font-size="14.00">&lt;&lt;Abstract&gt;&gt;</text>
<text text-anchor="middle" x="728.11" y="-603.3" font-family="Times,serif" font-size="14.00">Context</text>
<text text-anchor="middle" x="728.11" y="-586.5" font-family="Times,serif" font-size="14.00">..</text>
<text text-anchor="middle" x="728.11" y="-569.7" font-family="Times,serif" font-size="14.00">ode_modules@openzeppelincontractsutilsContext.sol</text>
</g>
<!-- 157&#45;&gt;166 -->
<g id="edge28" class="edge">
<title>157&#45;&gt;166</title>
<path fill="none" stroke="black" d="M651.4,-524.6C656.68,-529.65 662.2,-534.94 667.76,-540.27"/>
<polygon fill="none" stroke="black" points="660.66,-548.01 689.59,-561.19 675.19,-532.85 660.66,-548.01"/>
</g>
<!-- 248&#45;&gt;249 -->
<g id="edge30" class="edge">
<title>248&#45;&gt;249</title>
<path fill="none" stroke="black" stroke-dasharray="5,2" d="M1131.12,-516.18C1087.95,-528.2 1047.91,-543.5 1035.11,-561 1015.11,-588.33 1013.57,-611.06 1035.11,-637.2 1057.79,-664.74 1127.63,-682.04 1200.98,-692.84"/>
<polygon fill="none" stroke="black" points="1199.7,-703.27 1230.84,-696.88 1202.51,-682.45 1199.7,-703.27"/>
</g>
<!-- 248&#45;&gt;366 -->
<g id="edge31" class="edge">
<title>248&#45;&gt;366</title>
<path fill="none" stroke="black" stroke-dasharray="5,2" d="M1268.71,-516.28C1269.33,-521.12 1269.99,-526.33 1270.67,-531.68"/>
<polygon fill="none" stroke="black" points="1260.26,-533.05 1274.45,-561.49 1281.09,-530.41 1260.26,-533.05"/>
</g>
<!-- 248&#45;&gt;166 -->
<g id="edge29" class="edge">
<title>248&#45;&gt;166</title>
<path fill="none" stroke="black" d="M1127.51,-516.14C1063.35,-529.3 985.98,-545.18 916.49,-559.44"/>
<polygon fill="none" stroke="black" points="914.02,-549.23 886.75,-565.54 918.24,-569.8 914.02,-549.23"/>
</g>
<!-- 366&#45;&gt;249 -->
<g id="edge32" class="edge">
<title>366&#45;&gt;249</title>
<path fill="none" stroke="black" stroke-dasharray="5,2" d="M1322.73,-636.8C1329.29,-642.31 1336.18,-648.11 1343.09,-653.92"/>
<polygon fill="none" stroke="black" points="1336.51,-662.11 1366.23,-673.39 1350.03,-646.04 1336.51,-662.11"/>
</g>
<!-- 354 -->
<g id="node19" class="node">
<title>354</title>
<polygon fill="#f2f2f2" stroke="black" points="2029.23,-337.1 2029.23,-412.3 2514.98,-412.3 2514.98,-337.1 2029.23,-337.1"/>
<text text-anchor="middle" x="2272.11" y="-395.7" font-family="Times,serif" font-size="14.00">&lt;&lt;Interface&gt;&gt;</text>
<text text-anchor="middle" x="2272.11" y="-378.9" font-family="Times,serif" font-size="14.00">IERC20Permit</text>
<text text-anchor="middle" x="2272.11" y="-362.1" font-family="Times,serif" font-size="14.00">..</text>
<text text-anchor="middle" x="2272.11" y="-345.3" font-family="Times,serif" font-size="14.00">ode_modules@openzeppelincontractstokenRC20extensionsdraft&#45;IERC20Permit.sol</text>
</g>
<!-- 369&#45;&gt;249 -->
<g id="edge34" class="edge">
<title>369&#45;&gt;249</title>
<path fill="none" stroke="black" stroke-dasharray="5,2" d="M2475.56,-291.81C2494.87,-303.11 2512.39,-317.74 2524.11,-336.6 2541.98,-365.37 2544.73,-385.94 2524.11,-412.8 2412.08,-558.67 1886.89,-648.41 1599.41,-687.45"/>
<polygon fill="black" stroke="black" points="1598.72,-684.01 1589.28,-688.81 1599.66,-690.94 1598.72,-684.01"/>
</g>
<!-- 369&#45;&gt;354 -->
<g id="edge35" class="edge">
<title>369&#45;&gt;354</title>
<path fill="none" stroke="black" stroke-dasharray="5,2" d="M2332.06,-291.98C2323.54,-303.58 2314.05,-316.52 2305.17,-328.63"/>
<polygon fill="black" stroke="black" points="2302.23,-326.71 2299.14,-336.85 2307.88,-330.85 2302.23,-326.71"/>
</g>
<!-- 369&#45;&gt;160 -->
<g id="edge33" class="edge">
<title>369&#45;&gt;160</title>
<path fill="none" stroke="black" stroke-dasharray="5,2" d="M2473.7,-291.73C2515.55,-305.11 2563.08,-320.3 2605.74,-333.94"/>
<polygon fill="black" stroke="black" points="2604.74,-337.3 2615.33,-337.01 2606.87,-330.63 2604.74,-337.3"/>
</g>
</g>
</svg>
