<?xml version="1.0" encoding="UTF-8" standalone="no"?>
<!DOCTYPE svg PUBLIC "-//W3C//DTD SVG 1.1//EN"
 "http://www.w3.org/Graphics/SVG/1.1/DTD/svg11.dtd">
<!-- Generated by graphviz version 5.0.0 (20220707.1540)
 -->
<!-- Title: UmlClassDiagram Pages: 1 -->
<svg width="1373pt" height="483pt"
 viewBox="0.00 0.00 1372.96 482.60" xmlns="http://www.w3.org/2000/svg" xmlns:xlink="http://www.w3.org/1999/xlink">
<g id="graph0" class="graph" transform="scale(1 1) rotate(0) translate(4 478.6)">
<title>UmlClassDiagram</title>
<polygon fill="white" stroke="transparent" points="-4,4 -4,-478.6 1368.96,-478.6 1368.96,4 -4,4"/>
<!-- 9 -->
<g id="node1" class="node">
<title>9</title>
<polygon fill="#f2f2f2" stroke="black" points="38.64,-191.3 38.64,-249.7 226.85,-249.7 226.85,-191.3 38.64,-191.3"/>
<text text-anchor="middle" x="132.75" y="-233.1" font-family="Times,serif" font-size="14.00">&lt;&lt;Interface&gt;&gt;</text>
<text text-anchor="middle" x="132.75" y="-216.3" font-family="Times,serif" font-size="14.00">INexus</text>
<text text-anchor="middle" x="132.75" y="-199.5" font-family="Times,serif" font-size="14.00">..contractsinterfacesINexus.sol</text>
</g>
<!-- 13 -->
<g id="node2" class="node">
<title>13</title>
<polygon fill="#f2f2f2" stroke="black" points="228.69,-87.5 228.69,-145.9 462.8,-145.9 462.8,-87.5 228.69,-87.5"/>
<text text-anchor="middle" x="345.75" y="-129.3" font-family="Times,serif" font-size="14.00">&lt;&lt;Abstract&gt;&gt;</text>
<text text-anchor="middle" x="345.75" y="-112.5" font-family="Times,serif" font-size="14.00">ImmutableModule</text>
<text text-anchor="middle" x="345.75" y="-95.7" font-family="Times,serif" font-size="14.00">..contractssharedImmutableModule.sol</text>
</g>
<!-- 13&#45;&gt;9 -->
<g id="edge2" class="edge">
<title>13&#45;&gt;9</title>
<path fill="none" stroke="black" d="M286.7,-145.92C260.15,-158.61 228.66,-173.66 201.1,-186.83"/>
<polygon fill="black" stroke="black" points="199.43,-183.75 191.91,-191.22 202.44,-190.07 199.43,-183.75"/>
</g>
<!-- 15 -->
<g id="node3" class="node">
<title>15</title>
<polygon fill="#f2f2f2" stroke="black" points="244.63,-199.7 244.63,-241.3 446.86,-241.3 446.86,-199.7 244.63,-199.7"/>
<text text-anchor="middle" x="345.75" y="-224.7" font-family="Times,serif" font-size="14.00">ModuleKeys</text>
<text text-anchor="middle" x="345.75" y="-207.9" font-family="Times,serif" font-size="14.00">..contractssharedModuleKeys.sol</text>
</g>
<!-- 13&#45;&gt;15 -->
<g id="edge1" class="edge">
<title>13&#45;&gt;15</title>
<path fill="none" stroke="black" d="M345.75,-146.06C345.75,-153.39 345.75,-161.5 345.75,-169.58"/>
<polygon fill="none" stroke="black" points="335.25,-169.67 345.75,-199.67 356.25,-169.67 335.25,-169.67"/>
</g>
<!-- 21 -->
<g id="node4" class="node">
<title>21</title>
<polygon fill="#f2f2f2" stroke="black" points="202.25,-0.5 202.25,-42.1 489.25,-42.1 489.25,-0.5 202.25,-0.5"/>
<text text-anchor="middle" x="345.75" y="-25.5" font-family="Times,serif" font-size="14.00">DelayedProxyAdmin</text>
<text text-anchor="middle" x="345.75" y="-8.7" font-family="Times,serif" font-size="14.00">..contractsupgradabilityDelayedProxyAdmin.sol</text>
</g>
<!-- 21&#45;&gt;13 -->
<g id="edge3" class="edge">
<title>21&#45;&gt;13</title>
<path fill="none" stroke="black" d="M345.75,-42.11C345.75,-46.74 345.75,-51.91 345.75,-57.29"/>
<polygon fill="none" stroke="black" points="335.25,-57.42 345.75,-87.42 356.25,-57.42 335.25,-57.42"/>
</g>
<!-- 240 -->
<g id="node9" class="node">
<title>240</title>
<polygon fill="#f2f2f2" stroke="black" points="481.13,-87.5 481.13,-145.9 996.36,-145.9 996.36,-87.5 481.13,-87.5"/>
<text text-anchor="middle" x="738.75" y="-129.3" font-family="Times,serif" font-size="14.00">TransparentUpgradeableProxy</text>
<text text-anchor="middle" x="738.75" y="-112.5" font-family="Times,serif" font-size="14.00">..</text>
<text text-anchor="middle" x="738.75" y="-95.7" font-family="Times,serif" font-size="14.00">ode_modules@openzeppelincontractsproxytransparentTransparentUpgradeableProxy.sol</text>
</g>
<!-- 21&#45;&gt;240 -->
<g id="edge5" class="edge">
<title>21&#45;&gt;240</title>
<path fill="none" stroke="black" stroke-dasharray="5,2" d="M429.09,-42.11C481.6,-54.59 550.45,-70.95 609.9,-85.08"/>
<polygon fill="black" stroke="black" points="609.2,-88.51 619.74,-87.42 610.82,-81.7 609.2,-88.51"/>
</g>
<!-- 275 -->
<g id="node12" class="node">
<title>275</title>
<polygon fill="#f2f2f2" stroke="black" points="1014.53,-79.1 1014.53,-154.3 1364.96,-154.3 1364.96,-79.1 1014.53,-79.1"/>
<text text-anchor="middle" x="1189.75" y="-137.7" font-family="Times,serif" font-size="14.00">&lt;&lt;Library&gt;&gt;</text>
<text text-anchor="middle" x="1189.75" y="-120.9" font-family="Times,serif" font-size="14.00">SafeCast</text>
<text text-anchor="middle" x="1189.75" y="-104.1" font-family="Times,serif" font-size="14.00">..</text>
<text text-anchor="middle" x="1189.75" y="-87.3" font-family="Times,serif" font-size="14.00">ode_modules@openzeppelincontractsutilsmathSafeCast.sol</text>
</g>
<!-- 21&#45;&gt;275 -->
<g id="edge4" class="edge">
<title>21&#45;&gt;275</title>
<path fill="none" stroke="black" stroke-dasharray="5,2" d="M489.51,-29.83C621.15,-37.83 821.47,-52.76 1004.44,-78.46"/>
<polygon fill="black" stroke="black" points="1004.13,-81.95 1014.52,-79.89 1005.11,-75.02 1004.13,-81.95"/>
</g>
<!-- 237 -->
<g id="node5" class="node">
<title>237</title>
<polygon fill="#f2f2f2" stroke="black" points="534.74,-191.3 534.74,-249.7 942.76,-249.7 942.76,-191.3 534.74,-191.3"/>
<text text-anchor="middle" x="738.75" y="-233.1" font-family="Times,serif" font-size="14.00">ERC1967Proxy</text>
<text text-anchor="middle" x="738.75" y="-216.3" font-family="Times,serif" font-size="14.00">..</text>
<text text-anchor="middle" x="738.75" y="-199.5" font-family="Times,serif" font-size="14.00">ode_modules@openzeppelincontractsproxyRC1967RC1967Proxy.sol</text>
</g>
<!-- 238 -->
<g id="node6" class="node">
<title>238</title>
<polygon fill="#f2f2f2" stroke="black" points="333.37,-286.7 333.37,-361.9 756.13,-361.9 756.13,-286.7 333.37,-286.7"/>
<text text-anchor="middle" x="544.75" y="-345.3" font-family="Times,serif" font-size="14.00">&lt;&lt;Abstract&gt;&gt;</text>
<text text-anchor="middle" x="544.75" y="-328.5" font-family="Times,serif" font-size="14.00">ERC1967Upgrade</text>
<text text-anchor="middle" x="544.75" y="-311.7" font-family="Times,serif" font-size="14.00">..</text>
<text text-anchor="middle" x="544.75" y="-294.9" font-family="Times,serif" font-size="14.00">ode_modules@openzeppelincontractsproxyRC1967RC1967Upgrade.sol</text>
</g>
<!-- 237&#45;&gt;238 -->
<g id="edge7" class="edge">
<title>237&#45;&gt;238</title>
<path fill="none" stroke="black" d="M684.97,-249.72C671.37,-256.86 656.35,-264.74 641.34,-272.61"/>
<polygon fill="none" stroke="black" points="636.34,-263.38 614.65,-286.62 646.1,-281.98 636.34,-263.38"/>
</g>
<!-- 156 -->
<g id="node7" class="node">
<title>156</title>
<polygon fill="#f2f2f2" stroke="black" points="774.42,-286.7 774.42,-361.9 1089.08,-361.9 1089.08,-286.7 774.42,-286.7"/>
<text text-anchor="middle" x="931.75" y="-345.3" font-family="Times,serif" font-size="14.00">&lt;&lt;Abstract&gt;&gt;</text>
<text text-anchor="middle" x="931.75" y="-328.5" font-family="Times,serif" font-size="14.00">Proxy</text>
<text text-anchor="middle" x="931.75" y="-311.7" font-family="Times,serif" font-size="14.00">..</text>
<text text-anchor="middle" x="931.75" y="-294.9" font-family="Times,serif" font-size="14.00">ode_modules@openzeppelincontractsproxyProxy.sol</text>
</g>
<!-- 237&#45;&gt;156 -->
<g id="edge6" class="edge">
<title>237&#45;&gt;156</title>
<path fill="none" stroke="black" d="M792.25,-249.72C805.78,-256.86 820.72,-264.74 835.65,-272.61"/>
<polygon fill="none" stroke="black" points="830.77,-281.91 862.2,-286.62 840.57,-263.33 830.77,-281.91"/>
</g>
<!-- 235 -->
<g id="node8" class="node">
<title>235</title>
<polygon fill="#f2f2f2" stroke="black" points="0,-398.9 0,-474.1 367.5,-474.1 367.5,-398.9 0,-398.9"/>
<text text-anchor="middle" x="183.75" y="-457.5" font-family="Times,serif" font-size="14.00">&lt;&lt;Interface&gt;&gt;</text>
<text text-anchor="middle" x="183.75" y="-440.7" font-family="Times,serif" font-size="14.00">IBeacon</text>
<text text-anchor="middle" x="183.75" y="-423.9" font-family="Times,serif" font-size="14.00">..</text>
<text text-anchor="middle" x="183.75" y="-407.1" font-family="Times,serif" font-size="14.00">ode_modules@openzeppelincontractsproxybeaconIBeacon.sol</text>
</g>
<!-- 238&#45;&gt;235 -->
<g id="edge10" class="edge">
<title>238&#45;&gt;235</title>
<path fill="none" stroke="black" stroke-dasharray="5,2" d="M424.79,-361.92C389.1,-372.81 349.84,-384.8 313.55,-395.88"/>
<polygon fill="black" stroke="black" points="312.44,-392.56 303.9,-398.82 314.48,-399.25 312.44,-392.56"/>
</g>
<!-- 160 -->
<g id="node10" class="node">
<title>160</title>
<polygon fill="#f2f2f2" stroke="black" points="385.47,-398.9 385.47,-474.1 704.02,-474.1 704.02,-398.9 385.47,-398.9"/>
<text text-anchor="middle" x="544.75" y="-457.5" font-family="Times,serif" font-size="14.00">&lt;&lt;Library&gt;&gt;</text>
<text text-anchor="middle" x="544.75" y="-440.7" font-family="Times,serif" font-size="14.00">Address</text>
<text text-anchor="middle" x="544.75" y="-423.9" font-family="Times,serif" font-size="14.00">..</text>
<text text-anchor="middle" x="544.75" y="-407.1" font-family="Times,serif" font-size="14.00">ode_modules@openzeppelincontractsutilsAddress.sol</text>
</g>
<!-- 238&#45;&gt;160 -->
<g id="edge9" class="edge">
<title>238&#45;&gt;160</title>
<path fill="none" stroke="black" stroke-dasharray="5,2" d="M544.75,-362C544.75,-370.46 544.75,-379.57 544.75,-388.4"/>
<polygon fill="black" stroke="black" points="541.25,-388.59 544.75,-398.59 548.25,-388.59 541.25,-388.59"/>
</g>
<!-- 171 -->
<g id="node11" class="node">
<title>171</title>
<polygon fill="#f2f2f2" stroke="black" points="721.75,-398.9 721.75,-474.1 1059.75,-474.1 1059.75,-398.9 721.75,-398.9"/>
<text text-anchor="middle" x="890.75" y="-457.5" font-family="Times,serif" font-size="14.00">&lt;&lt;Library&gt;&gt;</text>
<text text-anchor="middle" x="890.75" y="-440.7" font-family="Times,serif" font-size="14.00">StorageSlot</text>
<text text-anchor="middle" x="890.75" y="-423.9" font-family="Times,serif" font-size="14.00">..</text>
<text text-anchor="middle" x="890.75" y="-407.1" font-family="Times,serif" font-size="14.00">ode_modules@openzeppelincontractsutilsStorageSlot.sol</text>
</g>
<!-- 238&#45;&gt;171 -->
<g id="edge8" class="edge">
<title>238&#45;&gt;171</title>
<path fill="none" stroke="black" stroke-dasharray="5,2" d="M659.96,-362C694.01,-372.84 731.44,-384.76 766.06,-395.79"/>
<polygon fill="black" stroke="black" points="765.15,-399.17 775.74,-398.87 767.28,-392.5 765.15,-399.17"/>
</g>
<!-- 240&#45;&gt;237 -->
<g id="edge11" class="edge">
<title>240&#45;&gt;237</title>
<path fill="none" stroke="black" d="M738.75,-146.06C738.75,-150.8 738.75,-155.87 738.75,-161.05"/>
<polygon fill="none" stroke="black" points="728.25,-161.3 738.75,-191.3 749.25,-161.3 728.25,-161.3"/>
</g>
</g>
</svg>
