<?xml version="1.0" encoding="UTF-8" standalone="no"?>
<!DOCTYPE svg PUBLIC "-//W3C//DTD SVG 1.1//EN"
 "http://www.w3.org/Graphics/SVG/1.1/DTD/svg11.dtd">
<!-- Generated by graphviz version 5.0.0 (20220707.1540)
 -->
<!-- Title: UmlClassDiagram Pages: 1 -->
<svg width="1211pt" height="432pt"
 viewBox="0.00 0.00 1211.47 432.20" xmlns="http://www.w3.org/2000/svg" xmlns:xlink="http://www.w3.org/1999/xlink">
<g id="graph0" class="graph" transform="scale(1 1) rotate(0) translate(4 428.2)">
<title>UmlClassDiagram</title>
<polygon fill="white" stroke="transparent" points="-4,4 -4,-428.2 1207.47,-428.2 1207.47,4 -4,4"/>
<!-- 10 -->
<g id="node1" class="node">
<title>10</title>
<polygon fill="#f2f2f2" stroke="black" points="72.48,-174.5 72.48,-232.9 272.36,-232.9 272.36,-174.5 72.48,-174.5"/>
<text text-anchor="middle" x="172.42" y="-216.3" font-family="Times,serif" font-size="14.00">&lt;&lt;Interface&gt;&gt;</text>
<text text-anchor="middle" x="172.42" y="-199.5" font-family="Times,serif" font-size="14.00">INexus</text>
<text text-anchor="middle" x="172.42" y="-182.7" font-family="Times,serif" font-size="14.00">../contracts/interfaces/INexus.sol</text>
</g>
<!-- 17 -->
<g id="node2" class="node">
<title>17</title>
<polygon fill="#f2f2f2" stroke="black" points="274.53,-79.1 274.53,-137.5 520.31,-137.5 520.31,-79.1 274.53,-79.1"/>
<text text-anchor="middle" x="397.42" y="-120.9" font-family="Times,serif" font-size="14.00">&lt;&lt;Abstract&gt;&gt;</text>
<text text-anchor="middle" x="397.42" y="-104.1" font-family="Times,serif" font-size="14.00">ImmutableModule</text>
<text text-anchor="middle" x="397.42" y="-87.3" font-family="Times,serif" font-size="14.00">../contracts/shared/ImmutableModule.sol</text>
</g>
<!-- 17&#45;&gt;10 -->
<g id="edge2" class="edge">
<title>17&#45;&gt;10</title>
<path fill="none" stroke="black" d="M329.3,-137.58C304.3,-147.95 275.82,-159.78 250.05,-170.47"/>
<polygon fill="black" stroke="black" points="248.59,-167.29 240.69,-174.36 251.27,-173.76 248.59,-167.29"/>
</g>
<!-- 19 -->
<g id="node3" class="node">
<title>19</title>
<polygon fill="#f2f2f2" stroke="black" points="290.47,-182.9 290.47,-224.5 504.37,-224.5 504.37,-182.9 290.47,-182.9"/>
<text text-anchor="middle" x="397.42" y="-207.9" font-family="Times,serif" font-size="14.00">ModuleKeys</text>
<text text-anchor="middle" x="397.42" y="-191.1" font-family="Times,serif" font-size="14.00">../contracts/shared/ModuleKeys.sol</text>
</g>
<!-- 17&#45;&gt;19 -->
<g id="edge1" class="edge">
<title>17&#45;&gt;19</title>
<path fill="none" stroke="black" d="M397.42,-137.58C397.42,-142.37 397.42,-147.47 397.42,-152.62"/>
<polygon fill="none" stroke="black" points="386.92,-152.81 397.42,-182.81 407.92,-152.81 386.92,-152.81"/>
</g>
<!-- 32 -->
<g id="node4" class="node">
<title>32</title>
<polygon fill="#f2f2f2" stroke="black" points="248.08,-0.5 248.08,-42.1 546.75,-42.1 546.75,-0.5 248.08,-0.5"/>
<text text-anchor="middle" x="397.42" y="-25.5" font-family="Times,serif" font-size="14.00">DelayedProxyAdmin</text>
<text text-anchor="middle" x="397.42" y="-8.7" font-family="Times,serif" font-size="14.00">../contracts/upgradability/DelayedProxyAdmin.sol</text>
</g>
<!-- 32&#45;&gt;17 -->
<g id="edge3" class="edge">
<title>32&#45;&gt;17</title>
<path fill="none" stroke="black" d="M397.42,-42.44C397.42,-44.49 397.42,-46.63 397.42,-48.83"/>
<polygon fill="none" stroke="black" points="386.92,-48.94 397.42,-78.94 407.92,-48.94 386.92,-48.94"/>
</g>
<!-- 411 -->
<g id="node9" class="node">
<title>411</title>
<polygon fill="#f2f2f2" stroke="black" points="538.13,-87.5 538.13,-129.1 1090.7,-129.1 1090.7,-87.5 538.13,-87.5"/>
<text text-anchor="middle" x="814.42" y="-112.5" font-family="Times,serif" font-size="14.00">TransparentUpgradeableProxy</text>
<text text-anchor="middle" x="814.42" y="-95.7" font-family="Times,serif" font-size="14.00">../node_modules/@openzeppelin/contracts/proxy/transparent/TransparentUpgradeableProxy.sol</text>
</g>
<!-- 32&#45;&gt;411 -->
<g id="edge4" class="edge">
<title>32&#45;&gt;411</title>
<path fill="none" stroke="black" stroke-dasharray="5,2" d="M494.66,-42.12C558.3,-55.09 641.49,-72.05 707.07,-85.42"/>
<polygon fill="black" stroke="black" points="706.52,-88.88 717.02,-87.45 707.92,-82.02 706.52,-88.88"/>
</g>
<!-- 405 -->
<g id="node5" class="node">
<title>405</title>
<polygon fill="#f2f2f2" stroke="black" points="583.19,-182.9 583.19,-224.5 1045.65,-224.5 1045.65,-182.9 583.19,-182.9"/>
<text text-anchor="middle" x="814.42" y="-207.9" font-family="Times,serif" font-size="14.00">ERC1967Proxy</text>
<text text-anchor="middle" x="814.42" y="-191.1" font-family="Times,serif" font-size="14.00">../node_modules/@openzeppelin/contracts/proxy/ERC1967/ERC1967Proxy.sol</text>
</g>
<!-- 406 -->
<g id="node6" class="node">
<title>406</title>
<polygon fill="#f2f2f2" stroke="black" points="359.81,-269.9 359.81,-328.3 837.02,-328.3 837.02,-269.9 359.81,-269.9"/>
<text text-anchor="middle" x="598.42" y="-311.7" font-family="Times,serif" font-size="14.00">&lt;&lt;Abstract&gt;&gt;</text>
<text text-anchor="middle" x="598.42" y="-294.9" font-family="Times,serif" font-size="14.00">ERC1967Upgrade</text>
<text text-anchor="middle" x="598.42" y="-278.1" font-family="Times,serif" font-size="14.00">../node_modules/@openzeppelin/contracts/proxy/ERC1967/ERC1967Upgrade.sol</text>
</g>
<!-- 405&#45;&gt;406 -->
<g id="edge6" class="edge">
<title>405&#45;&gt;406</title>
<path fill="none" stroke="black" d="M768.61,-224.51C746.12,-234.23 718.17,-246.32 691.46,-257.87"/>
<polygon fill="none" stroke="black" points="687.2,-248.27 663.83,-269.82 695.53,-267.55 687.2,-248.27"/>
</g>
<!-- 269 -->
<g id="node7" class="node">
<title>269</title>
<polygon fill="#f2f2f2" stroke="black" points="855.36,-269.9 855.36,-328.3 1203.47,-328.3 1203.47,-269.9 855.36,-269.9"/>
<text text-anchor="middle" x="1029.42" y="-311.7" font-family="Times,serif" font-size="14.00">&lt;&lt;Abstract&gt;&gt;</text>
<text text-anchor="middle" x="1029.42" y="-294.9" font-family="Times,serif" font-size="14.00">Proxy</text>
<text text-anchor="middle" x="1029.42" y="-278.1" font-family="Times,serif" font-size="14.00">../node_modules/@openzeppelin/contracts/proxy/Proxy.sol</text>
</g>
<!-- 405&#45;&gt;269 -->
<g id="edge5" class="edge">
<title>405&#45;&gt;269</title>
<path fill="none" stroke="black" d="M860.01,-224.51C882.28,-234.18 909.93,-246.19 936.38,-257.68"/>
<polygon fill="none" stroke="black" points="932.61,-267.49 964.31,-269.82 940.98,-248.23 932.61,-267.49"/>
</g>
<!-- 408 -->
<g id="node8" class="node">
<title>408</title>
<polygon fill="#f2f2f2" stroke="black" points="0,-365.3 0,-423.7 404.83,-423.7 404.83,-365.3 0,-365.3"/>
<text text-anchor="middle" x="202.42" y="-407.1" font-family="Times,serif" font-size="14.00">&lt;&lt;Interface&gt;&gt;</text>
<text text-anchor="middle" x="202.42" y="-390.3" font-family="Times,serif" font-size="14.00">IBeacon</text>
<text text-anchor="middle" x="202.42" y="-373.5" font-family="Times,serif" font-size="14.00">../node_modules/@openzeppelin/contracts/proxy/beacon/IBeacon.sol</text>
</g>
<!-- 406&#45;&gt;408 -->
<g id="edge9" class="edge">
<title>406&#45;&gt;408</title>
<path fill="none" stroke="black" stroke-dasharray="5,2" d="M478.8,-328.31C432.46,-339.24 379.29,-351.78 332.04,-362.93"/>
<polygon fill="black" stroke="black" points="330.98,-359.58 322.05,-365.28 332.59,-366.39 330.98,-359.58"/>
</g>
<!-- 273 -->
<g id="node10" class="node">
<title>273</title>
<polygon fill="#f2f2f2" stroke="black" points="422.42,-365.3 422.42,-423.7 774.42,-423.7 774.42,-365.3 422.42,-365.3"/>
<text text-anchor="middle" x="598.42" y="-407.1" font-family="Times,serif" font-size="14.00">&lt;&lt;Library&gt;&gt;</text>
<text text-anchor="middle" x="598.42" y="-390.3" font-family="Times,serif" font-size="14.00">Address</text>
<text text-anchor="middle" x="598.42" y="-373.5" font-family="Times,serif" font-size="14.00">../node_modules/@openzeppelin/contracts/utils/Address.sol</text>
</g>
<!-- 406&#45;&gt;273 -->
<g id="edge8" class="edge">
<title>406&#45;&gt;273</title>
<path fill="none" stroke="black" stroke-dasharray="5,2" d="M598.42,-328.38C598.42,-336.71 598.42,-345.98 598.42,-354.85"/>
<polygon fill="black" stroke="black" points="594.92,-355 598.42,-365 601.92,-355 594.92,-355"/>
</g>
<!-- 284 -->
<g id="node11" class="node">
<title>284</title>
<polygon fill="#f2f2f2" stroke="black" points="792.69,-365.3 792.69,-423.7 1164.14,-423.7 1164.14,-365.3 792.69,-365.3"/>
<text text-anchor="middle" x="978.42" y="-407.1" font-family="Times,serif" font-size="14.00">&lt;&lt;Library&gt;&gt;</text>
<text text-anchor="middle" x="978.42" y="-390.3" font-family="Times,serif" font-size="14.00">StorageSlot</text>
<text text-anchor="middle" x="978.42" y="-373.5" font-family="Times,serif" font-size="14.00">../node_modules/@openzeppelin/contracts/utils/StorageSlot.sol</text>
</g>
<!-- 406&#45;&gt;284 -->
<g id="edge7" class="edge">
<title>406&#45;&gt;284</title>
<path fill="none" stroke="black" stroke-dasharray="5,2" d="M713.2,-328.31C757.58,-339.22 808.48,-351.73 853.75,-362.86"/>
<polygon fill="black" stroke="black" points="853.07,-366.3 863.62,-365.28 854.74,-359.5 853.07,-366.3"/>
</g>
<!-- 411&#45;&gt;405 -->
<g id="edge10" class="edge">
<title>411&#45;&gt;405</title>
<path fill="none" stroke="black" d="M814.42,-129.11C814.42,-136 814.42,-144.07 814.42,-152.29"/>
<polygon fill="none" stroke="black" points="803.92,-152.6 814.42,-182.6 824.92,-152.6 803.92,-152.6"/>
</g>
</g>
</svg>
