<?xml version="1.0" encoding="UTF-8" standalone="no"?>
<!DOCTYPE svg PUBLIC "-//W3C//DTD SVG 1.1//EN"
 "http://www.w3.org/Graphics/SVG/1.1/DTD/svg11.dtd">
<!-- Generated by graphviz version 5.0.0 (20220707.1540)
 -->
<!-- Title: UmlClassDiagram Pages: 1 -->
<svg width="1097pt" height="595pt"
 viewBox="0.00 0.00 1097.08 594.80" xmlns="http://www.w3.org/2000/svg" xmlns:xlink="http://www.w3.org/1999/xlink">
<g id="graph0" class="graph" transform="scale(1 1) rotate(0) translate(4 590.8)">
<title>UmlClassDiagram</title>
<polygon fill="white" stroke="transparent" points="-4,4 -4,-590.8 1093.08,-590.8 1093.08,4 -4,4"/>
<!-- 23 -->
<g id="node1" class="node">
<title>23</title>
<polygon fill="#f2f2f2" stroke="black" points="155.52,-0.5 155.52,-42.1 433.98,-42.1 433.98,-0.5 155.52,-0.5"/>
<text text-anchor="middle" x="294.75" y="-25.5" font-family="Times,serif" font-size="14.00">InstantProxyAdmin</text>
<text text-anchor="middle" x="294.75" y="-8.7" font-family="Times,serif" font-size="14.00">..contractsupgradabilityInstantProxyAdmin.sol</text>
</g>
<!-- 239 -->
<g id="node7" class="node">
<title>239</title>
<polygon fill="#f2f2f2" stroke="black" points="86.88,-79.1 86.88,-137.5 502.62,-137.5 502.62,-79.1 86.88,-79.1"/>
<text text-anchor="middle" x="294.75" y="-120.9" font-family="Times,serif" font-size="14.00">ProxyAdmin</text>
<text text-anchor="middle" x="294.75" y="-104.1" font-family="Times,serif" font-size="14.00">..</text>
<text text-anchor="middle" x="294.75" y="-87.3" font-family="Times,serif" font-size="14.00">ode_modules@openzeppelincontractsproxytransparentProxyAdmin.sol</text>
</g>
<!-- 23&#45;&gt;239 -->
<g id="edge1" class="edge">
<title>23&#45;&gt;239</title>
<path fill="none" stroke="black" d="M294.75,-42.44C294.75,-44.49 294.75,-46.63 294.75,-48.83"/>
<polygon fill="none" stroke="black" points="284.25,-48.94 294.75,-78.94 305.25,-48.94 284.25,-48.94"/>
</g>
<!-- 116 -->
<g id="node2" class="node">
<title>116</title>
<polygon fill="#f2f2f2" stroke="black" points="127.33,-174.5 127.33,-249.7 462.17,-249.7 462.17,-174.5 127.33,-174.5"/>
<text text-anchor="middle" x="294.75" y="-233.1" font-family="Times,serif" font-size="14.00">&lt;&lt;Abstract&gt;&gt;</text>
<text text-anchor="middle" x="294.75" y="-216.3" font-family="Times,serif" font-size="14.00">Ownable</text>
<text text-anchor="middle" x="294.75" y="-199.5" font-family="Times,serif" font-size="14.00">..</text>
<text text-anchor="middle" x="294.75" y="-182.7" font-family="Times,serif" font-size="14.00">ode_modules@openzeppelincontractsaccessOwnable.sol</text>
</g>
<!-- 166 -->
<g id="node10" class="node">
<title>166</title>
<polygon fill="#f2f2f2" stroke="black" points="136.25,-286.7 136.25,-361.9 453.25,-361.9 453.25,-286.7 136.25,-286.7"/>
<text text-anchor="middle" x="294.75" y="-345.3" font-family="Times,serif" font-size="14.00">&lt;&lt;Abstract&gt;&gt;</text>
<text text-anchor="middle" x="294.75" y="-328.5" font-family="Times,serif" font-size="14.00">Context</text>
<text text-anchor="middle" x="294.75" y="-311.7" font-family="Times,serif" font-size="14.00">..</text>
<text text-anchor="middle" x="294.75" y="-294.9" font-family="Times,serif" font-size="14.00">ode_modules@openzeppelincontractsutilsContext.sol</text>
</g>
<!-- 116&#45;&gt;166 -->
<g id="edge2" class="edge">
<title>116&#45;&gt;166</title>
<path fill="none" stroke="black" d="M294.75,-249.8C294.75,-251.91 294.75,-254.07 294.75,-256.25"/>
<polygon fill="none" stroke="black" points="284.25,-256.39 294.75,-286.39 305.25,-256.39 284.25,-256.39"/>
</g>
<!-- 237 -->
<g id="node3" class="node">
<title>237</title>
<polygon fill="#f2f2f2" stroke="black" points="533.74,-295.1 533.74,-353.5 941.76,-353.5 941.76,-295.1 533.74,-295.1"/>
<text text-anchor="middle" x="737.75" y="-336.9" font-family="Times,serif" font-size="14.00">ERC1967Proxy</text>
<text text-anchor="middle" x="737.75" y="-320.1" font-family="Times,serif" font-size="14.00">..</text>
<text text-anchor="middle" x="737.75" y="-303.3" font-family="Times,serif" font-size="14.00">ode_modules@openzeppelincontractsproxyRC1967RC1967Proxy.sol</text>
</g>
<!-- 238 -->
<g id="node4" class="node">
<title>238</title>
<polygon fill="#f2f2f2" stroke="black" points="333.37,-398.9 333.37,-474.1 756.13,-474.1 756.13,-398.9 333.37,-398.9"/>
<text text-anchor="middle" x="544.75" y="-457.5" font-family="Times,serif" font-size="14.00">&lt;&lt;Abstract&gt;&gt;</text>
<text text-anchor="middle" x="544.75" y="-440.7" font-family="Times,serif" font-size="14.00">ERC1967Upgrade</text>
<text text-anchor="middle" x="544.75" y="-423.9" font-family="Times,serif" font-size="14.00">..</text>
<text text-anchor="middle" x="544.75" y="-407.1" font-family="Times,serif" font-size="14.00">ode_modules@openzeppelincontractsproxyRC1967RC1967Upgrade.sol</text>
</g>
<!-- 237&#45;&gt;238 -->
<g id="edge4" class="edge">
<title>237&#45;&gt;238</title>
<path fill="none" stroke="black" d="M688.3,-353.54C672.09,-362.79 653.54,-373.38 635.27,-383.81"/>
<polygon fill="none" stroke="black" points="629.86,-374.81 609.02,-398.8 640.28,-393.05 629.86,-374.81"/>
</g>
<!-- 156 -->
<g id="node5" class="node">
<title>156</title>
<polygon fill="#f2f2f2" stroke="black" points="774.42,-398.9 774.42,-474.1 1089.08,-474.1 1089.08,-398.9 774.42,-398.9"/>
<text text-anchor="middle" x="931.75" y="-457.5" font-family="Times,serif" font-size="14.00">&lt;&lt;Abstract&gt;&gt;</text>
<text text-anchor="middle" x="931.75" y="-440.7" font-family="Times,serif" font-size="14.00">Proxy</text>
<text text-anchor="middle" x="931.75" y="-423.9" font-family="Times,serif" font-size="14.00">..</text>
<text text-anchor="middle" x="931.75" y="-407.1" font-family="Times,serif" font-size="14.00">ode_modules@openzeppelincontractsproxyProxy.sol</text>
</g>
<!-- 237&#45;&gt;156 -->
<g id="edge3" class="edge">
<title>237&#45;&gt;156</title>
<path fill="none" stroke="black" d="M787.46,-353.54C803.75,-362.79 822.4,-373.38 840.76,-383.81"/>
<polygon fill="none" stroke="black" points="835.87,-393.11 867.15,-398.8 846.25,-374.86 835.87,-393.11"/>
</g>
<!-- 235 -->
<g id="node6" class="node">
<title>235</title>
<polygon fill="#f2f2f2" stroke="black" points="0,-511.1 0,-586.3 367.5,-586.3 367.5,-511.1 0,-511.1"/>
<text text-anchor="middle" x="183.75" y="-569.7" font-family="Times,serif" font-size="14.00">&lt;&lt;Interface&gt;&gt;</text>
<text text-anchor="middle" x="183.75" y="-552.9" font-family="Times,serif" font-size="14.00">IBeacon</text>
<text text-anchor="middle" x="183.75" y="-536.1" font-family="Times,serif" font-size="14.00">..</text>
<text text-anchor="middle" x="183.75" y="-519.3" font-family="Times,serif" font-size="14.00">ode_modules@openzeppelincontractsproxybeaconIBeacon.sol</text>
</g>
<!-- 238&#45;&gt;235 -->
<g id="edge7" class="edge">
<title>238&#45;&gt;235</title>
<path fill="none" stroke="black" stroke-dasharray="5,2" d="M424.79,-474.12C389.1,-485.01 349.84,-497 313.55,-508.08"/>
<polygon fill="black" stroke="black" points="312.44,-504.76 303.9,-511.02 314.48,-511.45 312.44,-504.76"/>
</g>
<!-- 160 -->
<g id="node9" class="node">
<title>160</title>
<polygon fill="#f2f2f2" stroke="black" points="385.47,-511.1 385.47,-586.3 704.02,-586.3 704.02,-511.1 385.47,-511.1"/>
<text text-anchor="middle" x="544.75" y="-569.7" font-family="Times,serif" font-size="14.00">&lt;&lt;Library&gt;&gt;</text>
<text text-anchor="middle" x="544.75" y="-552.9" font-family="Times,serif" font-size="14.00">Address</text>
<text text-anchor="middle" x="544.75" y="-536.1" font-family="Times,serif" font-size="14.00">..</text>
<text text-anchor="middle" x="544.75" y="-519.3" font-family="Times,serif" font-size="14.00">ode_modules@openzeppelincontractsutilsAddress.sol</text>
</g>
<!-- 238&#45;&gt;160 -->
<g id="edge6" class="edge">
<title>238&#45;&gt;160</title>
<path fill="none" stroke="black" stroke-dasharray="5,2" d="M544.75,-474.2C544.75,-482.66 544.75,-491.77 544.75,-500.6"/>
<polygon fill="black" stroke="black" points="541.25,-500.79 544.75,-510.79 548.25,-500.79 541.25,-500.79"/>
</g>
<!-- 171 -->
<g id="node11" class="node">
<title>171</title>
<polygon fill="#f2f2f2" stroke="black" points="721.75,-511.1 721.75,-586.3 1059.75,-586.3 1059.75,-511.1 721.75,-511.1"/>
<text text-anchor="middle" x="890.75" y="-569.7" font-family="Times,serif" font-size="14.00">&lt;&lt;Library&gt;&gt;</text>
<text text-anchor="middle" x="890.75" y="-552.9" font-family="Times,serif" font-size="14.00">StorageSlot</text>
<text text-anchor="middle" x="890.75" y="-536.1" font-family="Times,serif" font-size="14.00">..</text>
<text text-anchor="middle" x="890.75" y="-519.3" font-family="Times,serif" font-size="14.00">ode_modules@openzeppelincontractsutilsStorageSlot.sol</text>
</g>
<!-- 238&#45;&gt;171 -->
<g id="edge5" class="edge">
<title>238&#45;&gt;171</title>
<path fill="none" stroke="black" stroke-dasharray="5,2" d="M659.96,-474.2C694.01,-485.04 731.44,-496.96 766.06,-507.99"/>
<polygon fill="black" stroke="black" points="765.15,-511.37 775.74,-511.07 767.28,-504.7 765.15,-511.37"/>
</g>
<!-- 239&#45;&gt;116 -->
<g id="edge8" class="edge">
<title>239&#45;&gt;116</title>
<path fill="none" stroke="black" d="M294.75,-137.66C294.75,-139.69 294.75,-141.78 294.75,-143.91"/>
<polygon fill="none" stroke="black" points="284.25,-144.13 294.75,-174.13 305.25,-144.13 284.25,-144.13"/>
</g>
<!-- 240 -->
<g id="node8" class="node">
<title>240</title>
<polygon fill="#f2f2f2" stroke="black" points="480.13,-182.9 480.13,-241.3 995.36,-241.3 995.36,-182.9 480.13,-182.9"/>
<text text-anchor="middle" x="737.75" y="-224.7" font-family="Times,serif" font-size="14.00">TransparentUpgradeableProxy</text>
<text text-anchor="middle" x="737.75" y="-207.9" font-family="Times,serif" font-size="14.00">..</text>
<text text-anchor="middle" x="737.75" y="-191.1" font-family="Times,serif" font-size="14.00">ode_modules@openzeppelincontractsproxytransparentTransparentUpgradeableProxy.sol</text>
</g>
<!-- 239&#45;&gt;240 -->
<g id="edge9" class="edge">
<title>239&#45;&gt;240</title>
<path fill="none" stroke="black" stroke-dasharray="5,2" d="M417.56,-137.52C475.77,-150.9 545.42,-166.9 604.87,-180.56"/>
<polygon fill="black" stroke="black" points="604.17,-183.99 614.7,-182.82 605.74,-177.17 604.17,-183.99"/>
</g>
<!-- 240&#45;&gt;237 -->
<g id="edge10" class="edge">
<title>240&#45;&gt;237</title>
<path fill="none" stroke="black" d="M737.75,-241.48C737.75,-248.68 737.75,-256.68 737.75,-264.78"/>
<polygon fill="none" stroke="black" points="727.25,-265.02 737.75,-295.02 748.25,-265.02 727.25,-265.02"/>
</g>
</g>
</svg>
