<?xml version="1.0" encoding="UTF-8" standalone="no"?>
<!DOCTYPE svg PUBLIC "-//W3C//DTD SVG 1.1//EN"
 "http://www.w3.org/Graphics/SVG/1.1/DTD/svg11.dtd">
<!-- Generated by graphviz version 5.0.0 (20220707.1540)
 -->
<!-- Title: UmlClassDiagram Pages: 1 -->
<svg width="1211pt" height="511pt"
 viewBox="0.00 0.00 1211.47 510.80" xmlns="http://www.w3.org/2000/svg" xmlns:xlink="http://www.w3.org/1999/xlink">
<g id="graph0" class="graph" transform="scale(1 1) rotate(0) translate(4 506.8)">
<title>UmlClassDiagram</title>
<polygon fill="white" stroke="transparent" points="-4,4 -4,-506.8 1207.47,-506.8 1207.47,4 -4,4"/>
<!-- 34 -->
<g id="node1" class="node">
<title>34</title>
<polygon fill="#f2f2f2" stroke="black" points="190.35,-0.5 190.35,-42.1 480.48,-42.1 480.48,-0.5 190.35,-0.5"/>
<text text-anchor="middle" x="335.42" y="-25.5" font-family="Times,serif" font-size="14.00">InstantProxyAdmin</text>
<text text-anchor="middle" x="335.42" y="-8.7" font-family="Times,serif" font-size="14.00">../contracts/upgradability/InstantProxyAdmin.sol</text>
</g>
<!-- 410 -->
<g id="node7" class="node">
<title>410</title>
<polygon fill="#f2f2f2" stroke="black" points="108.88,-79.1 108.88,-120.7 561.96,-120.7 561.96,-79.1 108.88,-79.1"/>
<text text-anchor="middle" x="335.42" y="-104.1" font-family="Times,serif" font-size="14.00">ProxyAdmin</text>
<text text-anchor="middle" x="335.42" y="-87.3" font-family="Times,serif" font-size="14.00">../node_modules/@openzeppelin/contracts/proxy/transparent/ProxyAdmin.sol</text>
</g>
<!-- 34&#45;&gt;410 -->
<g id="edge1" class="edge">
<title>34&#45;&gt;410</title>
<path fill="none" stroke="black" d="M335.42,-42.43C335.42,-44.45 335.42,-46.56 335.42,-48.73"/>
<polygon fill="none" stroke="black" points="324.92,-48.91 335.42,-78.91 345.92,-48.91 324.92,-48.91"/>
</g>
<!-- 247 -->
<g id="node2" class="node">
<title>247</title>
<polygon fill="#f2f2f2" stroke="black" points="151.27,-157.7 151.27,-216.1 519.56,-216.1 519.56,-157.7 151.27,-157.7"/>
<text text-anchor="middle" x="335.42" y="-199.5" font-family="Times,serif" font-size="14.00">&lt;&lt;Abstract&gt;&gt;</text>
<text text-anchor="middle" x="335.42" y="-182.7" font-family="Times,serif" font-size="14.00">Ownable</text>
<text text-anchor="middle" x="335.42" y="-165.9" font-family="Times,serif" font-size="14.00">../node_modules/@openzeppelin/contracts/access/Ownable.sol</text>
</g>
<!-- 279 -->
<g id="node10" class="node">
<title>279</title>
<polygon fill="#f2f2f2" stroke="black" points="160.19,-253.1 160.19,-311.5 510.64,-311.5 510.64,-253.1 160.19,-253.1"/>
<text text-anchor="middle" x="335.42" y="-294.9" font-family="Times,serif" font-size="14.00">&lt;&lt;Abstract&gt;&gt;</text>
<text text-anchor="middle" x="335.42" y="-278.1" font-family="Times,serif" font-size="14.00">Context</text>
<text text-anchor="middle" x="335.42" y="-261.3" font-family="Times,serif" font-size="14.00">../node_modules/@openzeppelin/contracts/utils/Context.sol</text>
</g>
<!-- 247&#45;&gt;279 -->
<g id="edge2" class="edge">
<title>247&#45;&gt;279</title>
<path fill="none" stroke="black" d="M335.42,-216.18C335.42,-218.26 335.42,-220.4 335.42,-222.58"/>
<polygon fill="none" stroke="black" points="324.92,-222.8 335.42,-252.8 345.92,-222.8 324.92,-222.8"/>
</g>
<!-- 405 -->
<g id="node3" class="node">
<title>405</title>
<polygon fill="#f2f2f2" stroke="black" points="582.19,-261.5 582.19,-303.1 1044.65,-303.1 1044.65,-261.5 582.19,-261.5"/>
<text text-anchor="middle" x="813.42" y="-286.5" font-family="Times,serif" font-size="14.00">ERC1967Proxy</text>
<text text-anchor="middle" x="813.42" y="-269.7" font-family="Times,serif" font-size="14.00">../node_modules/@openzeppelin/contracts/proxy/ERC1967/ERC1967Proxy.sol</text>
</g>
<!-- 406 -->
<g id="node4" class="node">
<title>406</title>
<polygon fill="#f2f2f2" stroke="black" points="359.81,-348.5 359.81,-406.9 837.02,-406.9 837.02,-348.5 359.81,-348.5"/>
<text text-anchor="middle" x="598.42" y="-390.3" font-family="Times,serif" font-size="14.00">&lt;&lt;Abstract&gt;&gt;</text>
<text text-anchor="middle" x="598.42" y="-373.5" font-family="Times,serif" font-size="14.00">ERC1967Upgrade</text>
<text text-anchor="middle" x="598.42" y="-356.7" font-family="Times,serif" font-size="14.00">../node_modules/@openzeppelin/contracts/proxy/ERC1967/ERC1967Upgrade.sol</text>
</g>
<!-- 405&#45;&gt;406 -->
<g id="edge4" class="edge">
<title>405&#45;&gt;406</title>
<path fill="none" stroke="black" d="M767.82,-303.11C745.55,-312.78 717.91,-324.79 691.45,-336.28"/>
<polygon fill="none" stroke="black" points="686.86,-326.83 663.53,-348.42 695.23,-346.09 686.86,-326.83"/>
</g>
<!-- 269 -->
<g id="node5" class="node">
<title>269</title>
<polygon fill="#f2f2f2" stroke="black" points="855.36,-348.5 855.36,-406.9 1203.47,-406.9 1203.47,-348.5 855.36,-348.5"/>
<text text-anchor="middle" x="1029.42" y="-390.3" font-family="Times,serif" font-size="14.00">&lt;&lt;Abstract&gt;&gt;</text>
<text text-anchor="middle" x="1029.42" y="-373.5" font-family="Times,serif" font-size="14.00">Proxy</text>
<text text-anchor="middle" x="1029.42" y="-356.7" font-family="Times,serif" font-size="14.00">../node_modules/@openzeppelin/contracts/proxy/Proxy.sol</text>
</g>
<!-- 405&#45;&gt;269 -->
<g id="edge3" class="edge">
<title>405&#45;&gt;269</title>
<path fill="none" stroke="black" d="M859.23,-303.11C881.72,-312.83 909.67,-324.92 936.37,-336.47"/>
<polygon fill="none" stroke="black" points="932.3,-346.15 964.01,-348.42 940.64,-326.87 932.3,-346.15"/>
</g>
<!-- 408 -->
<g id="node6" class="node">
<title>408</title>
<polygon fill="#f2f2f2" stroke="black" points="0,-443.9 0,-502.3 404.83,-502.3 404.83,-443.9 0,-443.9"/>
<text text-anchor="middle" x="202.42" y="-485.7" font-family="Times,serif" font-size="14.00">&lt;&lt;Interface&gt;&gt;</text>
<text text-anchor="middle" x="202.42" y="-468.9" font-family="Times,serif" font-size="14.00">IBeacon</text>
<text text-anchor="middle" x="202.42" y="-452.1" font-family="Times,serif" font-size="14.00">../node_modules/@openzeppelin/contracts/proxy/beacon/IBeacon.sol</text>
</g>
<!-- 406&#45;&gt;408 -->
<g id="edge7" class="edge">
<title>406&#45;&gt;408</title>
<path fill="none" stroke="black" stroke-dasharray="5,2" d="M478.8,-406.91C432.46,-417.84 379.29,-430.38 332.04,-441.53"/>
<polygon fill="black" stroke="black" points="330.98,-438.18 322.05,-443.88 332.59,-444.99 330.98,-438.18"/>
</g>
<!-- 273 -->
<g id="node9" class="node">
<title>273</title>
<polygon fill="#f2f2f2" stroke="black" points="422.42,-443.9 422.42,-502.3 774.42,-502.3 774.42,-443.9 422.42,-443.9"/>
<text text-anchor="middle" x="598.42" y="-485.7" font-family="Times,serif" font-size="14.00">&lt;&lt;Library&gt;&gt;</text>
<text text-anchor="middle" x="598.42" y="-468.9" font-family="Times,serif" font-size="14.00">Address</text>
<text text-anchor="middle" x="598.42" y="-452.1" font-family="Times,serif" font-size="14.00">../node_modules/@openzeppelin/contracts/utils/Address.sol</text>
</g>
<!-- 406&#45;&gt;273 -->
<g id="edge6" class="edge">
<title>406&#45;&gt;273</title>
<path fill="none" stroke="black" stroke-dasharray="5,2" d="M598.42,-406.98C598.42,-415.31 598.42,-424.58 598.42,-433.45"/>
<polygon fill="black" stroke="black" points="594.92,-433.6 598.42,-443.6 601.92,-433.6 594.92,-433.6"/>
</g>
<!-- 284 -->
<g id="node11" class="node">
<title>284</title>
<polygon fill="#f2f2f2" stroke="black" points="792.69,-443.9 792.69,-502.3 1164.14,-502.3 1164.14,-443.9 792.69,-443.9"/>
<text text-anchor="middle" x="978.42" y="-485.7" font-family="Times,serif" font-size="14.00">&lt;&lt;Library&gt;&gt;</text>
<text text-anchor="middle" x="978.42" y="-468.9" font-family="Times,serif" font-size="14.00">StorageSlot</text>
<text text-anchor="middle" x="978.42" y="-452.1" font-family="Times,serif" font-size="14.00">../node_modules/@openzeppelin/contracts/utils/StorageSlot.sol</text>
</g>
<!-- 406&#45;&gt;284 -->
<g id="edge5" class="edge">
<title>406&#45;&gt;284</title>
<path fill="none" stroke="black" stroke-dasharray="5,2" d="M713.2,-406.91C757.58,-417.82 808.48,-430.33 853.75,-441.46"/>
<polygon fill="black" stroke="black" points="853.07,-444.9 863.62,-443.88 854.74,-438.1 853.07,-444.9"/>
</g>
<!-- 410&#45;&gt;247 -->
<g id="edge8" class="edge">
<title>410&#45;&gt;247</title>
<path fill="none" stroke="black" d="M335.42,-121.04C335.42,-123.09 335.42,-125.23 335.42,-127.43"/>
<polygon fill="none" stroke="black" points="324.92,-127.54 335.42,-157.54 345.92,-127.54 324.92,-127.54"/>
</g>
<!-- 411 -->
<g id="node8" class="node">
<title>411</title>
<polygon fill="#f2f2f2" stroke="black" points="537.13,-166.1 537.13,-207.7 1089.7,-207.7 1089.7,-166.1 537.13,-166.1"/>
<text text-anchor="middle" x="813.42" y="-191.1" font-family="Times,serif" font-size="14.00">TransparentUpgradeableProxy</text>
<text text-anchor="middle" x="813.42" y="-174.3" font-family="Times,serif" font-size="14.00">../node_modules/@openzeppelin/contracts/proxy/transparent/TransparentUpgradeableProxy.sol</text>
</g>
<!-- 410&#45;&gt;411 -->
<g id="edge9" class="edge">
<title>410&#45;&gt;411</title>
<path fill="none" stroke="black" stroke-dasharray="5,2" d="M446.88,-120.72C520.28,-133.77 616.37,-150.86 691.75,-164.26"/>
<polygon fill="black" stroke="black" points="691.32,-167.74 701.77,-166.05 692.54,-160.85 691.32,-167.74"/>
</g>
<!-- 411&#45;&gt;405 -->
<g id="edge10" class="edge">
<title>411&#45;&gt;405</title>
<path fill="none" stroke="black" d="M813.42,-207.71C813.42,-214.6 813.42,-222.67 813.42,-230.89"/>
<polygon fill="none" stroke="black" points="802.92,-231.2 813.42,-261.2 823.92,-231.2 802.92,-231.2"/>
</g>
</g>
</svg>
