<?xml version="1.0" encoding="UTF-8" standalone="no"?>
<!DOCTYPE svg PUBLIC "-//W3C//DTD SVG 1.1//EN"
 "http://www.w3.org/Graphics/SVG/1.1/DTD/svg11.dtd">
<!-- Generated by graphviz version 5.0.0 (20220707.1540)
 -->
<!-- Title: UmlClassDiagram Pages: 1 -->
<svg width="1389pt" height="533pt"
 viewBox="0.00 0.00 1388.73 533.00" xmlns="http://www.w3.org/2000/svg" xmlns:xlink="http://www.w3.org/1999/xlink">
<g id="graph0" class="graph" transform="scale(1 1) rotate(0) translate(4 529)">
<title>UmlClassDiagram</title>
<polygon fill="white" stroke="transparent" points="-4,4 -4,-529 1384.73,-529 1384.73,4 -4,4"/>
<!-- 6 -->
<g id="node1" class="node">
<title>6</title>
<polygon fill="#f2f2f2" stroke="black" points="0,-129.5 0,-187.9 238.77,-187.9 238.77,-129.5 0,-129.5"/>
<text text-anchor="middle" x="119.38" y="-171.3" font-family="Times,serif" font-size="14.00">&lt;&lt;Interface&gt;&gt;</text>
<text text-anchor="middle" x="119.38" y="-154.5" font-family="Times,serif" font-size="14.00">IERC4626Vault</text>
<text text-anchor="middle" x="119.38" y="-137.7" font-family="Times,serif" font-size="14.00">..contractsinterfacesIERC4626Vault.sol</text>
</g>
<!-- 249 -->
<g id="node11" class="node">
<title>249</title>
<polygon fill="#f2f2f2" stroke="black" points="682.27,-449.3 682.27,-524.5 1040.5,-524.5 1040.5,-449.3 682.27,-449.3"/>
<text text-anchor="middle" x="861.38" y="-507.9" font-family="Times,serif" font-size="14.00">&lt;&lt;Interface&gt;&gt;</text>
<text text-anchor="middle" x="861.38" y="-491.1" font-family="Times,serif" font-size="14.00">IERC20</text>
<text text-anchor="middle" x="861.38" y="-474.3" font-family="Times,serif" font-size="14.00">..</text>
<text text-anchor="middle" x="861.38" y="-457.5" font-family="Times,serif" font-size="14.00">ode_modules@openzeppelincontractstokenRC20IERC20.sol</text>
</g>
<!-- 6&#45;&gt;249 -->
<g id="edge1" class="edge">
<title>6&#45;&gt;249</title>
<path fill="none" stroke="black" stroke-dasharray="5,2" d="M71.01,-188.17C58.74,-197.98 47.14,-210.14 40.38,-224.4 4.55,-300.08 -16.14,-351.02 40.38,-412.8 80.97,-457.16 422.17,-474.78 651.75,-481.65"/>
<polygon fill="none" stroke="black" points="651.67,-492.16 681.96,-482.52 652.27,-471.16 651.67,-492.16"/>
</g>
<!-- 9 -->
<g id="node2" class="node">
<title>9</title>
<polygon fill="#f2f2f2" stroke="black" points="49.28,-345.5 49.28,-403.9 237.49,-403.9 237.49,-345.5 49.28,-345.5"/>
<text text-anchor="middle" x="143.38" y="-387.3" font-family="Times,serif" font-size="14.00">&lt;&lt;Interface&gt;&gt;</text>
<text text-anchor="middle" x="143.38" y="-370.5" font-family="Times,serif" font-size="14.00">INexus</text>
<text text-anchor="middle" x="143.38" y="-353.7" font-family="Times,serif" font-size="14.00">..contractsinterfacesINexus.sol</text>
</g>
<!-- 13 -->
<g id="node3" class="node">
<title>13</title>
<polygon fill="#f2f2f2" stroke="black" points="49.33,-233.3 49.33,-291.7 283.44,-291.7 283.44,-233.3 49.33,-233.3"/>
<text text-anchor="middle" x="166.38" y="-275.1" font-family="Times,serif" font-size="14.00">&lt;&lt;Abstract&gt;&gt;</text>
<text text-anchor="middle" x="166.38" y="-258.3" font-family="Times,serif" font-size="14.00">ImmutableModule</text>
<text text-anchor="middle" x="166.38" y="-241.5" font-family="Times,serif" font-size="14.00">..contractssharedImmutableModule.sol</text>
</g>
<!-- 13&#45;&gt;9 -->
<g id="edge3" class="edge">
<title>13&#45;&gt;9</title>
<path fill="none" stroke="black" d="M160.46,-291.88C157.7,-305.12 154.37,-321.07 151.39,-335.37"/>
<polygon fill="black" stroke="black" points="147.9,-334.91 149.29,-345.42 154.76,-336.34 147.9,-334.91"/>
</g>
<!-- 15 -->
<g id="node4" class="node">
<title>15</title>
<polygon fill="#f2f2f2" stroke="black" points="255.27,-353.9 255.27,-395.5 457.5,-395.5 457.5,-353.9 255.27,-353.9"/>
<text text-anchor="middle" x="356.38" y="-378.9" font-family="Times,serif" font-size="14.00">ModuleKeys</text>
<text text-anchor="middle" x="356.38" y="-362.1" font-family="Times,serif" font-size="14.00">..contractssharedModuleKeys.sol</text>
</g>
<!-- 13&#45;&gt;15 -->
<g id="edge2" class="edge">
<title>13&#45;&gt;15</title>
<path fill="none" stroke="black" d="M215.31,-291.88C239.86,-306.12 269.82,-323.49 295.81,-338.57"/>
<polygon fill="none" stroke="black" points="290.79,-347.79 322,-353.76 301.32,-329.63 290.79,-347.79"/>
</g>
<!-- 17 -->
<g id="node5" class="node">
<title>17</title>
<polygon fill="#f2f2f2" stroke="black" points="353.78,-129.5 353.78,-187.9 590.99,-187.9 590.99,-129.5 353.78,-129.5"/>
<text text-anchor="middle" x="472.38" y="-171.3" font-family="Times,serif" font-size="14.00">&lt;&lt;Abstract&gt;&gt;</text>
<text text-anchor="middle" x="472.38" y="-154.5" font-family="Times,serif" font-size="14.00">VaultManagerRole</text>
<text text-anchor="middle" x="472.38" y="-137.7" font-family="Times,serif" font-size="14.00">..contractssharedVaultManagerRole.sol</text>
</g>
<!-- 17&#45;&gt;13 -->
<g id="edge5" class="edge">
<title>17&#45;&gt;13</title>
<path fill="none" stroke="black" d="M387.55,-187.92C354.31,-198.98 315.66,-211.84 280.06,-223.68"/>
<polygon fill="none" stroke="black" points="276.53,-213.79 251.38,-233.22 283.16,-233.72 276.53,-213.79"/>
</g>
<!-- 157 -->
<g id="node9" class="node">
<title>157</title>
<polygon fill="#f2f2f2" stroke="black" points="301.07,-224.9 301.07,-300.1 643.7,-300.1 643.7,-224.9 301.07,-224.9"/>
<text text-anchor="middle" x="472.38" y="-283.5" font-family="Times,serif" font-size="14.00">&lt;&lt;Abstract&gt;&gt;</text>
<text text-anchor="middle" x="472.38" y="-266.7" font-family="Times,serif" font-size="14.00">Pausable</text>
<text text-anchor="middle" x="472.38" y="-249.9" font-family="Times,serif" font-size="14.00">..</text>
<text text-anchor="middle" x="472.38" y="-233.1" font-family="Times,serif" font-size="14.00">ode_modules@openzeppelincontractssecurityPausable.sol</text>
</g>
<!-- 17&#45;&gt;157 -->
<g id="edge4" class="edge">
<title>17&#45;&gt;157</title>
<path fill="none" stroke="black" d="M472.38,-188.06C472.38,-190.09 472.38,-192.18 472.38,-194.31"/>
<polygon fill="none" stroke="black" points="461.88,-194.53 472.38,-224.53 482.88,-194.53 461.88,-194.53"/>
</g>
<!-- 19 -->
<g id="node6" class="node">
<title>19</title>
<polygon fill="#f2f2f2" stroke="black" points="681.11,-129.5 681.11,-187.9 913.66,-187.9 913.66,-129.5 681.11,-129.5"/>
<text text-anchor="middle" x="797.38" y="-171.3" font-family="Times,serif" font-size="14.00">&lt;&lt;Abstract&gt;&gt;</text>
<text text-anchor="middle" x="797.38" y="-154.5" font-family="Times,serif" font-size="14.00">InitializableToken</text>
<text text-anchor="middle" x="797.38" y="-137.7" font-family="Times,serif" font-size="14.00">..contractstokensInitializableToken.sol</text>
</g>
<!-- 20 -->
<g id="node7" class="node">
<title>20</title>
<polygon fill="#f2f2f2" stroke="black" points="661.29,-233.3 661.29,-291.7 933.48,-291.7 933.48,-233.3 661.29,-233.3"/>
<text text-anchor="middle" x="797.38" y="-275.1" font-family="Times,serif" font-size="14.00">&lt;&lt;Abstract&gt;&gt;</text>
<text text-anchor="middle" x="797.38" y="-258.3" font-family="Times,serif" font-size="14.00">InitializableTokenDetails</text>
<text text-anchor="middle" x="797.38" y="-241.5" font-family="Times,serif" font-size="14.00">..contractstokensInitializableTokenDetails.sol</text>
</g>
<!-- 19&#45;&gt;20 -->
<g id="edge7" class="edge">
<title>19&#45;&gt;20</title>
<path fill="none" stroke="black" d="M797.38,-188.06C797.38,-192.8 797.38,-197.87 797.38,-203.05"/>
<polygon fill="none" stroke="black" points="786.88,-203.3 797.38,-233.3 807.88,-203.3 786.88,-203.3"/>
</g>
<!-- 248 -->
<g id="node10" class="node">
<title>248</title>
<polygon fill="#f2f2f2" stroke="black" points="951.88,-233.3 951.88,-291.7 1296.89,-291.7 1296.89,-233.3 951.88,-233.3"/>
<text text-anchor="middle" x="1124.38" y="-275.1" font-family="Times,serif" font-size="14.00">ERC20</text>
<text text-anchor="middle" x="1124.38" y="-258.3" font-family="Times,serif" font-size="14.00">..</text>
<text text-anchor="middle" x="1124.38" y="-241.5" font-family="Times,serif" font-size="14.00">ode_modules@openzeppelincontractstokenRC20RC20.sol</text>
</g>
<!-- 19&#45;&gt;248 -->
<g id="edge6" class="edge">
<title>19&#45;&gt;248</title>
<path fill="none" stroke="black" d="M888.04,-187.92C924.19,-199.18 966.31,-212.29 1004.89,-224.3"/>
<polygon fill="none" stroke="black" points="1001.79,-234.33 1033.55,-233.22 1008.03,-214.28 1001.79,-234.33"/>
</g>
<!-- 29 -->
<g id="node8" class="node">
<title>29</title>
<polygon fill="#f2f2f2" stroke="black" points="293.84,-0.5 293.84,-92.5 650.93,-92.5 650.93,-0.5 293.84,-0.5"/>
<text text-anchor="middle" x="472.38" y="-75.9" font-family="Times,serif" font-size="14.00">&lt;&lt;Abstract&gt;&gt;</text>
<text text-anchor="middle" x="472.38" y="-59.1" font-family="Times,serif" font-size="14.00">LightAbstractVault</text>
<text text-anchor="middle" x="472.38" y="-42.3" font-family="Times,serif" font-size="14.00">..contractsvault{&lt;&lt;Abstract&gt;&gt;</text>
<text text-anchor="middle" x="472.38" y="-25.5" font-family="Times,serif" font-size="14.00">LightAbstractVault</text>
<text text-anchor="middle" x="472.38" y="-8.7" font-family="Times,serif" font-size="14.00">..contractsvaultLightAbstractVault.sol}ightAbstractVault.sol</text>
</g>
<!-- 29&#45;&gt;6 -->
<g id="edge8" class="edge">
<title>29&#45;&gt;6</title>
<path fill="none" stroke="black" stroke-dasharray="5,2" d="M328.04,-92.56C298.35,-101.83 267.4,-111.49 238.7,-120.45"/>
<polygon fill="none" stroke="black" points="235.28,-110.52 209.77,-129.48 241.54,-130.57 235.28,-110.52"/>
</g>
<!-- 29&#45;&gt;17 -->
<g id="edge10" class="edge">
<title>29&#45;&gt;17</title>
<path fill="none" stroke="black" d="M472.38,-92.64C472.38,-94.77 472.38,-96.91 472.38,-99.06"/>
<polygon fill="none" stroke="black" points="461.88,-99.2 472.38,-129.2 482.88,-99.2 461.88,-99.2"/>
</g>
<!-- 29&#45;&gt;19 -->
<g id="edge9" class="edge">
<title>29&#45;&gt;19</title>
<path fill="none" stroke="black" d="M605.51,-92.64C631.99,-101.62 659.54,-110.96 685.23,-119.67"/>
<polygon fill="none" stroke="black" points="682.04,-129.68 713.82,-129.36 688.78,-109.79 682.04,-129.68"/>
</g>
<!-- 29&#45;&gt;249 -->
<g id="edge11" class="edge">
<title>29&#45;&gt;249</title>
<path fill="none" stroke="black" d="M651.16,-67.22C864.64,-93.83 1205.56,-147 1306.38,-224.4 1351.58,-259.09 1354.16,-281.43 1368.38,-336.6 1376.84,-369.39 1390.56,-387.2 1368.38,-412.8 1327.25,-460.29 1177.07,-477.63 1050.75,-483.63"/>
<polygon fill="black" stroke="black" points="1050.37,-480.14 1040.54,-484.09 1050.69,-487.13 1050.37,-480.14"/>
</g>
<!-- 166 -->
<g id="node13" class="node">
<title>166</title>
<polygon fill="#f2f2f2" stroke="black" points="495.88,-337.1 495.88,-412.3 812.88,-412.3 812.88,-337.1 495.88,-337.1"/>
<text text-anchor="middle" x="654.38" y="-395.7" font-family="Times,serif" font-size="14.00">&lt;&lt;Abstract&gt;&gt;</text>
<text text-anchor="middle" x="654.38" y="-378.9" font-family="Times,serif" font-size="14.00">Context</text>
<text text-anchor="middle" x="654.38" y="-362.1" font-family="Times,serif" font-size="14.00">..</text>
<text text-anchor="middle" x="654.38" y="-345.3" font-family="Times,serif" font-size="14.00">ode_modules@openzeppelincontractsutilsContext.sol</text>
</g>
<!-- 157&#45;&gt;166 -->
<g id="edge12" class="edge">
<title>157&#45;&gt;166</title>
<path fill="none" stroke="black" d="M532.99,-300.2C544.13,-306.94 555.97,-314.11 567.7,-321.22"/>
<polygon fill="none" stroke="black" points="562.64,-330.42 593.74,-336.98 573.51,-312.46 562.64,-330.42"/>
</g>
<!-- 248&#45;&gt;249 -->
<g id="edge14" class="edge">
<title>248&#45;&gt;249</title>
<path fill="none" stroke="black" stroke-dasharray="5,2" d="M983.87,-291.74C938.1,-303.78 895.22,-319.1 880.38,-336.6 861.3,-359.12 855.36,-390.84 854.68,-419.26"/>
<polygon fill="none" stroke="black" points="844.18,-419.65 855.72,-449.27 865.17,-418.92 844.18,-419.65"/>
</g>
<!-- 366 -->
<g id="node12" class="node">
<title>366</title>
<polygon fill="#f2f2f2" stroke="black" points="889.68,-337.1 889.68,-412.3 1359.09,-412.3 1359.09,-337.1 889.68,-337.1"/>
<text text-anchor="middle" x="1124.38" y="-395.7" font-family="Times,serif" font-size="14.00">&lt;&lt;Interface&gt;&gt;</text>
<text text-anchor="middle" x="1124.38" y="-378.9" font-family="Times,serif" font-size="14.00">IERC20Metadata</text>
<text text-anchor="middle" x="1124.38" y="-362.1" font-family="Times,serif" font-size="14.00">..</text>
<text text-anchor="middle" x="1124.38" y="-345.3" font-family="Times,serif" font-size="14.00">ode_modules@openzeppelincontractstokenRC20extensionsIERC20Metadata.sol</text>
</g>
<!-- 248&#45;&gt;366 -->
<g id="edge15" class="edge">
<title>248&#45;&gt;366</title>
<path fill="none" stroke="black" stroke-dasharray="5,2" d="M1124.38,-291.88C1124.38,-296.61 1124.38,-301.7 1124.38,-306.93"/>
<polygon fill="none" stroke="black" points="1113.88,-307.09 1124.38,-337.09 1134.88,-307.09 1113.88,-307.09"/>
</g>
<!-- 248&#45;&gt;166 -->
<g id="edge13" class="edge">
<title>248&#45;&gt;166</title>
<path fill="none" stroke="black" d="M1003.96,-291.74C954.16,-303.41 895.27,-317.22 840.17,-330.14"/>
<polygon fill="none" stroke="black" points="837.71,-319.93 810.9,-337 842.5,-340.38 837.71,-319.93"/>
</g>
<!-- 366&#45;&gt;249 -->
<g id="edge16" class="edge">
<title>366&#45;&gt;249</title>
<path fill="none" stroke="black" stroke-dasharray="5,2" d="M1036.81,-412.4C1017.61,-420.44 997.01,-429.07 976.91,-437.49"/>
<polygon fill="none" stroke="black" points="972.64,-427.9 949.03,-449.18 980.75,-447.27 972.64,-427.9"/>
</g>
</g>
</svg>
