<?xml version="1.0" encoding="UTF-8" standalone="no"?>
<!DOCTYPE svg PUBLIC "-//W3C//DTD SVG 1.1//EN"
 "http://www.w3.org/Graphics/SVG/1.1/DTD/svg11.dtd">
<!-- Generated by graphviz version 5.0.0 (20220707.1540)
 -->
<!-- Title: StorageDiagram Pages: 1 -->
<svg width="2002pt" height="369pt"
 viewBox="0.00 0.00 2001.89 369.40" xmlns="http://www.w3.org/2000/svg" xmlns:xlink="http://www.w3.org/1999/xlink">
<g id="graph0" class="graph" transform="scale(1 1) rotate(0) translate(4 365.4)">
<title>StorageDiagram</title>
<polygon fill="white" stroke="transparent" points="-4,4 -4,-365.4 1997.89,-365.4 1997.89,4 -4,4"/>
<!-- 3 -->
<g id="node1" class="node">
<title>3</title>
<polygon fill="#f2f2f2" stroke="black" points="0,-38.5 0,-360.9 1214.18,-360.9 1214.18,-38.5 0,-38.5"/>
<text text-anchor="middle" x="607.09" y="-344.3" font-family="Courier New" font-size="14.00">LiquidatorStreamFeeAbstractVault &lt;&lt;Contract&gt;&gt;</text>
<polyline fill="none" stroke="black" points="0,-336.1 1214.18,-336.1 "/>
<text text-anchor="middle" x="24.8" y="-319.5" font-family="Courier New" font-size="14.00">slot</text>
<polyline fill="none" stroke="black" points="0,-311.3 49.61,-311.3 "/>
<text text-anchor="middle" x="24.8" y="-294.7" font-family="Courier New" font-size="14.00">0</text>
<polyline fill="none" stroke="black" points="0,-286.5 49.61,-286.5 "/>
<text text-anchor="middle" x="24.8" y="-269.9" font-family="Courier New" font-size="14.00">1</text>
<polyline fill="none" stroke="black" points="0,-261.7 49.61,-261.7 "/>
<text text-anchor="middle" x="24.8" y="-245.1" font-family="Courier New" font-size="14.00">2</text>
<polyline fill="none" stroke="black" points="0,-236.9 49.61,-236.9 "/>
<text text-anchor="middle" x="24.8" y="-220.3" font-family="Courier New" font-size="14.00">3</text>
<polyline fill="none" stroke="black" points="0,-212.1 49.61,-212.1 "/>
<text text-anchor="middle" x="24.8" y="-195.5" font-family="Courier New" font-size="14.00">4</text>
<polyline fill="none" stroke="black" points="0,-187.3 49.61,-187.3 "/>
<text text-anchor="middle" x="24.8" y="-170.7" font-family="Courier New" font-size="14.00">5</text>
<polyline fill="none" stroke="black" points="0,-162.5 49.61,-162.5 "/>
<text text-anchor="middle" x="24.8" y="-145.9" font-family="Courier New" font-size="14.00">6</text>
<polyline fill="none" stroke="black" points="0,-137.7 49.61,-137.7 "/>
<text text-anchor="middle" x="24.8" y="-121.1" font-family="Courier New" font-size="14.00">7</text>
<polyline fill="none" stroke="black" points="0,-112.9 49.61,-112.9 "/>
<text text-anchor="middle" x="24.8" y="-96.3" font-family="Courier New" font-size="14.00">8</text>
<polyline fill="none" stroke="black" points="0,-88.1 49.61,-88.1 "/>
<text text-anchor="middle" x="24.8" y="-71.5" font-family="Courier New" font-size="14.00">9</text>
<polyline fill="none" stroke="black" points="0,-63.3 49.61,-63.3 "/>
<text text-anchor="middle" x="24.8" y="-46.7" font-family="Courier New" font-size="14.00">10</text>
<polyline fill="none" stroke="black" points="49.61,-38.5 49.61,-336.1 "/>
<text text-anchor="middle" x="631.9" y="-319.5" font-family="Courier New" font-size="14.00">type: &lt;inherited contract&gt;.variable (bytes)</text>
<polyline fill="none" stroke="black" points="49.61,-311.3 1214.18,-311.3 "/>
<text text-anchor="middle" x="631.54" y="-294.7" font-family="Courier New" font-size="14.00">mapping(address=&gt;uint256): ERC20._balances (32)</text>
<polyline fill="none" stroke="black" points="49.61,-286.5 1214.18,-286.5 "/>
<text text-anchor="middle" x="631.55" y="-269.9" font-family="Courier New" font-size="14.00">mapping(address=&gt;mapping(address=&gt;uint256)): ERC20._allowances (32)</text>
<polyline fill="none" stroke="black" points="49.61,-261.7 1214.18,-261.7 "/>
<text text-anchor="middle" x="631.53" y="-245.1" font-family="Courier New" font-size="14.00">uint256: ERC20._totalSupply (32)</text>
<polyline fill="none" stroke="black" points="49.61,-236.9 1214.18,-236.9 "/>
<text text-anchor="middle" x="631.42" y="-220.3" font-family="Courier New" font-size="14.00">string: ERC20._name (32)</text>
<polyline fill="none" stroke="black" points="49.61,-212.1 1214.18,-212.1 "/>
<text text-anchor="middle" x="631.82" y="-195.5" font-family="Courier New" font-size="14.00">string: ERC20._symbol (32)</text>
<polyline fill="none" stroke="black" points="49.61,-187.3 1214.18,-187.3 "/>
<text text-anchor="middle" x="631.44" y="-170.7" font-family="Courier New" font-size="14.00">string: InitializableTokenDetails._name (32)</text>
<polyline fill="none" stroke="black" points="49.61,-162.5 1214.18,-162.5 "/>
<text text-anchor="middle" x="631.84" y="-145.9" font-family="Courier New" font-size="14.00">string: InitializableTokenDetails._symbol (32)</text>
<polyline fill="none" stroke="black" points="49.61,-137.7 1214.18,-137.7 "/>
<text text-anchor="middle" x="124.82" y="-121.1" font-family="Courier New" font-size="14.00">unallocated (10)</text>
<polyline fill="none" stroke="black" points="200.03,-112.9 200.03,-137.7 "/>
<text text-anchor="middle" x="388.66" y="-121.1" font-family="Courier New" font-size="14.00">address: VaultManagerRole.vaultManager (20)</text>
<polyline fill="none" stroke="black" points="577.29,-112.9 577.29,-137.7 "/>
<text text-anchor="middle" x="694.5" y="-121.1" font-family="Courier New" font-size="14.00">bool: Pausable._paused (1)</text>
<polyline fill="none" stroke="black" points="811.72,-112.9 811.72,-137.7 "/>
<text text-anchor="middle" x="1012.95" y="-121.1" font-family="Courier New" font-size="14.00">uint8: InitializableTokenDetails._decimals (1)</text>
<polyline fill="none" stroke="black" points="49.61,-112.9 1214.18,-112.9 "/>
<text text-anchor="middle" x="631.84" y="-96.3" font-family="Courier New" font-size="14.00">address[]: LiquidatorAbstractVault.rewardToken (32)</text>
<polyline fill="none" stroke="black" points="49.61,-88.1 1214.18,-88.1 "/>
<text text-anchor="middle" x="631.75" y="-71.5" font-family="Courier New" font-size="14.00">StreamData: LiquidatorStreamAbstractVault.shareStream (32)</text>
<polyline fill="none" stroke="black" points="49.61,-63.3 1214.18,-63.3 "/>
<text text-anchor="middle" x="218.12" y="-46.7" font-family="Courier New" font-size="14.00">unallocated (8)</text>
<polyline fill="none" stroke="black" points="386.63,-38.5 386.63,-63.3 "/>
<text text-anchor="middle" x="589.24" y="-46.7" font-family="Courier New" font-size="14.00">uint32: donationFee (4)</text>
<polyline fill="none" stroke="black" points="791.86,-38.5 791.86,-63.3 "/>
<text text-anchor="middle" x="1002.87" y="-46.7" font-family="Courier New" font-size="14.00">address: feeReceiver (20)</text>
</g>
<!-- 1 -->
<g id="node2" class="node">
<title>1</title>
<polygon fill="#f2f2f2" stroke="black" points="1336.79,-94.1 1336.79,-185.3 1907.28,-185.3 1907.28,-94.1 1336.79,-94.1"/>
<text text-anchor="middle" x="1622.04" y="-168.7" font-family="Courier New" font-size="14.00">address[]: rewardToken &lt;&lt;Array&gt;&gt;</text>
<text text-anchor="middle" x="1622.04" y="-151.9" font-family="Courier New" font-size="14.00">0xe33c290272880447f00f1a5b33f9e077b5cb5c8c71b08c563e83761acb70e8d1</text>
<polyline fill="none" stroke="black" points="1336.79,-143.7 1907.28,-143.7 "/>
<text text-anchor="middle" x="1424.6" y="-127.1" font-family="Courier New" font-size="14.00">slot</text>
<polyline fill="none" stroke="black" points="1336.79,-118.9 1512.4,-118.9 "/>
<text text-anchor="middle" x="1424.6" y="-102.3" font-family="Courier New" font-size="14.00">0</text>
<polyline fill="none" stroke="black" points="1512.4,-94.1 1512.4,-143.7 "/>
<text text-anchor="middle" x="1709.52" y="-127.1" font-family="Courier New" font-size="14.00">type: variable (bytes)</text>
<polyline fill="none" stroke="black" points="1512.4,-118.9 1906.64,-118.9 "/>
<text text-anchor="middle" x="1619.11" y="-102.3" font-family="Courier New" font-size="14.00">unallocated (12)</text>
<polyline fill="none" stroke="black" points="1725.82,-94.1 1725.82,-118.9 "/>
<text text-anchor="middle" x="1816.23" y="-102.3" font-family="Courier New" font-size="14.00">address (20)</text>
</g>
<!-- 3&#45;&gt;1 -->
<g id="edge1" class="edge">
<title>3:12&#45;&gt;1</title>
<path fill="none" stroke="black" d="M1214.18,-100.7C1250.58,-100.7 1288.72,-102.27 1326.45,-104.77"/>
<polygon fill="black" stroke="black" points="1326.34,-108.27 1336.56,-105.46 1326.82,-101.29 1326.34,-108.27"/>
</g>
<!-- 2 -->
<g id="node3" class="node">
<title>2</title>
<polygon fill="#f2f2f2" stroke="black" points="1250.18,-0.5 1250.18,-74.9 1993.89,-74.9 1993.89,-0.5 1250.18,-0.5"/>
<text text-anchor="middle" x="1622.04" y="-58.3" font-family="Courier New" font-size="14.00">StreamData &lt;&lt;Struct&gt;&gt;</text>
<polyline fill="none" stroke="black" points="1250.18,-50.1 1993.89,-50.1 "/>
<text text-anchor="middle" x="1274.99" y="-33.5" font-family="Courier New" font-size="14.00">slot</text>
<polyline fill="none" stroke="black" points="1250.18,-25.3 1299.79,-25.3 "/>
<text text-anchor="middle" x="1274.99" y="-8.7" font-family="Courier New" font-size="14.00">9</text>
<polyline fill="none" stroke="black" points="1299.79,-0.5 1299.79,-50.1 "/>
<text text-anchor="middle" x="1646.84" y="-33.5" font-family="Courier New" font-size="14.00">type: variable (bytes)</text>
<polyline fill="none" stroke="black" points="1299.79,-25.3 1993.89,-25.3 "/>
<text text-anchor="middle" x="1370.8" y="-8.7" font-family="Courier New" font-size="14.00">unallocated (8)</text>
<polyline fill="none" stroke="black" points="1441.81,-0.5 1441.81,-25.3 "/>
<text text-anchor="middle" x="1571.63" y="-8.7" font-family="Courier New" font-size="14.00">uint128: sharesPerSecond (16)</text>
<polyline fill="none" stroke="black" points="1701.45,-0.5 1701.45,-25.3 "/>
<text text-anchor="middle" x="1772.46" y="-8.7" font-family="Courier New" font-size="14.00">uint32: end (4)</text>
<polyline fill="none" stroke="black" points="1843.47,-0.5 1843.47,-25.3 "/>
<text text-anchor="middle" x="1918.68" y="-8.7" font-family="Courier New" font-size="14.00">uint32: last (4)</text>
</g>
<!-- 3&#45;&gt;2 -->
<g id="edge2" class="edge">
<title>3:16&#45;&gt;2</title>
<path fill="none" stroke="black" d="M1214.18,-75.7C1226.5,-75.7 1239.02,-75.53 1251.65,-75.2"/>
<polygon fill="black" stroke="black" points="1251.91,-78.69 1261.8,-74.91 1251.71,-71.7 1251.91,-78.69"/>
</g>
</g>
</svg>
