<?xml version="1.0" encoding="UTF-8" standalone="no"?>
<!DOCTYPE svg PUBLIC "-//W3C//DTD SVG 1.1//EN"
 "http://www.w3.org/Graphics/SVG/1.1/DTD/svg11.dtd">
<!-- Generated by graphviz version 5.0.0 (20220707.1540)
 -->
<!-- Title: StorageDiagram Pages: 1 -->
<svg width="1769pt" height="158pt"
 viewBox="0.00 0.00 1769.06 157.80" xmlns="http://www.w3.org/2000/svg" xmlns:xlink="http://www.w3.org/1999/xlink">
<g id="graph0" class="graph" transform="scale(1 1) rotate(0) translate(4 153.8)">
<title>StorageDiagram</title>
<polygon fill="white" stroke="transparent" points="-4,4 -4,-153.8 1765.06,-153.8 1765.06,4 -4,4"/>
<!-- 2 -->
<g id="node1" class="node">
<title>2</title>
<polygon fill="#f2f2f2" stroke="black" points="0,-0.5 0,-149.3 1289.8,-149.3 1289.8,-0.5 0,-0.5"/>
<text text-anchor="middle" x="644.9" y="-132.7" font-family="Courier New" font-size="14.00">Liquidator &lt;&lt;Contract&gt;&gt;</text>
<polyline fill="none" stroke="black" points="0,-124.5 1289.8,-124.5 "/>
<text text-anchor="middle" x="24.8" y="-107.9" font-family="Courier New" font-size="14.00">slot</text>
<polyline fill="none" stroke="black" points="0,-99.7 49.61,-99.7 "/>
<text text-anchor="middle" x="24.8" y="-83.1" font-family="Courier New" font-size="14.00">0</text>
<polyline fill="none" stroke="black" points="0,-74.9 49.61,-74.9 "/>
<text text-anchor="middle" x="24.8" y="-58.3" font-family="Courier New" font-size="14.00">1</text>
<polyline fill="none" stroke="black" points="0,-50.1 49.61,-50.1 "/>
<text text-anchor="middle" x="24.8" y="-33.5" font-family="Courier New" font-size="14.00">2</text>
<polyline fill="none" stroke="black" points="0,-25.3 49.61,-25.3 "/>
<text text-anchor="middle" x="24.8" y="-8.7" font-family="Courier New" font-size="14.00">3</text>
<polyline fill="none" stroke="black" points="49.61,-0.5 49.61,-124.5 "/>
<text text-anchor="middle" x="669.7" y="-107.9" font-family="Courier New" font-size="14.00">type: &lt;inherited contract&gt;.variable (bytes)</text>
<polyline fill="none" stroke="black" points="49.61,-99.7 1289.8,-99.7 "/>
<text text-anchor="middle" x="124.82" y="-83.1" font-family="Courier New" font-size="14.00">unallocated (29)</text>
<polyline fill="none" stroke="black" points="200.03,-74.9 200.03,-99.7 "/>
<text text-anchor="middle" x="418.06" y="-83.1" font-family="Courier New" font-size="14.00">bool: InitializableReentrancyGuard._notEntered (1)</text>
<polyline fill="none" stroke="black" points="636.1,-74.9 636.1,-99.7 "/>
<text text-anchor="middle" x="799.52" y="-83.1" font-family="Courier New" font-size="14.00">bool: Initializable._initializing (1)</text>
<polyline fill="none" stroke="black" points="962.95,-74.9 962.95,-99.7 "/>
<text text-anchor="middle" x="1126.37" y="-83.1" font-family="Courier New" font-size="14.00">uint8: Initializable._initialized (1)</text>
<polyline fill="none" stroke="black" points="49.61,-74.9 1289.8,-74.9 "/>
<text text-anchor="middle" x="669.35" y="-58.3" font-family="Courier New" font-size="14.00">mapping(address=&gt;mapping(address=&gt;Liquidation[])): pairs (32)</text>
<polyline fill="none" stroke="black" points="49.61,-50.1 1289.8,-50.1 "/>
<text text-anchor="middle" x="338.32" y="-33.5" font-family="Courier New" font-size="14.00">unallocated (12)</text>
<polyline fill="none" stroke="black" points="627.03,-25.3 627.03,-50.1 "/>
<text text-anchor="middle" x="958.25" y="-33.5" font-family="Courier New" font-size="14.00">IDexSwap: syncSwapper (20)</text>
<polyline fill="none" stroke="black" points="49.61,-25.3 1289.8,-25.3 "/>
<text text-anchor="middle" x="325.82" y="-8.7" font-family="Courier New" font-size="14.00">unallocated (12)</text>
<polyline fill="none" stroke="black" points="602.03,-0.5 602.03,-25.3 "/>
<text text-anchor="middle" x="945.45" y="-8.7" font-family="Courier New" font-size="14.00">IDexAsyncSwap: asyncSwapper (20)</text>
</g>
<!-- 1 -->
<g id="node2" class="node">
<title>1</title>
<polygon fill="#f2f2f2" stroke="black" points="1325.8,-13.3 1325.8,-112.5 1761.06,-112.5 1761.06,-13.3 1325.8,-13.3"/>
<text text-anchor="middle" x="1543.43" y="-95.9" font-family="Courier New" font-size="14.00">Liquidation &lt;&lt;Struct&gt;&gt;</text>
<polyline fill="none" stroke="black" points="1325.8,-87.7 1761.06,-87.7 "/>
<text text-anchor="middle" x="1350.6" y="-71.1" font-family="Courier New" font-size="14.00">slot</text>
<polyline fill="none" stroke="black" points="1325.8,-62.9 1375.4,-62.9 "/>
<text text-anchor="middle" x="1350.6" y="-46.3" font-family="Courier New" font-size="14.00">0</text>
<polyline fill="none" stroke="black" points="1325.8,-38.1 1375.4,-38.1 "/>
<text text-anchor="middle" x="1350.6" y="-21.5" font-family="Courier New" font-size="14.00">1</text>
<polyline fill="none" stroke="black" points="1375.4,-13.3 1375.4,-87.7 "/>
<text text-anchor="middle" x="1568.23" y="-71.1" font-family="Courier New" font-size="14.00">type: variable (bytes)</text>
<polyline fill="none" stroke="black" points="1375.4,-62.9 1761.06,-62.9 "/>
<text text-anchor="middle" x="1568.23" y="-46.3" font-family="Courier New" font-size="14.00">mapping(address=&gt;uint256): vaultRewards (32)</text>
<polyline fill="none" stroke="black" points="1375.4,-38.1 1761.06,-38.1 "/>
<text text-anchor="middle" x="1469.42" y="-21.5" font-family="Courier New" font-size="14.00">uint128: assets (16)</text>
<polyline fill="none" stroke="black" points="1563.43,-13.3 1563.43,-38.1 "/>
<text text-anchor="middle" x="1662.14" y="-21.5" font-family="Courier New" font-size="14.00">uint128: rewards (16)</text>
</g>
<!-- 2&#45;&gt;1 -->
<g id="edge1" class="edge">
<title>2:7&#45;&gt;1</title>
<path fill="none" stroke="black" d="M1289.8,-62.9C1298.23,-62.9 1306.82,-62.9 1315.5,-62.9"/>
<polygon fill="black" stroke="black" points="1315.72,-66.4 1325.72,-62.9 1315.72,-59.4 1315.72,-66.4"/>
</g>
</g>
</svg>
