<?xml version="1.0" encoding="UTF-8" standalone="no"?>
<!DOCTYPE svg PUBLIC "-//W3C//DTD SVG 1.1//EN"
 "http://www.w3.org/Graphics/SVG/1.1/DTD/svg11.dtd">
<!-- Generated by graphviz version 5.0.0 (20220707.1540)
 -->
<!-- Title: UmlClassDiagram Pages: 1 -->
<svg width="946pt" height="292pt"
 viewBox="0.00 0.00 946.15 291.80" xmlns="http://www.w3.org/2000/svg" xmlns:xlink="http://www.w3.org/1999/xlink">
<g id="graph0" class="graph" transform="scale(1 1) rotate(0) translate(4 287.8)">
<title>UmlClassDiagram</title>
<polygon fill="white" stroke="transparent" points="-4,4 -4,-287.8 942.15,-287.8 942.15,4 -4,4"/>
<!-- 13 -->
<g id="node1" class="node">
<title>13</title>
<polygon fill="#f2f2f2" stroke="black" points="0,-137.9 0,-196.3 234.11,-196.3 234.11,-137.9 0,-137.9"/>
<text text-anchor="middle" x="117.05" y="-179.7" font-family="Times,serif" font-size="14.00">&lt;&lt;Abstract&gt;&gt;</text>
<text text-anchor="middle" x="117.05" y="-162.9" font-family="Times,serif" font-size="14.00">ImmutableModule</text>
<text text-anchor="middle" x="117.05" y="-146.1" font-family="Times,serif" font-size="14.00">..contractssharedImmutableModule.sol</text>
</g>
<!-- 15 -->
<g id="node3" class="node">
<title>15</title>
<polygon fill="#f2f2f2" stroke="black" points="15.94,-241.7 15.94,-283.3 218.17,-283.3 218.17,-241.7 15.94,-241.7"/>
<text text-anchor="middle" x="117.05" y="-266.7" font-family="Times,serif" font-size="14.00">ModuleKeys</text>
<text text-anchor="middle" x="117.05" y="-249.9" font-family="Times,serif" font-size="14.00">..contractssharedModuleKeys.sol</text>
</g>
<!-- 13&#45;&gt;15 -->
<g id="edge1" class="edge">
<title>13&#45;&gt;15</title>
<path fill="none" stroke="black" d="M117.05,-196.38C117.05,-201.17 117.05,-206.27 117.05,-211.42"/>
<polygon fill="none" stroke="black" points="106.55,-211.61 117.05,-241.61 127.55,-211.61 106.55,-211.61"/>
</g>
<!-- 14 -->
<g id="node2" class="node">
<title>14</title>
<polygon fill="#f2f2f2" stroke="black" points="252.31,-146.3 252.31,-187.9 547.8,-187.9 547.8,-146.3 252.31,-146.3"/>
<text text-anchor="middle" x="400.05" y="-171.3" font-family="Times,serif" font-size="14.00">InitializableReentrancyGuard</text>
<text text-anchor="middle" x="400.05" y="-154.5" font-family="Times,serif" font-size="14.00">..contractssharedInitializableReentrancyGuard.sol</text>
</g>
<!-- 62 -->
<g id="node4" class="node">
<title>62</title>
<polygon fill="#f2f2f2" stroke="black" points="288.76,-0.5 288.76,-92.5 511.34,-92.5 511.34,-0.5 288.76,-0.5"/>
<text text-anchor="middle" x="400.05" y="-75.9" font-family="Times,serif" font-size="14.00">Liquidator</text>
<text text-anchor="start" x="296.76" y="-59.1" font-family="Times,serif" font-size="14.00">..contractsvault</text>
<text text-anchor="middle" x="400.05" y="-42.3" font-family="Times,serif" font-size="14.00">iquidator{Liquidator</text>
<text text-anchor="start" x="296.76" y="-25.5" font-family="Times,serif" font-size="14.00">..contractsvault</text>
<text text-anchor="middle" x="400.05" y="-8.7" font-family="Times,serif" font-size="14.00">iquidatorLiquidator.sol}iquidator.sol</text>
</g>
<!-- 62&#45;&gt;13 -->
<g id="edge3" class="edge">
<title>62&#45;&gt;13</title>
<path fill="none" stroke="black" d="M292.66,-92.51C266.3,-103.55 238.27,-115.3 212.51,-126.09"/>
<polygon fill="none" stroke="black" points="208.23,-116.5 184.62,-137.78 216.35,-135.87 208.23,-116.5"/>
</g>
<!-- 62&#45;&gt;14 -->
<g id="edge4" class="edge">
<title>62&#45;&gt;14</title>
<path fill="none" stroke="black" d="M400.05,-92.68C400.05,-100.32 400.05,-108.3 400.05,-116.05"/>
<polygon fill="none" stroke="black" points="389.55,-116.14 400.05,-146.14 410.55,-116.14 389.55,-116.14"/>
</g>
<!-- 241 -->
<g id="node5" class="node">
<title>241</title>
<polygon fill="#f2f2f2" stroke="black" points="565.96,-129.5 565.96,-204.7 938.15,-204.7 938.15,-129.5 565.96,-129.5"/>
<text text-anchor="middle" x="752.05" y="-188.1" font-family="Times,serif" font-size="14.00">&lt;&lt;Abstract&gt;&gt;</text>
<text text-anchor="middle" x="752.05" y="-171.3" font-family="Times,serif" font-size="14.00">Initializable</text>
<text text-anchor="middle" x="752.05" y="-154.5" font-family="Times,serif" font-size="14.00">..</text>
<text text-anchor="middle" x="752.05" y="-137.7" font-family="Times,serif" font-size="14.00">ode_modules@openzeppelincontractsproxyutilsInitializable.sol</text>
</g>
<!-- 62&#45;&gt;241 -->
<g id="edge2" class="edge">
<title>62&#45;&gt;241</title>
<path fill="none" stroke="black" d="M511.43,-85.03C544.23,-96.08 580.52,-108.3 614.75,-119.84"/>
<polygon fill="none" stroke="black" points="611.43,-129.8 643.21,-129.43 618.13,-109.9 611.43,-129.8"/>
</g>
</g>
</svg>
