<?xml version="1.0" encoding="UTF-8" standalone="no"?>
<!DOCTYPE svg PUBLIC "-//W3C//DTD SVG 1.1//EN"
 "http://www.w3.org/Graphics/SVG/1.1/DTD/svg11.dtd">
<!-- Generated by graphviz version 5.0.0 (20220707.1540)
 -->
<!-- Title: UmlClassDiagram Pages: 1 -->
<svg width="1492pt" height="909pt"
 viewBox="0.00 0.00 1492.19 908.60" xmlns="http://www.w3.org/2000/svg" xmlns:xlink="http://www.w3.org/1999/xlink">
<g id="graph0" class="graph" transform="scale(1 1) rotate(0) translate(4 904.6)">
<title>UmlClassDiagram</title>
<polygon fill="white" stroke="transparent" points="-4,4 -4,-904.6 1488.19,-904.6 1488.19,4 -4,4"/>
<!-- 13 -->
<g id="node1" class="node">
<title>13</title>
<polygon fill="#f2f2f2" stroke="black" points="1014.04,-721.1 1014.04,-779.5 1248.15,-779.5 1248.15,-721.1 1014.04,-721.1"/>
<text text-anchor="middle" x="1131.1" y="-762.9" font-family="Times,serif" font-size="14.00">&lt;&lt;Abstract&gt;&gt;</text>
<text text-anchor="middle" x="1131.1" y="-746.1" font-family="Times,serif" font-size="14.00">ImmutableModule</text>
<text text-anchor="middle" x="1131.1" y="-729.3" font-family="Times,serif" font-size="14.00">..contractssharedImmutableModule.sol</text>
</g>
<!-- 15 -->
<g id="node2" class="node">
<title>15</title>
<polygon fill="#f2f2f2" stroke="black" points="1029.98,-841.7 1029.98,-883.3 1232.21,-883.3 1232.21,-841.7 1029.98,-841.7"/>
<text text-anchor="middle" x="1131.1" y="-866.7" font-family="Times,serif" font-size="14.00">ModuleKeys</text>
<text text-anchor="middle" x="1131.1" y="-849.9" font-family="Times,serif" font-size="14.00">..contractssharedModuleKeys.sol</text>
</g>
<!-- 13&#45;&gt;15 -->
<g id="edge1" class="edge">
<title>13&#45;&gt;15</title>
<path fill="none" stroke="black" d="M1131.1,-779.68C1131.1,-789.37 1131.1,-800.52 1131.1,-811.41"/>
<polygon fill="none" stroke="black" points="1120.6,-811.56 1131.1,-841.56 1141.6,-811.56 1120.6,-811.56"/>
</g>
<!-- 17 -->
<g id="node3" class="node">
<title>17</title>
<polygon fill="#f2f2f2" stroke="black" points="747.5,-617.3 747.5,-675.7 984.7,-675.7 984.7,-617.3 747.5,-617.3"/>
<text text-anchor="middle" x="866.1" y="-659.1" font-family="Times,serif" font-size="14.00">&lt;&lt;Abstract&gt;&gt;</text>
<text text-anchor="middle" x="866.1" y="-642.3" font-family="Times,serif" font-size="14.00">VaultManagerRole</text>
<text text-anchor="middle" x="866.1" y="-625.5" font-family="Times,serif" font-size="14.00">..contractssharedVaultManagerRole.sol</text>
</g>
<!-- 17&#45;&gt;13 -->
<g id="edge3" class="edge">
<title>17&#45;&gt;13</title>
<path fill="none" stroke="black" d="M939.56,-675.72C967.28,-686.37 999.33,-698.68 1029.18,-710.15"/>
<polygon fill="none" stroke="black" points="1025.72,-720.07 1057.49,-721.02 1033.25,-700.46 1025.72,-720.07"/>
</g>
<!-- 157 -->
<g id="node12" class="node">
<title>157</title>
<polygon fill="#f2f2f2" stroke="black" points="653.78,-712.7 653.78,-787.9 996.42,-787.9 996.42,-712.7 653.78,-712.7"/>
<text text-anchor="middle" x="825.1" y="-771.3" font-family="Times,serif" font-size="14.00">&lt;&lt;Abstract&gt;&gt;</text>
<text text-anchor="middle" x="825.1" y="-754.5" font-family="Times,serif" font-size="14.00">Pausable</text>
<text text-anchor="middle" x="825.1" y="-737.7" font-family="Times,serif" font-size="14.00">..</text>
<text text-anchor="middle" x="825.1" y="-720.9" font-family="Times,serif" font-size="14.00">ode_modules@openzeppelincontractssecurityPausable.sol</text>
</g>
<!-- 17&#45;&gt;157 -->
<g id="edge2" class="edge">
<title>17&#45;&gt;157</title>
<path fill="none" stroke="black" d="M854.68,-675.86C853.58,-678.59 852.43,-681.44 851.26,-684.35"/>
<polygon fill="none" stroke="black" points="841.46,-680.58 839.99,-712.33 860.94,-688.43 841.46,-680.58"/>
</g>
<!-- 19 -->
<g id="node4" class="node">
<title>19</title>
<polygon fill="#f2f2f2" stroke="black" points="210.83,-617.3 210.83,-675.7 443.37,-675.7 443.37,-617.3 210.83,-617.3"/>
<text text-anchor="middle" x="327.1" y="-659.1" font-family="Times,serif" font-size="14.00">&lt;&lt;Abstract&gt;&gt;</text>
<text text-anchor="middle" x="327.1" y="-642.3" font-family="Times,serif" font-size="14.00">InitializableToken</text>
<text text-anchor="middle" x="327.1" y="-625.5" font-family="Times,serif" font-size="14.00">..contractstokensInitializableToken.sol</text>
</g>
<!-- 20 -->
<g id="node5" class="node">
<title>20</title>
<polygon fill="#f2f2f2" stroke="black" points="0,-721.1 0,-779.5 272.2,-779.5 272.2,-721.1 0,-721.1"/>
<text text-anchor="middle" x="136.1" y="-762.9" font-family="Times,serif" font-size="14.00">&lt;&lt;Abstract&gt;&gt;</text>
<text text-anchor="middle" x="136.1" y="-746.1" font-family="Times,serif" font-size="14.00">InitializableTokenDetails</text>
<text text-anchor="middle" x="136.1" y="-729.3" font-family="Times,serif" font-size="14.00">..contractstokensInitializableTokenDetails.sol</text>
</g>
<!-- 19&#45;&gt;20 -->
<g id="edge5" class="edge">
<title>19&#45;&gt;20</title>
<path fill="none" stroke="black" d="M274.15,-675.72C256.14,-685.32 235.59,-696.27 215.95,-706.74"/>
<polygon fill="none" stroke="black" points="210.69,-697.65 189.15,-721.02 220.57,-716.18 210.69,-697.65"/>
</g>
<!-- 248 -->
<g id="node13" class="node">
<title>248</title>
<polygon fill="#f2f2f2" stroke="black" points="290.6,-721.1 290.6,-779.5 635.6,-779.5 635.6,-721.1 290.6,-721.1"/>
<text text-anchor="middle" x="463.1" y="-762.9" font-family="Times,serif" font-size="14.00">ERC20</text>
<text text-anchor="middle" x="463.1" y="-746.1" font-family="Times,serif" font-size="14.00">..</text>
<text text-anchor="middle" x="463.1" y="-729.3" font-family="Times,serif" font-size="14.00">ode_modules@openzeppelincontractstokenRC20RC20.sol</text>
</g>
<!-- 19&#45;&gt;248 -->
<g id="edge4" class="edge">
<title>19&#45;&gt;248</title>
<path fill="none" stroke="black" d="M364.98,-675.86C376.18,-684.24 388.75,-693.65 401.05,-702.86"/>
<polygon fill="none" stroke="black" points="395.11,-711.52 425.42,-721.1 407.69,-694.71 395.11,-711.52"/>
</g>
<!-- 27 -->
<g id="node6" class="node">
<title>27</title>
<polygon fill="#f2f2f2" stroke="black" points="458.15,-488.3 458.15,-546.7 658.05,-546.7 658.05,-488.3 458.15,-488.3"/>
<text text-anchor="middle" x="558.1" y="-530.1" font-family="Times,serif" font-size="14.00">&lt;&lt;Abstract&gt;&gt;</text>
<text text-anchor="middle" x="558.1" y="-513.3" font-family="Times,serif" font-size="14.00">AbstractVault</text>
<text text-anchor="middle" x="558.1" y="-496.5" font-family="Times,serif" font-size="14.00">..contractsvaultAbstractVault.sol</text>
</g>
<!-- 27&#45;&gt;17 -->
<g id="edge7" class="edge">
<title>27&#45;&gt;17</title>
<path fill="none" stroke="black" d="M602.63,-546.71C621.97,-558.23 645.18,-571.09 667.1,-580.8 689.23,-590.6 713.33,-599.68 736.87,-607.76"/>
<polygon fill="none" stroke="black" points="733.88,-617.83 765.65,-617.25 740.45,-597.88 733.88,-617.83"/>
</g>
<!-- 27&#45;&gt;19 -->
<g id="edge6" class="edge">
<title>27&#45;&gt;19</title>
<path fill="none" stroke="black" d="M506.55,-546.84C476.66,-563.28 438.42,-584.29 404.94,-602.71"/>
<polygon fill="none" stroke="black" points="399.72,-593.59 378.49,-617.24 409.84,-611.99 399.72,-593.59"/>
</g>
<!-- 63 -->
<g id="node7" class="node">
<title>63</title>
<polygon fill="#f2f2f2" stroke="black" points="676.28,-454.7 676.28,-580.3 1055.92,-580.3 1055.92,-454.7 676.28,-454.7"/>
<text text-anchor="middle" x="866.1" y="-563.7" font-family="Times,serif" font-size="14.00">&lt;&lt;Abstract&gt;&gt;</text>
<text text-anchor="middle" x="866.1" y="-546.9" font-family="Times,serif" font-size="14.00">LiquidatorAbstractVault</text>
<text text-anchor="start" x="684.28" y="-530.1" font-family="Times,serif" font-size="14.00">..contractsvault</text>
<text text-anchor="middle" x="866.1" y="-513.3" font-family="Times,serif" font-size="14.00">iquidator{&lt;&lt;Abstract&gt;&gt;</text>
<text text-anchor="middle" x="866.1" y="-496.5" font-family="Times,serif" font-size="14.00">LiquidatorAbstractVault</text>
<text text-anchor="start" x="684.28" y="-479.7" font-family="Times,serif" font-size="14.00">..contractsvault</text>
<text text-anchor="middle" x="866.1" y="-462.9" font-family="Times,serif" font-size="14.00">iquidatorLiquidatorAbstractVault.sol}iquidatorAbstractVault.sol</text>
</g>
<!-- 63&#45;&gt;17 -->
<g id="edge8" class="edge">
<title>63&#45;&gt;17</title>
<path fill="none" stroke="black" d="M866.1,-580.51C866.1,-582.72 866.1,-584.93 866.1,-587.13"/>
<polygon fill="none" stroke="black" points="855.6,-587.19 866.1,-617.19 876.6,-587.19 855.6,-587.19"/>
</g>
<!-- 66 -->
<g id="node8" class="node">
<title>66</title>
<polygon fill="#f2f2f2" stroke="black" points="538.62,-292.1 538.62,-417.7 997.58,-417.7 997.58,-292.1 538.62,-292.1"/>
<text text-anchor="middle" x="768.1" y="-401.1" font-family="Times,serif" font-size="14.00">&lt;&lt;Abstract&gt;&gt;</text>
<text text-anchor="middle" x="768.1" y="-384.3" font-family="Times,serif" font-size="14.00">LiquidatorStreamAbstractVault</text>
<text text-anchor="start" x="546.62" y="-367.5" font-family="Times,serif" font-size="14.00">..contractsvault</text>
<text text-anchor="middle" x="768.1" y="-350.7" font-family="Times,serif" font-size="14.00">iquidator{&lt;&lt;Abstract&gt;&gt;</text>
<text text-anchor="middle" x="768.1" y="-333.9" font-family="Times,serif" font-size="14.00">LiquidatorStreamAbstractVault</text>
<text text-anchor="start" x="546.62" y="-317.1" font-family="Times,serif" font-size="14.00">..contractsvault</text>
<text text-anchor="middle" x="768.1" y="-300.3" font-family="Times,serif" font-size="14.00">iquidatorLiquidatorStreamAbstractVault.sol}iquidatorStreamAbstractVault.sol</text>
</g>
<!-- 66&#45;&gt;27 -->
<g id="edge9" class="edge">
<title>66&#45;&gt;27</title>
<path fill="none" stroke="black" d="M687.21,-417.76C664.62,-435.04 640.45,-453.52 619.21,-469.76"/>
<polygon fill="none" stroke="black" points="612.51,-461.67 595.05,-488.24 625.26,-478.35 612.51,-461.67"/>
</g>
<!-- 66&#45;&gt;63 -->
<g id="edge10" class="edge">
<title>66&#45;&gt;63</title>
<path fill="none" stroke="black" d="M805.99,-417.99C808.16,-421.56 810.37,-425.17 812.59,-428.8"/>
<polygon fill="none" stroke="black" points="803.72,-434.43 828.31,-454.57 821.65,-423.49 803.72,-434.43"/>
</g>
<!-- 66&#45;&gt;248 -->
<g id="edge11" class="edge">
<title>66&#45;&gt;248</title>
<path fill="none" stroke="black" stroke-dasharray="5,2" d="M538.56,-406.28C496.93,-420 462.44,-436.13 449.1,-454.2 406.17,-512.35 446.11,-544.77 452.1,-616.8 454.73,-648.48 457.72,-684.42 459.91,-710.87"/>
<polygon fill="black" stroke="black" points="456.43,-711.19 460.74,-720.87 463.4,-710.61 456.43,-711.19"/>
</g>
<!-- 68 -->
<g id="node9" class="node">
<title>68</title>
<polygon fill="#f2f2f2" stroke="black" points="518.41,-129.5 518.41,-255.1 1017.79,-255.1 1017.79,-129.5 518.41,-129.5"/>
<text text-anchor="middle" x="768.1" y="-238.5" font-family="Times,serif" font-size="14.00">&lt;&lt;Abstract&gt;&gt;</text>
<text text-anchor="middle" x="768.1" y="-221.7" font-family="Times,serif" font-size="14.00">LiquidatorStreamFeeAbstractVault</text>
<text text-anchor="start" x="526.41" y="-204.9" font-family="Times,serif" font-size="14.00">..contractsvault</text>
<text text-anchor="middle" x="768.1" y="-188.1" font-family="Times,serif" font-size="14.00">iquidator{&lt;&lt;Abstract&gt;&gt;</text>
<text text-anchor="middle" x="768.1" y="-171.3" font-family="Times,serif" font-size="14.00">LiquidatorStreamFeeAbstractVault</text>
<text text-anchor="start" x="526.41" y="-154.5" font-family="Times,serif" font-size="14.00">..contractsvault</text>
<text text-anchor="middle" x="768.1" y="-137.7" font-family="Times,serif" font-size="14.00">iquidatorLiquidatorStreamFeeAbstractVault.sol}iquidatorStreamFeeAbstractVault.sol</text>
</g>
<!-- 68&#45;&gt;66 -->
<g id="edge12" class="edge">
<title>68&#45;&gt;66</title>
<path fill="none" stroke="black" d="M768.1,-255.39C768.1,-257.55 768.1,-259.72 768.1,-261.91"/>
<polygon fill="none" stroke="black" points="757.6,-261.97 768.1,-291.97 778.6,-261.97 757.6,-261.97"/>
</g>
<!-- 69 -->
<g id="node10" class="node">
<title>69</title>
<polygon fill="#f2f2f2" stroke="black" points="812.73,-0.5 812.73,-92.5 1279.47,-92.5 1279.47,-0.5 812.73,-0.5"/>
<text text-anchor="middle" x="1046.1" y="-75.9" font-family="Times,serif" font-size="14.00">LiquidatorStreamFeeBasicVault</text>
<text text-anchor="start" x="820.73" y="-59.1" font-family="Times,serif" font-size="14.00">..contractsvault</text>
<text text-anchor="middle" x="1046.1" y="-42.3" font-family="Times,serif" font-size="14.00">iquidator{LiquidatorStreamFeeBasicVault</text>
<text text-anchor="start" x="820.73" y="-25.5" font-family="Times,serif" font-size="14.00">..contractsvault</text>
<text text-anchor="middle" x="1046.1" y="-8.7" font-family="Times,serif" font-size="14.00">iquidatorLiquidatorStreamFeeBasicVault.sol}iquidatorStreamFeeBasicVault.sol</text>
</g>
<!-- 69&#45;&gt;17 -->
<g id="edge16" class="edge">
<title>69&#45;&gt;17</title>
<path fill="none" stroke="black" stroke-dasharray="5,2" d="M1061.9,-92.68C1065.29,-104.36 1068.37,-117.03 1070.1,-129 1085.37,-234.95 1096.81,-537.84 1065.1,-580.8 1047.87,-604.13 1022.04,-619.21 994.64,-628.9"/>
<polygon fill="black" stroke="black" points="993.29,-625.66 984.89,-632.11 995.48,-632.31 993.29,-625.66"/>
</g>
<!-- 69&#45;&gt;19 -->
<g id="edge15" class="edge">
<title>69&#45;&gt;19</title>
<path fill="none" stroke="black" stroke-dasharray="5,2" d="M812.47,-59.39C689.84,-70.15 555.59,-90.52 509.1,-129 358.9,-253.3 332.55,-509.87 328.01,-607.06"/>
<polygon fill="black" stroke="black" points="324.5,-607.16 327.58,-617.3 331.49,-607.45 324.5,-607.16"/>
</g>
<!-- 69&#45;&gt;63 -->
<g id="edge17" class="edge">
<title>69&#45;&gt;63</title>
<path fill="none" stroke="black" stroke-dasharray="5,2" d="M1052.76,-92.68C1061.29,-166.56 1068.28,-315.29 1006.1,-418.2 999.68,-428.83 991.61,-438.61 982.62,-447.53"/>
<polygon fill="black" stroke="black" points="980.1,-445.1 975.23,-454.51 984.9,-450.2 980.1,-445.1"/>
</g>
<!-- 69&#45;&gt;68 -->
<g id="edge13" class="edge">
<title>69&#45;&gt;68</title>
<path fill="none" stroke="black" d="M958.9,-92.6C944.68,-99.96 929.62,-107.75 914.43,-115.61"/>
<polygon fill="none" stroke="black" points="909.41,-106.38 887.59,-129.49 919.06,-125.04 909.41,-106.38"/>
</g>
<!-- 241 -->
<g id="node11" class="node">
<title>241</title>
<polygon fill="#f2f2f2" stroke="black" points="1112.01,-154.7 1112.01,-229.9 1484.19,-229.9 1484.19,-154.7 1112.01,-154.7"/>
<text text-anchor="middle" x="1298.1" y="-213.3" font-family="Times,serif" font-size="14.00">&lt;&lt;Abstract&gt;&gt;</text>
<text text-anchor="middle" x="1298.1" y="-196.5" font-family="Times,serif" font-size="14.00">Initializable</text>
<text text-anchor="middle" x="1298.1" y="-179.7" font-family="Times,serif" font-size="14.00">..</text>
<text text-anchor="middle" x="1298.1" y="-162.9" font-family="Times,serif" font-size="14.00">ode_modules@openzeppelincontractsproxyutilsInitializable.sol</text>
</g>
<!-- 69&#45;&gt;241 -->
<g id="edge14" class="edge">
<title>69&#45;&gt;241</title>
<path fill="none" stroke="black" d="M1125.14,-92.6C1151.2,-107.48 1180.39,-124.13 1207.26,-139.47"/>
<polygon fill="none" stroke="black" points="1202.41,-148.79 1233.68,-154.54 1212.82,-130.55 1202.41,-148.79"/>
</g>
<!-- 166 -->
<g id="node14" class="node">
<title>166</title>
<polygon fill="#f2f2f2" stroke="black" points="485.6,-824.9 485.6,-900.1 802.6,-900.1 802.6,-824.9 485.6,-824.9"/>
<text text-anchor="middle" x="644.1" y="-883.5" font-family="Times,serif" font-size="14.00">&lt;&lt;Abstract&gt;&gt;</text>
<text text-anchor="middle" x="644.1" y="-866.7" font-family="Times,serif" font-size="14.00">Context</text>
<text text-anchor="middle" x="644.1" y="-849.9" font-family="Times,serif" font-size="14.00">..</text>
<text text-anchor="middle" x="644.1" y="-833.1" font-family="Times,serif" font-size="14.00">ode_modules@openzeppelincontractsutilsContext.sol</text>
</g>
<!-- 157&#45;&gt;166 -->
<g id="edge18" class="edge">
<title>157&#45;&gt;166</title>
<path fill="none" stroke="black" d="M764.83,-788C753.74,-794.74 741.98,-801.91 730.3,-809.02"/>
<polygon fill="none" stroke="black" points="724.58,-800.21 704.41,-824.78 735.5,-818.14 724.58,-800.21"/>
</g>
<!-- 248&#45;&gt;166 -->
<g id="edge19" class="edge">
<title>248&#45;&gt;166</title>
<path fill="none" stroke="black" d="M509.71,-779.68C524.56,-788.72 541.49,-799.02 558.2,-809.2"/>
<polygon fill="none" stroke="black" points="552.88,-818.26 583.97,-824.89 563.81,-800.32 552.88,-818.26"/>
</g>
</g>
</svg>
