<?xml version="1.0" encoding="UTF-8" standalone="no"?>
<!DOCTYPE svg PUBLIC "-//W3C//DTD SVG 1.1//EN"
 "http://www.w3.org/Graphics/SVG/1.1/DTD/svg11.dtd">
<!-- Generated by graphviz version 5.0.0 (20220707.1540)
 -->
<!-- Title: UmlClassDiagram Pages: 1 -->
<svg width="1006pt" height="225pt"
 viewBox="0.00 0.00 1005.65 224.60" xmlns="http://www.w3.org/2000/svg" xmlns:xlink="http://www.w3.org/1999/xlink">
<g id="graph0" class="graph" transform="scale(1 1) rotate(0) translate(4 220.6)">
<title>UmlClassDiagram</title>
<polygon fill="white" stroke="transparent" points="-4,4 -4,-220.6 1001.65,-220.6 1001.65,4 -4,4"/>
<!-- 17 -->
<g id="node1" class="node">
<title>17</title>
<polygon fill="#f2f2f2" stroke="black" points="0,-79.1 0,-137.5 245.78,-137.5 245.78,-79.1 0,-79.1"/>
<text text-anchor="middle" x="122.89" y="-120.9" font-family="Times,serif" font-size="14.00">&lt;&lt;Abstract&gt;&gt;</text>
<text text-anchor="middle" x="122.89" y="-104.1" font-family="Times,serif" font-size="14.00">ImmutableModule</text>
<text text-anchor="middle" x="122.89" y="-87.3" font-family="Times,serif" font-size="14.00">../contracts/shared/ImmutableModule.sol</text>
</g>
<!-- 19 -->
<g id="node3" class="node">
<title>19</title>
<polygon fill="#f2f2f2" stroke="black" points="15.94,-174.5 15.94,-216.1 229.84,-216.1 229.84,-174.5 15.94,-174.5"/>
<text text-anchor="middle" x="122.89" y="-199.5" font-family="Times,serif" font-size="14.00">ModuleKeys</text>
<text text-anchor="middle" x="122.89" y="-182.7" font-family="Times,serif" font-size="14.00">../contracts/shared/ModuleKeys.sol</text>
</g>
<!-- 17&#45;&gt;19 -->
<g id="edge1" class="edge">
<title>17&#45;&gt;19</title>
<path fill="none" stroke="black" d="M122.89,-137.6C122.89,-139.77 122.89,-142 122.89,-144.25"/>
<polygon fill="none" stroke="black" points="112.39,-144.44 122.89,-174.44 133.39,-144.44 112.39,-144.44"/>
</g>
<!-- 18 -->
<g id="node2" class="node">
<title>18</title>
<polygon fill="#f2f2f2" stroke="black" points="263.31,-87.5 263.31,-129.1 570.47,-129.1 570.47,-87.5 263.31,-87.5"/>
<text text-anchor="middle" x="416.89" y="-112.5" font-family="Times,serif" font-size="14.00">InitializableReentrancyGuard</text>
<text text-anchor="middle" x="416.89" y="-95.7" font-family="Times,serif" font-size="14.00">../contracts/shared/InitializableReentrancyGuard.sol</text>
</g>
<!-- 156 -->
<g id="node4" class="node">
<title>156</title>
<polygon fill="#f2f2f2" stroke="black" points="291.66,-0.5 291.66,-42.1 542.11,-42.1 542.11,-0.5 291.66,-0.5"/>
<text text-anchor="middle" x="416.89" y="-25.5" font-family="Times,serif" font-size="14.00">Liquidator</text>
<text text-anchor="middle" x="416.89" y="-8.7" font-family="Times,serif" font-size="14.00">../contracts/vault/liquidator/Liquidator.sol</text>
</g>
<!-- 156&#45;&gt;17 -->
<g id="edge3" class="edge">
<title>156&#45;&gt;17</title>
<path fill="none" stroke="black" d="M348.33,-42.12C318.86,-50.64 283.44,-60.88 249.5,-70.7"/>
<polygon fill="none" stroke="black" points="246.46,-60.64 220.56,-79.06 252.29,-80.82 246.46,-60.64"/>
</g>
<!-- 156&#45;&gt;18 -->
<g id="edge4" class="edge">
<title>156&#45;&gt;18</title>
<path fill="none" stroke="black" d="M416.89,-42.44C416.89,-47 416.89,-52.03 416.89,-57.21"/>
<polygon fill="none" stroke="black" points="406.39,-57.3 416.89,-87.3 427.39,-57.3 406.39,-57.3"/>
</g>
<!-- 412 -->
<g id="node5" class="node">
<title>412</title>
<polygon fill="#f2f2f2" stroke="black" points="588.13,-79.1 588.13,-137.5 997.65,-137.5 997.65,-79.1 588.13,-79.1"/>
<text text-anchor="middle" x="792.89" y="-120.9" font-family="Times,serif" font-size="14.00">&lt;&lt;Abstract&gt;&gt;</text>
<text text-anchor="middle" x="792.89" y="-104.1" font-family="Times,serif" font-size="14.00">Initializable</text>
<text text-anchor="middle" x="792.89" y="-87.3" font-family="Times,serif" font-size="14.00">../node_modules/@openzeppelin/contracts/proxy/utils/Initializable.sol</text>
</g>
<!-- 156&#45;&gt;412 -->
<g id="edge2" class="edge">
<title>156&#45;&gt;412</title>
<path fill="none" stroke="black" d="M504.57,-42.12C544.44,-51.14 592.83,-62.07 638.49,-72.4"/>
<polygon fill="none" stroke="black" points="636.4,-82.69 667.98,-79.06 641.03,-62.21 636.4,-82.69"/>
</g>
</g>
</svg>
