<?xml version="1.0" encoding="UTF-8" standalone="no"?>
<!DOCTYPE svg PUBLIC "-//W3C//DTD SVG 1.1//EN"
 "http://www.w3.org/Graphics/SVG/1.1/DTD/svg11.dtd">
<!-- Generated by graphviz version 5.0.0 (20220707.1540)
 -->
<!-- Title: UmlClassDiagram Pages: 1 -->
<svg width="1566pt" height="623pt"
 viewBox="0.00 0.00 1565.70 623.00" xmlns="http://www.w3.org/2000/svg" xmlns:xlink="http://www.w3.org/1999/xlink">
<g id="graph0" class="graph" transform="scale(1 1) rotate(0) translate(4 619)">
<title>UmlClassDiagram</title>
<polygon fill="white" stroke="transparent" points="-4,4 -4,-619 1561.7,-619 1561.7,4 -4,4"/>
<!-- 17 -->
<g id="node1" class="node">
<title>17</title>
<polygon fill="#f2f2f2" stroke="black" points="1114.04,-460.7 1114.04,-519.1 1359.82,-519.1 1359.82,-460.7 1114.04,-460.7"/>
<text text-anchor="middle" x="1236.93" y="-502.5" font-family="Times,serif" font-size="14.00">&lt;&lt;Abstract&gt;&gt;</text>
<text text-anchor="middle" x="1236.93" y="-485.7" font-family="Times,serif" font-size="14.00">ImmutableModule</text>
<text text-anchor="middle" x="1236.93" y="-468.9" font-family="Times,serif" font-size="14.00">../contracts/shared/ImmutableModule.sol</text>
</g>
<!-- 19 -->
<g id="node2" class="node">
<title>19</title>
<polygon fill="#f2f2f2" stroke="black" points="1129.98,-564.5 1129.98,-606.1 1343.88,-606.1 1343.88,-564.5 1129.98,-564.5"/>
<text text-anchor="middle" x="1236.93" y="-589.5" font-family="Times,serif" font-size="14.00">ModuleKeys</text>
<text text-anchor="middle" x="1236.93" y="-572.7" font-family="Times,serif" font-size="14.00">../contracts/shared/ModuleKeys.sol</text>
</g>
<!-- 17&#45;&gt;19 -->
<g id="edge1" class="edge">
<title>17&#45;&gt;19</title>
<path fill="none" stroke="black" d="M1236.93,-519.18C1236.93,-523.97 1236.93,-529.07 1236.93,-534.22"/>
<polygon fill="none" stroke="black" points="1226.43,-534.41 1236.93,-564.41 1247.43,-534.41 1226.43,-534.41"/>
</g>
<!-- 24 -->
<g id="node3" class="node">
<title>24</title>
<polygon fill="#f2f2f2" stroke="black" points="803.5,-365.3 803.5,-423.7 1052.37,-423.7 1052.37,-365.3 803.5,-365.3"/>
<text text-anchor="middle" x="927.93" y="-407.1" font-family="Times,serif" font-size="14.00">&lt;&lt;Abstract&gt;&gt;</text>
<text text-anchor="middle" x="927.93" y="-390.3" font-family="Times,serif" font-size="14.00">VaultManagerRole</text>
<text text-anchor="middle" x="927.93" y="-373.5" font-family="Times,serif" font-size="14.00">../contracts/shared/VaultManagerRole.sol</text>
</g>
<!-- 24&#45;&gt;17 -->
<g id="edge3" class="edge">
<title>24&#45;&gt;17</title>
<path fill="none" stroke="black" d="M1021.48,-423.78C1050.76,-432.63 1083.52,-442.53 1114.48,-451.89"/>
<polygon fill="none" stroke="black" points="1111.68,-462.01 1143.44,-460.64 1117.76,-441.91 1111.68,-462.01"/>
</g>
<!-- 270 -->
<g id="node12" class="node">
<title>270</title>
<polygon fill="#f2f2f2" stroke="black" points="719.89,-460.7 719.89,-519.1 1095.97,-519.1 1095.97,-460.7 719.89,-460.7"/>
<text text-anchor="middle" x="907.93" y="-502.5" font-family="Times,serif" font-size="14.00">&lt;&lt;Abstract&gt;&gt;</text>
<text text-anchor="middle" x="907.93" y="-485.7" font-family="Times,serif" font-size="14.00">Pausable</text>
<text text-anchor="middle" x="907.93" y="-468.9" font-family="Times,serif" font-size="14.00">../node_modules/@openzeppelin/contracts/security/Pausable.sol</text>
</g>
<!-- 24&#45;&gt;270 -->
<g id="edge2" class="edge">
<title>24&#45;&gt;270</title>
<path fill="none" stroke="black" d="M921.88,-423.78C921.37,-426.13 920.85,-428.56 920.32,-431.04"/>
<polygon fill="none" stroke="black" points="910.05,-428.86 914.04,-460.4 930.59,-433.26 910.05,-428.86"/>
</g>
<!-- 26 -->
<g id="node4" class="node">
<title>26</title>
<polygon fill="#f2f2f2" stroke="black" points="253.83,-365.3 253.83,-423.7 498.04,-423.7 498.04,-365.3 253.83,-365.3"/>
<text text-anchor="middle" x="375.93" y="-407.1" font-family="Times,serif" font-size="14.00">&lt;&lt;Abstract&gt;&gt;</text>
<text text-anchor="middle" x="375.93" y="-390.3" font-family="Times,serif" font-size="14.00">InitializableToken</text>
<text text-anchor="middle" x="375.93" y="-373.5" font-family="Times,serif" font-size="14.00">../contracts/tokens/InitializableToken.sol</text>
</g>
<!-- 27 -->
<g id="node5" class="node">
<title>27</title>
<polygon fill="#f2f2f2" stroke="black" points="0,-460.7 0,-519.1 283.87,-519.1 283.87,-460.7 0,-460.7"/>
<text text-anchor="middle" x="141.93" y="-502.5" font-family="Times,serif" font-size="14.00">&lt;&lt;Abstract&gt;&gt;</text>
<text text-anchor="middle" x="141.93" y="-485.7" font-family="Times,serif" font-size="14.00">InitializableTokenDetails</text>
<text text-anchor="middle" x="141.93" y="-468.9" font-family="Times,serif" font-size="14.00">../contracts/tokens/InitializableTokenDetails.sol</text>
</g>
<!-- 26&#45;&gt;27 -->
<g id="edge5" class="edge">
<title>26&#45;&gt;27</title>
<path fill="none" stroke="black" d="M305.09,-423.78C284.91,-431.83 262.54,-440.76 241.01,-449.35"/>
<polygon fill="none" stroke="black" points="236.91,-439.69 212.94,-460.56 244.69,-459.19 236.91,-439.69"/>
</g>
<!-- 417 -->
<g id="node13" class="node">
<title>417</title>
<polygon fill="#f2f2f2" stroke="black" points="302.21,-469.1 302.21,-510.7 701.66,-510.7 701.66,-469.1 302.21,-469.1"/>
<text text-anchor="middle" x="501.93" y="-494.1" font-family="Times,serif" font-size="14.00">ERC20</text>
<text text-anchor="middle" x="501.93" y="-477.3" font-family="Times,serif" font-size="14.00">../node_modules/@openzeppelin/contracts/token/ERC20/ERC20.sol</text>
</g>
<!-- 26&#45;&gt;417 -->
<g id="edge4" class="edge">
<title>26&#45;&gt;417</title>
<path fill="none" stroke="black" d="M414.08,-423.78C425.62,-432.33 438.49,-441.87 450.74,-450.96"/>
<polygon fill="none" stroke="black" points="444.75,-459.58 475.11,-469.01 457.26,-442.71 444.75,-459.58"/>
</g>
<!-- 40 -->
<g id="node6" class="node">
<title>40</title>
<polygon fill="#f2f2f2" stroke="black" points="534.15,-269.9 534.15,-328.3 745.71,-328.3 745.71,-269.9 534.15,-269.9"/>
<text text-anchor="middle" x="639.93" y="-311.7" font-family="Times,serif" font-size="14.00">&lt;&lt;Abstract&gt;&gt;</text>
<text text-anchor="middle" x="639.93" y="-294.9" font-family="Times,serif" font-size="14.00">AbstractVault</text>
<text text-anchor="middle" x="639.93" y="-278.1" font-family="Times,serif" font-size="14.00">../contracts/vault/AbstractVault.sol</text>
</g>
<!-- 40&#45;&gt;24 -->
<g id="edge7" class="edge">
<title>40&#45;&gt;24</title>
<path fill="none" stroke="black" d="M727.12,-328.38C753.79,-337.02 783.55,-346.67 811.82,-355.84"/>
<polygon fill="none" stroke="black" points="808.77,-365.89 840.54,-365.16 815.24,-345.92 808.77,-365.89"/>
</g>
<!-- 40&#45;&gt;26 -->
<g id="edge6" class="edge">
<title>40&#45;&gt;26</title>
<path fill="none" stroke="black" d="M560.01,-328.38C536.21,-336.8 509.72,-346.17 484.42,-355.12"/>
<polygon fill="none" stroke="black" points="480.82,-345.25 456.04,-365.16 487.83,-365.05 480.82,-345.25"/>
</g>
<!-- 157 -->
<g id="node7" class="node">
<title>157</title>
<polygon fill="#f2f2f2" stroke="black" points="763.44,-269.9 763.44,-328.3 1092.42,-328.3 1092.42,-269.9 763.44,-269.9"/>
<text text-anchor="middle" x="927.93" y="-311.7" font-family="Times,serif" font-size="14.00">&lt;&lt;Abstract&gt;&gt;</text>
<text text-anchor="middle" x="927.93" y="-294.9" font-family="Times,serif" font-size="14.00">LiquidatorAbstractVault</text>
<text text-anchor="middle" x="927.93" y="-278.1" font-family="Times,serif" font-size="14.00">../contracts/vault/liquidator/LiquidatorAbstractVault.sol</text>
</g>
<!-- 157&#45;&gt;24 -->
<g id="edge8" class="edge">
<title>157&#45;&gt;24</title>
<path fill="none" stroke="black" d="M927.93,-328.38C927.93,-330.46 927.93,-332.6 927.93,-334.78"/>
<polygon fill="none" stroke="black" points="917.43,-335 927.93,-365 938.43,-335 917.43,-335"/>
</g>
<!-- 160 -->
<g id="node8" class="node">
<title>160</title>
<polygon fill="#f2f2f2" stroke="black" points="675.61,-174.5 675.61,-232.9 1044.25,-232.9 1044.25,-174.5 675.61,-174.5"/>
<text text-anchor="middle" x="859.93" y="-216.3" font-family="Times,serif" font-size="14.00">&lt;&lt;Abstract&gt;&gt;</text>
<text text-anchor="middle" x="859.93" y="-199.5" font-family="Times,serif" font-size="14.00">LiquidatorStreamAbstractVault</text>
<text text-anchor="middle" x="859.93" y="-182.7" font-family="Times,serif" font-size="14.00">../contracts/vault/liquidator/LiquidatorStreamAbstractVault.sol</text>
</g>
<!-- 160&#45;&gt;40 -->
<g id="edge9" class="edge">
<title>160&#45;&gt;40</title>
<path fill="none" stroke="black" d="M793.33,-232.98C774.78,-240.85 754.28,-249.56 734.46,-257.97"/>
<polygon fill="none" stroke="black" points="730.2,-248.37 706.69,-269.76 738.41,-267.7 730.2,-248.37"/>
</g>
<!-- 160&#45;&gt;157 -->
<g id="edge10" class="edge">
<title>160&#45;&gt;157</title>
<path fill="none" stroke="black" d="M880.52,-232.98C883.36,-236.87 886.34,-240.97 889.38,-245.14"/>
<polygon fill="none" stroke="black" points="881.04,-251.52 907.18,-269.6 898.01,-239.16 881.04,-251.52"/>
</g>
<!-- 160&#45;&gt;417 -->
<g id="edge11" class="edge">
<title>160&#45;&gt;417</title>
<path fill="none" stroke="black" stroke-dasharray="5,2" d="M675.17,-220.93C609.55,-230.63 546.55,-245.83 524.93,-269.4 521.76,-272.86 509.99,-399.45 504.62,-458.78"/>
<polygon fill="black" stroke="black" points="501.11,-458.76 503.7,-469.03 508.08,-459.38 501.11,-458.76"/>
</g>
<!-- 162 -->
<g id="node9" class="node">
<title>162</title>
<polygon fill="#f2f2f2" stroke="black" points="665.51,-79.1 665.51,-137.5 1054.36,-137.5 1054.36,-79.1 665.51,-79.1"/>
<text text-anchor="middle" x="859.93" y="-120.9" font-family="Times,serif" font-size="14.00">&lt;&lt;Abstract&gt;&gt;</text>
<text text-anchor="middle" x="859.93" y="-104.1" font-family="Times,serif" font-size="14.00">LiquidatorStreamFeeAbstractVault</text>
<text text-anchor="middle" x="859.93" y="-87.3" font-family="Times,serif" font-size="14.00">../contracts/vault/liquidator/LiquidatorStreamFeeAbstractVault.sol</text>
</g>
<!-- 162&#45;&gt;160 -->
<g id="edge12" class="edge">
<title>162&#45;&gt;160</title>
<path fill="none" stroke="black" d="M859.93,-137.58C859.93,-139.66 859.93,-141.8 859.93,-143.98"/>
<polygon fill="none" stroke="black" points="849.43,-144.2 859.93,-174.2 870.43,-144.2 849.43,-144.2"/>
</g>
<!-- 163 -->
<g id="node10" class="node">
<title>163</title>
<polygon fill="#f2f2f2" stroke="black" points="895.67,-0.5 895.67,-42.1 1268.2,-42.1 1268.2,-0.5 895.67,-0.5"/>
<text text-anchor="middle" x="1081.93" y="-25.5" font-family="Times,serif" font-size="14.00">LiquidatorStreamFeeBasicVault</text>
<text text-anchor="middle" x="1081.93" y="-8.7" font-family="Times,serif" font-size="14.00">../contracts/vault/liquidator/LiquidatorStreamFeeBasicVault.sol</text>
</g>
<!-- 163&#45;&gt;24 -->
<g id="edge16" class="edge">
<title>163&#45;&gt;24</title>
<path fill="none" stroke="black" stroke-dasharray="5,2" d="M1090.83,-42.1C1112.84,-94.39 1163.68,-238.34 1100.93,-328.8 1090.85,-343.34 1077.08,-354.61 1061.67,-363.36"/>
<polygon fill="black" stroke="black" points="1059.65,-360.47 1052.43,-368.22 1062.91,-366.66 1059.65,-360.47"/>
</g>
<!-- 163&#45;&gt;26 -->
<g id="edge15" class="edge">
<title>163&#45;&gt;26</title>
<path fill="none" stroke="black" stroke-dasharray="5,2" d="M895.67,-34.21C801.36,-42.76 698.25,-56.72 656.93,-78.6 532.68,-144.39 436.82,-288.47 396.6,-356.52"/>
<polygon fill="black" stroke="black" points="393.54,-354.81 391.52,-365.21 399.59,-358.34 393.54,-354.81"/>
</g>
<!-- 163&#45;&gt;157 -->
<g id="edge17" class="edge">
<title>163&#45;&gt;157</title>
<path fill="none" stroke="black" stroke-dasharray="5,2" d="M1084.83,-42.2C1089.56,-82.36 1094.65,-174.32 1052.93,-233.4 1044.09,-245.93 1032.07,-256.2 1018.96,-264.57"/>
<polygon fill="black" stroke="black" points="1017,-261.67 1010.21,-269.8 1020.59,-267.67 1017,-261.67"/>
</g>
<!-- 163&#45;&gt;162 -->
<g id="edge13" class="edge">
<title>163&#45;&gt;162</title>
<path fill="none" stroke="black" d="M1030.16,-42.12C1009.76,-49.93 985.58,-59.19 961.95,-68.24"/>
<polygon fill="none" stroke="black" points="957.94,-58.53 933.68,-79.06 965.45,-78.14 957.94,-58.53"/>
</g>
<!-- 412 -->
<g id="node11" class="node">
<title>412</title>
<polygon fill="#f2f2f2" stroke="black" points="1148.17,-79.1 1148.17,-137.5 1557.7,-137.5 1557.7,-79.1 1148.17,-79.1"/>
<text text-anchor="middle" x="1352.93" y="-120.9" font-family="Times,serif" font-size="14.00">&lt;&lt;Abstract&gt;&gt;</text>
<text text-anchor="middle" x="1352.93" y="-104.1" font-family="Times,serif" font-size="14.00">Initializable</text>
<text text-anchor="middle" x="1352.93" y="-87.3" font-family="Times,serif" font-size="14.00">../node_modules/@openzeppelin/contracts/proxy/utils/Initializable.sol</text>
</g>
<!-- 163&#45;&gt;412 -->
<g id="edge14" class="edge">
<title>163&#45;&gt;412</title>
<path fill="none" stroke="black" d="M1145.13,-42.12C1171.68,-50.45 1203.46,-60.42 1234.1,-70.03"/>
<polygon fill="none" stroke="black" points="1231.14,-80.1 1262.91,-79.06 1237.42,-60.07 1231.14,-80.1"/>
</g>
<!-- 279 -->
<g id="node14" class="node">
<title>279</title>
<polygon fill="#f2f2f2" stroke="black" points="529.71,-556.1 529.71,-614.5 880.16,-614.5 880.16,-556.1 529.71,-556.1"/>
<text text-anchor="middle" x="704.93" y="-597.9" font-family="Times,serif" font-size="14.00">&lt;&lt;Abstract&gt;&gt;</text>
<text text-anchor="middle" x="704.93" y="-581.1" font-family="Times,serif" font-size="14.00">Context</text>
<text text-anchor="middle" x="704.93" y="-564.3" font-family="Times,serif" font-size="14.00">../node_modules/@openzeppelin/contracts/utils/Context.sol</text>
</g>
<!-- 270&#45;&gt;279 -->
<g id="edge18" class="edge">
<title>270&#45;&gt;279</title>
<path fill="none" stroke="black" d="M846.48,-519.18C829.96,-526.78 811.75,-535.15 794.06,-543.29"/>
<polygon fill="none" stroke="black" points="789.4,-533.88 766.53,-555.96 798.17,-552.96 789.4,-533.88"/>
</g>
<!-- 417&#45;&gt;279 -->
<g id="edge19" class="edge">
<title>417&#45;&gt;279</title>
<path fill="none" stroke="black" d="M544.98,-510.71C565.67,-520.23 591.28,-532.01 615.89,-543.33"/>
<polygon fill="none" stroke="black" points="611.82,-553.01 643.46,-556.02 620.59,-533.94 611.82,-553.01"/>
</g>
</g>
</svg>
