<?xml version="1.0" encoding="UTF-8" standalone="no"?>
<!DOCTYPE svg PUBLIC "-//W3C//DTD SVG 1.1//EN"
 "http://www.w3.org/Graphics/SVG/1.1/DTD/svg11.dtd">
<!-- Generated by graphviz version 5.0.0 (20220707.1540)
 -->
<!-- Title: UmlClassDiagram Pages: 1 -->
<svg width="1042pt" height="909pt"
 viewBox="0.00 0.00 1042.29 909.20" xmlns="http://www.w3.org/2000/svg" xmlns:xlink="http://www.w3.org/1999/xlink">
<g id="graph0" class="graph" transform="scale(1 1) rotate(0) translate(4 905.2)">
<title>UmlClassDiagram</title>
<polygon fill="white" stroke="transparent" points="-4,4 -4,-905.2 1038.29,-905.2 1038.29,4 -4,4"/>
<!-- 1 -->
<g id="node1" class="node">
<title>1</title>
<polygon fill="#f2f2f2" stroke="black" points="381.98,-687.5 381.98,-879.5 719.49,-879.5 719.49,-687.5 381.98,-687.5"/>
<text text-anchor="middle" x="550.74" y="-862.9" font-family="Times,serif" font-size="14.00">DelayedClaimableGovernor</text>
<text text-anchor="middle" x="550.74" y="-846.1" font-family="Times,serif" font-size="14.00">../contracts/governance/DelayedClaimableGovernor.sol</text>
<polyline fill="none" stroke="black" points="381.98,-837.9 719.49,-837.9 "/>
<text text-anchor="start" x="389.98" y="-821.3" font-family="Times,serif" font-size="14.00">Public:</text>
<text text-anchor="start" x="389.98" y="-804.5" font-family="Times,serif" font-size="14.00"> &#160;&#160;delay: uint256</text>
<text text-anchor="start" x="389.98" y="-787.7" font-family="Times,serif" font-size="14.00"> &#160;&#160;requestTime: uint256</text>
<polyline fill="none" stroke="black" points="381.98,-779.5 719.49,-779.5 "/>
<text text-anchor="start" x="389.98" y="-762.9" font-family="Times,serif" font-size="14.00">Public:</text>
<text text-anchor="start" x="389.98" y="-746.1" font-family="Times,serif" font-size="14.00"> &#160;&#160;&#160;constructor(_governorAddr: address, _delay: uint256)</text>
<text text-anchor="start" x="389.98" y="-729.3" font-family="Times,serif" font-size="14.00"> &#160;&#160;&#160;requestGovernorChange(_proposedGovernor: address)</text>
<text text-anchor="start" x="389.98" y="-712.5" font-family="Times,serif" font-size="14.00"> &#160;&#160;&#160;cancelGovernorChange()</text>
<text text-anchor="start" x="389.98" y="-695.7" font-family="Times,serif" font-size="14.00"> &#160;&#160;&#160;claimGovernorChange()</text>
</g>
<!-- 10 -->
<g id="node2" class="node">
<title>10</title>
<polygon fill="#f2f2f2" stroke="black" points="737.18,-666.3 737.18,-900.7 1034.29,-900.7 1034.29,-666.3 737.18,-666.3"/>
<text text-anchor="middle" x="885.74" y="-884.1" font-family="Times,serif" font-size="14.00">&lt;&lt;Interface&gt;&gt;</text>
<text text-anchor="middle" x="885.74" y="-867.3" font-family="Times,serif" font-size="14.00">INexus</text>
<text text-anchor="middle" x="885.74" y="-850.5" font-family="Times,serif" font-size="14.00">../contracts/interfaces/INexus.sol</text>
<polyline fill="none" stroke="black" points="737.18,-842.3 1034.29,-842.3 "/>
<text text-anchor="start" x="745.18" y="-825.7" font-family="Times,serif" font-size="14.00">External:</text>
<text text-anchor="start" x="745.18" y="-808.9" font-family="Times,serif" font-size="14.00"> &#160;&#160;&#160;&#160;governor(): address</text>
<text text-anchor="start" x="745.18" y="-792.1" font-family="Times,serif" font-size="14.00"> &#160;&#160;&#160;&#160;getModule(key: bytes32): address</text>
<text text-anchor="start" x="745.18" y="-775.3" font-family="Times,serif" font-size="14.00"> &#160;&#160;&#160;&#160;proposeModule(_key: bytes32, _addr: address)</text>
<text text-anchor="start" x="745.18" y="-758.5" font-family="Times,serif" font-size="14.00"> &#160;&#160;&#160;&#160;cancelProposedModule(_key: bytes32)</text>
<text text-anchor="start" x="745.18" y="-741.7" font-family="Times,serif" font-size="14.00"> &#160;&#160;&#160;&#160;acceptProposedModule(_key: bytes32)</text>
<text text-anchor="start" x="745.18" y="-724.9" font-family="Times,serif" font-size="14.00"> &#160;&#160;&#160;&#160;acceptProposedModules(_keys: bytes32[])</text>
<text text-anchor="start" x="745.18" y="-708.1" font-family="Times,serif" font-size="14.00"> &#160;&#160;&#160;&#160;requestLockModule(_key: bytes32)</text>
<text text-anchor="start" x="745.18" y="-691.3" font-family="Times,serif" font-size="14.00"> &#160;&#160;&#160;&#160;cancelLockModule(_key: bytes32)</text>
<text text-anchor="start" x="745.18" y="-674.5" font-family="Times,serif" font-size="14.00"> &#160;&#160;&#160;&#160;lockModule(_key: bytes32)</text>
</g>
<!-- 14 -->
<g id="node3" class="node">
<title>14</title>
<polygon fill="#f2f2f2" stroke="black" points="0,-733.5 0,-833.5 173.47,-833.5 173.47,-733.5 0,-733.5"/>
<text text-anchor="middle" x="86.74" y="-816.9" font-family="Times,serif" font-size="14.00">&lt;&lt;Struct&gt;&gt;</text>
<text text-anchor="middle" x="86.74" y="-800.1" font-family="Times,serif" font-size="14.00">Module</text>
<text text-anchor="middle" x="86.74" y="-783.3" font-family="Times,serif" font-size="14.00">../contracts/nexus/Nexus.sol</text>
<polyline fill="none" stroke="black" points="0,-775.1 173.47,-775.1 "/>
<text text-anchor="start" x="8" y="-758.5" font-family="Times,serif" font-size="14.00">addr: address</text>
<text text-anchor="start" x="8" y="-741.7" font-family="Times,serif" font-size="14.00">isLocked: bool</text>
</g>
<!-- 13 -->
<g id="node5" class="node">
<title>13</title>
<polygon fill="#f2f2f2" stroke="black" points="256,-0.5 256,-629.3 845.47,-629.3 845.47,-0.5 256,-0.5"/>
<text text-anchor="middle" x="550.74" y="-612.7" font-family="Times,serif" font-size="14.00">Nexus</text>
<text text-anchor="middle" x="550.74" y="-595.9" font-family="Times,serif" font-size="14.00">../contracts/nexus/Nexus.sol</text>
<polyline fill="none" stroke="black" points="256,-587.7 845.47,-587.7 "/>
<text text-anchor="start" x="264" y="-571.1" font-family="Times,serif" font-size="14.00">Private:</text>
<text text-anchor="start" x="264" y="-554.3" font-family="Times,serif" font-size="14.00"> &#160;&#160;addressToModule: mapping(address=&gt;bytes32)</text>
<text text-anchor="start" x="264" y="-537.5" font-family="Times,serif" font-size="14.00">Public:</text>
<text text-anchor="start" x="264" y="-520.7" font-family="Times,serif" font-size="14.00"> &#160;&#160;UPGRADE_DELAY: uint256</text>
<text text-anchor="start" x="264" y="-503.9" font-family="Times,serif" font-size="14.00"> &#160;&#160;modules: mapping(bytes32=&gt;Module)</text>
<text text-anchor="start" x="264" y="-487.1" font-family="Times,serif" font-size="14.00"> &#160;&#160;proposedModules: mapping(bytes32=&gt;Proposal)</text>
<text text-anchor="start" x="264" y="-470.3" font-family="Times,serif" font-size="14.00"> &#160;&#160;proposedLockModules: mapping(bytes32=&gt;uint256)</text>
<text text-anchor="start" x="264" y="-453.5" font-family="Times,serif" font-size="14.00"> &#160;&#160;initialized: bool</text>
<polyline fill="none" stroke="black" points="256,-445.3 845.47,-445.3 "/>
<text text-anchor="start" x="264" y="-428.7" font-family="Times,serif" font-size="14.00">Private:</text>
<text text-anchor="start" x="264" y="-411.9" font-family="Times,serif" font-size="14.00"> &#160;&#160;&#160;_isDelayOver(_timestamp: uint256): bool</text>
<text text-anchor="start" x="264" y="-395.1" font-family="Times,serif" font-size="14.00">Internal:</text>
<text text-anchor="start" x="264" y="-378.3" font-family="Times,serif" font-size="14.00"> &#160;&#160;&#160;_acceptProposedModule(_key: bytes32)</text>
<text text-anchor="start" x="264" y="-361.5" font-family="Times,serif" font-size="14.00"> &#160;&#160;&#160;_publishModule(_key: bytes32, _addr: address, _isLocked: bool)</text>
<text text-anchor="start" x="264" y="-344.7" font-family="Times,serif" font-size="14.00">External:</text>
<text text-anchor="start" x="264" y="-327.9" font-family="Times,serif" font-size="14.00"> &#160;&#160;&#160;initialize(_keys: bytes32[], _addresses: address[], _isLocked: bool[], _governorAddr: address): bool</text>
<text text-anchor="start" x="264" y="-311.1" font-family="Times,serif" font-size="14.00"> &#160;&#160;&#160;proposeModule(_key: bytes32, _addr: address)</text>
<text text-anchor="start" x="264" y="-294.3" font-family="Times,serif" font-size="14.00"> &#160;&#160;&#160;cancelProposedModule(_key: bytes32)</text>
<text text-anchor="start" x="264" y="-277.5" font-family="Times,serif" font-size="14.00"> &#160;&#160;&#160;acceptProposedModule(_key: bytes32)</text>
<text text-anchor="start" x="264" y="-260.7" font-family="Times,serif" font-size="14.00"> &#160;&#160;&#160;acceptProposedModules(_keys: bytes32[])</text>
<text text-anchor="start" x="264" y="-243.9" font-family="Times,serif" font-size="14.00"> &#160;&#160;&#160;requestLockModule(_key: bytes32)</text>
<text text-anchor="start" x="264" y="-227.1" font-family="Times,serif" font-size="14.00"> &#160;&#160;&#160;cancelLockModule(_key: bytes32)</text>
<text text-anchor="start" x="264" y="-210.3" font-family="Times,serif" font-size="14.00"> &#160;&#160;&#160;lockModule(_key: bytes32)</text>
<text text-anchor="start" x="264" y="-193.5" font-family="Times,serif" font-size="14.00"> &#160;&#160;&#160;getModule(_key: bytes32): (addr: address)</text>
<text text-anchor="start" x="264" y="-176.7" font-family="Times,serif" font-size="14.00">Public:</text>
<text text-anchor="start" x="264" y="-159.9" font-family="Times,serif" font-size="14.00"> &#160;&#160;&#160;&lt;&lt;event&gt;&gt; ModuleProposed(key: bytes32, addr: address, timestamp: uint256)</text>
<text text-anchor="start" x="264" y="-143.1" font-family="Times,serif" font-size="14.00"> &#160;&#160;&#160;&lt;&lt;event&gt;&gt; ModuleAdded(key: bytes32, addr: address, isLocked: bool)</text>
<text text-anchor="start" x="264" y="-126.3" font-family="Times,serif" font-size="14.00"> &#160;&#160;&#160;&lt;&lt;event&gt;&gt; ModuleCancelled(key: bytes32)</text>
<text text-anchor="start" x="264" y="-109.5" font-family="Times,serif" font-size="14.00"> &#160;&#160;&#160;&lt;&lt;event&gt;&gt; ModuleLockRequested(key: bytes32, timestamp: uint256)</text>
<text text-anchor="start" x="264" y="-92.7" font-family="Times,serif" font-size="14.00"> &#160;&#160;&#160;&lt;&lt;event&gt;&gt; ModuleLockEnabled(key: bytes32)</text>
<text text-anchor="start" x="264" y="-75.9" font-family="Times,serif" font-size="14.00"> &#160;&#160;&#160;&lt;&lt;event&gt;&gt; ModuleLockCancelled(key: bytes32)</text>
<text text-anchor="start" x="264" y="-59.1" font-family="Times,serif" font-size="14.00"> &#160;&#160;&#160;&lt;&lt;modifier&gt;&gt; whenNotInitialized()</text>
<text text-anchor="start" x="264" y="-42.3" font-family="Times,serif" font-size="14.00"> &#160;&#160;&#160;constructor(_governorAddr: address)</text>
<text text-anchor="start" x="264" y="-25.5" font-family="Times,serif" font-size="14.00"> &#160;&#160;&#160;governor(): address</text>
<text text-anchor="start" x="264" y="-8.7" font-family="Times,serif" font-size="14.00"> &#160;&#160;&#160;moduleExists(_key: bytes32): bool</text>
</g>
<!-- 14&#45;&gt;13 -->
<g id="edge1" class="edge">
<title>14&#45;&gt;13</title>
<path fill="none" stroke="black" d="M132.7,-733.35C150.36,-712.05 170.93,-687.16 190.74,-665.8 208.77,-646.34 227.66,-626.63 246.94,-607"/>
<polygon fill="black" stroke="black" points="247.1,-606.83 248.46,-599.75 255.52,-598.29 254.16,-605.37 247.1,-606.83"/>
</g>
<!-- 15 -->
<g id="node4" class="node">
<title>15</title>
<polygon fill="#f2f2f2" stroke="black" points="191,-733.5 191,-833.5 364.47,-833.5 364.47,-733.5 191,-733.5"/>
<text text-anchor="middle" x="277.74" y="-816.9" font-family="Times,serif" font-size="14.00">&lt;&lt;Struct&gt;&gt;</text>
<text text-anchor="middle" x="277.74" y="-800.1" font-family="Times,serif" font-size="14.00">Proposal</text>
<text text-anchor="middle" x="277.74" y="-783.3" font-family="Times,serif" font-size="14.00">../contracts/nexus/Nexus.sol</text>
<polyline fill="none" stroke="black" points="191,-775.1 364.47,-775.1 "/>
<text text-anchor="start" x="199" y="-758.5" font-family="Times,serif" font-size="14.00">newAddress: address</text>
<text text-anchor="start" x="199" y="-741.7" font-family="Times,serif" font-size="14.00">timestamp: uint32</text>
</g>
<!-- 15&#45;&gt;13 -->
<g id="edge2" class="edge">
<title>15&#45;&gt;13</title>
<path fill="none" stroke="black" d="M310.83,-733.35C326.26,-708.5 345.92,-676.01 367.31,-640.12"/>
<polygon fill="black" stroke="black" points="367.56,-639.71 367.19,-632.5 373.7,-629.39 374.07,-636.6 367.56,-639.71"/>
</g>
<!-- 13&#45;&gt;1 -->
<g id="edge4" class="edge">
<title>13&#45;&gt;1</title>
<path fill="none" stroke="black" d="M550.74,-629.39C550.74,-638.83 550.74,-648.07 550.74,-657.04"/>
<polygon fill="none" stroke="black" points="540.24,-657.27 550.74,-687.27 561.24,-657.27 540.24,-657.27"/>
</g>
<!-- 13&#45;&gt;10 -->
<g id="edge3" class="edge">
<title>13&#45;&gt;10</title>
<path fill="none" stroke="black" stroke-dasharray="5,2" d="M775.81,-629.39C778.81,-633.57 781.78,-637.7 784.71,-641.79"/>
<polygon fill="none" stroke="black" points="776.27,-648.03 802.29,-666.28 793.33,-635.78 776.27,-648.03"/>
</g>
<!-- 13&#45;&gt;14 -->
<g id="edge5" class="edge">
<title>13&#45;&gt;14</title>
<path fill="none" stroke="black" d="M255.58,-580.22C227.06,-608.61 199,-637.48 172.74,-665.8 155.41,-684.49 137.49,-705.88 122.45,-725.21"/>
<polygon fill="black" stroke="black" points="119.51,-723.29 116.18,-733.35 125.06,-727.55 119.51,-723.29"/>
</g>
<!-- 13&#45;&gt;15 -->
<g id="edge6" class="edge">
<title>13&#45;&gt;15</title>
<path fill="none" stroke="black" d="M360.93,-629.39C340.27,-665.29 321.54,-698.3 307.08,-724.41"/>
<polygon fill="black" stroke="black" points="303.91,-722.91 302.15,-733.35 310.04,-726.29 303.91,-722.91"/>
</g>
</g>
</svg>
