<?xml version="1.0" encoding="UTF-8" standalone="no"?>
<!DOCTYPE svg PUBLIC "-//W3C//DTD SVG 1.1//EN"
 "http://www.w3.org/Graphics/SVG/1.1/DTD/svg11.dtd">
<!-- Generated by graphviz version 5.0.0 (20220707.1540)
 -->
<!-- Title: UmlClassDiagram Pages: 1 -->
<svg width="335pt" height="286pt"
 viewBox="0.00 0.00 335.38 286.40" xmlns="http://www.w3.org/2000/svg" xmlns:xlink="http://www.w3.org/1999/xlink">
<g id="graph0" class="graph" transform="scale(1 1) rotate(0) translate(4 282.4)">
<title>UmlClassDiagram</title>
<polygon fill="white" stroke="transparent" points="-4,4 -4,-282.4 331.38,-282.4 331.38,4 -4,4"/>
<!-- 0 -->
<g id="node1" class="node">
<title>0</title>
<polygon fill="#f2f2f2" stroke="black" points="23.32,-157.7 23.32,-199.3 304.06,-199.3 304.06,-157.7 23.32,-157.7"/>
<text text-anchor="middle" x="163.69" y="-182.7" font-family="Times,serif" font-size="14.00">ClaimableGovernor</text>
<text text-anchor="middle" x="163.69" y="-165.9" font-family="Times,serif" font-size="14.00">../contracts/governance/ClaimableGovernor.sol</text>
</g>
<!-- 2 -->
<g id="node3" class="node">
<title>2</title>
<polygon fill="#f2f2f2" stroke="black" points="46.26,-236.3 46.26,-277.9 281.12,-277.9 281.12,-236.3 46.26,-236.3"/>
<text text-anchor="middle" x="163.69" y="-261.3" font-family="Times,serif" font-size="14.00">Governable</text>
<text text-anchor="middle" x="163.69" y="-244.5" font-family="Times,serif" font-size="14.00">../contracts/governance/Governable.sol</text>
</g>
<!-- 0&#45;&gt;2 -->
<g id="edge1" class="edge">
<title>0&#45;&gt;2</title>
<path fill="none" stroke="black" d="M163.69,-199.63C163.69,-201.65 163.69,-203.76 163.69,-205.93"/>
<polygon fill="none" stroke="black" points="153.19,-206.11 163.69,-236.11 174.19,-206.11 153.19,-206.11"/>
</g>
<!-- 1 -->
<g id="node2" class="node">
<title>1</title>
<polygon fill="#f2f2f2" stroke="black" points="0,-79.1 0,-120.7 327.38,-120.7 327.38,-79.1 0,-79.1"/>
<text text-anchor="middle" x="163.69" y="-104.1" font-family="Times,serif" font-size="14.00">DelayedClaimableGovernor</text>
<text text-anchor="middle" x="163.69" y="-87.3" font-family="Times,serif" font-size="14.00">../contracts/governance/DelayedClaimableGovernor.sol</text>
</g>
<!-- 1&#45;&gt;0 -->
<g id="edge2" class="edge">
<title>1&#45;&gt;0</title>
<path fill="none" stroke="black" d="M163.69,-121.03C163.69,-123.05 163.69,-125.16 163.69,-127.33"/>
<polygon fill="none" stroke="black" points="153.19,-127.51 163.69,-157.51 174.19,-127.51 153.19,-127.51"/>
</g>
<!-- 13 -->
<g id="node4" class="node">
<title>13</title>
<polygon fill="#f2f2f2" stroke="black" points="76.96,-0.5 76.96,-42.1 250.43,-42.1 250.43,-0.5 76.96,-0.5"/>
<text text-anchor="middle" x="163.69" y="-25.5" font-family="Times,serif" font-size="14.00">Nexus</text>
<text text-anchor="middle" x="163.69" y="-8.7" font-family="Times,serif" font-size="14.00">../contracts/nexus/Nexus.sol</text>
</g>
<!-- 13&#45;&gt;1 -->
<g id="edge3" class="edge">
<title>13&#45;&gt;1</title>
<path fill="none" stroke="black" d="M163.69,-42.43C163.69,-44.45 163.69,-46.56 163.69,-48.73"/>
<polygon fill="none" stroke="black" points="153.19,-48.91 163.69,-78.91 174.19,-48.91 153.19,-48.91"/>
</g>
</g>
</svg>
