<?xml version="1.0" encoding="UTF-8" standalone="no"?>
<!DOCTYPE svg PUBLIC "-//W3C//DTD SVG 1.1//EN"
 "http://www.w3.org/Graphics/SVG/1.1/DTD/svg11.dtd">
<!-- Generated by graphviz version 5.0.0 (20220707.1540)
 -->
<!-- Title: UmlClassDiagram Pages: 1 -->
<svg width="325pt" height="303pt"
 viewBox="0.00 0.00 325.29 303.20" xmlns="http://www.w3.org/2000/svg" xmlns:xlink="http://www.w3.org/1999/xlink">
<g id="graph0" class="graph" transform="scale(1 1) rotate(0) translate(4 299.2)">
<title>UmlClassDiagram</title>
<polygon fill="white" stroke="transparent" points="-4,4 -4,-299.2 321.29,-299.2 321.29,4 -4,4"/>
<!-- 0 -->
<g id="node1" class="node">
<title>0</title>
<polygon fill="#f2f2f2" stroke="black" points="24.11,-174.5 24.11,-216.1 293.18,-216.1 293.18,-174.5 24.11,-174.5"/>
<text text-anchor="middle" x="158.64" y="-199.5" font-family="Times,serif" font-size="14.00">ClaimableGovernor</text>
<text text-anchor="middle" x="158.64" y="-182.7" font-family="Times,serif" font-size="14.00">..contractsgovernanceClaimableGovernor.sol</text>
</g>
<!-- 2 -->
<g id="node3" class="node">
<title>2</title>
<polygon fill="#f2f2f2" stroke="black" points="0,-253.1 0,-294.7 317.29,-294.7 317.29,-253.1 0,-253.1"/>
<text text-anchor="middle" x="158.64" y="-278.1" font-family="Times,serif" font-size="14.00">Governable</text>
<text text-anchor="middle" x="158.64" y="-261.3" font-family="Times,serif" font-size="14.00">..contractsgovernanceUmlClassDiagramovernable.sol</text>
</g>
<!-- 0&#45;&gt;2 -->
<g id="edge1" class="edge">
<title>0&#45;&gt;2</title>
<path fill="none" stroke="black" d="M158.64,-216.43C158.64,-218.45 158.64,-220.56 158.64,-222.73"/>
<polygon fill="none" stroke="black" points="148.14,-222.91 158.64,-252.91 169.14,-222.91 148.14,-222.91"/>
</g>
<!-- 1 -->
<g id="node2" class="node">
<title>1</title>
<polygon fill="#f2f2f2" stroke="black" points="0.79,-95.9 0.79,-137.5 316.5,-137.5 316.5,-95.9 0.79,-95.9"/>
<text text-anchor="middle" x="158.64" y="-120.9" font-family="Times,serif" font-size="14.00">DelayedClaimableGovernor</text>
<text text-anchor="middle" x="158.64" y="-104.1" font-family="Times,serif" font-size="14.00">..contractsgovernanceDelayedClaimableGovernor.sol</text>
</g>
<!-- 1&#45;&gt;0 -->
<g id="edge2" class="edge">
<title>1&#45;&gt;0</title>
<path fill="none" stroke="black" d="M158.64,-137.83C158.64,-139.85 158.64,-141.96 158.64,-144.13"/>
<polygon fill="none" stroke="black" points="148.14,-144.31 158.64,-174.31 169.14,-144.31 148.14,-144.31"/>
</g>
<!-- 10 -->
<g id="node4" class="node">
<title>10</title>
<polygon fill="#f2f2f2" stroke="black" points="108.06,-0.5 108.06,-58.9 209.22,-58.9 209.22,-0.5 108.06,-0.5"/>
<text text-anchor="middle" x="158.64" y="-42.3" font-family="Times,serif" font-size="14.00">Nexus</text>
<text text-anchor="middle" x="158.64" y="-25.5" font-family="Times,serif" font-size="14.00">..contracts</text>
<text text-anchor="middle" x="158.64" y="-8.7" font-family="Times,serif" font-size="14.00">exus10exus.sol</text>
</g>
<!-- 10&#45;&gt;1 -->
<g id="edge3" class="edge">
<title>10&#45;&gt;1</title>
<path fill="none" stroke="black" d="M158.64,-59C158.64,-61.17 158.64,-63.4 158.64,-65.65"/>
<polygon fill="none" stroke="black" points="148.14,-65.84 158.64,-95.84 169.14,-65.84 148.14,-65.84"/>
</g>
</g>
</svg>
