<?xml version="1.0" encoding="UTF-8" standalone="no"?>
<!DOCTYPE svg PUBLIC "-//W3C//DTD SVG 1.1//EN"
 "http://www.w3.org/Graphics/SVG/1.1/DTD/svg11.dtd">
<!-- Generated by graphviz version 5.0.0 (20220707.1540)
 -->
<!-- Title: StorageDiagram Pages: 1 -->
<svg width="1265pt" height="282pt"
 viewBox="0.00 0.00 1264.98 281.80" xmlns="http://www.w3.org/2000/svg" xmlns:xlink="http://www.w3.org/1999/xlink">
<g id="graph0" class="graph" transform="scale(1 1) rotate(0) translate(4 277.8)">
<title>StorageDiagram</title>
<polygon fill="white" stroke="transparent" points="-4,4 -4,-277.8 1260.98,-277.8 1260.98,4 -4,4"/>
<!-- 3 -->
<g id="node1" class="node">
<title>3</title>
<polygon fill="#f2f2f2" stroke="black" points="0,-0.5 0,-273.3 619.29,-273.3 619.29,-0.5 0,-0.5"/>
<text text-anchor="middle" x="309.65" y="-256.7" font-family="Courier New" font-size="14.00">Nexus &lt;&lt;Contract&gt;&gt;</text>
<polyline fill="none" stroke="black" points="0,-248.5 619.29,-248.5 "/>
<text text-anchor="middle" x="24.8" y="-231.9" font-family="Courier New" font-size="14.00">slot</text>
<polyline fill="none" stroke="black" points="0,-223.7 49.61,-223.7 "/>
<text text-anchor="middle" x="24.8" y="-207.1" font-family="Courier New" font-size="14.00">0</text>
<polyline fill="none" stroke="black" points="0,-198.9 49.61,-198.9 "/>
<text text-anchor="middle" x="24.8" y="-182.3" font-family="Courier New" font-size="14.00">1</text>
<polyline fill="none" stroke="black" points="0,-174.1 49.61,-174.1 "/>
<text text-anchor="middle" x="24.8" y="-157.5" font-family="Courier New" font-size="14.00">2</text>
<polyline fill="none" stroke="black" points="0,-149.3 49.61,-149.3 "/>
<text text-anchor="middle" x="24.8" y="-132.7" font-family="Courier New" font-size="14.00">3</text>
<polyline fill="none" stroke="black" points="0,-124.5 49.61,-124.5 "/>
<text text-anchor="middle" x="24.8" y="-107.9" font-family="Courier New" font-size="14.00">4</text>
<polyline fill="none" stroke="black" points="0,-99.7 49.61,-99.7 "/>
<text text-anchor="middle" x="24.8" y="-83.1" font-family="Courier New" font-size="14.00">5</text>
<polyline fill="none" stroke="black" points="0,-74.9 49.61,-74.9 "/>
<text text-anchor="middle" x="24.8" y="-58.3" font-family="Courier New" font-size="14.00">6</text>
<polyline fill="none" stroke="black" points="0,-50.1 49.61,-50.1 "/>
<text text-anchor="middle" x="24.8" y="-33.5" font-family="Courier New" font-size="14.00">7</text>
<polyline fill="none" stroke="black" points="0,-25.3 49.61,-25.3 "/>
<text text-anchor="middle" x="24.8" y="-8.7" font-family="Courier New" font-size="14.00">8</text>
<polyline fill="none" stroke="black" points="49.61,-0.5 49.61,-248.5 "/>
<text text-anchor="middle" x="334.45" y="-231.9" font-family="Courier New" font-size="14.00">type: &lt;inherited contract&gt;.variable (bytes)</text>
<polyline fill="none" stroke="black" points="49.61,-223.7 619.29,-223.7 "/>
<text text-anchor="middle" x="153.82" y="-207.1" font-family="Courier New" font-size="14.00">unallocated (12)</text>
<polyline fill="none" stroke="black" points="258.03,-198.9 258.03,-223.7 "/>
<text text-anchor="middle" x="438.35" y="-207.1" font-family="Courier New" font-size="14.00">address: Governable._governor (20)</text>
<polyline fill="none" stroke="black" points="49.61,-198.9 619.29,-198.9 "/>
<text text-anchor="middle" x="124.82" y="-182.3" font-family="Courier New" font-size="14.00">unallocated (12)</text>
<polyline fill="none" stroke="black" points="200.03,-174.1 200.03,-198.9 "/>
<text text-anchor="middle" x="409.66" y="-182.3" font-family="Courier New" font-size="14.00">address: ClaimableGovernor.proposedGovernor (20)</text>
<polyline fill="none" stroke="black" points="49.61,-174.1 619.29,-174.1 "/>
<text text-anchor="middle" x="334.44" y="-157.5" font-family="Courier New" font-size="14.00">uint256: DelayedClaimableGovernor.delay (32)</text>
<polyline fill="none" stroke="black" points="49.61,-149.3 619.29,-149.3 "/>
<text text-anchor="middle" x="334.14" y="-132.7" font-family="Courier New" font-size="14.00">uint256: DelayedClaimableGovernor.requestTime (32)</text>
<polyline fill="none" stroke="black" points="49.61,-124.5 619.29,-124.5 "/>
<text text-anchor="middle" x="334.23" y="-107.9" font-family="Courier New" font-size="14.00">mapping(bytes32=&gt;Module): modules (32)</text>
<polyline fill="none" stroke="black" points="49.61,-99.7 619.29,-99.7 "/>
<text text-anchor="middle" x="334.04" y="-83.1" font-family="Courier New" font-size="14.00">mapping(address=&gt;bytes32): addressToModule (32)</text>
<polyline fill="none" stroke="black" points="49.61,-74.9 619.29,-74.9 "/>
<text text-anchor="middle" x="334.24" y="-58.3" font-family="Courier New" font-size="14.00">mapping(bytes32=&gt;Proposal): proposedModules (32)</text>
<polyline fill="none" stroke="black" points="49.61,-50.1 619.29,-50.1 "/>
<text text-anchor="middle" x="334.34" y="-33.5" font-family="Courier New" font-size="14.00">mapping(bytes32=&gt;uint256): proposedLockModules (32)</text>
<polyline fill="none" stroke="black" points="49.61,-25.3 619.29,-25.3 "/>
<text text-anchor="middle" x="181.32" y="-8.7" font-family="Courier New" font-size="14.00">unallocated (31)</text>
<polyline fill="none" stroke="black" points="313.03,-0.5 313.03,-25.3 "/>
<text text-anchor="middle" x="465.74" y="-8.7" font-family="Courier New" font-size="14.00">bool: initialized (1)</text>
</g>
<!-- 1 -->
<g id="node2" class="node">
<title>1</title>
<polygon fill="#f2f2f2" stroke="black" points="688.9,-96.7 688.9,-171.1 1223.38,-171.1 1223.38,-96.7 688.9,-96.7"/>
<text text-anchor="middle" x="956.14" y="-154.5" font-family="Courier New" font-size="14.00">Module &lt;&lt;Struct&gt;&gt;</text>
<polyline fill="none" stroke="black" points="688.9,-146.3 1223.38,-146.3 "/>
<text text-anchor="middle" x="713.7" y="-129.7" font-family="Courier New" font-size="14.00">slot</text>
<polyline fill="none" stroke="black" points="688.9,-121.5 738.5,-121.5 "/>
<text text-anchor="middle" x="713.7" y="-104.9" font-family="Courier New" font-size="14.00">0</text>
<polyline fill="none" stroke="black" points="738.5,-96.7 738.5,-146.3 "/>
<text text-anchor="middle" x="980.94" y="-129.7" font-family="Courier New" font-size="14.00">type: variable (bytes)</text>
<polyline fill="none" stroke="black" points="738.5,-121.5 1223.38,-121.5 "/>
<text text-anchor="middle" x="813.71" y="-104.9" font-family="Courier New" font-size="14.00">unallocated (11)</text>
<polyline fill="none" stroke="black" points="888.93,-96.7 888.93,-121.5 "/>
<text text-anchor="middle" x="972.54" y="-104.9" font-family="Courier New" font-size="14.00">bool: isLocked (1)</text>
<polyline fill="none" stroke="black" points="1056.15,-96.7 1056.15,-121.5 "/>
<text text-anchor="middle" x="1139.76" y="-104.9" font-family="Courier New" font-size="14.00">address: addr (20)</text>
</g>
<!-- 3&#45;&gt;1 -->
<g id="edge1" class="edge">
<title>3:7&#45;&gt;1</title>
<path fill="none" stroke="black" d="M619.29,-111.9C638.54,-111.9 658.39,-112.26 678.37,-112.9"/>
<polygon fill="black" stroke="black" points="678.4,-116.4 688.51,-113.24 678.64,-109.41 678.4,-116.4"/>
</g>
<!-- 2 -->
<g id="node3" class="node">
<title>2</title>
<polygon fill="#f2f2f2" stroke="black" points="655.29,-3.7 655.29,-78.1 1256.98,-78.1 1256.98,-3.7 655.29,-3.7"/>
<text text-anchor="middle" x="956.14" y="-61.5" font-family="Courier New" font-size="14.00">Proposal &lt;&lt;Struct&gt;&gt;</text>
<polyline fill="none" stroke="black" points="655.29,-53.3 1256.98,-53.3 "/>
<text text-anchor="middle" x="680.1" y="-36.7" font-family="Courier New" font-size="14.00">slot</text>
<polyline fill="none" stroke="black" points="655.29,-28.5 704.9,-28.5 "/>
<text text-anchor="middle" x="680.1" y="-11.9" font-family="Courier New" font-size="14.00">0</text>
<polyline fill="none" stroke="black" points="704.9,-3.7 704.9,-53.3 "/>
<text text-anchor="middle" x="980.94" y="-36.7" font-family="Courier New" font-size="14.00">type: variable (bytes)</text>
<polyline fill="none" stroke="black" points="704.9,-28.5 1256.98,-28.5 "/>
<text text-anchor="middle" x="775.91" y="-11.9" font-family="Courier New" font-size="14.00">unallocated (8)</text>
<polyline fill="none" stroke="black" points="846.92,-3.7 846.92,-28.5 "/>
<text text-anchor="middle" x="943.13" y="-11.9" font-family="Courier New" font-size="14.00">uint32: timestamp (4)</text>
<polyline fill="none" stroke="black" points="1039.35,-3.7 1039.35,-28.5 "/>
<text text-anchor="middle" x="1148.16" y="-11.9" font-family="Courier New" font-size="14.00">address: newAddress (20)</text>
</g>
<!-- 3&#45;&gt;2 -->
<g id="edge2" class="edge">
<title>3:11&#45;&gt;2</title>
<path fill="none" stroke="black" d="M619.29,-62.9C627.69,-62.9 636.21,-62.83 644.8,-62.7"/>
<polygon fill="black" stroke="black" points="644.98,-66.2 654.92,-62.52 644.86,-59.2 644.98,-66.2"/>
</g>
</g>
</svg>
