<?xml version="1.0" encoding="UTF-8" standalone="no"?>
<!DOCTYPE svg PUBLIC "-//W3C//DTD SVG 1.1//EN"
 "http://www.w3.org/Graphics/SVG/1.1/DTD/svg11.dtd">
<!-- Generated by graphviz version 5.0.0 (20220707.1540)
 -->
<!-- Title: UmlClassDiagram Pages: 1 -->
<svg width="1046pt" height="926pt"
 viewBox="0.00 0.00 1046.13 926.00" xmlns="http://www.w3.org/2000/svg" xmlns:xlink="http://www.w3.org/1999/xlink">
<g id="graph0" class="graph" transform="scale(1 1) rotate(0) translate(4 922)">
<title>UmlClassDiagram</title>
<polygon fill="white" stroke="transparent" points="-4,4 -4,-922 1042.13,-922 1042.13,4 -4,4"/>
<!-- 1 -->
<g id="node1" class="node">
<title>1</title>
<polygon fill="#f2f2f2" stroke="black" points="272.01,-704.3 272.01,-896.3 723.15,-896.3 723.15,-704.3 272.01,-704.3"/>
<text text-anchor="middle" x="497.58" y="-879.7" font-family="Times,serif" font-size="14.00">DelayedClaimableGovernor</text>
<text text-anchor="middle" x="497.58" y="-862.9" font-family="Times,serif" font-size="14.00">..contractsgovernanceDelayedClaimableGovernor.sol</text>
<polyline fill="none" stroke="black" points="272.01,-854.7 723.15,-854.7 "/>
<text text-anchor="start" x="280.01" y="-838.1" font-family="Times,serif" font-size="14.00">Public:</text>
<text text-anchor="start" x="280.01" y="-821.3" font-family="Times,serif" font-size="14.00"> &#160;&#160;delay: uint256</text>
<text text-anchor="start" x="280.01" y="-804.5" font-family="Times,serif" font-size="14.00"> &#160;&#160;requestTime: uint256</text>
<polyline fill="none" stroke="black" points="272.01,-796.3 723.15,-796.3 "/>
<text text-anchor="start" x="280.01" y="-779.7" font-family="Times,serif" font-size="14.00">Public:</text>
<text text-anchor="start" x="280.01" y="-762.9" font-family="Times,serif" font-size="14.00"> &#160;&#160;&#160;constructor(_governorAddr: address, _delay: uint256)</text>
<text text-anchor="start" x="280.01" y="-746.1" font-family="Times,serif" font-size="14.00"> &#160;&#160;&#160;requestGovernorChange(_proposedGovernor: address) &lt;&lt;onlyGovernor&gt;&gt;</text>
<text text-anchor="start" x="280.01" y="-729.3" font-family="Times,serif" font-size="14.00"> &#160;&#160;&#160;cancelGovernorChange() &lt;&lt;onlyGovernor&gt;&gt;</text>
<text text-anchor="start" x="280.01" y="-712.5" font-family="Times,serif" font-size="14.00"> &#160;&#160;&#160;claimGovernorChange() &lt;&lt;onlyProposedGovernor&gt;&gt;</text>
</g>
<!-- 9 -->
<g id="node2" class="node">
<title>9</title>
<polygon fill="#f2f2f2" stroke="black" points="741.03,-683.1 741.03,-917.5 1038.13,-917.5 1038.13,-683.1 741.03,-683.1"/>
<text text-anchor="middle" x="889.58" y="-900.9" font-family="Times,serif" font-size="14.00">&lt;&lt;Interface&gt;&gt;</text>
<text text-anchor="middle" x="889.58" y="-884.1" font-family="Times,serif" font-size="14.00">INexus</text>
<text text-anchor="middle" x="889.58" y="-867.3" font-family="Times,serif" font-size="14.00">..contractsinterfacesINexus.sol</text>
<polyline fill="none" stroke="black" points="741.03,-859.1 1038.13,-859.1 "/>
<text text-anchor="start" x="749.03" y="-842.5" font-family="Times,serif" font-size="14.00">External:</text>
<text text-anchor="start" x="749.03" y="-825.7" font-family="Times,serif" font-size="14.00"> &#160;&#160;&#160;&#160;governor(): address</text>
<text text-anchor="start" x="749.03" y="-808.9" font-family="Times,serif" font-size="14.00"> &#160;&#160;&#160;&#160;getModule(key: bytes32): address</text>
<text text-anchor="start" x="749.03" y="-792.1" font-family="Times,serif" font-size="14.00"> &#160;&#160;&#160;&#160;proposeModule(_key: bytes32, _addr: address)</text>
<text text-anchor="start" x="749.03" y="-775.3" font-family="Times,serif" font-size="14.00"> &#160;&#160;&#160;&#160;cancelProposedModule(_key: bytes32)</text>
<text text-anchor="start" x="749.03" y="-758.5" font-family="Times,serif" font-size="14.00"> &#160;&#160;&#160;&#160;acceptProposedModule(_key: bytes32)</text>
<text text-anchor="start" x="749.03" y="-741.7" font-family="Times,serif" font-size="14.00"> &#160;&#160;&#160;&#160;acceptProposedModules(_keys: bytes32[])</text>
<text text-anchor="start" x="749.03" y="-724.9" font-family="Times,serif" font-size="14.00"> &#160;&#160;&#160;&#160;requestLockModule(_key: bytes32)</text>
<text text-anchor="start" x="749.03" y="-708.1" font-family="Times,serif" font-size="14.00"> &#160;&#160;&#160;&#160;cancelLockModule(_key: bytes32)</text>
<text text-anchor="start" x="749.03" y="-691.3" font-family="Times,serif" font-size="14.00"> &#160;&#160;&#160;&#160;lockModule(_key: bytes32)</text>
</g>
<!-- 11 -->
<g id="node3" class="node">
<title>11</title>
<polygon fill="#f2f2f2" stroke="black" points="0,-741.9 0,-858.7 101.16,-858.7 101.16,-741.9 0,-741.9"/>
<text text-anchor="middle" x="50.58" y="-842.1" font-family="Times,serif" font-size="14.00">&lt;&lt;Struct&gt;&gt;</text>
<text text-anchor="middle" x="50.58" y="-825.3" font-family="Times,serif" font-size="14.00">Module</text>
<text text-anchor="middle" x="50.58" y="-808.5" font-family="Times,serif" font-size="14.00">..contracts</text>
<text text-anchor="middle" x="50.58" y="-791.7" font-family="Times,serif" font-size="14.00">exus11exus.sol</text>
<polyline fill="none" stroke="black" points="0,-783.5 101.16,-783.5 "/>
<text text-anchor="start" x="8" y="-766.9" font-family="Times,serif" font-size="14.00">addr: address</text>
<text text-anchor="start" x="8" y="-750.1" font-family="Times,serif" font-size="14.00">isLocked: bool</text>
</g>
<!-- 10 -->
<g id="node5" class="node">
<title>10</title>
<polygon fill="#f2f2f2" stroke="black" points="88.5,-0.5 88.5,-646.1 906.66,-646.1 906.66,-0.5 88.5,-0.5"/>
<text text-anchor="middle" x="497.58" y="-629.5" font-family="Times,serif" font-size="14.00">Nexus</text>
<text text-anchor="middle" x="497.58" y="-612.7" font-family="Times,serif" font-size="14.00">..contracts</text>
<text text-anchor="middle" x="497.58" y="-595.9" font-family="Times,serif" font-size="14.00">exus10exus.sol</text>
<polyline fill="none" stroke="black" points="88.5,-587.7 906.66,-587.7 "/>
<text text-anchor="start" x="96.5" y="-571.1" font-family="Times,serif" font-size="14.00">Private:</text>
<text text-anchor="start" x="96.5" y="-554.3" font-family="Times,serif" font-size="14.00"> &#160;&#160;addressToModule: mapping(address=&gt;bytes32)</text>
<text text-anchor="start" x="96.5" y="-537.5" font-family="Times,serif" font-size="14.00">Public:</text>
<text text-anchor="start" x="96.5" y="-520.7" font-family="Times,serif" font-size="14.00"> &#160;&#160;UPGRADE_DELAY: uint256</text>
<text text-anchor="start" x="96.5" y="-503.9" font-family="Times,serif" font-size="14.00"> &#160;&#160;modules: mapping(bytes32=&gt;Module)</text>
<text text-anchor="start" x="96.5" y="-487.1" font-family="Times,serif" font-size="14.00"> &#160;&#160;proposedModules: mapping(bytes32=&gt;Proposal)</text>
<text text-anchor="start" x="96.5" y="-470.3" font-family="Times,serif" font-size="14.00"> &#160;&#160;proposedLockModules: mapping(bytes32=&gt;uint256)</text>
<text text-anchor="start" x="96.5" y="-453.5" font-family="Times,serif" font-size="14.00"> &#160;&#160;initialized: bool</text>
<polyline fill="none" stroke="black" points="88.5,-445.3 906.66,-445.3 "/>
<text text-anchor="start" x="96.5" y="-428.7" font-family="Times,serif" font-size="14.00">Private:</text>
<text text-anchor="start" x="96.5" y="-411.9" font-family="Times,serif" font-size="14.00"> &#160;&#160;&#160;_isDelayOver(_timestamp: uint256): bool</text>
<text text-anchor="start" x="96.5" y="-395.1" font-family="Times,serif" font-size="14.00">Internal:</text>
<text text-anchor="start" x="96.5" y="-378.3" font-family="Times,serif" font-size="14.00"> &#160;&#160;&#160;_acceptProposedModule(_key: bytes32)</text>
<text text-anchor="start" x="96.5" y="-361.5" font-family="Times,serif" font-size="14.00"> &#160;&#160;&#160;_publishModule(_key: bytes32, _addr: address, _isLocked: bool)</text>
<text text-anchor="start" x="96.5" y="-344.7" font-family="Times,serif" font-size="14.00">External:</text>
<text text-anchor="start" x="96.5" y="-327.9" font-family="Times,serif" font-size="14.00"> &#160;&#160;&#160;initialize(_keys: bytes32[], _addresses: address[], _isLocked: bool[], _governorAddr: address): bool &lt;&lt;onlyGovernor, whenNotInitialized&gt;&gt;</text>
<text text-anchor="start" x="96.5" y="-311.1" font-family="Times,serif" font-size="14.00"> &#160;&#160;&#160;proposeModule(_key: bytes32, _addr: address) &lt;&lt;onlyGovernor&gt;&gt;</text>
<text text-anchor="start" x="96.5" y="-294.3" font-family="Times,serif" font-size="14.00"> &#160;&#160;&#160;cancelProposedModule(_key: bytes32) &lt;&lt;onlyGovernor&gt;&gt;</text>
<text text-anchor="start" x="96.5" y="-277.5" font-family="Times,serif" font-size="14.00"> &#160;&#160;&#160;acceptProposedModule(_key: bytes32) &lt;&lt;onlyGovernor&gt;&gt;</text>
<text text-anchor="start" x="96.5" y="-260.7" font-family="Times,serif" font-size="14.00"> &#160;&#160;&#160;acceptProposedModules(_keys: bytes32[]) &lt;&lt;onlyGovernor&gt;&gt;</text>
<text text-anchor="start" x="96.5" y="-243.9" font-family="Times,serif" font-size="14.00"> &#160;&#160;&#160;requestLockModule(_key: bytes32) &lt;&lt;onlyGovernor&gt;&gt;</text>
<text text-anchor="start" x="96.5" y="-227.1" font-family="Times,serif" font-size="14.00"> &#160;&#160;&#160;cancelLockModule(_key: bytes32) &lt;&lt;onlyGovernor&gt;&gt;</text>
<text text-anchor="start" x="96.5" y="-210.3" font-family="Times,serif" font-size="14.00"> &#160;&#160;&#160;lockModule(_key: bytes32) &lt;&lt;onlyGovernor&gt;&gt;</text>
<text text-anchor="start" x="96.5" y="-193.5" font-family="Times,serif" font-size="14.00"> &#160;&#160;&#160;getModule(_key: bytes32): (addr: address)</text>
<text text-anchor="start" x="96.5" y="-176.7" font-family="Times,serif" font-size="14.00">Public:</text>
<text text-anchor="start" x="96.5" y="-159.9" font-family="Times,serif" font-size="14.00"> &#160;&#160;&#160;&lt;&lt;event&gt;&gt; ModuleProposed(key: bytes32, addr: address, timestamp: uint256)</text>
<text text-anchor="start" x="96.5" y="-143.1" font-family="Times,serif" font-size="14.00"> &#160;&#160;&#160;&lt;&lt;event&gt;&gt; ModuleAdded(key: bytes32, addr: address, isLocked: bool)</text>
<text text-anchor="start" x="96.5" y="-126.3" font-family="Times,serif" font-size="14.00"> &#160;&#160;&#160;&lt;&lt;event&gt;&gt; ModuleCancelled(key: bytes32)</text>
<text text-anchor="start" x="96.5" y="-109.5" font-family="Times,serif" font-size="14.00"> &#160;&#160;&#160;&lt;&lt;event&gt;&gt; ModuleLockRequested(key: bytes32, timestamp: uint256)</text>
<text text-anchor="start" x="96.5" y="-92.7" font-family="Times,serif" font-size="14.00"> &#160;&#160;&#160;&lt;&lt;event&gt;&gt; ModuleLockEnabled(key: bytes32)</text>
<text text-anchor="start" x="96.5" y="-75.9" font-family="Times,serif" font-size="14.00"> &#160;&#160;&#160;&lt;&lt;event&gt;&gt; ModuleLockCancelled(key: bytes32)</text>
<text text-anchor="start" x="96.5" y="-59.1" font-family="Times,serif" font-size="14.00"> &#160;&#160;&#160;&lt;&lt;modifier&gt;&gt; whenNotInitialized()</text>
<text text-anchor="start" x="96.5" y="-42.3" font-family="Times,serif" font-size="14.00"> &#160;&#160;&#160;constructor(_governorAddr: address)</text>
<text text-anchor="start" x="96.5" y="-25.5" font-family="Times,serif" font-size="14.00"> &#160;&#160;&#160;governor(): address</text>
<text text-anchor="start" x="96.5" y="-8.7" font-family="Times,serif" font-size="14.00"> &#160;&#160;&#160;moduleExists(_key: bytes32): bool</text>
</g>
<!-- 11&#45;&gt;10 -->
<g id="edge1" class="edge">
<title>11&#45;&gt;10</title>
<path fill="none" stroke="black" d="M83.69,-741.73C93.88,-722.09 105.94,-700.56 119.58,-682.6 126.46,-673.53 133.59,-664.5 140.92,-655.53"/>
<polygon fill="black" stroke="black" points="140.99,-655.44 141.73,-648.27 148.63,-646.19 147.9,-653.37 140.99,-655.44"/>
</g>
<!-- 12 -->
<g id="node4" class="node">
<title>12</title>
<polygon fill="#f2f2f2" stroke="black" points="119.29,-741.9 119.29,-858.7 253.87,-858.7 253.87,-741.9 119.29,-741.9"/>
<text text-anchor="middle" x="186.58" y="-842.1" font-family="Times,serif" font-size="14.00">&lt;&lt;Struct&gt;&gt;</text>
<text text-anchor="middle" x="186.58" y="-825.3" font-family="Times,serif" font-size="14.00">Proposal</text>
<text text-anchor="middle" x="186.58" y="-808.5" font-family="Times,serif" font-size="14.00">..contracts</text>
<text text-anchor="middle" x="186.58" y="-791.7" font-family="Times,serif" font-size="14.00">exus12exus.sol</text>
<polyline fill="none" stroke="black" points="119.29,-783.5 253.87,-783.5 "/>
<text text-anchor="start" x="127.29" y="-766.9" font-family="Times,serif" font-size="14.00">newAddress: address</text>
<text text-anchor="start" x="127.29" y="-750.1" font-family="Times,serif" font-size="14.00">timestamp: uint32</text>
</g>
<!-- 12&#45;&gt;10 -->
<g id="edge2" class="edge">
<title>12&#45;&gt;10</title>
<path fill="none" stroke="black" d="M232.58,-741.7C245.31,-722.85 259.02,-701.83 271.58,-682.6 277.14,-674.1 282.77,-665.48 288.46,-656.79"/>
<polygon fill="black" stroke="black" points="288.58,-656.59 288.52,-649.38 295.15,-646.55 295.21,-653.76 288.58,-656.59"/>
</g>
<!-- 10&#45;&gt;1 -->
<g id="edge4" class="edge">
<title>10&#45;&gt;1</title>
<path fill="none" stroke="black" d="M497.58,-646.39C497.58,-655.77 497.58,-664.95 497.58,-673.86"/>
<polygon fill="none" stroke="black" points="487.08,-673.87 497.58,-703.87 508.08,-673.87 487.08,-673.87"/>
</g>
<!-- 10&#45;&gt;9 -->
<g id="edge3" class="edge">
<title>10&#45;&gt;9</title>
<path fill="none" stroke="black" stroke-dasharray="5,2" d="M763.39,-646.39C767.04,-650.81 770.65,-655.19 774.22,-659.51"/>
<polygon fill="none" stroke="black" points="766.29,-666.4 793.48,-682.85 782.49,-653.03 766.29,-666.4"/>
</g>
<!-- 10&#45;&gt;11 -->
<g id="edge5" class="edge">
<title>10&#45;&gt;11</title>
<path fill="none" stroke="black" d="M130.64,-646.19C120.57,-658.23 110.86,-670.39 101.58,-682.6 90.07,-697.76 79.69,-715.45 71.23,-732.4"/>
<polygon fill="black" stroke="black" points="67.92,-731.2 66.73,-741.73 74.23,-734.24 67.92,-731.2"/>
</g>
<!-- 10&#45;&gt;12 -->
<g id="edge6" class="edge">
<title>10&#45;&gt;12</title>
<path fill="none" stroke="black" d="M277.16,-646.55C269.19,-658.72 261.31,-670.77 253.58,-682.6 242.88,-698.97 231.35,-716.65 220.87,-733.18"/>
<polygon fill="black" stroke="black" points="217.87,-731.37 215.5,-741.7 223.79,-735.11 217.87,-731.37"/>
</g>
</g>
</svg>
