<?xml version="1.0" encoding="UTF-8" standalone="no"?>
<!DOCTYPE svg PUBLIC "-//W3C//DTD SVG 1.1//EN"
 "http://www.w3.org/Graphics/SVG/1.1/DTD/svg11.dtd">
<!-- Generated by graphviz version 5.0.0 (20220707.1540)
 -->
<!-- Title: UmlClassDiagram Pages: 1 -->
<svg width="1202pt" height="542pt"
 viewBox="0.00 0.00 1202.28 542.20" xmlns="http://www.w3.org/2000/svg" xmlns:xlink="http://www.w3.org/1999/xlink">
<g id="graph0" class="graph" transform="scale(1 1) rotate(0) translate(4 538.2)">
<title>UmlClassDiagram</title>
<polygon fill="white" stroke="transparent" points="-4,4 -4,-538.2 1198.28,-538.2 1198.28,4 -4,4"/>
<!-- 3 -->
<g id="node1" class="node">
<title>3</title>
<polygon fill="#f2f2f2" stroke="black" points="0,-358.1 0,-508.5 218.54,-508.5 218.54,-358.1 0,-358.1"/>
<text text-anchor="middle" x="109.27" y="-491.9" font-family="Times,serif" font-size="14.00">&lt;&lt;Struct&gt;&gt;</text>
<text text-anchor="middle" x="109.27" y="-475.1" font-family="Times,serif" font-size="14.00">DexSwapData</text>
<text text-anchor="middle" x="109.27" y="-458.3" font-family="Times,serif" font-size="14.00">../contracts/interfaces/IDexSwap.sol</text>
<polyline fill="none" stroke="black" points="0,-450.1 218.54,-450.1 "/>
<text text-anchor="start" x="8" y="-433.5" font-family="Times,serif" font-size="14.00">fromAsset: address</text>
<text text-anchor="start" x="8" y="-416.7" font-family="Times,serif" font-size="14.00">fromAssetAmount: uint256</text>
<text text-anchor="start" x="8" y="-399.9" font-family="Times,serif" font-size="14.00">toAsset: address</text>
<text text-anchor="start" x="8" y="-383.1" font-family="Times,serif" font-size="14.00">minToAssetAmount: uint256</text>
<text text-anchor="start" x="8" y="-366.3" font-family="Times,serif" font-size="14.00">data: bytes</text>
</g>
<!-- 4 -->
<g id="node2" class="node">
<title>4</title>
<polygon fill="#f2f2f2" stroke="black" points="76.07,-195.9 76.07,-295.9 426.47,-295.9 426.47,-195.9 76.07,-195.9"/>
<text text-anchor="middle" x="251.27" y="-279.3" font-family="Times,serif" font-size="14.00">&lt;&lt;Interface&gt;&gt;</text>
<text text-anchor="middle" x="251.27" y="-262.5" font-family="Times,serif" font-size="14.00">IDexSwap</text>
<text text-anchor="middle" x="251.27" y="-245.7" font-family="Times,serif" font-size="14.00">../contracts/interfaces/IDexSwap.sol</text>
<polyline fill="none" stroke="black" points="76.07,-237.5 426.47,-237.5 "/>
<text text-anchor="start" x="84.07" y="-220.9" font-family="Times,serif" font-size="14.00">External:</text>
<text text-anchor="start" x="84.07" y="-204.1" font-family="Times,serif" font-size="14.00"> &#160;&#160;&#160;&#160;swap(_swap: DexSwapData): (toAssetAmount: uint256)</text>
</g>
<!-- 4&#45;&gt;3 -->
<g id="edge1" class="edge">
<title>4&#45;&gt;3</title>
<path fill="none" stroke="black" stroke-dasharray="5,2" d="M213.59,-296.1C200.98,-312.56 186.55,-331.4 172.53,-349.7"/>
<polygon fill="black" stroke="black" points="169.43,-347.99 166.13,-358.06 174.99,-352.25 169.43,-347.99"/>
</g>
<!-- 96 -->
<g id="node3" class="node">
<title>96</title>
<polygon fill="#f2f2f2" stroke="black" points="290.74,-332.9 290.74,-533.7 629.8,-533.7 629.8,-332.9 290.74,-332.9"/>
<text text-anchor="middle" x="460.27" y="-517.1" font-family="Times,serif" font-size="14.00">&lt;&lt;Struct&gt;&gt;</text>
<text text-anchor="middle" x="460.27" y="-500.3" font-family="Times,serif" font-size="14.00">SwapDescription</text>
<text text-anchor="middle" x="460.27" y="-483.5" font-family="Times,serif" font-size="14.00">../contracts/peripheral/OneInch/AggregationRouterV4.sol</text>
<polyline fill="none" stroke="black" points="290.74,-475.3 629.8,-475.3 "/>
<text text-anchor="start" x="298.74" y="-458.7" font-family="Times,serif" font-size="14.00">srcToken: IERC20</text>
<text text-anchor="start" x="298.74" y="-441.9" font-family="Times,serif" font-size="14.00">dstToken: IERC20</text>
<text text-anchor="start" x="298.74" y="-425.1" font-family="Times,serif" font-size="14.00">srcReceiver: address</text>
<text text-anchor="start" x="298.74" y="-408.3" font-family="Times,serif" font-size="14.00">dstReceiver: address</text>
<text text-anchor="start" x="298.74" y="-391.5" font-family="Times,serif" font-size="14.00">amount: uint256</text>
<text text-anchor="start" x="298.74" y="-374.7" font-family="Times,serif" font-size="14.00">minReturnAmount: uint256</text>
<text text-anchor="start" x="298.74" y="-357.9" font-family="Times,serif" font-size="14.00">flags: uint256</text>
<text text-anchor="start" x="298.74" y="-341.1" font-family="Times,serif" font-size="14.00">permit: bytes</text>
</g>
<!-- 97 -->
<g id="node4" class="node">
<title>97</title>
<polygon fill="#f2f2f2" stroke="black" points="839.74,-383.3 839.74,-483.3 1178.8,-483.3 1178.8,-383.3 839.74,-383.3"/>
<text text-anchor="middle" x="1009.27" y="-466.7" font-family="Times,serif" font-size="14.00">&lt;&lt;Interface&gt;&gt;</text>
<text text-anchor="middle" x="1009.27" y="-449.9" font-family="Times,serif" font-size="14.00">IAggregationExecutor</text>
<text text-anchor="middle" x="1009.27" y="-433.1" font-family="Times,serif" font-size="14.00">../contracts/peripheral/OneInch/AggregationRouterV4.sol</text>
<polyline fill="none" stroke="black" points="839.74,-424.9 1178.8,-424.9 "/>
<text text-anchor="start" x="847.74" y="-408.3" font-family="Times,serif" font-size="14.00">External:</text>
<text text-anchor="start" x="847.74" y="-391.5" font-family="Times,serif" font-size="14.00"> &#160;&#160;&#160;&#160;callBytes(msgSender: address, data: bytes)</text>
</g>
<!-- 98 -->
<g id="node5" class="node">
<title>98</title>
<polygon fill="#f2f2f2" stroke="black" points="482.5,-195.9 482.5,-295.9 1166.04,-295.9 1166.04,-195.9 482.5,-195.9"/>
<text text-anchor="middle" x="824.27" y="-279.3" font-family="Times,serif" font-size="14.00">&lt;&lt;Interface&gt;&gt;</text>
<text text-anchor="middle" x="824.27" y="-262.5" font-family="Times,serif" font-size="14.00">IAggregationRouterV4</text>
<text text-anchor="middle" x="824.27" y="-245.7" font-family="Times,serif" font-size="14.00">../contracts/peripheral/OneInch/AggregationRouterV4.sol</text>
<polyline fill="none" stroke="black" points="482.5,-237.5 1166.04,-237.5 "/>
<text text-anchor="start" x="490.5" y="-220.9" font-family="Times,serif" font-size="14.00">External:</text>
<text text-anchor="start" x="490.5" y="-204.1" font-family="Times,serif" font-size="14.00"> &#160;&#160;&#160;&#160;swap(caller: IAggregationExecutor, desc: SwapDescription, data: bytes): (returnAmount: uint256, gasLeft: uint256)</text>
</g>
<!-- 98&#45;&gt;96 -->
<g id="edge3" class="edge">
<title>98&#45;&gt;96</title>
<path fill="none" stroke="black" stroke-dasharray="5,2" d="M727.68,-296.1C700.27,-310.06 669.51,-325.72 638.89,-341.32"/>
<polygon fill="black" stroke="black" points="637.14,-338.28 629.82,-345.94 640.32,-344.52 637.14,-338.28"/>
</g>
<!-- 98&#45;&gt;97 -->
<g id="edge2" class="edge">
<title>98&#45;&gt;97</title>
<path fill="none" stroke="black" stroke-dasharray="5,2" d="M873.36,-296.1C897.82,-320.6 927.51,-350.36 952.89,-375.8"/>
<polygon fill="black" stroke="black" points="950.73,-378.59 960.27,-383.2 955.69,-373.64 950.73,-378.59"/>
</g>
<!-- 183 -->
<g id="node6" class="node">
<title>183</title>
<polygon fill="#f2f2f2" stroke="black" points="77.82,-0.5 77.82,-158.9 424.72,-158.9 424.72,-0.5 77.82,-0.5"/>
<text text-anchor="middle" x="251.27" y="-142.3" font-family="Times,serif" font-size="14.00">OneInchDexSwap</text>
<text text-anchor="middle" x="251.27" y="-125.5" font-family="Times,serif" font-size="14.00">../contracts/vault/swap/OneInchDexSwap.sol</text>
<polyline fill="none" stroke="black" points="77.82,-117.3 424.72,-117.3 "/>
<text text-anchor="start" x="85.82" y="-100.7" font-family="Times,serif" font-size="14.00">Public:</text>
<text text-anchor="start" x="85.82" y="-83.9" font-family="Times,serif" font-size="14.00"> &#160;&#160;router: IAggregationRouterV4</text>
<polyline fill="none" stroke="black" points="77.82,-75.7 424.72,-75.7 "/>
<text text-anchor="start" x="85.82" y="-59.1" font-family="Times,serif" font-size="14.00">External:</text>
<text text-anchor="start" x="85.82" y="-42.3" font-family="Times,serif" font-size="14.00"> &#160;&#160;&#160;swap(_swap: DexSwapData): (toAssetAmount: uint256)</text>
<text text-anchor="start" x="85.82" y="-25.5" font-family="Times,serif" font-size="14.00">Public:</text>
<text text-anchor="start" x="85.82" y="-8.7" font-family="Times,serif" font-size="14.00"> &#160;&#160;&#160;constructor(_router: address)</text>
</g>
<!-- 183&#45;&gt;3 -->
<g id="edge6" class="edge">
<title>183&#45;&gt;3</title>
<path fill="none" stroke="black" stroke-dasharray="5,2" d="M95.77,-158.96C84.57,-169.79 74.76,-181.91 67.27,-195.4 41.43,-241.95 51.74,-300.88 68.6,-348.32"/>
<polygon fill="black" stroke="black" points="65.41,-349.79 72.17,-357.95 71.98,-347.36 65.41,-349.79"/>
</g>
<!-- 183&#45;&gt;4 -->
<g id="edge4" class="edge">
<title>183&#45;&gt;4</title>
<path fill="none" stroke="black" stroke-dasharray="5,2" d="M251.27,-158.95C251.27,-161.21 251.27,-163.47 251.27,-165.73"/>
<polygon fill="none" stroke="black" points="240.77,-165.8 251.27,-195.8 261.77,-165.8 240.77,-165.8"/>
</g>
<!-- 183&#45;&gt;96 -->
<g id="edge8" class="edge">
<title>183&#45;&gt;96</title>
<path fill="none" stroke="black" stroke-dasharray="5,2" d="M404.45,-159.06C416.29,-169.91 426.88,-182 435.27,-195.4 458.68,-232.8 466.92,-280.18 468.57,-322.72"/>
<polygon fill="black" stroke="black" points="465.07,-322.95 468.84,-332.85 472.07,-322.76 465.07,-322.95"/>
</g>
<!-- 183&#45;&gt;97 -->
<g id="edge7" class="edge">
<title>183&#45;&gt;97</title>
<path fill="none" stroke="black" stroke-dasharray="5,2" d="M424.74,-90.02C678.56,-105.44 1126.49,-140.19 1175.27,-195.4 1204.99,-229.04 1194.49,-255.83 1175.27,-296.4 1160.03,-328.57 1133.04,-355.66 1105.19,-376.98"/>
<polygon fill="black" stroke="black" points="1102.86,-374.35 1096.93,-383.12 1107.04,-379.96 1102.86,-374.35"/>
</g>
<!-- 183&#45;&gt;98 -->
<g id="edge5" class="edge">
<title>183&#45;&gt;98</title>
<path fill="none" stroke="black" d="M424.74,-130.41C493.8,-150.2 573.28,-172.98 643.08,-192.98"/>
<polygon fill="black" stroke="black" points="642.29,-196.39 652.87,-195.78 644.22,-189.66 642.29,-196.39"/>
</g>
</g>
</svg>
