<?xml version="1.0" encoding="UTF-8" standalone="no"?>
<!DOCTYPE svg PUBLIC "-//W3C//DTD SVG 1.1//EN"
 "http://www.w3.org/Graphics/SVG/1.1/DTD/svg11.dtd">
<!-- Generated by graphviz version 5.0.0 (20220707.1540)
 -->
<!-- Title: UmlClassDiagram Pages: 1 -->
<svg width="1285pt" height="559pt"
 viewBox="0.00 0.00 1285.23 559.00" xmlns="http://www.w3.org/2000/svg" xmlns:xlink="http://www.w3.org/1999/xlink">
<g id="graph0" class="graph" transform="scale(1 1) rotate(0) translate(4 555)">
<title>UmlClassDiagram</title>
<polygon fill="white" stroke="transparent" points="-4,4 -4,-555 1281.23,-555 1281.23,4 -4,4"/>
<!-- 3 -->
<g id="node1" class="node">
<title>3</title>
<polygon fill="#f2f2f2" stroke="black" points="99.85,-374.9 99.85,-525.3 306.72,-525.3 306.72,-374.9 99.85,-374.9"/>
<text text-anchor="middle" x="203.28" y="-508.7" font-family="Times,serif" font-size="14.00">&lt;&lt;Struct&gt;&gt;</text>
<text text-anchor="middle" x="203.28" y="-491.9" font-family="Times,serif" font-size="14.00">DexSwapData</text>
<text text-anchor="middle" x="203.28" y="-475.1" font-family="Times,serif" font-size="14.00">..contractsinterfacesIDexSwap.sol</text>
<polyline fill="none" stroke="black" points="99.85,-466.9 306.72,-466.9 "/>
<text text-anchor="start" x="107.85" y="-450.3" font-family="Times,serif" font-size="14.00">fromAsset: address</text>
<text text-anchor="start" x="107.85" y="-433.5" font-family="Times,serif" font-size="14.00">fromAssetAmount: uint256</text>
<text text-anchor="start" x="107.85" y="-416.7" font-family="Times,serif" font-size="14.00">toAsset: address</text>
<text text-anchor="start" x="107.85" y="-399.9" font-family="Times,serif" font-size="14.00">minToAssetAmount: uint256</text>
<text text-anchor="start" x="107.85" y="-383.1" font-family="Times,serif" font-size="14.00">data: bytes</text>
</g>
<!-- 4 -->
<g id="node2" class="node">
<title>4</title>
<polygon fill="#f2f2f2" stroke="black" points="159.09,-212.7 159.09,-312.7 509.48,-312.7 509.48,-212.7 159.09,-212.7"/>
<text text-anchor="middle" x="334.28" y="-296.1" font-family="Times,serif" font-size="14.00">&lt;&lt;Interface&gt;&gt;</text>
<text text-anchor="middle" x="334.28" y="-279.3" font-family="Times,serif" font-size="14.00">IDexSwap</text>
<text text-anchor="middle" x="334.28" y="-262.5" font-family="Times,serif" font-size="14.00">..contractsinterfacesIDexSwap.sol</text>
<polyline fill="none" stroke="black" points="159.09,-254.3 509.48,-254.3 "/>
<text text-anchor="start" x="167.09" y="-237.7" font-family="Times,serif" font-size="14.00">External:</text>
<text text-anchor="start" x="167.09" y="-220.9" font-family="Times,serif" font-size="14.00"> &#160;&#160;&#160;&#160;swap(_swap: DexSwapData): (toAssetAmount: uint256)</text>
</g>
<!-- 4&#45;&gt;3 -->
<g id="edge1" class="edge">
<title>4&#45;&gt;3</title>
<path fill="none" stroke="black" stroke-dasharray="5,2" d="M299.52,-312.9C287.89,-329.36 274.58,-348.2 261.65,-366.5"/>
<polygon fill="black" stroke="black" points="258.65,-364.68 255.74,-374.86 264.37,-368.71 258.65,-364.68"/>
</g>
<!-- 46 -->
<g id="node3" class="node">
<title>46</title>
<polygon fill="#f2f2f2" stroke="black" points="385.2,-349.7 385.2,-550.5 713.37,-550.5 713.37,-349.7 385.2,-349.7"/>
<text text-anchor="middle" x="549.28" y="-533.9" font-family="Times,serif" font-size="14.00">&lt;&lt;Struct&gt;&gt;</text>
<text text-anchor="middle" x="549.28" y="-517.1" font-family="Times,serif" font-size="14.00">SwapDescription</text>
<text text-anchor="middle" x="549.28" y="-500.3" font-family="Times,serif" font-size="14.00">..contractsperipheralOneInchIAggregationRouterV4.sol</text>
<polyline fill="none" stroke="black" points="385.2,-492.1 713.37,-492.1 "/>
<text text-anchor="start" x="393.2" y="-475.5" font-family="Times,serif" font-size="14.00">srcToken: IERC20</text>
<text text-anchor="start" x="393.2" y="-458.7" font-family="Times,serif" font-size="14.00">dstToken: IERC20</text>
<text text-anchor="start" x="393.2" y="-441.9" font-family="Times,serif" font-size="14.00">srcReceiver: address</text>
<text text-anchor="start" x="393.2" y="-425.1" font-family="Times,serif" font-size="14.00">dstReceiver: address</text>
<text text-anchor="start" x="393.2" y="-408.3" font-family="Times,serif" font-size="14.00">amount: uint256</text>
<text text-anchor="start" x="393.2" y="-391.5" font-family="Times,serif" font-size="14.00">minReturnAmount: uint256</text>
<text text-anchor="start" x="393.2" y="-374.7" font-family="Times,serif" font-size="14.00">flags: uint256</text>
<text text-anchor="start" x="393.2" y="-357.9" font-family="Times,serif" font-size="14.00">permit: bytes</text>
</g>
<!-- 47 -->
<g id="node4" class="node">
<title>47</title>
<polygon fill="#f2f2f2" stroke="black" points="928.2,-400.1 928.2,-500.1 1256.37,-500.1 1256.37,-400.1 928.2,-400.1"/>
<text text-anchor="middle" x="1092.28" y="-483.5" font-family="Times,serif" font-size="14.00">&lt;&lt;Interface&gt;&gt;</text>
<text text-anchor="middle" x="1092.28" y="-466.7" font-family="Times,serif" font-size="14.00">IAggregationExecutor</text>
<text text-anchor="middle" x="1092.28" y="-449.9" font-family="Times,serif" font-size="14.00">..contractsperipheralOneInchIAggregationRouterV4.sol</text>
<polyline fill="none" stroke="black" points="928.2,-441.7 1256.37,-441.7 "/>
<text text-anchor="start" x="936.2" y="-425.1" font-family="Times,serif" font-size="14.00">External:</text>
<text text-anchor="start" x="936.2" y="-408.3" font-family="Times,serif" font-size="14.00"> &#160;&#160;&#160;&#160;callBytes(msgSender: address, data: bytes)</text>
</g>
<!-- 48 -->
<g id="node5" class="node">
<title>48</title>
<polygon fill="#f2f2f2" stroke="black" points="565.51,-212.7 565.51,-312.7 1249.05,-312.7 1249.05,-212.7 565.51,-212.7"/>
<text text-anchor="middle" x="907.28" y="-296.1" font-family="Times,serif" font-size="14.00">&lt;&lt;Interface&gt;&gt;</text>
<text text-anchor="middle" x="907.28" y="-279.3" font-family="Times,serif" font-size="14.00">IAggregationRouterV4</text>
<text text-anchor="middle" x="907.28" y="-262.5" font-family="Times,serif" font-size="14.00">..contractsperipheralOneInchIAggregationRouterV4.sol</text>
<polyline fill="none" stroke="black" points="565.51,-254.3 1249.05,-254.3 "/>
<text text-anchor="start" x="573.51" y="-237.7" font-family="Times,serif" font-size="14.00">External:</text>
<text text-anchor="start" x="573.51" y="-220.9" font-family="Times,serif" font-size="14.00"> &#160;&#160;&#160;&#160;swap(caller: IAggregationExecutor, desc: SwapDescription, data: bytes): (returnAmount: uint256, gasLeft: uint256)</text>
</g>
<!-- 48&#45;&gt;46 -->
<g id="edge3" class="edge">
<title>48&#45;&gt;46</title>
<path fill="none" stroke="black" stroke-dasharray="5,2" d="M812.29,-312.9C784.66,-327.2 753.59,-343.29 722.74,-359.27"/>
<polygon fill="black" stroke="black" points="720.89,-356.29 713.61,-364 724.1,-362.51 720.89,-356.29"/>
</g>
<!-- 48&#45;&gt;47 -->
<g id="edge2" class="edge">
<title>48&#45;&gt;47</title>
<path fill="none" stroke="black" stroke-dasharray="5,2" d="M956.37,-312.9C980.83,-337.4 1010.52,-367.16 1035.9,-392.6"/>
<polygon fill="black" stroke="black" points="1033.74,-395.39 1043.28,-400 1038.7,-390.44 1033.74,-395.39"/>
</g>
<!-- 76 -->
<g id="node6" class="node">
<title>76</title>
<polygon fill="#f2f2f2" stroke="black" points="0,-0.5 0,-175.7 668.57,-175.7 668.57,-0.5 0,-0.5"/>
<text text-anchor="middle" x="334.28" y="-159.1" font-family="Times,serif" font-size="14.00">OneInchDexSwap</text>
<text text-anchor="middle" x="334.28" y="-142.3" font-family="Times,serif" font-size="14.00">..contractsvaultswapOneInchDexSwap.sol</text>
<polyline fill="none" stroke="black" points="0,-134.1 668.57,-134.1 "/>
<text text-anchor="start" x="8" y="-117.5" font-family="Times,serif" font-size="14.00">Public:</text>
<text text-anchor="start" x="8" y="-100.7" font-family="Times,serif" font-size="14.00"> &#160;&#160;router: IAggregationRouterV4</text>
<polyline fill="none" stroke="black" points="0,-92.5 668.57,-92.5 "/>
<text text-anchor="start" x="8" y="-75.9" font-family="Times,serif" font-size="14.00">External:</text>
<text text-anchor="start" x="8" y="-59.1" font-family="Times,serif" font-size="14.00"> &#160;&#160;&#160;swap(_swap: DexSwapData): (toAssetAmount: uint256)</text>
<text text-anchor="start" x="8" y="-42.3" font-family="Times,serif" font-size="14.00">Public:</text>
<text text-anchor="start" x="8" y="-25.5" font-family="Times,serif" font-size="14.00"> &#160;&#160;&#160;&lt;&lt;event&gt;&gt; Swapped(fromAsset: address, toAsset: address, fromAssetAmount: uint256, toAssetAmount: uint256)</text>
<text text-anchor="start" x="8" y="-8.7" font-family="Times,serif" font-size="14.00"> &#160;&#160;&#160;constructor(_router: address)</text>
</g>
<!-- 76&#45;&gt;3 -->
<g id="edge6" class="edge">
<title>76&#45;&gt;3</title>
<path fill="none" stroke="black" stroke-dasharray="5,2" d="M177.02,-176C166.53,-186.93 157.34,-198.98 150.28,-212.2 125.01,-259.51 137.97,-318.33 157.38,-365.52"/>
<polygon fill="black" stroke="black" points="154.2,-366.98 161.34,-374.8 160.64,-364.23 154.2,-366.98"/>
</g>
<!-- 76&#45;&gt;4 -->
<g id="edge4" class="edge">
<title>76&#45;&gt;4</title>
<path fill="none" stroke="black" stroke-dasharray="5,2" d="M334.28,-175.91C334.28,-178.07 334.28,-180.23 334.28,-182.39"/>
<polygon fill="none" stroke="black" points="323.78,-182.57 334.28,-212.57 344.78,-182.57 323.78,-182.57"/>
</g>
<!-- 76&#45;&gt;46 -->
<g id="edge8" class="edge">
<title>76&#45;&gt;46</title>
<path fill="none" stroke="black" stroke-dasharray="5,2" d="M488.47,-175.82C499.85,-186.85 510.07,-198.98 518.28,-212.2 541.58,-249.72 550.86,-297 553.75,-339.44"/>
<polygon fill="black" stroke="black" points="550.26,-339.76 554.33,-349.55 557.25,-339.36 550.26,-339.76"/>
</g>
<!-- 76&#45;&gt;47 -->
<g id="edge7" class="edge">
<title>76&#45;&gt;47</title>
<path fill="none" stroke="black" stroke-dasharray="5,2" d="M668.77,-112.37C916.94,-133.13 1218.89,-167.21 1258.28,-212.2 1287.85,-245.97 1277.5,-272.63 1258.28,-313.2 1243.04,-345.37 1216.05,-372.46 1188.2,-393.78"/>
<polygon fill="black" stroke="black" points="1185.87,-391.15 1179.94,-399.92 1190.05,-396.76 1185.87,-391.15"/>
</g>
<!-- 76&#45;&gt;48 -->
<g id="edge5" class="edge">
<title>76&#45;&gt;48</title>
<path fill="none" stroke="black" d="M622.04,-175.78C660.42,-187.34 698.76,-198.89 734.33,-209.6"/>
<polygon fill="black" stroke="black" points="733.69,-213.07 744.28,-212.6 735.71,-206.36 733.69,-213.07"/>
</g>
</g>
</svg>
