<?xml version="1.0" encoding="UTF-8" standalone="no"?>
<!DOCTYPE svg PUBLIC "-//W3C//DTD SVG 1.1//EN"
 "http://www.w3.org/Graphics/SVG/1.1/DTD/svg11.dtd">
<!-- Generated by graphviz version 5.0.0 (20220707.1540)
 -->
<!-- Title: UmlClassDiagram Pages: 1 -->
<svg width="1285pt" height="559pt"
 viewBox="0.00 0.00 1285.23 559.00" xmlns="http://www.w3.org/2000/svg" xmlns:xlink="http://www.w3.org/1999/xlink">
<g id="graph0" class="graph" transform="scale(1 1) rotate(0) translate(4 555)">
<title>UmlClassDiagram</title>
<polygon fill="white" stroke="transparent" points="-4,4 -4,-555 1281.23,-555 1281.23,4 -4,4"/>
<!-- 3 -->
<g id="node1" class="node">
<title>3</title>
<polygon fill="#f2f2f2" stroke="black" points="80.01,-374.9 80.01,-525.3 298.55,-525.3 298.55,-374.9 80.01,-374.9"/>
<text text-anchor="middle" x="189.28" y="-508.7" font-family="Times,serif" font-size="14.00">&lt;&lt;Struct&gt;&gt;</text>
<text text-anchor="middle" x="189.28" y="-491.9" font-family="Times,serif" font-size="14.00">DexSwapData</text>
<text text-anchor="middle" x="189.28" y="-475.1" font-family="Times,serif" font-size="14.00">../contracts/interfaces/IDexSwap.sol</text>
<polyline fill="none" stroke="black" points="80.01,-466.9 298.55,-466.9 "/>
<text text-anchor="start" x="88.01" y="-450.3" font-family="Times,serif" font-size="14.00">fromAsset: address</text>
<text text-anchor="start" x="88.01" y="-433.5" font-family="Times,serif" font-size="14.00">fromAssetAmount: uint256</text>
<text text-anchor="start" x="88.01" y="-416.7" font-family="Times,serif" font-size="14.00">toAsset: address</text>
<text text-anchor="start" x="88.01" y="-399.9" font-family="Times,serif" font-size="14.00">minToAssetAmount: uint256</text>
<text text-anchor="start" x="88.01" y="-383.1" font-family="Times,serif" font-size="14.00">data: bytes</text>
</g>
<!-- 4 -->
<g id="node2" class="node">
<title>4</title>
<polygon fill="#f2f2f2" stroke="black" points="159.09,-212.7 159.09,-312.7 509.48,-312.7 509.48,-212.7 159.09,-212.7"/>
<text text-anchor="middle" x="334.28" y="-296.1" font-family="Times,serif" font-size="14.00">&lt;&lt;Interface&gt;&gt;</text>
<text text-anchor="middle" x="334.28" y="-279.3" font-family="Times,serif" font-size="14.00">IDexSwap</text>
<text text-anchor="middle" x="334.28" y="-262.5" font-family="Times,serif" font-size="14.00">../contracts/interfaces/IDexSwap.sol</text>
<polyline fill="none" stroke="black" points="159.09,-254.3 509.48,-254.3 "/>
<text text-anchor="start" x="167.09" y="-237.7" font-family="Times,serif" font-size="14.00">External:</text>
<text text-anchor="start" x="167.09" y="-220.9" font-family="Times,serif" font-size="14.00"> &#160;&#160;&#160;&#160;swap(_swap: DexSwapData): (toAssetAmount: uint256)</text>
</g>
<!-- 4&#45;&gt;3 -->
<g id="edge1" class="edge">
<title>4&#45;&gt;3</title>
<path fill="none" stroke="black" stroke-dasharray="5,2" d="M295.81,-312.9C282.93,-329.36 268.2,-348.2 253.88,-366.5"/>
<polygon fill="black" stroke="black" points="250.75,-364.83 247.34,-374.86 256.26,-369.14 250.75,-364.83"/>
</g>
<!-- 53 -->
<g id="node3" class="node">
<title>53</title>
<polygon fill="#f2f2f2" stroke="black" points="369.42,-349.7 369.42,-550.5 713.15,-550.5 713.15,-349.7 369.42,-349.7"/>
<text text-anchor="middle" x="541.28" y="-533.9" font-family="Times,serif" font-size="14.00">&lt;&lt;Struct&gt;&gt;</text>
<text text-anchor="middle" x="541.28" y="-517.1" font-family="Times,serif" font-size="14.00">SwapDescription</text>
<text text-anchor="middle" x="541.28" y="-500.3" font-family="Times,serif" font-size="14.00">../contracts/peripheral/OneInch/IAggregationRouterV4.sol</text>
<polyline fill="none" stroke="black" points="369.42,-492.1 713.15,-492.1 "/>
<text text-anchor="start" x="377.42" y="-475.5" font-family="Times,serif" font-size="14.00">srcToken: IERC20</text>
<text text-anchor="start" x="377.42" y="-458.7" font-family="Times,serif" font-size="14.00">dstToken: IERC20</text>
<text text-anchor="start" x="377.42" y="-441.9" font-family="Times,serif" font-size="14.00">srcReceiver: address</text>
<text text-anchor="start" x="377.42" y="-425.1" font-family="Times,serif" font-size="14.00">dstReceiver: address</text>
<text text-anchor="start" x="377.42" y="-408.3" font-family="Times,serif" font-size="14.00">amount: uint256</text>
<text text-anchor="start" x="377.42" y="-391.5" font-family="Times,serif" font-size="14.00">minReturnAmount: uint256</text>
<text text-anchor="start" x="377.42" y="-374.7" font-family="Times,serif" font-size="14.00">flags: uint256</text>
<text text-anchor="start" x="377.42" y="-357.9" font-family="Times,serif" font-size="14.00">permit: bytes</text>
</g>
<!-- 54 -->
<g id="node4" class="node">
<title>54</title>
<polygon fill="#f2f2f2" stroke="black" points="920.42,-400.1 920.42,-500.1 1264.15,-500.1 1264.15,-400.1 920.42,-400.1"/>
<text text-anchor="middle" x="1092.28" y="-483.5" font-family="Times,serif" font-size="14.00">&lt;&lt;Interface&gt;&gt;</text>
<text text-anchor="middle" x="1092.28" y="-466.7" font-family="Times,serif" font-size="14.00">IAggregationExecutor</text>
<text text-anchor="middle" x="1092.28" y="-449.9" font-family="Times,serif" font-size="14.00">../contracts/peripheral/OneInch/IAggregationRouterV4.sol</text>
<polyline fill="none" stroke="black" points="920.42,-441.7 1264.15,-441.7 "/>
<text text-anchor="start" x="928.42" y="-425.1" font-family="Times,serif" font-size="14.00">External:</text>
<text text-anchor="start" x="928.42" y="-408.3" font-family="Times,serif" font-size="14.00"> &#160;&#160;&#160;&#160;callBytes(msgSender: address, data: bytes)</text>
</g>
<!-- 55 -->
<g id="node5" class="node">
<title>55</title>
<polygon fill="#f2f2f2" stroke="black" points="565.51,-212.7 565.51,-312.7 1249.05,-312.7 1249.05,-212.7 565.51,-212.7"/>
<text text-anchor="middle" x="907.28" y="-296.1" font-family="Times,serif" font-size="14.00">&lt;&lt;Interface&gt;&gt;</text>
<text text-anchor="middle" x="907.28" y="-279.3" font-family="Times,serif" font-size="14.00">IAggregationRouterV4</text>
<text text-anchor="middle" x="907.28" y="-262.5" font-family="Times,serif" font-size="14.00">../contracts/peripheral/OneInch/IAggregationRouterV4.sol</text>
<polyline fill="none" stroke="black" points="565.51,-254.3 1249.05,-254.3 "/>
<text text-anchor="start" x="573.51" y="-237.7" font-family="Times,serif" font-size="14.00">External:</text>
<text text-anchor="start" x="573.51" y="-220.9" font-family="Times,serif" font-size="14.00"> &#160;&#160;&#160;&#160;swap(caller: IAggregationExecutor, desc: SwapDescription, data: bytes): (returnAmount: uint256, gasLeft: uint256)</text>
</g>
<!-- 55&#45;&gt;53 -->
<g id="edge3" class="edge">
<title>55&#45;&gt;53</title>
<path fill="none" stroke="black" stroke-dasharray="5,2" d="M810.16,-312.9C782.98,-326.66 752.54,-342.09 722.17,-357.47"/>
<polygon fill="black" stroke="black" points="720.52,-354.38 713.18,-362.02 723.69,-360.63 720.52,-354.38"/>
</g>
<!-- 55&#45;&gt;54 -->
<g id="edge2" class="edge">
<title>55&#45;&gt;54</title>
<path fill="none" stroke="black" stroke-dasharray="5,2" d="M956.37,-312.9C980.83,-337.4 1010.52,-367.16 1035.9,-392.6"/>
<polygon fill="black" stroke="black" points="1033.74,-395.39 1043.28,-400 1038.7,-390.44 1033.74,-395.39"/>
</g>
<!-- 83 -->
<g id="node6" class="node">
<title>83</title>
<polygon fill="#f2f2f2" stroke="black" points="0,-0.5 0,-175.7 668.57,-175.7 668.57,-0.5 0,-0.5"/>
<text text-anchor="middle" x="334.28" y="-159.1" font-family="Times,serif" font-size="14.00">OneInchDexSwap</text>
<text text-anchor="middle" x="334.28" y="-142.3" font-family="Times,serif" font-size="14.00">../contracts/vault/swap/OneInchDexSwap.sol</text>
<polyline fill="none" stroke="black" points="0,-134.1 668.57,-134.1 "/>
<text text-anchor="start" x="8" y="-117.5" font-family="Times,serif" font-size="14.00">Public:</text>
<text text-anchor="start" x="8" y="-100.7" font-family="Times,serif" font-size="14.00"> &#160;&#160;router: IAggregationRouterV4</text>
<polyline fill="none" stroke="black" points="0,-92.5 668.57,-92.5 "/>
<text text-anchor="start" x="8" y="-75.9" font-family="Times,serif" font-size="14.00">External:</text>
<text text-anchor="start" x="8" y="-59.1" font-family="Times,serif" font-size="14.00"> &#160;&#160;&#160;swap(_swap: DexSwapData): (toAssetAmount: uint256)</text>
<text text-anchor="start" x="8" y="-42.3" font-family="Times,serif" font-size="14.00">Public:</text>
<text text-anchor="start" x="8" y="-25.5" font-family="Times,serif" font-size="14.00"> &#160;&#160;&#160;&lt;&lt;event&gt;&gt; Swapped(fromAsset: address, toAsset: address, fromAssetAmount: uint256, toAssetAmount: uint256)</text>
<text text-anchor="start" x="8" y="-8.7" font-family="Times,serif" font-size="14.00"> &#160;&#160;&#160;constructor(_router: address)</text>
</g>
<!-- 83&#45;&gt;3 -->
<g id="edge6" class="edge">
<title>83&#45;&gt;3</title>
<path fill="none" stroke="black" stroke-dasharray="5,2" d="M177.02,-176C166.53,-186.93 157.34,-198.98 150.28,-212.2 125.3,-258.98 134.78,-317.78 150.64,-365.09"/>
<polygon fill="black" stroke="black" points="147.4,-366.42 154,-374.7 154.01,-364.11 147.4,-366.42"/>
</g>
<!-- 83&#45;&gt;4 -->
<g id="edge4" class="edge">
<title>83&#45;&gt;4</title>
<path fill="none" stroke="black" stroke-dasharray="5,2" d="M334.28,-175.91C334.28,-178.07 334.28,-180.23 334.28,-182.39"/>
<polygon fill="none" stroke="black" points="323.78,-182.57 334.28,-212.57 344.78,-182.57 323.78,-182.57"/>
</g>
<!-- 83&#45;&gt;53 -->
<g id="edge8" class="edge">
<title>83&#45;&gt;53</title>
<path fill="none" stroke="black" stroke-dasharray="5,2" d="M489.36,-175.94C500.48,-186.93 510.39,-199.01 518.28,-212.2 540.81,-249.87 548.61,-297.08 550.01,-339.41"/>
<polygon fill="black" stroke="black" points="546.51,-339.57 550.23,-349.49 553.51,-339.42 546.51,-339.57"/>
</g>
<!-- 83&#45;&gt;54 -->
<g id="edge7" class="edge">
<title>83&#45;&gt;54</title>
<path fill="none" stroke="black" stroke-dasharray="5,2" d="M668.77,-112.37C916.94,-133.13 1218.89,-167.21 1258.28,-212.2 1287.85,-245.97 1277.5,-272.63 1258.28,-313.2 1243.04,-345.37 1216.05,-372.46 1188.2,-393.78"/>
<polygon fill="black" stroke="black" points="1185.87,-391.15 1179.94,-399.92 1190.05,-396.76 1185.87,-391.15"/>
</g>
<!-- 83&#45;&gt;55 -->
<g id="edge5" class="edge">
<title>83&#45;&gt;55</title>
<path fill="none" stroke="black" d="M622.04,-175.78C660.42,-187.34 698.76,-198.89 734.33,-209.6"/>
<polygon fill="black" stroke="black" points="733.69,-213.07 744.28,-212.6 735.71,-206.36 733.69,-213.07"/>
</g>
</g>
</svg>
