<?xml version="1.0" encoding="UTF-8" standalone="no"?>
<!DOCTYPE svg PUBLIC "-//W3C//DTD SVG 1.1//EN"
 "http://www.w3.org/Graphics/SVG/1.1/DTD/svg11.dtd">
<!-- Generated by graphviz version 5.0.0 (20220707.1540)
 -->
<!-- Title: UmlClassDiagram Pages: 1 -->
<svg width="1368pt" height="640pt"
 viewBox="0.00 0.00 1367.61 639.80" xmlns="http://www.w3.org/2000/svg" xmlns:xlink="http://www.w3.org/1999/xlink">
<g id="graph0" class="graph" transform="scale(1 1) rotate(0) translate(4 635.8)">
<title>UmlClassDiagram</title>
<polygon fill="white" stroke="transparent" points="-4,4 -4,-635.8 1363.61,-635.8 1363.61,4 -4,4"/>
<!-- 17 -->
<g id="node1" class="node">
<title>17</title>
<polygon fill="#f2f2f2" stroke="black" points="0,-477.5 0,-535.9 245.78,-535.9 245.78,-477.5 0,-477.5"/>
<text text-anchor="middle" x="122.89" y="-519.3" font-family="Times,serif" font-size="14.00">&lt;&lt;Abstract&gt;&gt;</text>
<text text-anchor="middle" x="122.89" y="-502.5" font-family="Times,serif" font-size="14.00">ImmutableModule</text>
<text text-anchor="middle" x="122.89" y="-485.7" font-family="Times,serif" font-size="14.00">../contracts/shared/ImmutableModule.sol</text>
</g>
<!-- 19 -->
<g id="node2" class="node">
<title>19</title>
<polygon fill="#f2f2f2" stroke="black" points="15.94,-581.3 15.94,-622.9 229.84,-622.9 229.84,-581.3 15.94,-581.3"/>
<text text-anchor="middle" x="122.89" y="-606.3" font-family="Times,serif" font-size="14.00">ModuleKeys</text>
<text text-anchor="middle" x="122.89" y="-589.5" font-family="Times,serif" font-size="14.00">../contracts/shared/ModuleKeys.sol</text>
</g>
<!-- 17&#45;&gt;19 -->
<g id="edge1" class="edge">
<title>17&#45;&gt;19</title>
<path fill="none" stroke="black" d="M122.89,-535.98C122.89,-540.77 122.89,-545.87 122.89,-551.02"/>
<polygon fill="none" stroke="black" points="112.39,-551.21 122.89,-581.21 133.39,-551.21 112.39,-551.21"/>
</g>
<!-- 24 -->
<g id="node3" class="node">
<title>24</title>
<polygon fill="#f2f2f2" stroke="black" points="327.45,-382.1 327.45,-440.5 576.32,-440.5 576.32,-382.1 327.45,-382.1"/>
<text text-anchor="middle" x="451.89" y="-423.9" font-family="Times,serif" font-size="14.00">&lt;&lt;Abstract&gt;&gt;</text>
<text text-anchor="middle" x="451.89" y="-407.1" font-family="Times,serif" font-size="14.00">VaultManagerRole</text>
<text text-anchor="middle" x="451.89" y="-390.3" font-family="Times,serif" font-size="14.00">../contracts/shared/VaultManagerRole.sol</text>
</g>
<!-- 24&#45;&gt;17 -->
<g id="edge3" class="edge">
<title>24&#45;&gt;17</title>
<path fill="none" stroke="black" d="M352.28,-440.58C320.55,-449.59 284.98,-459.68 251.49,-469.19"/>
<polygon fill="none" stroke="black" points="248.43,-459.15 222.44,-477.44 254.16,-479.35 248.43,-459.15"/>
</g>
<!-- 274 -->
<g id="node10" class="node">
<title>274</title>
<polygon fill="#f2f2f2" stroke="black" points="263.85,-477.5 263.85,-535.9 639.93,-535.9 639.93,-477.5 263.85,-477.5"/>
<text text-anchor="middle" x="451.89" y="-519.3" font-family="Times,serif" font-size="14.00">&lt;&lt;Abstract&gt;&gt;</text>
<text text-anchor="middle" x="451.89" y="-502.5" font-family="Times,serif" font-size="14.00">Pausable</text>
<text text-anchor="middle" x="451.89" y="-485.7" font-family="Times,serif" font-size="14.00">../node_modules/@openzeppelin/contracts/security/Pausable.sol</text>
</g>
<!-- 24&#45;&gt;274 -->
<g id="edge2" class="edge">
<title>24&#45;&gt;274</title>
<path fill="none" stroke="black" d="M451.89,-440.58C451.89,-442.66 451.89,-444.8 451.89,-446.98"/>
<polygon fill="none" stroke="black" points="441.39,-447.2 451.89,-477.2 462.39,-447.2 441.39,-447.2"/>
</g>
<!-- 26 -->
<g id="node4" class="node">
<title>26</title>
<polygon fill="#f2f2f2" stroke="black" points="677.78,-382.1 677.78,-440.5 921.99,-440.5 921.99,-382.1 677.78,-382.1"/>
<text text-anchor="middle" x="799.89" y="-423.9" font-family="Times,serif" font-size="14.00">&lt;&lt;Abstract&gt;&gt;</text>
<text text-anchor="middle" x="799.89" y="-407.1" font-family="Times,serif" font-size="14.00">InitializableToken</text>
<text text-anchor="middle" x="799.89" y="-390.3" font-family="Times,serif" font-size="14.00">../contracts/tokens/InitializableToken.sol</text>
</g>
<!-- 27 -->
<g id="node5" class="node">
<title>27</title>
<polygon fill="#f2f2f2" stroke="black" points="657.96,-477.5 657.96,-535.9 941.82,-535.9 941.82,-477.5 657.96,-477.5"/>
<text text-anchor="middle" x="799.89" y="-519.3" font-family="Times,serif" font-size="14.00">&lt;&lt;Abstract&gt;&gt;</text>
<text text-anchor="middle" x="799.89" y="-502.5" font-family="Times,serif" font-size="14.00">InitializableTokenDetails</text>
<text text-anchor="middle" x="799.89" y="-485.7" font-family="Times,serif" font-size="14.00">../contracts/tokens/InitializableTokenDetails.sol</text>
</g>
<!-- 26&#45;&gt;27 -->
<g id="edge5" class="edge">
<title>26&#45;&gt;27</title>
<path fill="none" stroke="black" d="M799.89,-440.58C799.89,-442.66 799.89,-444.8 799.89,-446.98"/>
<polygon fill="none" stroke="black" points="789.39,-447.2 799.89,-477.2 810.39,-447.2 789.39,-447.2"/>
</g>
<!-- 422 -->
<g id="node11" class="node">
<title>422</title>
<polygon fill="#f2f2f2" stroke="black" points="960.16,-485.9 960.16,-527.5 1359.61,-527.5 1359.61,-485.9 960.16,-485.9"/>
<text text-anchor="middle" x="1159.89" y="-510.9" font-family="Times,serif" font-size="14.00">ERC20</text>
<text text-anchor="middle" x="1159.89" y="-494.1" font-family="Times,serif" font-size="14.00">../node_modules/@openzeppelin/contracts/token/ERC20/ERC20.sol</text>
</g>
<!-- 26&#45;&gt;422 -->
<g id="edge4" class="edge">
<title>26&#45;&gt;422</title>
<path fill="none" stroke="black" d="M908.88,-440.58C955.03,-452.55 1008.59,-466.45 1054.36,-478.32"/>
<polygon fill="none" stroke="black" points="1051.84,-488.52 1083.52,-485.89 1057.12,-468.19 1051.84,-488.52"/>
</g>
<!-- 40 -->
<g id="node6" class="node">
<title>40</title>
<polygon fill="#f2f2f2" stroke="black" points="520.11,-286.7 520.11,-345.1 731.67,-345.1 731.67,-286.7 520.11,-286.7"/>
<text text-anchor="middle" x="625.89" y="-328.5" font-family="Times,serif" font-size="14.00">&lt;&lt;Abstract&gt;&gt;</text>
<text text-anchor="middle" x="625.89" y="-311.7" font-family="Times,serif" font-size="14.00">AbstractVault</text>
<text text-anchor="middle" x="625.89" y="-294.9" font-family="Times,serif" font-size="14.00">../contracts/vault/AbstractVault.sol</text>
</g>
<!-- 40&#45;&gt;24 -->
<g id="edge7" class="edge">
<title>40&#45;&gt;24</title>
<path fill="none" stroke="black" d="M573.21,-345.18C559.98,-352.28 545.5,-360.05 531.28,-367.68"/>
<polygon fill="none" stroke="black" points="526.15,-358.52 504.69,-381.96 536.09,-377.02 526.15,-358.52"/>
</g>
<!-- 40&#45;&gt;26 -->
<g id="edge6" class="edge">
<title>40&#45;&gt;26</title>
<path fill="none" stroke="black" d="M678.57,-345.18C691.79,-352.28 706.28,-360.05 720.49,-367.68"/>
<polygon fill="none" stroke="black" points="715.69,-377.02 747.09,-381.96 725.62,-358.52 715.69,-377.02"/>
</g>
<!-- 141 -->
<g id="node7" class="node">
<title>141</title>
<polygon fill="#f2f2f2" stroke="black" points="480.07,-191.3 480.07,-249.7 771.71,-249.7 771.71,-191.3 480.07,-191.3"/>
<text text-anchor="middle" x="625.89" y="-233.1" font-family="Times,serif" font-size="14.00">&lt;&lt;Abstract&gt;&gt;</text>
<text text-anchor="middle" x="625.89" y="-216.3" font-family="Times,serif" font-size="14.00">FeeAdminAbstractVault</text>
<text text-anchor="middle" x="625.89" y="-199.5" font-family="Times,serif" font-size="14.00">../contracts/vault/fee/FeeAdminAbstractVault.sol</text>
</g>
<!-- 141&#45;&gt;40 -->
<g id="edge8" class="edge">
<title>141&#45;&gt;40</title>
<path fill="none" stroke="black" d="M625.89,-249.78C625.89,-251.86 625.89,-254 625.89,-256.18"/>
<polygon fill="none" stroke="black" points="615.39,-256.4 625.89,-286.4 636.39,-256.4 615.39,-256.4"/>
</g>
<!-- 145 -->
<g id="node8" class="node">
<title>145</title>
<polygon fill="#f2f2f2" stroke="black" points="487.85,-95.9 487.85,-154.3 763.93,-154.3 763.93,-95.9 487.85,-95.9"/>
<text text-anchor="middle" x="625.89" y="-137.7" font-family="Times,serif" font-size="14.00">&lt;&lt;Abstract&gt;&gt;</text>
<text text-anchor="middle" x="625.89" y="-120.9" font-family="Times,serif" font-size="14.00">PerfFeeAbstractVault</text>
<text text-anchor="middle" x="625.89" y="-104.1" font-family="Times,serif" font-size="14.00">../contracts/vault/fee/PerfFeeAbstractVault.sol</text>
</g>
<!-- 145&#45;&gt;141 -->
<g id="edge9" class="edge">
<title>145&#45;&gt;141</title>
<path fill="none" stroke="black" d="M625.89,-154.38C625.89,-156.46 625.89,-158.6 625.89,-160.78"/>
<polygon fill="none" stroke="black" points="615.39,-161 625.89,-191 636.39,-161 615.39,-161"/>
</g>
<!-- 147 -->
<g id="node9" class="node">
<title>147</title>
<polygon fill="#f2f2f2" stroke="black" points="461.02,-0.5 461.02,-58.9 790.76,-58.9 790.76,-0.5 461.02,-0.5"/>
<text text-anchor="middle" x="625.89" y="-42.3" font-family="Times,serif" font-size="14.00">&lt;&lt;Abstract&gt;&gt;</text>
<text text-anchor="middle" x="625.89" y="-25.5" font-family="Times,serif" font-size="14.00">PerfFeeVolatilityAbstractVault</text>
<text text-anchor="middle" x="625.89" y="-8.7" font-family="Times,serif" font-size="14.00">../contracts/vault/fee/PerfFeeVolatilityAbstractVault.sol</text>
</g>
<!-- 147&#45;&gt;145 -->
<g id="edge10" class="edge">
<title>147&#45;&gt;145</title>
<path fill="none" stroke="black" d="M625.89,-58.98C625.89,-61.06 625.89,-63.2 625.89,-65.38"/>
<polygon fill="none" stroke="black" points="615.39,-65.6 625.89,-95.6 636.39,-65.6 615.39,-65.6"/>
</g>
<!-- 283 -->
<g id="node12" class="node">
<title>283</title>
<polygon fill="#f2f2f2" stroke="black" points="630.66,-572.9 630.66,-631.3 981.11,-631.3 981.11,-572.9 630.66,-572.9"/>
<text text-anchor="middle" x="805.89" y="-614.7" font-family="Times,serif" font-size="14.00">&lt;&lt;Abstract&gt;&gt;</text>
<text text-anchor="middle" x="805.89" y="-597.9" font-family="Times,serif" font-size="14.00">Context</text>
<text text-anchor="middle" x="805.89" y="-581.1" font-family="Times,serif" font-size="14.00">../node_modules/@openzeppelin/contracts/utils/Context.sol</text>
</g>
<!-- 274&#45;&gt;283 -->
<g id="edge11" class="edge">
<title>274&#45;&gt;283</title>
<path fill="none" stroke="black" d="M559.06,-535.98C593.9,-545.17 633.04,-555.49 669.7,-565.17"/>
<polygon fill="none" stroke="black" points="667.09,-575.34 698.78,-572.84 672.45,-555.03 667.09,-575.34"/>
</g>
<!-- 422&#45;&gt;283 -->
<g id="edge12" class="edge">
<title>422&#45;&gt;283</title>
<path fill="none" stroke="black" d="M1084.81,-527.51C1043.37,-538.44 990.62,-552.36 942.17,-565.14"/>
<polygon fill="none" stroke="black" points="939.42,-555.01 913.09,-572.82 944.78,-575.31 939.42,-555.01"/>
</g>
</g>
</svg>
