<?xml version="1.0" encoding="UTF-8" standalone="no"?>
<!DOCTYPE svg PUBLIC "-//W3C//DTD SVG 1.1//EN"
 "http://www.w3.org/Graphics/SVG/1.1/DTD/svg11.dtd">
<!-- Generated by graphviz version 5.0.0 (20220707.1540)
 -->
<!-- Title: UmlClassDiagram Pages: 1 -->
<svg width="1256pt" height="578pt"
 viewBox="0.00 0.00 1255.56 578.00" xmlns="http://www.w3.org/2000/svg" xmlns:xlink="http://www.w3.org/1999/xlink">
<g id="graph0" class="graph" transform="scale(1 1) rotate(0) translate(4 574)">
<title>UmlClassDiagram</title>
<polygon fill="white" stroke="transparent" points="-4,4 -4,-574 1251.56,-574 1251.56,4 -4,4"/>
<!-- 13 -->
<g id="node1" class="node">
<title>13</title>
<polygon fill="#f2f2f2" stroke="black" points="0,-390.5 0,-448.9 234.11,-448.9 234.11,-390.5 0,-390.5"/>
<text text-anchor="middle" x="117.05" y="-432.3" font-family="Times,serif" font-size="14.00">&lt;&lt;Abstract&gt;&gt;</text>
<text text-anchor="middle" x="117.05" y="-415.5" font-family="Times,serif" font-size="14.00">ImmutableModule</text>
<text text-anchor="middle" x="117.05" y="-398.7" font-family="Times,serif" font-size="14.00">..contractssharedImmutableModule.sol</text>
</g>
<!-- 15 -->
<g id="node2" class="node">
<title>15</title>
<polygon fill="#f2f2f2" stroke="black" points="15.94,-511.1 15.94,-552.7 218.17,-552.7 218.17,-511.1 15.94,-511.1"/>
<text text-anchor="middle" x="117.05" y="-536.1" font-family="Times,serif" font-size="14.00">ModuleKeys</text>
<text text-anchor="middle" x="117.05" y="-519.3" font-family="Times,serif" font-size="14.00">..contractssharedModuleKeys.sol</text>
</g>
<!-- 13&#45;&gt;15 -->
<g id="edge1" class="edge">
<title>13&#45;&gt;15</title>
<path fill="none" stroke="black" d="M117.05,-449.08C117.05,-458.77 117.05,-469.92 117.05,-480.81"/>
<polygon fill="none" stroke="black" points="106.55,-480.96 117.05,-510.96 127.55,-480.96 106.55,-480.96"/>
</g>
<!-- 17 -->
<g id="node3" class="node">
<title>17</title>
<polygon fill="#f2f2f2" stroke="black" points="304.45,-286.7 304.45,-345.1 541.66,-345.1 541.66,-286.7 304.45,-286.7"/>
<text text-anchor="middle" x="423.05" y="-328.5" font-family="Times,serif" font-size="14.00">&lt;&lt;Abstract&gt;&gt;</text>
<text text-anchor="middle" x="423.05" y="-311.7" font-family="Times,serif" font-size="14.00">VaultManagerRole</text>
<text text-anchor="middle" x="423.05" y="-294.9" font-family="Times,serif" font-size="14.00">..contractssharedVaultManagerRole.sol</text>
</g>
<!-- 17&#45;&gt;13 -->
<g id="edge3" class="edge">
<title>17&#45;&gt;13</title>
<path fill="none" stroke="black" d="M338.22,-345.12C304.98,-356.18 266.33,-369.04 230.73,-380.88"/>
<polygon fill="none" stroke="black" points="227.2,-370.99 202.05,-390.42 233.83,-390.92 227.2,-370.99"/>
</g>
<!-- 157 -->
<g id="node9" class="node">
<title>157</title>
<polygon fill="#f2f2f2" stroke="black" points="251.74,-382.1 251.74,-457.3 594.37,-457.3 594.37,-382.1 251.74,-382.1"/>
<text text-anchor="middle" x="423.05" y="-440.7" font-family="Times,serif" font-size="14.00">&lt;&lt;Abstract&gt;&gt;</text>
<text text-anchor="middle" x="423.05" y="-423.9" font-family="Times,serif" font-size="14.00">Pausable</text>
<text text-anchor="middle" x="423.05" y="-407.1" font-family="Times,serif" font-size="14.00">..</text>
<text text-anchor="middle" x="423.05" y="-390.3" font-family="Times,serif" font-size="14.00">ode_modules@openzeppelincontractssecurityPausable.sol</text>
</g>
<!-- 17&#45;&gt;157 -->
<g id="edge2" class="edge">
<title>17&#45;&gt;157</title>
<path fill="none" stroke="black" d="M423.05,-345.26C423.05,-347.29 423.05,-349.38 423.05,-351.51"/>
<polygon fill="none" stroke="black" points="412.55,-351.73 423.05,-381.73 433.55,-351.73 412.55,-351.73"/>
</g>
<!-- 19 -->
<g id="node4" class="node">
<title>19</title>
<polygon fill="#f2f2f2" stroke="black" points="631.78,-286.7 631.78,-345.1 864.32,-345.1 864.32,-286.7 631.78,-286.7"/>
<text text-anchor="middle" x="748.05" y="-328.5" font-family="Times,serif" font-size="14.00">&lt;&lt;Abstract&gt;&gt;</text>
<text text-anchor="middle" x="748.05" y="-311.7" font-family="Times,serif" font-size="14.00">InitializableToken</text>
<text text-anchor="middle" x="748.05" y="-294.9" font-family="Times,serif" font-size="14.00">..contractstokensInitializableToken.sol</text>
</g>
<!-- 20 -->
<g id="node5" class="node">
<title>20</title>
<polygon fill="#f2f2f2" stroke="black" points="611.96,-390.5 611.96,-448.9 884.15,-448.9 884.15,-390.5 611.96,-390.5"/>
<text text-anchor="middle" x="748.05" y="-432.3" font-family="Times,serif" font-size="14.00">&lt;&lt;Abstract&gt;&gt;</text>
<text text-anchor="middle" x="748.05" y="-415.5" font-family="Times,serif" font-size="14.00">InitializableTokenDetails</text>
<text text-anchor="middle" x="748.05" y="-398.7" font-family="Times,serif" font-size="14.00">..contractstokensInitializableTokenDetails.sol</text>
</g>
<!-- 19&#45;&gt;20 -->
<g id="edge5" class="edge">
<title>19&#45;&gt;20</title>
<path fill="none" stroke="black" d="M748.05,-345.26C748.05,-350 748.05,-355.07 748.05,-360.25"/>
<polygon fill="none" stroke="black" points="737.55,-360.5 748.05,-390.5 758.55,-360.5 737.55,-360.5"/>
</g>
<!-- 248 -->
<g id="node10" class="node">
<title>248</title>
<polygon fill="#f2f2f2" stroke="black" points="902.55,-390.5 902.55,-448.9 1247.56,-448.9 1247.56,-390.5 902.55,-390.5"/>
<text text-anchor="middle" x="1075.05" y="-432.3" font-family="Times,serif" font-size="14.00">ERC20</text>
<text text-anchor="middle" x="1075.05" y="-415.5" font-family="Times,serif" font-size="14.00">..</text>
<text text-anchor="middle" x="1075.05" y="-398.7" font-family="Times,serif" font-size="14.00">ode_modules@openzeppelincontractstokenRC20RC20.sol</text>
</g>
<!-- 19&#45;&gt;248 -->
<g id="edge4" class="edge">
<title>19&#45;&gt;248</title>
<path fill="none" stroke="black" d="M838.71,-345.12C874.86,-356.38 916.98,-369.49 955.56,-381.5"/>
<polygon fill="none" stroke="black" points="952.46,-391.53 984.22,-390.42 958.7,-371.48 952.46,-391.53"/>
</g>
<!-- 27 -->
<g id="node6" class="node">
<title>27</title>
<polygon fill="#f2f2f2" stroke="black" points="485.11,-191.3 485.11,-249.7 685,-249.7 685,-191.3 485.11,-191.3"/>
<text text-anchor="middle" x="585.05" y="-233.1" font-family="Times,serif" font-size="14.00">&lt;&lt;Abstract&gt;&gt;</text>
<text text-anchor="middle" x="585.05" y="-216.3" font-family="Times,serif" font-size="14.00">AbstractVault</text>
<text text-anchor="middle" x="585.05" y="-199.5" font-family="Times,serif" font-size="14.00">..contractsvaultAbstractVault.sol</text>
</g>
<!-- 27&#45;&gt;17 -->
<g id="edge7" class="edge">
<title>27&#45;&gt;17</title>
<path fill="none" stroke="black" d="M536.01,-249.78C524.09,-256.65 511.07,-264.16 498.25,-271.55"/>
<polygon fill="none" stroke="black" points="492.96,-262.48 472.21,-286.56 503.45,-280.67 492.96,-262.48"/>
</g>
<!-- 27&#45;&gt;19 -->
<g id="edge6" class="edge">
<title>27&#45;&gt;19</title>
<path fill="none" stroke="black" d="M634.4,-249.78C646.39,-256.65 659.49,-264.16 672.4,-271.55"/>
<polygon fill="none" stroke="black" points="667.34,-280.75 698.59,-286.56 677.78,-262.53 667.34,-280.75"/>
</g>
<!-- 58 -->
<g id="node7" class="node">
<title>58</title>
<polygon fill="#f2f2f2" stroke="black" points="447.01,-95.9 447.01,-154.3 723.1,-154.3 723.1,-95.9 447.01,-95.9"/>
<text text-anchor="middle" x="585.05" y="-137.7" font-family="Times,serif" font-size="14.00">&lt;&lt;Abstract&gt;&gt;</text>
<text text-anchor="middle" x="585.05" y="-120.9" font-family="Times,serif" font-size="14.00">FeeAdminAbstractVault</text>
<text text-anchor="middle" x="585.05" y="-104.1" font-family="Times,serif" font-size="14.00">..contractsvaultfeeFeeAdminAbstractVault.sol</text>
</g>
<!-- 58&#45;&gt;27 -->
<g id="edge8" class="edge">
<title>58&#45;&gt;27</title>
<path fill="none" stroke="black" d="M585.05,-154.38C585.05,-156.46 585.05,-158.6 585.05,-160.78"/>
<polygon fill="none" stroke="black" points="574.55,-161 585.05,-191 595.55,-161 574.55,-161"/>
</g>
<!-- 59 -->
<g id="node8" class="node">
<title>59</title>
<polygon fill="#f2f2f2" stroke="black" points="454.79,-0.5 454.79,-58.9 715.31,-58.9 715.31,-0.5 454.79,-0.5"/>
<text text-anchor="middle" x="585.05" y="-42.3" font-family="Times,serif" font-size="14.00">&lt;&lt;Abstract&gt;&gt;</text>
<text text-anchor="middle" x="585.05" y="-25.5" font-family="Times,serif" font-size="14.00">PerfFeeAbstractVault</text>
<text text-anchor="middle" x="585.05" y="-8.7" font-family="Times,serif" font-size="14.00">..contractsvaultfeePerfFeeAbstractVault.sol</text>
</g>
<!-- 59&#45;&gt;58 -->
<g id="edge9" class="edge">
<title>59&#45;&gt;58</title>
<path fill="none" stroke="black" d="M585.05,-58.98C585.05,-61.06 585.05,-63.2 585.05,-65.38"/>
<polygon fill="none" stroke="black" points="574.55,-65.6 585.05,-95.6 595.55,-65.6 574.55,-65.6"/>
</g>
<!-- 166 -->
<g id="node11" class="node">
<title>166</title>
<polygon fill="#f2f2f2" stroke="black" points="590.55,-494.3 590.55,-569.5 907.55,-569.5 907.55,-494.3 590.55,-494.3"/>
<text text-anchor="middle" x="749.05" y="-552.9" font-family="Times,serif" font-size="14.00">&lt;&lt;Abstract&gt;&gt;</text>
<text text-anchor="middle" x="749.05" y="-536.1" font-family="Times,serif" font-size="14.00">Context</text>
<text text-anchor="middle" x="749.05" y="-519.3" font-family="Times,serif" font-size="14.00">..</text>
<text text-anchor="middle" x="749.05" y="-502.5" font-family="Times,serif" font-size="14.00">ode_modules@openzeppelincontractsutilsContext.sol</text>
</g>
<!-- 157&#45;&gt;166 -->
<g id="edge10" class="edge">
<title>157&#45;&gt;166</title>
<path fill="none" stroke="black" d="M531.61,-457.4C557.38,-466.11 585.21,-475.52 612.07,-484.6"/>
<polygon fill="none" stroke="black" points="608.91,-494.61 640.7,-494.27 615.64,-474.72 608.91,-494.61"/>
</g>
<!-- 248&#45;&gt;166 -->
<g id="edge11" class="edge">
<title>248&#45;&gt;166</title>
<path fill="none" stroke="black" d="M991.52,-448.94C959.45,-459.78 921.94,-472.46 886.14,-484.56"/>
<polygon fill="none" stroke="black" points="882.67,-474.65 857.61,-494.2 889.4,-494.54 882.67,-474.65"/>
</g>
</g>
</svg>
