<?xml version="1.0" encoding="UTF-8" standalone="no"?>
<!DOCTYPE svg PUBLIC "-//W3C//DTD SVG 1.1//EN"
 "http://www.w3.org/Graphics/SVG/1.1/DTD/svg11.dtd">
<!-- Generated by graphviz version 5.0.0 (20220707.1540)
 -->
<!-- Title: StorageDiagram Pages: 1 -->
<svg width="1222pt" height="331pt"
 viewBox="0.00 0.00 1222.18 331.40" xmlns="http://www.w3.org/2000/svg" xmlns:xlink="http://www.w3.org/1999/xlink">
<g id="graph0" class="graph" transform="scale(1 1) rotate(0) translate(4 327.4)">
<title>StorageDiagram</title>
<polygon fill="white" stroke="transparent" points="-4,4 -4,-327.4 1218.18,-327.4 1218.18,4 -4,4"/>
<!-- 1 -->
<g id="node1" class="node">
<title>1</title>
<polygon fill="#f2f2f2" stroke="black" points="0,-0.5 0,-322.9 1214.18,-322.9 1214.18,-0.5 0,-0.5"/>
<text text-anchor="middle" x="607.09" y="-306.3" font-family="Courier New" font-size="14.00">PerfFeeVolatilityAbstractVault &lt;&lt;Contract&gt;&gt;</text>
<polyline fill="none" stroke="black" points="0,-298.1 1214.18,-298.1 "/>
<text text-anchor="middle" x="24.8" y="-281.5" font-family="Courier New" font-size="14.00">slot</text>
<polyline fill="none" stroke="black" points="0,-273.3 49.61,-273.3 "/>
<text text-anchor="middle" x="24.8" y="-256.7" font-family="Courier New" font-size="14.00">0</text>
<polyline fill="none" stroke="black" points="0,-248.5 49.61,-248.5 "/>
<text text-anchor="middle" x="24.8" y="-231.9" font-family="Courier New" font-size="14.00">1</text>
<polyline fill="none" stroke="black" points="0,-223.7 49.61,-223.7 "/>
<text text-anchor="middle" x="24.8" y="-207.1" font-family="Courier New" font-size="14.00">2</text>
<polyline fill="none" stroke="black" points="0,-198.9 49.61,-198.9 "/>
<text text-anchor="middle" x="24.8" y="-182.3" font-family="Courier New" font-size="14.00">3</text>
<polyline fill="none" stroke="black" points="0,-174.1 49.61,-174.1 "/>
<text text-anchor="middle" x="24.8" y="-157.5" font-family="Courier New" font-size="14.00">4</text>
<polyline fill="none" stroke="black" points="0,-149.3 49.61,-149.3 "/>
<text text-anchor="middle" x="24.8" y="-132.7" font-family="Courier New" font-size="14.00">5</text>
<polyline fill="none" stroke="black" points="0,-124.5 49.61,-124.5 "/>
<text text-anchor="middle" x="24.8" y="-107.9" font-family="Courier New" font-size="14.00">6</text>
<polyline fill="none" stroke="black" points="0,-99.7 49.61,-99.7 "/>
<text text-anchor="middle" x="24.8" y="-83.1" font-family="Courier New" font-size="14.00">7</text>
<polyline fill="none" stroke="black" points="0,-74.9 49.61,-74.9 "/>
<text text-anchor="middle" x="24.8" y="-58.3" font-family="Courier New" font-size="14.00">8</text>
<polyline fill="none" stroke="black" points="0,-50.1 49.61,-50.1 "/>
<text text-anchor="middle" x="24.8" y="-33.5" font-family="Courier New" font-size="14.00">9</text>
<polyline fill="none" stroke="black" points="0,-25.3 49.61,-25.3 "/>
<text text-anchor="middle" x="24.8" y="-8.7" font-family="Courier New" font-size="14.00">10</text>
<polyline fill="none" stroke="black" points="49.61,-0.5 49.61,-298.1 "/>
<text text-anchor="middle" x="631.9" y="-281.5" font-family="Courier New" font-size="14.00">type: &lt;inherited contract&gt;.variable (bytes)</text>
<polyline fill="none" stroke="black" points="49.61,-273.3 1214.18,-273.3 "/>
<text text-anchor="middle" x="631.54" y="-256.7" font-family="Courier New" font-size="14.00">mapping(address=&gt;uint256): ERC20._balances (32)</text>
<polyline fill="none" stroke="black" points="49.61,-248.5 1214.18,-248.5 "/>
<text text-anchor="middle" x="631.55" y="-231.9" font-family="Courier New" font-size="14.00">mapping(address=&gt;mapping(address=&gt;uint256)): ERC20._allowances (32)</text>
<polyline fill="none" stroke="black" points="49.61,-223.7 1214.18,-223.7 "/>
<text text-anchor="middle" x="631.53" y="-207.1" font-family="Courier New" font-size="14.00">uint256: ERC20._totalSupply (32)</text>
<polyline fill="none" stroke="black" points="49.61,-198.9 1214.18,-198.9 "/>
<text text-anchor="middle" x="631.42" y="-182.3" font-family="Courier New" font-size="14.00">string: ERC20._name (32)</text>
<polyline fill="none" stroke="black" points="49.61,-174.1 1214.18,-174.1 "/>
<text text-anchor="middle" x="631.82" y="-157.5" font-family="Courier New" font-size="14.00">string: ERC20._symbol (32)</text>
<polyline fill="none" stroke="black" points="49.61,-149.3 1214.18,-149.3 "/>
<text text-anchor="middle" x="631.44" y="-132.7" font-family="Courier New" font-size="14.00">string: InitializableTokenDetails._name (32)</text>
<polyline fill="none" stroke="black" points="49.61,-124.5 1214.18,-124.5 "/>
<text text-anchor="middle" x="631.84" y="-107.9" font-family="Courier New" font-size="14.00">string: InitializableTokenDetails._symbol (32)</text>
<polyline fill="none" stroke="black" points="49.61,-99.7 1214.18,-99.7 "/>
<text text-anchor="middle" x="124.82" y="-83.1" font-family="Courier New" font-size="14.00">unallocated (10)</text>
<polyline fill="none" stroke="black" points="200.03,-74.9 200.03,-99.7 "/>
<text text-anchor="middle" x="388.66" y="-83.1" font-family="Courier New" font-size="14.00">address: VaultManagerRole.vaultManager (20)</text>
<polyline fill="none" stroke="black" points="577.29,-74.9 577.29,-99.7 "/>
<text text-anchor="middle" x="694.5" y="-83.1" font-family="Courier New" font-size="14.00">bool: Pausable._paused (1)</text>
<polyline fill="none" stroke="black" points="811.72,-74.9 811.72,-99.7 "/>
<text text-anchor="middle" x="1012.95" y="-83.1" font-family="Courier New" font-size="14.00">uint8: InitializableTokenDetails._decimals (1)</text>
<polyline fill="none" stroke="black" points="49.61,-74.9 1214.18,-74.9 "/>
<text text-anchor="middle" x="275.32" y="-58.3" font-family="Courier New" font-size="14.00">unallocated (12)</text>
<polyline fill="none" stroke="black" points="501.03,-50.1 501.03,-74.9 "/>
<text text-anchor="middle" x="857.46" y="-58.3" font-family="Courier New" font-size="14.00">address: FeeAdminAbstractVault.feeReceiver (20)</text>
<polyline fill="none" stroke="black" points="49.61,-50.1 1214.18,-50.1 "/>
<text text-anchor="middle" x="631.44" y="-33.5" font-family="Courier New" font-size="14.00">uint256: PerfFeeAbstractVault.performanceFee (32)</text>
<polyline fill="none" stroke="black" points="49.61,-25.3 1214.18,-25.3 "/>
<text text-anchor="middle" x="631.84" y="-8.7" font-family="Courier New" font-size="14.00">uint256: PerfFeeAbstractVault.perfFeesAssetPerShare (32)</text>
</g>
</g>
</svg>
