<?xml version="1.0" encoding="UTF-8" standalone="no"?>
<!DOCTYPE svg PUBLIC "-//W3C//DTD SVG 1.1//EN"
 "http://www.w3.org/Graphics/SVG/1.1/DTD/svg11.dtd">
<!-- Generated by graphviz version 5.0.0 (20220707.1540)
 -->
<!-- Title: StorageDiagram Pages: 1 -->
<svg width="2095pt" height="480pt"
 viewBox="0.00 0.00 2095.11 480.20" xmlns="http://www.w3.org/2000/svg" xmlns:xlink="http://www.w3.org/1999/xlink">
<g id="graph0" class="graph" transform="scale(1 1) rotate(0) translate(4 476.2)">
<title>StorageDiagram</title>
<polygon fill="white" stroke="transparent" points="-4,4 -4,-476.2 2091.11,-476.2 2091.11,4 -4,4"/>
<!-- 3 -->
<g id="node1" class="node">
<title>3</title>
<polygon fill="#f2f2f2" stroke="black" points="0,-0.5 0,-471.7 1214.18,-471.7 1214.18,-0.5 0,-0.5"/>
<text text-anchor="middle" x="607.09" y="-455.1" font-family="Courier New" font-size="14.00">PeriodicAllocationPerfFeeMetaVault &lt;&lt;Contract&gt;&gt;</text>
<polyline fill="none" stroke="black" points="0,-446.9 1214.18,-446.9 "/>
<text text-anchor="middle" x="24.8" y="-430.3" font-family="Courier New" font-size="14.00">slot</text>
<polyline fill="none" stroke="black" points="0,-422.1 49.61,-422.1 "/>
<text text-anchor="middle" x="24.8" y="-405.5" font-family="Courier New" font-size="14.00">0</text>
<polyline fill="none" stroke="black" points="0,-397.3 49.61,-397.3 "/>
<text text-anchor="middle" x="24.8" y="-380.7" font-family="Courier New" font-size="14.00">1</text>
<polyline fill="none" stroke="black" points="0,-372.5 49.61,-372.5 "/>
<text text-anchor="middle" x="24.8" y="-355.9" font-family="Courier New" font-size="14.00">2</text>
<polyline fill="none" stroke="black" points="0,-347.7 49.61,-347.7 "/>
<text text-anchor="middle" x="24.8" y="-331.1" font-family="Courier New" font-size="14.00">3</text>
<polyline fill="none" stroke="black" points="0,-322.9 49.61,-322.9 "/>
<text text-anchor="middle" x="24.8" y="-306.3" font-family="Courier New" font-size="14.00">4</text>
<polyline fill="none" stroke="black" points="0,-298.1 49.61,-298.1 "/>
<text text-anchor="middle" x="24.8" y="-281.5" font-family="Courier New" font-size="14.00">5</text>
<polyline fill="none" stroke="black" points="0,-273.3 49.61,-273.3 "/>
<text text-anchor="middle" x="24.8" y="-256.7" font-family="Courier New" font-size="14.00">6</text>
<polyline fill="none" stroke="black" points="0,-248.5 49.61,-248.5 "/>
<text text-anchor="middle" x="24.8" y="-231.9" font-family="Courier New" font-size="14.00">7</text>
<polyline fill="none" stroke="black" points="0,-223.7 49.61,-223.7 "/>
<text text-anchor="middle" x="24.8" y="-207.1" font-family="Courier New" font-size="14.00">8</text>
<polyline fill="none" stroke="black" points="0,-198.9 49.61,-198.9 "/>
<text text-anchor="middle" x="24.8" y="-182.3" font-family="Courier New" font-size="14.00">9</text>
<polyline fill="none" stroke="black" points="0,-174.1 49.61,-174.1 "/>
<text text-anchor="middle" x="24.8" y="-157.5" font-family="Courier New" font-size="14.00">10</text>
<polyline fill="none" stroke="black" points="0,-149.3 49.61,-149.3 "/>
<text text-anchor="middle" x="24.8" y="-132.7" font-family="Courier New" font-size="14.00">11</text>
<polyline fill="none" stroke="black" points="0,-124.5 49.61,-124.5 "/>
<text text-anchor="middle" x="24.8" y="-107.9" font-family="Courier New" font-size="14.00">12</text>
<polyline fill="none" stroke="black" points="0,-99.7 49.61,-99.7 "/>
<text text-anchor="middle" x="24.8" y="-83.1" font-family="Courier New" font-size="14.00">13</text>
<polyline fill="none" stroke="black" points="0,-74.9 49.61,-74.9 "/>
<text text-anchor="middle" x="24.8" y="-58.3" font-family="Courier New" font-size="14.00">14</text>
<polyline fill="none" stroke="black" points="0,-50.1 49.61,-50.1 "/>
<text text-anchor="middle" x="24.8" y="-33.5" font-family="Courier New" font-size="14.00">15</text>
<polyline fill="none" stroke="black" points="0,-25.3 49.61,-25.3 "/>
<text text-anchor="middle" x="24.8" y="-8.7" font-family="Courier New" font-size="14.00">16</text>
<polyline fill="none" stroke="black" points="49.61,-0.5 49.61,-446.9 "/>
<text text-anchor="middle" x="631.9" y="-430.3" font-family="Courier New" font-size="14.00">type: &lt;inherited contract&gt;.variable (bytes)</text>
<polyline fill="none" stroke="black" points="49.61,-422.1 1214.18,-422.1 "/>
<text text-anchor="middle" x="631.54" y="-405.5" font-family="Courier New" font-size="14.00">mapping(address=&gt;uint256): ERC20._balances (32)</text>
<polyline fill="none" stroke="black" points="49.61,-397.3 1214.18,-397.3 "/>
<text text-anchor="middle" x="631.55" y="-380.7" font-family="Courier New" font-size="14.00">mapping(address=&gt;mapping(address=&gt;uint256)): ERC20._allowances (32)</text>
<polyline fill="none" stroke="black" points="49.61,-372.5 1214.18,-372.5 "/>
<text text-anchor="middle" x="631.53" y="-355.9" font-family="Courier New" font-size="14.00">uint256: ERC20._totalSupply (32)</text>
<polyline fill="none" stroke="black" points="49.61,-347.7 1214.18,-347.7 "/>
<text text-anchor="middle" x="631.42" y="-331.1" font-family="Courier New" font-size="14.00">string: ERC20._name (32)</text>
<polyline fill="none" stroke="black" points="49.61,-322.9 1214.18,-322.9 "/>
<text text-anchor="middle" x="631.82" y="-306.3" font-family="Courier New" font-size="14.00">string: ERC20._symbol (32)</text>
<polyline fill="none" stroke="black" points="49.61,-298.1 1214.18,-298.1 "/>
<text text-anchor="middle" x="631.44" y="-281.5" font-family="Courier New" font-size="14.00">string: InitializableTokenDetails._name (32)</text>
<polyline fill="none" stroke="black" points="49.61,-273.3 1214.18,-273.3 "/>
<text text-anchor="middle" x="631.84" y="-256.7" font-family="Courier New" font-size="14.00">string: InitializableTokenDetails._symbol (32)</text>
<polyline fill="none" stroke="black" points="49.61,-248.5 1214.18,-248.5 "/>
<text text-anchor="middle" x="124.82" y="-231.9" font-family="Courier New" font-size="14.00">unallocated (10)</text>
<polyline fill="none" stroke="black" points="200.03,-223.7 200.03,-248.5 "/>
<text text-anchor="middle" x="388.66" y="-231.9" font-family="Courier New" font-size="14.00">address: VaultManagerRole.vaultManager (20)</text>
<polyline fill="none" stroke="black" points="577.29,-223.7 577.29,-248.5 "/>
<text text-anchor="middle" x="694.5" y="-231.9" font-family="Courier New" font-size="14.00">bool: Pausable._paused (1)</text>
<polyline fill="none" stroke="black" points="811.72,-223.7 811.72,-248.5 "/>
<text text-anchor="middle" x="1012.95" y="-231.9" font-family="Courier New" font-size="14.00">uint8: InitializableTokenDetails._decimals (1)</text>
<polyline fill="none" stroke="black" points="49.61,-223.7 1214.18,-223.7 "/>
<text text-anchor="middle" x="631.55" y="-207.1" font-family="Courier New" font-size="14.00">IERC4626Vault[]: SameAssetUnderlyingsAbstractVault.underlyingVaults (32)</text>
<polyline fill="none" stroke="black" points="49.61,-198.9 1214.18,-198.9 "/>
<text text-anchor="middle" x="631.64" y="-182.3" font-family="Courier New" font-size="14.00">uint256: AssetPerShareAbstractVault.assetsPerShare (32)</text>
<polyline fill="none" stroke="black" points="49.61,-174.1 1214.18,-174.1 "/>
<text text-anchor="middle" x="631.65" y="-157.5" font-family="Courier New" font-size="14.00">AssetSourcingParams: PeriodicAllocationAbstractVault.sourceParams (32)</text>
<polyline fill="none" stroke="black" points="49.61,-149.3 1214.18,-149.3 "/>
<text text-anchor="middle" x="631.75" y="-132.7" font-family="Courier New" font-size="14.00">uint256: PeriodicAllocationAbstractVault.assetsTransferred (32)</text>
<polyline fill="none" stroke="black" points="49.61,-124.5 1214.18,-124.5 "/>
<text text-anchor="middle" x="631.46" y="-107.9" font-family="Courier New" font-size="14.00">uint256: PeriodicAllocationAbstractVault.assetPerShareUpdateThreshold (32)</text>
<polyline fill="none" stroke="black" points="49.61,-99.7 1214.18,-99.7 "/>
<text text-anchor="middle" x="275.32" y="-83.1" font-family="Courier New" font-size="14.00">unallocated (12)</text>
<polyline fill="none" stroke="black" points="501.03,-74.9 501.03,-99.7 "/>
<text text-anchor="middle" x="857.46" y="-83.1" font-family="Courier New" font-size="14.00">address: FeeAdminAbstractVault.feeReceiver (20)</text>
<polyline fill="none" stroke="black" points="49.61,-74.9 1214.18,-74.9 "/>
<text text-anchor="middle" x="631.44" y="-58.3" font-family="Courier New" font-size="14.00">uint256: PerfFeeAbstractVault.performanceFee (32)</text>
<polyline fill="none" stroke="black" points="49.61,-50.1 1214.18,-50.1 "/>
<text text-anchor="middle" x="631.84" y="-33.5" font-family="Courier New" font-size="14.00">uint256: PerfFeeAbstractVault.perfFeesAssetPerShare (32)</text>
<polyline fill="none" stroke="black" points="49.61,-25.3 1214.18,-25.3 "/>
<text text-anchor="middle" x="184.82" y="-8.7" font-family="Courier New" font-size="14.00">unallocated (30)</text>
<polyline fill="none" stroke="black" points="320.03,-0.5 320.03,-25.3 "/>
<text text-anchor="middle" x="543.45" y="-8.7" font-family="Courier New" font-size="14.00">bool: Initializable._initializing (1)</text>
<polyline fill="none" stroke="black" points="766.88,-0.5 766.88,-25.3 "/>
<text text-anchor="middle" x="990.3" y="-8.7" font-family="Courier New" font-size="14.00">uint8: Initializable._initialized (1)</text>
</g>
<!-- 1 -->
<g id="node2" class="node">
<title>1</title>
<polygon fill="#f2f2f2" stroke="black" points="1383.4,-192.5 1383.4,-283.7 1953.89,-283.7 1953.89,-192.5 1383.4,-192.5"/>
<text text-anchor="middle" x="1668.65" y="-267.1" font-family="Courier New" font-size="14.00">IERC4626Vault[]: underlyingVaults &lt;&lt;Array&gt;&gt;</text>
<text text-anchor="middle" x="1668.65" y="-250.3" font-family="Courier New" font-size="14.00">0xe33c290272880447f00f1a5b33f9e077b5cb5c8c71b08c563e83761acb70e8d1</text>
<polyline fill="none" stroke="black" points="1383.4,-242.1 1953.89,-242.1 "/>
<text text-anchor="middle" x="1458.71" y="-225.5" font-family="Courier New" font-size="14.00">slot</text>
<polyline fill="none" stroke="black" points="1383.4,-217.3 1534.01,-217.3 "/>
<text text-anchor="middle" x="1458.71" y="-200.7" font-family="Courier New" font-size="14.00">0</text>
<polyline fill="none" stroke="black" points="1534.01,-192.5 1534.01,-242.1 "/>
<text text-anchor="middle" x="1743.83" y="-225.5" font-family="Courier New" font-size="14.00">type: variable (bytes)</text>
<polyline fill="none" stroke="black" points="1534.01,-217.3 1953.65,-217.3 "/>
<text text-anchor="middle" x="1634.72" y="-200.7" font-family="Courier New" font-size="14.00">unallocated (12)</text>
<polyline fill="none" stroke="black" points="1735.43,-192.5 1735.43,-217.3 "/>
<text text-anchor="middle" x="1844.54" y="-200.7" font-family="Courier New" font-size="14.00">IERC4626Vault (20)</text>
</g>
<!-- 3&#45;&gt;1 -->
<g id="edge1" class="edge">
<title>3:12&#45;&gt;1</title>
<path fill="none" stroke="black" d="M1214.09,-211.1C1265.5,-211.1 1320.13,-212.85 1373.01,-215.46"/>
<polygon fill="black" stroke="black" points="1373.05,-218.97 1383.21,-215.97 1373.4,-211.97 1373.05,-218.97"/>
</g>
<!-- 2 -->
<g id="node3" class="node">
<title>2</title>
<polygon fill="#f2f2f2" stroke="black" points="1250.18,-98.9 1250.18,-173.3 2087.11,-173.3 2087.11,-98.9 1250.18,-98.9"/>
<text text-anchor="middle" x="1668.65" y="-156.7" font-family="Courier New" font-size="14.00">AssetSourcingParams &lt;&lt;Struct&gt;&gt;</text>
<polyline fill="none" stroke="black" points="1250.18,-148.5 2087.11,-148.5 "/>
<text text-anchor="middle" x="1274.99" y="-131.9" font-family="Courier New" font-size="14.00">slot</text>
<polyline fill="none" stroke="black" points="1250.18,-123.7 1299.79,-123.7 "/>
<text text-anchor="middle" x="1274.99" y="-107.1" font-family="Courier New" font-size="14.00">10</text>
<polyline fill="none" stroke="black" points="1299.79,-98.9 1299.79,-148.5 "/>
<text text-anchor="middle" x="1693.45" y="-131.9" font-family="Courier New" font-size="14.00">type: variable (bytes)</text>
<polyline fill="none" stroke="black" points="1299.79,-123.7 2087.11,-123.7 "/>
<text text-anchor="middle" x="1375" y="-107.1" font-family="Courier New" font-size="14.00">unallocated (24)</text>
<polyline fill="none" stroke="black" points="1450.21,-98.9 1450.21,-123.7 "/>
<text text-anchor="middle" x="1601.04" y="-107.1" font-family="Courier New" font-size="14.00">uint32: singleSourceVaultIndex (4)</text>
<polyline fill="none" stroke="black" points="1751.86,-98.9 1751.86,-123.7 "/>
<text text-anchor="middle" x="1919.48" y="-107.1" font-family="Courier New" font-size="14.00">uint32: singleVaultSharesThreshold (4)</text>
</g>
<!-- 3&#45;&gt;2 -->
<g id="edge2" class="edge">
<title>3:16&#45;&gt;2</title>
<path fill="none" stroke="black" d="M1214.18,-162.1C1222.69,-162.1 1231.28,-162.05 1239.93,-161.97"/>
<polygon fill="black" stroke="black" points="1240.16,-165.46 1250.12,-161.84 1240.08,-158.46 1240.16,-165.46"/>
</g>
</g>
</svg>
