<?xml version="1.0" encoding="UTF-8" standalone="no"?>
<!DOCTYPE svg PUBLIC "-//W3C//DTD SVG 1.1//EN"
 "http://www.w3.org/Graphics/SVG/1.1/DTD/svg11.dtd">
<!-- Generated by graphviz version 5.0.0 (20220707.1540)
 -->
<!-- Title: StorageDiagram Pages: 1 -->
<svg width="2330pt" height="382pt"
 viewBox="0.00 0.00 2329.55 382.20" xmlns="http://www.w3.org/2000/svg" xmlns:xlink="http://www.w3.org/1999/xlink">
<g id="graph0" class="graph" transform="scale(1 1) rotate(0) translate(4 378.2)">
<title>StorageDiagram</title>
<polygon fill="white" stroke="transparent" points="-4,4 -4,-378.2 2325.55,-378.2 2325.55,4 -4,4"/>
<!-- 3 -->
<g id="node1" class="node">
<title>3</title>
<polygon fill="#f2f2f2" stroke="black" points="0,-1.7 0,-373.7 1214.18,-373.7 1214.18,-1.7 0,-1.7"/>
<text text-anchor="middle" x="607.09" y="-357.1" font-family="Courier New" font-size="14.00">PeriodicAllocationAbstractVault &lt;&lt;Contract&gt;&gt;</text>
<polyline fill="none" stroke="black" points="0,-348.9 1214.18,-348.9 "/>
<text text-anchor="middle" x="24.8" y="-332.3" font-family="Courier New" font-size="14.00">slot</text>
<polyline fill="none" stroke="black" points="0,-324.1 49.61,-324.1 "/>
<text text-anchor="middle" x="24.8" y="-307.5" font-family="Courier New" font-size="14.00">0</text>
<polyline fill="none" stroke="black" points="0,-299.3 49.61,-299.3 "/>
<text text-anchor="middle" x="24.8" y="-282.7" font-family="Courier New" font-size="14.00">1</text>
<polyline fill="none" stroke="black" points="0,-274.5 49.61,-274.5 "/>
<text text-anchor="middle" x="24.8" y="-257.9" font-family="Courier New" font-size="14.00">2</text>
<polyline fill="none" stroke="black" points="0,-249.7 49.61,-249.7 "/>
<text text-anchor="middle" x="24.8" y="-233.1" font-family="Courier New" font-size="14.00">3</text>
<polyline fill="none" stroke="black" points="0,-224.9 49.61,-224.9 "/>
<text text-anchor="middle" x="24.8" y="-208.3" font-family="Courier New" font-size="14.00">4</text>
<polyline fill="none" stroke="black" points="0,-200.1 49.61,-200.1 "/>
<text text-anchor="middle" x="24.8" y="-183.5" font-family="Courier New" font-size="14.00">5</text>
<polyline fill="none" stroke="black" points="0,-175.3 49.61,-175.3 "/>
<text text-anchor="middle" x="24.8" y="-158.7" font-family="Courier New" font-size="14.00">6</text>
<polyline fill="none" stroke="black" points="0,-150.5 49.61,-150.5 "/>
<text text-anchor="middle" x="24.8" y="-133.9" font-family="Courier New" font-size="14.00">7</text>
<polyline fill="none" stroke="black" points="0,-125.7 49.61,-125.7 "/>
<text text-anchor="middle" x="24.8" y="-109.1" font-family="Courier New" font-size="14.00">8</text>
<polyline fill="none" stroke="black" points="0,-100.9 49.61,-100.9 "/>
<text text-anchor="middle" x="24.8" y="-84.3" font-family="Courier New" font-size="14.00">9</text>
<polyline fill="none" stroke="black" points="0,-76.1 49.61,-76.1 "/>
<text text-anchor="middle" x="24.8" y="-59.5" font-family="Courier New" font-size="14.00">10</text>
<polyline fill="none" stroke="black" points="0,-51.3 49.61,-51.3 "/>
<text text-anchor="middle" x="24.8" y="-34.7" font-family="Courier New" font-size="14.00">11</text>
<polyline fill="none" stroke="black" points="0,-26.5 49.61,-26.5 "/>
<text text-anchor="middle" x="24.8" y="-9.9" font-family="Courier New" font-size="14.00">12</text>
<polyline fill="none" stroke="black" points="49.61,-1.7 49.61,-348.9 "/>
<text text-anchor="middle" x="631.9" y="-332.3" font-family="Courier New" font-size="14.00">type: &lt;inherited contract&gt;.variable (bytes)</text>
<polyline fill="none" stroke="black" points="49.61,-324.1 1214.18,-324.1 "/>
<text text-anchor="middle" x="631.54" y="-307.5" font-family="Courier New" font-size="14.00">mapping(address=&gt;uint256): ERC20._balances (32)</text>
<polyline fill="none" stroke="black" points="49.61,-299.3 1214.18,-299.3 "/>
<text text-anchor="middle" x="631.55" y="-282.7" font-family="Courier New" font-size="14.00">mapping(address=&gt;mapping(address=&gt;uint256)): ERC20._allowances (32)</text>
<polyline fill="none" stroke="black" points="49.61,-274.5 1214.18,-274.5 "/>
<text text-anchor="middle" x="631.53" y="-257.9" font-family="Courier New" font-size="14.00">uint256: ERC20._totalSupply (32)</text>
<polyline fill="none" stroke="black" points="49.61,-249.7 1214.18,-249.7 "/>
<text text-anchor="middle" x="631.42" y="-233.1" font-family="Courier New" font-size="14.00">string: ERC20._name (32)</text>
<polyline fill="none" stroke="black" points="49.61,-224.9 1214.18,-224.9 "/>
<text text-anchor="middle" x="631.82" y="-208.3" font-family="Courier New" font-size="14.00">string: ERC20._symbol (32)</text>
<polyline fill="none" stroke="black" points="49.61,-200.1 1214.18,-200.1 "/>
<text text-anchor="middle" x="631.44" y="-183.5" font-family="Courier New" font-size="14.00">string: InitializableTokenDetails._name (32)</text>
<polyline fill="none" stroke="black" points="49.61,-175.3 1214.18,-175.3 "/>
<text text-anchor="middle" x="631.84" y="-158.7" font-family="Courier New" font-size="14.00">string: InitializableTokenDetails._symbol (32)</text>
<polyline fill="none" stroke="black" points="49.61,-150.5 1214.18,-150.5 "/>
<text text-anchor="middle" x="124.82" y="-133.9" font-family="Courier New" font-size="14.00">unallocated (10)</text>
<polyline fill="none" stroke="black" points="200.03,-125.7 200.03,-150.5 "/>
<text text-anchor="middle" x="388.66" y="-133.9" font-family="Courier New" font-size="14.00">address: VaultManagerRole.vaultManager (20)</text>
<polyline fill="none" stroke="black" points="577.29,-125.7 577.29,-150.5 "/>
<text text-anchor="middle" x="694.5" y="-133.9" font-family="Courier New" font-size="14.00">bool: Pausable._paused (1)</text>
<polyline fill="none" stroke="black" points="811.72,-125.7 811.72,-150.5 "/>
<text text-anchor="middle" x="1012.95" y="-133.9" font-family="Courier New" font-size="14.00">uint8: InitializableTokenDetails._decimals (1)</text>
<polyline fill="none" stroke="black" points="49.61,-125.7 1214.18,-125.7 "/>
<text text-anchor="middle" x="631.55" y="-109.1" font-family="Courier New" font-size="14.00">AbstractVault[]: SameAssetUnderlyingsAbstractVault.underlyingVaults (32)</text>
<polyline fill="none" stroke="black" points="49.61,-100.9 1214.18,-100.9 "/>
<text text-anchor="middle" x="631.64" y="-84.3" font-family="Courier New" font-size="14.00">uint256: AssetPerShareAbstractVault.assetsPerShare (32)</text>
<polyline fill="none" stroke="black" points="49.61,-76.1 1214.18,-76.1 "/>
<text text-anchor="middle" x="631.73" y="-59.5" font-family="Courier New" font-size="14.00">AssetSourcingParams: sourceParams (32)</text>
<polyline fill="none" stroke="black" points="49.61,-51.3 1214.18,-51.3 "/>
<text text-anchor="middle" x="631.83" y="-34.7" font-family="Courier New" font-size="14.00">uint256: assetsTransferred (32)</text>
<polyline fill="none" stroke="black" points="49.61,-26.5 1214.18,-26.5 "/>
<text text-anchor="middle" x="631.53" y="-9.9" font-family="Courier New" font-size="14.00">uint256: assetPerShareUpdateThreshold (32)</text>
</g>
<!-- 1 -->
<g id="node2" class="node">
<title>1</title>
<polygon fill="#f2f2f2" stroke="black" points="1500.62,-94.1 1500.62,-185.3 2071.11,-185.3 2071.11,-94.1 1500.62,-94.1"/>
<text text-anchor="middle" x="1785.87" y="-168.7" font-family="Courier New" font-size="14.00">AbstractVault[]: underlyingVaults &lt;&lt;Array&gt;&gt;</text>
<text text-anchor="middle" x="1785.87" y="-151.9" font-family="Courier New" font-size="14.00">0xe33c290272880447f00f1a5b33f9e077b5cb5c8c71b08c563e83761acb70e8d1</text>
<polyline fill="none" stroke="black" points="1500.62,-143.7 2071.11,-143.7 "/>
<text text-anchor="middle" x="1575.92" y="-127.1" font-family="Courier New" font-size="14.00">slot</text>
<polyline fill="none" stroke="black" points="1500.62,-118.9 1651.23,-118.9 "/>
<text text-anchor="middle" x="1575.92" y="-102.3" font-family="Courier New" font-size="14.00">0</text>
<polyline fill="none" stroke="black" points="1651.23,-94.1 1651.23,-143.7 "/>
<text text-anchor="middle" x="1861.05" y="-127.1" font-family="Courier New" font-size="14.00">type: variable (bytes)</text>
<polyline fill="none" stroke="black" points="1651.23,-118.9 2070.87,-118.9 "/>
<text text-anchor="middle" x="1751.94" y="-102.3" font-family="Courier New" font-size="14.00">unallocated (12)</text>
<polyline fill="none" stroke="black" points="1852.65,-94.1 1852.65,-118.9 "/>
<text text-anchor="middle" x="1961.76" y="-102.3" font-family="Courier New" font-size="14.00">AbstractVault (20)</text>
</g>
<!-- 3&#45;&gt;1 -->
<g id="edge1" class="edge">
<title>3:12&#45;&gt;1</title>
<path fill="none" stroke="black" d="M1214.09,-113.7C1303.88,-113.7 1401.52,-116.95 1490.25,-121.15"/>
<polygon fill="black" stroke="black" points="1490.31,-124.66 1500.46,-121.64 1490.64,-117.67 1490.31,-124.66"/>
</g>
<!-- 2 -->
<g id="node3" class="node">
<title>2</title>
<polygon fill="#f2f2f2" stroke="black" points="1250.18,-0.5 1250.18,-74.9 2321.55,-74.9 2321.55,-0.5 1250.18,-0.5"/>
<text text-anchor="middle" x="1785.87" y="-58.3" font-family="Courier New" font-size="14.00">AssetSourcingParams &lt;&lt;Struct&gt;&gt;</text>
<polyline fill="none" stroke="black" points="1250.18,-50.1 2321.55,-50.1 "/>
<text text-anchor="middle" x="1274.99" y="-33.5" font-family="Courier New" font-size="14.00">slot</text>
<polyline fill="none" stroke="black" points="1250.18,-25.3 1299.79,-25.3 "/>
<text text-anchor="middle" x="1274.99" y="-8.7" font-family="Courier New" font-size="14.00">10</text>
<polyline fill="none" stroke="black" points="1299.79,-0.5 1299.79,-50.1 "/>
<text text-anchor="middle" x="1810.67" y="-33.5" font-family="Courier New" font-size="14.00">type: variable (bytes)</text>
<polyline fill="none" stroke="black" points="1299.79,-25.3 2321.55,-25.3 "/>
<text text-anchor="middle" x="1375" y="-8.7" font-family="Courier New" font-size="14.00">unallocated (20)</text>
<polyline fill="none" stroke="black" points="1450.21,-0.5 1450.21,-25.3 "/>
<text text-anchor="middle" x="1567.43" y="-8.7" font-family="Courier New" font-size="14.00">uint32: withdrawBuffer (4)</text>
<polyline fill="none" stroke="black" points="1684.65,-0.5 1684.65,-25.3 "/>
<text text-anchor="middle" x="1835.47" y="-8.7" font-family="Courier New" font-size="14.00">uint32: singleSourceVaultIndex (4)</text>
<polyline fill="none" stroke="black" points="1986.29,-0.5 1986.29,-25.3 "/>
<text text-anchor="middle" x="2153.92" y="-8.7" font-family="Courier New" font-size="14.00">uint32: singleVaultSharesThreshold (4)</text>
</g>
<!-- 3&#45;&gt;2 -->
<g id="edge2" class="edge">
<title>3:17&#45;&gt;2</title>
<path fill="none" stroke="black" d="M1214.18,-63.7C1222.65,-63.7 1231.18,-63.67 1239.78,-63.62"/>
<polygon fill="black" stroke="black" points="1239.91,-67.11 1249.89,-63.54 1239.86,-60.11 1239.91,-67.11"/>
</g>
</g>
</svg>
