<?xml version="1.0" encoding="UTF-8" standalone="no"?>
<!DOCTYPE svg PUBLIC "-//W3C//DTD SVG 1.1//EN"
 "http://www.w3.org/Graphics/SVG/1.1/DTD/svg11.dtd">
<!-- Generated by graphviz version 5.0.0 (20220707.1540)
 -->
<!-- Title: UmlClassDiagram Pages: 1 -->
<svg width="2187pt" height="707pt"
 viewBox="0.00 0.00 2187.07 707.00" xmlns="http://www.w3.org/2000/svg" xmlns:xlink="http://www.w3.org/1999/xlink">
<g id="graph0" class="graph" transform="scale(1 1) rotate(0) translate(4 703)">
<title>UmlClassDiagram</title>
<polygon fill="white" stroke="transparent" points="-4,4 -4,-703 2183.07,-703 2183.07,4 -4,4"/>
<!-- 6 -->
<g id="node1" class="node">
<title>6</title>
<polygon fill="#f2f2f2" stroke="black" points="244.02,-295.1 244.02,-353.5 482.79,-353.5 482.79,-295.1 244.02,-295.1"/>
<text text-anchor="middle" x="363.4" y="-336.9" font-family="Times,serif" font-size="14.00">&lt;&lt;Interface&gt;&gt;</text>
<text text-anchor="middle" x="363.4" y="-320.1" font-family="Times,serif" font-size="14.00">IERC4626Vault</text>
<text text-anchor="middle" x="363.4" y="-303.3" font-family="Times,serif" font-size="14.00">..contractsinterfacesIERC4626Vault.sol</text>
</g>
<!-- 249 -->
<g id="node15" class="node">
<title>249</title>
<polygon fill="#f2f2f2" stroke="black" points="1556.29,-623.3 1556.29,-698.5 1914.51,-698.5 1914.51,-623.3 1556.29,-623.3"/>
<text text-anchor="middle" x="1735.4" y="-681.9" font-family="Times,serif" font-size="14.00">&lt;&lt;Interface&gt;&gt;</text>
<text text-anchor="middle" x="1735.4" y="-665.1" font-family="Times,serif" font-size="14.00">IERC20</text>
<text text-anchor="middle" x="1735.4" y="-648.3" font-family="Times,serif" font-size="14.00">..</text>
<text text-anchor="middle" x="1735.4" y="-631.5" font-family="Times,serif" font-size="14.00">ode_modules@openzeppelincontractstokenRC20IERC20.sol</text>
</g>
<!-- 6&#45;&gt;249 -->
<g id="edge1" class="edge">
<title>6&#45;&gt;249</title>
<path fill="none" stroke="black" stroke-dasharray="5,2" d="M243.67,-335.1C156.59,-345.01 49.28,-363.94 21.4,-398.4 -38.75,-472.76 38.64,-546.55 125.4,-586.8 249.15,-644.21 1118.69,-656.57 1525.93,-659.2"/>
<polygon fill="none" stroke="black" points="1526.14,-669.71 1556.2,-659.39 1526.27,-648.71 1526.14,-669.71"/>
</g>
<!-- 9 -->
<g id="node2" class="node">
<title>9</title>
<polygon fill="#f2f2f2" stroke="black" points="711.3,-519.5 711.3,-577.9 899.51,-577.9 899.51,-519.5 711.3,-519.5"/>
<text text-anchor="middle" x="805.4" y="-561.3" font-family="Times,serif" font-size="14.00">&lt;&lt;Interface&gt;&gt;</text>
<text text-anchor="middle" x="805.4" y="-544.5" font-family="Times,serif" font-size="14.00">INexus</text>
<text text-anchor="middle" x="805.4" y="-527.7" font-family="Times,serif" font-size="14.00">..contractsinterfacesINexus.sol</text>
</g>
<!-- 13 -->
<g id="node3" class="node">
<title>13</title>
<polygon fill="#f2f2f2" stroke="black" points="901.35,-407.3 901.35,-465.7 1135.46,-465.7 1135.46,-407.3 901.35,-407.3"/>
<text text-anchor="middle" x="1018.4" y="-449.1" font-family="Times,serif" font-size="14.00">&lt;&lt;Abstract&gt;&gt;</text>
<text text-anchor="middle" x="1018.4" y="-432.3" font-family="Times,serif" font-size="14.00">ImmutableModule</text>
<text text-anchor="middle" x="1018.4" y="-415.5" font-family="Times,serif" font-size="14.00">..contractssharedImmutableModule.sol</text>
</g>
<!-- 13&#45;&gt;9 -->
<g id="edge3" class="edge">
<title>13&#45;&gt;9</title>
<path fill="none" stroke="black" d="M963.83,-465.74C935.01,-480.65 899.47,-499.03 869.36,-514.61"/>
<polygon fill="black" stroke="black" points="867.48,-511.64 860.21,-519.35 870.7,-517.86 867.48,-511.64"/>
</g>
<!-- 15 -->
<g id="node4" class="node">
<title>15</title>
<polygon fill="#f2f2f2" stroke="black" points="917.29,-527.9 917.29,-569.5 1119.52,-569.5 1119.52,-527.9 917.29,-527.9"/>
<text text-anchor="middle" x="1018.4" y="-552.9" font-family="Times,serif" font-size="14.00">ModuleKeys</text>
<text text-anchor="middle" x="1018.4" y="-536.1" font-family="Times,serif" font-size="14.00">..contractssharedModuleKeys.sol</text>
</g>
<!-- 13&#45;&gt;15 -->
<g id="edge2" class="edge">
<title>13&#45;&gt;15</title>
<path fill="none" stroke="black" d="M1018.4,-465.88C1018.4,-475.57 1018.4,-486.72 1018.4,-497.61"/>
<polygon fill="none" stroke="black" points="1007.9,-497.76 1018.4,-527.76 1028.9,-497.76 1007.9,-497.76"/>
</g>
<!-- 16 -->
<g id="node5" class="node">
<title>16</title>
<polygon fill="#f2f2f2" stroke="black" points="404.51,-191.3 404.51,-249.7 636.3,-249.7 636.3,-191.3 404.51,-191.3"/>
<text text-anchor="middle" x="520.4" y="-233.1" font-family="Times,serif" font-size="14.00">&lt;&lt;Library&gt;&gt;</text>
<text text-anchor="middle" x="520.4" y="-216.3" font-family="Times,serif" font-size="14.00">SingleSlotMapper</text>
<text text-anchor="middle" x="520.4" y="-199.5" font-family="Times,serif" font-size="14.00">..contractssharedSingleSlotMapper.sol</text>
</g>
<!-- 17 -->
<g id="node6" class="node">
<title>17</title>
<polygon fill="#f2f2f2" stroke="black" points="921.8,-295.1 921.8,-353.5 1159,-353.5 1159,-295.1 921.8,-295.1"/>
<text text-anchor="middle" x="1040.4" y="-336.9" font-family="Times,serif" font-size="14.00">&lt;&lt;Abstract&gt;&gt;</text>
<text text-anchor="middle" x="1040.4" y="-320.1" font-family="Times,serif" font-size="14.00">VaultManagerRole</text>
<text text-anchor="middle" x="1040.4" y="-303.3" font-family="Times,serif" font-size="14.00">..contractssharedVaultManagerRole.sol</text>
</g>
<!-- 17&#45;&gt;13 -->
<g id="edge5" class="edge">
<title>17&#45;&gt;13</title>
<path fill="none" stroke="black" d="M1034.74,-353.68C1033.27,-361.01 1031.65,-369.16 1030,-377.41"/>
<polygon fill="none" stroke="black" points="1019.63,-375.74 1024.05,-407.22 1040.22,-379.85 1019.63,-375.74"/>
</g>
<!-- 157 -->
<g id="node13" class="node">
<title>157</title>
<polygon fill="#f2f2f2" stroke="black" points="1153.08,-398.9 1153.08,-474.1 1495.72,-474.1 1495.72,-398.9 1153.08,-398.9"/>
<text text-anchor="middle" x="1324.4" y="-457.5" font-family="Times,serif" font-size="14.00">&lt;&lt;Abstract&gt;&gt;</text>
<text text-anchor="middle" x="1324.4" y="-440.7" font-family="Times,serif" font-size="14.00">Pausable</text>
<text text-anchor="middle" x="1324.4" y="-423.9" font-family="Times,serif" font-size="14.00">..</text>
<text text-anchor="middle" x="1324.4" y="-407.1" font-family="Times,serif" font-size="14.00">ode_modules@openzeppelincontractssecurityPausable.sol</text>
</g>
<!-- 17&#45;&gt;157 -->
<g id="edge4" class="edge">
<title>17&#45;&gt;157</title>
<path fill="none" stroke="black" d="M1113.17,-353.54C1140.07,-363.97 1171.36,-376.12 1201.49,-387.8"/>
<polygon fill="none" stroke="black" points="1198.06,-397.74 1229.83,-398.8 1205.66,-378.16 1198.06,-397.74"/>
</g>
<!-- 19 -->
<g id="node7" class="node">
<title>19</title>
<polygon fill="#f2f2f2" stroke="black" points="1533.13,-295.1 1533.13,-353.5 1765.67,-353.5 1765.67,-295.1 1533.13,-295.1"/>
<text text-anchor="middle" x="1649.4" y="-336.9" font-family="Times,serif" font-size="14.00">&lt;&lt;Abstract&gt;&gt;</text>
<text text-anchor="middle" x="1649.4" y="-320.1" font-family="Times,serif" font-size="14.00">InitializableToken</text>
<text text-anchor="middle" x="1649.4" y="-303.3" font-family="Times,serif" font-size="14.00">..contractstokensInitializableToken.sol</text>
</g>
<!-- 20 -->
<g id="node8" class="node">
<title>20</title>
<polygon fill="#f2f2f2" stroke="black" points="1513.3,-407.3 1513.3,-465.7 1785.5,-465.7 1785.5,-407.3 1513.3,-407.3"/>
<text text-anchor="middle" x="1649.4" y="-449.1" font-family="Times,serif" font-size="14.00">&lt;&lt;Abstract&gt;&gt;</text>
<text text-anchor="middle" x="1649.4" y="-432.3" font-family="Times,serif" font-size="14.00">InitializableTokenDetails</text>
<text text-anchor="middle" x="1649.4" y="-415.5" font-family="Times,serif" font-size="14.00">..contractstokensInitializableTokenDetails.sol</text>
</g>
<!-- 19&#45;&gt;20 -->
<g id="edge7" class="edge">
<title>19&#45;&gt;20</title>
<path fill="none" stroke="black" d="M1649.4,-353.68C1649.4,-360.88 1649.4,-368.88 1649.4,-376.98"/>
<polygon fill="none" stroke="black" points="1638.9,-377.22 1649.4,-407.22 1659.9,-377.22 1638.9,-377.22"/>
</g>
<!-- 248 -->
<g id="node14" class="node">
<title>248</title>
<polygon fill="#f2f2f2" stroke="black" points="1803.9,-407.3 1803.9,-465.7 2148.91,-465.7 2148.91,-407.3 1803.9,-407.3"/>
<text text-anchor="middle" x="1976.4" y="-449.1" font-family="Times,serif" font-size="14.00">ERC20</text>
<text text-anchor="middle" x="1976.4" y="-432.3" font-family="Times,serif" font-size="14.00">..</text>
<text text-anchor="middle" x="1976.4" y="-415.5" font-family="Times,serif" font-size="14.00">ode_modules@openzeppelincontractstokenRC20RC20.sol</text>
</g>
<!-- 19&#45;&gt;248 -->
<g id="edge6" class="edge">
<title>19&#45;&gt;248</title>
<path fill="none" stroke="black" d="M1733.19,-353.54C1772.93,-366.93 1821,-383.13 1863.87,-397.58"/>
<polygon fill="none" stroke="black" points="1860.77,-407.61 1892.55,-407.24 1867.47,-387.71 1860.77,-407.61"/>
</g>
<!-- 27 -->
<g id="node9" class="node">
<title>27</title>
<polygon fill="#f2f2f2" stroke="black" points="940.46,-191.3 940.46,-249.7 1140.35,-249.7 1140.35,-191.3 940.46,-191.3"/>
<text text-anchor="middle" x="1040.4" y="-233.1" font-family="Times,serif" font-size="14.00">&lt;&lt;Abstract&gt;&gt;</text>
<text text-anchor="middle" x="1040.4" y="-216.3" font-family="Times,serif" font-size="14.00">AbstractVault</text>
<text text-anchor="middle" x="1040.4" y="-199.5" font-family="Times,serif" font-size="14.00">..contractsvaultAbstractVault.sol</text>
</g>
<!-- 27&#45;&gt;6 -->
<g id="edge8" class="edge">
<title>27&#45;&gt;6</title>
<path fill="none" stroke="black" stroke-dasharray="5,2" d="M940.39,-228.4C829.94,-237.16 647.24,-255.01 492.4,-286.2 489.61,-286.76 486.79,-287.36 483.94,-287.98"/>
<polygon fill="none" stroke="black" points="481.25,-277.83 454.56,-295.1 486.19,-298.24 481.25,-277.83"/>
</g>
<!-- 27&#45;&gt;17 -->
<g id="edge10" class="edge">
<title>27&#45;&gt;17</title>
<path fill="none" stroke="black" d="M1040.4,-249.86C1040.4,-254.6 1040.4,-259.67 1040.4,-264.85"/>
<polygon fill="none" stroke="black" points="1029.9,-265.1 1040.4,-295.1 1050.9,-265.1 1029.9,-265.1"/>
</g>
<!-- 27&#45;&gt;19 -->
<g id="edge9" class="edge">
<title>27&#45;&gt;19</title>
<path fill="none" stroke="black" d="M1140.63,-238.25C1239.29,-254.75 1391.05,-280.11 1503.17,-298.86"/>
<polygon fill="none" stroke="black" points="1501.62,-309.24 1532.94,-303.83 1505.08,-288.53 1501.62,-309.24"/>
</g>
<!-- 27&#45;&gt;249 -->
<g id="edge12" class="edge">
<title>27&#45;&gt;249</title>
<path fill="none" stroke="black" d="M1140.53,-220.58C1391.77,-220.71 2037.44,-237.03 2158.4,-398.4 2239.1,-506.05 2064.82,-579.54 1916.08,-620.57"/>
<polygon fill="black" stroke="black" points="1915.05,-617.22 1906.32,-623.22 1916.89,-623.97 1915.05,-617.22"/>
</g>
<!-- 369 -->
<g id="node18" class="node">
<title>369</title>
<polygon fill="#f2f2f2" stroke="black" points="501.13,-286.7 501.13,-361.9 903.68,-361.9 903.68,-286.7 501.13,-286.7"/>
<text text-anchor="middle" x="702.4" y="-345.3" font-family="Times,serif" font-size="14.00">&lt;&lt;Library&gt;&gt;</text>
<text text-anchor="middle" x="702.4" y="-328.5" font-family="Times,serif" font-size="14.00">SafeERC20</text>
<text text-anchor="middle" x="702.4" y="-311.7" font-family="Times,serif" font-size="14.00">..</text>
<text text-anchor="middle" x="702.4" y="-294.9" font-family="Times,serif" font-size="14.00">ode_modules@openzeppelincontractstokenRC20utilsSafeERC20.sol</text>
</g>
<!-- 27&#45;&gt;369 -->
<g id="edge11" class="edge">
<title>27&#45;&gt;369</title>
<path fill="none" stroke="black" stroke-dasharray="5,2" d="M946.7,-249.72C911.91,-260.2 871.76,-272.29 834.2,-283.61"/>
<polygon fill="black" stroke="black" points="832.76,-280.38 824.19,-286.62 834.78,-287.09 832.76,-280.38"/>
</g>
<!-- 50 -->
<g id="node10" class="node">
<title>50</title>
<polygon fill="#f2f2f2" stroke="black" points="877.87,-95.9 877.87,-154.3 1202.94,-154.3 1202.94,-95.9 877.87,-95.9"/>
<text text-anchor="middle" x="1040.4" y="-137.7" font-family="Times,serif" font-size="14.00">&lt;&lt;Abstract&gt;&gt;</text>
<text text-anchor="middle" x="1040.4" y="-120.9" font-family="Times,serif" font-size="14.00">AssetPerShareAbstractVault</text>
<text text-anchor="middle" x="1040.4" y="-104.1" font-family="Times,serif" font-size="14.00">..contractsvaultallocateAssetPerShareAbstractVault.sol</text>
</g>
<!-- 50&#45;&gt;27 -->
<g id="edge13" class="edge">
<title>50&#45;&gt;27</title>
<path fill="none" stroke="black" d="M1040.4,-154.38C1040.4,-156.46 1040.4,-158.6 1040.4,-160.78"/>
<polygon fill="none" stroke="black" points="1029.9,-161 1040.4,-191 1050.9,-161 1029.9,-161"/>
</g>
<!-- 51 -->
<g id="node11" class="node">
<title>51</title>
<polygon fill="#f2f2f2" stroke="black" points="497.82,-0.5 497.82,-58.9 846.99,-58.9 846.99,-0.5 497.82,-0.5"/>
<text text-anchor="middle" x="672.4" y="-42.3" font-family="Times,serif" font-size="14.00">&lt;&lt;Abstract&gt;&gt;</text>
<text text-anchor="middle" x="672.4" y="-25.5" font-family="Times,serif" font-size="14.00">PeriodicAllocationAbstractVault</text>
<text text-anchor="middle" x="672.4" y="-8.7" font-family="Times,serif" font-size="14.00">..contractsvaultallocatePeriodicAllocationAbstractVault.sol</text>
</g>
<!-- 51&#45;&gt;6 -->
<g id="edge16" class="edge">
<title>51&#45;&gt;6</title>
<path fill="none" stroke="black" stroke-dasharray="5,2" d="M551.98,-58.93C525.79,-68.14 499.14,-80.08 476.4,-95.4 430.27,-126.48 420.62,-141.22 395.4,-190.8 380.28,-220.54 372.11,-257.71 367.82,-285.11"/>
<polygon fill="black" stroke="black" points="364.34,-284.69 366.36,-295.09 371.27,-285.7 364.34,-284.69"/>
</g>
<!-- 51&#45;&gt;50 -->
<g id="edge15" class="edge">
<title>51&#45;&gt;50</title>
<path fill="none" stroke="black" d="M783.81,-58.98C820.39,-68.26 861.52,-78.7 899.96,-88.46"/>
<polygon fill="none" stroke="black" points="897.39,-98.64 929.05,-95.84 902.56,-78.28 897.39,-98.64"/>
</g>
<!-- 55 -->
<g id="node12" class="node">
<title>55</title>
<polygon fill="#f2f2f2" stroke="black" points="484.98,-95.9 484.98,-154.3 859.83,-154.3 859.83,-95.9 484.98,-95.9"/>
<text text-anchor="middle" x="672.4" y="-137.7" font-family="Times,serif" font-size="14.00">&lt;&lt;Abstract&gt;&gt;</text>
<text text-anchor="middle" x="672.4" y="-120.9" font-family="Times,serif" font-size="14.00">SameAssetUnderlyingsAbstractVault</text>
<text text-anchor="middle" x="672.4" y="-104.1" font-family="Times,serif" font-size="14.00">..contractsvaultallocateSameAssetUnderlyingsAbstractVault.sol</text>
</g>
<!-- 51&#45;&gt;55 -->
<g id="edge14" class="edge">
<title>51&#45;&gt;55</title>
<path fill="none" stroke="black" d="M672.4,-58.98C672.4,-61.06 672.4,-63.2 672.4,-65.38"/>
<polygon fill="none" stroke="black" points="661.9,-65.6 672.4,-95.6 682.9,-65.6 661.9,-65.6"/>
</g>
<!-- 55&#45;&gt;6 -->
<g id="edge20" class="edge">
<title>55&#45;&gt;6</title>
<path fill="none" stroke="black" d="M674.29,-154.49C674.53,-182.59 670.21,-224.97 645.4,-250.2 596.42,-300.01 559.99,-268.54 492.4,-286.2 484.95,-288.15 477.27,-290.21 469.55,-292.32"/>
<polygon fill="black" stroke="black" points="468.47,-288.99 459.77,-295.03 470.34,-295.74 468.47,-288.99"/>
</g>
<!-- 55&#45;&gt;16 -->
<g id="edge19" class="edge">
<title>55&#45;&gt;16</title>
<path fill="none" stroke="black" stroke-dasharray="5,2" d="M626.38,-154.38C610.24,-164.3 591.94,-175.54 575.15,-185.86"/>
<polygon fill="black" stroke="black" points="573.21,-182.94 566.53,-191.16 576.88,-188.91 573.21,-182.94"/>
</g>
<!-- 55&#45;&gt;27 -->
<g id="edge17" class="edge">
<title>55&#45;&gt;27</title>
<path fill="none" stroke="black" d="M783.81,-154.38C823.9,-164.55 869.47,-176.12 910.96,-186.65"/>
<polygon fill="none" stroke="black" points="908.66,-196.9 940.32,-194.1 913.82,-176.54 908.66,-196.9"/>
</g>
<!-- 55&#45;&gt;369 -->
<g id="edge18" class="edge">
<title>55&#45;&gt;369</title>
<path fill="none" stroke="black" stroke-dasharray="5,2" d="M676.7,-154.35C681.53,-186.09 689.44,-238.11 695.22,-276.06"/>
<polygon fill="black" stroke="black" points="691.82,-277 696.78,-286.36 698.74,-275.94 691.82,-277"/>
</g>
<!-- 166 -->
<g id="node20" class="node">
<title>166</title>
<polygon fill="#f2f2f2" stroke="black" points="1165.9,-511.1 1165.9,-586.3 1482.9,-586.3 1482.9,-511.1 1165.9,-511.1"/>
<text text-anchor="middle" x="1324.4" y="-569.7" font-family="Times,serif" font-size="14.00">&lt;&lt;Abstract&gt;&gt;</text>
<text text-anchor="middle" x="1324.4" y="-552.9" font-family="Times,serif" font-size="14.00">Context</text>
<text text-anchor="middle" x="1324.4" y="-536.1" font-family="Times,serif" font-size="14.00">..</text>
<text text-anchor="middle" x="1324.4" y="-519.3" font-family="Times,serif" font-size="14.00">ode_modules@openzeppelincontractsutilsContext.sol</text>
</g>
<!-- 157&#45;&gt;166 -->
<g id="edge21" class="edge">
<title>157&#45;&gt;166</title>
<path fill="none" stroke="black" d="M1324.4,-474.2C1324.4,-476.31 1324.4,-478.47 1324.4,-480.65"/>
<polygon fill="none" stroke="black" points="1313.9,-480.79 1324.4,-510.79 1334.9,-480.79 1313.9,-480.79"/>
</g>
<!-- 248&#45;&gt;249 -->
<g id="edge23" class="edge">
<title>248&#45;&gt;249</title>
<path fill="none" stroke="black" stroke-dasharray="5,2" d="M1986.44,-465.91C1995.99,-498.48 2005.41,-551.86 1979.4,-586.8 1972.28,-596.37 1957.31,-605.16 1938.13,-613.06"/>
<polygon fill="none" stroke="black" points="1934.37,-603.25 1909.7,-623.29 1941.48,-623.02 1934.37,-603.25"/>
</g>
<!-- 366 -->
<g id="node16" class="node">
<title>366</title>
<polygon fill="#f2f2f2" stroke="black" points="1500.7,-511.1 1500.7,-586.3 1970.11,-586.3 1970.11,-511.1 1500.7,-511.1"/>
<text text-anchor="middle" x="1735.4" y="-569.7" font-family="Times,serif" font-size="14.00">&lt;&lt;Interface&gt;&gt;</text>
<text text-anchor="middle" x="1735.4" y="-552.9" font-family="Times,serif" font-size="14.00">IERC20Metadata</text>
<text text-anchor="middle" x="1735.4" y="-536.1" font-family="Times,serif" font-size="14.00">..</text>
<text text-anchor="middle" x="1735.4" y="-519.3" font-family="Times,serif" font-size="14.00">ode_modules@openzeppelincontractstokenRC20extensionsIERC20Metadata.sol</text>
</g>
<!-- 248&#45;&gt;366 -->
<g id="edge24" class="edge">
<title>248&#45;&gt;366</title>
<path fill="none" stroke="black" stroke-dasharray="5,2" d="M1914.65,-465.74C1892.88,-475.69 1867.73,-487.19 1843.27,-498.38"/>
<polygon fill="none" stroke="black" points="1838.57,-488.98 1815.66,-511 1847.31,-508.08 1838.57,-488.98"/>
</g>
<!-- 248&#45;&gt;166 -->
<g id="edge22" class="edge">
<title>248&#45;&gt;166</title>
<path fill="none" stroke="black" d="M1844.43,-465.74C1827.63,-468.94 1810.64,-471.99 1794.4,-474.6 1670.45,-494.56 1630.9,-488.93 1512.95,-507.19"/>
<polygon fill="none" stroke="black" points="1510.92,-496.88 1482.99,-512.07 1514.29,-517.61 1510.92,-496.88"/>
</g>
<!-- 366&#45;&gt;249 -->
<g id="edge25" class="edge">
<title>366&#45;&gt;249</title>
<path fill="none" stroke="black" stroke-dasharray="5,2" d="M1735.4,-586.4C1735.4,-588.51 1735.4,-590.67 1735.4,-592.85"/>
<polygon fill="none" stroke="black" points="1724.9,-592.99 1735.4,-622.99 1745.9,-592.99 1724.9,-592.99"/>
</g>
<!-- 354 -->
<g id="node17" class="node">
<title>354</title>
<polygon fill="#f2f2f2" stroke="black" points="61.53,-398.9 61.53,-474.1 547.27,-474.1 547.27,-398.9 61.53,-398.9"/>
<text text-anchor="middle" x="304.4" y="-457.5" font-family="Times,serif" font-size="14.00">&lt;&lt;Interface&gt;&gt;</text>
<text text-anchor="middle" x="304.4" y="-440.7" font-family="Times,serif" font-size="14.00">IERC20Permit</text>
<text text-anchor="middle" x="304.4" y="-423.9" font-family="Times,serif" font-size="14.00">..</text>
<text text-anchor="middle" x="304.4" y="-407.1" font-family="Times,serif" font-size="14.00">ode_modules@openzeppelincontractstokenRC20extensionsdraft&#45;IERC20Permit.sol</text>
</g>
<!-- 369&#45;&gt;249 -->
<g id="edge27" class="edge">
<title>369&#45;&gt;249</title>
<path fill="none" stroke="black" stroke-dasharray="5,2" d="M500.88,-361.15C497.7,-361.58 494.54,-362 491.4,-362.4 291.67,-388.09 -77.32,-320.57 52.4,-474.6 147.34,-587.33 1126.49,-637.16 1546.14,-653.45"/>
<polygon fill="black" stroke="black" points="1546.13,-656.96 1556.26,-653.84 1546.4,-649.96 1546.13,-656.96"/>
</g>
<!-- 369&#45;&gt;354 -->
<g id="edge28" class="edge">
<title>369&#45;&gt;354</title>
<path fill="none" stroke="black" stroke-dasharray="5,2" d="M570.15,-361.92C530.55,-372.88 486.96,-384.95 446.74,-396.09"/>
<polygon fill="black" stroke="black" points="445.57,-392.78 436.86,-398.82 447.44,-399.53 445.57,-392.78"/>
</g>
<!-- 160 -->
<g id="node19" class="node">
<title>160</title>
<polygon fill="#f2f2f2" stroke="black" points="565.13,-398.9 565.13,-474.1 883.68,-474.1 883.68,-398.9 565.13,-398.9"/>
<text text-anchor="middle" x="724.4" y="-457.5" font-family="Times,serif" font-size="14.00">&lt;&lt;Library&gt;&gt;</text>
<text text-anchor="middle" x="724.4" y="-440.7" font-family="Times,serif" font-size="14.00">Address</text>
<text text-anchor="middle" x="724.4" y="-423.9" font-family="Times,serif" font-size="14.00">..</text>
<text text-anchor="middle" x="724.4" y="-407.1" font-family="Times,serif" font-size="14.00">ode_modules@openzeppelincontractsutilsAddress.sol</text>
</g>
<!-- 369&#45;&gt;160 -->
<g id="edge26" class="edge">
<title>369&#45;&gt;160</title>
<path fill="none" stroke="black" stroke-dasharray="5,2" d="M709.73,-362C711.44,-370.55 713.28,-379.77 715.06,-388.69"/>
<polygon fill="black" stroke="black" points="711.64,-389.47 717.03,-398.59 718.51,-388.1 711.64,-389.47"/>
</g>
</g>
</svg>
