<?xml version="1.0" encoding="UTF-8" standalone="no"?>
<!DOCTYPE svg PUBLIC "-//W3C//DTD SVG 1.1//EN"
 "http://www.w3.org/Graphics/SVG/1.1/DTD/svg11.dtd">
<!-- Generated by graphviz version 5.0.0 (20220707.1540)
 -->
<!-- Title: UmlClassDiagram Pages: 1 -->
<svg width="1921pt" height="640pt"
 viewBox="0.00 0.00 1920.56 639.80" xmlns="http://www.w3.org/2000/svg" xmlns:xlink="http://www.w3.org/1999/xlink">
<g id="graph0" class="graph" transform="scale(1 1) rotate(0) translate(4 635.8)">
<title>UmlClassDiagram</title>
<polygon fill="white" stroke="transparent" points="-4,4 -4,-635.8 1916.56,-635.8 1916.56,4 -4,4"/>
<!-- 7 -->
<g id="node1" class="node">
<title>7</title>
<polygon fill="#f2f2f2" stroke="black" points="1662.12,-286.7 1662.12,-345.1 1912.56,-345.1 1912.56,-286.7 1662.12,-286.7"/>
<text text-anchor="middle" x="1787.34" y="-328.5" font-family="Times,serif" font-size="14.00">&lt;&lt;Interface&gt;&gt;</text>
<text text-anchor="middle" x="1787.34" y="-311.7" font-family="Times,serif" font-size="14.00">IERC4626Vault</text>
<text text-anchor="middle" x="1787.34" y="-294.9" font-family="Times,serif" font-size="14.00">../contracts/interfaces/IERC4626Vault.sol</text>
</g>
<!-- 306 -->
<g id="node15" class="node">
<title>306</title>
<polygon fill="#f2f2f2" stroke="black" points="283.29,-572.9 283.29,-631.3 687.4,-631.3 687.4,-572.9 283.29,-572.9"/>
<text text-anchor="middle" x="485.34" y="-614.7" font-family="Times,serif" font-size="14.00">&lt;&lt;Interface&gt;&gt;</text>
<text text-anchor="middle" x="485.34" y="-597.9" font-family="Times,serif" font-size="14.00">IERC20</text>
<text text-anchor="middle" x="485.34" y="-581.1" font-family="Times,serif" font-size="14.00">../node_modules/@openzeppelin/contracts/token/ERC20/IERC20.sol</text>
</g>
<!-- 7&#45;&gt;306 -->
<g id="edge1" class="edge">
<title>7&#45;&gt;306</title>
<path fill="none" stroke="black" stroke-dasharray="5,2" d="M1802.38,-345.34C1814.27,-372.11 1826.02,-412.28 1807.34,-441 1750.35,-528.64 1693.94,-511.75 1592.34,-536.4 1432.42,-575.2 992.37,-591.03 717.68,-597.27"/>
<polygon fill="none" stroke="black" points="717.27,-586.78 687.51,-597.93 717.74,-607.77 717.27,-586.78"/>
</g>
<!-- 9 -->
<g id="node2" class="node">
<title>9</title>
<polygon fill="#f2f2f2" stroke="black" points="1131.4,-477.5 1131.4,-535.9 1331.28,-535.9 1331.28,-477.5 1131.4,-477.5"/>
<text text-anchor="middle" x="1231.34" y="-519.3" font-family="Times,serif" font-size="14.00">&lt;&lt;Interface&gt;&gt;</text>
<text text-anchor="middle" x="1231.34" y="-502.5" font-family="Times,serif" font-size="14.00">INexus</text>
<text text-anchor="middle" x="1231.34" y="-485.7" font-family="Times,serif" font-size="14.00">../contracts/interfaces/INexus.sol</text>
</g>
<!-- 13 -->
<g id="node3" class="node">
<title>13</title>
<polygon fill="#f2f2f2" stroke="black" points="1144.46,-382.1 1144.46,-440.5 1390.23,-440.5 1390.23,-382.1 1144.46,-382.1"/>
<text text-anchor="middle" x="1267.34" y="-423.9" font-family="Times,serif" font-size="14.00">&lt;&lt;Abstract&gt;&gt;</text>
<text text-anchor="middle" x="1267.34" y="-407.1" font-family="Times,serif" font-size="14.00">ImmutableModule</text>
<text text-anchor="middle" x="1267.34" y="-390.3" font-family="Times,serif" font-size="14.00">../contracts/shared/ImmutableModule.sol</text>
</g>
<!-- 13&#45;&gt;9 -->
<g id="edge3" class="edge">
<title>13&#45;&gt;9</title>
<path fill="none" stroke="black" d="M1256.45,-440.58C1253.16,-449.09 1249.5,-458.58 1246.02,-467.63"/>
<polygon fill="black" stroke="black" points="1242.66,-466.61 1242.33,-477.2 1249.19,-469.13 1242.66,-466.61"/>
</g>
<!-- 15 -->
<g id="node4" class="node">
<title>15</title>
<polygon fill="#f2f2f2" stroke="black" points="1349.39,-485.9 1349.39,-527.5 1563.29,-527.5 1563.29,-485.9 1349.39,-485.9"/>
<text text-anchor="middle" x="1456.34" y="-510.9" font-family="Times,serif" font-size="14.00">ModuleKeys</text>
<text text-anchor="middle" x="1456.34" y="-494.1" font-family="Times,serif" font-size="14.00">../contracts/shared/ModuleKeys.sol</text>
</g>
<!-- 13&#45;&gt;15 -->
<g id="edge2" class="edge">
<title>13&#45;&gt;15</title>
<path fill="none" stroke="black" d="M1324.56,-440.58C1344.88,-450.62 1367.94,-462.01 1389.02,-472.43"/>
<polygon fill="none" stroke="black" points="1384.56,-481.94 1416.1,-485.81 1393.86,-463.11 1384.56,-481.94"/>
</g>
<!-- 18 -->
<g id="node5" class="node">
<title>18</title>
<polygon fill="#f2f2f2" stroke="black" points="1484.61,-191.3 1484.61,-249.7 1728.07,-249.7 1728.07,-191.3 1484.61,-191.3"/>
<text text-anchor="middle" x="1606.34" y="-233.1" font-family="Times,serif" font-size="14.00">&lt;&lt;Library&gt;&gt;</text>
<text text-anchor="middle" x="1606.34" y="-216.3" font-family="Times,serif" font-size="14.00">SingleSlotMapper</text>
<text text-anchor="middle" x="1606.34" y="-199.5" font-family="Times,serif" font-size="14.00">../contracts/shared/SingleSlotMapper.sol</text>
</g>
<!-- 20 -->
<g id="node6" class="node">
<title>20</title>
<polygon fill="#f2f2f2" stroke="black" points="924.91,-286.7 924.91,-345.1 1173.78,-345.1 1173.78,-286.7 924.91,-286.7"/>
<text text-anchor="middle" x="1049.34" y="-328.5" font-family="Times,serif" font-size="14.00">&lt;&lt;Abstract&gt;&gt;</text>
<text text-anchor="middle" x="1049.34" y="-311.7" font-family="Times,serif" font-size="14.00">VaultManagerRole</text>
<text text-anchor="middle" x="1049.34" y="-294.9" font-family="Times,serif" font-size="14.00">../contracts/shared/VaultManagerRole.sol</text>
</g>
<!-- 20&#45;&gt;13 -->
<g id="edge5" class="edge">
<title>20&#45;&gt;13</title>
<path fill="none" stroke="black" d="M1115.34,-345.18C1133.61,-353 1153.8,-361.66 1173.34,-370.03"/>
<polygon fill="none" stroke="black" points="1169.48,-379.8 1201.19,-381.96 1177.75,-360.49 1169.48,-379.8"/>
</g>
<!-- 137 -->
<g id="node13" class="node">
<title>137</title>
<polygon fill="#f2f2f2" stroke="black" points="750.3,-382.1 750.3,-440.5 1126.39,-440.5 1126.39,-382.1 750.3,-382.1"/>
<text text-anchor="middle" x="938.34" y="-423.9" font-family="Times,serif" font-size="14.00">&lt;&lt;Abstract&gt;&gt;</text>
<text text-anchor="middle" x="938.34" y="-407.1" font-family="Times,serif" font-size="14.00">Pausable</text>
<text text-anchor="middle" x="938.34" y="-390.3" font-family="Times,serif" font-size="14.00">../node_modules/@openzeppelin/contracts/security/Pausable.sol</text>
</g>
<!-- 20&#45;&gt;137 -->
<g id="edge4" class="edge">
<title>20&#45;&gt;137</title>
<path fill="none" stroke="black" d="M1015.74,-345.18C1009.28,-350.61 1002.35,-356.45 995.38,-362.31"/>
<polygon fill="none" stroke="black" points="988.41,-354.45 972.22,-381.8 1001.93,-370.52 988.41,-354.45"/>
</g>
<!-- 22 -->
<g id="node7" class="node">
<title>22</title>
<polygon fill="#f2f2f2" stroke="black" points="410.24,-286.7 410.24,-345.1 654.45,-345.1 654.45,-286.7 410.24,-286.7"/>
<text text-anchor="middle" x="532.34" y="-328.5" font-family="Times,serif" font-size="14.00">&lt;&lt;Abstract&gt;&gt;</text>
<text text-anchor="middle" x="532.34" y="-311.7" font-family="Times,serif" font-size="14.00">InitializableToken</text>
<text text-anchor="middle" x="532.34" y="-294.9" font-family="Times,serif" font-size="14.00">../contracts/tokens/InitializableToken.sol</text>
</g>
<!-- 23 -->
<g id="node8" class="node">
<title>23</title>
<polygon fill="#f2f2f2" stroke="black" points="30.41,-382.1 30.41,-440.5 314.28,-440.5 314.28,-382.1 30.41,-382.1"/>
<text text-anchor="middle" x="172.34" y="-423.9" font-family="Times,serif" font-size="14.00">&lt;&lt;Abstract&gt;&gt;</text>
<text text-anchor="middle" x="172.34" y="-407.1" font-family="Times,serif" font-size="14.00">InitializableTokenDetails</text>
<text text-anchor="middle" x="172.34" y="-390.3" font-family="Times,serif" font-size="14.00">../contracts/tokens/InitializableTokenDetails.sol</text>
</g>
<!-- 22&#45;&gt;23 -->
<g id="edge7" class="edge">
<title>22&#45;&gt;23</title>
<path fill="none" stroke="black" d="M423.36,-345.18C387.84,-354.39 347.93,-364.75 310.56,-374.44"/>
<polygon fill="none" stroke="black" points="307.67,-364.34 281.27,-382.04 312.95,-384.67 307.67,-364.34"/>
</g>
<!-- 305 -->
<g id="node14" class="node">
<title>305</title>
<polygon fill="#f2f2f2" stroke="black" points="332.62,-390.5 332.62,-432.1 732.07,-432.1 732.07,-390.5 332.62,-390.5"/>
<text text-anchor="middle" x="532.34" y="-415.5" font-family="Times,serif" font-size="14.00">ERC20</text>
<text text-anchor="middle" x="532.34" y="-398.7" font-family="Times,serif" font-size="14.00">../node_modules/@openzeppelin/contracts/token/ERC20/ERC20.sol</text>
</g>
<!-- 22&#45;&gt;305 -->
<g id="edge6" class="edge">
<title>22&#45;&gt;305</title>
<path fill="none" stroke="black" d="M532.34,-345.18C532.34,-349.97 532.34,-355.07 532.34,-360.22"/>
<polygon fill="none" stroke="black" points="521.84,-360.41 532.34,-390.41 542.84,-360.41 521.84,-360.41"/>
</g>
<!-- 30 -->
<g id="node9" class="node">
<title>30</title>
<polygon fill="#f2f2f2" stroke="black" points="943.56,-191.3 943.56,-249.7 1155.13,-249.7 1155.13,-191.3 943.56,-191.3"/>
<text text-anchor="middle" x="1049.34" y="-233.1" font-family="Times,serif" font-size="14.00">&lt;&lt;Abstract&gt;&gt;</text>
<text text-anchor="middle" x="1049.34" y="-216.3" font-family="Times,serif" font-size="14.00">AbstractVault</text>
<text text-anchor="middle" x="1049.34" y="-199.5" font-family="Times,serif" font-size="14.00">../contracts/vault/AbstractVault.sol</text>
</g>
<!-- 30&#45;&gt;7 -->
<g id="edge8" class="edge">
<title>30&#45;&gt;7</title>
<path fill="none" stroke="black" stroke-dasharray="5,2" d="M1155.35,-229.49C1269.75,-238.85 1458.01,-256.37 1632.11,-282.95"/>
<polygon fill="none" stroke="black" points="1630.62,-293.35 1661.88,-287.61 1633.87,-272.6 1630.62,-293.35"/>
</g>
<!-- 30&#45;&gt;20 -->
<g id="edge10" class="edge">
<title>30&#45;&gt;20</title>
<path fill="none" stroke="black" d="M1049.34,-249.78C1049.34,-251.86 1049.34,-254 1049.34,-256.18"/>
<polygon fill="none" stroke="black" points="1038.84,-256.4 1049.34,-286.4 1059.84,-256.4 1038.84,-256.4"/>
</g>
<!-- 30&#45;&gt;22 -->
<g id="edge9" class="edge">
<title>30&#45;&gt;22</title>
<path fill="none" stroke="black" d="M943.47,-240.63C868.88,-254.1 767.88,-272.35 684.65,-287.39"/>
<polygon fill="none" stroke="black" points="682.53,-277.1 654.87,-292.76 686.26,-297.76 682.53,-277.1"/>
</g>
<!-- 30&#45;&gt;306 -->
<g id="edge12" class="edge">
<title>30&#45;&gt;306</title>
<path fill="none" stroke="black" d="M943.29,-220.67C703.76,-221.38 133.06,-238.38 21.34,-381.6 -61.4,-487.68 114.81,-544.98 273.32,-574.14"/>
<polygon fill="black" stroke="black" points="272.79,-577.6 283.25,-575.94 274.04,-570.71 272.79,-577.6"/>
</g>
<!-- 573 -->
<g id="node17" class="node">
<title>573</title>
<polygon fill="#f2f2f2" stroke="black" points="1192.18,-286.7 1192.18,-345.1 1644.51,-345.1 1644.51,-286.7 1192.18,-286.7"/>
<text text-anchor="middle" x="1418.34" y="-328.5" font-family="Times,serif" font-size="14.00">&lt;&lt;Library&gt;&gt;</text>
<text text-anchor="middle" x="1418.34" y="-311.7" font-family="Times,serif" font-size="14.00">SafeERC20</text>
<text text-anchor="middle" x="1418.34" y="-294.9" font-family="Times,serif" font-size="14.00">../node_modules/@openzeppelin/contracts/token/ERC20/utils/SafeERC20.sol</text>
</g>
<!-- 30&#45;&gt;573 -->
<g id="edge11" class="edge">
<title>30&#45;&gt;573</title>
<path fill="none" stroke="black" stroke-dasharray="5,2" d="M1155.58,-248.39C1199.71,-259.56 1251.18,-272.59 1296.81,-284.14"/>
<polygon fill="black" stroke="black" points="1296.2,-287.59 1306.76,-286.66 1297.92,-280.81 1296.2,-287.59"/>
</g>
<!-- 57 -->
<g id="node10" class="node">
<title>57</title>
<polygon fill="#f2f2f2" stroke="black" points="879.03,-95.9 879.03,-154.3 1219.66,-154.3 1219.66,-95.9 879.03,-95.9"/>
<text text-anchor="middle" x="1049.34" y="-137.7" font-family="Times,serif" font-size="14.00">&lt;&lt;Abstract&gt;&gt;</text>
<text text-anchor="middle" x="1049.34" y="-120.9" font-family="Times,serif" font-size="14.00">AssetPerShareAbstractVault</text>
<text text-anchor="middle" x="1049.34" y="-104.1" font-family="Times,serif" font-size="14.00">../contracts/vault/allocate/AssetPerShareAbstractVault.sol</text>
</g>
<!-- 57&#45;&gt;30 -->
<g id="edge13" class="edge">
<title>57&#45;&gt;30</title>
<path fill="none" stroke="black" d="M1049.34,-154.38C1049.34,-156.46 1049.34,-158.6 1049.34,-160.78"/>
<polygon fill="none" stroke="black" points="1038.84,-161 1049.34,-191 1059.84,-161 1038.84,-161"/>
</g>
<!-- 58 -->
<g id="node11" class="node">
<title>58</title>
<polygon fill="#f2f2f2" stroke="black" points="1250.98,-0.5 1250.98,-58.9 1615.71,-58.9 1615.71,-0.5 1250.98,-0.5"/>
<text text-anchor="middle" x="1433.34" y="-42.3" font-family="Times,serif" font-size="14.00">&lt;&lt;Abstract&gt;&gt;</text>
<text text-anchor="middle" x="1433.34" y="-25.5" font-family="Times,serif" font-size="14.00">PeriodicAllocationAbstractVault</text>
<text text-anchor="middle" x="1433.34" y="-8.7" font-family="Times,serif" font-size="14.00">../contracts/vault/allocate/PeriodicAllocationAbstractVault.sol</text>
</g>
<!-- 58&#45;&gt;7 -->
<g id="edge16" class="edge">
<title>58&#45;&gt;7</title>
<path fill="none" stroke="black" stroke-dasharray="5,2" d="M1553.76,-58.92C1582.25,-68.26 1611.77,-80.26 1637.34,-95.4 1690.2,-126.69 1702.87,-139.96 1737.34,-190.8 1755.3,-217.27 1768.41,-251.18 1776.69,-276.86"/>
<polygon fill="black" stroke="black" points="1773.41,-278.11 1779.73,-286.61 1780.09,-276.02 1773.41,-278.11"/>
</g>
<!-- 58&#45;&gt;57 -->
<g id="edge15" class="edge">
<title>58&#45;&gt;57</title>
<path fill="none" stroke="black" d="M1317.35,-58.91C1278.71,-68.31 1235.18,-78.9 1194.61,-88.77"/>
<polygon fill="none" stroke="black" points="1192.02,-78.59 1165.35,-95.88 1196.99,-99 1192.02,-78.59"/>
</g>
<!-- 62 -->
<g id="node12" class="node">
<title>62</title>
<polygon fill="#f2f2f2" stroke="black" points="1238.14,-95.9 1238.14,-154.3 1628.55,-154.3 1628.55,-95.9 1238.14,-95.9"/>
<text text-anchor="middle" x="1433.34" y="-137.7" font-family="Times,serif" font-size="14.00">&lt;&lt;Abstract&gt;&gt;</text>
<text text-anchor="middle" x="1433.34" y="-120.9" font-family="Times,serif" font-size="14.00">SameAssetUnderlyingsAbstractVault</text>
<text text-anchor="middle" x="1433.34" y="-104.1" font-family="Times,serif" font-size="14.00">../contracts/vault/allocate/SameAssetUnderlyingsAbstractVault.sol</text>
</g>
<!-- 58&#45;&gt;62 -->
<g id="edge14" class="edge">
<title>58&#45;&gt;62</title>
<path fill="none" stroke="black" d="M1433.34,-58.98C1433.34,-61.06 1433.34,-63.2 1433.34,-65.38"/>
<polygon fill="none" stroke="black" points="1422.84,-65.6 1433.34,-95.6 1443.84,-65.6 1422.84,-65.6"/>
</g>
<!-- 62&#45;&gt;7 -->
<g id="edge20" class="edge">
<title>62&#45;&gt;7</title>
<path fill="none" stroke="black" d="M1435.02,-154.42C1438.28,-182.89 1447.78,-225.92 1475.34,-250.2 1533.55,-301.46 1571.29,-272.26 1651.78,-286.06"/>
<polygon fill="black" stroke="black" points="1651.34,-289.54 1661.82,-287.97 1652.65,-282.66 1651.34,-289.54"/>
</g>
<!-- 62&#45;&gt;18 -->
<g id="edge19" class="edge">
<title>62&#45;&gt;18</title>
<path fill="none" stroke="black" stroke-dasharray="5,2" d="M1485.72,-154.38C1504.35,-164.43 1525.49,-175.85 1544.82,-186.28"/>
<polygon fill="black" stroke="black" points="1543.39,-189.49 1553.85,-191.16 1546.71,-183.33 1543.39,-189.49"/>
</g>
<!-- 62&#45;&gt;30 -->
<g id="edge17" class="edge">
<title>62&#45;&gt;30</title>
<path fill="none" stroke="black" d="M1317.35,-154.31C1275.46,-164.5 1227.82,-176.09 1184.44,-186.64"/>
<polygon fill="none" stroke="black" points="1181.88,-176.46 1155.21,-193.75 1186.84,-196.86 1181.88,-176.46"/>
</g>
<!-- 62&#45;&gt;573 -->
<g id="edge18" class="edge">
<title>62&#45;&gt;573</title>
<path fill="none" stroke="black" stroke-dasharray="5,2" d="M1431.1,-154.37C1428.52,-186.76 1424.29,-240.04 1421.41,-276.25"/>
<polygon fill="black" stroke="black" points="1417.91,-276.2 1420.61,-286.44 1424.89,-276.75 1417.91,-276.2"/>
</g>
<!-- 146 -->
<g id="node19" class="node">
<title>146</title>
<polygon fill="#f2f2f2" stroke="black" points="763.12,-477.5 763.12,-535.9 1113.57,-535.9 1113.57,-477.5 763.12,-477.5"/>
<text text-anchor="middle" x="938.34" y="-519.3" font-family="Times,serif" font-size="14.00">&lt;&lt;Abstract&gt;&gt;</text>
<text text-anchor="middle" x="938.34" y="-502.5" font-family="Times,serif" font-size="14.00">Context</text>
<text text-anchor="middle" x="938.34" y="-485.7" font-family="Times,serif" font-size="14.00">../node_modules/@openzeppelin/contracts/utils/Context.sol</text>
</g>
<!-- 137&#45;&gt;146 -->
<g id="edge21" class="edge">
<title>137&#45;&gt;146</title>
<path fill="none" stroke="black" d="M938.34,-440.58C938.34,-442.66 938.34,-444.8 938.34,-446.98"/>
<polygon fill="none" stroke="black" points="927.84,-447.2 938.34,-477.2 948.84,-447.2 927.84,-447.2"/>
</g>
<!-- 305&#45;&gt;306 -->
<g id="edge23" class="edge">
<title>305&#45;&gt;306</title>
<path fill="none" stroke="black" stroke-dasharray="5,2" d="M395.74,-432.11C315.84,-445.1 228.32,-462.33 216.34,-477 199.65,-497.45 200,-515.66 216.34,-536.4 224.96,-547.34 243.48,-556.64 266.98,-564.49"/>
<polygon fill="none" stroke="black" points="264.2,-574.62 295.94,-572.89 270.05,-554.45 264.2,-574.62"/>
</g>
<!-- 568 -->
<g id="node16" class="node">
<title>568</title>
<polygon fill="#f2f2f2" stroke="black" points="225.75,-477.5 225.75,-535.9 744.94,-535.9 744.94,-477.5 225.75,-477.5"/>
<text text-anchor="middle" x="485.34" y="-519.3" font-family="Times,serif" font-size="14.00">&lt;&lt;Interface&gt;&gt;</text>
<text text-anchor="middle" x="485.34" y="-502.5" font-family="Times,serif" font-size="14.00">IERC20Metadata</text>
<text text-anchor="middle" x="485.34" y="-485.7" font-family="Times,serif" font-size="14.00">../node_modules/@openzeppelin/contracts/token/ERC20/extensions/IERC20Metadata.sol</text>
</g>
<!-- 305&#45;&gt;568 -->
<g id="edge24" class="edge">
<title>305&#45;&gt;568</title>
<path fill="none" stroke="black" stroke-dasharray="5,2" d="M522.38,-432.11C519.58,-437.67 516.4,-443.99 513.1,-450.55"/>
<polygon fill="none" stroke="black" points="503.68,-445.9 499.58,-477.42 522.44,-455.34 503.68,-445.9"/>
</g>
<!-- 305&#45;&gt;146 -->
<g id="edge22" class="edge">
<title>305&#45;&gt;146</title>
<path fill="none" stroke="black" d="M618.45,-432.11C667.1,-443.3 729.33,-457.62 785.96,-470.64"/>
<polygon fill="none" stroke="black" points="783.8,-480.92 815.39,-477.42 788.51,-460.46 783.8,-480.92"/>
</g>
<!-- 568&#45;&gt;306 -->
<g id="edge25" class="edge">
<title>568&#45;&gt;306</title>
<path fill="none" stroke="black" stroke-dasharray="5,2" d="M485.34,-535.98C485.34,-538.06 485.34,-540.2 485.34,-542.38"/>
<polygon fill="none" stroke="black" points="474.84,-542.6 485.34,-572.6 495.84,-542.6 474.84,-542.6"/>
</g>
<!-- 573&#45;&gt;306 -->
<g id="edge27" class="edge">
<title>573&#45;&gt;306</title>
<path fill="none" stroke="black" stroke-dasharray="5,2" d="M1414.53,-345.21C1412.46,-373.05 1414.06,-415.04 1437.34,-441 1478.8,-487.23 1534.51,-427.76 1572.34,-477 1588.43,-497.93 1590.45,-517.19 1572.34,-536.4 1542.85,-567.7 1005.92,-587.2 697.94,-595.85"/>
<polygon fill="black" stroke="black" points="697.44,-592.37 687.54,-596.14 697.63,-599.36 697.44,-592.37"/>
</g>
<!-- 140 -->
<g id="node18" class="node">
<title>140</title>
<polygon fill="#f2f2f2" stroke="black" points="1446.34,-382.1 1446.34,-440.5 1798.34,-440.5 1798.34,-382.1 1446.34,-382.1"/>
<text text-anchor="middle" x="1622.34" y="-423.9" font-family="Times,serif" font-size="14.00">&lt;&lt;Library&gt;&gt;</text>
<text text-anchor="middle" x="1622.34" y="-407.1" font-family="Times,serif" font-size="14.00">Address</text>
<text text-anchor="middle" x="1622.34" y="-390.3" font-family="Times,serif" font-size="14.00">../node_modules/@openzeppelin/contracts/utils/Address.sol</text>
</g>
<!-- 573&#45;&gt;140 -->
<g id="edge26" class="edge">
<title>573&#45;&gt;140</title>
<path fill="none" stroke="black" stroke-dasharray="5,2" d="M1480.1,-345.18C1502.57,-355.46 1528.14,-367.17 1551.34,-377.79"/>
<polygon fill="black" stroke="black" points="1549.89,-380.98 1560.44,-381.96 1552.81,-374.61 1549.89,-380.98"/>
</g>
</g>
</svg>
