<?xml version="1.0" encoding="UTF-8" standalone="no"?>
<!DOCTYPE svg PUBLIC "-//W3C//DTD SVG 1.1//EN"
 "http://www.w3.org/Graphics/SVG/1.1/DTD/svg11.dtd">
<!-- Generated by graphviz version 5.0.0 (20220707.1540)
 -->
<!-- Title: UmlClassDiagram Pages: 1 -->
<svg width="1494pt" height="640pt"
 viewBox="0.00 0.00 1494.19 639.80" xmlns="http://www.w3.org/2000/svg" xmlns:xlink="http://www.w3.org/1999/xlink">
<g id="graph0" class="graph" transform="scale(1 1) rotate(0) translate(4 635.8)">
<title>UmlClassDiagram</title>
<polygon fill="white" stroke="transparent" points="-4,4 -4,-635.8 1490.19,-635.8 1490.19,4 -4,4"/>
<!-- 7 -->
<g id="node1" class="node">
<title>7</title>
<polygon fill="#f2f2f2" stroke="black" points="0,-286.7 0,-345.1 250.44,-345.1 250.44,-286.7 0,-286.7"/>
<text text-anchor="middle" x="125.22" y="-328.5" font-family="Times,serif" font-size="14.00">&lt;&lt;Interface&gt;&gt;</text>
<text text-anchor="middle" x="125.22" y="-311.7" font-family="Times,serif" font-size="14.00">IERC4626Vault</text>
<text text-anchor="middle" x="125.22" y="-294.9" font-family="Times,serif" font-size="14.00">../contracts/interfaces/IERC4626Vault.sol</text>
</g>
<!-- 430 -->
<g id="node14" class="node">
<title>430</title>
<polygon fill="#f2f2f2" stroke="black" points="717.16,-572.9 717.16,-631.3 1121.27,-631.3 1121.27,-572.9 717.16,-572.9"/>
<text text-anchor="middle" x="919.22" y="-614.7" font-family="Times,serif" font-size="14.00">&lt;&lt;Interface&gt;&gt;</text>
<text text-anchor="middle" x="919.22" y="-597.9" font-family="Times,serif" font-size="14.00">IERC20</text>
<text text-anchor="middle" x="919.22" y="-581.1" font-family="Times,serif" font-size="14.00">../node_modules/@openzeppelin/contracts/token/ERC20/IERC20.sol</text>
</g>
<!-- 7&#45;&gt;430 -->
<g id="edge1" class="edge">
<title>7&#45;&gt;430</title>
<path fill="none" stroke="black" stroke-dasharray="5,2" d="M71.15,-345.13C57.98,-354.81 45.57,-366.97 38.22,-381.6 7.33,-443.07 -8.61,-486 38.22,-536.4 81.64,-583.13 440.73,-596.45 686.84,-600.04"/>
<polygon fill="none" stroke="black" points="686.88,-610.55 717.01,-600.45 687.16,-589.55 686.88,-610.55"/>
</g>
<!-- 10 -->
<g id="node2" class="node">
<title>10</title>
<polygon fill="#f2f2f2" stroke="black" points="47.28,-477.5 47.28,-535.9 247.16,-535.9 247.16,-477.5 47.28,-477.5"/>
<text text-anchor="middle" x="147.22" y="-519.3" font-family="Times,serif" font-size="14.00">&lt;&lt;Interface&gt;&gt;</text>
<text text-anchor="middle" x="147.22" y="-502.5" font-family="Times,serif" font-size="14.00">INexus</text>
<text text-anchor="middle" x="147.22" y="-485.7" font-family="Times,serif" font-size="14.00">../contracts/interfaces/INexus.sol</text>
</g>
<!-- 17 -->
<g id="node3" class="node">
<title>17</title>
<polygon fill="#f2f2f2" stroke="black" points="47.33,-382.1 47.33,-440.5 293.11,-440.5 293.11,-382.1 47.33,-382.1"/>
<text text-anchor="middle" x="170.22" y="-423.9" font-family="Times,serif" font-size="14.00">&lt;&lt;Abstract&gt;&gt;</text>
<text text-anchor="middle" x="170.22" y="-407.1" font-family="Times,serif" font-size="14.00">ImmutableModule</text>
<text text-anchor="middle" x="170.22" y="-390.3" font-family="Times,serif" font-size="14.00">../contracts/shared/ImmutableModule.sol</text>
</g>
<!-- 17&#45;&gt;10 -->
<g id="edge3" class="edge">
<title>17&#45;&gt;10</title>
<path fill="none" stroke="black" d="M163.26,-440.58C161.18,-449 158.87,-458.38 156.67,-467.34"/>
<polygon fill="black" stroke="black" points="153.23,-466.65 154.24,-477.2 160.03,-468.32 153.23,-466.65"/>
</g>
<!-- 19 -->
<g id="node4" class="node">
<title>19</title>
<polygon fill="#f2f2f2" stroke="black" points="265.27,-485.9 265.27,-527.5 479.17,-527.5 479.17,-485.9 265.27,-485.9"/>
<text text-anchor="middle" x="372.22" y="-510.9" font-family="Times,serif" font-size="14.00">ModuleKeys</text>
<text text-anchor="middle" x="372.22" y="-494.1" font-family="Times,serif" font-size="14.00">../contracts/shared/ModuleKeys.sol</text>
</g>
<!-- 17&#45;&gt;19 -->
<g id="edge2" class="edge">
<title>17&#45;&gt;19</title>
<path fill="none" stroke="black" d="M231.37,-440.58C253.58,-450.85 278.85,-462.53 301.8,-473.14"/>
<polygon fill="none" stroke="black" points="297.57,-482.75 329.21,-485.81 306.39,-463.69 297.57,-482.75"/>
</g>
<!-- 23 -->
<g id="node5" class="node">
<title>23</title>
<polygon fill="#f2f2f2" stroke="black" points="374.78,-286.7 374.78,-345.1 623.66,-345.1 623.66,-286.7 374.78,-286.7"/>
<text text-anchor="middle" x="499.22" y="-328.5" font-family="Times,serif" font-size="14.00">&lt;&lt;Abstract&gt;&gt;</text>
<text text-anchor="middle" x="499.22" y="-311.7" font-family="Times,serif" font-size="14.00">VaultManagerRole</text>
<text text-anchor="middle" x="499.22" y="-294.9" font-family="Times,serif" font-size="14.00">../contracts/shared/VaultManagerRole.sol</text>
</g>
<!-- 23&#45;&gt;17 -->
<g id="edge5" class="edge">
<title>23&#45;&gt;17</title>
<path fill="none" stroke="black" d="M399.62,-345.18C367.88,-354.19 332.31,-364.28 298.82,-373.79"/>
<polygon fill="none" stroke="black" points="295.76,-363.75 269.77,-382.04 301.5,-383.95 295.76,-363.75"/>
</g>
<!-- 281 -->
<g id="node12" class="node">
<title>281</title>
<polygon fill="#f2f2f2" stroke="black" points="311.18,-382.1 311.18,-440.5 687.26,-440.5 687.26,-382.1 311.18,-382.1"/>
<text text-anchor="middle" x="499.22" y="-423.9" font-family="Times,serif" font-size="14.00">&lt;&lt;Abstract&gt;&gt;</text>
<text text-anchor="middle" x="499.22" y="-407.1" font-family="Times,serif" font-size="14.00">Pausable</text>
<text text-anchor="middle" x="499.22" y="-390.3" font-family="Times,serif" font-size="14.00">../node_modules/@openzeppelin/contracts/security/Pausable.sol</text>
</g>
<!-- 23&#45;&gt;281 -->
<g id="edge4" class="edge">
<title>23&#45;&gt;281</title>
<path fill="none" stroke="black" d="M499.22,-345.18C499.22,-347.26 499.22,-349.4 499.22,-351.58"/>
<polygon fill="none" stroke="black" points="488.72,-351.8 499.22,-381.8 509.72,-351.8 488.72,-351.8"/>
</g>
<!-- 25 -->
<g id="node6" class="node">
<title>25</title>
<polygon fill="#f2f2f2" stroke="black" points="725.11,-286.7 725.11,-345.1 969.32,-345.1 969.32,-286.7 725.11,-286.7"/>
<text text-anchor="middle" x="847.22" y="-328.5" font-family="Times,serif" font-size="14.00">&lt;&lt;Abstract&gt;&gt;</text>
<text text-anchor="middle" x="847.22" y="-311.7" font-family="Times,serif" font-size="14.00">InitializableToken</text>
<text text-anchor="middle" x="847.22" y="-294.9" font-family="Times,serif" font-size="14.00">../contracts/tokens/InitializableToken.sol</text>
</g>
<!-- 26 -->
<g id="node7" class="node">
<title>26</title>
<polygon fill="#f2f2f2" stroke="black" points="705.29,-382.1 705.29,-440.5 989.15,-440.5 989.15,-382.1 705.29,-382.1"/>
<text text-anchor="middle" x="847.22" y="-423.9" font-family="Times,serif" font-size="14.00">&lt;&lt;Abstract&gt;&gt;</text>
<text text-anchor="middle" x="847.22" y="-407.1" font-family="Times,serif" font-size="14.00">InitializableTokenDetails</text>
<text text-anchor="middle" x="847.22" y="-390.3" font-family="Times,serif" font-size="14.00">../contracts/tokens/InitializableTokenDetails.sol</text>
</g>
<!-- 25&#45;&gt;26 -->
<g id="edge7" class="edge">
<title>25&#45;&gt;26</title>
<path fill="none" stroke="black" d="M847.22,-345.18C847.22,-347.26 847.22,-349.4 847.22,-351.58"/>
<polygon fill="none" stroke="black" points="836.72,-351.8 847.22,-381.8 857.72,-351.8 836.72,-351.8"/>
</g>
<!-- 429 -->
<g id="node13" class="node">
<title>429</title>
<polygon fill="#f2f2f2" stroke="black" points="1007.5,-390.5 1007.5,-432.1 1406.94,-432.1 1406.94,-390.5 1007.5,-390.5"/>
<text text-anchor="middle" x="1207.22" y="-415.5" font-family="Times,serif" font-size="14.00">ERC20</text>
<text text-anchor="middle" x="1207.22" y="-398.7" font-family="Times,serif" font-size="14.00">../node_modules/@openzeppelin/contracts/token/ERC20/ERC20.sol</text>
</g>
<!-- 25&#45;&gt;429 -->
<g id="edge6" class="edge">
<title>25&#45;&gt;429</title>
<path fill="none" stroke="black" d="M956.21,-345.18C1002.36,-357.15 1055.92,-371.05 1101.69,-382.92"/>
<polygon fill="none" stroke="black" points="1099.17,-393.12 1130.85,-390.49 1104.45,-372.79 1099.17,-393.12"/>
</g>
<!-- 39 -->
<g id="node8" class="node">
<title>39</title>
<polygon fill="#f2f2f2" stroke="black" points="393.44,-191.3 393.44,-249.7 605,-249.7 605,-191.3 393.44,-191.3"/>
<text text-anchor="middle" x="499.22" y="-233.1" font-family="Times,serif" font-size="14.00">&lt;&lt;Abstract&gt;&gt;</text>
<text text-anchor="middle" x="499.22" y="-216.3" font-family="Times,serif" font-size="14.00">AbstractVault</text>
<text text-anchor="middle" x="499.22" y="-199.5" font-family="Times,serif" font-size="14.00">../contracts/vault/AbstractVault.sol</text>
</g>
<!-- 39&#45;&gt;7 -->
<g id="edge8" class="edge">
<title>39&#45;&gt;7</title>
<path fill="none" stroke="black" stroke-dasharray="5,2" d="M393.05,-248.01C354.03,-257.76 309.19,-268.96 267.5,-279.37"/>
<polygon fill="none" stroke="black" points="264.75,-269.23 238.19,-286.69 269.84,-289.61 264.75,-269.23"/>
</g>
<!-- 39&#45;&gt;23 -->
<g id="edge10" class="edge">
<title>39&#45;&gt;23</title>
<path fill="none" stroke="black" d="M499.22,-249.78C499.22,-251.86 499.22,-254 499.22,-256.18"/>
<polygon fill="none" stroke="black" points="488.72,-256.4 499.22,-286.4 509.72,-256.4 488.72,-256.4"/>
</g>
<!-- 39&#45;&gt;25 -->
<g id="edge9" class="edge">
<title>39&#45;&gt;25</title>
<path fill="none" stroke="black" d="M604.58,-249.78C638.65,-258.92 676.91,-269.19 712.8,-278.82"/>
<polygon fill="none" stroke="black" points="710.23,-289 741.92,-286.64 715.67,-268.72 710.23,-289"/>
</g>
<!-- 39&#45;&gt;430 -->
<g id="edge11" class="edge">
<title>39&#45;&gt;430</title>
<path fill="none" stroke="black" d="M605.36,-228.77C817.92,-245.11 1286.58,-290.62 1416.22,-381.6 1457.22,-410.37 1462.34,-428.87 1476.22,-477 1483.53,-502.37 1493.78,-516.68 1476.22,-536.4 1452.86,-562.63 1278.84,-579.85 1131.44,-589.88"/>
<polygon fill="black" stroke="black" points="1131.07,-586.39 1121.32,-590.56 1131.54,-593.38 1131.07,-586.39"/>
</g>
<!-- 128 -->
<g id="node9" class="node">
<title>128</title>
<polygon fill="#f2f2f2" stroke="black" points="328.91,-95.9 328.91,-154.3 669.53,-154.3 669.53,-95.9 328.91,-95.9"/>
<text text-anchor="middle" x="499.22" y="-137.7" font-family="Times,serif" font-size="14.00">&lt;&lt;Abstract&gt;&gt;</text>
<text text-anchor="middle" x="499.22" y="-120.9" font-family="Times,serif" font-size="14.00">AssetPerShareAbstractVault</text>
<text text-anchor="middle" x="499.22" y="-104.1" font-family="Times,serif" font-size="14.00">../contracts/vault/allocate/AssetPerShareAbstractVault.sol</text>
</g>
<!-- 128&#45;&gt;39 -->
<g id="edge12" class="edge">
<title>128&#45;&gt;39</title>
<path fill="none" stroke="black" d="M499.22,-154.38C499.22,-156.46 499.22,-158.6 499.22,-160.78"/>
<polygon fill="none" stroke="black" points="488.72,-161 499.22,-191 509.72,-161 488.72,-161"/>
</g>
<!-- 131 -->
<g id="node10" class="node">
<title>131</title>
<polygon fill="#f2f2f2" stroke="black" points="316.85,-0.5 316.85,-58.9 681.58,-58.9 681.58,-0.5 316.85,-0.5"/>
<text text-anchor="middle" x="499.22" y="-42.3" font-family="Times,serif" font-size="14.00">&lt;&lt;Abstract&gt;&gt;</text>
<text text-anchor="middle" x="499.22" y="-25.5" font-family="Times,serif" font-size="14.00">PeriodicAllocationAbstractVault</text>
<text text-anchor="middle" x="499.22" y="-8.7" font-family="Times,serif" font-size="14.00">../contracts/vault/allocate/PeriodicAllocationAbstractVault.sol</text>
</g>
<!-- 131&#45;&gt;39 -->
<g id="edge15" class="edge">
<title>131&#45;&gt;39</title>
<path fill="none" stroke="black" stroke-dasharray="5,2" d="M362.94,-59.02C346.18,-68.02 331.13,-79.85 320.22,-95.4 305.05,-117.01 305.05,-133.19 320.22,-154.8 335.45,-176.5 358.73,-190.96 383.5,-200.58"/>
<polygon fill="black" stroke="black" points="382.46,-203.92 393.05,-204.03 384.84,-197.34 382.46,-203.92"/>
</g>
<!-- 131&#45;&gt;128 -->
<g id="edge14" class="edge">
<title>131&#45;&gt;128</title>
<path fill="none" stroke="black" d="M499.22,-58.98C499.22,-61.06 499.22,-63.2 499.22,-65.38"/>
<polygon fill="none" stroke="black" points="488.72,-65.6 499.22,-95.6 509.72,-65.6 488.72,-65.6"/>
</g>
<!-- 133 -->
<g id="node11" class="node">
<title>133</title>
<polygon fill="#f2f2f2" stroke="black" points="688.02,-95.9 688.02,-154.3 1078.42,-154.3 1078.42,-95.9 688.02,-95.9"/>
<text text-anchor="middle" x="883.22" y="-137.7" font-family="Times,serif" font-size="14.00">&lt;&lt;Abstract&gt;&gt;</text>
<text text-anchor="middle" x="883.22" y="-120.9" font-family="Times,serif" font-size="14.00">SameAssetUnderlyingsAbstractVault</text>
<text text-anchor="middle" x="883.22" y="-104.1" font-family="Times,serif" font-size="14.00">../contracts/vault/allocate/SameAssetUnderlyingsAbstractVault.sol</text>
</g>
<!-- 131&#45;&gt;133 -->
<g id="edge13" class="edge">
<title>131&#45;&gt;133</title>
<path fill="none" stroke="black" d="M615.21,-58.91C653.85,-68.31 697.38,-78.9 737.95,-88.77"/>
<polygon fill="none" stroke="black" points="735.58,-99 767.21,-95.88 740.54,-78.59 735.58,-99"/>
</g>
<!-- 133&#45;&gt;39 -->
<g id="edge16" class="edge">
<title>133&#45;&gt;39</title>
<path fill="none" stroke="black" d="M767.23,-154.31C725.34,-164.5 677.69,-176.09 634.31,-186.64"/>
<polygon fill="none" stroke="black" points="631.75,-176.46 605.08,-193.75 636.71,-196.86 631.75,-176.46"/>
</g>
<!-- 290 -->
<g id="node16" class="node">
<title>290</title>
<polygon fill="#f2f2f2" stroke="black" points="519,-477.5 519,-535.9 869.44,-535.9 869.44,-477.5 519,-477.5"/>
<text text-anchor="middle" x="694.22" y="-519.3" font-family="Times,serif" font-size="14.00">&lt;&lt;Abstract&gt;&gt;</text>
<text text-anchor="middle" x="694.22" y="-502.5" font-family="Times,serif" font-size="14.00">Context</text>
<text text-anchor="middle" x="694.22" y="-485.7" font-family="Times,serif" font-size="14.00">../node_modules/@openzeppelin/contracts/utils/Context.sol</text>
</g>
<!-- 281&#45;&gt;290 -->
<g id="edge17" class="edge">
<title>281&#45;&gt;290</title>
<path fill="none" stroke="black" d="M558.25,-440.58C573.84,-448.04 590.98,-456.25 607.69,-464.26"/>
<polygon fill="none" stroke="black" points="603.46,-473.87 635.05,-477.36 612.53,-454.93 603.46,-473.87"/>
</g>
<!-- 429&#45;&gt;430 -->
<g id="edge19" class="edge">
<title>429&#45;&gt;430</title>
<path fill="none" stroke="black" stroke-dasharray="5,2" d="M1063.45,-432.17C1009.23,-442.6 956.26,-457.37 938.22,-477 922.18,-494.45 916.34,-519.47 914.92,-542.48"/>
<polygon fill="none" stroke="black" points="904.43,-542.79 915.27,-572.67 925.43,-542.55 904.43,-542.79"/>
</g>
<!-- 691 -->
<g id="node15" class="node">
<title>691</title>
<polygon fill="#f2f2f2" stroke="black" points="947.63,-477.5 947.63,-535.9 1466.81,-535.9 1466.81,-477.5 947.63,-477.5"/>
<text text-anchor="middle" x="1207.22" y="-519.3" font-family="Times,serif" font-size="14.00">&lt;&lt;Interface&gt;&gt;</text>
<text text-anchor="middle" x="1207.22" y="-502.5" font-family="Times,serif" font-size="14.00">IERC20Metadata</text>
<text text-anchor="middle" x="1207.22" y="-485.7" font-family="Times,serif" font-size="14.00">../node_modules/@openzeppelin/contracts/token/ERC20/extensions/IERC20Metadata.sol</text>
</g>
<!-- 429&#45;&gt;691 -->
<g id="edge20" class="edge">
<title>429&#45;&gt;691</title>
<path fill="none" stroke="black" stroke-dasharray="5,2" d="M1207.22,-432.11C1207.22,-436.74 1207.22,-441.91 1207.22,-447.29"/>
<polygon fill="none" stroke="black" points="1196.72,-447.42 1207.22,-477.42 1217.72,-447.42 1196.72,-447.42"/>
</g>
<!-- 429&#45;&gt;290 -->
<g id="edge18" class="edge">
<title>429&#45;&gt;290</title>
<path fill="none" stroke="black" d="M1098.43,-432.11C1034.83,-443.69 952.87,-458.61 879.39,-471.99"/>
<polygon fill="none" stroke="black" points="877.21,-461.71 849.57,-477.42 880.97,-482.37 877.21,-461.71"/>
</g>
<!-- 691&#45;&gt;430 -->
<g id="edge21" class="edge">
<title>691&#45;&gt;430</title>
<path fill="none" stroke="black" stroke-dasharray="5,2" d="M1120.03,-535.98C1093.36,-544.62 1063.61,-554.27 1035.34,-563.44"/>
<polygon fill="none" stroke="black" points="1031.91,-553.52 1006.61,-572.76 1038.39,-573.49 1031.91,-553.52"/>
</g>
</g>
</svg>
