<?xml version="1.0" encoding="UTF-8" standalone="no"?>
<!DOCTYPE svg PUBLIC "-//W3C//DTD SVG 1.1//EN"
 "http://www.w3.org/Graphics/SVG/1.1/DTD/svg11.dtd">
<!-- Generated by graphviz version 5.0.0 (20220707.1540)
 -->
<!-- Title: UmlClassDiagram Pages: 1 -->
<svg width="1857pt" height="718pt"
 viewBox="0.00 0.00 1856.82 718.40" xmlns="http://www.w3.org/2000/svg" xmlns:xlink="http://www.w3.org/1999/xlink">
<g id="graph0" class="graph" transform="scale(1 1) rotate(0) translate(4 714.4)">
<title>UmlClassDiagram</title>
<polygon fill="white" stroke="transparent" points="-4,4 -4,-714.4 1852.82,-714.4 1852.82,4 -4,4"/>
<!-- 7 -->
<g id="node1" class="node">
<title>7</title>
<polygon fill="#f2f2f2" stroke="black" points="95.66,-365.3 95.66,-423.7 346.1,-423.7 346.1,-365.3 95.66,-365.3"/>
<text text-anchor="middle" x="220.88" y="-407.1" font-family="Times,serif" font-size="14.00">&lt;&lt;Interface&gt;&gt;</text>
<text text-anchor="middle" x="220.88" y="-390.3" font-family="Times,serif" font-size="14.00">IERC4626Vault</text>
<text text-anchor="middle" x="220.88" y="-373.5" font-family="Times,serif" font-size="14.00">../contracts/interfaces/IERC4626Vault.sol</text>
</g>
<!-- 306 -->
<g id="node18" class="node">
<title>306</title>
<polygon fill="#f2f2f2" stroke="black" points="94.83,-651.5 94.83,-709.9 498.94,-709.9 498.94,-651.5 94.83,-651.5"/>
<text text-anchor="middle" x="296.88" y="-693.3" font-family="Times,serif" font-size="14.00">&lt;&lt;Interface&gt;&gt;</text>
<text text-anchor="middle" x="296.88" y="-676.5" font-family="Times,serif" font-size="14.00">IERC20</text>
<text text-anchor="middle" x="296.88" y="-659.7" font-family="Times,serif" font-size="14.00">../node_modules/@openzeppelin/contracts/token/ERC20/IERC20.sol</text>
</g>
<!-- 7&#45;&gt;306 -->
<g id="edge1" class="edge">
<title>7&#45;&gt;306</title>
<path fill="none" stroke="black" stroke-dasharray="5,2" d="M219.04,-423.76C217.31,-466.8 218.17,-550.55 244.88,-615 246.55,-619.02 248.54,-622.98 250.76,-626.86"/>
<polygon fill="none" stroke="black" points="242.35,-633.15 268.36,-651.42 259.42,-620.91 242.35,-633.15"/>
</g>
<!-- 9 -->
<g id="node2" class="node">
<title>9</title>
<polygon fill="#f2f2f2" stroke="black" points="1648.94,-556.1 1648.94,-614.5 1848.82,-614.5 1848.82,-556.1 1648.94,-556.1"/>
<text text-anchor="middle" x="1748.88" y="-597.9" font-family="Times,serif" font-size="14.00">&lt;&lt;Interface&gt;&gt;</text>
<text text-anchor="middle" x="1748.88" y="-581.1" font-family="Times,serif" font-size="14.00">INexus</text>
<text text-anchor="middle" x="1748.88" y="-564.3" font-family="Times,serif" font-size="14.00">../contracts/interfaces/INexus.sol</text>
</g>
<!-- 13 -->
<g id="node3" class="node">
<title>13</title>
<polygon fill="#f2f2f2" stroke="black" points="1400.99,-460.7 1400.99,-519.1 1646.77,-519.1 1646.77,-460.7 1400.99,-460.7"/>
<text text-anchor="middle" x="1523.88" y="-502.5" font-family="Times,serif" font-size="14.00">&lt;&lt;Abstract&gt;&gt;</text>
<text text-anchor="middle" x="1523.88" y="-485.7" font-family="Times,serif" font-size="14.00">ImmutableModule</text>
<text text-anchor="middle" x="1523.88" y="-468.9" font-family="Times,serif" font-size="14.00">../contracts/shared/ImmutableModule.sol</text>
</g>
<!-- 13&#45;&gt;9 -->
<g id="edge3" class="edge">
<title>13&#45;&gt;9</title>
<path fill="none" stroke="black" d="M1592,-519.18C1617,-529.55 1645.48,-541.38 1671.25,-552.07"/>
<polygon fill="black" stroke="black" points="1670.03,-555.36 1680.61,-555.96 1672.71,-548.89 1670.03,-555.36"/>
</g>
<!-- 15 -->
<g id="node4" class="node">
<title>15</title>
<polygon fill="#f2f2f2" stroke="black" points="1416.93,-564.5 1416.93,-606.1 1630.83,-606.1 1630.83,-564.5 1416.93,-564.5"/>
<text text-anchor="middle" x="1523.88" y="-589.5" font-family="Times,serif" font-size="14.00">ModuleKeys</text>
<text text-anchor="middle" x="1523.88" y="-572.7" font-family="Times,serif" font-size="14.00">../contracts/shared/ModuleKeys.sol</text>
</g>
<!-- 13&#45;&gt;15 -->
<g id="edge2" class="edge">
<title>13&#45;&gt;15</title>
<path fill="none" stroke="black" d="M1523.88,-519.18C1523.88,-523.97 1523.88,-529.07 1523.88,-534.22"/>
<polygon fill="none" stroke="black" points="1513.38,-534.41 1523.88,-564.41 1534.38,-534.41 1513.38,-534.41"/>
</g>
<!-- 20 -->
<g id="node5" class="node">
<title>20</title>
<polygon fill="#f2f2f2" stroke="black" points="1070.45,-365.3 1070.45,-423.7 1319.32,-423.7 1319.32,-365.3 1070.45,-365.3"/>
<text text-anchor="middle" x="1194.88" y="-407.1" font-family="Times,serif" font-size="14.00">&lt;&lt;Abstract&gt;&gt;</text>
<text text-anchor="middle" x="1194.88" y="-390.3" font-family="Times,serif" font-size="14.00">VaultManagerRole</text>
<text text-anchor="middle" x="1194.88" y="-373.5" font-family="Times,serif" font-size="14.00">../contracts/shared/VaultManagerRole.sol</text>
</g>
<!-- 20&#45;&gt;13 -->
<g id="edge5" class="edge">
<title>20&#45;&gt;13</title>
<path fill="none" stroke="black" d="M1294.49,-423.78C1326.22,-432.79 1361.79,-442.88 1395.28,-452.39"/>
<polygon fill="none" stroke="black" points="1392.61,-462.55 1424.33,-460.64 1398.34,-442.35 1392.61,-462.55"/>
</g>
<!-- 137 -->
<g id="node16" class="node">
<title>137</title>
<polygon fill="#f2f2f2" stroke="black" points="1006.84,-460.7 1006.84,-519.1 1382.92,-519.1 1382.92,-460.7 1006.84,-460.7"/>
<text text-anchor="middle" x="1194.88" y="-502.5" font-family="Times,serif" font-size="14.00">&lt;&lt;Abstract&gt;&gt;</text>
<text text-anchor="middle" x="1194.88" y="-485.7" font-family="Times,serif" font-size="14.00">Pausable</text>
<text text-anchor="middle" x="1194.88" y="-468.9" font-family="Times,serif" font-size="14.00">../node_modules/@openzeppelin/contracts/security/Pausable.sol</text>
</g>
<!-- 20&#45;&gt;137 -->
<g id="edge4" class="edge">
<title>20&#45;&gt;137</title>
<path fill="none" stroke="black" d="M1194.88,-423.78C1194.88,-425.86 1194.88,-428 1194.88,-430.18"/>
<polygon fill="none" stroke="black" points="1184.38,-430.4 1194.88,-460.4 1205.38,-430.4 1184.38,-430.4"/>
</g>
<!-- 22 -->
<g id="node6" class="node">
<title>22</title>
<polygon fill="#f2f2f2" stroke="black" points="482.78,-365.3 482.78,-423.7 726.99,-423.7 726.99,-365.3 482.78,-365.3"/>
<text text-anchor="middle" x="604.88" y="-407.1" font-family="Times,serif" font-size="14.00">&lt;&lt;Abstract&gt;&gt;</text>
<text text-anchor="middle" x="604.88" y="-390.3" font-family="Times,serif" font-size="14.00">InitializableToken</text>
<text text-anchor="middle" x="604.88" y="-373.5" font-family="Times,serif" font-size="14.00">../contracts/tokens/InitializableToken.sol</text>
</g>
<!-- 23 -->
<g id="node7" class="node">
<title>23</title>
<polygon fill="#f2f2f2" stroke="black" points="704.95,-460.7 704.95,-519.1 988.81,-519.1 988.81,-460.7 704.95,-460.7"/>
<text text-anchor="middle" x="846.88" y="-502.5" font-family="Times,serif" font-size="14.00">&lt;&lt;Abstract&gt;&gt;</text>
<text text-anchor="middle" x="846.88" y="-485.7" font-family="Times,serif" font-size="14.00">InitializableTokenDetails</text>
<text text-anchor="middle" x="846.88" y="-468.9" font-family="Times,serif" font-size="14.00">../contracts/tokens/InitializableTokenDetails.sol</text>
</g>
<!-- 22&#45;&gt;23 -->
<g id="edge7" class="edge">
<title>22&#45;&gt;23</title>
<path fill="none" stroke="black" d="M678.15,-423.78C699.25,-431.92 722.67,-440.96 745.17,-449.65"/>
<polygon fill="none" stroke="black" points="741.68,-459.55 773.45,-460.56 749.24,-439.96 741.68,-459.55"/>
</g>
<!-- 305 -->
<g id="node17" class="node">
<title>305</title>
<polygon fill="#f2f2f2" stroke="black" points="287.16,-469.1 287.16,-510.7 686.61,-510.7 686.61,-469.1 287.16,-469.1"/>
<text text-anchor="middle" x="486.88" y="-494.1" font-family="Times,serif" font-size="14.00">ERC20</text>
<text text-anchor="middle" x="486.88" y="-477.3" font-family="Times,serif" font-size="14.00">../node_modules/@openzeppelin/contracts/token/ERC20/ERC20.sol</text>
</g>
<!-- 22&#45;&gt;305 -->
<g id="edge6" class="edge">
<title>22&#45;&gt;305</title>
<path fill="none" stroke="black" d="M569.16,-423.78C558.64,-432.11 546.94,-441.37 535.74,-450.23"/>
<polygon fill="none" stroke="black" points="529.01,-442.16 512.01,-469.01 542.05,-458.63 529.01,-442.16"/>
</g>
<!-- 30 -->
<g id="node8" class="node">
<title>30</title>
<polygon fill="#f2f2f2" stroke="black" points="499.1,-269.9 499.1,-328.3 710.66,-328.3 710.66,-269.9 499.1,-269.9"/>
<text text-anchor="middle" x="604.88" y="-311.7" font-family="Times,serif" font-size="14.00">&lt;&lt;Abstract&gt;&gt;</text>
<text text-anchor="middle" x="604.88" y="-294.9" font-family="Times,serif" font-size="14.00">AbstractVault</text>
<text text-anchor="middle" x="604.88" y="-278.1" font-family="Times,serif" font-size="14.00">../contracts/vault/AbstractVault.sol</text>
</g>
<!-- 30&#45;&gt;7 -->
<g id="edge8" class="edge">
<title>30&#45;&gt;7</title>
<path fill="none" stroke="black" stroke-dasharray="5,2" d="M498.94,-325.87C457.98,-335.83 410.45,-347.39 366.38,-358.11"/>
<polygon fill="none" stroke="black" points="363.6,-347.98 336.93,-365.27 368.56,-368.39 363.6,-347.98"/>
</g>
<!-- 30&#45;&gt;20 -->
<g id="edge10" class="edge">
<title>30&#45;&gt;20</title>
<path fill="none" stroke="black" d="M710.7,-316.85C802.53,-331.39 936.66,-352.62 1040.47,-369.06"/>
<polygon fill="none" stroke="black" points="1038.98,-379.45 1070.26,-373.77 1042.27,-358.71 1038.98,-379.45"/>
</g>
<!-- 30&#45;&gt;22 -->
<g id="edge9" class="edge">
<title>30&#45;&gt;22</title>
<path fill="none" stroke="black" d="M604.88,-328.38C604.88,-330.46 604.88,-332.6 604.88,-334.78"/>
<polygon fill="none" stroke="black" points="594.38,-335 604.88,-365 615.38,-335 594.38,-335"/>
</g>
<!-- 30&#45;&gt;306 -->
<g id="edge11" class="edge">
<title>30&#45;&gt;306</title>
<path fill="none" stroke="black" d="M547.47,-328.39C524.56,-339.69 497.96,-352.84 473.88,-364.8 420.94,-391.09 408.1,-398.48 354.88,-424.2 320.87,-440.64 298.16,-428.33 277.88,-460.2 242.61,-515.63 263.23,-595.51 280.61,-642.06"/>
<polygon fill="black" stroke="black" points="277.38,-643.41 284.25,-651.47 283.91,-640.88 277.38,-643.41"/>
</g>
<!-- 57 -->
<g id="node9" class="node">
<title>57</title>
<polygon fill="#f2f2f2" stroke="black" points="434.57,-174.5 434.57,-232.9 775.19,-232.9 775.19,-174.5 434.57,-174.5"/>
<text text-anchor="middle" x="604.88" y="-216.3" font-family="Times,serif" font-size="14.00">&lt;&lt;Abstract&gt;&gt;</text>
<text text-anchor="middle" x="604.88" y="-199.5" font-family="Times,serif" font-size="14.00">AssetPerShareAbstractVault</text>
<text text-anchor="middle" x="604.88" y="-182.7" font-family="Times,serif" font-size="14.00">../contracts/vault/allocate/AssetPerShareAbstractVault.sol</text>
</g>
<!-- 57&#45;&gt;30 -->
<g id="edge12" class="edge">
<title>57&#45;&gt;30</title>
<path fill="none" stroke="black" d="M604.88,-232.98C604.88,-235.06 604.88,-237.2 604.88,-239.38"/>
<polygon fill="none" stroke="black" points="594.38,-239.6 604.88,-269.6 615.38,-239.6 594.38,-239.6"/>
</g>
<!-- 58 -->
<g id="node10" class="node">
<title>58</title>
<polygon fill="#f2f2f2" stroke="black" points="418.52,-79.1 418.52,-137.5 783.25,-137.5 783.25,-79.1 418.52,-79.1"/>
<text text-anchor="middle" x="600.88" y="-120.9" font-family="Times,serif" font-size="14.00">&lt;&lt;Abstract&gt;&gt;</text>
<text text-anchor="middle" x="600.88" y="-104.1" font-family="Times,serif" font-size="14.00">PeriodicAllocationAbstractVault</text>
<text text-anchor="middle" x="600.88" y="-87.3" font-family="Times,serif" font-size="14.00">../contracts/vault/allocate/PeriodicAllocationAbstractVault.sol</text>
</g>
<!-- 58&#45;&gt;7 -->
<g id="edge15" class="edge">
<title>58&#45;&gt;7</title>
<path fill="none" stroke="black" stroke-dasharray="5,2" d="M418.4,-117.46C257.19,-126.59 43.59,-144.17 16.88,-174 -43.18,-241.08 71.22,-317.79 151.63,-360.45"/>
<polygon fill="black" stroke="black" points="150.28,-363.69 160.77,-365.22 153.53,-357.49 150.28,-363.69"/>
</g>
<!-- 58&#45;&gt;57 -->
<g id="edge14" class="edge">
<title>58&#45;&gt;57</title>
<path fill="none" stroke="black" d="M602.09,-137.58C602.18,-139.66 602.27,-141.8 602.37,-143.98"/>
<polygon fill="none" stroke="black" points="591.89,-144.67 603.66,-174.2 612.87,-143.78 591.89,-144.67"/>
</g>
<!-- 62 -->
<g id="node11" class="node">
<title>62</title>
<polygon fill="#f2f2f2" stroke="black" points="25.68,-174.5 25.68,-232.9 416.08,-232.9 416.08,-174.5 25.68,-174.5"/>
<text text-anchor="middle" x="220.88" y="-216.3" font-family="Times,serif" font-size="14.00">&lt;&lt;Abstract&gt;&gt;</text>
<text text-anchor="middle" x="220.88" y="-199.5" font-family="Times,serif" font-size="14.00">SameAssetUnderlyingsAbstractVault</text>
<text text-anchor="middle" x="220.88" y="-182.7" font-family="Times,serif" font-size="14.00">../contracts/vault/allocate/SameAssetUnderlyingsAbstractVault.sol</text>
</g>
<!-- 58&#45;&gt;62 -->
<g id="edge13" class="edge">
<title>58&#45;&gt;62</title>
<path fill="none" stroke="black" d="M486.1,-137.51C447.95,-146.89 404.99,-157.45 364.93,-167.3"/>
<polygon fill="none" stroke="black" points="362.31,-157.13 335.68,-174.48 367.32,-177.52 362.31,-157.13"/>
</g>
<!-- 62&#45;&gt;7 -->
<g id="edge17" class="edge">
<title>62&#45;&gt;7</title>
<path fill="none" stroke="black" d="M220.88,-232.97C220.88,-265.36 220.88,-318.64 220.88,-354.85"/>
<polygon fill="black" stroke="black" points="217.38,-355.04 220.88,-365.04 224.38,-355.04 217.38,-355.04"/>
</g>
<!-- 62&#45;&gt;30 -->
<g id="edge16" class="edge">
<title>62&#45;&gt;30</title>
<path fill="none" stroke="black" d="M336.88,-232.91C378.76,-243.1 426.41,-254.69 469.79,-265.24"/>
<polygon fill="none" stroke="black" points="467.39,-275.46 499.02,-272.35 472.35,-255.06 467.39,-275.46"/>
</g>
<!-- 65 -->
<g id="node12" class="node">
<title>65</title>
<polygon fill="#f2f2f2" stroke="black" points="793.06,-174.5 793.06,-232.9 1084.7,-232.9 1084.7,-174.5 793.06,-174.5"/>
<text text-anchor="middle" x="938.88" y="-216.3" font-family="Times,serif" font-size="14.00">&lt;&lt;Abstract&gt;&gt;</text>
<text text-anchor="middle" x="938.88" y="-199.5" font-family="Times,serif" font-size="14.00">FeeAdminAbstractVault</text>
<text text-anchor="middle" x="938.88" y="-182.7" font-family="Times,serif" font-size="14.00">../contracts/vault/fee/FeeAdminAbstractVault.sol</text>
</g>
<!-- 65&#45;&gt;30 -->
<g id="edge18" class="edge">
<title>65&#45;&gt;30</title>
<path fill="none" stroke="black" d="M837.76,-232.98C805.38,-242.03 769.07,-252.19 734.92,-261.74"/>
<polygon fill="none" stroke="black" points="732.01,-251.65 705.94,-269.84 737.66,-271.87 732.01,-251.65"/>
</g>
<!-- 66 -->
<g id="node13" class="node">
<title>66</title>
<polygon fill="#f2f2f2" stroke="black" points="800.84,-79.1 800.84,-137.5 1076.92,-137.5 1076.92,-79.1 800.84,-79.1"/>
<text text-anchor="middle" x="938.88" y="-120.9" font-family="Times,serif" font-size="14.00">&lt;&lt;Abstract&gt;&gt;</text>
<text text-anchor="middle" x="938.88" y="-104.1" font-family="Times,serif" font-size="14.00">PerfFeeAbstractVault</text>
<text text-anchor="middle" x="938.88" y="-87.3" font-family="Times,serif" font-size="14.00">../contracts/vault/fee/PerfFeeAbstractVault.sol</text>
</g>
<!-- 66&#45;&gt;65 -->
<g id="edge19" class="edge">
<title>66&#45;&gt;65</title>
<path fill="none" stroke="black" d="M938.88,-137.58C938.88,-139.66 938.88,-141.8 938.88,-143.98"/>
<polygon fill="none" stroke="black" points="928.38,-144.2 938.88,-174.2 949.38,-144.2 928.38,-144.2"/>
</g>
<!-- 80 -->
<g id="node14" class="node">
<title>80</title>
<polygon fill="#f2f2f2" stroke="black" points="835.24,-0.5 835.24,-42.1 1208.53,-42.1 1208.53,-0.5 835.24,-0.5"/>
<text text-anchor="middle" x="1021.88" y="-25.5" font-family="Times,serif" font-size="14.00">PeriodicAllocationPerfFeeMetaVault</text>
<text text-anchor="middle" x="1021.88" y="-8.7" font-family="Times,serif" font-size="14.00">../contracts/vault/meta/PeriodicAllocationPerfFeeMetaVault.sol</text>
</g>
<!-- 80&#45;&gt;20 -->
<g id="edge24" class="edge">
<title>80&#45;&gt;20</title>
<path fill="none" stroke="black" stroke-dasharray="5,2" d="M1107.14,-42.11C1126.17,-50.4 1144.39,-62.1 1156.88,-78.6 1219.06,-160.75 1210.65,-291.01 1201.62,-355.18"/>
<polygon fill="black" stroke="black" points="1198.13,-354.86 1200.12,-365.27 1205.05,-355.89 1198.13,-354.86"/>
</g>
<!-- 80&#45;&gt;22 -->
<g id="edge23" class="edge">
<title>80&#45;&gt;22</title>
<path fill="none" stroke="black" stroke-dasharray="5,2" d="M1066.73,-42.25C1081.28,-51.15 1095.76,-63.17 1103.88,-78.6 1116.36,-102.29 1097.94,-228.38 1093.88,-233.4 1008.07,-339.65 850.34,-376.09 737.21,-388.21"/>
<polygon fill="black" stroke="black" points="736.68,-384.75 727.09,-389.24 737.39,-391.71 736.68,-384.75"/>
</g>
<!-- 80&#45;&gt;58 -->
<g id="edge20" class="edge">
<title>80&#45;&gt;58</title>
<path fill="none" stroke="black" d="M923.71,-42.12C878.1,-51.33 822.55,-62.54 770.48,-73.06"/>
<polygon fill="none" stroke="black" points="768.07,-62.83 740.74,-79.06 772.22,-83.42 768.07,-62.83"/>
</g>
<!-- 80&#45;&gt;65 -->
<g id="edge25" class="edge">
<title>80&#45;&gt;65</title>
<path fill="none" stroke="black" stroke-dasharray="5,2" d="M1054.38,-42.13C1066.65,-51.51 1079.24,-63.9 1085.88,-78.6 1096.76,-102.66 1100.31,-115.89 1085.88,-138 1077.57,-150.74 1066.13,-160.99 1053.26,-169.23"/>
<polygon fill="black" stroke="black" points="1051.43,-166.24 1044.62,-174.36 1055.01,-172.26 1051.43,-166.24"/>
</g>
<!-- 80&#45;&gt;66 -->
<g id="edge21" class="edge">
<title>80&#45;&gt;66</title>
<path fill="none" stroke="black" d="M1002.21,-42.44C997.72,-47.04 992.76,-52.13 987.64,-57.37"/>
<polygon fill="none" stroke="black" points="980.02,-50.14 966.58,-78.94 995.05,-64.81 980.02,-50.14"/>
</g>
<!-- 300 -->
<g id="node15" class="node">
<title>300</title>
<polygon fill="#f2f2f2" stroke="black" points="1209.12,-79.1 1209.12,-137.5 1618.64,-137.5 1618.64,-79.1 1209.12,-79.1"/>
<text text-anchor="middle" x="1413.88" y="-120.9" font-family="Times,serif" font-size="14.00">&lt;&lt;Abstract&gt;&gt;</text>
<text text-anchor="middle" x="1413.88" y="-104.1" font-family="Times,serif" font-size="14.00">Initializable</text>
<text text-anchor="middle" x="1413.88" y="-87.3" font-family="Times,serif" font-size="14.00">../node_modules/@openzeppelin/contracts/proxy/utils/Initializable.sol</text>
</g>
<!-- 80&#45;&gt;300 -->
<g id="edge22" class="edge">
<title>80&#45;&gt;300</title>
<path fill="none" stroke="black" d="M1113.29,-42.12C1155.26,-51.22 1206.27,-62.28 1254.27,-72.69"/>
<polygon fill="none" stroke="black" points="1252.11,-82.97 1283.66,-79.06 1256.56,-62.44 1252.11,-82.97"/>
</g>
<!-- 146 -->
<g id="node20" class="node">
<title>146</title>
<polygon fill="#f2f2f2" stroke="black" points="941.66,-556.1 941.66,-614.5 1292.11,-614.5 1292.11,-556.1 941.66,-556.1"/>
<text text-anchor="middle" x="1116.88" y="-597.9" font-family="Times,serif" font-size="14.00">&lt;&lt;Abstract&gt;&gt;</text>
<text text-anchor="middle" x="1116.88" y="-581.1" font-family="Times,serif" font-size="14.00">Context</text>
<text text-anchor="middle" x="1116.88" y="-564.3" font-family="Times,serif" font-size="14.00">../node_modules/@openzeppelin/contracts/utils/Context.sol</text>
</g>
<!-- 137&#45;&gt;146 -->
<g id="edge26" class="edge">
<title>137&#45;&gt;146</title>
<path fill="none" stroke="black" d="M1171.27,-519.18C1167.71,-523.43 1163.95,-527.94 1160.14,-532.5"/>
<polygon fill="none" stroke="black" points="1151.86,-526.04 1140.68,-555.8 1167.97,-539.5 1151.86,-526.04"/>
</g>
<!-- 305&#45;&gt;306 -->
<g id="edge28" class="edge">
<title>305&#45;&gt;306</title>
<path fill="none" stroke="black" stroke-dasharray="5,2" d="M382.64,-510.87C357.41,-520.45 332.86,-534.63 315.88,-555.6 301.15,-573.8 295.43,-598.59 293.76,-621.22"/>
<polygon fill="none" stroke="black" points="283.26,-621.3 293.61,-651.35 304.26,-621.41 283.26,-621.3"/>
</g>
<!-- 568 -->
<g id="node19" class="node">
<title>568</title>
<polygon fill="#f2f2f2" stroke="black" points="325.29,-556.1 325.29,-614.5 844.48,-614.5 844.48,-556.1 325.29,-556.1"/>
<text text-anchor="middle" x="584.88" y="-597.9" font-family="Times,serif" font-size="14.00">&lt;&lt;Interface&gt;&gt;</text>
<text text-anchor="middle" x="584.88" y="-581.1" font-family="Times,serif" font-size="14.00">IERC20Metadata</text>
<text text-anchor="middle" x="584.88" y="-564.3" font-family="Times,serif" font-size="14.00">../node_modules/@openzeppelin/contracts/token/ERC20/extensions/IERC20Metadata.sol</text>
</g>
<!-- 305&#45;&gt;568 -->
<g id="edge29" class="edge">
<title>305&#45;&gt;568</title>
<path fill="none" stroke="black" stroke-dasharray="5,2" d="M507.67,-510.71C515.22,-517.91 524.14,-526.41 533.18,-535.03"/>
<polygon fill="none" stroke="black" points="526.24,-542.92 555.2,-556.02 540.73,-527.72 526.24,-542.92"/>
</g>
<!-- 305&#45;&gt;146 -->
<g id="edge27" class="edge">
<title>305&#45;&gt;146</title>
<path fill="none" stroke="black" d="M620.49,-510.71C705.08,-523.25 816.16,-539.72 911.78,-553.89"/>
<polygon fill="none" stroke="black" points="910.36,-564.3 941.57,-558.31 913.44,-543.52 910.36,-564.3"/>
</g>
<!-- 568&#45;&gt;306 -->
<g id="edge30" class="edge">
<title>568&#45;&gt;306</title>
<path fill="none" stroke="black" stroke-dasharray="5,2" d="M497.69,-614.58C471.03,-623.22 441.27,-632.87 413,-642.04"/>
<polygon fill="none" stroke="black" points="409.57,-632.12 384.27,-651.36 416.05,-652.09 409.57,-632.12"/>
</g>
</g>
</svg>
