<?xml version="1.0" encoding="UTF-8" standalone="no"?>
<!DOCTYPE svg PUBLIC "-//W3C//DTD SVG 1.1//EN"
 "http://www.w3.org/Graphics/SVG/1.1/DTD/svg11.dtd">
<!-- Generated by graphviz version 5.0.0 (20220707.1540)
 -->
<!-- Title: UmlClassDiagram Pages: 1 -->
<svg width="1747pt" height="819pt"
 viewBox="0.00 0.00 1746.81 819.20" xmlns="http://www.w3.org/2000/svg" xmlns:xlink="http://www.w3.org/1999/xlink">
<g id="graph0" class="graph" transform="scale(1 1) rotate(0) translate(4 815.2)">
<title>UmlClassDiagram</title>
<polygon fill="white" stroke="transparent" points="-4,4 -4,-815.2 1742.81,-815.2 1742.81,4 -4,4"/>
<!-- 6 -->
<g id="node1" class="node">
<title>6</title>
<polygon fill="#f2f2f2" stroke="black" points="115.32,-415.7 115.32,-474.1 354.09,-474.1 354.09,-415.7 115.32,-415.7"/>
<text text-anchor="middle" x="234.7" y="-457.5" font-family="Times,serif" font-size="14.00">&lt;&lt;Interface&gt;&gt;</text>
<text text-anchor="middle" x="234.7" y="-440.7" font-family="Times,serif" font-size="14.00">IERC4626Vault</text>
<text text-anchor="middle" x="234.7" y="-423.9" font-family="Times,serif" font-size="14.00">..contractsinterfacesIERC4626Vault.sol</text>
</g>
<!-- 249 -->
<g id="node18" class="node">
<title>249</title>
<polygon fill="#f2f2f2" stroke="black" points="131.59,-735.5 131.59,-810.7 489.81,-810.7 489.81,-735.5 131.59,-735.5"/>
<text text-anchor="middle" x="310.7" y="-794.1" font-family="Times,serif" font-size="14.00">&lt;&lt;Interface&gt;&gt;</text>
<text text-anchor="middle" x="310.7" y="-777.3" font-family="Times,serif" font-size="14.00">IERC20</text>
<text text-anchor="middle" x="310.7" y="-760.5" font-family="Times,serif" font-size="14.00">..</text>
<text text-anchor="middle" x="310.7" y="-743.7" font-family="Times,serif" font-size="14.00">ode_modules@openzeppelincontractstokenRC20IERC20.sol</text>
</g>
<!-- 6&#45;&gt;249 -->
<g id="edge1" class="edge">
<title>6&#45;&gt;249</title>
<path fill="none" stroke="black" stroke-dasharray="5,2" d="M232.72,-474.29C230.37,-522.25 229.9,-621.65 258.7,-699 260,-702.47 261.5,-705.93 263.16,-709.35"/>
<polygon fill="none" stroke="black" points="254.29,-714.98 278.82,-735.19 272.25,-704.09 254.29,-714.98"/>
</g>
<!-- 9 -->
<g id="node2" class="node">
<title>9</title>
<polygon fill="#f2f2f2" stroke="black" points="1550.6,-631.7 1550.6,-690.1 1738.81,-690.1 1738.81,-631.7 1550.6,-631.7"/>
<text text-anchor="middle" x="1644.7" y="-673.5" font-family="Times,serif" font-size="14.00">&lt;&lt;Interface&gt;&gt;</text>
<text text-anchor="middle" x="1644.7" y="-656.7" font-family="Times,serif" font-size="14.00">INexus</text>
<text text-anchor="middle" x="1644.7" y="-639.9" font-family="Times,serif" font-size="14.00">..contractsinterfacesINexus.sol</text>
</g>
<!-- 13 -->
<g id="node3" class="node">
<title>13</title>
<polygon fill="#f2f2f2" stroke="black" points="1314.65,-519.5 1314.65,-577.9 1548.76,-577.9 1548.76,-519.5 1314.65,-519.5"/>
<text text-anchor="middle" x="1431.7" y="-561.3" font-family="Times,serif" font-size="14.00">&lt;&lt;Abstract&gt;&gt;</text>
<text text-anchor="middle" x="1431.7" y="-544.5" font-family="Times,serif" font-size="14.00">ImmutableModule</text>
<text text-anchor="middle" x="1431.7" y="-527.7" font-family="Times,serif" font-size="14.00">..contractssharedImmutableModule.sol</text>
</g>
<!-- 13&#45;&gt;9 -->
<g id="edge3" class="edge">
<title>13&#45;&gt;9</title>
<path fill="none" stroke="black" d="M1486.28,-577.94C1515.1,-592.85 1550.64,-611.23 1580.74,-626.81"/>
<polygon fill="black" stroke="black" points="1579.41,-630.06 1589.9,-631.55 1582.63,-623.84 1579.41,-630.06"/>
</g>
<!-- 15 -->
<g id="node4" class="node">
<title>15</title>
<polygon fill="#f2f2f2" stroke="black" points="1330.59,-640.1 1330.59,-681.7 1532.82,-681.7 1532.82,-640.1 1330.59,-640.1"/>
<text text-anchor="middle" x="1431.7" y="-665.1" font-family="Times,serif" font-size="14.00">ModuleKeys</text>
<text text-anchor="middle" x="1431.7" y="-648.3" font-family="Times,serif" font-size="14.00">..contractssharedModuleKeys.sol</text>
</g>
<!-- 13&#45;&gt;15 -->
<g id="edge2" class="edge">
<title>13&#45;&gt;15</title>
<path fill="none" stroke="black" d="M1431.7,-578.08C1431.7,-587.77 1431.7,-598.92 1431.7,-609.81"/>
<polygon fill="none" stroke="black" points="1421.2,-609.96 1431.7,-639.96 1442.2,-609.96 1421.2,-609.96"/>
</g>
<!-- 17 -->
<g id="node5" class="node">
<title>17</title>
<polygon fill="#f2f2f2" stroke="black" points="1007.1,-415.7 1007.1,-474.1 1244.31,-474.1 1244.31,-415.7 1007.1,-415.7"/>
<text text-anchor="middle" x="1125.7" y="-457.5" font-family="Times,serif" font-size="14.00">&lt;&lt;Abstract&gt;&gt;</text>
<text text-anchor="middle" x="1125.7" y="-440.7" font-family="Times,serif" font-size="14.00">VaultManagerRole</text>
<text text-anchor="middle" x="1125.7" y="-423.9" font-family="Times,serif" font-size="14.00">..contractssharedVaultManagerRole.sol</text>
</g>
<!-- 17&#45;&gt;13 -->
<g id="edge5" class="edge">
<title>17&#45;&gt;13</title>
<path fill="none" stroke="black" d="M1210.54,-474.12C1243.78,-485.18 1282.43,-498.04 1318.02,-509.88"/>
<polygon fill="none" stroke="black" points="1314.93,-519.92 1346.71,-519.42 1321.56,-499.99 1314.93,-519.92"/>
</g>
<!-- 157 -->
<g id="node16" class="node">
<title>157</title>
<polygon fill="#f2f2f2" stroke="black" points="954.39,-511.1 954.39,-586.3 1297.02,-586.3 1297.02,-511.1 954.39,-511.1"/>
<text text-anchor="middle" x="1125.7" y="-569.7" font-family="Times,serif" font-size="14.00">&lt;&lt;Abstract&gt;&gt;</text>
<text text-anchor="middle" x="1125.7" y="-552.9" font-family="Times,serif" font-size="14.00">Pausable</text>
<text text-anchor="middle" x="1125.7" y="-536.1" font-family="Times,serif" font-size="14.00">..</text>
<text text-anchor="middle" x="1125.7" y="-519.3" font-family="Times,serif" font-size="14.00">ode_modules@openzeppelincontractssecurityPausable.sol</text>
</g>
<!-- 17&#45;&gt;157 -->
<g id="edge4" class="edge">
<title>17&#45;&gt;157</title>
<path fill="none" stroke="black" d="M1125.7,-474.26C1125.7,-476.29 1125.7,-478.38 1125.7,-480.51"/>
<polygon fill="none" stroke="black" points="1115.2,-480.73 1125.7,-510.73 1136.2,-480.73 1115.2,-480.73"/>
</g>
<!-- 19 -->
<g id="node6" class="node">
<title>19</title>
<polygon fill="#f2f2f2" stroke="black" points="464.43,-415.7 464.43,-474.1 696.97,-474.1 696.97,-415.7 464.43,-415.7"/>
<text text-anchor="middle" x="580.7" y="-457.5" font-family="Times,serif" font-size="14.00">&lt;&lt;Abstract&gt;&gt;</text>
<text text-anchor="middle" x="580.7" y="-440.7" font-family="Times,serif" font-size="14.00">InitializableToken</text>
<text text-anchor="middle" x="580.7" y="-423.9" font-family="Times,serif" font-size="14.00">..contractstokensInitializableToken.sol</text>
</g>
<!-- 20 -->
<g id="node7" class="node">
<title>20</title>
<polygon fill="#f2f2f2" stroke="black" points="664.61,-519.5 664.61,-577.9 936.8,-577.9 936.8,-519.5 664.61,-519.5"/>
<text text-anchor="middle" x="800.7" y="-561.3" font-family="Times,serif" font-size="14.00">&lt;&lt;Abstract&gt;&gt;</text>
<text text-anchor="middle" x="800.7" y="-544.5" font-family="Times,serif" font-size="14.00">InitializableTokenDetails</text>
<text text-anchor="middle" x="800.7" y="-527.7" font-family="Times,serif" font-size="14.00">..contractstokensInitializableTokenDetails.sol</text>
</g>
<!-- 19&#45;&gt;20 -->
<g id="edge7" class="edge">
<title>19&#45;&gt;20</title>
<path fill="none" stroke="black" d="M641.69,-474.12C663.51,-484.22 688.56,-495.81 712.23,-506.76"/>
<polygon fill="none" stroke="black" points="707.96,-516.35 739.59,-519.42 716.78,-497.3 707.96,-516.35"/>
</g>
<!-- 248 -->
<g id="node17" class="node">
<title>248</title>
<polygon fill="#f2f2f2" stroke="black" points="301.2,-519.5 301.2,-577.9 646.21,-577.9 646.21,-519.5 301.2,-519.5"/>
<text text-anchor="middle" x="473.7" y="-561.3" font-family="Times,serif" font-size="14.00">ERC20</text>
<text text-anchor="middle" x="473.7" y="-544.5" font-family="Times,serif" font-size="14.00">..</text>
<text text-anchor="middle" x="473.7" y="-527.7" font-family="Times,serif" font-size="14.00">ode_modules@openzeppelincontractstokenRC20RC20.sol</text>
</g>
<!-- 19&#45;&gt;248 -->
<g id="edge6" class="edge">
<title>19&#45;&gt;248</title>
<path fill="none" stroke="black" d="M550.9,-474.26C542.9,-481.87 534.01,-490.32 525.2,-498.71"/>
<polygon fill="none" stroke="black" points="517.85,-491.21 503.35,-519.5 532.32,-506.42 517.85,-491.21"/>
</g>
<!-- 27 -->
<g id="node8" class="node">
<title>27</title>
<polygon fill="#f2f2f2" stroke="black" points="480.76,-320.3 480.76,-378.7 680.65,-378.7 680.65,-320.3 480.76,-320.3"/>
<text text-anchor="middle" x="580.7" y="-362.1" font-family="Times,serif" font-size="14.00">&lt;&lt;Abstract&gt;&gt;</text>
<text text-anchor="middle" x="580.7" y="-345.3" font-family="Times,serif" font-size="14.00">AbstractVault</text>
<text text-anchor="middle" x="580.7" y="-328.5" font-family="Times,serif" font-size="14.00">..contractsvaultAbstractVault.sol</text>
</g>
<!-- 27&#45;&gt;6 -->
<g id="edge8" class="edge">
<title>27&#45;&gt;6</title>
<path fill="none" stroke="black" stroke-dasharray="5,2" d="M480.63,-377.52C445.66,-386.95 405.84,-397.7 368.57,-407.76"/>
<polygon fill="none" stroke="black" points="365.6,-397.69 339.37,-415.65 371.07,-417.96 365.6,-397.69"/>
</g>
<!-- 27&#45;&gt;17 -->
<g id="edge10" class="edge">
<title>27&#45;&gt;17</title>
<path fill="none" stroke="black" d="M680.67,-367.63C763.71,-381.86 883.08,-402.32 977.29,-418.47"/>
<polygon fill="none" stroke="black" points="975.57,-428.82 1006.92,-423.54 979.12,-408.13 975.57,-428.82"/>
</g>
<!-- 27&#45;&gt;19 -->
<g id="edge9" class="edge">
<title>27&#45;&gt;19</title>
<path fill="none" stroke="black" d="M580.7,-378.78C580.7,-380.86 580.7,-383 580.7,-385.18"/>
<polygon fill="none" stroke="black" points="570.2,-385.4 580.7,-415.4 591.2,-385.4 570.2,-385.4"/>
</g>
<!-- 27&#45;&gt;249 -->
<g id="edge11" class="edge">
<title>27&#45;&gt;249</title>
<path fill="none" stroke="black" d="M523.49,-378.74C502,-389.7 477.51,-402.63 455.7,-415.2 413.22,-439.7 405.29,-450.28 362.7,-474.6 331.98,-492.14 310.22,-480.45 291.7,-510.6 251.25,-576.46 272.82,-670 291.93,-725.53"/>
<polygon fill="black" stroke="black" points="288.69,-726.85 295.34,-735.1 295.29,-724.51 288.69,-726.85"/>
</g>
<!-- 50 -->
<g id="node9" class="node">
<title>50</title>
<polygon fill="#f2f2f2" stroke="black" points="418.17,-224.9 418.17,-283.3 743.24,-283.3 743.24,-224.9 418.17,-224.9"/>
<text text-anchor="middle" x="580.7" y="-266.7" font-family="Times,serif" font-size="14.00">&lt;&lt;Abstract&gt;&gt;</text>
<text text-anchor="middle" x="580.7" y="-249.9" font-family="Times,serif" font-size="14.00">AssetPerShareAbstractVault</text>
<text text-anchor="middle" x="580.7" y="-233.1" font-family="Times,serif" font-size="14.00">..contractsvaultallocateAssetPerShareAbstractVault.sol</text>
</g>
<!-- 50&#45;&gt;27 -->
<g id="edge12" class="edge">
<title>50&#45;&gt;27</title>
<path fill="none" stroke="black" d="M580.7,-283.38C580.7,-285.46 580.7,-287.6 580.7,-289.78"/>
<polygon fill="none" stroke="black" points="570.2,-290 580.7,-320 591.2,-290 570.2,-290"/>
</g>
<!-- 51 -->
<g id="node10" class="node">
<title>51</title>
<polygon fill="#f2f2f2" stroke="black" points="394.12,-121.1 394.12,-179.5 743.29,-179.5 743.29,-121.1 394.12,-121.1"/>
<text text-anchor="middle" x="568.7" y="-162.9" font-family="Times,serif" font-size="14.00">&lt;&lt;Abstract&gt;&gt;</text>
<text text-anchor="middle" x="568.7" y="-146.1" font-family="Times,serif" font-size="14.00">PeriodicAllocationAbstractVault</text>
<text text-anchor="middle" x="568.7" y="-129.3" font-family="Times,serif" font-size="14.00">..contractsvaultallocatePeriodicAllocationAbstractVault.sol</text>
</g>
<!-- 51&#45;&gt;6 -->
<g id="edge15" class="edge">
<title>51&#45;&gt;6</title>
<path fill="none" stroke="black" stroke-dasharray="5,2" d="M393.93,-163.01C241.73,-175.04 41.59,-196 16.7,-224.4 -44.26,-293.97 75.47,-369.28 160.36,-411.12"/>
<polygon fill="black" stroke="black" points="158.97,-414.33 169.49,-415.55 162.03,-408.03 158.97,-414.33"/>
</g>
<!-- 51&#45;&gt;50 -->
<g id="edge14" class="edge">
<title>51&#45;&gt;50</title>
<path fill="none" stroke="black" d="M572.05,-179.66C572.62,-184.51 573.23,-189.71 573.86,-195.01"/>
<polygon fill="none" stroke="black" points="563.44,-196.33 577.38,-224.9 584.29,-193.87 563.44,-196.33"/>
</g>
<!-- 55 -->
<g id="node11" class="node">
<title>55</title>
<polygon fill="#f2f2f2" stroke="black" points="25.28,-224.9 25.28,-283.3 400.13,-283.3 400.13,-224.9 25.28,-224.9"/>
<text text-anchor="middle" x="212.7" y="-266.7" font-family="Times,serif" font-size="14.00">&lt;&lt;Abstract&gt;&gt;</text>
<text text-anchor="middle" x="212.7" y="-249.9" font-family="Times,serif" font-size="14.00">SameAssetUnderlyingsAbstractVault</text>
<text text-anchor="middle" x="212.7" y="-233.1" font-family="Times,serif" font-size="14.00">..contractsvaultallocateSameAssetUnderlyingsAbstractVault.sol</text>
</g>
<!-- 51&#45;&gt;55 -->
<g id="edge13" class="edge">
<title>51&#45;&gt;55</title>
<path fill="none" stroke="black" d="M470.01,-179.52C429.98,-190.97 383.23,-204.34 340.63,-216.52"/>
<polygon fill="none" stroke="black" points="337.55,-206.48 311.59,-224.82 343.32,-226.67 337.55,-206.48"/>
</g>
<!-- 55&#45;&gt;6 -->
<g id="edge17" class="edge">
<title>55&#45;&gt;6</title>
<path fill="none" stroke="black" d="M216,-283.37C219.77,-315.76 225.98,-369.04 230.2,-405.25"/>
<polygon fill="black" stroke="black" points="226.75,-405.91 231.39,-415.44 233.71,-405.1 226.75,-405.91"/>
</g>
<!-- 55&#45;&gt;27 -->
<g id="edge16" class="edge">
<title>55&#45;&gt;27</title>
<path fill="none" stroke="black" d="M324.11,-283.38C364.2,-293.55 409.77,-305.12 451.26,-315.65"/>
<polygon fill="none" stroke="black" points="448.96,-325.9 480.62,-323.1 454.12,-305.54 448.96,-325.9"/>
</g>
<!-- 58 -->
<g id="node12" class="node">
<title>58</title>
<polygon fill="#f2f2f2" stroke="black" points="761.66,-224.9 761.66,-283.3 1037.75,-283.3 1037.75,-224.9 761.66,-224.9"/>
<text text-anchor="middle" x="899.7" y="-266.7" font-family="Times,serif" font-size="14.00">&lt;&lt;Abstract&gt;&gt;</text>
<text text-anchor="middle" x="899.7" y="-249.9" font-family="Times,serif" font-size="14.00">FeeAdminAbstractVault</text>
<text text-anchor="middle" x="899.7" y="-233.1" font-family="Times,serif" font-size="14.00">..contractsvaultfeeFeeAdminAbstractVault.sol</text>
</g>
<!-- 58&#45;&gt;27 -->
<g id="edge18" class="edge">
<title>58&#45;&gt;27</title>
<path fill="none" stroke="black" d="M803.13,-283.38C772.59,-292.32 738.39,-302.33 706.14,-311.77"/>
<polygon fill="none" stroke="black" points="703.07,-301.73 677.23,-320.24 708.97,-321.89 703.07,-301.73"/>
</g>
<!-- 59 -->
<g id="node13" class="node">
<title>59</title>
<polygon fill="#f2f2f2" stroke="black" points="761.44,-121.1 761.44,-179.5 1021.96,-179.5 1021.96,-121.1 761.44,-121.1"/>
<text text-anchor="middle" x="891.7" y="-162.9" font-family="Times,serif" font-size="14.00">&lt;&lt;Abstract&gt;&gt;</text>
<text text-anchor="middle" x="891.7" y="-146.1" font-family="Times,serif" font-size="14.00">PerfFeeAbstractVault</text>
<text text-anchor="middle" x="891.7" y="-129.3" font-family="Times,serif" font-size="14.00">..contractsvaultfeePerfFeeAbstractVault.sol</text>
</g>
<!-- 59&#45;&gt;58 -->
<g id="edge19" class="edge">
<title>59&#45;&gt;58</title>
<path fill="none" stroke="black" d="M893.93,-179.66C894.3,-184.4 894.7,-189.47 895.11,-194.65"/>
<polygon fill="none" stroke="black" points="884.67,-195.81 897.49,-224.9 905.6,-194.16 884.67,-195.81"/>
</g>
<!-- 73 -->
<g id="node14" class="node">
<title>73</title>
<polygon fill="#f2f2f2" stroke="black" points="791.84,-17.3 791.84,-58.9 1149.57,-58.9 1149.57,-17.3 791.84,-17.3"/>
<text text-anchor="middle" x="970.7" y="-42.3" font-family="Times,serif" font-size="14.00">PeriodicAllocationPerfFeeMetaVault</text>
<text text-anchor="middle" x="970.7" y="-25.5" font-family="Times,serif" font-size="14.00">..contractsvaultmetaPeriodicAllocationPerfFeeMetaVault.sol</text>
</g>
<!-- 73&#45;&gt;17 -->
<g id="edge24" class="edge">
<title>73&#45;&gt;17</title>
<path fill="none" stroke="black" stroke-dasharray="5,2" d="M1033.21,-58.96C1058.76,-70.38 1085.97,-87.49 1101.7,-112.2 1159.99,-203.73 1145.63,-339.65 1133.87,-405.45"/>
<polygon fill="black" stroke="black" points="1130.41,-404.91 1132.02,-415.39 1137.29,-406.2 1130.41,-404.91"/>
</g>
<!-- 73&#45;&gt;19 -->
<g id="edge23" class="edge">
<title>73&#45;&gt;19</title>
<path fill="none" stroke="black" stroke-dasharray="5,2" d="M1002.61,-58.91C1020.06,-71.72 1040.05,-90.11 1049.7,-112.2 1055.45,-125.34 1048.83,-280.91 1046.7,-283.8 968.7,-389.52 816.57,-426.01 707.33,-438.29"/>
<polygon fill="black" stroke="black" points="706.8,-434.83 697.23,-439.37 707.55,-441.79 706.8,-434.83"/>
</g>
<!-- 73&#45;&gt;51 -->
<g id="edge20" class="edge">
<title>73&#45;&gt;51</title>
<path fill="none" stroke="black" d="M898.37,-58.93C843.58,-73.95 766.78,-95 701.1,-113.01"/>
<polygon fill="none" stroke="black" points="697.97,-102.98 671.82,-121.03 703.53,-123.23 697.97,-102.98"/>
</g>
<!-- 73&#45;&gt;58 -->
<g id="edge25" class="edge">
<title>73&#45;&gt;58</title>
<path fill="none" stroke="black" stroke-dasharray="5,2" d="M993.55,-58.97C1007.2,-72.43 1023.29,-91.49 1030.7,-112.2 1042.11,-144.09 1048.58,-159.63 1030.7,-188.4 1022.93,-200.92 1011.93,-211.08 999.58,-219.32"/>
<polygon fill="black" stroke="black" points="997.51,-216.49 990.84,-224.73 1001.19,-222.45 997.51,-216.49"/>
</g>
<!-- 73&#45;&gt;59 -->
<g id="edge21" class="edge">
<title>73&#45;&gt;59</title>
<path fill="none" stroke="black" d="M956.4,-59.06C948.86,-69.56 939.23,-83 929.72,-96.27"/>
<polygon fill="none" stroke="black" points="921.09,-90.29 912.15,-120.79 938.16,-102.52 921.09,-90.29"/>
</g>
<!-- 241 -->
<g id="node15" class="node">
<title>241</title>
<polygon fill="#f2f2f2" stroke="black" points="1153.61,-112.7 1153.61,-187.9 1525.8,-187.9 1525.8,-112.7 1153.61,-112.7"/>
<text text-anchor="middle" x="1339.7" y="-171.3" font-family="Times,serif" font-size="14.00">&lt;&lt;Abstract&gt;&gt;</text>
<text text-anchor="middle" x="1339.7" y="-154.5" font-family="Times,serif" font-size="14.00">Initializable</text>
<text text-anchor="middle" x="1339.7" y="-137.7" font-family="Times,serif" font-size="14.00">..</text>
<text text-anchor="middle" x="1339.7" y="-120.9" font-family="Times,serif" font-size="14.00">ode_modules@openzeppelincontractsproxyutilsInitializable.sol</text>
</g>
<!-- 73&#45;&gt;241 -->
<g id="edge22" class="edge">
<title>73&#45;&gt;241</title>
<path fill="none" stroke="black" d="M1037.1,-58.93C1079.29,-71.53 1135.7,-88.38 1188.38,-104.11"/>
<polygon fill="none" stroke="black" points="1185.4,-114.18 1217.15,-112.7 1191.41,-94.05 1185.4,-114.18"/>
</g>
<!-- 166 -->
<g id="node21" class="node">
<title>166</title>
<polygon fill="#f2f2f2" stroke="black" points="897.2,-623.3 897.2,-698.5 1214.2,-698.5 1214.2,-623.3 897.2,-623.3"/>
<text text-anchor="middle" x="1055.7" y="-681.9" font-family="Times,serif" font-size="14.00">&lt;&lt;Abstract&gt;&gt;</text>
<text text-anchor="middle" x="1055.7" y="-665.1" font-family="Times,serif" font-size="14.00">Context</text>
<text text-anchor="middle" x="1055.7" y="-648.3" font-family="Times,serif" font-size="14.00">..</text>
<text text-anchor="middle" x="1055.7" y="-631.5" font-family="Times,serif" font-size="14.00">ode_modules@openzeppelincontractsutilsContext.sol</text>
</g>
<!-- 157&#45;&gt;166 -->
<g id="edge26" class="edge">
<title>157&#45;&gt;166</title>
<path fill="none" stroke="black" d="M1102.39,-586.4C1100.12,-589.98 1097.76,-593.69 1095.38,-597.44"/>
<polygon fill="none" stroke="black" points="1086.37,-592.04 1079.15,-622.99 1104.1,-603.3 1086.37,-592.04"/>
</g>
<!-- 248&#45;&gt;249 -->
<g id="edge28" class="edge">
<title>248&#45;&gt;249</title>
<path fill="none" stroke="black" stroke-dasharray="5,2" d="M384.79,-578.09C363.68,-588.89 343.35,-603.43 329.7,-622.8 313.1,-646.37 307.28,-677.35 306.03,-704.98"/>
<polygon fill="none" stroke="black" points="295.53,-705.32 306.29,-735.23 316.53,-705.14 295.53,-705.32"/>
</g>
<!-- 366 -->
<g id="node19" class="node">
<title>366</title>
<polygon fill="#f2f2f2" stroke="black" points="339,-623.3 339,-698.5 808.41,-698.5 808.41,-623.3 339,-623.3"/>
<text text-anchor="middle" x="573.7" y="-681.9" font-family="Times,serif" font-size="14.00">&lt;&lt;Interface&gt;&gt;</text>
<text text-anchor="middle" x="573.7" y="-665.1" font-family="Times,serif" font-size="14.00">IERC20Metadata</text>
<text text-anchor="middle" x="573.7" y="-648.3" font-family="Times,serif" font-size="14.00">..</text>
<text text-anchor="middle" x="573.7" y="-631.5" font-family="Times,serif" font-size="14.00">ode_modules@openzeppelincontractstokenRC20extensionsIERC20Metadata.sol</text>
</g>
<!-- 248&#45;&gt;366 -->
<g id="edge29" class="edge">
<title>248&#45;&gt;366</title>
<path fill="none" stroke="black" stroke-dasharray="5,2" d="M499.46,-578.08C505.9,-585.18 513.06,-593.07 520.31,-601.06"/>
<polygon fill="none" stroke="black" points="512.55,-608.13 540.48,-623.29 528.1,-594.02 512.55,-608.13"/>
</g>
<!-- 248&#45;&gt;166 -->
<g id="edge27" class="edge">
<title>248&#45;&gt;166</title>
<path fill="none" stroke="black" d="M610.79,-577.95C625.93,-580.98 641.14,-583.99 655.7,-586.8 724.68,-600.13 800.48,-614.14 867.37,-626.3"/>
<polygon fill="none" stroke="black" points="865.53,-636.63 896.92,-631.65 869.27,-615.97 865.53,-636.63"/>
</g>
<!-- 366&#45;&gt;249 -->
<g id="edge30" class="edge">
<title>366&#45;&gt;249</title>
<path fill="none" stroke="black" stroke-dasharray="5,2" d="M486.13,-698.6C466.93,-706.64 446.33,-715.27 426.23,-723.69"/>
<polygon fill="none" stroke="black" points="421.96,-714.1 398.34,-735.38 430.07,-733.47 421.96,-714.1"/>
</g>
<!-- 354 -->
<g id="node20" class="node">
<title>354</title>
<polygon fill="#f2f2f2" stroke="black" points="1167.83,-0.5 1167.83,-75.7 1653.58,-75.7 1653.58,-0.5 1167.83,-0.5"/>
<text text-anchor="middle" x="1410.7" y="-59.1" font-family="Times,serif" font-size="14.00">&lt;&lt;Interface&gt;&gt;</text>
<text text-anchor="middle" x="1410.7" y="-42.3" font-family="Times,serif" font-size="14.00">IERC20Permit</text>
<text text-anchor="middle" x="1410.7" y="-25.5" font-family="Times,serif" font-size="14.00">..</text>
<text text-anchor="middle" x="1410.7" y="-8.7" font-family="Times,serif" font-size="14.00">ode_modules@openzeppelincontractstokenRC20extensionsdraft&#45;IERC20Permit.sol</text>
</g>
</g>
</svg>
