<?xml version="1.0" encoding="UTF-8" standalone="no"?>
<!DOCTYPE svg PUBLIC "-//W3C//DTD SVG 1.1//EN"
 "http://www.w3.org/Graphics/SVG/1.1/DTD/svg11.dtd">
<!-- Generated by graphviz version 5.0.0 (20220707.1540)
 -->
<!-- Title: UmlClassDiagram Pages: 1 -->
<svg width="1368pt" height="544pt"
 viewBox="0.00 0.00 1367.61 544.40" xmlns="http://www.w3.org/2000/svg" xmlns:xlink="http://www.w3.org/1999/xlink">
<g id="graph0" class="graph" transform="scale(1 1) rotate(0) translate(4 540.4)">
<title>UmlClassDiagram</title>
<polygon fill="white" stroke="transparent" points="-4,4 -4,-540.4 1363.61,-540.4 1363.61,4 -4,4"/>
<!-- 17 -->
<g id="node1" class="node">
<title>17</title>
<polygon fill="#f2f2f2" stroke="black" points="0,-382.1 0,-440.5 245.78,-440.5 245.78,-382.1 0,-382.1"/>
<text text-anchor="middle" x="122.89" y="-423.9" font-family="Times,serif" font-size="14.00">&lt;&lt;Abstract&gt;&gt;</text>
<text text-anchor="middle" x="122.89" y="-407.1" font-family="Times,serif" font-size="14.00">ImmutableModule</text>
<text text-anchor="middle" x="122.89" y="-390.3" font-family="Times,serif" font-size="14.00">../contracts/shared/ImmutableModule.sol</text>
</g>
<!-- 19 -->
<g id="node2" class="node">
<title>19</title>
<polygon fill="#f2f2f2" stroke="black" points="15.94,-485.9 15.94,-527.5 229.84,-527.5 229.84,-485.9 15.94,-485.9"/>
<text text-anchor="middle" x="122.89" y="-510.9" font-family="Times,serif" font-size="14.00">ModuleKeys</text>
<text text-anchor="middle" x="122.89" y="-494.1" font-family="Times,serif" font-size="14.00">../contracts/shared/ModuleKeys.sol</text>
</g>
<!-- 17&#45;&gt;19 -->
<g id="edge1" class="edge">
<title>17&#45;&gt;19</title>
<path fill="none" stroke="black" d="M122.89,-440.58C122.89,-445.37 122.89,-450.47 122.89,-455.62"/>
<polygon fill="none" stroke="black" points="112.39,-455.81 122.89,-485.81 133.39,-455.81 112.39,-455.81"/>
</g>
<!-- 24 -->
<g id="node3" class="node">
<title>24</title>
<polygon fill="#f2f2f2" stroke="black" points="327.45,-286.7 327.45,-345.1 576.32,-345.1 576.32,-286.7 327.45,-286.7"/>
<text text-anchor="middle" x="451.89" y="-328.5" font-family="Times,serif" font-size="14.00">&lt;&lt;Abstract&gt;&gt;</text>
<text text-anchor="middle" x="451.89" y="-311.7" font-family="Times,serif" font-size="14.00">VaultManagerRole</text>
<text text-anchor="middle" x="451.89" y="-294.9" font-family="Times,serif" font-size="14.00">../contracts/shared/VaultManagerRole.sol</text>
</g>
<!-- 24&#45;&gt;17 -->
<g id="edge3" class="edge">
<title>24&#45;&gt;17</title>
<path fill="none" stroke="black" d="M352.28,-345.18C320.55,-354.19 284.98,-364.28 251.49,-373.79"/>
<polygon fill="none" stroke="black" points="248.43,-363.75 222.44,-382.04 254.16,-383.95 248.43,-363.75"/>
</g>
<!-- 270 -->
<g id="node9" class="node">
<title>270</title>
<polygon fill="#f2f2f2" stroke="black" points="263.85,-382.1 263.85,-440.5 639.93,-440.5 639.93,-382.1 263.85,-382.1"/>
<text text-anchor="middle" x="451.89" y="-423.9" font-family="Times,serif" font-size="14.00">&lt;&lt;Abstract&gt;&gt;</text>
<text text-anchor="middle" x="451.89" y="-407.1" font-family="Times,serif" font-size="14.00">Pausable</text>
<text text-anchor="middle" x="451.89" y="-390.3" font-family="Times,serif" font-size="14.00">../node_modules/@openzeppelin/contracts/security/Pausable.sol</text>
</g>
<!-- 24&#45;&gt;270 -->
<g id="edge2" class="edge">
<title>24&#45;&gt;270</title>
<path fill="none" stroke="black" d="M451.89,-345.18C451.89,-347.26 451.89,-349.4 451.89,-351.58"/>
<polygon fill="none" stroke="black" points="441.39,-351.8 451.89,-381.8 462.39,-351.8 441.39,-351.8"/>
</g>
<!-- 26 -->
<g id="node4" class="node">
<title>26</title>
<polygon fill="#f2f2f2" stroke="black" points="677.78,-286.7 677.78,-345.1 921.99,-345.1 921.99,-286.7 677.78,-286.7"/>
<text text-anchor="middle" x="799.89" y="-328.5" font-family="Times,serif" font-size="14.00">&lt;&lt;Abstract&gt;&gt;</text>
<text text-anchor="middle" x="799.89" y="-311.7" font-family="Times,serif" font-size="14.00">InitializableToken</text>
<text text-anchor="middle" x="799.89" y="-294.9" font-family="Times,serif" font-size="14.00">../contracts/tokens/InitializableToken.sol</text>
</g>
<!-- 27 -->
<g id="node5" class="node">
<title>27</title>
<polygon fill="#f2f2f2" stroke="black" points="657.96,-382.1 657.96,-440.5 941.82,-440.5 941.82,-382.1 657.96,-382.1"/>
<text text-anchor="middle" x="799.89" y="-423.9" font-family="Times,serif" font-size="14.00">&lt;&lt;Abstract&gt;&gt;</text>
<text text-anchor="middle" x="799.89" y="-407.1" font-family="Times,serif" font-size="14.00">InitializableTokenDetails</text>
<text text-anchor="middle" x="799.89" y="-390.3" font-family="Times,serif" font-size="14.00">../contracts/tokens/InitializableTokenDetails.sol</text>
</g>
<!-- 26&#45;&gt;27 -->
<g id="edge5" class="edge">
<title>26&#45;&gt;27</title>
<path fill="none" stroke="black" d="M799.89,-345.18C799.89,-347.26 799.89,-349.4 799.89,-351.58"/>
<polygon fill="none" stroke="black" points="789.39,-351.8 799.89,-381.8 810.39,-351.8 789.39,-351.8"/>
</g>
<!-- 417 -->
<g id="node10" class="node">
<title>417</title>
<polygon fill="#f2f2f2" stroke="black" points="960.16,-390.5 960.16,-432.1 1359.61,-432.1 1359.61,-390.5 960.16,-390.5"/>
<text text-anchor="middle" x="1159.89" y="-415.5" font-family="Times,serif" font-size="14.00">ERC20</text>
<text text-anchor="middle" x="1159.89" y="-398.7" font-family="Times,serif" font-size="14.00">../node_modules/@openzeppelin/contracts/token/ERC20/ERC20.sol</text>
</g>
<!-- 26&#45;&gt;417 -->
<g id="edge4" class="edge">
<title>26&#45;&gt;417</title>
<path fill="none" stroke="black" d="M908.88,-345.18C955.03,-357.15 1008.59,-371.05 1054.36,-382.92"/>
<polygon fill="none" stroke="black" points="1051.84,-393.12 1083.52,-390.49 1057.12,-372.79 1051.84,-393.12"/>
</g>
<!-- 40 -->
<g id="node6" class="node">
<title>40</title>
<polygon fill="#f2f2f2" stroke="black" points="520.11,-191.3 520.11,-249.7 731.67,-249.7 731.67,-191.3 520.11,-191.3"/>
<text text-anchor="middle" x="625.89" y="-233.1" font-family="Times,serif" font-size="14.00">&lt;&lt;Abstract&gt;&gt;</text>
<text text-anchor="middle" x="625.89" y="-216.3" font-family="Times,serif" font-size="14.00">AbstractVault</text>
<text text-anchor="middle" x="625.89" y="-199.5" font-family="Times,serif" font-size="14.00">../contracts/vault/AbstractVault.sol</text>
</g>
<!-- 40&#45;&gt;24 -->
<g id="edge7" class="edge">
<title>40&#45;&gt;24</title>
<path fill="none" stroke="black" d="M573.21,-249.78C559.98,-256.88 545.5,-264.65 531.28,-272.28"/>
<polygon fill="none" stroke="black" points="526.15,-263.12 504.69,-286.56 536.09,-281.62 526.15,-263.12"/>
</g>
<!-- 40&#45;&gt;26 -->
<g id="edge6" class="edge">
<title>40&#45;&gt;26</title>
<path fill="none" stroke="black" d="M678.57,-249.78C691.79,-256.88 706.28,-264.65 720.49,-272.28"/>
<polygon fill="none" stroke="black" points="715.69,-281.62 747.09,-286.56 725.62,-263.12 715.69,-281.62"/>
</g>
<!-- 139 -->
<g id="node7" class="node">
<title>139</title>
<polygon fill="#f2f2f2" stroke="black" points="480.07,-95.9 480.07,-154.3 771.71,-154.3 771.71,-95.9 480.07,-95.9"/>
<text text-anchor="middle" x="625.89" y="-137.7" font-family="Times,serif" font-size="14.00">&lt;&lt;Abstract&gt;&gt;</text>
<text text-anchor="middle" x="625.89" y="-120.9" font-family="Times,serif" font-size="14.00">FeeAdminAbstractVault</text>
<text text-anchor="middle" x="625.89" y="-104.1" font-family="Times,serif" font-size="14.00">../contracts/vault/fee/FeeAdminAbstractVault.sol</text>
</g>
<!-- 139&#45;&gt;40 -->
<g id="edge8" class="edge">
<title>139&#45;&gt;40</title>
<path fill="none" stroke="black" d="M625.89,-154.38C625.89,-156.46 625.89,-158.6 625.89,-160.78"/>
<polygon fill="none" stroke="black" points="615.39,-161 625.89,-191 636.39,-161 615.39,-161"/>
</g>
<!-- 147 -->
<g id="node8" class="node">
<title>147</title>
<polygon fill="#f2f2f2" stroke="black" points="491.73,-0.5 491.73,-58.9 760.04,-58.9 760.04,-0.5 491.73,-0.5"/>
<text text-anchor="middle" x="625.89" y="-42.3" font-family="Times,serif" font-size="14.00">&lt;&lt;Abstract&gt;&gt;</text>
<text text-anchor="middle" x="625.89" y="-25.5" font-family="Times,serif" font-size="14.00">TxFeeAbstractVault</text>
<text text-anchor="middle" x="625.89" y="-8.7" font-family="Times,serif" font-size="14.00">../contracts/vault/fee/TxFeeAbstractVault.sol</text>
</g>
<!-- 147&#45;&gt;139 -->
<g id="edge9" class="edge">
<title>147&#45;&gt;139</title>
<path fill="none" stroke="black" d="M625.89,-58.98C625.89,-61.06 625.89,-63.2 625.89,-65.38"/>
<polygon fill="none" stroke="black" points="615.39,-65.6 625.89,-95.6 636.39,-65.6 615.39,-65.6"/>
</g>
<!-- 279 -->
<g id="node11" class="node">
<title>279</title>
<polygon fill="#f2f2f2" stroke="black" points="630.66,-477.5 630.66,-535.9 981.11,-535.9 981.11,-477.5 630.66,-477.5"/>
<text text-anchor="middle" x="805.89" y="-519.3" font-family="Times,serif" font-size="14.00">&lt;&lt;Abstract&gt;&gt;</text>
<text text-anchor="middle" x="805.89" y="-502.5" font-family="Times,serif" font-size="14.00">Context</text>
<text text-anchor="middle" x="805.89" y="-485.7" font-family="Times,serif" font-size="14.00">../node_modules/@openzeppelin/contracts/utils/Context.sol</text>
</g>
<!-- 270&#45;&gt;279 -->
<g id="edge10" class="edge">
<title>270&#45;&gt;279</title>
<path fill="none" stroke="black" d="M559.06,-440.58C593.9,-449.77 633.04,-460.09 669.7,-469.77"/>
<polygon fill="none" stroke="black" points="667.09,-479.94 698.78,-477.44 672.45,-459.63 667.09,-479.94"/>
</g>
<!-- 417&#45;&gt;279 -->
<g id="edge11" class="edge">
<title>417&#45;&gt;279</title>
<path fill="none" stroke="black" d="M1084.81,-432.11C1043.37,-443.04 990.62,-456.96 942.17,-469.74"/>
<polygon fill="none" stroke="black" points="939.42,-459.61 913.09,-477.42 944.78,-479.91 939.42,-459.61"/>
</g>
</g>
</svg>
