<?xml version="1.0" encoding="UTF-8" standalone="no"?>
<!DOCTYPE svg PUBLIC "-//W3C//DTD SVG 1.1//EN"
 "http://www.w3.org/Graphics/SVG/1.1/DTD/svg11.dtd">
<!-- Generated by graphviz version 5.0.0 (20220707.1540)
 -->
<!-- Title: StorageDiagram Pages: 1 -->
<svg width="2412pt" height="331pt"
 viewBox="0.00 0.00 2411.95 331.00" xmlns="http://www.w3.org/2000/svg" xmlns:xlink="http://www.w3.org/1999/xlink">
<g id="graph0" class="graph" transform="scale(1 1) rotate(0) translate(4 327)">
<title>StorageDiagram</title>
<polygon fill="white" stroke="transparent" points="-4,4 -4,-327 2407.95,-327 2407.95,4 -4,4"/>
<!-- 2 -->
<g id="node1" class="node">
<title>2</title>
<polygon fill="#f2f2f2" stroke="black" points="0,-24.9 0,-322.5 1214.18,-322.5 1214.18,-24.9 0,-24.9"/>
<text text-anchor="middle" x="607.09" y="-305.9" font-family="Courier New" font-size="14.00">TxFeeAbstractVault &lt;&lt;Contract&gt;&gt;</text>
<polyline fill="none" stroke="black" points="0,-297.7 1214.18,-297.7 "/>
<text text-anchor="middle" x="24.8" y="-281.1" font-family="Courier New" font-size="14.00">slot</text>
<polyline fill="none" stroke="black" points="0,-272.9 49.61,-272.9 "/>
<text text-anchor="middle" x="24.8" y="-256.3" font-family="Courier New" font-size="14.00">0</text>
<polyline fill="none" stroke="black" points="0,-248.1 49.61,-248.1 "/>
<text text-anchor="middle" x="24.8" y="-231.5" font-family="Courier New" font-size="14.00">1</text>
<polyline fill="none" stroke="black" points="0,-223.3 49.61,-223.3 "/>
<text text-anchor="middle" x="24.8" y="-206.7" font-family="Courier New" font-size="14.00">2</text>
<polyline fill="none" stroke="black" points="0,-198.5 49.61,-198.5 "/>
<text text-anchor="middle" x="24.8" y="-181.9" font-family="Courier New" font-size="14.00">3</text>
<polyline fill="none" stroke="black" points="0,-173.7 49.61,-173.7 "/>
<text text-anchor="middle" x="24.8" y="-157.1" font-family="Courier New" font-size="14.00">4</text>
<polyline fill="none" stroke="black" points="0,-148.9 49.61,-148.9 "/>
<text text-anchor="middle" x="24.8" y="-132.3" font-family="Courier New" font-size="14.00">5</text>
<polyline fill="none" stroke="black" points="0,-124.1 49.61,-124.1 "/>
<text text-anchor="middle" x="24.8" y="-107.5" font-family="Courier New" font-size="14.00">6</text>
<polyline fill="none" stroke="black" points="0,-99.3 49.61,-99.3 "/>
<text text-anchor="middle" x="24.8" y="-82.7" font-family="Courier New" font-size="14.00">7</text>
<polyline fill="none" stroke="black" points="0,-74.5 49.61,-74.5 "/>
<text text-anchor="middle" x="24.8" y="-57.9" font-family="Courier New" font-size="14.00">8</text>
<polyline fill="none" stroke="black" points="0,-49.7 49.61,-49.7 "/>
<text text-anchor="middle" x="24.8" y="-33.1" font-family="Courier New" font-size="14.00">9</text>
<polyline fill="none" stroke="black" points="49.61,-24.9 49.61,-297.7 "/>
<text text-anchor="middle" x="631.9" y="-281.1" font-family="Courier New" font-size="14.00">type: &lt;inherited contract&gt;.variable (bytes)</text>
<polyline fill="none" stroke="black" points="49.61,-272.9 1214.18,-272.9 "/>
<text text-anchor="middle" x="631.54" y="-256.3" font-family="Courier New" font-size="14.00">mapping(address=&gt;uint256): ERC20._balances (32)</text>
<polyline fill="none" stroke="black" points="49.61,-248.1 1214.18,-248.1 "/>
<text text-anchor="middle" x="631.55" y="-231.5" font-family="Courier New" font-size="14.00">mapping(address=&gt;mapping(address=&gt;uint256)): ERC20._allowances (32)</text>
<polyline fill="none" stroke="black" points="49.61,-223.3 1214.18,-223.3 "/>
<text text-anchor="middle" x="631.53" y="-206.7" font-family="Courier New" font-size="14.00">uint256: ERC20._totalSupply (32)</text>
<polyline fill="none" stroke="black" points="49.61,-198.5 1214.18,-198.5 "/>
<text text-anchor="middle" x="631.42" y="-181.9" font-family="Courier New" font-size="14.00">string: ERC20._name (32)</text>
<polyline fill="none" stroke="black" points="49.61,-173.7 1214.18,-173.7 "/>
<text text-anchor="middle" x="631.82" y="-157.1" font-family="Courier New" font-size="14.00">string: ERC20._symbol (32)</text>
<polyline fill="none" stroke="black" points="49.61,-148.9 1214.18,-148.9 "/>
<text text-anchor="middle" x="631.44" y="-132.3" font-family="Courier New" font-size="14.00">string: InitializableTokenDetails._name (32)</text>
<polyline fill="none" stroke="black" points="49.61,-124.1 1214.18,-124.1 "/>
<text text-anchor="middle" x="631.84" y="-107.5" font-family="Courier New" font-size="14.00">string: InitializableTokenDetails._symbol (32)</text>
<polyline fill="none" stroke="black" points="49.61,-99.3 1214.18,-99.3 "/>
<text text-anchor="middle" x="124.82" y="-82.7" font-family="Courier New" font-size="14.00">unallocated (10)</text>
<polyline fill="none" stroke="black" points="200.03,-74.5 200.03,-99.3 "/>
<text text-anchor="middle" x="388.66" y="-82.7" font-family="Courier New" font-size="14.00">address: VaultManagerRole.vaultManager (20)</text>
<polyline fill="none" stroke="black" points="577.29,-74.5 577.29,-99.3 "/>
<text text-anchor="middle" x="694.5" y="-82.7" font-family="Courier New" font-size="14.00">bool: Pausable._paused (1)</text>
<polyline fill="none" stroke="black" points="811.72,-74.5 811.72,-99.3 "/>
<text text-anchor="middle" x="1012.95" y="-82.7" font-family="Courier New" font-size="14.00">uint8: InitializableTokenDetails._decimals (1)</text>
<polyline fill="none" stroke="black" points="49.61,-74.5 1214.18,-74.5 "/>
<text text-anchor="middle" x="275.32" y="-57.9" font-family="Courier New" font-size="14.00">unallocated (12)</text>
<polyline fill="none" stroke="black" points="501.03,-49.7 501.03,-74.5 "/>
<text text-anchor="middle" x="857.46" y="-57.9" font-family="Courier New" font-size="14.00">address: FeeAdminAbstractVault.feeReceiver (20)</text>
<polyline fill="none" stroke="black" points="49.61,-49.7 1214.18,-49.7 "/>
<text text-anchor="middle" x="631.82" y="-33.1" font-family="Courier New" font-size="14.00">FeeData: feeData (32)</text>
</g>
<!-- 1 -->
<g id="node2" class="node">
<title>1</title>
<polygon fill="#f2f2f2" stroke="black" points="1250.18,-0.5 1250.18,-74.9 2403.95,-74.9 2403.95,-0.5 1250.18,-0.5"/>
<text text-anchor="middle" x="1827.07" y="-58.3" font-family="Courier New" font-size="14.00">FeeData &lt;&lt;Struct&gt;&gt;</text>
<polyline fill="none" stroke="black" points="1250.18,-50.1 2403.95,-50.1 "/>
<text text-anchor="middle" x="1274.99" y="-33.5" font-family="Courier New" font-size="14.00">slot</text>
<polyline fill="none" stroke="black" points="1250.18,-25.3 1299.79,-25.3 "/>
<text text-anchor="middle" x="1274.99" y="-8.7" font-family="Courier New" font-size="14.00">9</text>
<polyline fill="none" stroke="black" points="1299.79,-0.5 1299.79,-50.1 "/>
<text text-anchor="middle" x="1851.87" y="-33.5" font-family="Courier New" font-size="14.00">type: variable (bytes)</text>
<polyline fill="none" stroke="black" points="1299.79,-25.3 2403.95,-25.3 "/>
<text text-anchor="middle" x="1375" y="-8.7" font-family="Courier New" font-size="14.00">unallocated (22)</text>
<polyline fill="none" stroke="black" points="1450.21,-0.5 1450.21,-25.3 "/>
<text text-anchor="middle" x="1538.02" y="-8.7" font-family="Courier New" font-size="14.00">uint16: swapFee (2)</text>
<polyline fill="none" stroke="black" points="1625.84,-0.5 1625.84,-25.3 "/>
<text text-anchor="middle" x="1722.05" y="-8.7" font-family="Courier New" font-size="14.00">uint16: redeemFee (2)</text>
<polyline fill="none" stroke="black" points="1818.27,-0.5 1818.27,-25.3 "/>
<text text-anchor="middle" x="1922.88" y="-8.7" font-family="Courier New" font-size="14.00">uint16: withdrawFee (2)</text>
<polyline fill="none" stroke="black" points="2027.5,-0.5 2027.5,-25.3 "/>
<text text-anchor="middle" x="2115.31" y="-8.7" font-family="Courier New" font-size="14.00">uint16: mintFee (2)</text>
<polyline fill="none" stroke="black" points="2203.12,-0.5 2203.12,-25.3 "/>
<text text-anchor="middle" x="2303.54" y="-8.7" font-family="Courier New" font-size="14.00">uint16: depositFee (2)</text>
</g>
<!-- 2&#45;&gt;1 -->
<g id="edge1" class="edge">
<title>2:17&#45;&gt;1</title>
<path fill="none" stroke="black" d="M1214.18,-37.7C1222.68,-37.7 1231.24,-37.7 1239.85,-37.7"/>
<polygon fill="black" stroke="black" points="1239.99,-41.2 1249.99,-37.7 1239.99,-34.2 1239.99,-41.2"/>
</g>
</g>
</svg>
