<?xml version="1.0" encoding="UTF-8" standalone="no"?>
<!DOCTYPE svg PUBLIC "-//W3C//DTD SVG 1.1//EN"
 "http://www.w3.org/Graphics/SVG/1.1/DTD/svg11.dtd">
<!-- Generated by graphviz version 5.0.0 (20220707.1540)
 -->
<!-- Title: UmlClassDiagram Pages: 1 -->
<svg width="790pt" height="696pt"
 viewBox="0.00 0.00 789.56 696.00" xmlns="http://www.w3.org/2000/svg" xmlns:xlink="http://www.w3.org/1999/xlink">
<g id="graph0" class="graph" transform="scale(1 1) rotate(0) translate(4 692)">
<title>UmlClassDiagram</title>
<polygon fill="white" stroke="transparent" points="-4,4 -4,-692 785.56,-692 785.56,4 -4,4"/>
<!-- 25 -->
<g id="node1" class="node">
<title>25</title>
<polygon fill="#f2f2f2" stroke="black" points="244.57,-0.5 244.57,-83.7 603.87,-83.7 603.87,-0.5 244.57,-0.5"/>
<text text-anchor="middle" x="424.22" y="-67.1" font-family="Times,serif" font-size="14.00">VaultProxy</text>
<text text-anchor="middle" x="424.22" y="-50.3" font-family="Times,serif" font-size="14.00">..contractsupgradabilityProxies.sol</text>
<polyline fill="none" stroke="black" points="244.57,-42.1 603.87,-42.1 "/>
<text text-anchor="start" x="252.57" y="-25.5" font-family="Times,serif" font-size="14.00">Public:</text>
<text text-anchor="start" x="252.57" y="-8.7" font-family="Times,serif" font-size="14.00"> &#160;&#160;&#160;constructor(_logic: address, admin_: address, _data: bytes)</text>
</g>
<!-- 240 -->
<g id="node5" class="node">
<title>240</title>
<polygon fill="#f2f2f2" stroke="black" points="155.65,-120.7 155.65,-338.3 692.8,-338.3 692.8,-120.7 155.65,-120.7"/>
<text text-anchor="middle" x="424.22" y="-321.7" font-family="Times,serif" font-size="14.00">TransparentUpgradeableProxy</text>
<text text-anchor="middle" x="424.22" y="-304.9" font-family="Times,serif" font-size="14.00">..</text>
<text text-anchor="middle" x="424.22" y="-288.1" font-family="Times,serif" font-size="14.00">ode_modules@openzeppelincontractsproxytransparentTransparentUpgradeableProxy.sol</text>
<polyline fill="none" stroke="black" points="155.65,-279.9 692.8,-279.9 "/>
<text text-anchor="start" x="163.65" y="-263.3" font-family="Times,serif" font-size="14.00">External:</text>
<text text-anchor="start" x="163.65" y="-246.5" font-family="Times,serif" font-size="14.00"> &#160;&#160;&#160;&lt;&lt;payable&gt;&gt; upgradeToAndCall(newImplementation: address, data: bytes) &lt;&lt;ifAdmin&gt;&gt;</text>
<text text-anchor="start" x="163.65" y="-229.7" font-family="Times,serif" font-size="14.00"> &#160;&#160;&#160;admin(): (admin_: address) &lt;&lt;ifAdmin&gt;&gt;</text>
<text text-anchor="start" x="163.65" y="-212.9" font-family="Times,serif" font-size="14.00"> &#160;&#160;&#160;implementation(): (implementation_: address) &lt;&lt;ifAdmin&gt;&gt;</text>
<text text-anchor="start" x="163.65" y="-196.1" font-family="Times,serif" font-size="14.00"> &#160;&#160;&#160;changeAdmin(newAdmin: address) &lt;&lt;ifAdmin&gt;&gt;</text>
<text text-anchor="start" x="163.65" y="-179.3" font-family="Times,serif" font-size="14.00"> &#160;&#160;&#160;upgradeTo(newImplementation: address) &lt;&lt;ifAdmin&gt;&gt;</text>
<text text-anchor="start" x="163.65" y="-162.5" font-family="Times,serif" font-size="14.00">Public:</text>
<text text-anchor="start" x="163.65" y="-145.7" font-family="Times,serif" font-size="14.00"> &#160;&#160;&#160;&lt;&lt;modifier&gt;&gt; ifAdmin()</text>
<text text-anchor="start" x="163.65" y="-128.9" font-family="Times,serif" font-size="14.00"> &#160;&#160;&#160;constructor(_logic: address, admin_: address, _data: bytes)</text>
</g>
<!-- 25&#45;&gt;240 -->
<g id="edge1" class="edge">
<title>25&#45;&gt;240</title>
<path fill="none" stroke="black" d="M424.22,-83.79C424.22,-85.87 424.22,-88 424.22,-90.17"/>
<polygon fill="none" stroke="black" points="413.72,-90.39 424.22,-120.39 434.72,-90.39 413.72,-90.39"/>
</g>
<!-- 237 -->
<g id="node2" class="node">
<title>237</title>
<polygon fill="#f2f2f2" stroke="black" points="220.22,-375.3 220.22,-475.3 628.23,-475.3 628.23,-375.3 220.22,-375.3"/>
<text text-anchor="middle" x="424.22" y="-458.7" font-family="Times,serif" font-size="14.00">ERC1967Proxy</text>
<text text-anchor="middle" x="424.22" y="-441.9" font-family="Times,serif" font-size="14.00">..</text>
<text text-anchor="middle" x="424.22" y="-425.1" font-family="Times,serif" font-size="14.00">ode_modules@openzeppelincontractsproxyRC1967RC1967Proxy.sol</text>
<polyline fill="none" stroke="black" points="220.22,-416.9 628.23,-416.9 "/>
<text text-anchor="start" x="228.22" y="-400.3" font-family="Times,serif" font-size="14.00">Public:</text>
<text text-anchor="start" x="228.22" y="-383.5" font-family="Times,serif" font-size="14.00"> &#160;&#160;&#160;constructor(_logic: address, _data: bytes)</text>
</g>
<!-- 238 -->
<g id="node3" class="node">
<title>238</title>
<polygon fill="#f2f2f2" stroke="black" points="0,-512.3 0,-687.5 448.45,-687.5 448.45,-512.3 0,-512.3"/>
<text text-anchor="middle" x="224.22" y="-670.9" font-family="Times,serif" font-size="14.00">&lt;&lt;Abstract&gt;&gt;</text>
<text text-anchor="middle" x="224.22" y="-654.1" font-family="Times,serif" font-size="14.00">ERC1967Upgrade</text>
<text text-anchor="middle" x="224.22" y="-637.3" font-family="Times,serif" font-size="14.00">..</text>
<text text-anchor="middle" x="224.22" y="-620.5" font-family="Times,serif" font-size="14.00">ode_modules@openzeppelincontractsproxyRC1967RC1967Upgrade.sol</text>
<polyline fill="none" stroke="black" points="0,-612.3 448.45,-612.3 "/>
<text text-anchor="middle" x="224.22" y="-595.7" font-family="Times,serif" font-size="14.00"> </text>
<polyline fill="none" stroke="black" points="0,-587.5 448.45,-587.5 "/>
<text text-anchor="start" x="8" y="-570.9" font-family="Times,serif" font-size="14.00">Public:</text>
<text text-anchor="start" x="8" y="-554.1" font-family="Times,serif" font-size="14.00"> &#160;&#160;&#160;&lt;&lt;event&gt;&gt; Upgraded(implementation: address)</text>
<text text-anchor="start" x="8" y="-537.3" font-family="Times,serif" font-size="14.00"> &#160;&#160;&#160;&lt;&lt;event&gt;&gt; AdminChanged(previousAdmin: address, newAdmin: address)</text>
<text text-anchor="start" x="8" y="-520.5" font-family="Times,serif" font-size="14.00"> &#160;&#160;&#160;&lt;&lt;event&gt;&gt; BeaconUpgraded(beacon: address)</text>
</g>
<!-- 237&#45;&gt;238 -->
<g id="edge3" class="edge">
<title>237&#45;&gt;238</title>
<path fill="none" stroke="black" d="M367.18,-475.53C360.96,-480.9 354.46,-486.51 347.81,-492.24"/>
<polygon fill="none" stroke="black" points="340.69,-484.52 324.83,-512.07 354.41,-500.42 340.69,-484.52"/>
</g>
<!-- 156 -->
<g id="node4" class="node">
<title>156</title>
<polygon fill="#f2f2f2" stroke="black" points="466.89,-533.1 466.89,-666.7 781.56,-666.7 781.56,-533.1 466.89,-533.1"/>
<text text-anchor="middle" x="624.22" y="-650.1" font-family="Times,serif" font-size="14.00">&lt;&lt;Abstract&gt;&gt;</text>
<text text-anchor="middle" x="624.22" y="-633.3" font-family="Times,serif" font-size="14.00">Proxy</text>
<text text-anchor="middle" x="624.22" y="-616.5" font-family="Times,serif" font-size="14.00">..</text>
<text text-anchor="middle" x="624.22" y="-599.7" font-family="Times,serif" font-size="14.00">ode_modules@openzeppelincontractsproxyProxy.sol</text>
<polyline fill="none" stroke="black" points="466.89,-591.5 781.56,-591.5 "/>
<text text-anchor="start" x="474.89" y="-574.9" font-family="Times,serif" font-size="14.00">External:</text>
<text text-anchor="start" x="474.89" y="-558.1" font-family="Times,serif" font-size="14.00"> &#160;&#160;&#160;&lt;&lt;payable&gt;&gt; null()</text>
<text text-anchor="start" x="474.89" y="-541.3" font-family="Times,serif" font-size="14.00"> &#160;&#160;&#160;&lt;&lt;payable&gt;&gt; null()</text>
</g>
<!-- 237&#45;&gt;156 -->
<g id="edge2" class="edge">
<title>237&#45;&gt;156</title>
<path fill="none" stroke="black" d="M481.27,-475.53C494.91,-487.3 509.87,-500.21 524.82,-513.11"/>
<polygon fill="none" stroke="black" points="518.12,-521.21 547.7,-532.86 531.85,-505.31 518.12,-521.21"/>
</g>
<!-- 240&#45;&gt;237 -->
<g id="edge4" class="edge">
<title>240&#45;&gt;237</title>
<path fill="none" stroke="black" d="M424.22,-338.45C424.22,-340.53 424.22,-342.61 424.22,-344.67"/>
<polygon fill="none" stroke="black" points="413.72,-344.86 424.22,-374.86 434.72,-344.86 413.72,-344.86"/>
</g>
</g>
</svg>
