<?xml version="1.0" encoding="UTF-8" standalone="no"?>
<!DOCTYPE svg PUBLIC "-//W3C//DTD SVG 1.1//EN"
 "http://www.w3.org/Graphics/SVG/1.1/DTD/svg11.dtd">
<!-- Generated by graphviz version 5.0.0 (20220707.1540)
 -->
<!-- Title: UmlClassDiagram Pages: 1 -->
<svg width="852pt" height="646pt"
 viewBox="0.00 0.00 851.66 645.60" xmlns="http://www.w3.org/2000/svg" xmlns:xlink="http://www.w3.org/1999/xlink">
<g id="graph0" class="graph" transform="scale(1 1) rotate(0) translate(4 641.6)">
<title>UmlClassDiagram</title>
<polygon fill="white" stroke="transparent" points="-4,4 -4,-641.6 847.66,-641.6 847.66,4 -4,4"/>
<!-- 36 -->
<g id="node1" class="node">
<title>36</title>
<polygon fill="#f2f2f2" stroke="black" points="273.95,-0.5 273.95,-83.7 633.25,-83.7 633.25,-0.5 273.95,-0.5"/>
<text text-anchor="middle" x="453.6" y="-67.1" font-family="Times,serif" font-size="14.00">VaultProxy</text>
<text text-anchor="middle" x="453.6" y="-50.3" font-family="Times,serif" font-size="14.00">../contracts/upgradability/Proxies.sol</text>
<polyline fill="none" stroke="black" points="273.95,-42.1 633.25,-42.1 "/>
<text text-anchor="start" x="281.95" y="-25.5" font-family="Times,serif" font-size="14.00">Public:</text>
<text text-anchor="start" x="281.95" y="-8.7" font-family="Times,serif" font-size="14.00"> &#160;&#160;&#160;constructor(_logic: address, admin_: address, _data: bytes)</text>
</g>
<!-- 411 -->
<g id="node5" class="node">
<title>411</title>
<polygon fill="#f2f2f2" stroke="black" points="177.32,-120.7 177.32,-321.5 729.89,-321.5 729.89,-120.7 177.32,-120.7"/>
<text text-anchor="middle" x="453.6" y="-304.9" font-family="Times,serif" font-size="14.00">TransparentUpgradeableProxy</text>
<text text-anchor="middle" x="453.6" y="-288.1" font-family="Times,serif" font-size="14.00">../node_modules/@openzeppelin/contracts/proxy/transparent/TransparentUpgradeableProxy.sol</text>
<polyline fill="none" stroke="black" points="177.32,-279.9 729.89,-279.9 "/>
<text text-anchor="start" x="185.32" y="-263.3" font-family="Times,serif" font-size="14.00">External:</text>
<text text-anchor="start" x="185.32" y="-246.5" font-family="Times,serif" font-size="14.00"> &#160;&#160;&#160;&lt;&lt;payable&gt;&gt; upgradeToAndCall(newImplementation: address, data: bytes)</text>
<text text-anchor="start" x="185.32" y="-229.7" font-family="Times,serif" font-size="14.00"> &#160;&#160;&#160;admin(): (admin_: address)</text>
<text text-anchor="start" x="185.32" y="-212.9" font-family="Times,serif" font-size="14.00"> &#160;&#160;&#160;implementation(): (implementation_: address)</text>
<text text-anchor="start" x="185.32" y="-196.1" font-family="Times,serif" font-size="14.00"> &#160;&#160;&#160;changeAdmin(newAdmin: address)</text>
<text text-anchor="start" x="185.32" y="-179.3" font-family="Times,serif" font-size="14.00"> &#160;&#160;&#160;upgradeTo(newImplementation: address)</text>
<text text-anchor="start" x="185.32" y="-162.5" font-family="Times,serif" font-size="14.00">Public:</text>
<text text-anchor="start" x="185.32" y="-145.7" font-family="Times,serif" font-size="14.00"> &#160;&#160;&#160;&lt;&lt;modifier&gt;&gt; ifAdmin()</text>
<text text-anchor="start" x="185.32" y="-128.9" font-family="Times,serif" font-size="14.00"> &#160;&#160;&#160;constructor(_logic: address, admin_: address, _data: bytes)</text>
</g>
<!-- 36&#45;&gt;411 -->
<g id="edge1" class="edge">
<title>36&#45;&gt;411</title>
<path fill="none" stroke="black" d="M453.6,-83.71C453.6,-85.9 453.6,-88.15 453.6,-90.45"/>
<polygon fill="none" stroke="black" points="443.1,-90.65 453.6,-120.65 464.1,-90.65 443.1,-90.65"/>
</g>
<!-- 405 -->
<g id="node2" class="node">
<title>405</title>
<polygon fill="#f2f2f2" stroke="black" points="222.38,-358.5 222.38,-441.7 684.83,-441.7 684.83,-358.5 222.38,-358.5"/>
<text text-anchor="middle" x="453.6" y="-425.1" font-family="Times,serif" font-size="14.00">ERC1967Proxy</text>
<text text-anchor="middle" x="453.6" y="-408.3" font-family="Times,serif" font-size="14.00">../node_modules/@openzeppelin/contracts/proxy/ERC1967/ERC1967Proxy.sol</text>
<polyline fill="none" stroke="black" points="222.38,-400.1 684.83,-400.1 "/>
<text text-anchor="start" x="230.38" y="-383.5" font-family="Times,serif" font-size="14.00">Public:</text>
<text text-anchor="start" x="230.38" y="-366.7" font-family="Times,serif" font-size="14.00"> &#160;&#160;&#160;constructor(_logic: address, _data: bytes)</text>
</g>
<!-- 406 -->
<g id="node3" class="node">
<title>406</title>
<polygon fill="#f2f2f2" stroke="black" points="0,-478.7 0,-637.1 477.21,-637.1 477.21,-478.7 0,-478.7"/>
<text text-anchor="middle" x="238.6" y="-620.5" font-family="Times,serif" font-size="14.00">&lt;&lt;Abstract&gt;&gt;</text>
<text text-anchor="middle" x="238.6" y="-603.7" font-family="Times,serif" font-size="14.00">ERC1967Upgrade</text>
<text text-anchor="middle" x="238.6" y="-586.9" font-family="Times,serif" font-size="14.00">../node_modules/@openzeppelin/contracts/proxy/ERC1967/ERC1967Upgrade.sol</text>
<polyline fill="none" stroke="black" points="0,-578.7 477.21,-578.7 "/>
<text text-anchor="middle" x="238.6" y="-562.1" font-family="Times,serif" font-size="14.00"> </text>
<polyline fill="none" stroke="black" points="0,-553.9 477.21,-553.9 "/>
<text text-anchor="start" x="8" y="-537.3" font-family="Times,serif" font-size="14.00">Public:</text>
<text text-anchor="start" x="8" y="-520.5" font-family="Times,serif" font-size="14.00"> &#160;&#160;&#160;&lt;&lt;event&gt;&gt; Upgraded(implementation: address)</text>
<text text-anchor="start" x="8" y="-503.7" font-family="Times,serif" font-size="14.00"> &#160;&#160;&#160;&lt;&lt;event&gt;&gt; AdminChanged(previousAdmin: address, newAdmin: address)</text>
<text text-anchor="start" x="8" y="-486.9" font-family="Times,serif" font-size="14.00"> &#160;&#160;&#160;&lt;&lt;event&gt;&gt; BeaconUpgraded(beacon: address)</text>
</g>
<!-- 405&#45;&gt;406 -->
<g id="edge3" class="edge">
<title>405&#45;&gt;406</title>
<path fill="none" stroke="black" d="M397.4,-441.83C389.07,-447.87 380.2,-454.29 371.08,-460.9"/>
<polygon fill="none" stroke="black" points="364.68,-452.57 346.55,-478.68 377,-469.58 364.68,-452.57"/>
</g>
<!-- 269 -->
<g id="node4" class="node">
<title>269</title>
<polygon fill="#f2f2f2" stroke="black" points="495.55,-499.5 495.55,-616.3 843.66,-616.3 843.66,-499.5 495.55,-499.5"/>
<text text-anchor="middle" x="669.6" y="-599.7" font-family="Times,serif" font-size="14.00">&lt;&lt;Abstract&gt;&gt;</text>
<text text-anchor="middle" x="669.6" y="-582.9" font-family="Times,serif" font-size="14.00">Proxy</text>
<text text-anchor="middle" x="669.6" y="-566.1" font-family="Times,serif" font-size="14.00">../node_modules/@openzeppelin/contracts/proxy/Proxy.sol</text>
<polyline fill="none" stroke="black" points="495.55,-557.9 843.66,-557.9 "/>
<text text-anchor="start" x="503.55" y="-541.3" font-family="Times,serif" font-size="14.00">External:</text>
<text text-anchor="start" x="503.55" y="-524.5" font-family="Times,serif" font-size="14.00"> &#160;&#160;&#160;&lt;&lt;payable&gt;&gt; null()</text>
<text text-anchor="start" x="503.55" y="-507.7" font-family="Times,serif" font-size="14.00"> &#160;&#160;&#160;&lt;&lt;payable&gt;&gt; null()</text>
</g>
<!-- 405&#45;&gt;269 -->
<g id="edge2" class="edge">
<title>405&#45;&gt;269</title>
<path fill="none" stroke="black" d="M510.07,-441.83C527.12,-454.12 546.4,-468.03 565.51,-481.82"/>
<polygon fill="none" stroke="black" points="559.43,-490.38 589.9,-499.41 571.71,-473.34 559.43,-490.38"/>
</g>
<!-- 411&#45;&gt;405 -->
<g id="edge4" class="edge">
<title>411&#45;&gt;405</title>
<path fill="none" stroke="black" d="M453.6,-321.72C453.6,-323.84 453.6,-325.94 453.6,-328.04"/>
<polygon fill="none" stroke="black" points="443.1,-328.32 453.6,-358.32 464.1,-328.32 443.1,-328.32"/>
</g>
</g>
</svg>
