<?xml version="1.0" encoding="UTF-8" standalone="no"?>
<!DOCTYPE svg PUBLIC "-//W3C//DTD SVG 1.1//EN"
 "http://www.w3.org/Graphics/SVG/1.1/DTD/svg11.dtd">
<!-- Generated by graphviz version 5.0.0 (20220707.1540)
 -->
<!-- Title: UmlClassDiagram Pages: 1 -->
<svg width="1211pt" height="399pt"
 viewBox="0.00 0.00 1211.47 398.60" xmlns="http://www.w3.org/2000/svg" xmlns:xlink="http://www.w3.org/1999/xlink">
<g id="graph0" class="graph" transform="scale(1 1) rotate(0) translate(4 394.6)">
<title>UmlClassDiagram</title>
<polygon fill="white" stroke="transparent" points="-4,4 -4,-394.6 1207.47,-394.6 1207.47,4 -4,4"/>
<!-- 36 -->
<g id="node1" class="node">
<title>36</title>
<polygon fill="#f2f2f2" stroke="black" points="702.57,-0.5 702.57,-42.1 924.26,-42.1 924.26,-0.5 702.57,-0.5"/>
<text text-anchor="middle" x="813.42" y="-25.5" font-family="Times,serif" font-size="14.00">VaultProxy</text>
<text text-anchor="middle" x="813.42" y="-8.7" font-family="Times,serif" font-size="14.00">../contracts/upgradability/Proxies.sol</text>
</g>
<!-- 411 -->
<g id="node6" class="node">
<title>411</title>
<polygon fill="#f2f2f2" stroke="black" points="537.13,-79.1 537.13,-120.7 1089.7,-120.7 1089.7,-79.1 537.13,-79.1"/>
<text text-anchor="middle" x="813.42" y="-104.1" font-family="Times,serif" font-size="14.00">TransparentUpgradeableProxy</text>
<text text-anchor="middle" x="813.42" y="-87.3" font-family="Times,serif" font-size="14.00">../node_modules/@openzeppelin/contracts/proxy/transparent/TransparentUpgradeableProxy.sol</text>
</g>
<!-- 36&#45;&gt;411 -->
<g id="edge1" class="edge">
<title>36&#45;&gt;411</title>
<path fill="none" stroke="black" d="M813.42,-42.43C813.42,-44.45 813.42,-46.56 813.42,-48.73"/>
<polygon fill="none" stroke="black" points="802.92,-48.91 813.42,-78.91 823.92,-48.91 802.92,-48.91"/>
</g>
<!-- 405 -->
<g id="node2" class="node">
<title>405</title>
<polygon fill="#f2f2f2" stroke="black" points="582.19,-157.7 582.19,-199.3 1044.65,-199.3 1044.65,-157.7 582.19,-157.7"/>
<text text-anchor="middle" x="813.42" y="-182.7" font-family="Times,serif" font-size="14.00">ERC1967Proxy</text>
<text text-anchor="middle" x="813.42" y="-165.9" font-family="Times,serif" font-size="14.00">../node_modules/@openzeppelin/contracts/proxy/ERC1967/ERC1967Proxy.sol</text>
</g>
<!-- 406 -->
<g id="node3" class="node">
<title>406</title>
<polygon fill="#f2f2f2" stroke="black" points="359.81,-236.3 359.81,-294.7 837.02,-294.7 837.02,-236.3 359.81,-236.3"/>
<text text-anchor="middle" x="598.42" y="-278.1" font-family="Times,serif" font-size="14.00">&lt;&lt;Abstract&gt;&gt;</text>
<text text-anchor="middle" x="598.42" y="-261.3" font-family="Times,serif" font-size="14.00">ERC1967Upgrade</text>
<text text-anchor="middle" x="598.42" y="-244.5" font-family="Times,serif" font-size="14.00">../node_modules/@openzeppelin/contracts/proxy/ERC1967/ERC1967Upgrade.sol</text>
</g>
<!-- 405&#45;&gt;406 -->
<g id="edge3" class="edge">
<title>405&#45;&gt;406</title>
<path fill="none" stroke="black" d="M763.28,-199.32C743.74,-207.05 720.62,-216.19 697.97,-225.14"/>
<polygon fill="none" stroke="black" points="693.88,-215.47 669.84,-236.26 701.6,-235 693.88,-215.47"/>
</g>
<!-- 269 -->
<g id="node4" class="node">
<title>269</title>
<polygon fill="#f2f2f2" stroke="black" points="855.36,-236.3 855.36,-294.7 1203.47,-294.7 1203.47,-236.3 855.36,-236.3"/>
<text text-anchor="middle" x="1029.42" y="-278.1" font-family="Times,serif" font-size="14.00">&lt;&lt;Abstract&gt;&gt;</text>
<text text-anchor="middle" x="1029.42" y="-261.3" font-family="Times,serif" font-size="14.00">Proxy</text>
<text text-anchor="middle" x="1029.42" y="-244.5" font-family="Times,serif" font-size="14.00">../node_modules/@openzeppelin/contracts/proxy/Proxy.sol</text>
</g>
<!-- 405&#45;&gt;269 -->
<g id="edge2" class="edge">
<title>405&#45;&gt;269</title>
<path fill="none" stroke="black" d="M863.79,-199.32C883.42,-207.05 906.65,-216.19 929.4,-225.14"/>
<polygon fill="none" stroke="black" points="925.9,-235.05 957.66,-236.26 933.59,-215.51 925.9,-235.05"/>
</g>
<!-- 408 -->
<g id="node5" class="node">
<title>408</title>
<polygon fill="#f2f2f2" stroke="black" points="0,-331.7 0,-390.1 404.83,-390.1 404.83,-331.7 0,-331.7"/>
<text text-anchor="middle" x="202.42" y="-373.5" font-family="Times,serif" font-size="14.00">&lt;&lt;Interface&gt;&gt;</text>
<text text-anchor="middle" x="202.42" y="-356.7" font-family="Times,serif" font-size="14.00">IBeacon</text>
<text text-anchor="middle" x="202.42" y="-339.9" font-family="Times,serif" font-size="14.00">../node_modules/@openzeppelin/contracts/proxy/beacon/IBeacon.sol</text>
</g>
<!-- 406&#45;&gt;408 -->
<g id="edge6" class="edge">
<title>406&#45;&gt;408</title>
<path fill="none" stroke="black" stroke-dasharray="5,2" d="M478.8,-294.71C432.46,-305.64 379.29,-318.18 332.04,-329.33"/>
<polygon fill="black" stroke="black" points="330.98,-325.98 322.05,-331.68 332.59,-332.79 330.98,-325.98"/>
</g>
<!-- 273 -->
<g id="node7" class="node">
<title>273</title>
<polygon fill="#f2f2f2" stroke="black" points="422.42,-331.7 422.42,-390.1 774.42,-390.1 774.42,-331.7 422.42,-331.7"/>
<text text-anchor="middle" x="598.42" y="-373.5" font-family="Times,serif" font-size="14.00">&lt;&lt;Library&gt;&gt;</text>
<text text-anchor="middle" x="598.42" y="-356.7" font-family="Times,serif" font-size="14.00">Address</text>
<text text-anchor="middle" x="598.42" y="-339.9" font-family="Times,serif" font-size="14.00">../node_modules/@openzeppelin/contracts/utils/Address.sol</text>
</g>
<!-- 406&#45;&gt;273 -->
<g id="edge5" class="edge">
<title>406&#45;&gt;273</title>
<path fill="none" stroke="black" stroke-dasharray="5,2" d="M598.42,-294.78C598.42,-303.11 598.42,-312.38 598.42,-321.25"/>
<polygon fill="black" stroke="black" points="594.92,-321.4 598.42,-331.4 601.92,-321.4 594.92,-321.4"/>
</g>
<!-- 284 -->
<g id="node8" class="node">
<title>284</title>
<polygon fill="#f2f2f2" stroke="black" points="792.69,-331.7 792.69,-390.1 1164.14,-390.1 1164.14,-331.7 792.69,-331.7"/>
<text text-anchor="middle" x="978.42" y="-373.5" font-family="Times,serif" font-size="14.00">&lt;&lt;Library&gt;&gt;</text>
<text text-anchor="middle" x="978.42" y="-356.7" font-family="Times,serif" font-size="14.00">StorageSlot</text>
<text text-anchor="middle" x="978.42" y="-339.9" font-family="Times,serif" font-size="14.00">../node_modules/@openzeppelin/contracts/utils/StorageSlot.sol</text>
</g>
<!-- 406&#45;&gt;284 -->
<g id="edge4" class="edge">
<title>406&#45;&gt;284</title>
<path fill="none" stroke="black" stroke-dasharray="5,2" d="M713.2,-294.71C757.58,-305.62 808.48,-318.13 853.75,-329.26"/>
<polygon fill="black" stroke="black" points="853.07,-332.7 863.62,-331.68 854.74,-325.9 853.07,-332.7"/>
</g>
<!-- 411&#45;&gt;405 -->
<g id="edge7" class="edge">
<title>411&#45;&gt;405</title>
<path fill="none" stroke="black" d="M813.42,-121.03C813.42,-123.05 813.42,-125.16 813.42,-127.33"/>
<polygon fill="none" stroke="black" points="802.92,-127.51 813.42,-157.51 823.92,-127.51 802.92,-127.51"/>
</g>
</g>
</svg>
