<?xml version="1.0" encoding="UTF-8" standalone="no"?>
<!DOCTYPE svg PUBLIC "-//W3C//DTD SVG 1.1//EN"
 "http://www.w3.org/Graphics/SVG/1.1/DTD/svg11.dtd">
<!-- Generated by graphviz version 5.0.0 (20220707.1540)
 -->
<!-- Title: UmlClassDiagram Pages: 1 -->
<svg width="1097pt" height="466pt"
 viewBox="0.00 0.00 1097.08 465.80" xmlns="http://www.w3.org/2000/svg" xmlns:xlink="http://www.w3.org/1999/xlink">
<g id="graph0" class="graph" transform="scale(1 1) rotate(0) translate(4 461.8)">
<title>UmlClassDiagram</title>
<polygon fill="white" stroke="transparent" points="-4,4 -4,-461.8 1093.08,-461.8 1093.08,4 -4,4"/>
<!-- 25 -->
<g id="node1" class="node">
<title>25</title>
<polygon fill="#f2f2f2" stroke="black" points="632.74,-0.5 632.74,-42.1 842.76,-42.1 842.76,-0.5 632.74,-0.5"/>
<text text-anchor="middle" x="737.75" y="-25.5" font-family="Times,serif" font-size="14.00">VaultProxy</text>
<text text-anchor="middle" x="737.75" y="-8.7" font-family="Times,serif" font-size="14.00">..contractsupgradabilityProxies.sol</text>
</g>
<!-- 240 -->
<g id="node6" class="node">
<title>240</title>
<polygon fill="#f2f2f2" stroke="black" points="480.13,-79.1 480.13,-137.5 995.36,-137.5 995.36,-79.1 480.13,-79.1"/>
<text text-anchor="middle" x="737.75" y="-120.9" font-family="Times,serif" font-size="14.00">TransparentUpgradeableProxy</text>
<text text-anchor="middle" x="737.75" y="-104.1" font-family="Times,serif" font-size="14.00">..</text>
<text text-anchor="middle" x="737.75" y="-87.3" font-family="Times,serif" font-size="14.00">ode_modules@openzeppelincontractsproxytransparentTransparentUpgradeableProxy.sol</text>
</g>
<!-- 25&#45;&gt;240 -->
<g id="edge1" class="edge">
<title>25&#45;&gt;240</title>
<path fill="none" stroke="black" d="M737.75,-42.44C737.75,-44.49 737.75,-46.63 737.75,-48.83"/>
<polygon fill="none" stroke="black" points="727.25,-48.94 737.75,-78.94 748.25,-48.94 727.25,-48.94"/>
</g>
<!-- 237 -->
<g id="node2" class="node">
<title>237</title>
<polygon fill="#f2f2f2" stroke="black" points="533.74,-174.5 533.74,-232.9 941.76,-232.9 941.76,-174.5 533.74,-174.5"/>
<text text-anchor="middle" x="737.75" y="-216.3" font-family="Times,serif" font-size="14.00">ERC1967Proxy</text>
<text text-anchor="middle" x="737.75" y="-199.5" font-family="Times,serif" font-size="14.00">..</text>
<text text-anchor="middle" x="737.75" y="-182.7" font-family="Times,serif" font-size="14.00">ode_modules@openzeppelincontractsproxyRC1967RC1967Proxy.sol</text>
</g>
<!-- 238 -->
<g id="node3" class="node">
<title>238</title>
<polygon fill="#f2f2f2" stroke="black" points="333.37,-269.9 333.37,-345.1 756.13,-345.1 756.13,-269.9 333.37,-269.9"/>
<text text-anchor="middle" x="544.75" y="-328.5" font-family="Times,serif" font-size="14.00">&lt;&lt;Abstract&gt;&gt;</text>
<text text-anchor="middle" x="544.75" y="-311.7" font-family="Times,serif" font-size="14.00">ERC1967Upgrade</text>
<text text-anchor="middle" x="544.75" y="-294.9" font-family="Times,serif" font-size="14.00">..</text>
<text text-anchor="middle" x="544.75" y="-278.1" font-family="Times,serif" font-size="14.00">ode_modules@openzeppelincontractsproxyRC1967RC1967Upgrade.sol</text>
</g>
<!-- 237&#45;&gt;238 -->
<g id="edge3" class="edge">
<title>237&#45;&gt;238</title>
<path fill="none" stroke="black" d="M684.24,-232.92C670.72,-240.06 655.77,-247.94 640.84,-255.81"/>
<polygon fill="none" stroke="black" points="635.93,-246.53 614.29,-269.82 645.73,-265.11 635.93,-246.53"/>
</g>
<!-- 156 -->
<g id="node4" class="node">
<title>156</title>
<polygon fill="#f2f2f2" stroke="black" points="774.42,-269.9 774.42,-345.1 1089.08,-345.1 1089.08,-269.9 774.42,-269.9"/>
<text text-anchor="middle" x="931.75" y="-328.5" font-family="Times,serif" font-size="14.00">&lt;&lt;Abstract&gt;&gt;</text>
<text text-anchor="middle" x="931.75" y="-311.7" font-family="Times,serif" font-size="14.00">Proxy</text>
<text text-anchor="middle" x="931.75" y="-294.9" font-family="Times,serif" font-size="14.00">..</text>
<text text-anchor="middle" x="931.75" y="-278.1" font-family="Times,serif" font-size="14.00">ode_modules@openzeppelincontractsproxyProxy.sol</text>
</g>
<!-- 237&#45;&gt;156 -->
<g id="edge2" class="edge">
<title>237&#45;&gt;156</title>
<path fill="none" stroke="black" d="M791.53,-232.92C805.13,-240.06 820.15,-247.94 835.15,-255.81"/>
<polygon fill="none" stroke="black" points="830.4,-265.18 861.84,-269.82 840.16,-246.58 830.4,-265.18"/>
</g>
<!-- 235 -->
<g id="node5" class="node">
<title>235</title>
<polygon fill="#f2f2f2" stroke="black" points="0,-382.1 0,-457.3 367.5,-457.3 367.5,-382.1 0,-382.1"/>
<text text-anchor="middle" x="183.75" y="-440.7" font-family="Times,serif" font-size="14.00">&lt;&lt;Interface&gt;&gt;</text>
<text text-anchor="middle" x="183.75" y="-423.9" font-family="Times,serif" font-size="14.00">IBeacon</text>
<text text-anchor="middle" x="183.75" y="-407.1" font-family="Times,serif" font-size="14.00">..</text>
<text text-anchor="middle" x="183.75" y="-390.3" font-family="Times,serif" font-size="14.00">ode_modules@openzeppelincontractsproxybeaconIBeacon.sol</text>
</g>
<!-- 238&#45;&gt;235 -->
<g id="edge6" class="edge">
<title>238&#45;&gt;235</title>
<path fill="none" stroke="black" stroke-dasharray="5,2" d="M424.79,-345.12C389.1,-356.01 349.84,-368 313.55,-379.08"/>
<polygon fill="black" stroke="black" points="312.44,-375.76 303.9,-382.02 314.48,-382.45 312.44,-375.76"/>
</g>
<!-- 160 -->
<g id="node7" class="node">
<title>160</title>
<polygon fill="#f2f2f2" stroke="black" points="385.47,-382.1 385.47,-457.3 704.02,-457.3 704.02,-382.1 385.47,-382.1"/>
<text text-anchor="middle" x="544.75" y="-440.7" font-family="Times,serif" font-size="14.00">&lt;&lt;Library&gt;&gt;</text>
<text text-anchor="middle" x="544.75" y="-423.9" font-family="Times,serif" font-size="14.00">Address</text>
<text text-anchor="middle" x="544.75" y="-407.1" font-family="Times,serif" font-size="14.00">..</text>
<text text-anchor="middle" x="544.75" y="-390.3" font-family="Times,serif" font-size="14.00">ode_modules@openzeppelincontractsutilsAddress.sol</text>
</g>
<!-- 238&#45;&gt;160 -->
<g id="edge5" class="edge">
<title>238&#45;&gt;160</title>
<path fill="none" stroke="black" stroke-dasharray="5,2" d="M544.75,-345.2C544.75,-353.66 544.75,-362.77 544.75,-371.6"/>
<polygon fill="black" stroke="black" points="541.25,-371.79 544.75,-381.79 548.25,-371.79 541.25,-371.79"/>
</g>
<!-- 171 -->
<g id="node8" class="node">
<title>171</title>
<polygon fill="#f2f2f2" stroke="black" points="721.75,-382.1 721.75,-457.3 1059.75,-457.3 1059.75,-382.1 721.75,-382.1"/>
<text text-anchor="middle" x="890.75" y="-440.7" font-family="Times,serif" font-size="14.00">&lt;&lt;Library&gt;&gt;</text>
<text text-anchor="middle" x="890.75" y="-423.9" font-family="Times,serif" font-size="14.00">StorageSlot</text>
<text text-anchor="middle" x="890.75" y="-407.1" font-family="Times,serif" font-size="14.00">..</text>
<text text-anchor="middle" x="890.75" y="-390.3" font-family="Times,serif" font-size="14.00">ode_modules@openzeppelincontractsutilsStorageSlot.sol</text>
</g>
<!-- 238&#45;&gt;171 -->
<g id="edge4" class="edge">
<title>238&#45;&gt;171</title>
<path fill="none" stroke="black" stroke-dasharray="5,2" d="M659.96,-345.2C694.01,-356.04 731.44,-367.96 766.06,-378.99"/>
<polygon fill="black" stroke="black" points="765.15,-382.37 775.74,-382.07 767.28,-375.7 765.15,-382.37"/>
</g>
<!-- 240&#45;&gt;237 -->
<g id="edge7" class="edge">
<title>240&#45;&gt;237</title>
<path fill="none" stroke="black" d="M737.75,-137.58C737.75,-139.66 737.75,-141.8 737.75,-143.98"/>
<polygon fill="none" stroke="black" points="727.25,-144.2 737.75,-174.2 748.25,-144.2 727.25,-144.2"/>
</g>
</g>
</svg>
